<?xml version="1.0" encoding="utf-8"?>
<svg xmlns="http://www.w3.org/2000/svg" xmlns:xlink="http://www.w3.org/1999/xlink" width="600" height="400" viewBox="0 0 2400 1600">
<defs>
  <clipPath id="clip560">
    <rect x="0" y="0" width="2400" height="1600"/>
  </clipPath>
</defs>
<path clip-path="url(#clip560)" d="
M0 1600 L2400 1600 L2400 0 L0 0  Z
  " fill="#ffffff" fill-rule="evenodd" fill-opacity="1"/>
<defs>
  <clipPath id="clip561">
    <rect x="480" y="0" width="1681" height="1600"/>
  </clipPath>
</defs>
<path clip-path="url(#clip560)" d="
M156.598 1486.45 L2352.76 1486.45 L2352.76 47.2441 L156.598 47.2441  Z
  " fill="#ffffff" fill-rule="evenodd" fill-opacity="1"/>
<defs>
  <clipPath id="clip562">
    <rect x="156" y="47" width="2197" height="1440"/>
  </clipPath>
</defs>
<polyline clip-path="url(#clip562)" style="stroke:#000000; stroke-linecap:butt; stroke-linejoin:round; stroke-width:2; stroke-opacity:0.1; fill:none" points="
  445.921,1486.45 445.921,47.2441 
  "/>
<polyline clip-path="url(#clip562)" style="stroke:#000000; stroke-linecap:butt; stroke-linejoin:round; stroke-width:2; stroke-opacity:0.1; fill:none" points="
  917.64,1486.45 917.64,47.2441 
  "/>
<polyline clip-path="url(#clip562)" style="stroke:#000000; stroke-linecap:butt; stroke-linejoin:round; stroke-width:2; stroke-opacity:0.1; fill:none" points="
  1389.36,1486.45 1389.36,47.2441 
  "/>
<polyline clip-path="url(#clip562)" style="stroke:#000000; stroke-linecap:butt; stroke-linejoin:round; stroke-width:2; stroke-opacity:0.1; fill:none" points="
  1861.08,1486.45 1861.08,47.2441 
  "/>
<polyline clip-path="url(#clip562)" style="stroke:#000000; stroke-linecap:butt; stroke-linejoin:round; stroke-width:2; stroke-opacity:0.1; fill:none" points="
  2332.8,1486.45 2332.8,47.2441 
  "/>
<polyline clip-path="url(#clip560)" style="stroke:#000000; stroke-linecap:butt; stroke-linejoin:round; stroke-width:4; stroke-opacity:1; fill:none" points="
  156.598,1486.45 2352.76,1486.45 
  "/>
<polyline clip-path="url(#clip560)" style="stroke:#000000; stroke-linecap:butt; stroke-linejoin:round; stroke-width:4; stroke-opacity:1; fill:none" points="
  445.921,1486.45 445.921,1467.55 
  "/>
<polyline clip-path="url(#clip560)" style="stroke:#000000; stroke-linecap:butt; stroke-linejoin:round; stroke-width:4; stroke-opacity:1; fill:none" points="
  917.64,1486.45 917.64,1467.55 
  "/>
<polyline clip-path="url(#clip560)" style="stroke:#000000; stroke-linecap:butt; stroke-linejoin:round; stroke-width:4; stroke-opacity:1; fill:none" points="
  1389.36,1486.45 1389.36,1467.55 
  "/>
<polyline clip-path="url(#clip560)" style="stroke:#000000; stroke-linecap:butt; stroke-linejoin:round; stroke-width:4; stroke-opacity:1; fill:none" points="
  1861.08,1486.45 1861.08,1467.55 
  "/>
<polyline clip-path="url(#clip560)" style="stroke:#000000; stroke-linecap:butt; stroke-linejoin:round; stroke-width:4; stroke-opacity:1; fill:none" points="
  2332.8,1486.45 2332.8,1467.55 
  "/>
<path clip-path="url(#clip560)" d="M424.104 1517.37 Q420.492 1517.37 418.664 1520.93 Q416.858 1524.47 416.858 1531.6 Q416.858 1538.71 418.664 1542.27 Q420.492 1545.82 424.104 1545.82 Q427.738 1545.82 429.543 1542.27 Q431.372 1538.71 431.372 1531.6 Q431.372 1524.47 429.543 1520.93 Q427.738 1517.37 424.104 1517.37 M424.104 1513.66 Q429.914 1513.66 432.969 1518.27 Q436.048 1522.85 436.048 1531.6 Q436.048 1540.33 432.969 1544.94 Q429.914 1549.52 424.104 1549.52 Q418.293 1549.52 415.215 1544.94 Q412.159 1540.33 412.159 1531.6 Q412.159 1522.85 415.215 1518.27 Q418.293 1513.66 424.104 1513.66 Z" fill="#000000" fill-rule="evenodd" fill-opacity="1" /><path clip-path="url(#clip560)" d="M444.265 1542.97 L449.15 1542.97 L449.15 1548.85 L444.265 1548.85 L444.265 1542.97 Z" fill="#000000" fill-rule="evenodd" fill-opacity="1" /><path clip-path="url(#clip560)" d="M463.363 1544.91 L479.682 1544.91 L479.682 1548.85 L457.738 1548.85 L457.738 1544.91 Q460.4 1542.16 464.983 1537.53 Q469.589 1532.88 470.77 1531.53 Q473.015 1529.01 473.895 1527.27 Q474.798 1525.51 474.798 1523.82 Q474.798 1521.07 472.853 1519.33 Q470.932 1517.6 467.83 1517.6 Q465.631 1517.6 463.177 1518.36 Q460.747 1519.13 457.969 1520.68 L457.969 1515.95 Q460.793 1514.82 463.247 1514.24 Q465.701 1513.66 467.738 1513.66 Q473.108 1513.66 476.302 1516.35 Q479.497 1519.03 479.497 1523.52 Q479.497 1525.65 478.687 1527.57 Q477.9 1529.47 475.793 1532.07 Q475.214 1532.74 472.113 1535.95 Q469.011 1539.15 463.363 1544.91 Z" fill="#000000" fill-rule="evenodd" fill-opacity="1" /><path clip-path="url(#clip560)" d="M894.782 1517.37 Q891.171 1517.37 889.342 1520.93 Q887.536 1524.47 887.536 1531.6 Q887.536 1538.71 889.342 1542.27 Q891.171 1545.82 894.782 1545.82 Q898.416 1545.82 900.221 1542.27 Q902.05 1538.71 902.05 1531.6 Q902.05 1524.47 900.221 1520.93 Q898.416 1517.37 894.782 1517.37 M894.782 1513.66 Q900.592 1513.66 903.647 1518.27 Q906.726 1522.85 906.726 1531.6 Q906.726 1540.33 903.647 1544.94 Q900.592 1549.52 894.782 1549.52 Q888.972 1549.52 885.893 1544.94 Q882.837 1540.33 882.837 1531.6 Q882.837 1522.85 885.893 1518.27 Q888.972 1513.66 894.782 1513.66 Z" fill="#000000" fill-rule="evenodd" fill-opacity="1" /><path clip-path="url(#clip560)" d="M914.944 1542.97 L919.828 1542.97 L919.828 1548.85 L914.944 1548.85 L914.944 1542.97 Z" fill="#000000" fill-rule="evenodd" fill-opacity="1" /><path clip-path="url(#clip560)" d="M942.86 1518.36 L931.055 1536.81 L942.86 1536.81 L942.86 1518.36 M941.633 1514.29 L947.513 1514.29 L947.513 1536.81 L952.443 1536.81 L952.443 1540.7 L947.513 1540.7 L947.513 1548.85 L942.86 1548.85 L942.86 1540.7 L927.258 1540.7 L927.258 1536.19 L941.633 1514.29 Z" fill="#000000" fill-rule="evenodd" fill-opacity="1" /><path clip-path="url(#clip560)" d="M1366.66 1517.37 Q1363.05 1517.37 1361.22 1520.93 Q1359.42 1524.47 1359.42 1531.6 Q1359.42 1538.71 1361.22 1542.27 Q1363.05 1545.82 1366.66 1545.82 Q1370.3 1545.82 1372.1 1542.27 Q1373.93 1538.71 1373.93 1531.6 Q1373.93 1524.47 1372.1 1520.93 Q1370.3 1517.37 1366.66 1517.37 M1366.66 1513.66 Q1372.47 1513.66 1375.53 1518.27 Q1378.61 1522.85 1378.61 1531.6 Q1378.61 1540.33 1375.53 1544.94 Q1372.47 1549.52 1366.66 1549.52 Q1360.85 1549.52 1357.77 1544.94 Q1354.72 1540.33 1354.72 1531.6 Q1354.72 1522.85 1357.77 1518.27 Q1360.85 1513.66 1366.66 1513.66 Z" fill="#000000" fill-rule="evenodd" fill-opacity="1" /><path clip-path="url(#clip560)" d="M1386.83 1542.97 L1391.71 1542.97 L1391.71 1548.85 L1386.83 1548.85 L1386.83 1542.97 Z" fill="#000000" fill-rule="evenodd" fill-opacity="1" /><path clip-path="url(#clip560)" d="M1412.47 1529.7 Q1409.33 1529.7 1407.47 1531.86 Q1405.64 1534.01 1405.64 1537.76 Q1405.64 1541.49 1407.47 1543.66 Q1409.33 1545.82 1412.47 1545.82 Q1415.62 1545.82 1417.45 1543.66 Q1419.3 1541.49 1419.3 1537.76 Q1419.3 1534.01 1417.45 1531.86 Q1415.62 1529.7 1412.47 1529.7 M1421.76 1515.05 L1421.76 1519.31 Q1420 1518.48 1418.19 1518.04 Q1416.41 1517.6 1414.65 1517.6 Q1410.02 1517.6 1407.57 1520.72 Q1405.14 1523.85 1404.79 1530.17 Q1406.15 1528.15 1408.21 1527.09 Q1410.27 1526 1412.75 1526 Q1417.96 1526 1420.97 1529.17 Q1424 1532.32 1424 1537.76 Q1424 1543.08 1420.85 1546.3 Q1417.7 1549.52 1412.47 1549.52 Q1406.48 1549.52 1403.31 1544.94 Q1400.14 1540.33 1400.14 1531.6 Q1400.14 1523.41 1404.02 1518.55 Q1407.91 1513.66 1414.46 1513.66 Q1416.22 1513.66 1418.01 1514.01 Q1419.81 1514.36 1421.76 1515.05 Z" fill="#000000" fill-rule="evenodd" fill-opacity="1" /><path clip-path="url(#clip560)" d="M1838.51 1517.37 Q1834.9 1517.37 1833.07 1520.93 Q1831.27 1524.47 1831.27 1531.6 Q1831.27 1538.71 1833.07 1542.27 Q1834.9 1545.82 1838.51 1545.82 Q1842.14 1545.82 1843.95 1542.27 Q1845.78 1538.71 1845.78 1531.6 Q1845.78 1524.47 1843.95 1520.93 Q1842.14 1517.37 1838.51 1517.37 M1838.51 1513.66 Q1844.32 1513.66 1847.38 1518.27 Q1850.45 1522.85 1850.45 1531.6 Q1850.45 1540.33 1847.38 1544.94 Q1844.32 1549.52 1838.51 1549.52 Q1832.7 1549.52 1829.62 1544.94 Q1826.57 1540.33 1826.57 1531.6 Q1826.57 1522.85 1829.62 1518.27 Q1832.7 1513.66 1838.51 1513.66 Z" fill="#000000" fill-rule="evenodd" fill-opacity="1" /><path clip-path="url(#clip560)" d="M1858.67 1542.97 L1863.56 1542.97 L1863.56 1548.85 L1858.67 1548.85 L1858.67 1542.97 Z" fill="#000000" fill-rule="evenodd" fill-opacity="1" /><path clip-path="url(#clip560)" d="M1883.74 1532.44 Q1880.41 1532.44 1878.49 1534.22 Q1876.59 1536 1876.59 1539.13 Q1876.59 1542.25 1878.49 1544.03 Q1880.41 1545.82 1883.74 1545.82 Q1887.08 1545.82 1889 1544.03 Q1890.92 1542.23 1890.92 1539.13 Q1890.92 1536 1889 1534.22 Q1887.1 1532.44 1883.74 1532.44 M1879.07 1530.45 Q1876.06 1529.7 1874.37 1527.64 Q1872.7 1525.58 1872.7 1522.62 Q1872.7 1518.48 1875.64 1516.07 Q1878.6 1513.66 1883.74 1513.66 Q1888.9 1513.66 1891.84 1516.07 Q1894.78 1518.48 1894.78 1522.62 Q1894.78 1525.58 1893.09 1527.64 Q1891.43 1529.7 1888.44 1530.45 Q1891.82 1531.23 1893.7 1533.52 Q1895.59 1535.82 1895.59 1539.13 Q1895.59 1544.15 1892.51 1546.83 Q1889.46 1549.52 1883.74 1549.52 Q1878.02 1549.52 1874.95 1546.83 Q1871.89 1544.15 1871.89 1539.13 Q1871.89 1535.82 1873.79 1533.52 Q1875.69 1531.23 1879.07 1530.45 M1877.35 1523.06 Q1877.35 1525.75 1879.02 1527.25 Q1880.71 1528.76 1883.74 1528.76 Q1886.75 1528.76 1888.44 1527.25 Q1890.15 1525.75 1890.15 1523.06 Q1890.15 1520.38 1888.44 1518.87 Q1886.75 1517.37 1883.74 1517.37 Q1880.71 1517.37 1879.02 1518.87 Q1877.35 1520.38 1877.35 1523.06 Z" fill="#000000" fill-rule="evenodd" fill-opacity="1" /><path clip-path="url(#clip560)" d="M2299.95 1544.91 L2307.59 1544.91 L2307.59 1518.55 L2299.28 1520.21 L2299.28 1515.95 L2307.55 1514.29 L2312.22 1514.29 L2312.22 1544.91 L2319.86 1544.91 L2319.86 1548.85 L2299.95 1548.85 L2299.95 1544.91 Z" fill="#000000" fill-rule="evenodd" fill-opacity="1" /><path clip-path="url(#clip560)" d="M2329.3 1542.97 L2334.19 1542.97 L2334.19 1548.85 L2329.3 1548.85 L2329.3 1542.97 Z" fill="#000000" fill-rule="evenodd" fill-opacity="1" /><path clip-path="url(#clip560)" d="M2354.37 1517.37 Q2350.76 1517.37 2348.93 1520.93 Q2347.13 1524.47 2347.13 1531.6 Q2347.13 1538.71 2348.93 1542.27 Q2350.76 1545.82 2354.37 1545.82 Q2358.01 1545.82 2359.81 1542.27 Q2361.64 1538.71 2361.64 1531.6 Q2361.64 1524.47 2359.81 1520.93 Q2358.01 1517.37 2354.37 1517.37 M2354.37 1513.66 Q2360.18 1513.66 2363.24 1518.27 Q2366.32 1522.85 2366.32 1531.6 Q2366.32 1540.33 2363.24 1544.94 Q2360.18 1549.52 2354.37 1549.52 Q2348.56 1549.52 2345.48 1544.94 Q2342.43 1540.33 2342.43 1531.6 Q2342.43 1522.85 2345.48 1518.27 Q2348.56 1513.66 2354.37 1513.66 Z" fill="#000000" fill-rule="evenodd" fill-opacity="1" /><polyline clip-path="url(#clip562)" style="stroke:#000000; stroke-linecap:butt; stroke-linejoin:round; stroke-width:2; stroke-opacity:0.1; fill:none" points="
  156.598,1234.03 2352.76,1234.03 
  "/>
<polyline clip-path="url(#clip562)" style="stroke:#000000; stroke-linecap:butt; stroke-linejoin:round; stroke-width:2; stroke-opacity:0.1; fill:none" points="
  156.598,926.285 2352.76,926.285 
  "/>
<polyline clip-path="url(#clip562)" style="stroke:#000000; stroke-linecap:butt; stroke-linejoin:round; stroke-width:2; stroke-opacity:0.1; fill:none" points="
  156.598,618.536 2352.76,618.536 
  "/>
<polyline clip-path="url(#clip562)" style="stroke:#000000; stroke-linecap:butt; stroke-linejoin:round; stroke-width:2; stroke-opacity:0.1; fill:none" points="
  156.598,310.787 2352.76,310.787 
  "/>
<polyline clip-path="url(#clip560)" style="stroke:#000000; stroke-linecap:butt; stroke-linejoin:round; stroke-width:4; stroke-opacity:1; fill:none" points="
  156.598,1486.45 156.598,47.2441 
  "/>
<polyline clip-path="url(#clip560)" style="stroke:#000000; stroke-linecap:butt; stroke-linejoin:round; stroke-width:4; stroke-opacity:1; fill:none" points="
  156.598,1234.03 175.496,1234.03 
  "/>
<polyline clip-path="url(#clip560)" style="stroke:#000000; stroke-linecap:butt; stroke-linejoin:round; stroke-width:4; stroke-opacity:1; fill:none" points="
  156.598,926.285 175.496,926.285 
  "/>
<polyline clip-path="url(#clip560)" style="stroke:#000000; stroke-linecap:butt; stroke-linejoin:round; stroke-width:4; stroke-opacity:1; fill:none" points="
  156.598,618.536 175.496,618.536 
  "/>
<polyline clip-path="url(#clip560)" style="stroke:#000000; stroke-linecap:butt; stroke-linejoin:round; stroke-width:4; stroke-opacity:1; fill:none" points="
  156.598,310.787 175.496,310.787 
  "/>
<path clip-path="url(#clip560)" d="M65.0198 1219.83 Q61.4087 1219.83 59.58 1223.4 Q57.7745 1226.94 57.7745 1234.07 Q57.7745 1241.17 59.58 1244.74 Q61.4087 1248.28 65.0198 1248.28 Q68.6541 1248.28 70.4596 1244.74 Q72.2883 1241.17 72.2883 1234.07 Q72.2883 1226.94 70.4596 1223.4 Q68.6541 1219.83 65.0198 1219.83 M65.0198 1216.13 Q70.83 1216.13 73.8855 1220.73 Q76.9642 1225.32 76.9642 1234.07 Q76.9642 1242.8 73.8855 1247.4 Q70.83 1251.98 65.0198 1251.98 Q59.2097 1251.98 56.131 1247.4 Q53.0754 1242.8 53.0754 1234.07 Q53.0754 1225.32 56.131 1220.73 Q59.2097 1216.13 65.0198 1216.13 Z" fill="#000000" fill-rule="evenodd" fill-opacity="1" /><path clip-path="url(#clip560)" d="M85.1818 1245.43 L90.066 1245.43 L90.066 1251.31 L85.1818 1251.31 L85.1818 1245.43 Z" fill="#000000" fill-rule="evenodd" fill-opacity="1" /><path clip-path="url(#clip560)" d="M104.279 1247.38 L120.598 1247.38 L120.598 1251.31 L98.6539 1251.31 L98.6539 1247.38 Q101.316 1244.62 105.899 1239.99 Q110.506 1235.34 111.686 1234 Q113.932 1231.48 114.811 1229.74 Q115.714 1227.98 115.714 1226.29 Q115.714 1223.54 113.77 1221.8 Q111.848 1220.06 108.746 1220.06 Q106.547 1220.06 104.094 1220.83 Q101.663 1221.59 98.8854 1223.14 L98.8854 1218.42 Q101.709 1217.29 104.163 1216.71 Q106.617 1216.13 108.654 1216.13 Q114.024 1216.13 117.219 1218.81 Q120.413 1221.5 120.413 1225.99 Q120.413 1228.12 119.603 1230.04 Q118.816 1231.94 116.709 1234.53 Q116.131 1235.2 113.029 1238.42 Q109.927 1241.61 104.279 1247.38 Z" fill="#000000" fill-rule="evenodd" fill-opacity="1" /><path clip-path="url(#clip560)" d="M62.9365 912.083 Q59.3254 912.083 57.4967 915.648 Q55.6912 919.19 55.6912 926.319 Q55.6912 933.426 57.4967 936.991 Q59.3254 940.532 62.9365 940.532 Q66.5707 940.532 68.3763 936.991 Q70.205 933.426 70.205 926.319 Q70.205 919.19 68.3763 915.648 Q66.5707 912.083 62.9365 912.083 M62.9365 908.38 Q68.7467 908.38 71.8022 912.986 Q74.8809 917.569 74.8809 926.319 Q74.8809 935.046 71.8022 939.653 Q68.7467 944.236 62.9365 944.236 Q57.1264 944.236 54.0477 939.653 Q50.9921 935.046 50.9921 926.319 Q50.9921 917.569 54.0477 912.986 Q57.1264 908.38 62.9365 908.38 Z" fill="#000000" fill-rule="evenodd" fill-opacity="1" /><path clip-path="url(#clip560)" d="M83.0984 937.685 L87.9827 937.685 L87.9827 943.565 L83.0984 943.565 L83.0984 937.685 Z" fill="#000000" fill-rule="evenodd" fill-opacity="1" /><path clip-path="url(#clip560)" d="M111.015 913.079 L99.2095 931.528 L111.015 931.528 L111.015 913.079 M109.788 909.005 L115.668 909.005 L115.668 931.528 L120.598 931.528 L120.598 935.417 L115.668 935.417 L115.668 943.565 L111.015 943.565 L111.015 935.417 L95.4132 935.417 L95.4132 930.903 L109.788 909.005 Z" fill="#000000" fill-rule="evenodd" fill-opacity="1" /><path clip-path="url(#clip560)" d="M63.2606 604.334 Q59.6495 604.334 57.8208 607.899 Q56.0152 611.441 56.0152 618.57 Q56.0152 625.677 57.8208 629.242 Q59.6495 632.783 63.2606 632.783 Q66.8948 632.783 68.7004 629.242 Q70.5291 625.677 70.5291 618.57 Q70.5291 611.441 68.7004 607.899 Q66.8948 604.334 63.2606 604.334 M63.2606 600.631 Q69.0707 600.631 72.1263 605.237 Q75.205 609.821 75.205 618.57 Q75.205 627.297 72.1263 631.904 Q69.0707 636.487 63.2606 636.487 Q57.4504 636.487 54.3717 631.904 Q51.3162 627.297 51.3162 618.57 Q51.3162 609.821 54.3717 605.237 Q57.4504 600.631 63.2606 600.631 Z" fill="#000000" fill-rule="evenodd" fill-opacity="1" /><path clip-path="url(#clip560)" d="M83.4225 629.936 L88.3067 629.936 L88.3067 635.816 L83.4225 635.816 L83.4225 629.936 Z" fill="#000000" fill-rule="evenodd" fill-opacity="1" /><path clip-path="url(#clip560)" d="M109.071 616.672 Q105.922 616.672 104.071 618.825 Q102.242 620.978 102.242 624.728 Q102.242 628.455 104.071 630.631 Q105.922 632.783 109.071 632.783 Q112.219 632.783 114.047 630.631 Q115.899 628.455 115.899 624.728 Q115.899 620.978 114.047 618.825 Q112.219 616.672 109.071 616.672 M118.353 602.02 L118.353 606.279 Q116.594 605.446 114.788 605.006 Q113.006 604.566 111.246 604.566 Q106.617 604.566 104.163 607.691 Q101.733 610.816 101.385 617.135 Q102.751 615.121 104.811 614.057 Q106.871 612.969 109.348 612.969 Q114.557 612.969 117.566 616.14 Q120.598 619.288 120.598 624.728 Q120.598 630.052 117.45 633.269 Q114.302 636.487 109.071 636.487 Q103.075 636.487 99.9039 631.904 Q96.7326 627.297 96.7326 618.57 Q96.7326 610.376 100.621 605.515 Q104.51 600.631 111.061 600.631 Q112.82 600.631 114.603 600.978 Q116.408 601.325 118.353 602.02 Z" fill="#000000" fill-rule="evenodd" fill-opacity="1" /><path clip-path="url(#clip560)" d="M63.5152 296.586 Q59.9041 296.586 58.0754 300.15 Q56.2699 303.692 56.2699 310.822 Q56.2699 317.928 58.0754 321.493 Q59.9041 325.034 63.5152 325.034 Q67.1494 325.034 68.955 321.493 Q70.7837 317.928 70.7837 310.822 Q70.7837 303.692 68.955 300.15 Q67.1494 296.586 63.5152 296.586 M63.5152 292.882 Q69.3254 292.882 72.3809 297.488 Q75.4596 302.072 75.4596 310.822 Q75.4596 319.548 72.3809 324.155 Q69.3254 328.738 63.5152 328.738 Q57.7051 328.738 54.6264 324.155 Q51.5708 319.548 51.5708 310.822 Q51.5708 302.072 54.6264 297.488 Q57.7051 292.882 63.5152 292.882 Z" fill="#000000" fill-rule="evenodd" fill-opacity="1" /><path clip-path="url(#clip560)" d="M83.6771 322.187 L88.5614 322.187 L88.5614 328.067 L83.6771 328.067 L83.6771 322.187 Z" fill="#000000" fill-rule="evenodd" fill-opacity="1" /><path clip-path="url(#clip560)" d="M108.746 311.655 Q105.413 311.655 103.492 313.437 Q101.594 315.22 101.594 318.345 Q101.594 321.47 103.492 323.252 Q105.413 325.034 108.746 325.034 Q112.08 325.034 114.001 323.252 Q115.922 321.447 115.922 318.345 Q115.922 315.22 114.001 313.437 Q112.103 311.655 108.746 311.655 M104.071 309.664 Q101.061 308.923 99.3715 306.863 Q97.7048 304.803 97.7048 301.84 Q97.7048 297.697 100.645 295.289 Q103.608 292.882 108.746 292.882 Q113.908 292.882 116.848 295.289 Q119.788 297.697 119.788 301.84 Q119.788 304.803 118.098 306.863 Q116.432 308.923 113.445 309.664 Q116.825 310.451 118.7 312.743 Q120.598 315.035 120.598 318.345 Q120.598 323.368 117.52 326.053 Q114.464 328.738 108.746 328.738 Q103.029 328.738 99.9502 326.053 Q96.8947 323.368 96.8947 318.345 Q96.8947 315.035 98.7928 312.743 Q100.691 310.451 104.071 309.664 M102.358 302.28 Q102.358 304.965 104.024 306.47 Q105.714 307.974 108.746 307.974 Q111.756 307.974 113.445 306.47 Q115.158 304.965 115.158 302.28 Q115.158 299.595 113.445 298.09 Q111.756 296.586 108.746 296.586 Q105.714 296.586 104.024 298.09 Q102.358 299.595 102.358 302.28 Z" fill="#000000" fill-rule="evenodd" fill-opacity="1" /><polyline clip-path="url(#clip562)" style="stroke:#009af9; stroke-linecap:butt; stroke-linejoin:round; stroke-width:4; stroke-opacity:1; fill:none" points="
  1803.62,1445.72 227.137,1051.67 1627.46,420.842 1080.08,87.9763 2056.2,1167.43 901.932,206.501 218.754,720.336 363.731,310.975 2290.6,294.485 284.211,820.96 
  
  "/>
<path clip-path="url(#clip560)" d="
M1987.12 198.898 L2279.55 198.898 L2279.55 95.2176 L1987.12 95.2176  Z
  " fill="#ffffff" fill-rule="evenodd" fill-opacity="1"/>
<polyline clip-path="url(#clip560)" style="stroke:#000000; stroke-linecap:butt; stroke-linejoin:round; stroke-width:4; stroke-opacity:1; fill:none" points="
  1987.12,198.898 2279.55,198.898 2279.55,95.2176 1987.12,95.2176 1987.12,198.898 
  "/>
<polyline clip-path="url(#clip560)" style="stroke:#009af9; stroke-linecap:butt; stroke-linejoin:round; stroke-width:4; stroke-opacity:1; fill:none" points="
  2011.12,147.058 2155.12,147.058 
  "/>
<path clip-path="url(#clip560)" d="M2192.96 166.745 Q2191.16 171.375 2189.44 172.787 Q2187.73 174.199 2184.86 174.199 L2181.46 174.199 L2181.46 170.634 L2183.96 170.634 Q2185.72 170.634 2186.69 169.8 Q2187.66 168.967 2188.84 165.865 L2189.61 163.921 L2179.12 138.412 L2183.63 138.412 L2191.74 158.689 L2199.84 138.412 L2204.35 138.412 L2192.96 166.745 Z" fill="#000000" fill-rule="evenodd" fill-opacity="1" /><path clip-path="url(#clip560)" d="M2211.64 160.402 L2219.28 160.402 L2219.28 134.037 L2210.97 135.703 L2210.97 131.444 L2219.24 129.778 L2223.91 129.778 L2223.91 160.402 L2231.55 160.402 L2231.55 164.338 L2211.64 164.338 L2211.64 160.402 Z" fill="#000000" fill-rule="evenodd" fill-opacity="1" /></svg>
