<?xml version="1.0" encoding="utf-8"?>
<svg xmlns="http://www.w3.org/2000/svg" xmlns:xlink="http://www.w3.org/1999/xlink" width="600" height="400" viewBox="0 0 2400 1600">
<defs>
  <clipPath id="clip420">
    <rect x="0" y="0" width="2400" height="1600"/>
  </clipPath>
</defs>
<path clip-path="url(#clip420)" d="
M0 1600 L2400 1600 L2400 0 L0 0  Z
  " fill="#ffffff" fill-rule="evenodd" fill-opacity="1"/>
<defs>
  <clipPath id="clip421">
    <rect x="480" y="0" width="1681" height="1600"/>
  </clipPath>
</defs>
<path clip-path="url(#clip420)" d="
M156.598 1486.45 L2352.76 1486.45 L2352.76 47.2441 L156.598 47.2441  Z
  " fill="#ffffff" fill-rule="evenodd" fill-opacity="1"/>
<defs>
  <clipPath id="clip422">
    <rect x="156" y="47" width="2197" height="1440"/>
  </clipPath>
</defs>
<polyline clip-path="url(#clip422)" style="stroke:#000000; stroke-linecap:butt; stroke-linejoin:round; stroke-width:2; stroke-opacity:0.1; fill:none" points="
  603.865,1486.45 603.865,47.2441 
  "/>
<polyline clip-path="url(#clip422)" style="stroke:#000000; stroke-linecap:butt; stroke-linejoin:round; stroke-width:2; stroke-opacity:0.1; fill:none" points="
  1065.61,1486.45 1065.61,47.2441 
  "/>
<polyline clip-path="url(#clip422)" style="stroke:#000000; stroke-linecap:butt; stroke-linejoin:round; stroke-width:2; stroke-opacity:0.1; fill:none" points="
  1527.36,1486.45 1527.36,47.2441 
  "/>
<polyline clip-path="url(#clip422)" style="stroke:#000000; stroke-linecap:butt; stroke-linejoin:round; stroke-width:2; stroke-opacity:0.1; fill:none" points="
  1989.11,1486.45 1989.11,47.2441 
  "/>
<polyline clip-path="url(#clip420)" style="stroke:#000000; stroke-linecap:butt; stroke-linejoin:round; stroke-width:4; stroke-opacity:1; fill:none" points="
  156.598,1486.45 2352.76,1486.45 
  "/>
<polyline clip-path="url(#clip420)" style="stroke:#000000; stroke-linecap:butt; stroke-linejoin:round; stroke-width:4; stroke-opacity:1; fill:none" points="
  603.865,1486.45 603.865,1467.55 
  "/>
<polyline clip-path="url(#clip420)" style="stroke:#000000; stroke-linecap:butt; stroke-linejoin:round; stroke-width:4; stroke-opacity:1; fill:none" points="
  1065.61,1486.45 1065.61,1467.55 
  "/>
<polyline clip-path="url(#clip420)" style="stroke:#000000; stroke-linecap:butt; stroke-linejoin:round; stroke-width:4; stroke-opacity:1; fill:none" points="
  1527.36,1486.45 1527.36,1467.55 
  "/>
<polyline clip-path="url(#clip420)" style="stroke:#000000; stroke-linecap:butt; stroke-linejoin:round; stroke-width:4; stroke-opacity:1; fill:none" points="
  1989.11,1486.45 1989.11,1467.55 
  "/>
<path clip-path="url(#clip420)" d="M582.048 1517.37 Q578.437 1517.37 576.608 1520.93 Q574.803 1524.47 574.803 1531.6 Q574.803 1538.71 576.608 1542.27 Q578.437 1545.82 582.048 1545.82 Q585.682 1545.82 587.488 1542.27 Q589.316 1538.71 589.316 1531.6 Q589.316 1524.47 587.488 1520.93 Q585.682 1517.37 582.048 1517.37 M582.048 1513.66 Q587.858 1513.66 590.914 1518.27 Q593.992 1522.85 593.992 1531.6 Q593.992 1540.33 590.914 1544.94 Q587.858 1549.52 582.048 1549.52 Q576.238 1549.52 573.159 1544.94 Q570.104 1540.33 570.104 1531.6 Q570.104 1522.85 573.159 1518.27 Q576.238 1513.66 582.048 1513.66 Z" fill="#000000" fill-rule="evenodd" fill-opacity="1" /><path clip-path="url(#clip420)" d="M602.21 1542.97 L607.094 1542.97 L607.094 1548.85 L602.21 1548.85 L602.21 1542.97 Z" fill="#000000" fill-rule="evenodd" fill-opacity="1" /><path clip-path="url(#clip420)" d="M621.307 1544.91 L637.626 1544.91 L637.626 1548.85 L615.682 1548.85 L615.682 1544.91 Q618.344 1542.16 622.927 1537.53 Q627.534 1532.88 628.714 1531.53 Q630.96 1529.01 631.839 1527.27 Q632.742 1525.51 632.742 1523.82 Q632.742 1521.07 630.798 1519.33 Q628.876 1517.6 625.775 1517.6 Q623.576 1517.6 621.122 1518.36 Q618.691 1519.13 615.914 1520.68 L615.914 1515.95 Q618.738 1514.82 621.191 1514.24 Q623.645 1513.66 625.682 1513.66 Q631.052 1513.66 634.247 1516.35 Q637.441 1519.03 637.441 1523.52 Q637.441 1525.65 636.631 1527.57 Q635.844 1529.47 633.737 1532.07 Q633.159 1532.74 630.057 1535.95 Q626.955 1539.15 621.307 1544.91 Z" fill="#000000" fill-rule="evenodd" fill-opacity="1" /><path clip-path="url(#clip420)" d="M1042.75 1517.37 Q1039.14 1517.37 1037.31 1520.93 Q1035.51 1524.47 1035.51 1531.6 Q1035.51 1538.71 1037.31 1542.27 Q1039.14 1545.82 1042.75 1545.82 Q1046.39 1545.82 1048.19 1542.27 Q1050.02 1538.71 1050.02 1531.6 Q1050.02 1524.47 1048.19 1520.93 Q1046.39 1517.37 1042.75 1517.37 M1042.75 1513.66 Q1048.56 1513.66 1051.62 1518.27 Q1054.7 1522.85 1054.7 1531.6 Q1054.7 1540.33 1051.62 1544.94 Q1048.56 1549.52 1042.75 1549.52 Q1036.94 1549.52 1033.86 1544.94 Q1030.81 1540.33 1030.81 1531.6 Q1030.81 1522.85 1033.86 1518.27 Q1036.94 1513.66 1042.75 1513.66 Z" fill="#000000" fill-rule="evenodd" fill-opacity="1" /><path clip-path="url(#clip420)" d="M1062.92 1542.97 L1067.8 1542.97 L1067.8 1548.85 L1062.92 1548.85 L1062.92 1542.97 Z" fill="#000000" fill-rule="evenodd" fill-opacity="1" /><path clip-path="url(#clip420)" d="M1090.83 1518.36 L1079.03 1536.81 L1090.83 1536.81 L1090.83 1518.36 M1089.61 1514.29 L1095.48 1514.29 L1095.48 1536.81 L1100.42 1536.81 L1100.42 1540.7 L1095.48 1540.7 L1095.48 1548.85 L1090.83 1548.85 L1090.83 1540.7 L1075.23 1540.7 L1075.23 1536.19 L1089.61 1514.29 Z" fill="#000000" fill-rule="evenodd" fill-opacity="1" /><path clip-path="url(#clip420)" d="M1504.66 1517.37 Q1501.05 1517.37 1499.22 1520.93 Q1497.42 1524.47 1497.42 1531.6 Q1497.42 1538.71 1499.22 1542.27 Q1501.05 1545.82 1504.66 1545.82 Q1508.3 1545.82 1510.1 1542.27 Q1511.93 1538.71 1511.93 1531.6 Q1511.93 1524.47 1510.1 1520.93 Q1508.3 1517.37 1504.66 1517.37 M1504.66 1513.66 Q1510.47 1513.66 1513.53 1518.27 Q1516.61 1522.85 1516.61 1531.6 Q1516.61 1540.33 1513.53 1544.94 Q1510.47 1549.52 1504.66 1549.52 Q1498.85 1549.52 1495.77 1544.94 Q1492.72 1540.33 1492.72 1531.6 Q1492.72 1522.85 1495.77 1518.27 Q1498.85 1513.66 1504.66 1513.66 Z" fill="#000000" fill-rule="evenodd" fill-opacity="1" /><path clip-path="url(#clip420)" d="M1524.82 1542.97 L1529.71 1542.97 L1529.71 1548.85 L1524.82 1548.85 L1524.82 1542.97 Z" fill="#000000" fill-rule="evenodd" fill-opacity="1" /><path clip-path="url(#clip420)" d="M1550.47 1529.7 Q1547.32 1529.7 1545.47 1531.86 Q1543.64 1534.01 1543.64 1537.76 Q1543.64 1541.49 1545.47 1543.66 Q1547.32 1545.82 1550.47 1545.82 Q1553.62 1545.82 1555.45 1543.66 Q1557.3 1541.49 1557.3 1537.76 Q1557.3 1534.01 1555.45 1531.86 Q1553.62 1529.7 1550.47 1529.7 M1559.76 1515.05 L1559.76 1519.31 Q1558 1518.48 1556.19 1518.04 Q1554.41 1517.6 1552.65 1517.6 Q1548.02 1517.6 1545.57 1520.72 Q1543.13 1523.85 1542.79 1530.17 Q1544.15 1528.15 1546.21 1527.09 Q1548.27 1526 1550.75 1526 Q1555.96 1526 1558.97 1529.17 Q1562 1532.32 1562 1537.76 Q1562 1543.08 1558.85 1546.3 Q1555.7 1549.52 1550.47 1549.52 Q1544.48 1549.52 1541.31 1544.94 Q1538.13 1540.33 1538.13 1531.6 Q1538.13 1523.41 1542.02 1518.55 Q1545.91 1513.66 1552.46 1513.66 Q1554.22 1513.66 1556.01 1514.01 Q1557.81 1514.36 1559.76 1515.05 Z" fill="#000000" fill-rule="evenodd" fill-opacity="1" /><path clip-path="url(#clip420)" d="M1966.54 1517.37 Q1962.93 1517.37 1961.1 1520.93 Q1959.29 1524.47 1959.29 1531.6 Q1959.29 1538.71 1961.1 1542.27 Q1962.93 1545.82 1966.54 1545.82 Q1970.17 1545.82 1971.98 1542.27 Q1973.81 1538.71 1973.81 1531.6 Q1973.81 1524.47 1971.98 1520.93 Q1970.17 1517.37 1966.54 1517.37 M1966.54 1513.66 Q1972.35 1513.66 1975.4 1518.27 Q1978.48 1522.85 1978.48 1531.6 Q1978.48 1540.33 1975.4 1544.94 Q1972.35 1549.52 1966.54 1549.52 Q1960.73 1549.52 1957.65 1544.94 Q1954.59 1540.33 1954.59 1531.6 Q1954.59 1522.85 1957.65 1518.27 Q1960.73 1513.66 1966.54 1513.66 Z" fill="#000000" fill-rule="evenodd" fill-opacity="1" /><path clip-path="url(#clip420)" d="M1986.7 1542.97 L1991.58 1542.97 L1991.58 1548.85 L1986.7 1548.85 L1986.7 1542.97 Z" fill="#000000" fill-rule="evenodd" fill-opacity="1" /><path clip-path="url(#clip420)" d="M2011.77 1532.44 Q2008.44 1532.44 2006.51 1534.22 Q2004.62 1536 2004.62 1539.13 Q2004.62 1542.25 2006.51 1544.03 Q2008.44 1545.82 2011.77 1545.82 Q2015.1 1545.82 2017.02 1544.03 Q2018.94 1542.23 2018.94 1539.13 Q2018.94 1536 2017.02 1534.22 Q2015.13 1532.44 2011.77 1532.44 M2007.09 1530.45 Q2004.08 1529.7 2002.39 1527.64 Q2000.73 1525.58 2000.73 1522.62 Q2000.73 1518.48 2003.67 1516.07 Q2006.63 1513.66 2011.77 1513.66 Q2016.93 1513.66 2019.87 1516.07 Q2022.81 1518.48 2022.81 1522.62 Q2022.81 1525.58 2021.12 1527.64 Q2019.45 1529.7 2016.47 1530.45 Q2019.85 1531.23 2021.72 1533.52 Q2023.62 1535.82 2023.62 1539.13 Q2023.62 1544.15 2020.54 1546.83 Q2017.49 1549.52 2011.77 1549.52 Q2006.05 1549.52 2002.97 1546.83 Q1999.92 1544.15 1999.92 1539.13 Q1999.92 1535.82 2001.82 1533.52 Q2003.71 1531.23 2007.09 1530.45 M2005.38 1523.06 Q2005.38 1525.75 2007.05 1527.25 Q2008.74 1528.76 2011.77 1528.76 Q2014.78 1528.76 2016.47 1527.25 Q2018.18 1525.75 2018.18 1523.06 Q2018.18 1520.38 2016.47 1518.87 Q2014.78 1517.37 2011.77 1517.37 Q2008.74 1517.37 2007.05 1518.87 Q2005.38 1520.38 2005.38 1523.06 Z" fill="#000000" fill-rule="evenodd" fill-opacity="1" /><polyline clip-path="url(#clip422)" style="stroke:#000000; stroke-linecap:butt; stroke-linejoin:round; stroke-width:2; stroke-opacity:0.1; fill:none" points="
  156.598,1278.28 2352.76,1278.28 
  "/>
<polyline clip-path="url(#clip422)" style="stroke:#000000; stroke-linecap:butt; stroke-linejoin:round; stroke-width:2; stroke-opacity:0.1; fill:none" points="
  156.598,905.245 2352.76,905.245 
  "/>
<polyline clip-path="url(#clip422)" style="stroke:#000000; stroke-linecap:butt; stroke-linejoin:round; stroke-width:2; stroke-opacity:0.1; fill:none" points="
  156.598,532.209 2352.76,532.209 
  "/>
<polyline clip-path="url(#clip422)" style="stroke:#000000; stroke-linecap:butt; stroke-linejoin:round; stroke-width:2; stroke-opacity:0.1; fill:none" points="
  156.598,159.172 2352.76,159.172 
  "/>
<polyline clip-path="url(#clip420)" style="stroke:#000000; stroke-linecap:butt; stroke-linejoin:round; stroke-width:4; stroke-opacity:1; fill:none" points="
  156.598,1486.45 156.598,47.2441 
  "/>
<polyline clip-path="url(#clip420)" style="stroke:#000000; stroke-linecap:butt; stroke-linejoin:round; stroke-width:4; stroke-opacity:1; fill:none" points="
  156.598,1278.28 175.496,1278.28 
  "/>
<polyline clip-path="url(#clip420)" style="stroke:#000000; stroke-linecap:butt; stroke-linejoin:round; stroke-width:4; stroke-opacity:1; fill:none" points="
  156.598,905.245 175.496,905.245 
  "/>
<polyline clip-path="url(#clip420)" style="stroke:#000000; stroke-linecap:butt; stroke-linejoin:round; stroke-width:4; stroke-opacity:1; fill:none" points="
  156.598,532.209 175.496,532.209 
  "/>
<polyline clip-path="url(#clip420)" style="stroke:#000000; stroke-linecap:butt; stroke-linejoin:round; stroke-width:4; stroke-opacity:1; fill:none" points="
  156.598,159.172 175.496,159.172 
  "/>
<path clip-path="url(#clip420)" d="M65.0198 1264.08 Q61.4087 1264.08 59.58 1267.64 Q57.7745 1271.19 57.7745 1278.32 Q57.7745 1285.42 59.58 1288.99 Q61.4087 1292.53 65.0198 1292.53 Q68.6541 1292.53 70.4596 1288.99 Q72.2883 1285.42 72.2883 1278.32 Q72.2883 1271.19 70.4596 1267.64 Q68.6541 1264.08 65.0198 1264.08 M65.0198 1260.38 Q70.83 1260.38 73.8855 1264.98 Q76.9642 1269.57 76.9642 1278.32 Q76.9642 1287.04 73.8855 1291.65 Q70.83 1296.23 65.0198 1296.23 Q59.2097 1296.23 56.131 1291.65 Q53.0754 1287.04 53.0754 1278.32 Q53.0754 1269.57 56.131 1264.98 Q59.2097 1260.38 65.0198 1260.38 Z" fill="#000000" fill-rule="evenodd" fill-opacity="1" /><path clip-path="url(#clip420)" d="M85.1818 1289.68 L90.066 1289.68 L90.066 1295.56 L85.1818 1295.56 L85.1818 1289.68 Z" fill="#000000" fill-rule="evenodd" fill-opacity="1" /><path clip-path="url(#clip420)" d="M104.279 1291.63 L120.598 1291.63 L120.598 1295.56 L98.6539 1295.56 L98.6539 1291.63 Q101.316 1288.87 105.899 1284.24 Q110.506 1279.59 111.686 1278.25 Q113.932 1275.72 114.811 1273.99 Q115.714 1272.23 115.714 1270.54 Q115.714 1267.78 113.77 1266.05 Q111.848 1264.31 108.746 1264.31 Q106.547 1264.31 104.094 1265.08 Q101.663 1265.84 98.8854 1267.39 L98.8854 1262.67 Q101.709 1261.53 104.163 1260.95 Q106.617 1260.38 108.654 1260.38 Q114.024 1260.38 117.219 1263.06 Q120.413 1265.75 120.413 1270.24 Q120.413 1272.37 119.603 1274.29 Q118.816 1276.19 116.709 1278.78 Q116.131 1279.45 113.029 1282.67 Q109.927 1285.86 104.279 1291.63 Z" fill="#000000" fill-rule="evenodd" fill-opacity="1" /><path clip-path="url(#clip420)" d="M62.9365 891.044 Q59.3254 891.044 57.4967 894.608 Q55.6912 898.15 55.6912 905.28 Q55.6912 912.386 57.4967 915.951 Q59.3254 919.493 62.9365 919.493 Q66.5707 919.493 68.3763 915.951 Q70.205 912.386 70.205 905.28 Q70.205 898.15 68.3763 894.608 Q66.5707 891.044 62.9365 891.044 M62.9365 887.34 Q68.7467 887.34 71.8022 891.946 Q74.8809 896.53 74.8809 905.28 Q74.8809 914.006 71.8022 918.613 Q68.7467 923.196 62.9365 923.196 Q57.1264 923.196 54.0477 918.613 Q50.9921 914.006 50.9921 905.28 Q50.9921 896.53 54.0477 891.946 Q57.1264 887.34 62.9365 887.34 Z" fill="#000000" fill-rule="evenodd" fill-opacity="1" /><path clip-path="url(#clip420)" d="M83.0984 916.645 L87.9827 916.645 L87.9827 922.525 L83.0984 922.525 L83.0984 916.645 Z" fill="#000000" fill-rule="evenodd" fill-opacity="1" /><path clip-path="url(#clip420)" d="M111.015 892.039 L99.2095 910.488 L111.015 910.488 L111.015 892.039 M109.788 887.965 L115.668 887.965 L115.668 910.488 L120.598 910.488 L120.598 914.377 L115.668 914.377 L115.668 922.525 L111.015 922.525 L111.015 914.377 L95.4132 914.377 L95.4132 909.863 L109.788 887.965 Z" fill="#000000" fill-rule="evenodd" fill-opacity="1" /><path clip-path="url(#clip420)" d="M63.2606 518.007 Q59.6495 518.007 57.8208 521.572 Q56.0152 525.114 56.0152 532.243 Q56.0152 539.35 57.8208 542.915 Q59.6495 546.456 63.2606 546.456 Q66.8948 546.456 68.7004 542.915 Q70.5291 539.35 70.5291 532.243 Q70.5291 525.114 68.7004 521.572 Q66.8948 518.007 63.2606 518.007 M63.2606 514.304 Q69.0707 514.304 72.1263 518.91 Q75.205 523.493 75.205 532.243 Q75.205 540.97 72.1263 545.577 Q69.0707 550.16 63.2606 550.16 Q57.4504 550.16 54.3717 545.577 Q51.3162 540.97 51.3162 532.243 Q51.3162 523.493 54.3717 518.91 Q57.4504 514.304 63.2606 514.304 Z" fill="#000000" fill-rule="evenodd" fill-opacity="1" /><path clip-path="url(#clip420)" d="M83.4225 543.609 L88.3067 543.609 L88.3067 549.489 L83.4225 549.489 L83.4225 543.609 Z" fill="#000000" fill-rule="evenodd" fill-opacity="1" /><path clip-path="url(#clip420)" d="M109.071 530.345 Q105.922 530.345 104.071 532.498 Q102.242 534.651 102.242 538.401 Q102.242 542.128 104.071 544.304 Q105.922 546.456 109.071 546.456 Q112.219 546.456 114.047 544.304 Q115.899 542.128 115.899 538.401 Q115.899 534.651 114.047 532.498 Q112.219 530.345 109.071 530.345 M118.353 515.693 L118.353 519.952 Q116.594 519.118 114.788 518.679 Q113.006 518.239 111.246 518.239 Q106.617 518.239 104.163 521.364 Q101.733 524.489 101.385 530.808 Q102.751 528.794 104.811 527.73 Q106.871 526.642 109.348 526.642 Q114.557 526.642 117.566 529.813 Q120.598 532.961 120.598 538.401 Q120.598 543.725 117.45 546.942 Q114.302 550.16 109.071 550.16 Q103.075 550.16 99.9039 545.577 Q96.7326 540.97 96.7326 532.243 Q96.7326 524.049 100.621 519.188 Q104.51 514.304 111.061 514.304 Q112.82 514.304 114.603 514.651 Q116.408 514.998 118.353 515.693 Z" fill="#000000" fill-rule="evenodd" fill-opacity="1" /><path clip-path="url(#clip420)" d="M63.5152 144.971 Q59.9041 144.971 58.0754 148.536 Q56.2699 152.078 56.2699 159.207 Q56.2699 166.314 58.0754 169.878 Q59.9041 173.42 63.5152 173.42 Q67.1494 173.42 68.955 169.878 Q70.7837 166.314 70.7837 159.207 Q70.7837 152.078 68.955 148.536 Q67.1494 144.971 63.5152 144.971 M63.5152 141.267 Q69.3254 141.267 72.3809 145.874 Q75.4596 150.457 75.4596 159.207 Q75.4596 167.934 72.3809 172.54 Q69.3254 177.124 63.5152 177.124 Q57.7051 177.124 54.6264 172.54 Q51.5708 167.934 51.5708 159.207 Q51.5708 150.457 54.6264 145.874 Q57.7051 141.267 63.5152 141.267 Z" fill="#000000" fill-rule="evenodd" fill-opacity="1" /><path clip-path="url(#clip420)" d="M83.6771 170.573 L88.5614 170.573 L88.5614 176.452 L83.6771 176.452 L83.6771 170.573 Z" fill="#000000" fill-rule="evenodd" fill-opacity="1" /><path clip-path="url(#clip420)" d="M108.746 160.04 Q105.413 160.04 103.492 161.823 Q101.594 163.605 101.594 166.73 Q101.594 169.855 103.492 171.638 Q105.413 173.42 108.746 173.42 Q112.08 173.42 114.001 171.638 Q115.922 169.832 115.922 166.73 Q115.922 163.605 114.001 161.823 Q112.103 160.04 108.746 160.04 M104.071 158.05 Q101.061 157.309 99.3715 155.249 Q97.7048 153.189 97.7048 150.226 Q97.7048 146.082 100.645 143.675 Q103.608 141.267 108.746 141.267 Q113.908 141.267 116.848 143.675 Q119.788 146.082 119.788 150.226 Q119.788 153.189 118.098 155.249 Q116.432 157.309 113.445 158.05 Q116.825 158.837 118.7 161.128 Q120.598 163.42 120.598 166.73 Q120.598 171.753 117.52 174.439 Q114.464 177.124 108.746 177.124 Q103.029 177.124 99.9502 174.439 Q96.8947 171.753 96.8947 166.73 Q96.8947 163.42 98.7928 161.128 Q100.691 158.837 104.071 158.05 M102.358 150.666 Q102.358 153.351 104.024 154.855 Q105.714 156.36 108.746 156.36 Q111.756 156.36 113.445 154.855 Q115.158 153.351 115.158 150.666 Q115.158 147.98 113.445 146.476 Q111.756 144.971 108.746 144.971 Q105.714 144.971 104.024 146.476 Q102.358 147.98 102.358 150.666 Z" fill="#000000" fill-rule="evenodd" fill-opacity="1" /><polyline clip-path="url(#clip422)" style="stroke:#009af9; stroke-linecap:butt; stroke-linejoin:round; stroke-width:4; stroke-opacity:1; fill:none" points="
  834.438,833.014 1775.67,404.992 303.301,598.261 2037.13,87.9763 2290.6,396.39 2008.13,966.853 345.789,822.12 218.754,380.706 1290.79,1445.72 1894.31,298.323 
  
  "/>
<path clip-path="url(#clip420)" d="
M1987.12 198.898 L2279.55 198.898 L2279.55 95.2176 L1987.12 95.2176  Z
  " fill="#ffffff" fill-rule="evenodd" fill-opacity="1"/>
<polyline clip-path="url(#clip420)" style="stroke:#000000; stroke-linecap:butt; stroke-linejoin:round; stroke-width:4; stroke-opacity:1; fill:none" points="
  1987.12,198.898 2279.55,198.898 2279.55,95.2176 1987.12,95.2176 1987.12,198.898 
  "/>
<polyline clip-path="url(#clip420)" style="stroke:#009af9; stroke-linecap:butt; stroke-linejoin:round; stroke-width:4; stroke-opacity:1; fill:none" points="
  2011.12,147.058 2155.12,147.058 
  "/>
<path clip-path="url(#clip420)" d="M2192.96 166.745 Q2191.16 171.375 2189.44 172.787 Q2187.73 174.199 2184.86 174.199 L2181.46 174.199 L2181.46 170.634 L2183.96 170.634 Q2185.72 170.634 2186.69 169.8 Q2187.66 168.967 2188.84 165.865 L2189.61 163.921 L2179.12 138.412 L2183.63 138.412 L2191.74 158.689 L2199.84 138.412 L2204.35 138.412 L2192.96 166.745 Z" fill="#000000" fill-rule="evenodd" fill-opacity="1" /><path clip-path="url(#clip420)" d="M2211.64 160.402 L2219.28 160.402 L2219.28 134.037 L2210.97 135.703 L2210.97 131.444 L2219.24 129.778 L2223.91 129.778 L2223.91 160.402 L2231.55 160.402 L2231.55 164.338 L2211.64 164.338 L2211.64 160.402 Z" fill="#000000" fill-rule="evenodd" fill-opacity="1" /></svg>
