<?xml version="1.0" encoding="utf-8"?>
<svg xmlns="http://www.w3.org/2000/svg" xmlns:xlink="http://www.w3.org/1999/xlink" width="600" height="400" viewBox="0 0 2400 1600">
<defs>
  <clipPath id="clip500">
    <rect x="0" y="0" width="2400" height="1600"/>
  </clipPath>
</defs>
<path clip-path="url(#clip500)" d="
M0 1600 L2400 1600 L2400 0 L0 0  Z
  " fill="#ffffff" fill-rule="evenodd" fill-opacity="1"/>
<defs>
  <clipPath id="clip501">
    <rect x="480" y="0" width="1681" height="1600"/>
  </clipPath>
</defs>
<path clip-path="url(#clip500)" d="
M156.598 1486.45 L2352.76 1486.45 L2352.76 47.2441 L156.598 47.2441  Z
  " fill="#ffffff" fill-rule="evenodd" fill-opacity="1"/>
<defs>
  <clipPath id="clip502">
    <rect x="156" y="47" width="2197" height="1440"/>
  </clipPath>
</defs>
<polyline clip-path="url(#clip502)" style="stroke:#000000; stroke-linecap:butt; stroke-linejoin:round; stroke-width:2; stroke-opacity:0.1; fill:none" points="
  166.136,1486.45 166.136,47.2441 
  "/>
<polyline clip-path="url(#clip502)" style="stroke:#000000; stroke-linecap:butt; stroke-linejoin:round; stroke-width:2; stroke-opacity:0.1; fill:none" points="
  631.22,1486.45 631.22,47.2441 
  "/>
<polyline clip-path="url(#clip502)" style="stroke:#000000; stroke-linecap:butt; stroke-linejoin:round; stroke-width:2; stroke-opacity:0.1; fill:none" points="
  1096.3,1486.45 1096.3,47.2441 
  "/>
<polyline clip-path="url(#clip502)" style="stroke:#000000; stroke-linecap:butt; stroke-linejoin:round; stroke-width:2; stroke-opacity:0.1; fill:none" points="
  1561.39,1486.45 1561.39,47.2441 
  "/>
<polyline clip-path="url(#clip502)" style="stroke:#000000; stroke-linecap:butt; stroke-linejoin:round; stroke-width:2; stroke-opacity:0.1; fill:none" points="
  2026.47,1486.45 2026.47,47.2441 
  "/>
<polyline clip-path="url(#clip500)" style="stroke:#000000; stroke-linecap:butt; stroke-linejoin:round; stroke-width:4; stroke-opacity:1; fill:none" points="
  156.598,1486.45 2352.76,1486.45 
  "/>
<polyline clip-path="url(#clip500)" style="stroke:#000000; stroke-linecap:butt; stroke-linejoin:round; stroke-width:4; stroke-opacity:1; fill:none" points="
  166.136,1486.45 166.136,1467.55 
  "/>
<polyline clip-path="url(#clip500)" style="stroke:#000000; stroke-linecap:butt; stroke-linejoin:round; stroke-width:4; stroke-opacity:1; fill:none" points="
  631.22,1486.45 631.22,1467.55 
  "/>
<polyline clip-path="url(#clip500)" style="stroke:#000000; stroke-linecap:butt; stroke-linejoin:round; stroke-width:4; stroke-opacity:1; fill:none" points="
  1096.3,1486.45 1096.3,1467.55 
  "/>
<polyline clip-path="url(#clip500)" style="stroke:#000000; stroke-linecap:butt; stroke-linejoin:round; stroke-width:4; stroke-opacity:1; fill:none" points="
  1561.39,1486.45 1561.39,1467.55 
  "/>
<polyline clip-path="url(#clip500)" style="stroke:#000000; stroke-linecap:butt; stroke-linejoin:round; stroke-width:4; stroke-opacity:1; fill:none" points="
  2026.47,1486.45 2026.47,1467.55 
  "/>
<path clip-path="url(#clip500)" d="M143.521 1517.37 Q139.91 1517.37 138.081 1520.93 Q136.275 1524.47 136.275 1531.6 Q136.275 1538.71 138.081 1542.27 Q139.91 1545.82 143.521 1545.82 Q147.155 1545.82 148.96 1542.27 Q150.789 1538.71 150.789 1531.6 Q150.789 1524.47 148.96 1520.93 Q147.155 1517.37 143.521 1517.37 M143.521 1513.66 Q149.331 1513.66 152.386 1518.27 Q155.465 1522.85 155.465 1531.6 Q155.465 1540.33 152.386 1544.94 Q149.331 1549.52 143.521 1549.52 Q137.71 1549.52 134.632 1544.94 Q131.576 1540.33 131.576 1531.6 Q131.576 1522.85 134.632 1518.27 Q137.71 1513.66 143.521 1513.66 Z" fill="#000000" fill-rule="evenodd" fill-opacity="1" /><path clip-path="url(#clip500)" d="M163.683 1542.97 L168.567 1542.97 L168.567 1548.85 L163.683 1548.85 L163.683 1542.97 Z" fill="#000000" fill-rule="evenodd" fill-opacity="1" /><path clip-path="url(#clip500)" d="M188.752 1517.37 Q185.141 1517.37 183.312 1520.93 Q181.507 1524.47 181.507 1531.6 Q181.507 1538.71 183.312 1542.27 Q185.141 1545.82 188.752 1545.82 Q192.386 1545.82 194.192 1542.27 Q196.02 1538.71 196.02 1531.6 Q196.02 1524.47 194.192 1520.93 Q192.386 1517.37 188.752 1517.37 M188.752 1513.66 Q194.562 1513.66 197.618 1518.27 Q200.696 1522.85 200.696 1531.6 Q200.696 1540.33 197.618 1544.94 Q194.562 1549.52 188.752 1549.52 Q182.942 1549.52 179.863 1544.94 Q176.807 1540.33 176.807 1531.6 Q176.807 1522.85 179.863 1518.27 Q182.942 1513.66 188.752 1513.66 Z" fill="#000000" fill-rule="evenodd" fill-opacity="1" /><path clip-path="url(#clip500)" d="M609.403 1517.37 Q605.792 1517.37 603.963 1520.93 Q602.157 1524.47 602.157 1531.6 Q602.157 1538.71 603.963 1542.27 Q605.792 1545.82 609.403 1545.82 Q613.037 1545.82 614.843 1542.27 Q616.671 1538.71 616.671 1531.6 Q616.671 1524.47 614.843 1520.93 Q613.037 1517.37 609.403 1517.37 M609.403 1513.66 Q615.213 1513.66 618.268 1518.27 Q621.347 1522.85 621.347 1531.6 Q621.347 1540.33 618.268 1544.94 Q615.213 1549.52 609.403 1549.52 Q603.593 1549.52 600.514 1544.94 Q597.458 1540.33 597.458 1531.6 Q597.458 1522.85 600.514 1518.27 Q603.593 1513.66 609.403 1513.66 Z" fill="#000000" fill-rule="evenodd" fill-opacity="1" /><path clip-path="url(#clip500)" d="M629.565 1542.97 L634.449 1542.97 L634.449 1548.85 L629.565 1548.85 L629.565 1542.97 Z" fill="#000000" fill-rule="evenodd" fill-opacity="1" /><path clip-path="url(#clip500)" d="M648.662 1544.91 L664.981 1544.91 L664.981 1548.85 L643.037 1548.85 L643.037 1544.91 Q645.699 1542.16 650.282 1537.53 Q654.889 1532.88 656.069 1531.53 Q658.315 1529.01 659.194 1527.27 Q660.097 1525.51 660.097 1523.82 Q660.097 1521.07 658.152 1519.33 Q656.231 1517.6 653.129 1517.6 Q650.93 1517.6 648.477 1518.36 Q646.046 1519.13 643.268 1520.68 L643.268 1515.95 Q646.092 1514.82 648.546 1514.24 Q651 1513.66 653.037 1513.66 Q658.407 1513.66 661.602 1516.35 Q664.796 1519.03 664.796 1523.52 Q664.796 1525.65 663.986 1527.57 Q663.199 1529.47 661.092 1532.07 Q660.514 1532.74 657.412 1535.95 Q654.31 1539.15 648.662 1544.91 Z" fill="#000000" fill-rule="evenodd" fill-opacity="1" /><path clip-path="url(#clip500)" d="M1073.44 1517.37 Q1069.83 1517.37 1068 1520.93 Q1066.2 1524.47 1066.2 1531.6 Q1066.2 1538.71 1068 1542.27 Q1069.83 1545.82 1073.44 1545.82 Q1077.08 1545.82 1078.88 1542.27 Q1080.71 1538.71 1080.71 1531.6 Q1080.71 1524.47 1078.88 1520.93 Q1077.08 1517.37 1073.44 1517.37 M1073.44 1513.66 Q1079.25 1513.66 1082.31 1518.27 Q1085.39 1522.85 1085.39 1531.6 Q1085.39 1540.33 1082.31 1544.94 Q1079.25 1549.52 1073.44 1549.52 Q1067.63 1549.52 1064.56 1544.94 Q1061.5 1540.33 1061.5 1531.6 Q1061.5 1522.85 1064.56 1518.27 Q1067.63 1513.66 1073.44 1513.66 Z" fill="#000000" fill-rule="evenodd" fill-opacity="1" /><path clip-path="url(#clip500)" d="M1093.61 1542.97 L1098.49 1542.97 L1098.49 1548.85 L1093.61 1548.85 L1093.61 1542.97 Z" fill="#000000" fill-rule="evenodd" fill-opacity="1" /><path clip-path="url(#clip500)" d="M1121.52 1518.36 L1109.72 1536.81 L1121.52 1536.81 L1121.52 1518.36 M1120.3 1514.29 L1126.18 1514.29 L1126.18 1536.81 L1131.11 1536.81 L1131.11 1540.7 L1126.18 1540.7 L1126.18 1548.85 L1121.52 1548.85 L1121.52 1540.7 L1105.92 1540.7 L1105.92 1536.19 L1120.3 1514.29 Z" fill="#000000" fill-rule="evenodd" fill-opacity="1" /><path clip-path="url(#clip500)" d="M1538.69 1517.37 Q1535.08 1517.37 1533.25 1520.93 Q1531.44 1524.47 1531.44 1531.6 Q1531.44 1538.71 1533.25 1542.27 Q1535.08 1545.82 1538.69 1545.82 Q1542.32 1545.82 1544.13 1542.27 Q1545.96 1538.71 1545.96 1531.6 Q1545.96 1524.47 1544.13 1520.93 Q1542.32 1517.37 1538.69 1517.37 M1538.69 1513.66 Q1544.5 1513.66 1547.56 1518.27 Q1550.63 1522.85 1550.63 1531.6 Q1550.63 1540.33 1547.56 1544.94 Q1544.5 1549.52 1538.69 1549.52 Q1532.88 1549.52 1529.8 1544.94 Q1526.75 1540.33 1526.75 1531.6 Q1526.75 1522.85 1529.8 1518.27 Q1532.88 1513.66 1538.69 1513.66 Z" fill="#000000" fill-rule="evenodd" fill-opacity="1" /><path clip-path="url(#clip500)" d="M1558.85 1542.97 L1563.74 1542.97 L1563.74 1548.85 L1558.85 1548.85 L1558.85 1542.97 Z" fill="#000000" fill-rule="evenodd" fill-opacity="1" /><path clip-path="url(#clip500)" d="M1584.5 1529.7 Q1581.35 1529.7 1579.5 1531.86 Q1577.67 1534.01 1577.67 1537.76 Q1577.67 1541.49 1579.5 1543.66 Q1581.35 1545.82 1584.5 1545.82 Q1587.65 1545.82 1589.48 1543.66 Q1591.33 1541.49 1591.33 1537.76 Q1591.33 1534.01 1589.48 1531.86 Q1587.65 1529.7 1584.5 1529.7 M1593.78 1515.05 L1593.78 1519.31 Q1592.02 1518.48 1590.22 1518.04 Q1588.44 1517.6 1586.68 1517.6 Q1582.05 1517.6 1579.59 1520.72 Q1577.16 1523.85 1576.81 1530.17 Q1578.18 1528.15 1580.24 1527.09 Q1582.3 1526 1584.78 1526 Q1589.99 1526 1593 1529.17 Q1596.03 1532.32 1596.03 1537.76 Q1596.03 1543.08 1592.88 1546.3 Q1589.73 1549.52 1584.5 1549.52 Q1578.5 1549.52 1575.33 1544.94 Q1572.16 1540.33 1572.16 1531.6 Q1572.16 1523.41 1576.05 1518.55 Q1579.94 1513.66 1586.49 1513.66 Q1588.25 1513.66 1590.03 1514.01 Q1591.84 1514.36 1593.78 1515.05 Z" fill="#000000" fill-rule="evenodd" fill-opacity="1" /><path clip-path="url(#clip500)" d="M2003.9 1517.37 Q2000.29 1517.37 1998.46 1520.93 Q1996.66 1524.47 1996.66 1531.6 Q1996.66 1538.71 1998.46 1542.27 Q2000.29 1545.82 2003.9 1545.82 Q2007.54 1545.82 2009.34 1542.27 Q2011.17 1538.71 2011.17 1531.6 Q2011.17 1524.47 2009.34 1520.93 Q2007.54 1517.37 2003.9 1517.37 M2003.9 1513.66 Q2009.71 1513.66 2012.77 1518.27 Q2015.85 1522.85 2015.85 1531.6 Q2015.85 1540.33 2012.77 1544.94 Q2009.71 1549.52 2003.9 1549.52 Q1998.09 1549.52 1995.01 1544.94 Q1991.96 1540.33 1991.96 1531.6 Q1991.96 1522.85 1995.01 1518.27 Q1998.09 1513.66 2003.9 1513.66 Z" fill="#000000" fill-rule="evenodd" fill-opacity="1" /><path clip-path="url(#clip500)" d="M2024.06 1542.97 L2028.95 1542.97 L2028.95 1548.85 L2024.06 1548.85 L2024.06 1542.97 Z" fill="#000000" fill-rule="evenodd" fill-opacity="1" /><path clip-path="url(#clip500)" d="M2049.13 1532.44 Q2045.8 1532.44 2043.88 1534.22 Q2041.98 1536 2041.98 1539.13 Q2041.98 1542.25 2043.88 1544.03 Q2045.8 1545.82 2049.13 1545.82 Q2052.47 1545.82 2054.39 1544.03 Q2056.31 1542.23 2056.31 1539.13 Q2056.31 1536 2054.39 1534.22 Q2052.49 1532.44 2049.13 1532.44 M2044.46 1530.45 Q2041.45 1529.7 2039.76 1527.64 Q2038.09 1525.58 2038.09 1522.62 Q2038.09 1518.48 2041.03 1516.07 Q2043.99 1513.66 2049.13 1513.66 Q2054.29 1513.66 2057.23 1516.07 Q2060.17 1518.48 2060.17 1522.62 Q2060.17 1525.58 2058.48 1527.64 Q2056.82 1529.7 2053.83 1530.45 Q2057.21 1531.23 2059.09 1533.52 Q2060.98 1535.82 2060.98 1539.13 Q2060.98 1544.15 2057.91 1546.83 Q2054.85 1549.52 2049.13 1549.52 Q2043.41 1549.52 2040.34 1546.83 Q2037.28 1544.15 2037.28 1539.13 Q2037.28 1535.82 2039.18 1533.52 Q2041.08 1531.23 2044.46 1530.45 M2042.74 1523.06 Q2042.74 1525.75 2044.41 1527.25 Q2046.1 1528.76 2049.13 1528.76 Q2052.14 1528.76 2053.83 1527.25 Q2055.54 1525.75 2055.54 1523.06 Q2055.54 1520.38 2053.83 1518.87 Q2052.14 1517.37 2049.13 1517.37 Q2046.1 1517.37 2044.41 1518.87 Q2042.74 1520.38 2042.74 1523.06 Z" fill="#000000" fill-rule="evenodd" fill-opacity="1" /><polyline clip-path="url(#clip502)" style="stroke:#000000; stroke-linecap:butt; stroke-linejoin:round; stroke-width:2; stroke-opacity:0.1; fill:none" points="
  156.598,1324.83 2352.76,1324.83 
  "/>
<polyline clip-path="url(#clip502)" style="stroke:#000000; stroke-linecap:butt; stroke-linejoin:round; stroke-width:2; stroke-opacity:0.1; fill:none" points="
  156.598,999.303 2352.76,999.303 
  "/>
<polyline clip-path="url(#clip502)" style="stroke:#000000; stroke-linecap:butt; stroke-linejoin:round; stroke-width:2; stroke-opacity:0.1; fill:none" points="
  156.598,673.779 2352.76,673.779 
  "/>
<polyline clip-path="url(#clip502)" style="stroke:#000000; stroke-linecap:butt; stroke-linejoin:round; stroke-width:2; stroke-opacity:0.1; fill:none" points="
  156.598,348.255 2352.76,348.255 
  "/>
<polyline clip-path="url(#clip500)" style="stroke:#000000; stroke-linecap:butt; stroke-linejoin:round; stroke-width:4; stroke-opacity:1; fill:none" points="
  156.598,1486.45 156.598,47.2441 
  "/>
<polyline clip-path="url(#clip500)" style="stroke:#000000; stroke-linecap:butt; stroke-linejoin:round; stroke-width:4; stroke-opacity:1; fill:none" points="
  156.598,1324.83 175.496,1324.83 
  "/>
<polyline clip-path="url(#clip500)" style="stroke:#000000; stroke-linecap:butt; stroke-linejoin:round; stroke-width:4; stroke-opacity:1; fill:none" points="
  156.598,999.303 175.496,999.303 
  "/>
<polyline clip-path="url(#clip500)" style="stroke:#000000; stroke-linecap:butt; stroke-linejoin:round; stroke-width:4; stroke-opacity:1; fill:none" points="
  156.598,673.779 175.496,673.779 
  "/>
<polyline clip-path="url(#clip500)" style="stroke:#000000; stroke-linecap:butt; stroke-linejoin:round; stroke-width:4; stroke-opacity:1; fill:none" points="
  156.598,348.255 175.496,348.255 
  "/>
<path clip-path="url(#clip500)" d="M65.0198 1310.63 Q61.4087 1310.63 59.58 1314.19 Q57.7745 1317.73 57.7745 1324.86 Q57.7745 1331.97 59.58 1335.53 Q61.4087 1339.07 65.0198 1339.07 Q68.6541 1339.07 70.4596 1335.53 Q72.2883 1331.97 72.2883 1324.86 Q72.2883 1317.73 70.4596 1314.19 Q68.6541 1310.63 65.0198 1310.63 M65.0198 1306.92 Q70.83 1306.92 73.8855 1311.53 Q76.9642 1316.11 76.9642 1324.86 Q76.9642 1333.59 73.8855 1338.19 Q70.83 1342.78 65.0198 1342.78 Q59.2097 1342.78 56.131 1338.19 Q53.0754 1333.59 53.0754 1324.86 Q53.0754 1316.11 56.131 1311.53 Q59.2097 1306.92 65.0198 1306.92 Z" fill="#000000" fill-rule="evenodd" fill-opacity="1" /><path clip-path="url(#clip500)" d="M85.1818 1336.23 L90.066 1336.23 L90.066 1342.11 L85.1818 1342.11 L85.1818 1336.23 Z" fill="#000000" fill-rule="evenodd" fill-opacity="1" /><path clip-path="url(#clip500)" d="M104.279 1338.17 L120.598 1338.17 L120.598 1342.11 L98.6539 1342.11 L98.6539 1338.17 Q101.316 1335.42 105.899 1330.79 Q110.506 1326.13 111.686 1324.79 Q113.932 1322.27 114.811 1320.53 Q115.714 1318.77 115.714 1317.08 Q115.714 1314.33 113.77 1312.59 Q111.848 1310.86 108.746 1310.86 Q106.547 1310.86 104.094 1311.62 Q101.663 1312.38 98.8854 1313.94 L98.8854 1309.21 Q101.709 1308.08 104.163 1307.5 Q106.617 1306.92 108.654 1306.92 Q114.024 1306.92 117.219 1309.61 Q120.413 1312.29 120.413 1316.78 Q120.413 1318.91 119.603 1320.83 Q118.816 1322.73 116.709 1325.32 Q116.131 1326 113.029 1329.21 Q109.927 1332.41 104.279 1338.17 Z" fill="#000000" fill-rule="evenodd" fill-opacity="1" /><path clip-path="url(#clip500)" d="M62.9365 985.102 Q59.3254 985.102 57.4967 988.666 Q55.6912 992.208 55.6912 999.338 Q55.6912 1006.44 57.4967 1010.01 Q59.3254 1013.55 62.9365 1013.55 Q66.5707 1013.55 68.3763 1010.01 Q70.205 1006.44 70.205 999.338 Q70.205 992.208 68.3763 988.666 Q66.5707 985.102 62.9365 985.102 M62.9365 981.398 Q68.7467 981.398 71.8022 986.004 Q74.8809 990.588 74.8809 999.338 Q74.8809 1008.06 71.8022 1012.67 Q68.7467 1017.25 62.9365 1017.25 Q57.1264 1017.25 54.0477 1012.67 Q50.9921 1008.06 50.9921 999.338 Q50.9921 990.588 54.0477 986.004 Q57.1264 981.398 62.9365 981.398 Z" fill="#000000" fill-rule="evenodd" fill-opacity="1" /><path clip-path="url(#clip500)" d="M83.0984 1010.7 L87.9827 1010.7 L87.9827 1016.58 L83.0984 1016.58 L83.0984 1010.7 Z" fill="#000000" fill-rule="evenodd" fill-opacity="1" /><path clip-path="url(#clip500)" d="M111.015 986.097 L99.2095 1004.55 L111.015 1004.55 L111.015 986.097 M109.788 982.023 L115.668 982.023 L115.668 1004.55 L120.598 1004.55 L120.598 1008.43 L115.668 1008.43 L115.668 1016.58 L111.015 1016.58 L111.015 1008.43 L95.4132 1008.43 L95.4132 1003.92 L109.788 982.023 Z" fill="#000000" fill-rule="evenodd" fill-opacity="1" /><path clip-path="url(#clip500)" d="M63.2606 659.577 Q59.6495 659.577 57.8208 663.142 Q56.0152 666.684 56.0152 673.813 Q56.0152 680.92 57.8208 684.485 Q59.6495 688.026 63.2606 688.026 Q66.8948 688.026 68.7004 684.485 Q70.5291 680.92 70.5291 673.813 Q70.5291 666.684 68.7004 663.142 Q66.8948 659.577 63.2606 659.577 M63.2606 655.874 Q69.0707 655.874 72.1263 660.48 Q75.205 665.063 75.205 673.813 Q75.205 682.54 72.1263 687.147 Q69.0707 691.73 63.2606 691.73 Q57.4504 691.73 54.3717 687.147 Q51.3162 682.54 51.3162 673.813 Q51.3162 665.063 54.3717 660.48 Q57.4504 655.874 63.2606 655.874 Z" fill="#000000" fill-rule="evenodd" fill-opacity="1" /><path clip-path="url(#clip500)" d="M83.4225 685.179 L88.3067 685.179 L88.3067 691.059 L83.4225 691.059 L83.4225 685.179 Z" fill="#000000" fill-rule="evenodd" fill-opacity="1" /><path clip-path="url(#clip500)" d="M109.071 671.915 Q105.922 671.915 104.071 674.068 Q102.242 676.221 102.242 679.971 Q102.242 683.698 104.071 685.874 Q105.922 688.026 109.071 688.026 Q112.219 688.026 114.047 685.874 Q115.899 683.698 115.899 679.971 Q115.899 676.221 114.047 674.068 Q112.219 671.915 109.071 671.915 M118.353 657.263 L118.353 661.522 Q116.594 660.688 114.788 660.249 Q113.006 659.809 111.246 659.809 Q106.617 659.809 104.163 662.934 Q101.733 666.059 101.385 672.378 Q102.751 670.364 104.811 669.3 Q106.871 668.212 109.348 668.212 Q114.557 668.212 117.566 671.383 Q120.598 674.531 120.598 679.971 Q120.598 685.295 117.45 688.512 Q114.302 691.73 109.071 691.73 Q103.075 691.73 99.9039 687.147 Q96.7326 682.54 96.7326 673.813 Q96.7326 665.619 100.621 660.758 Q104.51 655.874 111.061 655.874 Q112.82 655.874 114.603 656.221 Q116.408 656.568 118.353 657.263 Z" fill="#000000" fill-rule="evenodd" fill-opacity="1" /><path clip-path="url(#clip500)" d="M63.5152 334.053 Q59.9041 334.053 58.0754 337.618 Q56.2699 341.16 56.2699 348.289 Q56.2699 355.396 58.0754 358.96 Q59.9041 362.502 63.5152 362.502 Q67.1494 362.502 68.955 358.96 Q70.7837 355.396 70.7837 348.289 Q70.7837 341.16 68.955 337.618 Q67.1494 334.053 63.5152 334.053 M63.5152 330.35 Q69.3254 330.35 72.3809 334.956 Q75.4596 339.539 75.4596 348.289 Q75.4596 357.016 72.3809 361.622 Q69.3254 366.206 63.5152 366.206 Q57.7051 366.206 54.6264 361.622 Q51.5708 357.016 51.5708 348.289 Q51.5708 339.539 54.6264 334.956 Q57.7051 330.35 63.5152 330.35 Z" fill="#000000" fill-rule="evenodd" fill-opacity="1" /><path clip-path="url(#clip500)" d="M83.6771 359.655 L88.5614 359.655 L88.5614 365.535 L83.6771 365.535 L83.6771 359.655 Z" fill="#000000" fill-rule="evenodd" fill-opacity="1" /><path clip-path="url(#clip500)" d="M108.746 349.123 Q105.413 349.123 103.492 350.905 Q101.594 352.687 101.594 355.812 Q101.594 358.937 103.492 360.72 Q105.413 362.502 108.746 362.502 Q112.08 362.502 114.001 360.72 Q115.922 358.914 115.922 355.812 Q115.922 352.687 114.001 350.905 Q112.103 349.123 108.746 349.123 M104.071 347.132 Q101.061 346.391 99.3715 344.331 Q97.7048 342.271 97.7048 339.308 Q97.7048 335.164 100.645 332.757 Q103.608 330.35 108.746 330.35 Q113.908 330.35 116.848 332.757 Q119.788 335.164 119.788 339.308 Q119.788 342.271 118.098 344.331 Q116.432 346.391 113.445 347.132 Q116.825 347.919 118.7 350.211 Q120.598 352.502 120.598 355.812 Q120.598 360.835 117.52 363.521 Q114.464 366.206 108.746 366.206 Q103.029 366.206 99.9502 363.521 Q96.8947 360.835 96.8947 355.812 Q96.8947 352.502 98.7928 350.211 Q100.691 347.919 104.071 347.132 M102.358 339.748 Q102.358 342.433 104.024 343.937 Q105.714 345.442 108.746 345.442 Q111.756 345.442 113.445 343.937 Q115.158 342.433 115.158 339.748 Q115.158 337.062 113.445 335.558 Q111.756 334.053 108.746 334.053 Q105.714 334.053 104.024 335.558 Q102.358 337.062 102.358 339.748 Z" fill="#000000" fill-rule="evenodd" fill-opacity="1" /><polyline clip-path="url(#clip502)" style="stroke:#009af9; stroke-linecap:butt; stroke-linejoin:round; stroke-width:4; stroke-opacity:1; fill:none" points="
  218.754,868.517 1365.3,95.49 2290.6,914.307 1304.74,433.37 1297.71,87.9763 1238.04,863.828 1238.34,985 242.072,129.312 396.56,1445.72 1042.43,928.05 
  
  "/>
<path clip-path="url(#clip500)" d="
M1987.12 198.898 L2279.55 198.898 L2279.55 95.2176 L1987.12 95.2176  Z
  " fill="#ffffff" fill-rule="evenodd" fill-opacity="1"/>
<polyline clip-path="url(#clip500)" style="stroke:#000000; stroke-linecap:butt; stroke-linejoin:round; stroke-width:4; stroke-opacity:1; fill:none" points="
  1987.12,198.898 2279.55,198.898 2279.55,95.2176 1987.12,95.2176 1987.12,198.898 
  "/>
<polyline clip-path="url(#clip500)" style="stroke:#009af9; stroke-linecap:butt; stroke-linejoin:round; stroke-width:4; stroke-opacity:1; fill:none" points="
  2011.12,147.058 2155.12,147.058 
  "/>
<path clip-path="url(#clip500)" d="M2192.96 166.745 Q2191.16 171.375 2189.44 172.787 Q2187.73 174.199 2184.86 174.199 L2181.46 174.199 L2181.46 170.634 L2183.96 170.634 Q2185.72 170.634 2186.69 169.8 Q2187.66 168.967 2188.84 165.865 L2189.61 163.921 L2179.12 138.412 L2183.63 138.412 L2191.74 158.689 L2199.84 138.412 L2204.35 138.412 L2192.96 166.745 Z" fill="#000000" fill-rule="evenodd" fill-opacity="1" /><path clip-path="url(#clip500)" d="M2211.64 160.402 L2219.28 160.402 L2219.28 134.037 L2210.97 135.703 L2210.97 131.444 L2219.24 129.778 L2223.91 129.778 L2223.91 160.402 L2231.55 160.402 L2231.55 164.338 L2211.64 164.338 L2211.64 160.402 Z" fill="#000000" fill-rule="evenodd" fill-opacity="1" /></svg>
