<?xml version="1.0" encoding="utf-8"?>
<svg xmlns="http://www.w3.org/2000/svg" xmlns:xlink="http://www.w3.org/1999/xlink" width="600" height="400" viewBox="0 0 2400 1600">
<defs>
  <clipPath id="clip970">
    <rect x="0" y="0" width="2400" height="1600"/>
  </clipPath>
</defs>
<path clip-path="url(#clip970)" d="
M0 1600 L2400 1600 L2400 0 L0 0  Z
  " fill="#ffffff" fill-rule="evenodd" fill-opacity="1"/>
<defs>
  <clipPath id="clip971">
    <rect x="480" y="0" width="1681" height="1600"/>
  </clipPath>
</defs>
<path clip-path="url(#clip970)" d="
M156.598 1486.45 L2352.76 1486.45 L2352.76 47.2441 L156.598 47.2441  Z
  " fill="#ffffff" fill-rule="evenodd" fill-opacity="1"/>
<defs>
  <clipPath id="clip972">
    <rect x="156" y="47" width="2197" height="1440"/>
  </clipPath>
</defs>
<polyline clip-path="url(#clip972)" style="stroke:#000000; stroke-linecap:butt; stroke-linejoin:round; stroke-width:2; stroke-opacity:0.1; fill:none" points="
  412.639,1486.45 412.639,47.2441 
  "/>
<polyline clip-path="url(#clip972)" style="stroke:#000000; stroke-linecap:butt; stroke-linejoin:round; stroke-width:2; stroke-opacity:0.1; fill:none" points="
  920.2,1486.45 920.2,47.2441 
  "/>
<polyline clip-path="url(#clip972)" style="stroke:#000000; stroke-linecap:butt; stroke-linejoin:round; stroke-width:2; stroke-opacity:0.1; fill:none" points="
  1427.76,1486.45 1427.76,47.2441 
  "/>
<polyline clip-path="url(#clip972)" style="stroke:#000000; stroke-linecap:butt; stroke-linejoin:round; stroke-width:2; stroke-opacity:0.1; fill:none" points="
  1935.32,1486.45 1935.32,47.2441 
  "/>
<polyline clip-path="url(#clip970)" style="stroke:#000000; stroke-linecap:butt; stroke-linejoin:round; stroke-width:4; stroke-opacity:1; fill:none" points="
  156.598,1486.45 2352.76,1486.45 
  "/>
<polyline clip-path="url(#clip970)" style="stroke:#000000; stroke-linecap:butt; stroke-linejoin:round; stroke-width:4; stroke-opacity:1; fill:none" points="
  412.639,1486.45 412.639,1467.55 
  "/>
<polyline clip-path="url(#clip970)" style="stroke:#000000; stroke-linecap:butt; stroke-linejoin:round; stroke-width:4; stroke-opacity:1; fill:none" points="
  920.2,1486.45 920.2,1467.55 
  "/>
<polyline clip-path="url(#clip970)" style="stroke:#000000; stroke-linecap:butt; stroke-linejoin:round; stroke-width:4; stroke-opacity:1; fill:none" points="
  1427.76,1486.45 1427.76,1467.55 
  "/>
<polyline clip-path="url(#clip970)" style="stroke:#000000; stroke-linecap:butt; stroke-linejoin:round; stroke-width:4; stroke-opacity:1; fill:none" points="
  1935.32,1486.45 1935.32,1467.55 
  "/>
<path clip-path="url(#clip970)" d="M390.822 1517.37 Q387.211 1517.37 385.382 1520.93 Q383.577 1524.47 383.577 1531.6 Q383.577 1538.71 385.382 1542.27 Q387.211 1545.82 390.822 1545.82 Q394.456 1545.82 396.262 1542.27 Q398.09 1538.71 398.09 1531.6 Q398.09 1524.47 396.262 1520.93 Q394.456 1517.37 390.822 1517.37 M390.822 1513.66 Q396.632 1513.66 399.688 1518.27 Q402.766 1522.85 402.766 1531.6 Q402.766 1540.33 399.688 1544.94 Q396.632 1549.52 390.822 1549.52 Q385.012 1549.52 381.933 1544.94 Q378.877 1540.33 378.877 1531.6 Q378.877 1522.85 381.933 1518.27 Q385.012 1513.66 390.822 1513.66 Z" fill="#000000" fill-rule="evenodd" fill-opacity="1" /><path clip-path="url(#clip970)" d="M410.984 1542.97 L415.868 1542.97 L415.868 1548.85 L410.984 1548.85 L410.984 1542.97 Z" fill="#000000" fill-rule="evenodd" fill-opacity="1" /><path clip-path="url(#clip970)" d="M430.081 1544.91 L446.4 1544.91 L446.4 1548.85 L424.456 1548.85 L424.456 1544.91 Q427.118 1542.16 431.701 1537.53 Q436.308 1532.88 437.488 1531.53 Q439.734 1529.01 440.613 1527.27 Q441.516 1525.51 441.516 1523.82 Q441.516 1521.07 439.572 1519.33 Q437.65 1517.6 434.548 1517.6 Q432.349 1517.6 429.896 1518.36 Q427.465 1519.13 424.687 1520.68 L424.687 1515.95 Q427.511 1514.82 429.965 1514.24 Q432.419 1513.66 434.456 1513.66 Q439.826 1513.66 443.021 1516.35 Q446.215 1519.03 446.215 1523.52 Q446.215 1525.65 445.405 1527.57 Q444.618 1529.47 442.511 1532.07 Q441.933 1532.74 438.831 1535.95 Q435.729 1539.15 430.081 1544.91 Z" fill="#000000" fill-rule="evenodd" fill-opacity="1" /><path clip-path="url(#clip970)" d="M897.341 1517.37 Q893.73 1517.37 891.902 1520.93 Q890.096 1524.47 890.096 1531.6 Q890.096 1538.71 891.902 1542.27 Q893.73 1545.82 897.341 1545.82 Q900.976 1545.82 902.781 1542.27 Q904.61 1538.71 904.61 1531.6 Q904.61 1524.47 902.781 1520.93 Q900.976 1517.37 897.341 1517.37 M897.341 1513.66 Q903.152 1513.66 906.207 1518.27 Q909.286 1522.85 909.286 1531.6 Q909.286 1540.33 906.207 1544.94 Q903.152 1549.52 897.341 1549.52 Q891.531 1549.52 888.453 1544.94 Q885.397 1540.33 885.397 1531.6 Q885.397 1522.85 888.453 1518.27 Q891.531 1513.66 897.341 1513.66 Z" fill="#000000" fill-rule="evenodd" fill-opacity="1" /><path clip-path="url(#clip970)" d="M917.503 1542.97 L922.388 1542.97 L922.388 1548.85 L917.503 1548.85 L917.503 1542.97 Z" fill="#000000" fill-rule="evenodd" fill-opacity="1" /><path clip-path="url(#clip970)" d="M945.42 1518.36 L933.614 1536.81 L945.42 1536.81 L945.42 1518.36 M944.193 1514.29 L950.073 1514.29 L950.073 1536.81 L955.003 1536.81 L955.003 1540.7 L950.073 1540.7 L950.073 1548.85 L945.42 1548.85 L945.42 1540.7 L929.818 1540.7 L929.818 1536.19 L944.193 1514.29 Z" fill="#000000" fill-rule="evenodd" fill-opacity="1" /><path clip-path="url(#clip970)" d="M1405.06 1517.37 Q1401.45 1517.37 1399.63 1520.93 Q1397.82 1524.47 1397.82 1531.6 Q1397.82 1538.71 1399.63 1542.27 Q1401.45 1545.82 1405.06 1545.82 Q1408.7 1545.82 1410.5 1542.27 Q1412.33 1538.71 1412.33 1531.6 Q1412.33 1524.47 1410.5 1520.93 Q1408.7 1517.37 1405.06 1517.37 M1405.06 1513.66 Q1410.87 1513.66 1413.93 1518.27 Q1417.01 1522.85 1417.01 1531.6 Q1417.01 1540.33 1413.93 1544.94 Q1410.87 1549.52 1405.06 1549.52 Q1399.25 1549.52 1396.18 1544.94 Q1393.12 1540.33 1393.12 1531.6 Q1393.12 1522.85 1396.18 1518.27 Q1399.25 1513.66 1405.06 1513.66 Z" fill="#000000" fill-rule="evenodd" fill-opacity="1" /><path clip-path="url(#clip970)" d="M1425.23 1542.97 L1430.11 1542.97 L1430.11 1548.85 L1425.23 1548.85 L1425.23 1542.97 Z" fill="#000000" fill-rule="evenodd" fill-opacity="1" /><path clip-path="url(#clip970)" d="M1450.87 1529.7 Q1447.73 1529.7 1445.87 1531.86 Q1444.05 1534.01 1444.05 1537.76 Q1444.05 1541.49 1445.87 1543.66 Q1447.73 1545.82 1450.87 1545.82 Q1454.02 1545.82 1455.85 1543.66 Q1457.7 1541.49 1457.7 1537.76 Q1457.7 1534.01 1455.85 1531.86 Q1454.02 1529.7 1450.87 1529.7 M1460.16 1515.05 L1460.16 1519.31 Q1458.4 1518.48 1456.59 1518.04 Q1454.81 1517.6 1453.05 1517.6 Q1448.42 1517.6 1445.97 1520.72 Q1443.54 1523.85 1443.19 1530.17 Q1444.56 1528.15 1446.62 1527.09 Q1448.68 1526 1451.15 1526 Q1456.36 1526 1459.37 1529.17 Q1462.4 1532.32 1462.4 1537.76 Q1462.4 1543.08 1459.25 1546.3 Q1456.11 1549.52 1450.87 1549.52 Q1444.88 1549.52 1441.71 1544.94 Q1438.54 1540.33 1438.54 1531.6 Q1438.54 1523.41 1442.43 1518.55 Q1446.31 1513.66 1452.87 1513.66 Q1454.62 1513.66 1456.41 1514.01 Q1458.21 1514.36 1460.16 1515.05 Z" fill="#000000" fill-rule="evenodd" fill-opacity="1" /><path clip-path="url(#clip970)" d="M1912.75 1517.37 Q1909.14 1517.37 1907.31 1520.93 Q1905.51 1524.47 1905.51 1531.6 Q1905.51 1538.71 1907.31 1542.27 Q1909.14 1545.82 1912.75 1545.82 Q1916.39 1545.82 1918.19 1542.27 Q1920.02 1538.71 1920.02 1531.6 Q1920.02 1524.47 1918.19 1520.93 Q1916.39 1517.37 1912.75 1517.37 M1912.75 1513.66 Q1918.56 1513.66 1921.62 1518.27 Q1924.7 1522.85 1924.7 1531.6 Q1924.7 1540.33 1921.62 1544.94 Q1918.56 1549.52 1912.75 1549.52 Q1906.94 1549.52 1903.86 1544.94 Q1900.81 1540.33 1900.81 1531.6 Q1900.81 1522.85 1903.86 1518.27 Q1906.94 1513.66 1912.75 1513.66 Z" fill="#000000" fill-rule="evenodd" fill-opacity="1" /><path clip-path="url(#clip970)" d="M1932.92 1542.97 L1937.8 1542.97 L1937.8 1548.85 L1932.92 1548.85 L1932.92 1542.97 Z" fill="#000000" fill-rule="evenodd" fill-opacity="1" /><path clip-path="url(#clip970)" d="M1957.98 1532.44 Q1954.65 1532.44 1952.73 1534.22 Q1950.83 1536 1950.83 1539.13 Q1950.83 1542.25 1952.73 1544.03 Q1954.65 1545.82 1957.98 1545.82 Q1961.32 1545.82 1963.24 1544.03 Q1965.16 1542.23 1965.16 1539.13 Q1965.16 1536 1963.24 1534.22 Q1961.34 1532.44 1957.98 1532.44 M1953.31 1530.45 Q1950.3 1529.7 1948.61 1527.64 Q1946.94 1525.58 1946.94 1522.62 Q1946.94 1518.48 1949.88 1516.07 Q1952.85 1513.66 1957.98 1513.66 Q1963.15 1513.66 1966.09 1516.07 Q1969.03 1518.48 1969.03 1522.62 Q1969.03 1525.58 1967.34 1527.64 Q1965.67 1529.7 1962.68 1530.45 Q1966.06 1531.23 1967.94 1533.52 Q1969.84 1535.82 1969.84 1539.13 Q1969.84 1544.15 1966.76 1546.83 Q1963.7 1549.52 1957.98 1549.52 Q1952.27 1549.52 1949.19 1546.83 Q1946.13 1544.15 1946.13 1539.13 Q1946.13 1535.82 1948.03 1533.52 Q1949.93 1531.23 1953.31 1530.45 M1951.6 1523.06 Q1951.6 1525.75 1953.26 1527.25 Q1954.95 1528.76 1957.98 1528.76 Q1960.99 1528.76 1962.68 1527.25 Q1964.4 1525.75 1964.4 1523.06 Q1964.4 1520.38 1962.68 1518.87 Q1960.99 1517.37 1957.98 1517.37 Q1954.95 1517.37 1953.26 1518.87 Q1951.6 1520.38 1951.6 1523.06 Z" fill="#000000" fill-rule="evenodd" fill-opacity="1" /><polyline clip-path="url(#clip972)" style="stroke:#000000; stroke-linecap:butt; stroke-linejoin:round; stroke-width:2; stroke-opacity:0.1; fill:none" points="
  156.598,1402.51 2352.76,1402.51 
  "/>
<polyline clip-path="url(#clip972)" style="stroke:#000000; stroke-linecap:butt; stroke-linejoin:round; stroke-width:2; stroke-opacity:0.1; fill:none" points="
  156.598,1161.21 2352.76,1161.21 
  "/>
<polyline clip-path="url(#clip972)" style="stroke:#000000; stroke-linecap:butt; stroke-linejoin:round; stroke-width:2; stroke-opacity:0.1; fill:none" points="
  156.598,919.914 2352.76,919.914 
  "/>
<polyline clip-path="url(#clip972)" style="stroke:#000000; stroke-linecap:butt; stroke-linejoin:round; stroke-width:2; stroke-opacity:0.1; fill:none" points="
  156.598,678.617 2352.76,678.617 
  "/>
<polyline clip-path="url(#clip972)" style="stroke:#000000; stroke-linecap:butt; stroke-linejoin:round; stroke-width:2; stroke-opacity:0.1; fill:none" points="
  156.598,437.32 2352.76,437.32 
  "/>
<polyline clip-path="url(#clip972)" style="stroke:#000000; stroke-linecap:butt; stroke-linejoin:round; stroke-width:2; stroke-opacity:0.1; fill:none" points="
  156.598,196.023 2352.76,196.023 
  "/>
<polyline clip-path="url(#clip970)" style="stroke:#000000; stroke-linecap:butt; stroke-linejoin:round; stroke-width:4; stroke-opacity:1; fill:none" points="
  156.598,1486.45 156.598,47.2441 
  "/>
<polyline clip-path="url(#clip970)" style="stroke:#000000; stroke-linecap:butt; stroke-linejoin:round; stroke-width:4; stroke-opacity:1; fill:none" points="
  156.598,1402.51 175.496,1402.51 
  "/>
<polyline clip-path="url(#clip970)" style="stroke:#000000; stroke-linecap:butt; stroke-linejoin:round; stroke-width:4; stroke-opacity:1; fill:none" points="
  156.598,1161.21 175.496,1161.21 
  "/>
<polyline clip-path="url(#clip970)" style="stroke:#000000; stroke-linecap:butt; stroke-linejoin:round; stroke-width:4; stroke-opacity:1; fill:none" points="
  156.598,919.914 175.496,919.914 
  "/>
<polyline clip-path="url(#clip970)" style="stroke:#000000; stroke-linecap:butt; stroke-linejoin:round; stroke-width:4; stroke-opacity:1; fill:none" points="
  156.598,678.617 175.496,678.617 
  "/>
<polyline clip-path="url(#clip970)" style="stroke:#000000; stroke-linecap:butt; stroke-linejoin:round; stroke-width:4; stroke-opacity:1; fill:none" points="
  156.598,437.32 175.496,437.32 
  "/>
<polyline clip-path="url(#clip970)" style="stroke:#000000; stroke-linecap:butt; stroke-linejoin:round; stroke-width:4; stroke-opacity:1; fill:none" points="
  156.598,196.023 175.496,196.023 
  "/>
<path clip-path="url(#clip970)" d="M64.0708 1388.31 Q60.4597 1388.31 58.631 1391.87 Q56.8254 1395.41 56.8254 1402.54 Q56.8254 1409.65 58.631 1413.21 Q60.4597 1416.76 64.0708 1416.76 Q67.705 1416.76 69.5105 1413.21 Q71.3392 1409.65 71.3392 1402.54 Q71.3392 1395.41 69.5105 1391.87 Q67.705 1388.31 64.0708 1388.31 M64.0708 1384.6 Q69.8809 1384.6 72.9365 1389.21 Q76.0151 1393.79 76.0151 1402.54 Q76.0151 1411.27 72.9365 1415.88 Q69.8809 1420.46 64.0708 1420.46 Q58.2606 1420.46 55.1819 1415.88 Q52.1264 1411.27 52.1264 1402.54 Q52.1264 1393.79 55.1819 1389.21 Q58.2606 1384.6 64.0708 1384.6 Z" fill="#000000" fill-rule="evenodd" fill-opacity="1" /><path clip-path="url(#clip970)" d="M84.2327 1413.91 L89.1169 1413.91 L89.1169 1419.79 L84.2327 1419.79 L84.2327 1413.91 Z" fill="#000000" fill-rule="evenodd" fill-opacity="1" /><path clip-path="url(#clip970)" d="M113.469 1401.15 Q116.825 1401.87 118.7 1404.14 Q120.598 1406.41 120.598 1409.74 Q120.598 1414.86 117.08 1417.66 Q113.561 1420.46 107.08 1420.46 Q104.904 1420.46 102.589 1420.02 Q100.297 1419.6 97.8437 1418.75 L97.8437 1414.23 Q99.7882 1415.37 102.103 1415.95 Q104.418 1416.52 106.941 1416.52 Q111.339 1416.52 113.631 1414.79 Q115.945 1413.05 115.945 1409.74 Q115.945 1406.69 113.793 1404.97 Q111.663 1403.24 107.844 1403.24 L103.816 1403.24 L103.816 1399.39 L108.029 1399.39 Q111.478 1399.39 113.307 1398.03 Q115.135 1396.64 115.135 1394.05 Q115.135 1391.39 113.237 1389.97 Q111.362 1388.54 107.844 1388.54 Q105.922 1388.54 103.723 1388.95 Q101.524 1389.37 98.8854 1390.25 L98.8854 1386.08 Q101.547 1385.34 103.862 1384.97 Q106.2 1384.6 108.26 1384.6 Q113.584 1384.6 116.686 1387.03 Q119.788 1389.44 119.788 1393.56 Q119.788 1396.43 118.145 1398.42 Q116.501 1400.39 113.469 1401.15 Z" fill="#000000" fill-rule="evenodd" fill-opacity="1" /><path clip-path="url(#clip970)" d="M62.9365 1147.01 Q59.3254 1147.01 57.4967 1150.57 Q55.6912 1154.12 55.6912 1161.25 Q55.6912 1168.35 57.4967 1171.92 Q59.3254 1175.46 62.9365 1175.46 Q66.5707 1175.46 68.3763 1171.92 Q70.205 1168.35 70.205 1161.25 Q70.205 1154.12 68.3763 1150.57 Q66.5707 1147.01 62.9365 1147.01 M62.9365 1143.31 Q68.7467 1143.31 71.8022 1147.91 Q74.8809 1152.5 74.8809 1161.25 Q74.8809 1169.97 71.8022 1174.58 Q68.7467 1179.16 62.9365 1179.16 Q57.1264 1179.16 54.0477 1174.58 Q50.9921 1169.97 50.9921 1161.25 Q50.9921 1152.5 54.0477 1147.91 Q57.1264 1143.31 62.9365 1143.31 Z" fill="#000000" fill-rule="evenodd" fill-opacity="1" /><path clip-path="url(#clip970)" d="M83.0984 1172.61 L87.9827 1172.61 L87.9827 1178.49 L83.0984 1178.49 L83.0984 1172.61 Z" fill="#000000" fill-rule="evenodd" fill-opacity="1" /><path clip-path="url(#clip970)" d="M111.015 1148.01 L99.2095 1166.45 L111.015 1166.45 L111.015 1148.01 M109.788 1143.93 L115.668 1143.93 L115.668 1166.45 L120.598 1166.45 L120.598 1170.34 L115.668 1170.34 L115.668 1178.49 L111.015 1178.49 L111.015 1170.34 L95.4132 1170.34 L95.4132 1165.83 L109.788 1143.93 Z" fill="#000000" fill-rule="evenodd" fill-opacity="1" /><path clip-path="url(#clip970)" d="M64.418 905.713 Q60.8069 905.713 58.9782 909.277 Q57.1726 912.819 57.1726 919.949 Q57.1726 927.055 58.9782 930.62 Q60.8069 934.162 64.418 934.162 Q68.0522 934.162 69.8578 930.62 Q71.6865 927.055 71.6865 919.949 Q71.6865 912.819 69.8578 909.277 Q68.0522 905.713 64.418 905.713 M64.418 902.009 Q70.2281 902.009 73.2837 906.615 Q76.3624 911.199 76.3624 919.949 Q76.3624 928.676 73.2837 933.282 Q70.2281 937.865 64.418 937.865 Q58.6078 937.865 55.5291 933.282 Q52.4736 928.676 52.4736 919.949 Q52.4736 911.199 55.5291 906.615 Q58.6078 902.009 64.418 902.009 Z" fill="#000000" fill-rule="evenodd" fill-opacity="1" /><path clip-path="url(#clip970)" d="M84.5799 931.314 L89.4641 931.314 L89.4641 937.194 L84.5799 937.194 L84.5799 931.314 Z" fill="#000000" fill-rule="evenodd" fill-opacity="1" /><path clip-path="url(#clip970)" d="M99.6956 902.634 L118.052 902.634 L118.052 906.569 L103.978 906.569 L103.978 915.041 Q104.996 914.694 106.015 914.532 Q107.033 914.347 108.052 914.347 Q113.839 914.347 117.219 917.518 Q120.598 920.689 120.598 926.106 Q120.598 931.685 117.126 934.787 Q113.654 937.865 107.334 937.865 Q105.159 937.865 102.89 937.495 Q100.645 937.125 98.2372 936.384 L98.2372 931.685 Q100.321 932.819 102.543 933.375 Q104.765 933.93 107.242 933.93 Q111.246 933.93 113.584 931.824 Q115.922 929.717 115.922 926.106 Q115.922 922.495 113.584 920.389 Q111.246 918.282 107.242 918.282 Q105.367 918.282 103.492 918.699 Q101.64 919.115 99.6956 919.995 L99.6956 902.634 Z" fill="#000000" fill-rule="evenodd" fill-opacity="1" /><path clip-path="url(#clip970)" d="M63.2606 664.416 Q59.6495 664.416 57.8208 667.981 Q56.0152 671.522 56.0152 678.652 Q56.0152 685.758 57.8208 689.323 Q59.6495 692.865 63.2606 692.865 Q66.8948 692.865 68.7004 689.323 Q70.5291 685.758 70.5291 678.652 Q70.5291 671.522 68.7004 667.981 Q66.8948 664.416 63.2606 664.416 M63.2606 660.712 Q69.0707 660.712 72.1263 665.318 Q75.205 669.902 75.205 678.652 Q75.205 687.379 72.1263 691.985 Q69.0707 696.568 63.2606 696.568 Q57.4504 696.568 54.3717 691.985 Q51.3162 687.379 51.3162 678.652 Q51.3162 669.902 54.3717 665.318 Q57.4504 660.712 63.2606 660.712 Z" fill="#000000" fill-rule="evenodd" fill-opacity="1" /><path clip-path="url(#clip970)" d="M83.4225 690.017 L88.3067 690.017 L88.3067 695.897 L83.4225 695.897 L83.4225 690.017 Z" fill="#000000" fill-rule="evenodd" fill-opacity="1" /><path clip-path="url(#clip970)" d="M109.071 676.754 Q105.922 676.754 104.071 678.906 Q102.242 681.059 102.242 684.809 Q102.242 688.536 104.071 690.712 Q105.922 692.865 109.071 692.865 Q112.219 692.865 114.047 690.712 Q115.899 688.536 115.899 684.809 Q115.899 681.059 114.047 678.906 Q112.219 676.754 109.071 676.754 M118.353 662.101 L118.353 666.36 Q116.594 665.527 114.788 665.087 Q113.006 664.647 111.246 664.647 Q106.617 664.647 104.163 667.772 Q101.733 670.897 101.385 677.217 Q102.751 675.203 104.811 674.138 Q106.871 673.05 109.348 673.05 Q114.557 673.05 117.566 676.221 Q120.598 679.369 120.598 684.809 Q120.598 690.133 117.45 693.351 Q114.302 696.568 109.071 696.568 Q103.075 696.568 99.9039 691.985 Q96.7326 687.379 96.7326 678.652 Q96.7326 670.457 100.621 665.596 Q104.51 660.712 111.061 660.712 Q112.82 660.712 114.603 661.059 Q116.408 661.406 118.353 662.101 Z" fill="#000000" fill-rule="evenodd" fill-opacity="1" /><path clip-path="url(#clip970)" d="M64.3254 423.119 Q60.7143 423.119 58.8856 426.684 Q57.0801 430.225 57.0801 437.355 Q57.0801 444.461 58.8856 448.026 Q60.7143 451.568 64.3254 451.568 Q67.9596 451.568 69.7652 448.026 Q71.5939 444.461 71.5939 437.355 Q71.5939 430.225 69.7652 426.684 Q67.9596 423.119 64.3254 423.119 M64.3254 419.415 Q70.1355 419.415 73.1911 424.021 Q76.2698 428.605 76.2698 437.355 Q76.2698 446.082 73.1911 450.688 Q70.1355 455.271 64.3254 455.271 Q58.5152 455.271 55.4365 450.688 Q52.381 446.082 52.381 437.355 Q52.381 428.605 55.4365 424.021 Q58.5152 419.415 64.3254 419.415 Z" fill="#000000" fill-rule="evenodd" fill-opacity="1" /><path clip-path="url(#clip970)" d="M84.4873 448.72 L89.3715 448.72 L89.3715 454.6 L84.4873 454.6 L84.4873 448.72 Z" fill="#000000" fill-rule="evenodd" fill-opacity="1" /><path clip-path="url(#clip970)" d="M98.3761 420.04 L120.598 420.04 L120.598 422.031 L108.052 454.6 L103.168 454.6 L114.973 423.975 L98.3761 423.975 L98.3761 420.04 Z" fill="#000000" fill-rule="evenodd" fill-opacity="1" /><path clip-path="url(#clip970)" d="M63.5152 181.822 Q59.9041 181.822 58.0754 185.387 Q56.2699 188.928 56.2699 196.058 Q56.2699 203.164 58.0754 206.729 Q59.9041 210.271 63.5152 210.271 Q67.1494 210.271 68.955 206.729 Q70.7837 203.164 70.7837 196.058 Q70.7837 188.928 68.955 185.387 Q67.1494 181.822 63.5152 181.822 M63.5152 178.118 Q69.3254 178.118 72.3809 182.725 Q75.4596 187.308 75.4596 196.058 Q75.4596 204.785 72.3809 209.391 Q69.3254 213.974 63.5152 213.974 Q57.7051 213.974 54.6264 209.391 Q51.5708 204.785 51.5708 196.058 Q51.5708 187.308 54.6264 182.725 Q57.7051 178.118 63.5152 178.118 Z" fill="#000000" fill-rule="evenodd" fill-opacity="1" /><path clip-path="url(#clip970)" d="M83.6771 207.423 L88.5614 207.423 L88.5614 213.303 L83.6771 213.303 L83.6771 207.423 Z" fill="#000000" fill-rule="evenodd" fill-opacity="1" /><path clip-path="url(#clip970)" d="M108.746 196.891 Q105.413 196.891 103.492 198.674 Q101.594 200.456 101.594 203.581 Q101.594 206.706 103.492 208.488 Q105.413 210.271 108.746 210.271 Q112.08 210.271 114.001 208.488 Q115.922 206.683 115.922 203.581 Q115.922 200.456 114.001 198.674 Q112.103 196.891 108.746 196.891 M104.071 194.9 Q101.061 194.16 99.3715 192.099 Q97.7048 190.039 97.7048 187.076 Q97.7048 182.933 100.645 180.525 Q103.608 178.118 108.746 178.118 Q113.908 178.118 116.848 180.525 Q119.788 182.933 119.788 187.076 Q119.788 190.039 118.098 192.099 Q116.432 194.16 113.445 194.9 Q116.825 195.687 118.7 197.979 Q120.598 200.271 120.598 203.581 Q120.598 208.604 117.52 211.289 Q114.464 213.974 108.746 213.974 Q103.029 213.974 99.9502 211.289 Q96.8947 208.604 96.8947 203.581 Q96.8947 200.271 98.7928 197.979 Q100.691 195.687 104.071 194.9 M102.358 187.516 Q102.358 190.201 104.024 191.706 Q105.714 193.211 108.746 193.211 Q111.756 193.211 113.445 191.706 Q115.158 190.201 115.158 187.516 Q115.158 184.831 113.445 183.326 Q111.756 181.822 108.746 181.822 Q105.714 181.822 104.024 183.326 Q102.358 184.831 102.358 187.516 Z" fill="#000000" fill-rule="evenodd" fill-opacity="1" /><polyline clip-path="url(#clip972)" style="stroke:#009af9; stroke-linecap:butt; stroke-linejoin:round; stroke-width:4; stroke-opacity:1; fill:none" points="
  707.139,104.182 1905.54,1347.02 258.512,172.793 1907.31,1445.72 1704.11,87.9763 218.754,420.388 429.611,490.771 819.694,438.353 2290.6,339.445 744.288,601.424 
  
  "/>
<path clip-path="url(#clip970)" d="
M1987.12 198.898 L2279.55 198.898 L2279.55 95.2176 L1987.12 95.2176  Z
  " fill="#ffffff" fill-rule="evenodd" fill-opacity="1"/>
<polyline clip-path="url(#clip970)" style="stroke:#000000; stroke-linecap:butt; stroke-linejoin:round; stroke-width:4; stroke-opacity:1; fill:none" points="
  1987.12,198.898 2279.55,198.898 2279.55,95.2176 1987.12,95.2176 1987.12,198.898 
  "/>
<polyline clip-path="url(#clip970)" style="stroke:#009af9; stroke-linecap:butt; stroke-linejoin:round; stroke-width:4; stroke-opacity:1; fill:none" points="
  2011.12,147.058 2155.12,147.058 
  "/>
<path clip-path="url(#clip970)" d="M2192.96 166.745 Q2191.16 171.375 2189.44 172.787 Q2187.73 174.199 2184.86 174.199 L2181.46 174.199 L2181.46 170.634 L2183.96 170.634 Q2185.72 170.634 2186.69 169.8 Q2187.66 168.967 2188.84 165.865 L2189.61 163.921 L2179.12 138.412 L2183.63 138.412 L2191.74 158.689 L2199.84 138.412 L2204.35 138.412 L2192.96 166.745 Z" fill="#000000" fill-rule="evenodd" fill-opacity="1" /><path clip-path="url(#clip970)" d="M2211.64 160.402 L2219.28 160.402 L2219.28 134.037 L2210.97 135.703 L2210.97 131.444 L2219.24 129.778 L2223.91 129.778 L2223.91 160.402 L2231.55 160.402 L2231.55 164.338 L2211.64 164.338 L2211.64 160.402 Z" fill="#000000" fill-rule="evenodd" fill-opacity="1" /></svg>
