<?xml version="1.0" encoding="utf-8"?>
<svg xmlns="http://www.w3.org/2000/svg" xmlns:xlink="http://www.w3.org/1999/xlink" width="600" height="400" viewBox="0 0 2400 1600">
<defs>
  <clipPath id="clip440">
    <rect x="0" y="0" width="2400" height="1600"/>
  </clipPath>
</defs>
<path clip-path="url(#clip440)" d="
M0 1600 L2400 1600 L2400 0 L0 0  Z
  " fill="#ffffff" fill-rule="evenodd" fill-opacity="1"/>
<defs>
  <clipPath id="clip441">
    <rect x="480" y="0" width="1681" height="1600"/>
  </clipPath>
</defs>
<path clip-path="url(#clip440)" d="
M156.598 1486.45 L2352.76 1486.45 L2352.76 47.2441 L156.598 47.2441  Z
  " fill="#ffffff" fill-rule="evenodd" fill-opacity="1"/>
<defs>
  <clipPath id="clip442">
    <rect x="156" y="47" width="2197" height="1440"/>
  </clipPath>
</defs>
<polyline clip-path="url(#clip442)" style="stroke:#000000; stroke-linecap:butt; stroke-linejoin:round; stroke-width:2; stroke-opacity:0.1; fill:none" points="
  213.967,1486.45 213.967,47.2441 
  "/>
<polyline clip-path="url(#clip442)" style="stroke:#000000; stroke-linecap:butt; stroke-linejoin:round; stroke-width:2; stroke-opacity:0.1; fill:none" points="
  644.406,1486.45 644.406,47.2441 
  "/>
<polyline clip-path="url(#clip442)" style="stroke:#000000; stroke-linecap:butt; stroke-linejoin:round; stroke-width:2; stroke-opacity:0.1; fill:none" points="
  1074.84,1486.45 1074.84,47.2441 
  "/>
<polyline clip-path="url(#clip442)" style="stroke:#000000; stroke-linecap:butt; stroke-linejoin:round; stroke-width:2; stroke-opacity:0.1; fill:none" points="
  1505.28,1486.45 1505.28,47.2441 
  "/>
<polyline clip-path="url(#clip442)" style="stroke:#000000; stroke-linecap:butt; stroke-linejoin:round; stroke-width:2; stroke-opacity:0.1; fill:none" points="
  1935.72,1486.45 1935.72,47.2441 
  "/>
<polyline clip-path="url(#clip440)" style="stroke:#000000; stroke-linecap:butt; stroke-linejoin:round; stroke-width:4; stroke-opacity:1; fill:none" points="
  156.598,1486.45 2352.76,1486.45 
  "/>
<polyline clip-path="url(#clip440)" style="stroke:#000000; stroke-linecap:butt; stroke-linejoin:round; stroke-width:4; stroke-opacity:1; fill:none" points="
  213.967,1486.45 213.967,1467.55 
  "/>
<polyline clip-path="url(#clip440)" style="stroke:#000000; stroke-linecap:butt; stroke-linejoin:round; stroke-width:4; stroke-opacity:1; fill:none" points="
  644.406,1486.45 644.406,1467.55 
  "/>
<polyline clip-path="url(#clip440)" style="stroke:#000000; stroke-linecap:butt; stroke-linejoin:round; stroke-width:4; stroke-opacity:1; fill:none" points="
  1074.84,1486.45 1074.84,1467.55 
  "/>
<polyline clip-path="url(#clip440)" style="stroke:#000000; stroke-linecap:butt; stroke-linejoin:round; stroke-width:4; stroke-opacity:1; fill:none" points="
  1505.28,1486.45 1505.28,1467.55 
  "/>
<polyline clip-path="url(#clip440)" style="stroke:#000000; stroke-linecap:butt; stroke-linejoin:round; stroke-width:4; stroke-opacity:1; fill:none" points="
  1935.72,1486.45 1935.72,1467.55 
  "/>
<path clip-path="url(#clip440)" d="M191.352 1517.37 Q187.741 1517.37 185.912 1520.93 Q184.107 1524.47 184.107 1531.6 Q184.107 1538.71 185.912 1542.27 Q187.741 1545.82 191.352 1545.82 Q194.986 1545.82 196.792 1542.27 Q198.62 1538.71 198.62 1531.6 Q198.62 1524.47 196.792 1520.93 Q194.986 1517.37 191.352 1517.37 M191.352 1513.66 Q197.162 1513.66 200.218 1518.27 Q203.296 1522.85 203.296 1531.6 Q203.296 1540.33 200.218 1544.94 Q197.162 1549.52 191.352 1549.52 Q185.542 1549.52 182.463 1544.94 Q179.407 1540.33 179.407 1531.6 Q179.407 1522.85 182.463 1518.27 Q185.542 1513.66 191.352 1513.66 Z" fill="#000000" fill-rule="evenodd" fill-opacity="1" /><path clip-path="url(#clip440)" d="M211.514 1542.97 L216.398 1542.97 L216.398 1548.85 L211.514 1548.85 L211.514 1542.97 Z" fill="#000000" fill-rule="evenodd" fill-opacity="1" /><path clip-path="url(#clip440)" d="M236.583 1517.37 Q232.972 1517.37 231.143 1520.93 Q229.338 1524.47 229.338 1531.6 Q229.338 1538.71 231.143 1542.27 Q232.972 1545.82 236.583 1545.82 Q240.217 1545.82 242.023 1542.27 Q243.852 1538.71 243.852 1531.6 Q243.852 1524.47 242.023 1520.93 Q240.217 1517.37 236.583 1517.37 M236.583 1513.66 Q242.393 1513.66 245.449 1518.27 Q248.527 1522.85 248.527 1531.6 Q248.527 1540.33 245.449 1544.94 Q242.393 1549.52 236.583 1549.52 Q230.773 1549.52 227.694 1544.94 Q224.639 1540.33 224.639 1531.6 Q224.639 1522.85 227.694 1518.27 Q230.773 1513.66 236.583 1513.66 Z" fill="#000000" fill-rule="evenodd" fill-opacity="1" /><path clip-path="url(#clip440)" d="M622.589 1517.37 Q618.978 1517.37 617.149 1520.93 Q615.343 1524.47 615.343 1531.6 Q615.343 1538.71 617.149 1542.27 Q618.978 1545.82 622.589 1545.82 Q626.223 1545.82 628.028 1542.27 Q629.857 1538.71 629.857 1531.6 Q629.857 1524.47 628.028 1520.93 Q626.223 1517.37 622.589 1517.37 M622.589 1513.66 Q628.399 1513.66 631.454 1518.27 Q634.533 1522.85 634.533 1531.6 Q634.533 1540.33 631.454 1544.94 Q628.399 1549.52 622.589 1549.52 Q616.779 1549.52 613.7 1544.94 Q610.644 1540.33 610.644 1531.6 Q610.644 1522.85 613.7 1518.27 Q616.779 1513.66 622.589 1513.66 Z" fill="#000000" fill-rule="evenodd" fill-opacity="1" /><path clip-path="url(#clip440)" d="M642.751 1542.97 L647.635 1542.97 L647.635 1548.85 L642.751 1548.85 L642.751 1542.97 Z" fill="#000000" fill-rule="evenodd" fill-opacity="1" /><path clip-path="url(#clip440)" d="M661.848 1544.91 L678.167 1544.91 L678.167 1548.85 L656.223 1548.85 L656.223 1544.91 Q658.885 1542.16 663.468 1537.53 Q668.075 1532.88 669.255 1531.53 Q671.5 1529.01 672.38 1527.27 Q673.283 1525.51 673.283 1523.82 Q673.283 1521.07 671.338 1519.33 Q669.417 1517.6 666.315 1517.6 Q664.116 1517.6 661.663 1518.36 Q659.232 1519.13 656.454 1520.68 L656.454 1515.95 Q659.278 1514.82 661.732 1514.24 Q664.186 1513.66 666.223 1513.66 Q671.593 1513.66 674.787 1516.35 Q677.982 1519.03 677.982 1523.52 Q677.982 1525.65 677.172 1527.57 Q676.385 1529.47 674.278 1532.07 Q673.699 1532.74 670.598 1535.95 Q667.496 1539.15 661.848 1544.91 Z" fill="#000000" fill-rule="evenodd" fill-opacity="1" /><path clip-path="url(#clip440)" d="M1051.99 1517.37 Q1048.37 1517.37 1046.55 1520.93 Q1044.74 1524.47 1044.74 1531.6 Q1044.74 1538.71 1046.55 1542.27 Q1048.37 1545.82 1051.99 1545.82 Q1055.62 1545.82 1057.42 1542.27 Q1059.25 1538.71 1059.25 1531.6 Q1059.25 1524.47 1057.42 1520.93 Q1055.62 1517.37 1051.99 1517.37 M1051.99 1513.66 Q1057.8 1513.66 1060.85 1518.27 Q1063.93 1522.85 1063.93 1531.6 Q1063.93 1540.33 1060.85 1544.94 Q1057.8 1549.52 1051.99 1549.52 Q1046.18 1549.52 1043.1 1544.94 Q1040.04 1540.33 1040.04 1531.6 Q1040.04 1522.85 1043.1 1518.27 Q1046.18 1513.66 1051.99 1513.66 Z" fill="#000000" fill-rule="evenodd" fill-opacity="1" /><path clip-path="url(#clip440)" d="M1072.15 1542.97 L1077.03 1542.97 L1077.03 1548.85 L1072.15 1548.85 L1072.15 1542.97 Z" fill="#000000" fill-rule="evenodd" fill-opacity="1" /><path clip-path="url(#clip440)" d="M1100.06 1518.36 L1088.26 1536.81 L1100.06 1536.81 L1100.06 1518.36 M1098.84 1514.29 L1104.72 1514.29 L1104.72 1536.81 L1109.65 1536.81 L1109.65 1540.7 L1104.72 1540.7 L1104.72 1548.85 L1100.06 1548.85 L1100.06 1540.7 L1084.46 1540.7 L1084.46 1536.19 L1098.84 1514.29 Z" fill="#000000" fill-rule="evenodd" fill-opacity="1" /><path clip-path="url(#clip440)" d="M1482.59 1517.37 Q1478.97 1517.37 1477.15 1520.93 Q1475.34 1524.47 1475.34 1531.6 Q1475.34 1538.71 1477.15 1542.27 Q1478.97 1545.82 1482.59 1545.82 Q1486.22 1545.82 1488.03 1542.27 Q1489.85 1538.71 1489.85 1531.6 Q1489.85 1524.47 1488.03 1520.93 Q1486.22 1517.37 1482.59 1517.37 M1482.59 1513.66 Q1488.4 1513.66 1491.45 1518.27 Q1494.53 1522.85 1494.53 1531.6 Q1494.53 1540.33 1491.45 1544.94 Q1488.4 1549.52 1482.59 1549.52 Q1476.78 1549.52 1473.7 1544.94 Q1470.64 1540.33 1470.64 1531.6 Q1470.64 1522.85 1473.7 1518.27 Q1476.78 1513.66 1482.59 1513.66 Z" fill="#000000" fill-rule="evenodd" fill-opacity="1" /><path clip-path="url(#clip440)" d="M1502.75 1542.97 L1507.63 1542.97 L1507.63 1548.85 L1502.75 1548.85 L1502.75 1542.97 Z" fill="#000000" fill-rule="evenodd" fill-opacity="1" /><path clip-path="url(#clip440)" d="M1528.4 1529.7 Q1525.25 1529.7 1523.4 1531.86 Q1521.57 1534.01 1521.57 1537.76 Q1521.57 1541.49 1523.4 1543.66 Q1525.25 1545.82 1528.4 1545.82 Q1531.54 1545.82 1533.37 1543.66 Q1535.22 1541.49 1535.22 1537.76 Q1535.22 1534.01 1533.37 1531.86 Q1531.54 1529.7 1528.4 1529.7 M1537.68 1515.05 L1537.68 1519.31 Q1535.92 1518.48 1534.11 1518.04 Q1532.33 1517.6 1530.57 1517.6 Q1525.94 1517.6 1523.49 1520.72 Q1521.06 1523.85 1520.71 1530.17 Q1522.08 1528.15 1524.14 1527.09 Q1526.2 1526 1528.67 1526 Q1533.88 1526 1536.89 1529.17 Q1539.92 1532.32 1539.92 1537.76 Q1539.92 1543.08 1536.77 1546.3 Q1533.63 1549.52 1528.4 1549.52 Q1522.4 1549.52 1519.23 1544.94 Q1516.06 1540.33 1516.06 1531.6 Q1516.06 1523.41 1519.95 1518.55 Q1523.84 1513.66 1530.39 1513.66 Q1532.15 1513.66 1533.93 1514.01 Q1535.73 1514.36 1537.68 1515.05 Z" fill="#000000" fill-rule="evenodd" fill-opacity="1" /><path clip-path="url(#clip440)" d="M1913.15 1517.37 Q1909.54 1517.37 1907.71 1520.93 Q1905.91 1524.47 1905.91 1531.6 Q1905.91 1538.71 1907.71 1542.27 Q1909.54 1545.82 1913.15 1545.82 Q1916.79 1545.82 1918.59 1542.27 Q1920.42 1538.71 1920.42 1531.6 Q1920.42 1524.47 1918.59 1520.93 Q1916.79 1517.37 1913.15 1517.37 M1913.15 1513.66 Q1918.96 1513.66 1922.02 1518.27 Q1925.1 1522.85 1925.1 1531.6 Q1925.1 1540.33 1922.02 1544.94 Q1918.96 1549.52 1913.15 1549.52 Q1907.34 1549.52 1904.26 1544.94 Q1901.21 1540.33 1901.21 1531.6 Q1901.21 1522.85 1904.26 1518.27 Q1907.34 1513.66 1913.15 1513.66 Z" fill="#000000" fill-rule="evenodd" fill-opacity="1" /><path clip-path="url(#clip440)" d="M1933.31 1542.97 L1938.2 1542.97 L1938.2 1548.85 L1933.31 1548.85 L1933.31 1542.97 Z" fill="#000000" fill-rule="evenodd" fill-opacity="1" /><path clip-path="url(#clip440)" d="M1958.38 1532.44 Q1955.05 1532.44 1953.13 1534.22 Q1951.23 1536 1951.23 1539.13 Q1951.23 1542.25 1953.13 1544.03 Q1955.05 1545.82 1958.38 1545.82 Q1961.72 1545.82 1963.64 1544.03 Q1965.56 1542.23 1965.56 1539.13 Q1965.56 1536 1963.64 1534.22 Q1961.74 1532.44 1958.38 1532.44 M1953.71 1530.45 Q1950.7 1529.7 1949.01 1527.64 Q1947.34 1525.58 1947.34 1522.62 Q1947.34 1518.48 1950.28 1516.07 Q1953.24 1513.66 1958.38 1513.66 Q1963.54 1513.66 1966.48 1516.07 Q1969.42 1518.48 1969.42 1522.62 Q1969.42 1525.58 1967.73 1527.64 Q1966.07 1529.7 1963.08 1530.45 Q1966.46 1531.23 1968.34 1533.52 Q1970.23 1535.82 1970.23 1539.13 Q1970.23 1544.15 1967.16 1546.83 Q1964.1 1549.52 1958.38 1549.52 Q1952.66 1549.52 1949.59 1546.83 Q1946.53 1544.15 1946.53 1539.13 Q1946.53 1535.82 1948.43 1533.52 Q1950.33 1531.23 1953.71 1530.45 M1951.99 1523.06 Q1951.99 1525.75 1953.66 1527.25 Q1955.35 1528.76 1958.38 1528.76 Q1961.39 1528.76 1963.08 1527.25 Q1964.79 1525.75 1964.79 1523.06 Q1964.79 1520.38 1963.08 1518.87 Q1961.39 1517.37 1958.38 1517.37 Q1955.35 1517.37 1953.66 1518.87 Q1951.99 1520.38 1951.99 1523.06 Z" fill="#000000" fill-rule="evenodd" fill-opacity="1" /><polyline clip-path="url(#clip442)" style="stroke:#000000; stroke-linecap:butt; stroke-linejoin:round; stroke-width:2; stroke-opacity:0.1; fill:none" points="
  156.598,1134.88 2352.76,1134.88 
  "/>
<polyline clip-path="url(#clip442)" style="stroke:#000000; stroke-linecap:butt; stroke-linejoin:round; stroke-width:2; stroke-opacity:0.1; fill:none" points="
  156.598,778.652 2352.76,778.652 
  "/>
<polyline clip-path="url(#clip442)" style="stroke:#000000; stroke-linecap:butt; stroke-linejoin:round; stroke-width:2; stroke-opacity:0.1; fill:none" points="
  156.598,422.426 2352.76,422.426 
  "/>
<polyline clip-path="url(#clip442)" style="stroke:#000000; stroke-linecap:butt; stroke-linejoin:round; stroke-width:2; stroke-opacity:0.1; fill:none" points="
  156.598,66.2012 2352.76,66.2012 
  "/>
<polyline clip-path="url(#clip440)" style="stroke:#000000; stroke-linecap:butt; stroke-linejoin:round; stroke-width:4; stroke-opacity:1; fill:none" points="
  156.598,1486.45 156.598,47.2441 
  "/>
<polyline clip-path="url(#clip440)" style="stroke:#000000; stroke-linecap:butt; stroke-linejoin:round; stroke-width:4; stroke-opacity:1; fill:none" points="
  156.598,1134.88 175.496,1134.88 
  "/>
<polyline clip-path="url(#clip440)" style="stroke:#000000; stroke-linecap:butt; stroke-linejoin:round; stroke-width:4; stroke-opacity:1; fill:none" points="
  156.598,778.652 175.496,778.652 
  "/>
<polyline clip-path="url(#clip440)" style="stroke:#000000; stroke-linecap:butt; stroke-linejoin:round; stroke-width:4; stroke-opacity:1; fill:none" points="
  156.598,422.426 175.496,422.426 
  "/>
<polyline clip-path="url(#clip440)" style="stroke:#000000; stroke-linecap:butt; stroke-linejoin:round; stroke-width:4; stroke-opacity:1; fill:none" points="
  156.598,66.2012 175.496,66.2012 
  "/>
<path clip-path="url(#clip440)" d="M65.0198 1120.68 Q61.4087 1120.68 59.58 1124.24 Q57.7745 1127.78 57.7745 1134.91 Q57.7745 1142.02 59.58 1145.58 Q61.4087 1149.12 65.0198 1149.12 Q68.6541 1149.12 70.4596 1145.58 Q72.2883 1142.02 72.2883 1134.91 Q72.2883 1127.78 70.4596 1124.24 Q68.6541 1120.68 65.0198 1120.68 M65.0198 1116.97 Q70.83 1116.97 73.8855 1121.58 Q76.9642 1126.16 76.9642 1134.91 Q76.9642 1143.64 73.8855 1148.24 Q70.83 1152.83 65.0198 1152.83 Q59.2097 1152.83 56.131 1148.24 Q53.0754 1143.64 53.0754 1134.91 Q53.0754 1126.16 56.131 1121.58 Q59.2097 1116.97 65.0198 1116.97 Z" fill="#000000" fill-rule="evenodd" fill-opacity="1" /><path clip-path="url(#clip440)" d="M85.1818 1146.28 L90.066 1146.28 L90.066 1152.16 L85.1818 1152.16 L85.1818 1146.28 Z" fill="#000000" fill-rule="evenodd" fill-opacity="1" /><path clip-path="url(#clip440)" d="M104.279 1148.22 L120.598 1148.22 L120.598 1152.16 L98.6539 1152.16 L98.6539 1148.22 Q101.316 1145.47 105.899 1140.84 Q110.506 1136.18 111.686 1134.84 Q113.932 1132.32 114.811 1130.58 Q115.714 1128.82 115.714 1127.13 Q115.714 1124.38 113.77 1122.64 Q111.848 1120.91 108.746 1120.91 Q106.547 1120.91 104.094 1121.67 Q101.663 1122.43 98.8854 1123.99 L98.8854 1119.26 Q101.709 1118.13 104.163 1117.55 Q106.617 1116.97 108.654 1116.97 Q114.024 1116.97 117.219 1119.66 Q120.413 1122.34 120.413 1126.83 Q120.413 1128.96 119.603 1130.88 Q118.816 1132.78 116.709 1135.37 Q116.131 1136.05 113.029 1139.26 Q109.927 1142.46 104.279 1148.22 Z" fill="#000000" fill-rule="evenodd" fill-opacity="1" /><path clip-path="url(#clip440)" d="M62.9365 764.45 Q59.3254 764.45 57.4967 768.015 Q55.6912 771.557 55.6912 778.686 Q55.6912 785.793 57.4967 789.358 Q59.3254 792.899 62.9365 792.899 Q66.5707 792.899 68.3763 789.358 Q70.205 785.793 70.205 778.686 Q70.205 771.557 68.3763 768.015 Q66.5707 764.45 62.9365 764.45 M62.9365 760.747 Q68.7467 760.747 71.8022 765.353 Q74.8809 769.936 74.8809 778.686 Q74.8809 787.413 71.8022 792.02 Q68.7467 796.603 62.9365 796.603 Q57.1264 796.603 54.0477 792.02 Q50.9921 787.413 50.9921 778.686 Q50.9921 769.936 54.0477 765.353 Q57.1264 760.747 62.9365 760.747 Z" fill="#000000" fill-rule="evenodd" fill-opacity="1" /><path clip-path="url(#clip440)" d="M83.0984 790.052 L87.9827 790.052 L87.9827 795.932 L83.0984 795.932 L83.0984 790.052 Z" fill="#000000" fill-rule="evenodd" fill-opacity="1" /><path clip-path="url(#clip440)" d="M111.015 765.446 L99.2095 783.895 L111.015 783.895 L111.015 765.446 M109.788 761.372 L115.668 761.372 L115.668 783.895 L120.598 783.895 L120.598 787.784 L115.668 787.784 L115.668 795.932 L111.015 795.932 L111.015 787.784 L95.4132 787.784 L95.4132 783.27 L109.788 761.372 Z" fill="#000000" fill-rule="evenodd" fill-opacity="1" /><path clip-path="url(#clip440)" d="M63.2606 408.225 Q59.6495 408.225 57.8208 411.79 Q56.0152 415.332 56.0152 422.461 Q56.0152 429.568 57.8208 433.132 Q59.6495 436.674 63.2606 436.674 Q66.8948 436.674 68.7004 433.132 Q70.5291 429.568 70.5291 422.461 Q70.5291 415.332 68.7004 411.79 Q66.8948 408.225 63.2606 408.225 M63.2606 404.521 Q69.0707 404.521 72.1263 409.128 Q75.205 413.711 75.205 422.461 Q75.205 431.188 72.1263 435.794 Q69.0707 440.378 63.2606 440.378 Q57.4504 440.378 54.3717 435.794 Q51.3162 431.188 51.3162 422.461 Q51.3162 413.711 54.3717 409.128 Q57.4504 404.521 63.2606 404.521 Z" fill="#000000" fill-rule="evenodd" fill-opacity="1" /><path clip-path="url(#clip440)" d="M83.4225 433.827 L88.3067 433.827 L88.3067 439.706 L83.4225 439.706 L83.4225 433.827 Z" fill="#000000" fill-rule="evenodd" fill-opacity="1" /><path clip-path="url(#clip440)" d="M109.071 420.563 Q105.922 420.563 104.071 422.716 Q102.242 424.869 102.242 428.618 Q102.242 432.345 104.071 434.521 Q105.922 436.674 109.071 436.674 Q112.219 436.674 114.047 434.521 Q115.899 432.345 115.899 428.618 Q115.899 424.869 114.047 422.716 Q112.219 420.563 109.071 420.563 M118.353 405.91 L118.353 410.17 Q116.594 409.336 114.788 408.896 Q113.006 408.457 111.246 408.457 Q106.617 408.457 104.163 411.582 Q101.733 414.707 101.385 421.026 Q102.751 419.012 104.811 417.947 Q106.871 416.859 109.348 416.859 Q114.557 416.859 117.566 420.031 Q120.598 423.179 120.598 428.618 Q120.598 433.943 117.45 437.16 Q114.302 440.378 109.071 440.378 Q103.075 440.378 99.9039 435.794 Q96.7326 431.188 96.7326 422.461 Q96.7326 414.267 100.621 409.406 Q104.51 404.521 111.061 404.521 Q112.82 404.521 114.603 404.869 Q116.408 405.216 118.353 405.91 Z" fill="#000000" fill-rule="evenodd" fill-opacity="1" /><path clip-path="url(#clip440)" d="M63.5152 51.9999 Q59.9041 51.9999 58.0754 55.5647 Q56.2699 59.1063 56.2699 66.2359 Q56.2699 73.3423 58.0754 76.9071 Q59.9041 80.4488 63.5152 80.4488 Q67.1494 80.4488 68.955 76.9071 Q70.7837 73.3423 70.7837 66.2359 Q70.7837 59.1063 68.955 55.5647 Q67.1494 51.9999 63.5152 51.9999 M63.5152 48.2962 Q69.3254 48.2962 72.3809 52.9026 Q75.4596 57.4859 75.4596 66.2359 Q75.4596 74.9627 72.3809 79.5692 Q69.3254 84.1525 63.5152 84.1525 Q57.7051 84.1525 54.6264 79.5692 Q51.5708 74.9627 51.5708 66.2359 Q51.5708 57.4859 54.6264 52.9026 Q57.7051 48.2962 63.5152 48.2962 Z" fill="#000000" fill-rule="evenodd" fill-opacity="1" /><path clip-path="url(#clip440)" d="M83.6771 77.6016 L88.5614 77.6016 L88.5614 83.4812 L83.6771 83.4812 L83.6771 77.6016 Z" fill="#000000" fill-rule="evenodd" fill-opacity="1" /><path clip-path="url(#clip440)" d="M108.746 67.0692 Q105.413 67.0692 103.492 68.8516 Q101.594 70.634 101.594 73.759 Q101.594 76.884 103.492 78.6664 Q105.413 80.4488 108.746 80.4488 Q112.08 80.4488 114.001 78.6664 Q115.922 76.8608 115.922 73.759 Q115.922 70.634 114.001 68.8516 Q112.103 67.0692 108.746 67.0692 M104.071 65.0785 Q101.061 64.3378 99.3715 62.2776 Q97.7048 60.2174 97.7048 57.2545 Q97.7048 53.111 100.645 50.7036 Q103.608 48.2962 108.746 48.2962 Q113.908 48.2962 116.848 50.7036 Q119.788 53.111 119.788 57.2545 Q119.788 60.2174 118.098 62.2776 Q116.432 64.3378 113.445 65.0785 Q116.825 65.8655 118.7 68.1572 Q120.598 70.4488 120.598 73.759 Q120.598 78.7821 117.52 81.4673 Q114.464 84.1525 108.746 84.1525 Q103.029 84.1525 99.9502 81.4673 Q96.8947 78.7821 96.8947 73.759 Q96.8947 70.4488 98.7928 68.1572 Q100.691 65.8655 104.071 65.0785 M102.358 57.6943 Q102.358 60.3794 104.024 61.8841 Q105.714 63.3887 108.746 63.3887 Q111.756 63.3887 113.445 61.8841 Q115.158 60.3794 115.158 57.6943 Q115.158 55.0091 113.445 53.5045 Q111.756 51.9999 108.746 51.9999 Q105.714 51.9999 104.024 53.5045 Q102.358 55.0091 102.358 57.6943 Z" fill="#000000" fill-rule="evenodd" fill-opacity="1" /><polyline clip-path="url(#clip442)" style="stroke:#009af9; stroke-linecap:butt; stroke-linejoin:round; stroke-width:4; stroke-opacity:1; fill:none" points="
  1419.07,1298.44 1240.93,183.85 2290.6,87.9763 427.18,491.507 1861.96,144.889 218.754,1298.86 1779.79,413.68 1324.51,747.102 1397.83,1445.72 1365.59,386.634 
  
  "/>
<path clip-path="url(#clip440)" d="
M1987.12 198.898 L2279.55 198.898 L2279.55 95.2176 L1987.12 95.2176  Z
  " fill="#ffffff" fill-rule="evenodd" fill-opacity="1"/>
<polyline clip-path="url(#clip440)" style="stroke:#000000; stroke-linecap:butt; stroke-linejoin:round; stroke-width:4; stroke-opacity:1; fill:none" points="
  1987.12,198.898 2279.55,198.898 2279.55,95.2176 1987.12,95.2176 1987.12,198.898 
  "/>
<polyline clip-path="url(#clip440)" style="stroke:#009af9; stroke-linecap:butt; stroke-linejoin:round; stroke-width:4; stroke-opacity:1; fill:none" points="
  2011.12,147.058 2155.12,147.058 
  "/>
<path clip-path="url(#clip440)" d="M2192.96 166.745 Q2191.16 171.375 2189.44 172.787 Q2187.73 174.199 2184.86 174.199 L2181.46 174.199 L2181.46 170.634 L2183.96 170.634 Q2185.72 170.634 2186.69 169.8 Q2187.66 168.967 2188.84 165.865 L2189.61 163.921 L2179.12 138.412 L2183.63 138.412 L2191.74 158.689 L2199.84 138.412 L2204.35 138.412 L2192.96 166.745 Z" fill="#000000" fill-rule="evenodd" fill-opacity="1" /><path clip-path="url(#clip440)" d="M2211.64 160.402 L2219.28 160.402 L2219.28 134.037 L2210.97 135.703 L2210.97 131.444 L2219.24 129.778 L2223.91 129.778 L2223.91 160.402 L2231.55 160.402 L2231.55 164.338 L2211.64 164.338 L2211.64 160.402 Z" fill="#000000" fill-rule="evenodd" fill-opacity="1" /></svg>
