<?xml version="1.0" encoding="utf-8"?>
<svg xmlns="http://www.w3.org/2000/svg" xmlns:xlink="http://www.w3.org/1999/xlink" width="600" height="400" viewBox="0 0 2400 1600">
<defs>
  <clipPath id="clip890">
    <rect x="0" y="0" width="2400" height="1600"/>
  </clipPath>
</defs>
<path clip-path="url(#clip890)" d="
M0 1600 L2400 1600 L2400 0 L0 0  Z
  " fill="#ffffff" fill-rule="evenodd" fill-opacity="1"/>
<defs>
  <clipPath id="clip891">
    <rect x="480" y="0" width="1681" height="1600"/>
  </clipPath>
</defs>
<path clip-path="url(#clip890)" d="
M156.598 1486.45 L2352.76 1486.45 L2352.76 47.2441 L156.598 47.2441  Z
  " fill="#ffffff" fill-rule="evenodd" fill-opacity="1"/>
<defs>
  <clipPath id="clip892">
    <rect x="156" y="47" width="2197" height="1440"/>
  </clipPath>
</defs>
<polyline clip-path="url(#clip892)" style="stroke:#000000; stroke-linecap:butt; stroke-linejoin:round; stroke-width:2; stroke-opacity:0.1; fill:none" points="
  169.635,1486.45 169.635,47.2441 
  "/>
<polyline clip-path="url(#clip892)" style="stroke:#000000; stroke-linecap:butt; stroke-linejoin:round; stroke-width:2; stroke-opacity:0.1; fill:none" points="
  644.604,1486.45 644.604,47.2441 
  "/>
<polyline clip-path="url(#clip892)" style="stroke:#000000; stroke-linecap:butt; stroke-linejoin:round; stroke-width:2; stroke-opacity:0.1; fill:none" points="
  1119.57,1486.45 1119.57,47.2441 
  "/>
<polyline clip-path="url(#clip892)" style="stroke:#000000; stroke-linecap:butt; stroke-linejoin:round; stroke-width:2; stroke-opacity:0.1; fill:none" points="
  1594.54,1486.45 1594.54,47.2441 
  "/>
<polyline clip-path="url(#clip892)" style="stroke:#000000; stroke-linecap:butt; stroke-linejoin:round; stroke-width:2; stroke-opacity:0.1; fill:none" points="
  2069.51,1486.45 2069.51,47.2441 
  "/>
<polyline clip-path="url(#clip890)" style="stroke:#000000; stroke-linecap:butt; stroke-linejoin:round; stroke-width:4; stroke-opacity:1; fill:none" points="
  156.598,1486.45 2352.76,1486.45 
  "/>
<polyline clip-path="url(#clip890)" style="stroke:#000000; stroke-linecap:butt; stroke-linejoin:round; stroke-width:4; stroke-opacity:1; fill:none" points="
  169.635,1486.45 169.635,1467.55 
  "/>
<polyline clip-path="url(#clip890)" style="stroke:#000000; stroke-linecap:butt; stroke-linejoin:round; stroke-width:4; stroke-opacity:1; fill:none" points="
  644.604,1486.45 644.604,1467.55 
  "/>
<polyline clip-path="url(#clip890)" style="stroke:#000000; stroke-linecap:butt; stroke-linejoin:round; stroke-width:4; stroke-opacity:1; fill:none" points="
  1119.57,1486.45 1119.57,1467.55 
  "/>
<polyline clip-path="url(#clip890)" style="stroke:#000000; stroke-linecap:butt; stroke-linejoin:round; stroke-width:4; stroke-opacity:1; fill:none" points="
  1594.54,1486.45 1594.54,1467.55 
  "/>
<polyline clip-path="url(#clip890)" style="stroke:#000000; stroke-linecap:butt; stroke-linejoin:round; stroke-width:4; stroke-opacity:1; fill:none" points="
  2069.51,1486.45 2069.51,1467.55 
  "/>
<path clip-path="url(#clip890)" d="M147.019 1517.37 Q143.408 1517.37 141.579 1520.93 Q139.774 1524.47 139.774 1531.6 Q139.774 1538.71 141.579 1542.27 Q143.408 1545.82 147.019 1545.82 Q150.653 1545.82 152.459 1542.27 Q154.288 1538.71 154.288 1531.6 Q154.288 1524.47 152.459 1520.93 Q150.653 1517.37 147.019 1517.37 M147.019 1513.66 Q152.829 1513.66 155.885 1518.27 Q158.963 1522.85 158.963 1531.6 Q158.963 1540.33 155.885 1544.94 Q152.829 1549.52 147.019 1549.52 Q141.209 1549.52 138.13 1544.94 Q135.075 1540.33 135.075 1531.6 Q135.075 1522.85 138.13 1518.27 Q141.209 1513.66 147.019 1513.66 Z" fill="#000000" fill-rule="evenodd" fill-opacity="1" /><path clip-path="url(#clip890)" d="M167.181 1542.97 L172.065 1542.97 L172.065 1548.85 L167.181 1548.85 L167.181 1542.97 Z" fill="#000000" fill-rule="evenodd" fill-opacity="1" /><path clip-path="url(#clip890)" d="M192.25 1517.37 Q188.639 1517.37 186.81 1520.93 Q185.005 1524.47 185.005 1531.6 Q185.005 1538.71 186.81 1542.27 Q188.639 1545.82 192.25 1545.82 Q195.885 1545.82 197.69 1542.27 Q199.519 1538.71 199.519 1531.6 Q199.519 1524.47 197.69 1520.93 Q195.885 1517.37 192.25 1517.37 M192.25 1513.66 Q198.06 1513.66 201.116 1518.27 Q204.195 1522.85 204.195 1531.6 Q204.195 1540.33 201.116 1544.94 Q198.06 1549.52 192.25 1549.52 Q186.44 1549.52 183.361 1544.94 Q180.306 1540.33 180.306 1531.6 Q180.306 1522.85 183.361 1518.27 Q186.44 1513.66 192.25 1513.66 Z" fill="#000000" fill-rule="evenodd" fill-opacity="1" /><path clip-path="url(#clip890)" d="M622.787 1517.37 Q619.176 1517.37 617.347 1520.93 Q615.542 1524.47 615.542 1531.6 Q615.542 1538.71 617.347 1542.27 Q619.176 1545.82 622.787 1545.82 Q626.421 1545.82 628.227 1542.27 Q630.056 1538.71 630.056 1531.6 Q630.056 1524.47 628.227 1520.93 Q626.421 1517.37 622.787 1517.37 M622.787 1513.66 Q628.597 1513.66 631.653 1518.27 Q634.732 1522.85 634.732 1531.6 Q634.732 1540.33 631.653 1544.94 Q628.597 1549.52 622.787 1549.52 Q616.977 1549.52 613.898 1544.94 Q610.843 1540.33 610.843 1531.6 Q610.843 1522.85 613.898 1518.27 Q616.977 1513.66 622.787 1513.66 Z" fill="#000000" fill-rule="evenodd" fill-opacity="1" /><path clip-path="url(#clip890)" d="M642.949 1542.97 L647.833 1542.97 L647.833 1548.85 L642.949 1548.85 L642.949 1542.97 Z" fill="#000000" fill-rule="evenodd" fill-opacity="1" /><path clip-path="url(#clip890)" d="M662.046 1544.91 L678.366 1544.91 L678.366 1548.85 L656.421 1548.85 L656.421 1544.91 Q659.083 1542.16 663.667 1537.53 Q668.273 1532.88 669.454 1531.53 Q671.699 1529.01 672.579 1527.27 Q673.481 1525.51 673.481 1523.82 Q673.481 1521.07 671.537 1519.33 Q669.616 1517.6 666.514 1517.6 Q664.315 1517.6 661.861 1518.36 Q659.431 1519.13 656.653 1520.68 L656.653 1515.95 Q659.477 1514.82 661.931 1514.24 Q664.384 1513.66 666.421 1513.66 Q671.792 1513.66 674.986 1516.35 Q678.18 1519.03 678.18 1523.52 Q678.18 1525.65 677.37 1527.57 Q676.583 1529.47 674.477 1532.07 Q673.898 1532.74 670.796 1535.95 Q667.694 1539.15 662.046 1544.91 Z" fill="#000000" fill-rule="evenodd" fill-opacity="1" /><path clip-path="url(#clip890)" d="M1096.72 1517.37 Q1093.1 1517.37 1091.28 1520.93 Q1089.47 1524.47 1089.47 1531.6 Q1089.47 1538.71 1091.28 1542.27 Q1093.1 1545.82 1096.72 1545.82 Q1100.35 1545.82 1102.15 1542.27 Q1103.98 1538.71 1103.98 1531.6 Q1103.98 1524.47 1102.15 1520.93 Q1100.35 1517.37 1096.72 1517.37 M1096.72 1513.66 Q1102.53 1513.66 1105.58 1518.27 Q1108.66 1522.85 1108.66 1531.6 Q1108.66 1540.33 1105.58 1544.94 Q1102.53 1549.52 1096.72 1549.52 Q1090.91 1549.52 1087.83 1544.94 Q1084.77 1540.33 1084.77 1531.6 Q1084.77 1522.85 1087.83 1518.27 Q1090.91 1513.66 1096.72 1513.66 Z" fill="#000000" fill-rule="evenodd" fill-opacity="1" /><path clip-path="url(#clip890)" d="M1116.88 1542.97 L1121.76 1542.97 L1121.76 1548.85 L1116.88 1548.85 L1116.88 1542.97 Z" fill="#000000" fill-rule="evenodd" fill-opacity="1" /><path clip-path="url(#clip890)" d="M1144.79 1518.36 L1132.99 1536.81 L1144.79 1536.81 L1144.79 1518.36 M1143.57 1514.29 L1149.45 1514.29 L1149.45 1536.81 L1154.38 1536.81 L1154.38 1540.7 L1149.45 1540.7 L1149.45 1548.85 L1144.79 1548.85 L1144.79 1540.7 L1129.19 1540.7 L1129.19 1536.19 L1143.57 1514.29 Z" fill="#000000" fill-rule="evenodd" fill-opacity="1" /><path clip-path="url(#clip890)" d="M1571.85 1517.37 Q1568.24 1517.37 1566.41 1520.93 Q1564.6 1524.47 1564.6 1531.6 Q1564.6 1538.71 1566.41 1542.27 Q1568.24 1545.82 1571.85 1545.82 Q1575.48 1545.82 1577.29 1542.27 Q1579.12 1538.71 1579.12 1531.6 Q1579.12 1524.47 1577.29 1520.93 Q1575.48 1517.37 1571.85 1517.37 M1571.85 1513.66 Q1577.66 1513.66 1580.71 1518.27 Q1583.79 1522.85 1583.79 1531.6 Q1583.79 1540.33 1580.71 1544.94 Q1577.66 1549.52 1571.85 1549.52 Q1566.04 1549.52 1562.96 1544.94 Q1559.9 1540.33 1559.9 1531.6 Q1559.9 1522.85 1562.96 1518.27 Q1566.04 1513.66 1571.85 1513.66 Z" fill="#000000" fill-rule="evenodd" fill-opacity="1" /><path clip-path="url(#clip890)" d="M1592.01 1542.97 L1596.89 1542.97 L1596.89 1548.85 L1592.01 1548.85 L1592.01 1542.97 Z" fill="#000000" fill-rule="evenodd" fill-opacity="1" /><path clip-path="url(#clip890)" d="M1617.66 1529.7 Q1614.51 1529.7 1612.66 1531.86 Q1610.83 1534.01 1610.83 1537.76 Q1610.83 1541.49 1612.66 1543.66 Q1614.51 1545.82 1617.66 1545.82 Q1620.8 1545.82 1622.63 1543.66 Q1624.49 1541.49 1624.49 1537.76 Q1624.49 1534.01 1622.63 1531.86 Q1620.8 1529.7 1617.66 1529.7 M1626.94 1515.05 L1626.94 1519.31 Q1625.18 1518.48 1623.37 1518.04 Q1621.59 1517.6 1619.83 1517.6 Q1615.2 1517.6 1612.75 1520.72 Q1610.32 1523.85 1609.97 1530.17 Q1611.34 1528.15 1613.4 1527.09 Q1615.46 1526 1617.93 1526 Q1623.14 1526 1626.15 1529.17 Q1629.18 1532.32 1629.18 1537.76 Q1629.18 1543.08 1626.04 1546.3 Q1622.89 1549.52 1617.66 1549.52 Q1611.66 1549.52 1608.49 1544.94 Q1605.32 1540.33 1605.32 1531.6 Q1605.32 1523.41 1609.21 1518.55 Q1613.1 1513.66 1619.65 1513.66 Q1621.41 1513.66 1623.19 1514.01 Q1624.99 1514.36 1626.94 1515.05 Z" fill="#000000" fill-rule="evenodd" fill-opacity="1" /><path clip-path="url(#clip890)" d="M2046.94 1517.37 Q2043.33 1517.37 2041.5 1520.93 Q2039.7 1524.47 2039.7 1531.6 Q2039.7 1538.71 2041.5 1542.27 Q2043.33 1545.82 2046.94 1545.82 Q2050.58 1545.82 2052.38 1542.27 Q2054.21 1538.71 2054.21 1531.6 Q2054.21 1524.47 2052.38 1520.93 Q2050.58 1517.37 2046.94 1517.37 M2046.94 1513.66 Q2052.75 1513.66 2055.81 1518.27 Q2058.89 1522.85 2058.89 1531.6 Q2058.89 1540.33 2055.81 1544.94 Q2052.75 1549.52 2046.94 1549.52 Q2041.13 1549.52 2038.05 1544.94 Q2035 1540.33 2035 1531.6 Q2035 1522.85 2038.05 1518.27 Q2041.13 1513.66 2046.94 1513.66 Z" fill="#000000" fill-rule="evenodd" fill-opacity="1" /><path clip-path="url(#clip890)" d="M2067.11 1542.97 L2071.99 1542.97 L2071.99 1548.85 L2067.11 1548.85 L2067.11 1542.97 Z" fill="#000000" fill-rule="evenodd" fill-opacity="1" /><path clip-path="url(#clip890)" d="M2092.17 1532.44 Q2088.84 1532.44 2086.92 1534.22 Q2085.02 1536 2085.02 1539.13 Q2085.02 1542.25 2086.92 1544.03 Q2088.84 1545.82 2092.17 1545.82 Q2095.51 1545.82 2097.43 1544.03 Q2099.35 1542.23 2099.35 1539.13 Q2099.35 1536 2097.43 1534.22 Q2095.53 1532.44 2092.17 1532.44 M2087.5 1530.45 Q2084.49 1529.7 2082.8 1527.64 Q2081.13 1525.58 2081.13 1522.62 Q2081.13 1518.48 2084.07 1516.07 Q2087.04 1513.66 2092.17 1513.66 Q2097.34 1513.66 2100.28 1516.07 Q2103.22 1518.48 2103.22 1522.62 Q2103.22 1525.58 2101.53 1527.64 Q2099.86 1529.7 2096.87 1530.45 Q2100.25 1531.23 2102.13 1533.52 Q2104.03 1535.82 2104.03 1539.13 Q2104.03 1544.15 2100.95 1546.83 Q2097.89 1549.52 2092.17 1549.52 Q2086.46 1549.52 2083.38 1546.83 Q2080.32 1544.15 2080.32 1539.13 Q2080.32 1535.82 2082.22 1533.52 Q2084.12 1531.23 2087.5 1530.45 M2085.79 1523.06 Q2085.79 1525.75 2087.45 1527.25 Q2089.14 1528.76 2092.17 1528.76 Q2095.18 1528.76 2096.87 1527.25 Q2098.59 1525.75 2098.59 1523.06 Q2098.59 1520.38 2096.87 1518.87 Q2095.18 1517.37 2092.17 1517.37 Q2089.14 1517.37 2087.45 1518.87 Q2085.79 1520.38 2085.79 1523.06 Z" fill="#000000" fill-rule="evenodd" fill-opacity="1" /><polyline clip-path="url(#clip892)" style="stroke:#000000; stroke-linecap:butt; stroke-linejoin:round; stroke-width:2; stroke-opacity:0.1; fill:none" points="
  156.598,1473.09 2352.76,1473.09 
  "/>
<polyline clip-path="url(#clip892)" style="stroke:#000000; stroke-linecap:butt; stroke-linejoin:round; stroke-width:2; stroke-opacity:0.1; fill:none" points="
  156.598,1143.8 2352.76,1143.8 
  "/>
<polyline clip-path="url(#clip892)" style="stroke:#000000; stroke-linecap:butt; stroke-linejoin:round; stroke-width:2; stroke-opacity:0.1; fill:none" points="
  156.598,814.502 2352.76,814.502 
  "/>
<polyline clip-path="url(#clip892)" style="stroke:#000000; stroke-linecap:butt; stroke-linejoin:round; stroke-width:2; stroke-opacity:0.1; fill:none" points="
  156.598,485.206 2352.76,485.206 
  "/>
<polyline clip-path="url(#clip892)" style="stroke:#000000; stroke-linecap:butt; stroke-linejoin:round; stroke-width:2; stroke-opacity:0.1; fill:none" points="
  156.598,155.911 2352.76,155.911 
  "/>
<polyline clip-path="url(#clip890)" style="stroke:#000000; stroke-linecap:butt; stroke-linejoin:round; stroke-width:4; stroke-opacity:1; fill:none" points="
  156.598,1486.45 156.598,47.2441 
  "/>
<polyline clip-path="url(#clip890)" style="stroke:#000000; stroke-linecap:butt; stroke-linejoin:round; stroke-width:4; stroke-opacity:1; fill:none" points="
  156.598,1473.09 175.496,1473.09 
  "/>
<polyline clip-path="url(#clip890)" style="stroke:#000000; stroke-linecap:butt; stroke-linejoin:round; stroke-width:4; stroke-opacity:1; fill:none" points="
  156.598,1143.8 175.496,1143.8 
  "/>
<polyline clip-path="url(#clip890)" style="stroke:#000000; stroke-linecap:butt; stroke-linejoin:round; stroke-width:4; stroke-opacity:1; fill:none" points="
  156.598,814.502 175.496,814.502 
  "/>
<polyline clip-path="url(#clip890)" style="stroke:#000000; stroke-linecap:butt; stroke-linejoin:round; stroke-width:4; stroke-opacity:1; fill:none" points="
  156.598,485.206 175.496,485.206 
  "/>
<polyline clip-path="url(#clip890)" style="stroke:#000000; stroke-linecap:butt; stroke-linejoin:round; stroke-width:4; stroke-opacity:1; fill:none" points="
  156.598,155.911 175.496,155.911 
  "/>
<path clip-path="url(#clip890)" d="M63.4226 1458.89 Q59.8115 1458.89 57.9828 1462.46 Q56.1773 1466 56.1773 1473.13 Q56.1773 1480.23 57.9828 1483.8 Q59.8115 1487.34 63.4226 1487.34 Q67.0569 1487.34 68.8624 1483.8 Q70.6911 1480.23 70.6911 1473.13 Q70.6911 1466 68.8624 1462.46 Q67.0569 1458.89 63.4226 1458.89 M63.4226 1455.19 Q69.2328 1455.19 72.2883 1459.79 Q75.367 1464.38 75.367 1473.13 Q75.367 1481.85 72.2883 1486.46 Q69.2328 1491.04 63.4226 1491.04 Q57.6125 1491.04 54.5338 1486.46 Q51.4782 1481.85 51.4782 1473.13 Q51.4782 1464.38 54.5338 1459.79 Q57.6125 1455.19 63.4226 1455.19 Z" fill="#000000" fill-rule="evenodd" fill-opacity="1" /><path clip-path="url(#clip890)" d="M83.5845 1484.49 L88.4688 1484.49 L88.4688 1490.37 L83.5845 1490.37 L83.5845 1484.49 Z" fill="#000000" fill-rule="evenodd" fill-opacity="1" /><path clip-path="url(#clip890)" d="M108.654 1458.89 Q105.043 1458.89 103.214 1462.46 Q101.409 1466 101.409 1473.13 Q101.409 1480.23 103.214 1483.8 Q105.043 1487.34 108.654 1487.34 Q112.288 1487.34 114.094 1483.8 Q115.922 1480.23 115.922 1473.13 Q115.922 1466 114.094 1462.46 Q112.288 1458.89 108.654 1458.89 M108.654 1455.19 Q114.464 1455.19 117.52 1459.79 Q120.598 1464.38 120.598 1473.13 Q120.598 1481.85 117.52 1486.46 Q114.464 1491.04 108.654 1491.04 Q102.844 1491.04 99.765 1486.46 Q96.7095 1481.85 96.7095 1473.13 Q96.7095 1464.38 99.765 1459.79 Q102.844 1455.19 108.654 1455.19 Z" fill="#000000" fill-rule="evenodd" fill-opacity="1" /><path clip-path="url(#clip890)" d="M65.0198 1129.6 Q61.4087 1129.6 59.58 1133.16 Q57.7745 1136.7 57.7745 1143.83 Q57.7745 1150.94 59.58 1154.5 Q61.4087 1158.04 65.0198 1158.04 Q68.6541 1158.04 70.4596 1154.5 Q72.2883 1150.94 72.2883 1143.83 Q72.2883 1136.7 70.4596 1133.16 Q68.6541 1129.6 65.0198 1129.6 M65.0198 1125.89 Q70.83 1125.89 73.8855 1130.5 Q76.9642 1135.08 76.9642 1143.83 Q76.9642 1152.56 73.8855 1157.17 Q70.83 1161.75 65.0198 1161.75 Q59.2097 1161.75 56.131 1157.17 Q53.0754 1152.56 53.0754 1143.83 Q53.0754 1135.08 56.131 1130.5 Q59.2097 1125.89 65.0198 1125.89 Z" fill="#000000" fill-rule="evenodd" fill-opacity="1" /><path clip-path="url(#clip890)" d="M85.1818 1155.2 L90.066 1155.2 L90.066 1161.08 L85.1818 1161.08 L85.1818 1155.2 Z" fill="#000000" fill-rule="evenodd" fill-opacity="1" /><path clip-path="url(#clip890)" d="M104.279 1157.14 L120.598 1157.14 L120.598 1161.08 L98.6539 1161.08 L98.6539 1157.14 Q101.316 1154.39 105.899 1149.76 Q110.506 1145.1 111.686 1143.76 Q113.932 1141.24 114.811 1139.5 Q115.714 1137.74 115.714 1136.05 Q115.714 1133.3 113.77 1131.56 Q111.848 1129.83 108.746 1129.83 Q106.547 1129.83 104.094 1130.59 Q101.663 1131.35 98.8854 1132.91 L98.8854 1128.18 Q101.709 1127.05 104.163 1126.47 Q106.617 1125.89 108.654 1125.89 Q114.024 1125.89 117.219 1128.58 Q120.413 1131.26 120.413 1135.75 Q120.413 1137.88 119.603 1139.8 Q118.816 1141.7 116.709 1144.29 Q116.131 1144.97 113.029 1148.18 Q109.927 1151.38 104.279 1157.14 Z" fill="#000000" fill-rule="evenodd" fill-opacity="1" /><path clip-path="url(#clip890)" d="M62.9365 800.3 Q59.3254 800.3 57.4967 803.865 Q55.6912 807.407 55.6912 814.536 Q55.6912 821.643 57.4967 825.208 Q59.3254 828.749 62.9365 828.749 Q66.5707 828.749 68.3763 825.208 Q70.205 821.643 70.205 814.536 Q70.205 807.407 68.3763 803.865 Q66.5707 800.3 62.9365 800.3 M62.9365 796.597 Q68.7467 796.597 71.8022 801.203 Q74.8809 805.787 74.8809 814.536 Q74.8809 823.263 71.8022 827.87 Q68.7467 832.453 62.9365 832.453 Q57.1264 832.453 54.0477 827.87 Q50.9921 823.263 50.9921 814.536 Q50.9921 805.787 54.0477 801.203 Q57.1264 796.597 62.9365 796.597 Z" fill="#000000" fill-rule="evenodd" fill-opacity="1" /><path clip-path="url(#clip890)" d="M83.0984 825.902 L87.9827 825.902 L87.9827 831.782 L83.0984 831.782 L83.0984 825.902 Z" fill="#000000" fill-rule="evenodd" fill-opacity="1" /><path clip-path="url(#clip890)" d="M111.015 801.296 L99.2095 819.745 L111.015 819.745 L111.015 801.296 M109.788 797.222 L115.668 797.222 L115.668 819.745 L120.598 819.745 L120.598 823.634 L115.668 823.634 L115.668 831.782 L111.015 831.782 L111.015 823.634 L95.4132 823.634 L95.4132 819.12 L109.788 797.222 Z" fill="#000000" fill-rule="evenodd" fill-opacity="1" /><path clip-path="url(#clip890)" d="M63.2606 471.005 Q59.6495 471.005 57.8208 474.57 Q56.0152 478.112 56.0152 485.241 Q56.0152 492.348 57.8208 495.912 Q59.6495 499.454 63.2606 499.454 Q66.8948 499.454 68.7004 495.912 Q70.5291 492.348 70.5291 485.241 Q70.5291 478.112 68.7004 474.57 Q66.8948 471.005 63.2606 471.005 M63.2606 467.301 Q69.0707 467.301 72.1263 471.908 Q75.205 476.491 75.205 485.241 Q75.205 493.968 72.1263 498.574 Q69.0707 503.158 63.2606 503.158 Q57.4504 503.158 54.3717 498.574 Q51.3162 493.968 51.3162 485.241 Q51.3162 476.491 54.3717 471.908 Q57.4504 467.301 63.2606 467.301 Z" fill="#000000" fill-rule="evenodd" fill-opacity="1" /><path clip-path="url(#clip890)" d="M83.4225 496.607 L88.3067 496.607 L88.3067 502.486 L83.4225 502.486 L83.4225 496.607 Z" fill="#000000" fill-rule="evenodd" fill-opacity="1" /><path clip-path="url(#clip890)" d="M109.071 483.343 Q105.922 483.343 104.071 485.496 Q102.242 487.649 102.242 491.399 Q102.242 495.125 104.071 497.301 Q105.922 499.454 109.071 499.454 Q112.219 499.454 114.047 497.301 Q115.899 495.125 115.899 491.399 Q115.899 487.649 114.047 485.496 Q112.219 483.343 109.071 483.343 M118.353 468.69 L118.353 472.95 Q116.594 472.116 114.788 471.676 Q113.006 471.237 111.246 471.237 Q106.617 471.237 104.163 474.362 Q101.733 477.487 101.385 483.806 Q102.751 481.792 104.811 480.727 Q106.871 479.639 109.348 479.639 Q114.557 479.639 117.566 482.811 Q120.598 485.959 120.598 491.399 Q120.598 496.723 117.45 499.94 Q114.302 503.158 109.071 503.158 Q103.075 503.158 99.9039 498.574 Q96.7326 493.968 96.7326 485.241 Q96.7326 477.047 100.621 472.186 Q104.51 467.301 111.061 467.301 Q112.82 467.301 114.603 467.649 Q116.408 467.996 118.353 468.69 Z" fill="#000000" fill-rule="evenodd" fill-opacity="1" /><path clip-path="url(#clip890)" d="M63.5152 141.71 Q59.9041 141.71 58.0754 145.275 Q56.2699 148.816 56.2699 155.946 Q56.2699 163.052 58.0754 166.617 Q59.9041 170.159 63.5152 170.159 Q67.1494 170.159 68.955 166.617 Q70.7837 163.052 70.7837 155.946 Q70.7837 148.816 68.955 145.275 Q67.1494 141.71 63.5152 141.71 M63.5152 138.006 Q69.3254 138.006 72.3809 142.613 Q75.4596 147.196 75.4596 155.946 Q75.4596 164.673 72.3809 169.279 Q69.3254 173.862 63.5152 173.862 Q57.7051 173.862 54.6264 169.279 Q51.5708 164.673 51.5708 155.946 Q51.5708 147.196 54.6264 142.613 Q57.7051 138.006 63.5152 138.006 Z" fill="#000000" fill-rule="evenodd" fill-opacity="1" /><path clip-path="url(#clip890)" d="M83.6771 167.312 L88.5614 167.312 L88.5614 173.191 L83.6771 173.191 L83.6771 167.312 Z" fill="#000000" fill-rule="evenodd" fill-opacity="1" /><path clip-path="url(#clip890)" d="M108.746 156.779 Q105.413 156.779 103.492 158.562 Q101.594 160.344 101.594 163.469 Q101.594 166.594 103.492 168.376 Q105.413 170.159 108.746 170.159 Q112.08 170.159 114.001 168.376 Q115.922 166.571 115.922 163.469 Q115.922 160.344 114.001 158.562 Q112.103 156.779 108.746 156.779 M104.071 154.788 Q101.061 154.048 99.3715 151.988 Q97.7048 149.927 97.7048 146.964 Q97.7048 142.821 100.645 140.414 Q103.608 138.006 108.746 138.006 Q113.908 138.006 116.848 140.414 Q119.788 142.821 119.788 146.964 Q119.788 149.927 118.098 151.988 Q116.432 154.048 113.445 154.788 Q116.825 155.576 118.7 157.867 Q120.598 160.159 120.598 163.469 Q120.598 168.492 117.52 171.177 Q114.464 173.862 108.746 173.862 Q103.029 173.862 99.9502 171.177 Q96.8947 168.492 96.8947 163.469 Q96.8947 160.159 98.7928 157.867 Q100.691 155.576 104.071 154.788 M102.358 147.404 Q102.358 150.089 104.024 151.594 Q105.714 153.099 108.746 153.099 Q111.756 153.099 113.445 151.594 Q115.158 150.089 115.158 147.404 Q115.158 144.719 113.445 143.214 Q111.756 141.71 108.746 141.71 Q105.714 141.71 104.024 143.214 Q102.358 144.719 102.358 147.404 Z" fill="#000000" fill-rule="evenodd" fill-opacity="1" /><polyline clip-path="url(#clip892)" style="stroke:#009af9; stroke-linecap:butt; stroke-linejoin:round; stroke-width:4; stroke-opacity:1; fill:none" points="
  833.394,87.9763 652.409,555.367 413.532,353.161 1603.62,1252.88 812.444,1133.61 2290.6,1323.07 218.754,1246.16 1979.07,473.016 1112.17,100.734 2128.15,1445.72 
  
  "/>
<path clip-path="url(#clip890)" d="
M1987.12 198.898 L2279.55 198.898 L2279.55 95.2176 L1987.12 95.2176  Z
  " fill="#ffffff" fill-rule="evenodd" fill-opacity="1"/>
<polyline clip-path="url(#clip890)" style="stroke:#000000; stroke-linecap:butt; stroke-linejoin:round; stroke-width:4; stroke-opacity:1; fill:none" points="
  1987.12,198.898 2279.55,198.898 2279.55,95.2176 1987.12,95.2176 1987.12,198.898 
  "/>
<polyline clip-path="url(#clip890)" style="stroke:#009af9; stroke-linecap:butt; stroke-linejoin:round; stroke-width:4; stroke-opacity:1; fill:none" points="
  2011.12,147.058 2155.12,147.058 
  "/>
<path clip-path="url(#clip890)" d="M2192.96 166.745 Q2191.16 171.375 2189.44 172.787 Q2187.73 174.199 2184.86 174.199 L2181.46 174.199 L2181.46 170.634 L2183.96 170.634 Q2185.72 170.634 2186.69 169.8 Q2187.66 168.967 2188.84 165.865 L2189.61 163.921 L2179.12 138.412 L2183.63 138.412 L2191.74 158.689 L2199.84 138.412 L2204.35 138.412 L2192.96 166.745 Z" fill="#000000" fill-rule="evenodd" fill-opacity="1" /><path clip-path="url(#clip890)" d="M2211.64 160.402 L2219.28 160.402 L2219.28 134.037 L2210.97 135.703 L2210.97 131.444 L2219.24 129.778 L2223.91 129.778 L2223.91 160.402 L2231.55 160.402 L2231.55 164.338 L2211.64 164.338 L2211.64 160.402 Z" fill="#000000" fill-rule="evenodd" fill-opacity="1" /></svg>
