<?xml version="1.0" encoding="utf-8"?>
<svg xmlns="http://www.w3.org/2000/svg" xmlns:xlink="http://www.w3.org/1999/xlink" width="600" height="400" viewBox="0 0 2400 1600">
<defs>
  <clipPath id="clip620">
    <rect x="0" y="0" width="2400" height="1600"/>
  </clipPath>
</defs>
<path clip-path="url(#clip620)" d="
M0 1600 L2400 1600 L2400 0 L0 0  Z
  " fill="#ffffff" fill-rule="evenodd" fill-opacity="1"/>
<defs>
  <clipPath id="clip621">
    <rect x="480" y="0" width="1681" height="1600"/>
  </clipPath>
</defs>
<path clip-path="url(#clip620)" d="
M156.598 1486.45 L2352.76 1486.45 L2352.76 47.2441 L156.598 47.2441  Z
  " fill="#ffffff" fill-rule="evenodd" fill-opacity="1"/>
<defs>
  <clipPath id="clip622">
    <rect x="156" y="47" width="2197" height="1440"/>
  </clipPath>
</defs>
<polyline clip-path="url(#clip622)" style="stroke:#000000; stroke-linecap:butt; stroke-linejoin:round; stroke-width:2; stroke-opacity:0.1; fill:none" points="
  629.141,1486.45 629.141,47.2441 
  "/>
<polyline clip-path="url(#clip622)" style="stroke:#000000; stroke-linecap:butt; stroke-linejoin:round; stroke-width:2; stroke-opacity:0.1; fill:none" points="
  1112.28,1486.45 1112.28,47.2441 
  "/>
<polyline clip-path="url(#clip622)" style="stroke:#000000; stroke-linecap:butt; stroke-linejoin:round; stroke-width:2; stroke-opacity:0.1; fill:none" points="
  1595.42,1486.45 1595.42,47.2441 
  "/>
<polyline clip-path="url(#clip622)" style="stroke:#000000; stroke-linecap:butt; stroke-linejoin:round; stroke-width:2; stroke-opacity:0.1; fill:none" points="
  2078.57,1486.45 2078.57,47.2441 
  "/>
<polyline clip-path="url(#clip620)" style="stroke:#000000; stroke-linecap:butt; stroke-linejoin:round; stroke-width:4; stroke-opacity:1; fill:none" points="
  156.598,1486.45 2352.76,1486.45 
  "/>
<polyline clip-path="url(#clip620)" style="stroke:#000000; stroke-linecap:butt; stroke-linejoin:round; stroke-width:4; stroke-opacity:1; fill:none" points="
  629.141,1486.45 629.141,1467.55 
  "/>
<polyline clip-path="url(#clip620)" style="stroke:#000000; stroke-linecap:butt; stroke-linejoin:round; stroke-width:4; stroke-opacity:1; fill:none" points="
  1112.28,1486.45 1112.28,1467.55 
  "/>
<polyline clip-path="url(#clip620)" style="stroke:#000000; stroke-linecap:butt; stroke-linejoin:round; stroke-width:4; stroke-opacity:1; fill:none" points="
  1595.42,1486.45 1595.42,1467.55 
  "/>
<polyline clip-path="url(#clip620)" style="stroke:#000000; stroke-linecap:butt; stroke-linejoin:round; stroke-width:4; stroke-opacity:1; fill:none" points="
  2078.57,1486.45 2078.57,1467.55 
  "/>
<path clip-path="url(#clip620)" d="M607.324 1517.37 Q603.712 1517.37 601.884 1520.93 Q600.078 1524.47 600.078 1531.6 Q600.078 1538.71 601.884 1542.27 Q603.712 1545.82 607.324 1545.82 Q610.958 1545.82 612.763 1542.27 Q614.592 1538.71 614.592 1531.6 Q614.592 1524.47 612.763 1520.93 Q610.958 1517.37 607.324 1517.37 M607.324 1513.66 Q613.134 1513.66 616.189 1518.27 Q619.268 1522.85 619.268 1531.6 Q619.268 1540.33 616.189 1544.94 Q613.134 1549.52 607.324 1549.52 Q601.513 1549.52 598.435 1544.94 Q595.379 1540.33 595.379 1531.6 Q595.379 1522.85 598.435 1518.27 Q601.513 1513.66 607.324 1513.66 Z" fill="#000000" fill-rule="evenodd" fill-opacity="1" /><path clip-path="url(#clip620)" d="M627.486 1542.97 L632.37 1542.97 L632.37 1548.85 L627.486 1548.85 L627.486 1542.97 Z" fill="#000000" fill-rule="evenodd" fill-opacity="1" /><path clip-path="url(#clip620)" d="M646.583 1544.91 L662.902 1544.91 L662.902 1548.85 L640.958 1548.85 L640.958 1544.91 Q643.62 1542.16 648.203 1537.53 Q652.809 1532.88 653.99 1531.53 Q656.235 1529.01 657.115 1527.27 Q658.018 1525.51 658.018 1523.82 Q658.018 1521.07 656.073 1519.33 Q654.152 1517.6 651.05 1517.6 Q648.851 1517.6 646.397 1518.36 Q643.967 1519.13 641.189 1520.68 L641.189 1515.95 Q644.013 1514.82 646.467 1514.24 Q648.921 1513.66 650.958 1513.66 Q656.328 1513.66 659.522 1516.35 Q662.717 1519.03 662.717 1523.52 Q662.717 1525.65 661.907 1527.57 Q661.12 1529.47 659.013 1532.07 Q658.434 1532.74 655.333 1535.95 Q652.231 1539.15 646.583 1544.91 Z" fill="#000000" fill-rule="evenodd" fill-opacity="1" /><path clip-path="url(#clip620)" d="M1089.42 1517.37 Q1085.81 1517.37 1083.98 1520.93 Q1082.18 1524.47 1082.18 1531.6 Q1082.18 1538.71 1083.98 1542.27 Q1085.81 1545.82 1089.42 1545.82 Q1093.06 1545.82 1094.86 1542.27 Q1096.69 1538.71 1096.69 1531.6 Q1096.69 1524.47 1094.86 1520.93 Q1093.06 1517.37 1089.42 1517.37 M1089.42 1513.66 Q1095.23 1513.66 1098.29 1518.27 Q1101.37 1522.85 1101.37 1531.6 Q1101.37 1540.33 1098.29 1544.94 Q1095.23 1549.52 1089.42 1549.52 Q1083.61 1549.52 1080.54 1544.94 Q1077.48 1540.33 1077.48 1531.6 Q1077.48 1522.85 1080.54 1518.27 Q1083.61 1513.66 1089.42 1513.66 Z" fill="#000000" fill-rule="evenodd" fill-opacity="1" /><path clip-path="url(#clip620)" d="M1109.59 1542.97 L1114.47 1542.97 L1114.47 1548.85 L1109.59 1548.85 L1109.59 1542.97 Z" fill="#000000" fill-rule="evenodd" fill-opacity="1" /><path clip-path="url(#clip620)" d="M1137.5 1518.36 L1125.7 1536.81 L1137.5 1536.81 L1137.5 1518.36 M1136.28 1514.29 L1142.16 1514.29 L1142.16 1536.81 L1147.09 1536.81 L1147.09 1540.7 L1142.16 1540.7 L1142.16 1548.85 L1137.5 1548.85 L1137.5 1540.7 L1121.9 1540.7 L1121.9 1536.19 L1136.28 1514.29 Z" fill="#000000" fill-rule="evenodd" fill-opacity="1" /><path clip-path="url(#clip620)" d="M1572.73 1517.37 Q1569.12 1517.37 1567.29 1520.93 Q1565.48 1524.47 1565.48 1531.6 Q1565.48 1538.71 1567.29 1542.27 Q1569.12 1545.82 1572.73 1545.82 Q1576.36 1545.82 1578.17 1542.27 Q1580 1538.71 1580 1531.6 Q1580 1524.47 1578.17 1520.93 Q1576.36 1517.37 1572.73 1517.37 M1572.73 1513.66 Q1578.54 1513.66 1581.59 1518.27 Q1584.67 1522.85 1584.67 1531.6 Q1584.67 1540.33 1581.59 1544.94 Q1578.54 1549.52 1572.73 1549.52 Q1566.92 1549.52 1563.84 1544.94 Q1560.78 1540.33 1560.78 1531.6 Q1560.78 1522.85 1563.84 1518.27 Q1566.92 1513.66 1572.73 1513.66 Z" fill="#000000" fill-rule="evenodd" fill-opacity="1" /><path clip-path="url(#clip620)" d="M1592.89 1542.97 L1597.77 1542.97 L1597.77 1548.85 L1592.89 1548.85 L1592.89 1542.97 Z" fill="#000000" fill-rule="evenodd" fill-opacity="1" /><path clip-path="url(#clip620)" d="M1618.54 1529.7 Q1615.39 1529.7 1613.54 1531.86 Q1611.71 1534.01 1611.71 1537.76 Q1611.71 1541.49 1613.54 1543.66 Q1615.39 1545.82 1618.54 1545.82 Q1621.69 1545.82 1623.51 1543.66 Q1625.37 1541.49 1625.37 1537.76 Q1625.37 1534.01 1623.51 1531.86 Q1621.69 1529.7 1618.54 1529.7 M1627.82 1515.05 L1627.82 1519.31 Q1626.06 1518.48 1624.26 1518.04 Q1622.47 1517.6 1620.71 1517.6 Q1616.08 1517.6 1613.63 1520.72 Q1611.2 1523.85 1610.85 1530.17 Q1612.22 1528.15 1614.28 1527.09 Q1616.34 1526 1618.82 1526 Q1624.02 1526 1627.03 1529.17 Q1630.07 1532.32 1630.07 1537.76 Q1630.07 1543.08 1626.92 1546.3 Q1623.77 1549.52 1618.54 1549.52 Q1612.54 1549.52 1609.37 1544.94 Q1606.2 1540.33 1606.2 1531.6 Q1606.2 1523.41 1610.09 1518.55 Q1613.98 1513.66 1620.53 1513.66 Q1622.29 1513.66 1624.07 1514.01 Q1625.88 1514.36 1627.82 1515.05 Z" fill="#000000" fill-rule="evenodd" fill-opacity="1" /><path clip-path="url(#clip620)" d="M2056 1517.37 Q2052.39 1517.37 2050.56 1520.93 Q2048.75 1524.47 2048.75 1531.6 Q2048.75 1538.71 2050.56 1542.27 Q2052.39 1545.82 2056 1545.82 Q2059.63 1545.82 2061.44 1542.27 Q2063.27 1538.71 2063.27 1531.6 Q2063.27 1524.47 2061.44 1520.93 Q2059.63 1517.37 2056 1517.37 M2056 1513.66 Q2061.81 1513.66 2064.86 1518.27 Q2067.94 1522.85 2067.94 1531.6 Q2067.94 1540.33 2064.86 1544.94 Q2061.81 1549.52 2056 1549.52 Q2050.19 1549.52 2047.11 1544.94 Q2044.05 1540.33 2044.05 1531.6 Q2044.05 1522.85 2047.11 1518.27 Q2050.19 1513.66 2056 1513.66 Z" fill="#000000" fill-rule="evenodd" fill-opacity="1" /><path clip-path="url(#clip620)" d="M2076.16 1542.97 L2081.04 1542.97 L2081.04 1548.85 L2076.16 1548.85 L2076.16 1542.97 Z" fill="#000000" fill-rule="evenodd" fill-opacity="1" /><path clip-path="url(#clip620)" d="M2101.23 1532.44 Q2097.9 1532.44 2095.97 1534.22 Q2094.08 1536 2094.08 1539.13 Q2094.08 1542.25 2095.97 1544.03 Q2097.9 1545.82 2101.23 1545.82 Q2104.56 1545.82 2106.48 1544.03 Q2108.4 1542.23 2108.4 1539.13 Q2108.4 1536 2106.48 1534.22 Q2104.59 1532.44 2101.23 1532.44 M2096.55 1530.45 Q2093.54 1529.7 2091.85 1527.64 Q2090.19 1525.58 2090.19 1522.62 Q2090.19 1518.48 2093.13 1516.07 Q2096.09 1513.66 2101.23 1513.66 Q2106.39 1513.66 2109.33 1516.07 Q2112.27 1518.48 2112.27 1522.62 Q2112.27 1525.58 2110.58 1527.64 Q2108.91 1529.7 2105.93 1530.45 Q2109.31 1531.23 2111.18 1533.52 Q2113.08 1535.82 2113.08 1539.13 Q2113.08 1544.15 2110 1546.83 Q2106.95 1549.52 2101.23 1549.52 Q2095.51 1549.52 2092.43 1546.83 Q2089.38 1544.15 2089.38 1539.13 Q2089.38 1535.82 2091.28 1533.52 Q2093.17 1531.23 2096.55 1530.45 M2094.84 1523.06 Q2094.84 1525.75 2096.51 1527.25 Q2098.2 1528.76 2101.23 1528.76 Q2104.24 1528.76 2105.93 1527.25 Q2107.64 1525.75 2107.64 1523.06 Q2107.64 1520.38 2105.93 1518.87 Q2104.24 1517.37 2101.23 1517.37 Q2098.2 1517.37 2096.51 1518.87 Q2094.84 1520.38 2094.84 1523.06 Z" fill="#000000" fill-rule="evenodd" fill-opacity="1" /><polyline clip-path="url(#clip622)" style="stroke:#000000; stroke-linecap:butt; stroke-linejoin:round; stroke-width:2; stroke-opacity:0.1; fill:none" points="
  156.598,1214.14 2352.76,1214.14 
  "/>
<polyline clip-path="url(#clip622)" style="stroke:#000000; stroke-linecap:butt; stroke-linejoin:round; stroke-width:2; stroke-opacity:0.1; fill:none" points="
  156.598,921.894 2352.76,921.894 
  "/>
<polyline clip-path="url(#clip622)" style="stroke:#000000; stroke-linecap:butt; stroke-linejoin:round; stroke-width:2; stroke-opacity:0.1; fill:none" points="
  156.598,629.645 2352.76,629.645 
  "/>
<polyline clip-path="url(#clip622)" style="stroke:#000000; stroke-linecap:butt; stroke-linejoin:round; stroke-width:2; stroke-opacity:0.1; fill:none" points="
  156.598,337.397 2352.76,337.397 
  "/>
<polyline clip-path="url(#clip620)" style="stroke:#000000; stroke-linecap:butt; stroke-linejoin:round; stroke-width:4; stroke-opacity:1; fill:none" points="
  156.598,1486.45 156.598,47.2441 
  "/>
<polyline clip-path="url(#clip620)" style="stroke:#000000; stroke-linecap:butt; stroke-linejoin:round; stroke-width:4; stroke-opacity:1; fill:none" points="
  156.598,1214.14 175.496,1214.14 
  "/>
<polyline clip-path="url(#clip620)" style="stroke:#000000; stroke-linecap:butt; stroke-linejoin:round; stroke-width:4; stroke-opacity:1; fill:none" points="
  156.598,921.894 175.496,921.894 
  "/>
<polyline clip-path="url(#clip620)" style="stroke:#000000; stroke-linecap:butt; stroke-linejoin:round; stroke-width:4; stroke-opacity:1; fill:none" points="
  156.598,629.645 175.496,629.645 
  "/>
<polyline clip-path="url(#clip620)" style="stroke:#000000; stroke-linecap:butt; stroke-linejoin:round; stroke-width:4; stroke-opacity:1; fill:none" points="
  156.598,337.397 175.496,337.397 
  "/>
<path clip-path="url(#clip620)" d="M65.0198 1199.94 Q61.4087 1199.94 59.58 1203.51 Q57.7745 1207.05 57.7745 1214.18 Q57.7745 1221.28 59.58 1224.85 Q61.4087 1228.39 65.0198 1228.39 Q68.6541 1228.39 70.4596 1224.85 Q72.2883 1221.28 72.2883 1214.18 Q72.2883 1207.05 70.4596 1203.51 Q68.6541 1199.94 65.0198 1199.94 M65.0198 1196.24 Q70.83 1196.24 73.8855 1200.84 Q76.9642 1205.43 76.9642 1214.18 Q76.9642 1222.9 73.8855 1227.51 Q70.83 1232.09 65.0198 1232.09 Q59.2097 1232.09 56.131 1227.51 Q53.0754 1222.9 53.0754 1214.18 Q53.0754 1205.43 56.131 1200.84 Q59.2097 1196.24 65.0198 1196.24 Z" fill="#000000" fill-rule="evenodd" fill-opacity="1" /><path clip-path="url(#clip620)" d="M85.1818 1225.54 L90.066 1225.54 L90.066 1231.42 L85.1818 1231.42 L85.1818 1225.54 Z" fill="#000000" fill-rule="evenodd" fill-opacity="1" /><path clip-path="url(#clip620)" d="M104.279 1227.49 L120.598 1227.49 L120.598 1231.42 L98.6539 1231.42 L98.6539 1227.49 Q101.316 1224.73 105.899 1220.1 Q110.506 1215.45 111.686 1214.11 Q113.932 1211.58 114.811 1209.85 Q115.714 1208.09 115.714 1206.4 Q115.714 1203.64 113.77 1201.91 Q111.848 1200.17 108.746 1200.17 Q106.547 1200.17 104.094 1200.94 Q101.663 1201.7 98.8854 1203.25 L98.8854 1198.53 Q101.709 1197.39 104.163 1196.82 Q106.617 1196.24 108.654 1196.24 Q114.024 1196.24 117.219 1198.92 Q120.413 1201.61 120.413 1206.1 Q120.413 1208.23 119.603 1210.15 Q118.816 1212.05 116.709 1214.64 Q116.131 1215.31 113.029 1218.53 Q109.927 1221.72 104.279 1227.49 Z" fill="#000000" fill-rule="evenodd" fill-opacity="1" /><path clip-path="url(#clip620)" d="M62.9365 907.692 Q59.3254 907.692 57.4967 911.257 Q55.6912 914.799 55.6912 921.928 Q55.6912 929.035 57.4967 932.6 Q59.3254 936.141 62.9365 936.141 Q66.5707 936.141 68.3763 932.6 Q70.205 929.035 70.205 921.928 Q70.205 914.799 68.3763 911.257 Q66.5707 907.692 62.9365 907.692 M62.9365 903.989 Q68.7467 903.989 71.8022 908.595 Q74.8809 913.178 74.8809 921.928 Q74.8809 930.655 71.8022 935.262 Q68.7467 939.845 62.9365 939.845 Q57.1264 939.845 54.0477 935.262 Q50.9921 930.655 50.9921 921.928 Q50.9921 913.178 54.0477 908.595 Q57.1264 903.989 62.9365 903.989 Z" fill="#000000" fill-rule="evenodd" fill-opacity="1" /><path clip-path="url(#clip620)" d="M83.0984 933.294 L87.9827 933.294 L87.9827 939.174 L83.0984 939.174 L83.0984 933.294 Z" fill="#000000" fill-rule="evenodd" fill-opacity="1" /><path clip-path="url(#clip620)" d="M111.015 908.688 L99.2095 927.137 L111.015 927.137 L111.015 908.688 M109.788 904.614 L115.668 904.614 L115.668 927.137 L120.598 927.137 L120.598 931.026 L115.668 931.026 L115.668 939.174 L111.015 939.174 L111.015 931.026 L95.4132 931.026 L95.4132 926.512 L109.788 904.614 Z" fill="#000000" fill-rule="evenodd" fill-opacity="1" /><path clip-path="url(#clip620)" d="M63.2606 615.444 Q59.6495 615.444 57.8208 619.009 Q56.0152 622.55 56.0152 629.68 Q56.0152 636.786 57.8208 640.351 Q59.6495 643.893 63.2606 643.893 Q66.8948 643.893 68.7004 640.351 Q70.5291 636.786 70.5291 629.68 Q70.5291 622.55 68.7004 619.009 Q66.8948 615.444 63.2606 615.444 M63.2606 611.74 Q69.0707 611.74 72.1263 616.347 Q75.205 620.93 75.205 629.68 Q75.205 638.407 72.1263 643.013 Q69.0707 647.597 63.2606 647.597 Q57.4504 647.597 54.3717 643.013 Q51.3162 638.407 51.3162 629.68 Q51.3162 620.93 54.3717 616.347 Q57.4504 611.74 63.2606 611.74 Z" fill="#000000" fill-rule="evenodd" fill-opacity="1" /><path clip-path="url(#clip620)" d="M83.4225 641.046 L88.3067 641.046 L88.3067 646.925 L83.4225 646.925 L83.4225 641.046 Z" fill="#000000" fill-rule="evenodd" fill-opacity="1" /><path clip-path="url(#clip620)" d="M109.071 627.782 Q105.922 627.782 104.071 629.935 Q102.242 632.087 102.242 635.837 Q102.242 639.564 104.071 641.74 Q105.922 643.893 109.071 643.893 Q112.219 643.893 114.047 641.74 Q115.899 639.564 115.899 635.837 Q115.899 632.087 114.047 629.935 Q112.219 627.782 109.071 627.782 M118.353 613.129 L118.353 617.388 Q116.594 616.555 114.788 616.115 Q113.006 615.675 111.246 615.675 Q106.617 615.675 104.163 618.8 Q101.733 621.925 101.385 628.245 Q102.751 626.231 104.811 625.166 Q106.871 624.078 109.348 624.078 Q114.557 624.078 117.566 627.249 Q120.598 630.398 120.598 635.837 Q120.598 641.161 117.45 644.379 Q114.302 647.597 109.071 647.597 Q103.075 647.597 99.9039 643.013 Q96.7326 638.407 96.7326 629.68 Q96.7326 621.486 100.621 616.624 Q104.51 611.74 111.061 611.74 Q112.82 611.74 114.603 612.087 Q116.408 612.435 118.353 613.129 Z" fill="#000000" fill-rule="evenodd" fill-opacity="1" /><path clip-path="url(#clip620)" d="M63.5152 323.195 Q59.9041 323.195 58.0754 326.76 Q56.2699 330.302 56.2699 337.432 Q56.2699 344.538 58.0754 348.103 Q59.9041 351.644 63.5152 351.644 Q67.1494 351.644 68.955 348.103 Q70.7837 344.538 70.7837 337.432 Q70.7837 330.302 68.955 326.76 Q67.1494 323.195 63.5152 323.195 M63.5152 319.492 Q69.3254 319.492 72.3809 324.098 Q75.4596 328.682 75.4596 337.432 Q75.4596 346.158 72.3809 350.765 Q69.3254 355.348 63.5152 355.348 Q57.7051 355.348 54.6264 350.765 Q51.5708 346.158 51.5708 337.432 Q51.5708 328.682 54.6264 324.098 Q57.7051 319.492 63.5152 319.492 Z" fill="#000000" fill-rule="evenodd" fill-opacity="1" /><path clip-path="url(#clip620)" d="M83.6771 348.797 L88.5614 348.797 L88.5614 354.677 L83.6771 354.677 L83.6771 348.797 Z" fill="#000000" fill-rule="evenodd" fill-opacity="1" /><path clip-path="url(#clip620)" d="M108.746 338.265 Q105.413 338.265 103.492 340.047 Q101.594 341.83 101.594 344.955 Q101.594 348.08 103.492 349.862 Q105.413 351.644 108.746 351.644 Q112.08 351.644 114.001 349.862 Q115.922 348.056 115.922 344.955 Q115.922 341.83 114.001 340.047 Q112.103 338.265 108.746 338.265 M104.071 336.274 Q101.061 335.533 99.3715 333.473 Q97.7048 331.413 97.7048 328.45 Q97.7048 324.307 100.645 321.899 Q103.608 319.492 108.746 319.492 Q113.908 319.492 116.848 321.899 Q119.788 324.307 119.788 328.45 Q119.788 331.413 118.098 333.473 Q116.432 335.533 113.445 336.274 Q116.825 337.061 118.7 339.353 Q120.598 341.644 120.598 344.955 Q120.598 349.978 117.52 352.663 Q114.464 355.348 108.746 355.348 Q103.029 355.348 99.9502 352.663 Q96.8947 349.978 96.8947 344.955 Q96.8947 341.644 98.7928 339.353 Q100.691 337.061 104.071 336.274 M102.358 328.89 Q102.358 331.575 104.024 333.08 Q105.714 334.584 108.746 334.584 Q111.756 334.584 113.445 333.08 Q115.158 331.575 115.158 328.89 Q115.158 326.205 113.445 324.7 Q111.756 323.195 108.746 323.195 Q105.714 323.195 104.024 324.7 Q102.358 326.205 102.358 328.89 Z" fill="#000000" fill-rule="evenodd" fill-opacity="1" /><polyline clip-path="url(#clip622)" style="stroke:#009af9; stroke-linecap:butt; stroke-linejoin:round; stroke-width:4; stroke-opacity:1; fill:none" points="
  218.754,1011.52 1182.21,1057.38 2290.6,87.9763 1291.97,1445.72 409.986,990.107 508.297,459.248 957.076,1157.7 2106.25,935.309 2270.92,212.414 1338.71,427.492 
  
  "/>
<path clip-path="url(#clip620)" d="
M1987.12 198.898 L2279.55 198.898 L2279.55 95.2176 L1987.12 95.2176  Z
  " fill="#ffffff" fill-rule="evenodd" fill-opacity="1"/>
<polyline clip-path="url(#clip620)" style="stroke:#000000; stroke-linecap:butt; stroke-linejoin:round; stroke-width:4; stroke-opacity:1; fill:none" points="
  1987.12,198.898 2279.55,198.898 2279.55,95.2176 1987.12,95.2176 1987.12,198.898 
  "/>
<polyline clip-path="url(#clip620)" style="stroke:#009af9; stroke-linecap:butt; stroke-linejoin:round; stroke-width:4; stroke-opacity:1; fill:none" points="
  2011.12,147.058 2155.12,147.058 
  "/>
<path clip-path="url(#clip620)" d="M2192.96 166.745 Q2191.16 171.375 2189.44 172.787 Q2187.73 174.199 2184.86 174.199 L2181.46 174.199 L2181.46 170.634 L2183.96 170.634 Q2185.72 170.634 2186.69 169.8 Q2187.66 168.967 2188.84 165.865 L2189.61 163.921 L2179.12 138.412 L2183.63 138.412 L2191.74 158.689 L2199.84 138.412 L2204.35 138.412 L2192.96 166.745 Z" fill="#000000" fill-rule="evenodd" fill-opacity="1" /><path clip-path="url(#clip620)" d="M2211.64 160.402 L2219.28 160.402 L2219.28 134.037 L2210.97 135.703 L2210.97 131.444 L2219.24 129.778 L2223.91 129.778 L2223.91 160.402 L2231.55 160.402 L2231.55 164.338 L2211.64 164.338 L2211.64 160.402 Z" fill="#000000" fill-rule="evenodd" fill-opacity="1" /></svg>
