<?xml version="1.0" encoding="utf-8"?>
<svg xmlns="http://www.w3.org/2000/svg" xmlns:xlink="http://www.w3.org/1999/xlink" width="600" height="400" viewBox="0 0 2400 1600">
<defs>
  <clipPath id="clip610">
    <rect x="0" y="0" width="2400" height="1600"/>
  </clipPath>
</defs>
<path clip-path="url(#clip610)" d="
M0 1600 L2400 1600 L2400 0 L0 0  Z
  " fill="#ffffff" fill-rule="evenodd" fill-opacity="1"/>
<defs>
  <clipPath id="clip611">
    <rect x="480" y="0" width="1681" height="1600"/>
  </clipPath>
</defs>
<path clip-path="url(#clip610)" d="
M156.598 1486.45 L2352.76 1486.45 L2352.76 47.2441 L156.598 47.2441  Z
  " fill="#ffffff" fill-rule="evenodd" fill-opacity="1"/>
<defs>
  <clipPath id="clip612">
    <rect x="156" y="47" width="2197" height="1440"/>
  </clipPath>
</defs>
<polyline clip-path="url(#clip612)" style="stroke:#000000; stroke-linecap:butt; stroke-linejoin:round; stroke-width:2; stroke-opacity:0.1; fill:none" points="
  612.832,1486.45 612.832,47.2441 
  "/>
<polyline clip-path="url(#clip612)" style="stroke:#000000; stroke-linecap:butt; stroke-linejoin:round; stroke-width:2; stroke-opacity:0.1; fill:none" points="
  1148.46,1486.45 1148.46,47.2441 
  "/>
<polyline clip-path="url(#clip612)" style="stroke:#000000; stroke-linecap:butt; stroke-linejoin:round; stroke-width:2; stroke-opacity:0.1; fill:none" points="
  1684.09,1486.45 1684.09,47.2441 
  "/>
<polyline clip-path="url(#clip612)" style="stroke:#000000; stroke-linecap:butt; stroke-linejoin:round; stroke-width:2; stroke-opacity:0.1; fill:none" points="
  2219.71,1486.45 2219.71,47.2441 
  "/>
<polyline clip-path="url(#clip610)" style="stroke:#000000; stroke-linecap:butt; stroke-linejoin:round; stroke-width:4; stroke-opacity:1; fill:none" points="
  156.598,1486.45 2352.76,1486.45 
  "/>
<polyline clip-path="url(#clip610)" style="stroke:#000000; stroke-linecap:butt; stroke-linejoin:round; stroke-width:4; stroke-opacity:1; fill:none" points="
  612.832,1486.45 612.832,1467.55 
  "/>
<polyline clip-path="url(#clip610)" style="stroke:#000000; stroke-linecap:butt; stroke-linejoin:round; stroke-width:4; stroke-opacity:1; fill:none" points="
  1148.46,1486.45 1148.46,1467.55 
  "/>
<polyline clip-path="url(#clip610)" style="stroke:#000000; stroke-linecap:butt; stroke-linejoin:round; stroke-width:4; stroke-opacity:1; fill:none" points="
  1684.09,1486.45 1684.09,1467.55 
  "/>
<polyline clip-path="url(#clip610)" style="stroke:#000000; stroke-linecap:butt; stroke-linejoin:round; stroke-width:4; stroke-opacity:1; fill:none" points="
  2219.71,1486.45 2219.71,1467.55 
  "/>
<path clip-path="url(#clip610)" d="M591.015 1517.37 Q587.404 1517.37 585.575 1520.93 Q583.769 1524.47 583.769 1531.6 Q583.769 1538.71 585.575 1542.27 Q587.404 1545.82 591.015 1545.82 Q594.649 1545.82 596.455 1542.27 Q598.283 1538.71 598.283 1531.6 Q598.283 1524.47 596.455 1520.93 Q594.649 1517.37 591.015 1517.37 M591.015 1513.66 Q596.825 1513.66 599.88 1518.27 Q602.959 1522.85 602.959 1531.6 Q602.959 1540.33 599.88 1544.94 Q596.825 1549.52 591.015 1549.52 Q585.205 1549.52 582.126 1544.94 Q579.07 1540.33 579.07 1531.6 Q579.07 1522.85 582.126 1518.27 Q585.205 1513.66 591.015 1513.66 Z" fill="#000000" fill-rule="evenodd" fill-opacity="1" /><path clip-path="url(#clip610)" d="M611.177 1542.97 L616.061 1542.97 L616.061 1548.85 L611.177 1548.85 L611.177 1542.97 Z" fill="#000000" fill-rule="evenodd" fill-opacity="1" /><path clip-path="url(#clip610)" d="M630.274 1544.91 L646.593 1544.91 L646.593 1548.85 L624.649 1548.85 L624.649 1544.91 Q627.311 1542.16 631.894 1537.53 Q636.501 1532.88 637.681 1531.53 Q639.926 1529.01 640.806 1527.27 Q641.709 1525.51 641.709 1523.82 Q641.709 1521.07 639.764 1519.33 Q637.843 1517.6 634.741 1517.6 Q632.542 1517.6 630.089 1518.36 Q627.658 1519.13 624.88 1520.68 L624.88 1515.95 Q627.704 1514.82 630.158 1514.24 Q632.612 1513.66 634.649 1513.66 Q640.019 1513.66 643.214 1516.35 Q646.408 1519.03 646.408 1523.52 Q646.408 1525.65 645.598 1527.57 Q644.811 1529.47 642.704 1532.07 Q642.126 1532.74 639.024 1535.95 Q635.922 1539.15 630.274 1544.91 Z" fill="#000000" fill-rule="evenodd" fill-opacity="1" /><path clip-path="url(#clip610)" d="M1125.6 1517.37 Q1121.99 1517.37 1120.16 1520.93 Q1118.36 1524.47 1118.36 1531.6 Q1118.36 1538.71 1120.16 1542.27 Q1121.99 1545.82 1125.6 1545.82 Q1129.24 1545.82 1131.04 1542.27 Q1132.87 1538.71 1132.87 1531.6 Q1132.87 1524.47 1131.04 1520.93 Q1129.24 1517.37 1125.6 1517.37 M1125.6 1513.66 Q1131.41 1513.66 1134.47 1518.27 Q1137.55 1522.85 1137.55 1531.6 Q1137.55 1540.33 1134.47 1544.94 Q1131.41 1549.52 1125.6 1549.52 Q1119.79 1549.52 1116.71 1544.94 Q1113.66 1540.33 1113.66 1531.6 Q1113.66 1522.85 1116.71 1518.27 Q1119.79 1513.66 1125.6 1513.66 Z" fill="#000000" fill-rule="evenodd" fill-opacity="1" /><path clip-path="url(#clip610)" d="M1145.76 1542.97 L1150.65 1542.97 L1150.65 1548.85 L1145.76 1548.85 L1145.76 1542.97 Z" fill="#000000" fill-rule="evenodd" fill-opacity="1" /><path clip-path="url(#clip610)" d="M1173.68 1518.36 L1161.87 1536.81 L1173.68 1536.81 L1173.68 1518.36 M1172.45 1514.29 L1178.33 1514.29 L1178.33 1536.81 L1183.26 1536.81 L1183.26 1540.7 L1178.33 1540.7 L1178.33 1548.85 L1173.68 1548.85 L1173.68 1540.7 L1158.08 1540.7 L1158.08 1536.19 L1172.45 1514.29 Z" fill="#000000" fill-rule="evenodd" fill-opacity="1" /><path clip-path="url(#clip610)" d="M1661.39 1517.37 Q1657.78 1517.37 1655.95 1520.93 Q1654.15 1524.47 1654.15 1531.6 Q1654.15 1538.71 1655.95 1542.27 Q1657.78 1545.82 1661.39 1545.82 Q1665.02 1545.82 1666.83 1542.27 Q1668.66 1538.71 1668.66 1531.6 Q1668.66 1524.47 1666.83 1520.93 Q1665.02 1517.37 1661.39 1517.37 M1661.39 1513.66 Q1667.2 1513.66 1670.26 1518.27 Q1673.33 1522.85 1673.33 1531.6 Q1673.33 1540.33 1670.26 1544.94 Q1667.2 1549.52 1661.39 1549.52 Q1655.58 1549.52 1652.5 1544.94 Q1649.45 1540.33 1649.45 1531.6 Q1649.45 1522.85 1652.5 1518.27 Q1655.58 1513.66 1661.39 1513.66 Z" fill="#000000" fill-rule="evenodd" fill-opacity="1" /><path clip-path="url(#clip610)" d="M1681.55 1542.97 L1686.44 1542.97 L1686.44 1548.85 L1681.55 1548.85 L1681.55 1542.97 Z" fill="#000000" fill-rule="evenodd" fill-opacity="1" /><path clip-path="url(#clip610)" d="M1707.2 1529.7 Q1704.05 1529.7 1702.2 1531.86 Q1700.37 1534.01 1700.37 1537.76 Q1700.37 1541.49 1702.2 1543.66 Q1704.05 1545.82 1707.2 1545.82 Q1710.35 1545.82 1712.18 1543.66 Q1714.03 1541.49 1714.03 1537.76 Q1714.03 1534.01 1712.18 1531.86 Q1710.35 1529.7 1707.2 1529.7 M1716.48 1515.05 L1716.48 1519.31 Q1714.72 1518.48 1712.92 1518.04 Q1711.14 1517.6 1709.38 1517.6 Q1704.75 1517.6 1702.29 1520.72 Q1699.86 1523.85 1699.52 1530.17 Q1700.88 1528.15 1702.94 1527.09 Q1705 1526 1707.48 1526 Q1712.69 1526 1715.7 1529.17 Q1718.73 1532.32 1718.73 1537.76 Q1718.73 1543.08 1715.58 1546.3 Q1712.43 1549.52 1707.2 1549.52 Q1701.21 1549.52 1698.03 1544.94 Q1694.86 1540.33 1694.86 1531.6 Q1694.86 1523.41 1698.75 1518.55 Q1702.64 1513.66 1709.19 1513.66 Q1710.95 1513.66 1712.73 1514.01 Q1714.54 1514.36 1716.48 1515.05 Z" fill="#000000" fill-rule="evenodd" fill-opacity="1" /><path clip-path="url(#clip610)" d="M2197.15 1517.37 Q2193.53 1517.37 2191.71 1520.93 Q2189.9 1524.47 2189.9 1531.6 Q2189.9 1538.71 2191.71 1542.27 Q2193.53 1545.82 2197.15 1545.82 Q2200.78 1545.82 2202.59 1542.27 Q2204.41 1538.71 2204.41 1531.6 Q2204.41 1524.47 2202.59 1520.93 Q2200.78 1517.37 2197.15 1517.37 M2197.15 1513.66 Q2202.96 1513.66 2206.01 1518.27 Q2209.09 1522.85 2209.09 1531.6 Q2209.09 1540.33 2206.01 1544.94 Q2202.96 1549.52 2197.15 1549.52 Q2191.34 1549.52 2188.26 1544.94 Q2185.2 1540.33 2185.2 1531.6 Q2185.2 1522.85 2188.26 1518.27 Q2191.34 1513.66 2197.15 1513.66 Z" fill="#000000" fill-rule="evenodd" fill-opacity="1" /><path clip-path="url(#clip610)" d="M2217.31 1542.97 L2222.19 1542.97 L2222.19 1548.85 L2217.31 1548.85 L2217.31 1542.97 Z" fill="#000000" fill-rule="evenodd" fill-opacity="1" /><path clip-path="url(#clip610)" d="M2242.38 1532.44 Q2239.04 1532.44 2237.12 1534.22 Q2235.22 1536 2235.22 1539.13 Q2235.22 1542.25 2237.12 1544.03 Q2239.04 1545.82 2242.38 1545.82 Q2245.71 1545.82 2247.63 1544.03 Q2249.55 1542.23 2249.55 1539.13 Q2249.55 1536 2247.63 1534.22 Q2245.73 1532.44 2242.38 1532.44 M2237.7 1530.45 Q2234.69 1529.7 2233 1527.64 Q2231.34 1525.58 2231.34 1522.62 Q2231.34 1518.48 2234.28 1516.07 Q2237.24 1513.66 2242.38 1513.66 Q2247.54 1513.66 2250.48 1516.07 Q2253.42 1518.48 2253.42 1522.62 Q2253.42 1525.58 2251.73 1527.64 Q2250.06 1529.7 2247.08 1530.45 Q2250.46 1531.23 2252.33 1533.52 Q2254.23 1535.82 2254.23 1539.13 Q2254.23 1544.15 2251.15 1546.83 Q2248.09 1549.52 2242.38 1549.52 Q2236.66 1549.52 2233.58 1546.83 Q2230.53 1544.15 2230.53 1539.13 Q2230.53 1535.82 2232.42 1533.52 Q2234.32 1531.23 2237.7 1530.45 M2235.99 1523.06 Q2235.99 1525.75 2237.65 1527.25 Q2239.34 1528.76 2242.38 1528.76 Q2245.39 1528.76 2247.08 1527.25 Q2248.79 1525.75 2248.79 1523.06 Q2248.79 1520.38 2247.08 1518.87 Q2245.39 1517.37 2242.38 1517.37 Q2239.34 1517.37 2237.65 1518.87 Q2235.99 1520.38 2235.99 1523.06 Z" fill="#000000" fill-rule="evenodd" fill-opacity="1" /><polyline clip-path="url(#clip612)" style="stroke:#000000; stroke-linecap:butt; stroke-linejoin:round; stroke-width:2; stroke-opacity:0.1; fill:none" points="
  156.598,1184.26 2352.76,1184.26 
  "/>
<polyline clip-path="url(#clip612)" style="stroke:#000000; stroke-linecap:butt; stroke-linejoin:round; stroke-width:2; stroke-opacity:0.1; fill:none" points="
  156.598,874.415 2352.76,874.415 
  "/>
<polyline clip-path="url(#clip612)" style="stroke:#000000; stroke-linecap:butt; stroke-linejoin:round; stroke-width:2; stroke-opacity:0.1; fill:none" points="
  156.598,564.572 2352.76,564.572 
  "/>
<polyline clip-path="url(#clip612)" style="stroke:#000000; stroke-linecap:butt; stroke-linejoin:round; stroke-width:2; stroke-opacity:0.1; fill:none" points="
  156.598,254.728 2352.76,254.728 
  "/>
<polyline clip-path="url(#clip610)" style="stroke:#000000; stroke-linecap:butt; stroke-linejoin:round; stroke-width:4; stroke-opacity:1; fill:none" points="
  156.598,1486.45 156.598,47.2441 
  "/>
<polyline clip-path="url(#clip610)" style="stroke:#000000; stroke-linecap:butt; stroke-linejoin:round; stroke-width:4; stroke-opacity:1; fill:none" points="
  156.598,1184.26 175.496,1184.26 
  "/>
<polyline clip-path="url(#clip610)" style="stroke:#000000; stroke-linecap:butt; stroke-linejoin:round; stroke-width:4; stroke-opacity:1; fill:none" points="
  156.598,874.415 175.496,874.415 
  "/>
<polyline clip-path="url(#clip610)" style="stroke:#000000; stroke-linecap:butt; stroke-linejoin:round; stroke-width:4; stroke-opacity:1; fill:none" points="
  156.598,564.572 175.496,564.572 
  "/>
<polyline clip-path="url(#clip610)" style="stroke:#000000; stroke-linecap:butt; stroke-linejoin:round; stroke-width:4; stroke-opacity:1; fill:none" points="
  156.598,254.728 175.496,254.728 
  "/>
<path clip-path="url(#clip610)" d="M65.0198 1170.06 Q61.4087 1170.06 59.58 1173.62 Q57.7745 1177.16 57.7745 1184.29 Q57.7745 1191.4 59.58 1194.96 Q61.4087 1198.51 65.0198 1198.51 Q68.6541 1198.51 70.4596 1194.96 Q72.2883 1191.4 72.2883 1184.29 Q72.2883 1177.16 70.4596 1173.62 Q68.6541 1170.06 65.0198 1170.06 M65.0198 1166.35 Q70.83 1166.35 73.8855 1170.96 Q76.9642 1175.54 76.9642 1184.29 Q76.9642 1193.02 73.8855 1197.63 Q70.83 1202.21 65.0198 1202.21 Q59.2097 1202.21 56.131 1197.63 Q53.0754 1193.02 53.0754 1184.29 Q53.0754 1175.54 56.131 1170.96 Q59.2097 1166.35 65.0198 1166.35 Z" fill="#000000" fill-rule="evenodd" fill-opacity="1" /><path clip-path="url(#clip610)" d="M85.1818 1195.66 L90.066 1195.66 L90.066 1201.54 L85.1818 1201.54 L85.1818 1195.66 Z" fill="#000000" fill-rule="evenodd" fill-opacity="1" /><path clip-path="url(#clip610)" d="M104.279 1197.6 L120.598 1197.6 L120.598 1201.54 L98.6539 1201.54 L98.6539 1197.6 Q101.316 1194.85 105.899 1190.22 Q110.506 1185.57 111.686 1184.22 Q113.932 1181.7 114.811 1179.96 Q115.714 1178.21 115.714 1176.52 Q115.714 1173.76 113.77 1172.03 Q111.848 1170.29 108.746 1170.29 Q106.547 1170.29 104.094 1171.05 Q101.663 1171.82 98.8854 1173.37 L98.8854 1168.65 Q101.709 1167.51 104.163 1166.93 Q106.617 1166.35 108.654 1166.35 Q114.024 1166.35 117.219 1169.04 Q120.413 1171.72 120.413 1176.22 Q120.413 1178.34 119.603 1180.27 Q118.816 1182.16 116.709 1184.76 Q116.131 1185.43 113.029 1188.65 Q109.927 1191.84 104.279 1197.6 Z" fill="#000000" fill-rule="evenodd" fill-opacity="1" /><path clip-path="url(#clip610)" d="M62.9365 860.214 Q59.3254 860.214 57.4967 863.779 Q55.6912 867.32 55.6912 874.45 Q55.6912 881.556 57.4967 885.121 Q59.3254 888.663 62.9365 888.663 Q66.5707 888.663 68.3763 885.121 Q70.205 881.556 70.205 874.45 Q70.205 867.32 68.3763 863.779 Q66.5707 860.214 62.9365 860.214 M62.9365 856.51 Q68.7467 856.51 71.8022 861.117 Q74.8809 865.7 74.8809 874.45 Q74.8809 883.177 71.8022 887.783 Q68.7467 892.367 62.9365 892.367 Q57.1264 892.367 54.0477 887.783 Q50.9921 883.177 50.9921 874.45 Q50.9921 865.7 54.0477 861.117 Q57.1264 856.51 62.9365 856.51 Z" fill="#000000" fill-rule="evenodd" fill-opacity="1" /><path clip-path="url(#clip610)" d="M83.0984 885.816 L87.9827 885.816 L87.9827 891.695 L83.0984 891.695 L83.0984 885.816 Z" fill="#000000" fill-rule="evenodd" fill-opacity="1" /><path clip-path="url(#clip610)" d="M111.015 861.209 L99.2095 879.658 L111.015 879.658 L111.015 861.209 M109.788 857.135 L115.668 857.135 L115.668 879.658 L120.598 879.658 L120.598 883.547 L115.668 883.547 L115.668 891.695 L111.015 891.695 L111.015 883.547 L95.4132 883.547 L95.4132 879.033 L109.788 857.135 Z" fill="#000000" fill-rule="evenodd" fill-opacity="1" /><path clip-path="url(#clip610)" d="M63.2606 550.37 Q59.6495 550.37 57.8208 553.935 Q56.0152 557.477 56.0152 564.606 Q56.0152 571.713 57.8208 575.278 Q59.6495 578.819 63.2606 578.819 Q66.8948 578.819 68.7004 575.278 Q70.5291 571.713 70.5291 564.606 Q70.5291 557.477 68.7004 553.935 Q66.8948 550.37 63.2606 550.37 M63.2606 546.667 Q69.0707 546.667 72.1263 551.273 Q75.205 555.856 75.205 564.606 Q75.205 573.333 72.1263 577.94 Q69.0707 582.523 63.2606 582.523 Q57.4504 582.523 54.3717 577.94 Q51.3162 573.333 51.3162 564.606 Q51.3162 555.856 54.3717 551.273 Q57.4504 546.667 63.2606 546.667 Z" fill="#000000" fill-rule="evenodd" fill-opacity="1" /><path clip-path="url(#clip610)" d="M83.4225 575.972 L88.3067 575.972 L88.3067 581.852 L83.4225 581.852 L83.4225 575.972 Z" fill="#000000" fill-rule="evenodd" fill-opacity="1" /><path clip-path="url(#clip610)" d="M109.071 562.708 Q105.922 562.708 104.071 564.861 Q102.242 567.014 102.242 570.764 Q102.242 574.491 104.071 576.666 Q105.922 578.819 109.071 578.819 Q112.219 578.819 114.047 576.666 Q115.899 574.491 115.899 570.764 Q115.899 567.014 114.047 564.861 Q112.219 562.708 109.071 562.708 M118.353 548.056 L118.353 552.315 Q116.594 551.481 114.788 551.042 Q113.006 550.602 111.246 550.602 Q106.617 550.602 104.163 553.727 Q101.733 556.852 101.385 563.171 Q102.751 561.157 104.811 560.093 Q106.871 559.005 109.348 559.005 Q114.557 559.005 117.566 562.176 Q120.598 565.324 120.598 570.764 Q120.598 576.088 117.45 579.305 Q114.302 582.523 109.071 582.523 Q103.075 582.523 99.9039 577.94 Q96.7326 573.333 96.7326 564.606 Q96.7326 556.412 100.621 551.551 Q104.51 546.667 111.061 546.667 Q112.82 546.667 114.603 547.014 Q116.408 547.361 118.353 548.056 Z" fill="#000000" fill-rule="evenodd" fill-opacity="1" /><path clip-path="url(#clip610)" d="M63.5152 240.527 Q59.9041 240.527 58.0754 244.091 Q56.2699 247.633 56.2699 254.763 Q56.2699 261.869 58.0754 265.434 Q59.9041 268.976 63.5152 268.976 Q67.1494 268.976 68.955 265.434 Q70.7837 261.869 70.7837 254.763 Q70.7837 247.633 68.955 244.091 Q67.1494 240.527 63.5152 240.527 M63.5152 236.823 Q69.3254 236.823 72.3809 241.429 Q75.4596 246.013 75.4596 254.763 Q75.4596 263.49 72.3809 268.096 Q69.3254 272.679 63.5152 272.679 Q57.7051 272.679 54.6264 268.096 Q51.5708 263.49 51.5708 254.763 Q51.5708 246.013 54.6264 241.429 Q57.7051 236.823 63.5152 236.823 Z" fill="#000000" fill-rule="evenodd" fill-opacity="1" /><path clip-path="url(#clip610)" d="M83.6771 266.128 L88.5614 266.128 L88.5614 272.008 L83.6771 272.008 L83.6771 266.128 Z" fill="#000000" fill-rule="evenodd" fill-opacity="1" /><path clip-path="url(#clip610)" d="M108.746 255.596 Q105.413 255.596 103.492 257.378 Q101.594 259.161 101.594 262.286 Q101.594 265.411 103.492 267.193 Q105.413 268.976 108.746 268.976 Q112.08 268.976 114.001 267.193 Q115.922 265.388 115.922 262.286 Q115.922 259.161 114.001 257.378 Q112.103 255.596 108.746 255.596 M104.071 253.605 Q101.061 252.865 99.3715 250.804 Q97.7048 248.744 97.7048 245.781 Q97.7048 241.638 100.645 239.23 Q103.608 236.823 108.746 236.823 Q113.908 236.823 116.848 239.23 Q119.788 241.638 119.788 245.781 Q119.788 248.744 118.098 250.804 Q116.432 252.865 113.445 253.605 Q116.825 254.392 118.7 256.684 Q120.598 258.976 120.598 262.286 Q120.598 267.309 117.52 269.994 Q114.464 272.679 108.746 272.679 Q103.029 272.679 99.9502 269.994 Q96.8947 267.309 96.8947 262.286 Q96.8947 258.976 98.7928 256.684 Q100.691 254.392 104.071 253.605 M102.358 246.221 Q102.358 248.906 104.024 250.411 Q105.714 251.916 108.746 251.916 Q111.756 251.916 113.445 250.411 Q115.158 248.906 115.158 246.221 Q115.158 243.536 113.445 242.031 Q111.756 240.527 108.746 240.527 Q105.714 240.527 104.024 242.031 Q102.358 243.536 102.358 246.221 Z" fill="#000000" fill-rule="evenodd" fill-opacity="1" /><polyline clip-path="url(#clip612)" style="stroke:#009af9; stroke-linecap:butt; stroke-linejoin:round; stroke-width:4; stroke-opacity:1; fill:none" points="
  2290.6,87.9763 231.669,1421.9 2114.63,440.676 525.221,1445.72 940.316,719.179 1368.84,98.1169 1945.44,1253.75 218.754,1037.92 351.445,1330.65 1568.94,777.486 
  
  "/>
<path clip-path="url(#clip610)" d="
M1987.12 198.898 L2279.55 198.898 L2279.55 95.2176 L1987.12 95.2176  Z
  " fill="#ffffff" fill-rule="evenodd" fill-opacity="1"/>
<polyline clip-path="url(#clip610)" style="stroke:#000000; stroke-linecap:butt; stroke-linejoin:round; stroke-width:4; stroke-opacity:1; fill:none" points="
  1987.12,198.898 2279.55,198.898 2279.55,95.2176 1987.12,95.2176 1987.12,198.898 
  "/>
<polyline clip-path="url(#clip610)" style="stroke:#009af9; stroke-linecap:butt; stroke-linejoin:round; stroke-width:4; stroke-opacity:1; fill:none" points="
  2011.12,147.058 2155.12,147.058 
  "/>
<path clip-path="url(#clip610)" d="M2192.96 166.745 Q2191.16 171.375 2189.44 172.787 Q2187.73 174.199 2184.86 174.199 L2181.46 174.199 L2181.46 170.634 L2183.96 170.634 Q2185.72 170.634 2186.69 169.8 Q2187.66 168.967 2188.84 165.865 L2189.61 163.921 L2179.12 138.412 L2183.63 138.412 L2191.74 158.689 L2199.84 138.412 L2204.35 138.412 L2192.96 166.745 Z" fill="#000000" fill-rule="evenodd" fill-opacity="1" /><path clip-path="url(#clip610)" d="M2211.64 160.402 L2219.28 160.402 L2219.28 134.037 L2210.97 135.703 L2210.97 131.444 L2219.24 129.778 L2223.91 129.778 L2223.91 160.402 L2231.55 160.402 L2231.55 164.338 L2211.64 164.338 L2211.64 160.402 Z" fill="#000000" fill-rule="evenodd" fill-opacity="1" /></svg>
