<?xml version="1.0" encoding="utf-8"?>
<svg xmlns="http://www.w3.org/2000/svg" xmlns:xlink="http://www.w3.org/1999/xlink" width="600" height="400" viewBox="0 0 2400 1600">
<defs>
  <clipPath id="clip860">
    <rect x="0" y="0" width="2400" height="1600"/>
  </clipPath>
</defs>
<path clip-path="url(#clip860)" d="
M0 1600 L2400 1600 L2400 0 L0 0  Z
  " fill="#ffffff" fill-rule="evenodd" fill-opacity="1"/>
<defs>
  <clipPath id="clip861">
    <rect x="480" y="0" width="1681" height="1600"/>
  </clipPath>
</defs>
<path clip-path="url(#clip860)" d="
M156.598 1486.45 L2352.76 1486.45 L2352.76 47.2441 L156.598 47.2441  Z
  " fill="#ffffff" fill-rule="evenodd" fill-opacity="1"/>
<defs>
  <clipPath id="clip862">
    <rect x="156" y="47" width="2197" height="1440"/>
  </clipPath>
</defs>
<polyline clip-path="url(#clip862)" style="stroke:#000000; stroke-linecap:butt; stroke-linejoin:round; stroke-width:2; stroke-opacity:0.1; fill:none" points="
  548.91,1486.45 548.91,47.2441 
  "/>
<polyline clip-path="url(#clip862)" style="stroke:#000000; stroke-linecap:butt; stroke-linejoin:round; stroke-width:2; stroke-opacity:0.1; fill:none" points="
  1014.69,1486.45 1014.69,47.2441 
  "/>
<polyline clip-path="url(#clip862)" style="stroke:#000000; stroke-linecap:butt; stroke-linejoin:round; stroke-width:2; stroke-opacity:0.1; fill:none" points="
  1480.47,1486.45 1480.47,47.2441 
  "/>
<polyline clip-path="url(#clip862)" style="stroke:#000000; stroke-linecap:butt; stroke-linejoin:round; stroke-width:2; stroke-opacity:0.1; fill:none" points="
  1946.25,1486.45 1946.25,47.2441 
  "/>
<polyline clip-path="url(#clip860)" style="stroke:#000000; stroke-linecap:butt; stroke-linejoin:round; stroke-width:4; stroke-opacity:1; fill:none" points="
  156.598,1486.45 2352.76,1486.45 
  "/>
<polyline clip-path="url(#clip860)" style="stroke:#000000; stroke-linecap:butt; stroke-linejoin:round; stroke-width:4; stroke-opacity:1; fill:none" points="
  548.91,1486.45 548.91,1467.55 
  "/>
<polyline clip-path="url(#clip860)" style="stroke:#000000; stroke-linecap:butt; stroke-linejoin:round; stroke-width:4; stroke-opacity:1; fill:none" points="
  1014.69,1486.45 1014.69,1467.55 
  "/>
<polyline clip-path="url(#clip860)" style="stroke:#000000; stroke-linecap:butt; stroke-linejoin:round; stroke-width:4; stroke-opacity:1; fill:none" points="
  1480.47,1486.45 1480.47,1467.55 
  "/>
<polyline clip-path="url(#clip860)" style="stroke:#000000; stroke-linecap:butt; stroke-linejoin:round; stroke-width:4; stroke-opacity:1; fill:none" points="
  1946.25,1486.45 1946.25,1467.55 
  "/>
<path clip-path="url(#clip860)" d="M527.093 1517.37 Q523.482 1517.37 521.653 1520.93 Q519.847 1524.47 519.847 1531.6 Q519.847 1538.71 521.653 1542.27 Q523.482 1545.82 527.093 1545.82 Q530.727 1545.82 532.533 1542.27 Q534.361 1538.71 534.361 1531.6 Q534.361 1524.47 532.533 1520.93 Q530.727 1517.37 527.093 1517.37 M527.093 1513.66 Q532.903 1513.66 535.958 1518.27 Q539.037 1522.85 539.037 1531.6 Q539.037 1540.33 535.958 1544.94 Q532.903 1549.52 527.093 1549.52 Q521.283 1549.52 518.204 1544.94 Q515.148 1540.33 515.148 1531.6 Q515.148 1522.85 518.204 1518.27 Q521.283 1513.66 527.093 1513.66 Z" fill="#000000" fill-rule="evenodd" fill-opacity="1" /><path clip-path="url(#clip860)" d="M547.255 1542.97 L552.139 1542.97 L552.139 1548.85 L547.255 1548.85 L547.255 1542.97 Z" fill="#000000" fill-rule="evenodd" fill-opacity="1" /><path clip-path="url(#clip860)" d="M566.352 1544.91 L582.671 1544.91 L582.671 1548.85 L560.727 1548.85 L560.727 1544.91 Q563.389 1542.16 567.972 1537.53 Q572.579 1532.88 573.759 1531.53 Q576.005 1529.01 576.884 1527.27 Q577.787 1525.51 577.787 1523.82 Q577.787 1521.07 575.842 1519.33 Q573.921 1517.6 570.819 1517.6 Q568.62 1517.6 566.167 1518.36 Q563.736 1519.13 560.958 1520.68 L560.958 1515.95 Q563.782 1514.82 566.236 1514.24 Q568.69 1513.66 570.727 1513.66 Q576.097 1513.66 579.292 1516.35 Q582.486 1519.03 582.486 1523.52 Q582.486 1525.65 581.676 1527.57 Q580.889 1529.47 578.782 1532.07 Q578.204 1532.74 575.102 1535.95 Q572 1539.15 566.352 1544.91 Z" fill="#000000" fill-rule="evenodd" fill-opacity="1" /><path clip-path="url(#clip860)" d="M991.831 1517.37 Q988.22 1517.37 986.392 1520.93 Q984.586 1524.47 984.586 1531.6 Q984.586 1538.71 986.392 1542.27 Q988.22 1545.82 991.831 1545.82 Q995.466 1545.82 997.271 1542.27 Q999.1 1538.71 999.1 1531.6 Q999.1 1524.47 997.271 1520.93 Q995.466 1517.37 991.831 1517.37 M991.831 1513.66 Q997.642 1513.66 1000.7 1518.27 Q1003.78 1522.85 1003.78 1531.6 Q1003.78 1540.33 1000.7 1544.94 Q997.642 1549.52 991.831 1549.52 Q986.021 1549.52 982.943 1544.94 Q979.887 1540.33 979.887 1531.6 Q979.887 1522.85 982.943 1518.27 Q986.021 1513.66 991.831 1513.66 Z" fill="#000000" fill-rule="evenodd" fill-opacity="1" /><path clip-path="url(#clip860)" d="M1011.99 1542.97 L1016.88 1542.97 L1016.88 1548.85 L1011.99 1548.85 L1011.99 1542.97 Z" fill="#000000" fill-rule="evenodd" fill-opacity="1" /><path clip-path="url(#clip860)" d="M1039.91 1518.36 L1028.1 1536.81 L1039.91 1536.81 L1039.91 1518.36 M1038.68 1514.29 L1044.56 1514.29 L1044.56 1536.81 L1049.49 1536.81 L1049.49 1540.7 L1044.56 1540.7 L1044.56 1548.85 L1039.91 1548.85 L1039.91 1540.7 L1024.31 1540.7 L1024.31 1536.19 L1038.68 1514.29 Z" fill="#000000" fill-rule="evenodd" fill-opacity="1" /><path clip-path="url(#clip860)" d="M1457.77 1517.37 Q1454.16 1517.37 1452.33 1520.93 Q1450.53 1524.47 1450.53 1531.6 Q1450.53 1538.71 1452.33 1542.27 Q1454.16 1545.82 1457.77 1545.82 Q1461.41 1545.82 1463.21 1542.27 Q1465.04 1538.71 1465.04 1531.6 Q1465.04 1524.47 1463.21 1520.93 Q1461.41 1517.37 1457.77 1517.37 M1457.77 1513.66 Q1463.58 1513.66 1466.64 1518.27 Q1469.72 1522.85 1469.72 1531.6 Q1469.72 1540.33 1466.64 1544.94 Q1463.58 1549.52 1457.77 1549.52 Q1451.96 1549.52 1448.89 1544.94 Q1445.83 1540.33 1445.83 1531.6 Q1445.83 1522.85 1448.89 1518.27 Q1451.96 1513.66 1457.77 1513.66 Z" fill="#000000" fill-rule="evenodd" fill-opacity="1" /><path clip-path="url(#clip860)" d="M1477.94 1542.97 L1482.82 1542.97 L1482.82 1548.85 L1477.94 1548.85 L1477.94 1542.97 Z" fill="#000000" fill-rule="evenodd" fill-opacity="1" /><path clip-path="url(#clip860)" d="M1503.58 1529.7 Q1500.44 1529.7 1498.58 1531.86 Q1496.76 1534.01 1496.76 1537.76 Q1496.76 1541.49 1498.58 1543.66 Q1500.44 1545.82 1503.58 1545.82 Q1506.73 1545.82 1508.56 1543.66 Q1510.41 1541.49 1510.41 1537.76 Q1510.41 1534.01 1508.56 1531.86 Q1506.73 1529.7 1503.58 1529.7 M1512.87 1515.05 L1512.87 1519.31 Q1511.11 1518.48 1509.3 1518.04 Q1507.52 1517.6 1505.76 1517.6 Q1501.13 1517.6 1498.68 1520.72 Q1496.25 1523.85 1495.9 1530.17 Q1497.26 1528.15 1499.32 1527.09 Q1501.38 1526 1503.86 1526 Q1509.07 1526 1512.08 1529.17 Q1515.11 1532.32 1515.11 1537.76 Q1515.11 1543.08 1511.96 1546.3 Q1508.82 1549.52 1503.58 1549.52 Q1497.59 1549.52 1494.42 1544.94 Q1491.25 1540.33 1491.25 1531.6 Q1491.25 1523.41 1495.13 1518.55 Q1499.02 1513.66 1505.57 1513.66 Q1507.33 1513.66 1509.12 1514.01 Q1510.92 1514.36 1512.87 1515.05 Z" fill="#000000" fill-rule="evenodd" fill-opacity="1" /><path clip-path="url(#clip860)" d="M1923.68 1517.37 Q1920.07 1517.37 1918.24 1520.93 Q1916.44 1524.47 1916.44 1531.6 Q1916.44 1538.71 1918.24 1542.27 Q1920.07 1545.82 1923.68 1545.82 Q1927.32 1545.82 1929.12 1542.27 Q1930.95 1538.71 1930.95 1531.6 Q1930.95 1524.47 1929.12 1520.93 Q1927.32 1517.37 1923.68 1517.37 M1923.68 1513.66 Q1929.49 1513.66 1932.55 1518.27 Q1935.63 1522.85 1935.63 1531.6 Q1935.63 1540.33 1932.55 1544.94 Q1929.49 1549.52 1923.68 1549.52 Q1917.87 1549.52 1914.79 1544.94 Q1911.74 1540.33 1911.74 1531.6 Q1911.74 1522.85 1914.79 1518.27 Q1917.87 1513.66 1923.68 1513.66 Z" fill="#000000" fill-rule="evenodd" fill-opacity="1" /><path clip-path="url(#clip860)" d="M1943.84 1542.97 L1948.73 1542.97 L1948.73 1548.85 L1943.84 1548.85 L1943.84 1542.97 Z" fill="#000000" fill-rule="evenodd" fill-opacity="1" /><path clip-path="url(#clip860)" d="M1968.91 1532.44 Q1965.58 1532.44 1963.66 1534.22 Q1961.76 1536 1961.76 1539.13 Q1961.76 1542.25 1963.66 1544.03 Q1965.58 1545.82 1968.91 1545.82 Q1972.25 1545.82 1974.17 1544.03 Q1976.09 1542.23 1976.09 1539.13 Q1976.09 1536 1974.17 1534.22 Q1972.27 1532.44 1968.91 1532.44 M1964.24 1530.45 Q1961.23 1529.7 1959.54 1527.64 Q1957.87 1525.58 1957.87 1522.62 Q1957.87 1518.48 1960.81 1516.07 Q1963.77 1513.66 1968.91 1513.66 Q1974.07 1513.66 1977.01 1516.07 Q1979.95 1518.48 1979.95 1522.62 Q1979.95 1525.58 1978.26 1527.64 Q1976.6 1529.7 1973.61 1530.45 Q1976.99 1531.23 1978.87 1533.52 Q1980.76 1535.82 1980.76 1539.13 Q1980.76 1544.15 1977.69 1546.83 Q1974.63 1549.52 1968.91 1549.52 Q1963.2 1549.52 1960.12 1546.83 Q1957.06 1544.15 1957.06 1539.13 Q1957.06 1535.82 1958.96 1533.52 Q1960.86 1531.23 1964.24 1530.45 M1962.52 1523.06 Q1962.52 1525.75 1964.19 1527.25 Q1965.88 1528.76 1968.91 1528.76 Q1971.92 1528.76 1973.61 1527.25 Q1975.32 1525.75 1975.32 1523.06 Q1975.32 1520.38 1973.61 1518.87 Q1971.92 1517.37 1968.91 1517.37 Q1965.88 1517.37 1964.19 1518.87 Q1962.52 1520.38 1962.52 1523.06 Z" fill="#000000" fill-rule="evenodd" fill-opacity="1" /><polyline clip-path="url(#clip862)" style="stroke:#000000; stroke-linecap:butt; stroke-linejoin:round; stroke-width:2; stroke-opacity:0.1; fill:none" points="
  156.598,1209.52 2352.76,1209.52 
  "/>
<polyline clip-path="url(#clip862)" style="stroke:#000000; stroke-linecap:butt; stroke-linejoin:round; stroke-width:2; stroke-opacity:0.1; fill:none" points="
  156.598,921.793 2352.76,921.793 
  "/>
<polyline clip-path="url(#clip862)" style="stroke:#000000; stroke-linecap:butt; stroke-linejoin:round; stroke-width:2; stroke-opacity:0.1; fill:none" points="
  156.598,634.063 2352.76,634.063 
  "/>
<polyline clip-path="url(#clip862)" style="stroke:#000000; stroke-linecap:butt; stroke-linejoin:round; stroke-width:2; stroke-opacity:0.1; fill:none" points="
  156.598,346.333 2352.76,346.333 
  "/>
<polyline clip-path="url(#clip862)" style="stroke:#000000; stroke-linecap:butt; stroke-linejoin:round; stroke-width:2; stroke-opacity:0.1; fill:none" points="
  156.598,58.6036 2352.76,58.6036 
  "/>
<polyline clip-path="url(#clip860)" style="stroke:#000000; stroke-linecap:butt; stroke-linejoin:round; stroke-width:4; stroke-opacity:1; fill:none" points="
  156.598,1486.45 156.598,47.2441 
  "/>
<polyline clip-path="url(#clip860)" style="stroke:#000000; stroke-linecap:butt; stroke-linejoin:round; stroke-width:4; stroke-opacity:1; fill:none" points="
  156.598,1209.52 175.496,1209.52 
  "/>
<polyline clip-path="url(#clip860)" style="stroke:#000000; stroke-linecap:butt; stroke-linejoin:round; stroke-width:4; stroke-opacity:1; fill:none" points="
  156.598,921.793 175.496,921.793 
  "/>
<polyline clip-path="url(#clip860)" style="stroke:#000000; stroke-linecap:butt; stroke-linejoin:round; stroke-width:4; stroke-opacity:1; fill:none" points="
  156.598,634.063 175.496,634.063 
  "/>
<polyline clip-path="url(#clip860)" style="stroke:#000000; stroke-linecap:butt; stroke-linejoin:round; stroke-width:4; stroke-opacity:1; fill:none" points="
  156.598,346.333 175.496,346.333 
  "/>
<polyline clip-path="url(#clip860)" style="stroke:#000000; stroke-linecap:butt; stroke-linejoin:round; stroke-width:4; stroke-opacity:1; fill:none" points="
  156.598,58.6036 175.496,58.6036 
  "/>
<path clip-path="url(#clip860)" d="M65.0198 1195.32 Q61.4087 1195.32 59.58 1198.89 Q57.7745 1202.43 57.7745 1209.56 Q57.7745 1216.66 59.58 1220.23 Q61.4087 1223.77 65.0198 1223.77 Q68.6541 1223.77 70.4596 1220.23 Q72.2883 1216.66 72.2883 1209.56 Q72.2883 1202.43 70.4596 1198.89 Q68.6541 1195.32 65.0198 1195.32 M65.0198 1191.62 Q70.83 1191.62 73.8855 1196.22 Q76.9642 1200.81 76.9642 1209.56 Q76.9642 1218.28 73.8855 1222.89 Q70.83 1227.47 65.0198 1227.47 Q59.2097 1227.47 56.131 1222.89 Q53.0754 1218.28 53.0754 1209.56 Q53.0754 1200.81 56.131 1196.22 Q59.2097 1191.62 65.0198 1191.62 Z" fill="#000000" fill-rule="evenodd" fill-opacity="1" /><path clip-path="url(#clip860)" d="M85.1818 1220.92 L90.066 1220.92 L90.066 1226.8 L85.1818 1226.8 L85.1818 1220.92 Z" fill="#000000" fill-rule="evenodd" fill-opacity="1" /><path clip-path="url(#clip860)" d="M104.279 1222.87 L120.598 1222.87 L120.598 1226.8 L98.6539 1226.8 L98.6539 1222.87 Q101.316 1220.11 105.899 1215.48 Q110.506 1210.83 111.686 1209.49 Q113.932 1206.97 114.811 1205.23 Q115.714 1203.47 115.714 1201.78 Q115.714 1199.03 113.77 1197.29 Q111.848 1195.55 108.746 1195.55 Q106.547 1195.55 104.094 1196.32 Q101.663 1197.08 98.8854 1198.63 L98.8854 1193.91 Q101.709 1192.78 104.163 1192.2 Q106.617 1191.62 108.654 1191.62 Q114.024 1191.62 117.219 1194.3 Q120.413 1196.99 120.413 1201.48 Q120.413 1203.61 119.603 1205.53 Q118.816 1207.43 116.709 1210.02 Q116.131 1210.69 113.029 1213.91 Q109.927 1217.1 104.279 1222.87 Z" fill="#000000" fill-rule="evenodd" fill-opacity="1" /><path clip-path="url(#clip860)" d="M62.9365 907.592 Q59.3254 907.592 57.4967 911.157 Q55.6912 914.698 55.6912 921.828 Q55.6912 928.934 57.4967 932.499 Q59.3254 936.041 62.9365 936.041 Q66.5707 936.041 68.3763 932.499 Q70.205 928.934 70.205 921.828 Q70.205 914.698 68.3763 911.157 Q66.5707 907.592 62.9365 907.592 M62.9365 903.888 Q68.7467 903.888 71.8022 908.495 Q74.8809 913.078 74.8809 921.828 Q74.8809 930.555 71.8022 935.161 Q68.7467 939.744 62.9365 939.744 Q57.1264 939.744 54.0477 935.161 Q50.9921 930.555 50.9921 921.828 Q50.9921 913.078 54.0477 908.495 Q57.1264 903.888 62.9365 903.888 Z" fill="#000000" fill-rule="evenodd" fill-opacity="1" /><path clip-path="url(#clip860)" d="M83.0984 933.193 L87.9827 933.193 L87.9827 939.073 L83.0984 939.073 L83.0984 933.193 Z" fill="#000000" fill-rule="evenodd" fill-opacity="1" /><path clip-path="url(#clip860)" d="M111.015 908.587 L99.2095 927.036 L111.015 927.036 L111.015 908.587 M109.788 904.513 L115.668 904.513 L115.668 927.036 L120.598 927.036 L120.598 930.925 L115.668 930.925 L115.668 939.073 L111.015 939.073 L111.015 930.925 L95.4132 930.925 L95.4132 926.411 L109.788 904.513 Z" fill="#000000" fill-rule="evenodd" fill-opacity="1" /><path clip-path="url(#clip860)" d="M63.2606 619.862 Q59.6495 619.862 57.8208 623.427 Q56.0152 626.968 56.0152 634.098 Q56.0152 641.204 57.8208 644.769 Q59.6495 648.311 63.2606 648.311 Q66.8948 648.311 68.7004 644.769 Q70.5291 641.204 70.5291 634.098 Q70.5291 626.968 68.7004 623.427 Q66.8948 619.862 63.2606 619.862 M63.2606 616.158 Q69.0707 616.158 72.1263 620.765 Q75.205 625.348 75.205 634.098 Q75.205 642.825 72.1263 647.431 Q69.0707 652.015 63.2606 652.015 Q57.4504 652.015 54.3717 647.431 Q51.3162 642.825 51.3162 634.098 Q51.3162 625.348 54.3717 620.765 Q57.4504 616.158 63.2606 616.158 Z" fill="#000000" fill-rule="evenodd" fill-opacity="1" /><path clip-path="url(#clip860)" d="M83.4225 645.464 L88.3067 645.464 L88.3067 651.343 L83.4225 651.343 L83.4225 645.464 Z" fill="#000000" fill-rule="evenodd" fill-opacity="1" /><path clip-path="url(#clip860)" d="M109.071 632.2 Q105.922 632.2 104.071 634.353 Q102.242 636.505 102.242 640.255 Q102.242 643.982 104.071 646.158 Q105.922 648.311 109.071 648.311 Q112.219 648.311 114.047 646.158 Q115.899 643.982 115.899 640.255 Q115.899 636.505 114.047 634.353 Q112.219 632.2 109.071 632.2 M118.353 617.547 L118.353 621.806 Q116.594 620.973 114.788 620.533 Q113.006 620.093 111.246 620.093 Q106.617 620.093 104.163 623.218 Q101.733 626.343 101.385 632.663 Q102.751 630.649 104.811 629.584 Q106.871 628.496 109.348 628.496 Q114.557 628.496 117.566 631.667 Q120.598 634.816 120.598 640.255 Q120.598 645.579 117.45 648.797 Q114.302 652.015 109.071 652.015 Q103.075 652.015 99.9039 647.431 Q96.7326 642.825 96.7326 634.098 Q96.7326 625.904 100.621 621.043 Q104.51 616.158 111.061 616.158 Q112.82 616.158 114.603 616.505 Q116.408 616.853 118.353 617.547 Z" fill="#000000" fill-rule="evenodd" fill-opacity="1" /><path clip-path="url(#clip860)" d="M63.5152 332.132 Q59.9041 332.132 58.0754 335.697 Q56.2699 339.239 56.2699 346.368 Q56.2699 353.475 58.0754 357.039 Q59.9041 360.581 63.5152 360.581 Q67.1494 360.581 68.955 357.039 Q70.7837 353.475 70.7837 346.368 Q70.7837 339.239 68.955 335.697 Q67.1494 332.132 63.5152 332.132 M63.5152 328.428 Q69.3254 328.428 72.3809 333.035 Q75.4596 337.618 75.4596 346.368 Q75.4596 355.095 72.3809 359.701 Q69.3254 364.285 63.5152 364.285 Q57.7051 364.285 54.6264 359.701 Q51.5708 355.095 51.5708 346.368 Q51.5708 337.618 54.6264 333.035 Q57.7051 328.428 63.5152 328.428 Z" fill="#000000" fill-rule="evenodd" fill-opacity="1" /><path clip-path="url(#clip860)" d="M83.6771 357.734 L88.5614 357.734 L88.5614 363.613 L83.6771 363.613 L83.6771 357.734 Z" fill="#000000" fill-rule="evenodd" fill-opacity="1" /><path clip-path="url(#clip860)" d="M108.746 347.201 Q105.413 347.201 103.492 348.984 Q101.594 350.766 101.594 353.891 Q101.594 357.016 103.492 358.799 Q105.413 360.581 108.746 360.581 Q112.08 360.581 114.001 358.799 Q115.922 356.993 115.922 353.891 Q115.922 350.766 114.001 348.984 Q112.103 347.201 108.746 347.201 M104.071 345.211 Q101.061 344.47 99.3715 342.41 Q97.7048 340.35 97.7048 337.387 Q97.7048 333.243 100.645 330.836 Q103.608 328.428 108.746 328.428 Q113.908 328.428 116.848 330.836 Q119.788 333.243 119.788 337.387 Q119.788 340.35 118.098 342.41 Q116.432 344.47 113.445 345.211 Q116.825 345.998 118.7 348.289 Q120.598 350.581 120.598 353.891 Q120.598 358.914 117.52 361.6 Q114.464 364.285 108.746 364.285 Q103.029 364.285 99.9502 361.6 Q96.8947 358.914 96.8947 353.891 Q96.8947 350.581 98.7928 348.289 Q100.691 345.998 104.071 345.211 M102.358 337.827 Q102.358 340.512 104.024 342.016 Q105.714 343.521 108.746 343.521 Q111.756 343.521 113.445 342.016 Q115.158 340.512 115.158 337.827 Q115.158 335.141 113.445 333.637 Q111.756 332.132 108.746 332.132 Q105.714 332.132 104.024 333.637 Q102.358 335.141 102.358 337.827 Z" fill="#000000" fill-rule="evenodd" fill-opacity="1" /><path clip-path="url(#clip860)" d="M54.2328 71.9485 L61.8717 71.9485 L61.8717 45.5829 L53.5616 47.2495 L53.5616 42.9903 L61.8254 41.3236 L66.5013 41.3236 L66.5013 71.9485 L74.1402 71.9485 L74.1402 75.8836 L54.2328 75.8836 L54.2328 71.9485 Z" fill="#000000" fill-rule="evenodd" fill-opacity="1" /><path clip-path="url(#clip860)" d="M83.5845 70.004 L88.4688 70.004 L88.4688 75.8836 L83.5845 75.8836 L83.5845 70.004 Z" fill="#000000" fill-rule="evenodd" fill-opacity="1" /><path clip-path="url(#clip860)" d="M108.654 44.4023 Q105.043 44.4023 103.214 47.9671 Q101.409 51.5088 101.409 58.6383 Q101.409 65.7448 103.214 69.3096 Q105.043 72.8512 108.654 72.8512 Q112.288 72.8512 114.094 69.3096 Q115.922 65.7448 115.922 58.6383 Q115.922 51.5088 114.094 47.9671 Q112.288 44.4023 108.654 44.4023 M108.654 40.6986 Q114.464 40.6986 117.52 45.3051 Q120.598 49.8884 120.598 58.6383 Q120.598 67.3652 117.52 71.9716 Q114.464 76.5549 108.654 76.5549 Q102.844 76.5549 99.765 71.9716 Q96.7095 67.3652 96.7095 58.6383 Q96.7095 49.8884 99.765 45.3051 Q102.844 40.6986 108.654 40.6986 Z" fill="#000000" fill-rule="evenodd" fill-opacity="1" /><polyline clip-path="url(#clip862)" style="stroke:#009af9; stroke-linecap:butt; stroke-linejoin:round; stroke-width:4; stroke-opacity:1; fill:none" points="
  218.754,1116.75 570.793,244.553 1195.7,90.0872 1515.43,1229.81 2087.73,704.211 1916.28,1445.72 1877.72,691.859 1013.79,87.9763 1266.66,226.186 2290.6,879.536 
  
  "/>
<path clip-path="url(#clip860)" d="
M1987.12 198.898 L2279.55 198.898 L2279.55 95.2176 L1987.12 95.2176  Z
  " fill="#ffffff" fill-rule="evenodd" fill-opacity="1"/>
<polyline clip-path="url(#clip860)" style="stroke:#000000; stroke-linecap:butt; stroke-linejoin:round; stroke-width:4; stroke-opacity:1; fill:none" points="
  1987.12,198.898 2279.55,198.898 2279.55,95.2176 1987.12,95.2176 1987.12,198.898 
  "/>
<polyline clip-path="url(#clip860)" style="stroke:#009af9; stroke-linecap:butt; stroke-linejoin:round; stroke-width:4; stroke-opacity:1; fill:none" points="
  2011.12,147.058 2155.12,147.058 
  "/>
<path clip-path="url(#clip860)" d="M2192.96 166.745 Q2191.16 171.375 2189.44 172.787 Q2187.73 174.199 2184.86 174.199 L2181.46 174.199 L2181.46 170.634 L2183.96 170.634 Q2185.72 170.634 2186.69 169.8 Q2187.66 168.967 2188.84 165.865 L2189.61 163.921 L2179.12 138.412 L2183.63 138.412 L2191.74 158.689 L2199.84 138.412 L2204.35 138.412 L2192.96 166.745 Z" fill="#000000" fill-rule="evenodd" fill-opacity="1" /><path clip-path="url(#clip860)" d="M2211.64 160.402 L2219.28 160.402 L2219.28 134.037 L2210.97 135.703 L2210.97 131.444 L2219.24 129.778 L2223.91 129.778 L2223.91 160.402 L2231.55 160.402 L2231.55 164.338 L2211.64 164.338 L2211.64 160.402 Z" fill="#000000" fill-rule="evenodd" fill-opacity="1" /></svg>
