<?xml version="1.0" encoding="utf-8"?>
<svg xmlns="http://www.w3.org/2000/svg" xmlns:xlink="http://www.w3.org/1999/xlink" width="600" height="400" viewBox="0 0 2400 1600">
<defs>
  <clipPath id="clip870">
    <rect x="0" y="0" width="2400" height="1600"/>
  </clipPath>
</defs>
<path clip-path="url(#clip870)" d="
M0 1600 L2400 1600 L2400 0 L0 0  Z
  " fill="#ffffff" fill-rule="evenodd" fill-opacity="1"/>
<defs>
  <clipPath id="clip871">
    <rect x="480" y="0" width="1681" height="1600"/>
  </clipPath>
</defs>
<path clip-path="url(#clip870)" d="
M156.598 1486.45 L2352.76 1486.45 L2352.76 47.2441 L156.598 47.2441  Z
  " fill="#ffffff" fill-rule="evenodd" fill-opacity="1"/>
<defs>
  <clipPath id="clip872">
    <rect x="156" y="47" width="2197" height="1440"/>
  </clipPath>
</defs>
<polyline clip-path="url(#clip872)" style="stroke:#000000; stroke-linecap:butt; stroke-linejoin:round; stroke-width:2; stroke-opacity:0.1; fill:none" points="
  359.426,1486.45 359.426,47.2441 
  "/>
<polyline clip-path="url(#clip872)" style="stroke:#000000; stroke-linecap:butt; stroke-linejoin:round; stroke-width:2; stroke-opacity:0.1; fill:none" points="
  651.097,1486.45 651.097,47.2441 
  "/>
<polyline clip-path="url(#clip872)" style="stroke:#000000; stroke-linecap:butt; stroke-linejoin:round; stroke-width:2; stroke-opacity:0.1; fill:none" points="
  942.768,1486.45 942.768,47.2441 
  "/>
<polyline clip-path="url(#clip872)" style="stroke:#000000; stroke-linecap:butt; stroke-linejoin:round; stroke-width:2; stroke-opacity:0.1; fill:none" points="
  1234.44,1486.45 1234.44,47.2441 
  "/>
<polyline clip-path="url(#clip872)" style="stroke:#000000; stroke-linecap:butt; stroke-linejoin:round; stroke-width:2; stroke-opacity:0.1; fill:none" points="
  1526.11,1486.45 1526.11,47.2441 
  "/>
<polyline clip-path="url(#clip872)" style="stroke:#000000; stroke-linecap:butt; stroke-linejoin:round; stroke-width:2; stroke-opacity:0.1; fill:none" points="
  1817.78,1486.45 1817.78,47.2441 
  "/>
<polyline clip-path="url(#clip872)" style="stroke:#000000; stroke-linecap:butt; stroke-linejoin:round; stroke-width:2; stroke-opacity:0.1; fill:none" points="
  2109.45,1486.45 2109.45,47.2441 
  "/>
<polyline clip-path="url(#clip870)" style="stroke:#000000; stroke-linecap:butt; stroke-linejoin:round; stroke-width:4; stroke-opacity:1; fill:none" points="
  156.598,1486.45 2352.76,1486.45 
  "/>
<polyline clip-path="url(#clip870)" style="stroke:#000000; stroke-linecap:butt; stroke-linejoin:round; stroke-width:4; stroke-opacity:1; fill:none" points="
  359.426,1486.45 359.426,1467.55 
  "/>
<polyline clip-path="url(#clip870)" style="stroke:#000000; stroke-linecap:butt; stroke-linejoin:round; stroke-width:4; stroke-opacity:1; fill:none" points="
  651.097,1486.45 651.097,1467.55 
  "/>
<polyline clip-path="url(#clip870)" style="stroke:#000000; stroke-linecap:butt; stroke-linejoin:round; stroke-width:4; stroke-opacity:1; fill:none" points="
  942.768,1486.45 942.768,1467.55 
  "/>
<polyline clip-path="url(#clip870)" style="stroke:#000000; stroke-linecap:butt; stroke-linejoin:round; stroke-width:4; stroke-opacity:1; fill:none" points="
  1234.44,1486.45 1234.44,1467.55 
  "/>
<polyline clip-path="url(#clip870)" style="stroke:#000000; stroke-linecap:butt; stroke-linejoin:round; stroke-width:4; stroke-opacity:1; fill:none" points="
  1526.11,1486.45 1526.11,1467.55 
  "/>
<polyline clip-path="url(#clip870)" style="stroke:#000000; stroke-linecap:butt; stroke-linejoin:round; stroke-width:4; stroke-opacity:1; fill:none" points="
  1817.78,1486.45 1817.78,1467.55 
  "/>
<polyline clip-path="url(#clip870)" style="stroke:#000000; stroke-linecap:butt; stroke-linejoin:round; stroke-width:4; stroke-opacity:1; fill:none" points="
  2109.45,1486.45 2109.45,1467.55 
  "/>
<path clip-path="url(#clip870)" d="M337.424 1517.37 Q333.813 1517.37 331.984 1520.93 Q330.179 1524.47 330.179 1531.6 Q330.179 1538.71 331.984 1542.27 Q333.813 1545.82 337.424 1545.82 Q341.058 1545.82 342.864 1542.27 Q344.692 1538.71 344.692 1531.6 Q344.692 1524.47 342.864 1520.93 Q341.058 1517.37 337.424 1517.37 M337.424 1513.66 Q343.234 1513.66 346.29 1518.27 Q349.368 1522.85 349.368 1531.6 Q349.368 1540.33 346.29 1544.94 Q343.234 1549.52 337.424 1549.52 Q331.614 1549.52 328.535 1544.94 Q325.479 1540.33 325.479 1531.6 Q325.479 1522.85 328.535 1518.27 Q331.614 1513.66 337.424 1513.66 Z" fill="#000000" fill-rule="evenodd" fill-opacity="1" /><path clip-path="url(#clip870)" d="M357.586 1542.97 L362.47 1542.97 L362.47 1548.85 L357.586 1548.85 L357.586 1542.97 Z" fill="#000000" fill-rule="evenodd" fill-opacity="1" /><path clip-path="url(#clip870)" d="M373.465 1544.91 L381.104 1544.91 L381.104 1518.55 L372.794 1520.21 L372.794 1515.95 L381.058 1514.29 L385.734 1514.29 L385.734 1544.91 L393.373 1544.91 L393.373 1548.85 L373.465 1548.85 L373.465 1544.91 Z" fill="#000000" fill-rule="evenodd" fill-opacity="1" /><path clip-path="url(#clip870)" d="M629.28 1517.37 Q625.669 1517.37 623.84 1520.93 Q622.034 1524.47 622.034 1531.6 Q622.034 1538.71 623.84 1542.27 Q625.669 1545.82 629.28 1545.82 Q632.914 1545.82 634.72 1542.27 Q636.548 1538.71 636.548 1531.6 Q636.548 1524.47 634.72 1520.93 Q632.914 1517.37 629.28 1517.37 M629.28 1513.66 Q635.09 1513.66 638.146 1518.27 Q641.224 1522.85 641.224 1531.6 Q641.224 1540.33 638.146 1544.94 Q635.09 1549.52 629.28 1549.52 Q623.47 1549.52 620.391 1544.94 Q617.335 1540.33 617.335 1531.6 Q617.335 1522.85 620.391 1518.27 Q623.47 1513.66 629.28 1513.66 Z" fill="#000000" fill-rule="evenodd" fill-opacity="1" /><path clip-path="url(#clip870)" d="M649.442 1542.97 L654.326 1542.97 L654.326 1548.85 L649.442 1548.85 L649.442 1542.97 Z" fill="#000000" fill-rule="evenodd" fill-opacity="1" /><path clip-path="url(#clip870)" d="M668.539 1544.91 L684.858 1544.91 L684.858 1548.85 L662.914 1548.85 L662.914 1544.91 Q665.576 1542.16 670.159 1537.53 Q674.766 1532.88 675.946 1531.53 Q678.192 1529.01 679.071 1527.27 Q679.974 1525.51 679.974 1523.82 Q679.974 1521.07 678.03 1519.33 Q676.108 1517.6 673.006 1517.6 Q670.807 1517.6 668.354 1518.36 Q665.923 1519.13 663.145 1520.68 L663.145 1515.95 Q665.969 1514.82 668.423 1514.24 Q670.877 1513.66 672.914 1513.66 Q678.284 1513.66 681.479 1516.35 Q684.673 1519.03 684.673 1523.52 Q684.673 1525.65 683.863 1527.57 Q683.076 1529.47 680.969 1532.07 Q680.391 1532.74 677.289 1535.95 Q674.187 1539.15 668.539 1544.91 Z" fill="#000000" fill-rule="evenodd" fill-opacity="1" /><path clip-path="url(#clip870)" d="M920.476 1517.37 Q916.865 1517.37 915.036 1520.93 Q913.231 1524.47 913.231 1531.6 Q913.231 1538.71 915.036 1542.27 Q916.865 1545.82 920.476 1545.82 Q924.11 1545.82 925.916 1542.27 Q927.745 1538.71 927.745 1531.6 Q927.745 1524.47 925.916 1520.93 Q924.11 1517.37 920.476 1517.37 M920.476 1513.66 Q926.286 1513.66 929.342 1518.27 Q932.42 1522.85 932.42 1531.6 Q932.42 1540.33 929.342 1544.94 Q926.286 1549.52 920.476 1549.52 Q914.666 1549.52 911.587 1544.94 Q908.532 1540.33 908.532 1531.6 Q908.532 1522.85 911.587 1518.27 Q914.666 1513.66 920.476 1513.66 Z" fill="#000000" fill-rule="evenodd" fill-opacity="1" /><path clip-path="url(#clip870)" d="M940.638 1542.97 L945.522 1542.97 L945.522 1548.85 L940.638 1548.85 L940.638 1542.97 Z" fill="#000000" fill-rule="evenodd" fill-opacity="1" /><path clip-path="url(#clip870)" d="M969.874 1530.21 Q973.23 1530.93 975.105 1533.2 Q977.004 1535.47 977.004 1538.8 Q977.004 1543.92 973.485 1546.72 Q969.967 1549.52 963.485 1549.52 Q961.309 1549.52 958.994 1549.08 Q956.703 1548.66 954.249 1547.81 L954.249 1543.29 Q956.193 1544.43 958.508 1545.01 Q960.823 1545.58 963.346 1545.58 Q967.744 1545.58 970.036 1543.85 Q972.351 1542.11 972.351 1538.8 Q972.351 1535.75 970.198 1534.03 Q968.068 1532.3 964.249 1532.3 L960.221 1532.3 L960.221 1528.45 L964.434 1528.45 Q967.883 1528.45 969.712 1527.09 Q971.541 1525.7 971.541 1523.11 Q971.541 1520.45 969.642 1519.03 Q967.768 1517.6 964.249 1517.6 Q962.328 1517.6 960.129 1518.01 Q957.93 1518.43 955.291 1519.31 L955.291 1515.14 Q957.953 1514.4 960.268 1514.03 Q962.605 1513.66 964.666 1513.66 Q969.99 1513.66 973.092 1516.09 Q976.193 1518.5 976.193 1522.62 Q976.193 1525.49 974.55 1527.48 Q972.906 1529.45 969.874 1530.21 Z" fill="#000000" fill-rule="evenodd" fill-opacity="1" /><path clip-path="url(#clip870)" d="M1211.58 1517.37 Q1207.97 1517.37 1206.14 1520.93 Q1204.33 1524.47 1204.33 1531.6 Q1204.33 1538.71 1206.14 1542.27 Q1207.97 1545.82 1211.58 1545.82 Q1215.21 1545.82 1217.02 1542.27 Q1218.85 1538.71 1218.85 1531.6 Q1218.85 1524.47 1217.02 1520.93 Q1215.21 1517.37 1211.58 1517.37 M1211.58 1513.66 Q1217.39 1513.66 1220.45 1518.27 Q1223.52 1522.85 1223.52 1531.6 Q1223.52 1540.33 1220.45 1544.94 Q1217.39 1549.52 1211.58 1549.52 Q1205.77 1549.52 1202.69 1544.94 Q1199.64 1540.33 1199.64 1531.6 Q1199.64 1522.85 1202.69 1518.27 Q1205.77 1513.66 1211.58 1513.66 Z" fill="#000000" fill-rule="evenodd" fill-opacity="1" /><path clip-path="url(#clip870)" d="M1231.74 1542.97 L1236.63 1542.97 L1236.63 1548.85 L1231.74 1548.85 L1231.74 1542.97 Z" fill="#000000" fill-rule="evenodd" fill-opacity="1" /><path clip-path="url(#clip870)" d="M1259.66 1518.36 L1247.85 1536.81 L1259.66 1536.81 L1259.66 1518.36 M1258.43 1514.29 L1264.31 1514.29 L1264.31 1536.81 L1269.24 1536.81 L1269.24 1540.7 L1264.31 1540.7 L1264.31 1548.85 L1259.66 1548.85 L1259.66 1540.7 L1244.06 1540.7 L1244.06 1536.19 L1258.43 1514.29 Z" fill="#000000" fill-rule="evenodd" fill-opacity="1" /><path clip-path="url(#clip870)" d="M1503.99 1517.37 Q1500.38 1517.37 1498.55 1520.93 Q1496.75 1524.47 1496.75 1531.6 Q1496.75 1538.71 1498.55 1542.27 Q1500.38 1545.82 1503.99 1545.82 Q1507.63 1545.82 1509.43 1542.27 Q1511.26 1538.71 1511.26 1531.6 Q1511.26 1524.47 1509.43 1520.93 Q1507.63 1517.37 1503.99 1517.37 M1503.99 1513.66 Q1509.8 1513.66 1512.86 1518.27 Q1515.94 1522.85 1515.94 1531.6 Q1515.94 1540.33 1512.86 1544.94 Q1509.8 1549.52 1503.99 1549.52 Q1498.18 1549.52 1495.1 1544.94 Q1492.05 1540.33 1492.05 1531.6 Q1492.05 1522.85 1495.1 1518.27 Q1498.18 1513.66 1503.99 1513.66 Z" fill="#000000" fill-rule="evenodd" fill-opacity="1" /><path clip-path="url(#clip870)" d="M1524.15 1542.97 L1529.04 1542.97 L1529.04 1548.85 L1524.15 1548.85 L1524.15 1542.97 Z" fill="#000000" fill-rule="evenodd" fill-opacity="1" /><path clip-path="url(#clip870)" d="M1539.27 1514.29 L1557.63 1514.29 L1557.63 1518.22 L1543.55 1518.22 L1543.55 1526.7 Q1544.57 1526.35 1545.59 1526.19 Q1546.61 1526 1547.63 1526 Q1553.41 1526 1556.79 1529.17 Q1560.17 1532.34 1560.17 1537.76 Q1560.17 1543.34 1556.7 1546.44 Q1553.23 1549.52 1546.91 1549.52 Q1544.73 1549.52 1542.46 1549.15 Q1540.22 1548.78 1537.81 1548.04 L1537.81 1543.34 Q1539.89 1544.47 1542.12 1545.03 Q1544.34 1545.58 1546.82 1545.58 Q1550.82 1545.58 1553.16 1543.48 Q1555.5 1541.37 1555.5 1537.76 Q1555.5 1534.15 1553.16 1532.04 Q1550.82 1529.94 1546.82 1529.94 Q1544.94 1529.94 1543.07 1530.35 Q1541.21 1530.77 1539.27 1531.65 L1539.27 1514.29 Z" fill="#000000" fill-rule="evenodd" fill-opacity="1" /><path clip-path="url(#clip870)" d="M1795.08 1517.37 Q1791.47 1517.37 1789.64 1520.93 Q1787.84 1524.47 1787.84 1531.6 Q1787.84 1538.71 1789.64 1542.27 Q1791.47 1545.82 1795.08 1545.82 Q1798.72 1545.82 1800.52 1542.27 Q1802.35 1538.71 1802.35 1531.6 Q1802.35 1524.47 1800.52 1520.93 Q1798.72 1517.37 1795.08 1517.37 M1795.08 1513.66 Q1800.89 1513.66 1803.95 1518.27 Q1807.03 1522.85 1807.03 1531.6 Q1807.03 1540.33 1803.95 1544.94 Q1800.89 1549.52 1795.08 1549.52 Q1789.27 1549.52 1786.19 1544.94 Q1783.14 1540.33 1783.14 1531.6 Q1783.14 1522.85 1786.19 1518.27 Q1789.27 1513.66 1795.08 1513.66 Z" fill="#000000" fill-rule="evenodd" fill-opacity="1" /><path clip-path="url(#clip870)" d="M1815.25 1542.97 L1820.13 1542.97 L1820.13 1548.85 L1815.25 1548.85 L1815.25 1542.97 Z" fill="#000000" fill-rule="evenodd" fill-opacity="1" /><path clip-path="url(#clip870)" d="M1840.89 1529.7 Q1837.75 1529.7 1835.89 1531.86 Q1834.06 1534.01 1834.06 1537.76 Q1834.06 1541.49 1835.89 1543.66 Q1837.75 1545.82 1840.89 1545.82 Q1844.04 1545.82 1845.87 1543.66 Q1847.72 1541.49 1847.72 1537.76 Q1847.72 1534.01 1845.87 1531.86 Q1844.04 1529.7 1840.89 1529.7 M1850.18 1515.05 L1850.18 1519.31 Q1848.42 1518.48 1846.61 1518.04 Q1844.83 1517.6 1843.07 1517.6 Q1838.44 1517.6 1835.99 1520.72 Q1833.56 1523.85 1833.21 1530.17 Q1834.57 1528.15 1836.63 1527.09 Q1838.69 1526 1841.17 1526 Q1846.38 1526 1849.39 1529.17 Q1852.42 1532.32 1852.42 1537.76 Q1852.42 1543.08 1849.27 1546.3 Q1846.12 1549.52 1840.89 1549.52 Q1834.9 1549.52 1831.73 1544.94 Q1828.56 1540.33 1828.56 1531.6 Q1828.56 1523.41 1832.44 1518.55 Q1836.33 1513.66 1842.88 1513.66 Q1844.64 1513.66 1846.43 1514.01 Q1848.23 1514.36 1850.18 1515.05 Z" fill="#000000" fill-rule="evenodd" fill-opacity="1" /><path clip-path="url(#clip870)" d="M2087.29 1517.37 Q2083.68 1517.37 2081.85 1520.93 Q2080.04 1524.47 2080.04 1531.6 Q2080.04 1538.71 2081.85 1542.27 Q2083.68 1545.82 2087.29 1545.82 Q2090.92 1545.82 2092.73 1542.27 Q2094.56 1538.71 2094.56 1531.6 Q2094.56 1524.47 2092.73 1520.93 Q2090.92 1517.37 2087.29 1517.37 M2087.29 1513.66 Q2093.1 1513.66 2096.15 1518.27 Q2099.23 1522.85 2099.23 1531.6 Q2099.23 1540.33 2096.15 1544.94 Q2093.1 1549.52 2087.29 1549.52 Q2081.48 1549.52 2078.4 1544.94 Q2075.34 1540.33 2075.34 1531.6 Q2075.34 1522.85 2078.4 1518.27 Q2081.48 1513.66 2087.29 1513.66 Z" fill="#000000" fill-rule="evenodd" fill-opacity="1" /><path clip-path="url(#clip870)" d="M2107.45 1542.97 L2112.33 1542.97 L2112.33 1548.85 L2107.45 1548.85 L2107.45 1542.97 Z" fill="#000000" fill-rule="evenodd" fill-opacity="1" /><path clip-path="url(#clip870)" d="M2121.34 1514.29 L2143.56 1514.29 L2143.56 1516.28 L2131.01 1548.85 L2126.13 1548.85 L2137.93 1518.22 L2121.34 1518.22 L2121.34 1514.29 Z" fill="#000000" fill-rule="evenodd" fill-opacity="1" /><polyline clip-path="url(#clip872)" style="stroke:#000000; stroke-linecap:butt; stroke-linejoin:round; stroke-width:2; stroke-opacity:0.1; fill:none" points="
  156.598,1339.3 2352.76,1339.3 
  "/>
<polyline clip-path="url(#clip872)" style="stroke:#000000; stroke-linecap:butt; stroke-linejoin:round; stroke-width:2; stroke-opacity:0.1; fill:none" points="
  156.598,1022.67 2352.76,1022.67 
  "/>
<polyline clip-path="url(#clip872)" style="stroke:#000000; stroke-linecap:butt; stroke-linejoin:round; stroke-width:2; stroke-opacity:0.1; fill:none" points="
  156.598,706.036 2352.76,706.036 
  "/>
<polyline clip-path="url(#clip872)" style="stroke:#000000; stroke-linecap:butt; stroke-linejoin:round; stroke-width:2; stroke-opacity:0.1; fill:none" points="
  156.598,389.405 2352.76,389.405 
  "/>
<polyline clip-path="url(#clip872)" style="stroke:#000000; stroke-linecap:butt; stroke-linejoin:round; stroke-width:2; stroke-opacity:0.1; fill:none" points="
  156.598,72.7731 2352.76,72.7731 
  "/>
<polyline clip-path="url(#clip870)" style="stroke:#000000; stroke-linecap:butt; stroke-linejoin:round; stroke-width:4; stroke-opacity:1; fill:none" points="
  156.598,1486.45 156.598,47.2441 
  "/>
<polyline clip-path="url(#clip870)" style="stroke:#000000; stroke-linecap:butt; stroke-linejoin:round; stroke-width:4; stroke-opacity:1; fill:none" points="
  156.598,1339.3 175.496,1339.3 
  "/>
<polyline clip-path="url(#clip870)" style="stroke:#000000; stroke-linecap:butt; stroke-linejoin:round; stroke-width:4; stroke-opacity:1; fill:none" points="
  156.598,1022.67 175.496,1022.67 
  "/>
<polyline clip-path="url(#clip870)" style="stroke:#000000; stroke-linecap:butt; stroke-linejoin:round; stroke-width:4; stroke-opacity:1; fill:none" points="
  156.598,706.036 175.496,706.036 
  "/>
<polyline clip-path="url(#clip870)" style="stroke:#000000; stroke-linecap:butt; stroke-linejoin:round; stroke-width:4; stroke-opacity:1; fill:none" points="
  156.598,389.405 175.496,389.405 
  "/>
<polyline clip-path="url(#clip870)" style="stroke:#000000; stroke-linecap:butt; stroke-linejoin:round; stroke-width:4; stroke-opacity:1; fill:none" points="
  156.598,72.7731 175.496,72.7731 
  "/>
<path clip-path="url(#clip870)" d="M65.0198 1325.1 Q61.4087 1325.1 59.58 1328.66 Q57.7745 1332.2 57.7745 1339.33 Q57.7745 1346.44 59.58 1350.01 Q61.4087 1353.55 65.0198 1353.55 Q68.6541 1353.55 70.4596 1350.01 Q72.2883 1346.44 72.2883 1339.33 Q72.2883 1332.2 70.4596 1328.66 Q68.6541 1325.1 65.0198 1325.1 M65.0198 1321.39 Q70.83 1321.39 73.8855 1326 Q76.9642 1330.58 76.9642 1339.33 Q76.9642 1348.06 73.8855 1352.67 Q70.83 1357.25 65.0198 1357.25 Q59.2097 1357.25 56.131 1352.67 Q53.0754 1348.06 53.0754 1339.33 Q53.0754 1330.58 56.131 1326 Q59.2097 1321.39 65.0198 1321.39 Z" fill="#000000" fill-rule="evenodd" fill-opacity="1" /><path clip-path="url(#clip870)" d="M85.1818 1350.7 L90.066 1350.7 L90.066 1356.58 L85.1818 1356.58 L85.1818 1350.7 Z" fill="#000000" fill-rule="evenodd" fill-opacity="1" /><path clip-path="url(#clip870)" d="M104.279 1352.64 L120.598 1352.64 L120.598 1356.58 L98.6539 1356.58 L98.6539 1352.64 Q101.316 1349.89 105.899 1345.26 Q110.506 1340.61 111.686 1339.26 Q113.932 1336.74 114.811 1335.01 Q115.714 1333.25 115.714 1331.56 Q115.714 1328.8 113.77 1327.07 Q111.848 1325.33 108.746 1325.33 Q106.547 1325.33 104.094 1326.09 Q101.663 1326.86 98.8854 1328.41 L98.8854 1323.69 Q101.709 1322.55 104.163 1321.97 Q106.617 1321.39 108.654 1321.39 Q114.024 1321.39 117.219 1324.08 Q120.413 1326.76 120.413 1331.26 Q120.413 1333.38 119.603 1335.31 Q118.816 1337.2 116.709 1339.8 Q116.131 1340.47 113.029 1343.69 Q109.927 1346.88 104.279 1352.64 Z" fill="#000000" fill-rule="evenodd" fill-opacity="1" /><path clip-path="url(#clip870)" d="M62.9365 1008.47 Q59.3254 1008.47 57.4967 1012.03 Q55.6912 1015.57 55.6912 1022.7 Q55.6912 1029.81 57.4967 1033.37 Q59.3254 1036.92 62.9365 1036.92 Q66.5707 1036.92 68.3763 1033.37 Q70.205 1029.81 70.205 1022.7 Q70.205 1015.57 68.3763 1012.03 Q66.5707 1008.47 62.9365 1008.47 M62.9365 1004.76 Q68.7467 1004.76 71.8022 1009.37 Q74.8809 1013.95 74.8809 1022.7 Q74.8809 1031.43 71.8022 1036.04 Q68.7467 1040.62 62.9365 1040.62 Q57.1264 1040.62 54.0477 1036.04 Q50.9921 1031.43 50.9921 1022.7 Q50.9921 1013.95 54.0477 1009.37 Q57.1264 1004.76 62.9365 1004.76 Z" fill="#000000" fill-rule="evenodd" fill-opacity="1" /><path clip-path="url(#clip870)" d="M83.0984 1034.07 L87.9827 1034.07 L87.9827 1039.95 L83.0984 1039.95 L83.0984 1034.07 Z" fill="#000000" fill-rule="evenodd" fill-opacity="1" /><path clip-path="url(#clip870)" d="M111.015 1009.46 L99.2095 1027.91 L111.015 1027.91 L111.015 1009.46 M109.788 1005.39 L115.668 1005.39 L115.668 1027.91 L120.598 1027.91 L120.598 1031.8 L115.668 1031.8 L115.668 1039.95 L111.015 1039.95 L111.015 1031.8 L95.4132 1031.8 L95.4132 1027.29 L109.788 1005.39 Z" fill="#000000" fill-rule="evenodd" fill-opacity="1" /><path clip-path="url(#clip870)" d="M63.2606 691.835 Q59.6495 691.835 57.8208 695.4 Q56.0152 698.941 56.0152 706.071 Q56.0152 713.177 57.8208 716.742 Q59.6495 720.284 63.2606 720.284 Q66.8948 720.284 68.7004 716.742 Q70.5291 713.177 70.5291 706.071 Q70.5291 698.941 68.7004 695.4 Q66.8948 691.835 63.2606 691.835 M63.2606 688.131 Q69.0707 688.131 72.1263 692.738 Q75.205 697.321 75.205 706.071 Q75.205 714.798 72.1263 719.404 Q69.0707 723.987 63.2606 723.987 Q57.4504 723.987 54.3717 719.404 Q51.3162 714.798 51.3162 706.071 Q51.3162 697.321 54.3717 692.738 Q57.4504 688.131 63.2606 688.131 Z" fill="#000000" fill-rule="evenodd" fill-opacity="1" /><path clip-path="url(#clip870)" d="M83.4225 717.437 L88.3067 717.437 L88.3067 723.316 L83.4225 723.316 L83.4225 717.437 Z" fill="#000000" fill-rule="evenodd" fill-opacity="1" /><path clip-path="url(#clip870)" d="M109.071 704.173 Q105.922 704.173 104.071 706.325 Q102.242 708.478 102.242 712.228 Q102.242 715.955 104.071 718.131 Q105.922 720.284 109.071 720.284 Q112.219 720.284 114.047 718.131 Q115.899 715.955 115.899 712.228 Q115.899 708.478 114.047 706.325 Q112.219 704.173 109.071 704.173 M118.353 689.52 L118.353 693.779 Q116.594 692.946 114.788 692.506 Q113.006 692.066 111.246 692.066 Q106.617 692.066 104.163 695.191 Q101.733 698.316 101.385 704.636 Q102.751 702.622 104.811 701.557 Q106.871 700.469 109.348 700.469 Q114.557 700.469 117.566 703.64 Q120.598 706.788 120.598 712.228 Q120.598 717.552 117.45 720.77 Q114.302 723.987 109.071 723.987 Q103.075 723.987 99.9039 719.404 Q96.7326 714.798 96.7326 706.071 Q96.7326 697.876 100.621 693.015 Q104.51 688.131 111.061 688.131 Q112.82 688.131 114.603 688.478 Q116.408 688.826 118.353 689.52 Z" fill="#000000" fill-rule="evenodd" fill-opacity="1" /><path clip-path="url(#clip870)" d="M63.5152 375.203 Q59.9041 375.203 58.0754 378.768 Q56.2699 382.31 56.2699 389.439 Q56.2699 396.546 58.0754 400.111 Q59.9041 403.652 63.5152 403.652 Q67.1494 403.652 68.955 400.111 Q70.7837 396.546 70.7837 389.439 Q70.7837 382.31 68.955 378.768 Q67.1494 375.203 63.5152 375.203 M63.5152 371.5 Q69.3254 371.5 72.3809 376.106 Q75.4596 380.689 75.4596 389.439 Q75.4596 398.166 72.3809 402.773 Q69.3254 407.356 63.5152 407.356 Q57.7051 407.356 54.6264 402.773 Q51.5708 398.166 51.5708 389.439 Q51.5708 380.689 54.6264 376.106 Q57.7051 371.5 63.5152 371.5 Z" fill="#000000" fill-rule="evenodd" fill-opacity="1" /><path clip-path="url(#clip870)" d="M83.6771 400.805 L88.5614 400.805 L88.5614 406.685 L83.6771 406.685 L83.6771 400.805 Z" fill="#000000" fill-rule="evenodd" fill-opacity="1" /><path clip-path="url(#clip870)" d="M108.746 390.273 Q105.413 390.273 103.492 392.055 Q101.594 393.837 101.594 396.962 Q101.594 400.087 103.492 401.87 Q105.413 403.652 108.746 403.652 Q112.08 403.652 114.001 401.87 Q115.922 400.064 115.922 396.962 Q115.922 393.837 114.001 392.055 Q112.103 390.273 108.746 390.273 M104.071 388.282 Q101.061 387.541 99.3715 385.481 Q97.7048 383.421 97.7048 380.458 Q97.7048 376.314 100.645 373.907 Q103.608 371.5 108.746 371.5 Q113.908 371.5 116.848 373.907 Q119.788 376.314 119.788 380.458 Q119.788 383.421 118.098 385.481 Q116.432 387.541 113.445 388.282 Q116.825 389.069 118.7 391.361 Q120.598 393.652 120.598 396.962 Q120.598 401.986 117.52 404.671 Q114.464 407.356 108.746 407.356 Q103.029 407.356 99.9502 404.671 Q96.8947 401.986 96.8947 396.962 Q96.8947 393.652 98.7928 391.361 Q100.691 389.069 104.071 388.282 M102.358 380.898 Q102.358 383.583 104.024 385.088 Q105.714 386.592 108.746 386.592 Q111.756 386.592 113.445 385.088 Q115.158 383.583 115.158 380.898 Q115.158 378.213 113.445 376.708 Q111.756 375.203 108.746 375.203 Q105.714 375.203 104.024 376.708 Q102.358 378.213 102.358 380.898 Z" fill="#000000" fill-rule="evenodd" fill-opacity="1" /><path clip-path="url(#clip870)" d="M54.2328 86.118 L61.8717 86.118 L61.8717 59.7524 L53.5616 61.419 L53.5616 57.1598 L61.8254 55.4931 L66.5013 55.4931 L66.5013 86.118 L74.1402 86.118 L74.1402 90.0531 L54.2328 90.0531 L54.2328 86.118 Z" fill="#000000" fill-rule="evenodd" fill-opacity="1" /><path clip-path="url(#clip870)" d="M83.5845 84.1735 L88.4688 84.1735 L88.4688 90.0531 L83.5845 90.0531 L83.5845 84.1735 Z" fill="#000000" fill-rule="evenodd" fill-opacity="1" /><path clip-path="url(#clip870)" d="M108.654 58.5718 Q105.043 58.5718 103.214 62.1366 Q101.409 65.6783 101.409 72.8079 Q101.409 79.9143 103.214 83.4791 Q105.043 87.0207 108.654 87.0207 Q112.288 87.0207 114.094 83.4791 Q115.922 79.9143 115.922 72.8079 Q115.922 65.6783 114.094 62.1366 Q112.288 58.5718 108.654 58.5718 M108.654 54.8681 Q114.464 54.8681 117.52 59.4746 Q120.598 64.0579 120.598 72.8079 Q120.598 81.5347 117.52 86.1411 Q114.464 90.7244 108.654 90.7244 Q102.844 90.7244 99.765 86.1411 Q96.7095 81.5347 96.7095 72.8079 Q96.7095 64.0579 99.765 59.4746 Q102.844 54.8681 108.654 54.8681 Z" fill="#000000" fill-rule="evenodd" fill-opacity="1" /><polyline clip-path="url(#clip872)" style="stroke:#009af9; stroke-linecap:butt; stroke-linejoin:round; stroke-width:4; stroke-opacity:1; fill:none" points="
  894.599,87.9763 2249.74,1417.57 2290.6,620.064 347.072,312.991 1363.17,307.094 1477.72,1375.92 1991.84,1445.72 939.947,181.859 414.163,1180.79 218.754,522.377 
  
  "/>
<path clip-path="url(#clip870)" d="
M1987.12 198.898 L2279.55 198.898 L2279.55 95.2176 L1987.12 95.2176  Z
  " fill="#ffffff" fill-rule="evenodd" fill-opacity="1"/>
<polyline clip-path="url(#clip870)" style="stroke:#000000; stroke-linecap:butt; stroke-linejoin:round; stroke-width:4; stroke-opacity:1; fill:none" points="
  1987.12,198.898 2279.55,198.898 2279.55,95.2176 1987.12,95.2176 1987.12,198.898 
  "/>
<polyline clip-path="url(#clip870)" style="stroke:#009af9; stroke-linecap:butt; stroke-linejoin:round; stroke-width:4; stroke-opacity:1; fill:none" points="
  2011.12,147.058 2155.12,147.058 
  "/>
<path clip-path="url(#clip870)" d="M2192.96 166.745 Q2191.16 171.375 2189.44 172.787 Q2187.73 174.199 2184.86 174.199 L2181.46 174.199 L2181.46 170.634 L2183.96 170.634 Q2185.72 170.634 2186.69 169.8 Q2187.66 168.967 2188.84 165.865 L2189.61 163.921 L2179.12 138.412 L2183.63 138.412 L2191.74 158.689 L2199.84 138.412 L2204.35 138.412 L2192.96 166.745 Z" fill="#000000" fill-rule="evenodd" fill-opacity="1" /><path clip-path="url(#clip870)" d="M2211.64 160.402 L2219.28 160.402 L2219.28 134.037 L2210.97 135.703 L2210.97 131.444 L2219.24 129.778 L2223.91 129.778 L2223.91 160.402 L2231.55 160.402 L2231.55 164.338 L2211.64 164.338 L2211.64 160.402 Z" fill="#000000" fill-rule="evenodd" fill-opacity="1" /></svg>
