<?xml version="1.0" encoding="utf-8"?>
<svg xmlns="http://www.w3.org/2000/svg" xmlns:xlink="http://www.w3.org/1999/xlink" width="600" height="400" viewBox="0 0 2400 1600">
<defs>
  <clipPath id="clip950">
    <rect x="0" y="0" width="2400" height="1600"/>
  </clipPath>
</defs>
<path clip-path="url(#clip950)" d="
M0 1600 L2400 1600 L2400 0 L0 0  Z
  " fill="#ffffff" fill-rule="evenodd" fill-opacity="1"/>
<defs>
  <clipPath id="clip951">
    <rect x="480" y="0" width="1681" height="1600"/>
  </clipPath>
</defs>
<path clip-path="url(#clip950)" d="
M156.598 1486.45 L2352.76 1486.45 L2352.76 47.2441 L156.598 47.2441  Z
  " fill="#ffffff" fill-rule="evenodd" fill-opacity="1"/>
<defs>
  <clipPath id="clip952">
    <rect x="156" y="47" width="2197" height="1440"/>
  </clipPath>
</defs>
<polyline clip-path="url(#clip952)" style="stroke:#000000; stroke-linecap:butt; stroke-linejoin:round; stroke-width:2; stroke-opacity:0.1; fill:none" points="
  445.758,1486.45 445.758,47.2441 
  "/>
<polyline clip-path="url(#clip952)" style="stroke:#000000; stroke-linecap:butt; stroke-linejoin:round; stroke-width:2; stroke-opacity:0.1; fill:none" points="
  972.924,1486.45 972.924,47.2441 
  "/>
<polyline clip-path="url(#clip952)" style="stroke:#000000; stroke-linecap:butt; stroke-linejoin:round; stroke-width:2; stroke-opacity:0.1; fill:none" points="
  1500.09,1486.45 1500.09,47.2441 
  "/>
<polyline clip-path="url(#clip952)" style="stroke:#000000; stroke-linecap:butt; stroke-linejoin:round; stroke-width:2; stroke-opacity:0.1; fill:none" points="
  2027.26,1486.45 2027.26,47.2441 
  "/>
<polyline clip-path="url(#clip950)" style="stroke:#000000; stroke-linecap:butt; stroke-linejoin:round; stroke-width:4; stroke-opacity:1; fill:none" points="
  156.598,1486.45 2352.76,1486.45 
  "/>
<polyline clip-path="url(#clip950)" style="stroke:#000000; stroke-linecap:butt; stroke-linejoin:round; stroke-width:4; stroke-opacity:1; fill:none" points="
  445.758,1486.45 445.758,1467.55 
  "/>
<polyline clip-path="url(#clip950)" style="stroke:#000000; stroke-linecap:butt; stroke-linejoin:round; stroke-width:4; stroke-opacity:1; fill:none" points="
  972.924,1486.45 972.924,1467.55 
  "/>
<polyline clip-path="url(#clip950)" style="stroke:#000000; stroke-linecap:butt; stroke-linejoin:round; stroke-width:4; stroke-opacity:1; fill:none" points="
  1500.09,1486.45 1500.09,1467.55 
  "/>
<polyline clip-path="url(#clip950)" style="stroke:#000000; stroke-linecap:butt; stroke-linejoin:round; stroke-width:4; stroke-opacity:1; fill:none" points="
  2027.26,1486.45 2027.26,1467.55 
  "/>
<path clip-path="url(#clip950)" d="M423.941 1517.37 Q420.329 1517.37 418.501 1520.93 Q416.695 1524.47 416.695 1531.6 Q416.695 1538.71 418.501 1542.27 Q420.329 1545.82 423.941 1545.82 Q427.575 1545.82 429.38 1542.27 Q431.209 1538.71 431.209 1531.6 Q431.209 1524.47 429.38 1520.93 Q427.575 1517.37 423.941 1517.37 M423.941 1513.66 Q429.751 1513.66 432.806 1518.27 Q435.885 1522.85 435.885 1531.6 Q435.885 1540.33 432.806 1544.94 Q429.751 1549.52 423.941 1549.52 Q418.13 1549.52 415.052 1544.94 Q411.996 1540.33 411.996 1531.6 Q411.996 1522.85 415.052 1518.27 Q418.13 1513.66 423.941 1513.66 Z" fill="#000000" fill-rule="evenodd" fill-opacity="1" /><path clip-path="url(#clip950)" d="M444.102 1542.97 L448.987 1542.97 L448.987 1548.85 L444.102 1548.85 L444.102 1542.97 Z" fill="#000000" fill-rule="evenodd" fill-opacity="1" /><path clip-path="url(#clip950)" d="M463.2 1544.91 L479.519 1544.91 L479.519 1548.85 L457.575 1548.85 L457.575 1544.91 Q460.237 1542.16 464.82 1537.53 Q469.426 1532.88 470.607 1531.53 Q472.852 1529.01 473.732 1527.27 Q474.635 1525.51 474.635 1523.82 Q474.635 1521.07 472.69 1519.33 Q470.769 1517.6 467.667 1517.6 Q465.468 1517.6 463.014 1518.36 Q460.584 1519.13 457.806 1520.68 L457.806 1515.95 Q460.63 1514.82 463.084 1514.24 Q465.538 1513.66 467.575 1513.66 Q472.945 1513.66 476.139 1516.35 Q479.334 1519.03 479.334 1523.52 Q479.334 1525.65 478.524 1527.57 Q477.737 1529.47 475.63 1532.07 Q475.051 1532.74 471.95 1535.95 Q468.848 1539.15 463.2 1544.91 Z" fill="#000000" fill-rule="evenodd" fill-opacity="1" /><path clip-path="url(#clip950)" d="M950.065 1517.37 Q946.454 1517.37 944.626 1520.93 Q942.82 1524.47 942.82 1531.6 Q942.82 1538.71 944.626 1542.27 Q946.454 1545.82 950.065 1545.82 Q953.7 1545.82 955.505 1542.27 Q957.334 1538.71 957.334 1531.6 Q957.334 1524.47 955.505 1520.93 Q953.7 1517.37 950.065 1517.37 M950.065 1513.66 Q955.876 1513.66 958.931 1518.27 Q962.01 1522.85 962.01 1531.6 Q962.01 1540.33 958.931 1544.94 Q955.876 1549.52 950.065 1549.52 Q944.255 1549.52 941.177 1544.94 Q938.121 1540.33 938.121 1531.6 Q938.121 1522.85 941.177 1518.27 Q944.255 1513.66 950.065 1513.66 Z" fill="#000000" fill-rule="evenodd" fill-opacity="1" /><path clip-path="url(#clip950)" d="M970.227 1542.97 L975.112 1542.97 L975.112 1548.85 L970.227 1548.85 L970.227 1542.97 Z" fill="#000000" fill-rule="evenodd" fill-opacity="1" /><path clip-path="url(#clip950)" d="M998.144 1518.36 L986.338 1536.81 L998.144 1536.81 L998.144 1518.36 M996.917 1514.29 L1002.8 1514.29 L1002.8 1536.81 L1007.73 1536.81 L1007.73 1540.7 L1002.8 1540.7 L1002.8 1548.85 L998.144 1548.85 L998.144 1540.7 L982.542 1540.7 L982.542 1536.19 L996.917 1514.29 Z" fill="#000000" fill-rule="evenodd" fill-opacity="1" /><path clip-path="url(#clip950)" d="M1477.39 1517.37 Q1473.78 1517.37 1471.95 1520.93 Q1470.15 1524.47 1470.15 1531.6 Q1470.15 1538.71 1471.95 1542.27 Q1473.78 1545.82 1477.39 1545.82 Q1481.03 1545.82 1482.83 1542.27 Q1484.66 1538.71 1484.66 1531.6 Q1484.66 1524.47 1482.83 1520.93 Q1481.03 1517.37 1477.39 1517.37 M1477.39 1513.66 Q1483.2 1513.66 1486.26 1518.27 Q1489.34 1522.85 1489.34 1531.6 Q1489.34 1540.33 1486.26 1544.94 Q1483.2 1549.52 1477.39 1549.52 Q1471.58 1549.52 1468.51 1544.94 Q1465.45 1540.33 1465.45 1531.6 Q1465.45 1522.85 1468.51 1518.27 Q1471.58 1513.66 1477.39 1513.66 Z" fill="#000000" fill-rule="evenodd" fill-opacity="1" /><path clip-path="url(#clip950)" d="M1497.56 1542.97 L1502.44 1542.97 L1502.44 1548.85 L1497.56 1548.85 L1497.56 1542.97 Z" fill="#000000" fill-rule="evenodd" fill-opacity="1" /><path clip-path="url(#clip950)" d="M1523.2 1529.7 Q1520.06 1529.7 1518.2 1531.86 Q1516.38 1534.01 1516.38 1537.76 Q1516.38 1541.49 1518.2 1543.66 Q1520.06 1545.82 1523.2 1545.82 Q1526.35 1545.82 1528.18 1543.66 Q1530.03 1541.49 1530.03 1537.76 Q1530.03 1534.01 1528.18 1531.86 Q1526.35 1529.7 1523.2 1529.7 M1532.49 1515.05 L1532.49 1519.31 Q1530.73 1518.48 1528.92 1518.04 Q1527.14 1517.6 1525.38 1517.6 Q1520.75 1517.6 1518.3 1520.72 Q1515.87 1523.85 1515.52 1530.17 Q1516.88 1528.15 1518.94 1527.09 Q1521 1526 1523.48 1526 Q1528.69 1526 1531.7 1529.17 Q1534.73 1532.32 1534.73 1537.76 Q1534.73 1543.08 1531.58 1546.3 Q1528.44 1549.52 1523.2 1549.52 Q1517.21 1549.52 1514.04 1544.94 Q1510.87 1540.33 1510.87 1531.6 Q1510.87 1523.41 1514.75 1518.55 Q1518.64 1513.66 1525.19 1513.66 Q1526.95 1513.66 1528.74 1514.01 Q1530.54 1514.36 1532.49 1515.05 Z" fill="#000000" fill-rule="evenodd" fill-opacity="1" /><path clip-path="url(#clip950)" d="M2004.69 1517.37 Q2001.08 1517.37 1999.25 1520.93 Q1997.44 1524.47 1997.44 1531.6 Q1997.44 1538.71 1999.25 1542.27 Q2001.08 1545.82 2004.69 1545.82 Q2008.32 1545.82 2010.13 1542.27 Q2011.96 1538.71 2011.96 1531.6 Q2011.96 1524.47 2010.13 1520.93 Q2008.32 1517.37 2004.69 1517.37 M2004.69 1513.66 Q2010.5 1513.66 2013.55 1518.27 Q2016.63 1522.85 2016.63 1531.6 Q2016.63 1540.33 2013.55 1544.94 Q2010.5 1549.52 2004.69 1549.52 Q1998.88 1549.52 1995.8 1544.94 Q1992.74 1540.33 1992.74 1531.6 Q1992.74 1522.85 1995.8 1518.27 Q1998.88 1513.66 2004.69 1513.66 Z" fill="#000000" fill-rule="evenodd" fill-opacity="1" /><path clip-path="url(#clip950)" d="M2024.85 1542.97 L2029.73 1542.97 L2029.73 1548.85 L2024.85 1548.85 L2024.85 1542.97 Z" fill="#000000" fill-rule="evenodd" fill-opacity="1" /><path clip-path="url(#clip950)" d="M2049.92 1532.44 Q2046.59 1532.44 2044.66 1534.22 Q2042.77 1536 2042.77 1539.13 Q2042.77 1542.25 2044.66 1544.03 Q2046.59 1545.82 2049.92 1545.82 Q2053.25 1545.82 2055.17 1544.03 Q2057.09 1542.23 2057.09 1539.13 Q2057.09 1536 2055.17 1534.22 Q2053.28 1532.44 2049.92 1532.44 M2045.24 1530.45 Q2042.23 1529.7 2040.54 1527.64 Q2038.88 1525.58 2038.88 1522.62 Q2038.88 1518.48 2041.82 1516.07 Q2044.78 1513.66 2049.92 1513.66 Q2055.08 1513.66 2058.02 1516.07 Q2060.96 1518.48 2060.96 1522.62 Q2060.96 1525.58 2059.27 1527.64 Q2057.6 1529.7 2054.62 1530.45 Q2058 1531.23 2059.87 1533.52 Q2061.77 1535.82 2061.77 1539.13 Q2061.77 1544.15 2058.69 1546.83 Q2055.64 1549.52 2049.92 1549.52 Q2044.2 1549.52 2041.12 1546.83 Q2038.07 1544.15 2038.07 1539.13 Q2038.07 1535.82 2039.97 1533.52 Q2041.86 1531.23 2045.24 1530.45 M2043.53 1523.06 Q2043.53 1525.75 2045.2 1527.25 Q2046.89 1528.76 2049.92 1528.76 Q2052.93 1528.76 2054.62 1527.25 Q2056.33 1525.75 2056.33 1523.06 Q2056.33 1520.38 2054.62 1518.87 Q2052.93 1517.37 2049.92 1517.37 Q2046.89 1517.37 2045.2 1518.87 Q2043.53 1520.38 2043.53 1523.06 Z" fill="#000000" fill-rule="evenodd" fill-opacity="1" /><polyline clip-path="url(#clip952)" style="stroke:#000000; stroke-linecap:butt; stroke-linejoin:round; stroke-width:2; stroke-opacity:0.1; fill:none" points="
  156.598,1326.49 2352.76,1326.49 
  "/>
<polyline clip-path="url(#clip952)" style="stroke:#000000; stroke-linecap:butt; stroke-linejoin:round; stroke-width:2; stroke-opacity:0.1; fill:none" points="
  156.598,1138.13 2352.76,1138.13 
  "/>
<polyline clip-path="url(#clip952)" style="stroke:#000000; stroke-linecap:butt; stroke-linejoin:round; stroke-width:2; stroke-opacity:0.1; fill:none" points="
  156.598,949.778 2352.76,949.778 
  "/>
<polyline clip-path="url(#clip952)" style="stroke:#000000; stroke-linecap:butt; stroke-linejoin:round; stroke-width:2; stroke-opacity:0.1; fill:none" points="
  156.598,761.421 2352.76,761.421 
  "/>
<polyline clip-path="url(#clip952)" style="stroke:#000000; stroke-linecap:butt; stroke-linejoin:round; stroke-width:2; stroke-opacity:0.1; fill:none" points="
  156.598,573.065 2352.76,573.065 
  "/>
<polyline clip-path="url(#clip952)" style="stroke:#000000; stroke-linecap:butt; stroke-linejoin:round; stroke-width:2; stroke-opacity:0.1; fill:none" points="
  156.598,384.708 2352.76,384.708 
  "/>
<polyline clip-path="url(#clip952)" style="stroke:#000000; stroke-linecap:butt; stroke-linejoin:round; stroke-width:2; stroke-opacity:0.1; fill:none" points="
  156.598,196.352 2352.76,196.352 
  "/>
<polyline clip-path="url(#clip950)" style="stroke:#000000; stroke-linecap:butt; stroke-linejoin:round; stroke-width:4; stroke-opacity:1; fill:none" points="
  156.598,1486.45 156.598,47.2441 
  "/>
<polyline clip-path="url(#clip950)" style="stroke:#000000; stroke-linecap:butt; stroke-linejoin:round; stroke-width:4; stroke-opacity:1; fill:none" points="
  156.598,1326.49 175.496,1326.49 
  "/>
<polyline clip-path="url(#clip950)" style="stroke:#000000; stroke-linecap:butt; stroke-linejoin:round; stroke-width:4; stroke-opacity:1; fill:none" points="
  156.598,1138.13 175.496,1138.13 
  "/>
<polyline clip-path="url(#clip950)" style="stroke:#000000; stroke-linecap:butt; stroke-linejoin:round; stroke-width:4; stroke-opacity:1; fill:none" points="
  156.598,949.778 175.496,949.778 
  "/>
<polyline clip-path="url(#clip950)" style="stroke:#000000; stroke-linecap:butt; stroke-linejoin:round; stroke-width:4; stroke-opacity:1; fill:none" points="
  156.598,761.421 175.496,761.421 
  "/>
<polyline clip-path="url(#clip950)" style="stroke:#000000; stroke-linecap:butt; stroke-linejoin:round; stroke-width:4; stroke-opacity:1; fill:none" points="
  156.598,573.065 175.496,573.065 
  "/>
<polyline clip-path="url(#clip950)" style="stroke:#000000; stroke-linecap:butt; stroke-linejoin:round; stroke-width:4; stroke-opacity:1; fill:none" points="
  156.598,384.708 175.496,384.708 
  "/>
<polyline clip-path="url(#clip950)" style="stroke:#000000; stroke-linecap:butt; stroke-linejoin:round; stroke-width:4; stroke-opacity:1; fill:none" points="
  156.598,196.352 175.496,196.352 
  "/>
<path clip-path="url(#clip950)" d="M65.0198 1312.29 Q61.4087 1312.29 59.58 1315.85 Q57.7745 1319.4 57.7745 1326.53 Q57.7745 1333.63 59.58 1337.2 Q61.4087 1340.74 65.0198 1340.74 Q68.6541 1340.74 70.4596 1337.2 Q72.2883 1333.63 72.2883 1326.53 Q72.2883 1319.4 70.4596 1315.85 Q68.6541 1312.29 65.0198 1312.29 M65.0198 1308.59 Q70.83 1308.59 73.8855 1313.19 Q76.9642 1317.78 76.9642 1326.53 Q76.9642 1335.25 73.8855 1339.86 Q70.83 1344.44 65.0198 1344.44 Q59.2097 1344.44 56.131 1339.86 Q53.0754 1335.25 53.0754 1326.53 Q53.0754 1317.78 56.131 1313.19 Q59.2097 1308.59 65.0198 1308.59 Z" fill="#000000" fill-rule="evenodd" fill-opacity="1" /><path clip-path="url(#clip950)" d="M85.1818 1337.89 L90.066 1337.89 L90.066 1343.77 L85.1818 1343.77 L85.1818 1337.89 Z" fill="#000000" fill-rule="evenodd" fill-opacity="1" /><path clip-path="url(#clip950)" d="M104.279 1339.84 L120.598 1339.84 L120.598 1343.77 L98.6539 1343.77 L98.6539 1339.84 Q101.316 1337.08 105.899 1332.45 Q110.506 1327.8 111.686 1326.46 Q113.932 1323.93 114.811 1322.2 Q115.714 1320.44 115.714 1318.75 Q115.714 1315.99 113.77 1314.26 Q111.848 1312.52 108.746 1312.52 Q106.547 1312.52 104.094 1313.29 Q101.663 1314.05 98.8854 1315.6 L98.8854 1310.88 Q101.709 1309.74 104.163 1309.16 Q106.617 1308.59 108.654 1308.59 Q114.024 1308.59 117.219 1311.27 Q120.413 1313.96 120.413 1318.45 Q120.413 1320.58 119.603 1322.5 Q118.816 1324.4 116.709 1326.99 Q116.131 1327.66 113.029 1330.88 Q109.927 1334.07 104.279 1339.84 Z" fill="#000000" fill-rule="evenodd" fill-opacity="1" /><path clip-path="url(#clip950)" d="M64.0708 1123.93 Q60.4597 1123.93 58.631 1127.5 Q56.8254 1131.04 56.8254 1138.17 Q56.8254 1145.28 58.631 1148.84 Q60.4597 1152.38 64.0708 1152.38 Q67.705 1152.38 69.5105 1148.84 Q71.3392 1145.28 71.3392 1138.17 Q71.3392 1131.04 69.5105 1127.5 Q67.705 1123.93 64.0708 1123.93 M64.0708 1120.23 Q69.8809 1120.23 72.9365 1124.84 Q76.0151 1129.42 76.0151 1138.17 Q76.0151 1146.9 72.9365 1151.5 Q69.8809 1156.09 64.0708 1156.09 Q58.2606 1156.09 55.1819 1151.5 Q52.1264 1146.9 52.1264 1138.17 Q52.1264 1129.42 55.1819 1124.84 Q58.2606 1120.23 64.0708 1120.23 Z" fill="#000000" fill-rule="evenodd" fill-opacity="1" /><path clip-path="url(#clip950)" d="M84.2327 1149.53 L89.1169 1149.53 L89.1169 1155.41 L84.2327 1155.41 L84.2327 1149.53 Z" fill="#000000" fill-rule="evenodd" fill-opacity="1" /><path clip-path="url(#clip950)" d="M113.469 1136.78 Q116.825 1137.5 118.7 1139.77 Q120.598 1142.03 120.598 1145.37 Q120.598 1150.48 117.08 1153.28 Q113.561 1156.09 107.08 1156.09 Q104.904 1156.09 102.589 1155.65 Q100.297 1155.23 97.8437 1154.37 L97.8437 1149.86 Q99.7882 1150.99 102.103 1151.57 Q104.418 1152.15 106.941 1152.15 Q111.339 1152.15 113.631 1150.41 Q115.945 1148.68 115.945 1145.37 Q115.945 1142.31 113.793 1140.6 Q111.663 1138.86 107.844 1138.86 L103.816 1138.86 L103.816 1135.02 L108.029 1135.02 Q111.478 1135.02 113.307 1133.66 Q115.135 1132.27 115.135 1129.67 Q115.135 1127.01 113.237 1125.6 Q111.362 1124.16 107.844 1124.16 Q105.922 1124.16 103.723 1124.58 Q101.524 1125 98.8854 1125.88 L98.8854 1121.71 Q101.547 1120.97 103.862 1120.6 Q106.2 1120.23 108.26 1120.23 Q113.584 1120.23 116.686 1122.66 Q119.788 1125.07 119.788 1129.19 Q119.788 1132.06 118.145 1134.05 Q116.501 1136.02 113.469 1136.78 Z" fill="#000000" fill-rule="evenodd" fill-opacity="1" /><path clip-path="url(#clip950)" d="M62.9365 935.577 Q59.3254 935.577 57.4967 939.141 Q55.6912 942.683 55.6912 949.813 Q55.6912 956.919 57.4967 960.484 Q59.3254 964.026 62.9365 964.026 Q66.5707 964.026 68.3763 960.484 Q70.205 956.919 70.205 949.813 Q70.205 942.683 68.3763 939.141 Q66.5707 935.577 62.9365 935.577 M62.9365 931.873 Q68.7467 931.873 71.8022 936.479 Q74.8809 941.063 74.8809 949.813 Q74.8809 958.539 71.8022 963.146 Q68.7467 967.729 62.9365 967.729 Q57.1264 967.729 54.0477 963.146 Q50.9921 958.539 50.9921 949.813 Q50.9921 941.063 54.0477 936.479 Q57.1264 931.873 62.9365 931.873 Z" fill="#000000" fill-rule="evenodd" fill-opacity="1" /><path clip-path="url(#clip950)" d="M83.0984 961.178 L87.9827 961.178 L87.9827 967.058 L83.0984 967.058 L83.0984 961.178 Z" fill="#000000" fill-rule="evenodd" fill-opacity="1" /><path clip-path="url(#clip950)" d="M111.015 936.572 L99.2095 955.021 L111.015 955.021 L111.015 936.572 M109.788 932.498 L115.668 932.498 L115.668 955.021 L120.598 955.021 L120.598 958.91 L115.668 958.91 L115.668 967.058 L111.015 967.058 L111.015 958.91 L95.4132 958.91 L95.4132 954.396 L109.788 932.498 Z" fill="#000000" fill-rule="evenodd" fill-opacity="1" /><path clip-path="url(#clip950)" d="M64.418 747.22 Q60.8069 747.22 58.9782 750.785 Q57.1726 754.327 57.1726 761.456 Q57.1726 768.563 58.9782 772.127 Q60.8069 775.669 64.418 775.669 Q68.0522 775.669 69.8578 772.127 Q71.6865 768.563 71.6865 761.456 Q71.6865 754.327 69.8578 750.785 Q68.0522 747.22 64.418 747.22 M64.418 743.516 Q70.2281 743.516 73.2837 748.123 Q76.3624 752.706 76.3624 761.456 Q76.3624 770.183 73.2837 774.789 Q70.2281 779.373 64.418 779.373 Q58.6078 779.373 55.5291 774.789 Q52.4736 770.183 52.4736 761.456 Q52.4736 752.706 55.5291 748.123 Q58.6078 743.516 64.418 743.516 Z" fill="#000000" fill-rule="evenodd" fill-opacity="1" /><path clip-path="url(#clip950)" d="M84.5799 772.822 L89.4641 772.822 L89.4641 778.701 L84.5799 778.701 L84.5799 772.822 Z" fill="#000000" fill-rule="evenodd" fill-opacity="1" /><path clip-path="url(#clip950)" d="M99.6956 744.141 L118.052 744.141 L118.052 748.077 L103.978 748.077 L103.978 756.549 Q104.996 756.202 106.015 756.039 Q107.033 755.854 108.052 755.854 Q113.839 755.854 117.219 759.026 Q120.598 762.197 120.598 767.613 Q120.598 773.192 117.126 776.294 Q113.654 779.373 107.334 779.373 Q105.159 779.373 102.89 779.002 Q100.645 778.632 98.2372 777.891 L98.2372 773.192 Q100.321 774.326 102.543 774.882 Q104.765 775.438 107.242 775.438 Q111.246 775.438 113.584 773.331 Q115.922 771.225 115.922 767.613 Q115.922 764.002 113.584 761.896 Q111.246 759.789 107.242 759.789 Q105.367 759.789 103.492 760.206 Q101.64 760.623 99.6956 761.502 L99.6956 744.141 Z" fill="#000000" fill-rule="evenodd" fill-opacity="1" /><path clip-path="url(#clip950)" d="M63.2606 558.864 Q59.6495 558.864 57.8208 562.428 Q56.0152 565.97 56.0152 573.1 Q56.0152 580.206 57.8208 583.771 Q59.6495 587.312 63.2606 587.312 Q66.8948 587.312 68.7004 583.771 Q70.5291 580.206 70.5291 573.1 Q70.5291 565.97 68.7004 562.428 Q66.8948 558.864 63.2606 558.864 M63.2606 555.16 Q69.0707 555.16 72.1263 559.766 Q75.205 564.35 75.205 573.1 Q75.205 581.826 72.1263 586.433 Q69.0707 591.016 63.2606 591.016 Q57.4504 591.016 54.3717 586.433 Q51.3162 581.826 51.3162 573.1 Q51.3162 564.35 54.3717 559.766 Q57.4504 555.16 63.2606 555.16 Z" fill="#000000" fill-rule="evenodd" fill-opacity="1" /><path clip-path="url(#clip950)" d="M83.4225 584.465 L88.3067 584.465 L88.3067 590.345 L83.4225 590.345 L83.4225 584.465 Z" fill="#000000" fill-rule="evenodd" fill-opacity="1" /><path clip-path="url(#clip950)" d="M109.071 571.201 Q105.922 571.201 104.071 573.354 Q102.242 575.507 102.242 579.257 Q102.242 582.984 104.071 585.16 Q105.922 587.312 109.071 587.312 Q112.219 587.312 114.047 585.16 Q115.899 582.984 115.899 579.257 Q115.899 575.507 114.047 573.354 Q112.219 571.201 109.071 571.201 M118.353 556.549 L118.353 560.808 Q116.594 559.975 114.788 559.535 Q113.006 559.095 111.246 559.095 Q106.617 559.095 104.163 562.22 Q101.733 565.345 101.385 571.664 Q102.751 569.651 104.811 568.586 Q106.871 567.498 109.348 567.498 Q114.557 567.498 117.566 570.669 Q120.598 573.817 120.598 579.257 Q120.598 584.581 117.45 587.799 Q114.302 591.016 109.071 591.016 Q103.075 591.016 99.9039 586.433 Q96.7326 581.826 96.7326 573.1 Q96.7326 564.905 100.621 560.044 Q104.51 555.16 111.061 555.16 Q112.82 555.16 114.603 555.507 Q116.408 555.854 118.353 556.549 Z" fill="#000000" fill-rule="evenodd" fill-opacity="1" /><path clip-path="url(#clip950)" d="M64.3254 370.507 Q60.7143 370.507 58.8856 374.072 Q57.0801 377.613 57.0801 384.743 Q57.0801 391.85 58.8856 395.414 Q60.7143 398.956 64.3254 398.956 Q67.9596 398.956 69.7652 395.414 Q71.5939 391.85 71.5939 384.743 Q71.5939 377.613 69.7652 374.072 Q67.9596 370.507 64.3254 370.507 M64.3254 366.803 Q70.1355 366.803 73.1911 371.41 Q76.2698 375.993 76.2698 384.743 Q76.2698 393.47 73.1911 398.076 Q70.1355 402.66 64.3254 402.66 Q58.5152 402.66 55.4365 398.076 Q52.381 393.47 52.381 384.743 Q52.381 375.993 55.4365 371.41 Q58.5152 366.803 64.3254 366.803 Z" fill="#000000" fill-rule="evenodd" fill-opacity="1" /><path clip-path="url(#clip950)" d="M84.4873 396.109 L89.3715 396.109 L89.3715 401.988 L84.4873 401.988 L84.4873 396.109 Z" fill="#000000" fill-rule="evenodd" fill-opacity="1" /><path clip-path="url(#clip950)" d="M98.3761 367.428 L120.598 367.428 L120.598 369.419 L108.052 401.988 L103.168 401.988 L114.973 371.364 L98.3761 371.364 L98.3761 367.428 Z" fill="#000000" fill-rule="evenodd" fill-opacity="1" /><path clip-path="url(#clip950)" d="M63.5152 182.151 Q59.9041 182.151 58.0754 185.715 Q56.2699 189.257 56.2699 196.387 Q56.2699 203.493 58.0754 207.058 Q59.9041 210.599 63.5152 210.599 Q67.1494 210.599 68.955 207.058 Q70.7837 203.493 70.7837 196.387 Q70.7837 189.257 68.955 185.715 Q67.1494 182.151 63.5152 182.151 M63.5152 178.447 Q69.3254 178.447 72.3809 183.053 Q75.4596 187.637 75.4596 196.387 Q75.4596 205.113 72.3809 209.72 Q69.3254 214.303 63.5152 214.303 Q57.7051 214.303 54.6264 209.72 Q51.5708 205.113 51.5708 196.387 Q51.5708 187.637 54.6264 183.053 Q57.7051 178.447 63.5152 178.447 Z" fill="#000000" fill-rule="evenodd" fill-opacity="1" /><path clip-path="url(#clip950)" d="M83.6771 207.752 L88.5614 207.752 L88.5614 213.632 L83.6771 213.632 L83.6771 207.752 Z" fill="#000000" fill-rule="evenodd" fill-opacity="1" /><path clip-path="url(#clip950)" d="M108.746 197.22 Q105.413 197.22 103.492 199.002 Q101.594 200.785 101.594 203.91 Q101.594 207.035 103.492 208.817 Q105.413 210.599 108.746 210.599 Q112.08 210.599 114.001 208.817 Q115.922 207.011 115.922 203.91 Q115.922 200.785 114.001 199.002 Q112.103 197.22 108.746 197.22 M104.071 195.229 Q101.061 194.488 99.3715 192.428 Q97.7048 190.368 97.7048 187.405 Q97.7048 183.262 100.645 180.854 Q103.608 178.447 108.746 178.447 Q113.908 178.447 116.848 180.854 Q119.788 183.262 119.788 187.405 Q119.788 190.368 118.098 192.428 Q116.432 194.488 113.445 195.229 Q116.825 196.016 118.7 198.308 Q120.598 200.599 120.598 203.91 Q120.598 208.933 117.52 211.618 Q114.464 214.303 108.746 214.303 Q103.029 214.303 99.9502 211.618 Q96.8947 208.933 96.8947 203.91 Q96.8947 200.599 98.7928 198.308 Q100.691 196.016 104.071 195.229 M102.358 187.845 Q102.358 190.53 104.024 192.035 Q105.714 193.539 108.746 193.539 Q111.756 193.539 113.445 192.035 Q115.158 190.53 115.158 187.845 Q115.158 185.16 113.445 183.655 Q111.756 182.151 108.746 182.151 Q105.714 182.151 104.024 183.655 Q102.358 185.16 102.358 187.845 Z" fill="#000000" fill-rule="evenodd" fill-opacity="1" /><polyline clip-path="url(#clip952)" style="stroke:#009af9; stroke-linecap:butt; stroke-linejoin:round; stroke-width:4; stroke-opacity:1; fill:none" points="
  1517.16,117.48 828.751,165.865 1619.57,87.9763 218.754,543.954 2290.6,1445.72 714.398,1112.78 1179.55,1057.21 1820.09,1289.94 387.291,436.638 1752.73,766.472 
  
  "/>
<path clip-path="url(#clip950)" d="
M1987.12 198.898 L2279.55 198.898 L2279.55 95.2176 L1987.12 95.2176  Z
  " fill="#ffffff" fill-rule="evenodd" fill-opacity="1"/>
<polyline clip-path="url(#clip950)" style="stroke:#000000; stroke-linecap:butt; stroke-linejoin:round; stroke-width:4; stroke-opacity:1; fill:none" points="
  1987.12,198.898 2279.55,198.898 2279.55,95.2176 1987.12,95.2176 1987.12,198.898 
  "/>
<polyline clip-path="url(#clip950)" style="stroke:#009af9; stroke-linecap:butt; stroke-linejoin:round; stroke-width:4; stroke-opacity:1; fill:none" points="
  2011.12,147.058 2155.12,147.058 
  "/>
<path clip-path="url(#clip950)" d="M2192.96 166.745 Q2191.16 171.375 2189.44 172.787 Q2187.73 174.199 2184.86 174.199 L2181.46 174.199 L2181.46 170.634 L2183.96 170.634 Q2185.72 170.634 2186.69 169.8 Q2187.66 168.967 2188.84 165.865 L2189.61 163.921 L2179.12 138.412 L2183.63 138.412 L2191.74 158.689 L2199.84 138.412 L2204.35 138.412 L2192.96 166.745 Z" fill="#000000" fill-rule="evenodd" fill-opacity="1" /><path clip-path="url(#clip950)" d="M2211.64 160.402 L2219.28 160.402 L2219.28 134.037 L2210.97 135.703 L2210.97 131.444 L2219.24 129.778 L2223.91 129.778 L2223.91 160.402 L2231.55 160.402 L2231.55 164.338 L2211.64 164.338 L2211.64 160.402 Z" fill="#000000" fill-rule="evenodd" fill-opacity="1" /></svg>
