<?xml version="1.0" encoding="utf-8"?>
<svg xmlns="http://www.w3.org/2000/svg" xmlns:xlink="http://www.w3.org/1999/xlink" width="600" height="400" viewBox="0 0 2400 1600">
<defs>
  <clipPath id="clip120">
    <rect x="0" y="0" width="2400" height="1600"/>
  </clipPath>
</defs>
<path clip-path="url(#clip120)" d="
M0 1600 L2400 1600 L2400 0 L0 0  Z
  " fill="#ffffff" fill-rule="evenodd" fill-opacity="1"/>
<defs>
  <clipPath id="clip121">
    <rect x="480" y="0" width="1681" height="1600"/>
  </clipPath>
</defs>
<path clip-path="url(#clip120)" d="
M156.598 1486.45 L2352.76 1486.45 L2352.76 47.2441 L156.598 47.2441  Z
  " fill="#ffffff" fill-rule="evenodd" fill-opacity="1"/>
<defs>
  <clipPath id="clip122">
    <rect x="156" y="47" width="2197" height="1440"/>
  </clipPath>
</defs>
<polyline clip-path="url(#clip122)" style="stroke:#000000; stroke-linecap:butt; stroke-linejoin:round; stroke-width:2; stroke-opacity:0.1; fill:none" points="
  390.512,1486.45 390.512,47.2441 
  "/>
<polyline clip-path="url(#clip122)" style="stroke:#000000; stroke-linecap:butt; stroke-linejoin:round; stroke-width:2; stroke-opacity:0.1; fill:none" points="
  738.867,1486.45 738.867,47.2441 
  "/>
<polyline clip-path="url(#clip122)" style="stroke:#000000; stroke-linecap:butt; stroke-linejoin:round; stroke-width:2; stroke-opacity:0.1; fill:none" points="
  1087.22,1486.45 1087.22,47.2441 
  "/>
<polyline clip-path="url(#clip122)" style="stroke:#000000; stroke-linecap:butt; stroke-linejoin:round; stroke-width:2; stroke-opacity:0.1; fill:none" points="
  1435.58,1486.45 1435.58,47.2441 
  "/>
<polyline clip-path="url(#clip122)" style="stroke:#000000; stroke-linecap:butt; stroke-linejoin:round; stroke-width:2; stroke-opacity:0.1; fill:none" points="
  1783.93,1486.45 1783.93,47.2441 
  "/>
<polyline clip-path="url(#clip122)" style="stroke:#000000; stroke-linecap:butt; stroke-linejoin:round; stroke-width:2; stroke-opacity:0.1; fill:none" points="
  2132.29,1486.45 2132.29,47.2441 
  "/>
<polyline clip-path="url(#clip120)" style="stroke:#000000; stroke-linecap:butt; stroke-linejoin:round; stroke-width:4; stroke-opacity:1; fill:none" points="
  156.598,1486.45 2352.76,1486.45 
  "/>
<polyline clip-path="url(#clip120)" style="stroke:#000000; stroke-linecap:butt; stroke-linejoin:round; stroke-width:4; stroke-opacity:1; fill:none" points="
  390.512,1486.45 390.512,1467.55 
  "/>
<polyline clip-path="url(#clip120)" style="stroke:#000000; stroke-linecap:butt; stroke-linejoin:round; stroke-width:4; stroke-opacity:1; fill:none" points="
  738.867,1486.45 738.867,1467.55 
  "/>
<polyline clip-path="url(#clip120)" style="stroke:#000000; stroke-linecap:butt; stroke-linejoin:round; stroke-width:4; stroke-opacity:1; fill:none" points="
  1087.22,1486.45 1087.22,1467.55 
  "/>
<polyline clip-path="url(#clip120)" style="stroke:#000000; stroke-linecap:butt; stroke-linejoin:round; stroke-width:4; stroke-opacity:1; fill:none" points="
  1435.58,1486.45 1435.58,1467.55 
  "/>
<polyline clip-path="url(#clip120)" style="stroke:#000000; stroke-linecap:butt; stroke-linejoin:round; stroke-width:4; stroke-opacity:1; fill:none" points="
  1783.93,1486.45 1783.93,1467.55 
  "/>
<polyline clip-path="url(#clip120)" style="stroke:#000000; stroke-linecap:butt; stroke-linejoin:round; stroke-width:4; stroke-opacity:1; fill:none" points="
  2132.29,1486.45 2132.29,1467.55 
  "/>
<path clip-path="url(#clip120)" d="M368.22 1517.37 Q364.609 1517.37 362.78 1520.93 Q360.975 1524.47 360.975 1531.6 Q360.975 1538.71 362.78 1542.27 Q364.609 1545.82 368.22 1545.82 Q371.854 1545.82 373.66 1542.27 Q375.489 1538.71 375.489 1531.6 Q375.489 1524.47 373.66 1520.93 Q371.854 1517.37 368.22 1517.37 M368.22 1513.66 Q374.03 1513.66 377.086 1518.27 Q380.165 1522.85 380.165 1531.6 Q380.165 1540.33 377.086 1544.94 Q374.03 1549.52 368.22 1549.52 Q362.41 1549.52 359.331 1544.94 Q356.276 1540.33 356.276 1531.6 Q356.276 1522.85 359.331 1518.27 Q362.41 1513.66 368.22 1513.66 Z" fill="#000000" fill-rule="evenodd" fill-opacity="1" /><path clip-path="url(#clip120)" d="M388.382 1542.97 L393.266 1542.97 L393.266 1548.85 L388.382 1548.85 L388.382 1542.97 Z" fill="#000000" fill-rule="evenodd" fill-opacity="1" /><path clip-path="url(#clip120)" d="M417.618 1530.21 Q420.974 1530.93 422.849 1533.2 Q424.748 1535.47 424.748 1538.8 Q424.748 1543.92 421.229 1546.72 Q417.711 1549.52 411.229 1549.52 Q409.053 1549.52 406.738 1549.08 Q404.447 1548.66 401.993 1547.81 L401.993 1543.29 Q403.938 1544.43 406.252 1545.01 Q408.567 1545.58 411.09 1545.58 Q415.488 1545.58 417.78 1543.85 Q420.095 1542.11 420.095 1538.8 Q420.095 1535.75 417.942 1534.03 Q415.812 1532.3 411.993 1532.3 L407.965 1532.3 L407.965 1528.45 L412.178 1528.45 Q415.627 1528.45 417.456 1527.09 Q419.285 1525.7 419.285 1523.11 Q419.285 1520.45 417.387 1519.03 Q415.512 1517.6 411.993 1517.6 Q410.072 1517.6 407.873 1518.01 Q405.674 1518.43 403.035 1519.31 L403.035 1515.14 Q405.697 1514.4 408.012 1514.03 Q410.35 1513.66 412.41 1513.66 Q417.734 1513.66 420.836 1516.09 Q423.937 1518.5 423.937 1522.62 Q423.937 1525.49 422.294 1527.48 Q420.65 1529.45 417.618 1530.21 Z" fill="#000000" fill-rule="evenodd" fill-opacity="1" /><path clip-path="url(#clip120)" d="M716.008 1517.37 Q712.397 1517.37 710.568 1520.93 Q708.763 1524.47 708.763 1531.6 Q708.763 1538.71 710.568 1542.27 Q712.397 1545.82 716.008 1545.82 Q719.642 1545.82 721.448 1542.27 Q723.276 1538.71 723.276 1531.6 Q723.276 1524.47 721.448 1520.93 Q719.642 1517.37 716.008 1517.37 M716.008 1513.66 Q721.818 1513.66 724.874 1518.27 Q727.952 1522.85 727.952 1531.6 Q727.952 1540.33 724.874 1544.94 Q721.818 1549.52 716.008 1549.52 Q710.198 1549.52 707.119 1544.94 Q704.063 1540.33 704.063 1531.6 Q704.063 1522.85 707.119 1518.27 Q710.198 1513.66 716.008 1513.66 Z" fill="#000000" fill-rule="evenodd" fill-opacity="1" /><path clip-path="url(#clip120)" d="M736.17 1542.97 L741.054 1542.97 L741.054 1548.85 L736.17 1548.85 L736.17 1542.97 Z" fill="#000000" fill-rule="evenodd" fill-opacity="1" /><path clip-path="url(#clip120)" d="M764.086 1518.36 L752.281 1536.81 L764.086 1536.81 L764.086 1518.36 M762.859 1514.29 L768.739 1514.29 L768.739 1536.81 L773.67 1536.81 L773.67 1540.7 L768.739 1540.7 L768.739 1548.85 L764.086 1548.85 L764.086 1540.7 L748.485 1540.7 L748.485 1536.19 L762.859 1514.29 Z" fill="#000000" fill-rule="evenodd" fill-opacity="1" /><path clip-path="url(#clip120)" d="M1065.1 1517.37 Q1061.49 1517.37 1059.66 1520.93 Q1057.86 1524.47 1057.86 1531.6 Q1057.86 1538.71 1059.66 1542.27 Q1061.49 1545.82 1065.1 1545.82 Q1068.74 1545.82 1070.54 1542.27 Q1072.37 1538.71 1072.37 1531.6 Q1072.37 1524.47 1070.54 1520.93 Q1068.74 1517.37 1065.1 1517.37 M1065.1 1513.66 Q1070.91 1513.66 1073.97 1518.27 Q1077.05 1522.85 1077.05 1531.6 Q1077.05 1540.33 1073.97 1544.94 Q1070.91 1549.52 1065.1 1549.52 Q1059.29 1549.52 1056.21 1544.94 Q1053.16 1540.33 1053.16 1531.6 Q1053.16 1522.85 1056.21 1518.27 Q1059.29 1513.66 1065.1 1513.66 Z" fill="#000000" fill-rule="evenodd" fill-opacity="1" /><path clip-path="url(#clip120)" d="M1085.27 1542.97 L1090.15 1542.97 L1090.15 1548.85 L1085.27 1548.85 L1085.27 1542.97 Z" fill="#000000" fill-rule="evenodd" fill-opacity="1" /><path clip-path="url(#clip120)" d="M1100.38 1514.29 L1118.74 1514.29 L1118.74 1518.22 L1104.66 1518.22 L1104.66 1526.7 Q1105.68 1526.35 1106.7 1526.19 Q1107.72 1526 1108.74 1526 Q1114.52 1526 1117.9 1529.17 Q1121.28 1532.34 1121.28 1537.76 Q1121.28 1543.34 1117.81 1546.44 Q1114.34 1549.52 1108.02 1549.52 Q1105.84 1549.52 1103.58 1549.15 Q1101.33 1548.78 1098.92 1548.04 L1098.92 1543.34 Q1101.01 1544.47 1103.23 1545.03 Q1105.45 1545.58 1107.93 1545.58 Q1111.93 1545.58 1114.27 1543.48 Q1116.61 1541.37 1116.61 1537.76 Q1116.61 1534.15 1114.27 1532.04 Q1111.93 1529.94 1107.93 1529.94 Q1106.05 1529.94 1104.18 1530.35 Q1102.33 1530.77 1100.38 1531.65 L1100.38 1514.29 Z" fill="#000000" fill-rule="evenodd" fill-opacity="1" /><path clip-path="url(#clip120)" d="M1412.88 1517.37 Q1409.27 1517.37 1407.44 1520.93 Q1405.63 1524.47 1405.63 1531.6 Q1405.63 1538.71 1407.44 1542.27 Q1409.27 1545.82 1412.88 1545.82 Q1416.51 1545.82 1418.32 1542.27 Q1420.15 1538.71 1420.15 1531.6 Q1420.15 1524.47 1418.32 1520.93 Q1416.51 1517.37 1412.88 1517.37 M1412.88 1513.66 Q1418.69 1513.66 1421.75 1518.27 Q1424.82 1522.85 1424.82 1531.6 Q1424.82 1540.33 1421.75 1544.94 Q1418.69 1549.52 1412.88 1549.52 Q1407.07 1549.52 1403.99 1544.94 Q1400.94 1540.33 1400.94 1531.6 Q1400.94 1522.85 1403.99 1518.27 Q1407.07 1513.66 1412.88 1513.66 Z" fill="#000000" fill-rule="evenodd" fill-opacity="1" /><path clip-path="url(#clip120)" d="M1433.04 1542.97 L1437.93 1542.97 L1437.93 1548.85 L1433.04 1548.85 L1433.04 1542.97 Z" fill="#000000" fill-rule="evenodd" fill-opacity="1" /><path clip-path="url(#clip120)" d="M1458.69 1529.7 Q1455.54 1529.7 1453.69 1531.86 Q1451.86 1534.01 1451.86 1537.76 Q1451.86 1541.49 1453.69 1543.66 Q1455.54 1545.82 1458.69 1545.82 Q1461.84 1545.82 1463.67 1543.66 Q1465.52 1541.49 1465.52 1537.76 Q1465.52 1534.01 1463.67 1531.86 Q1461.84 1529.7 1458.69 1529.7 M1467.97 1515.05 L1467.97 1519.31 Q1466.21 1518.48 1464.41 1518.04 Q1462.62 1517.6 1460.87 1517.6 Q1456.24 1517.6 1453.78 1520.72 Q1451.35 1523.85 1451 1530.17 Q1452.37 1528.15 1454.43 1527.09 Q1456.49 1526 1458.97 1526 Q1464.18 1526 1467.18 1529.17 Q1470.22 1532.32 1470.22 1537.76 Q1470.22 1543.08 1467.07 1546.3 Q1463.92 1549.52 1458.69 1549.52 Q1452.69 1549.52 1449.52 1544.94 Q1446.35 1540.33 1446.35 1531.6 Q1446.35 1523.41 1450.24 1518.55 Q1454.13 1513.66 1460.68 1513.66 Q1462.44 1513.66 1464.22 1514.01 Q1466.03 1514.36 1467.97 1515.05 Z" fill="#000000" fill-rule="evenodd" fill-opacity="1" /><path clip-path="url(#clip120)" d="M1761.77 1517.37 Q1758.16 1517.37 1756.33 1520.93 Q1754.52 1524.47 1754.52 1531.6 Q1754.52 1538.71 1756.33 1542.27 Q1758.16 1545.82 1761.77 1545.82 Q1765.4 1545.82 1767.21 1542.27 Q1769.04 1538.71 1769.04 1531.6 Q1769.04 1524.47 1767.21 1520.93 Q1765.4 1517.37 1761.77 1517.37 M1761.77 1513.66 Q1767.58 1513.66 1770.63 1518.27 Q1773.71 1522.85 1773.71 1531.6 Q1773.71 1540.33 1770.63 1544.94 Q1767.58 1549.52 1761.77 1549.52 Q1755.96 1549.52 1752.88 1544.94 Q1749.82 1540.33 1749.82 1531.6 Q1749.82 1522.85 1752.88 1518.27 Q1755.96 1513.66 1761.77 1513.66 Z" fill="#000000" fill-rule="evenodd" fill-opacity="1" /><path clip-path="url(#clip120)" d="M1781.93 1542.97 L1786.81 1542.97 L1786.81 1548.85 L1781.93 1548.85 L1781.93 1542.97 Z" fill="#000000" fill-rule="evenodd" fill-opacity="1" /><path clip-path="url(#clip120)" d="M1795.82 1514.29 L1818.04 1514.29 L1818.04 1516.28 L1805.49 1548.85 L1800.61 1548.85 L1812.41 1518.22 L1795.82 1518.22 L1795.82 1514.29 Z" fill="#000000" fill-rule="evenodd" fill-opacity="1" /><path clip-path="url(#clip120)" d="M2109.72 1517.37 Q2106.11 1517.37 2104.28 1520.93 Q2102.47 1524.47 2102.47 1531.6 Q2102.47 1538.71 2104.28 1542.27 Q2106.11 1545.82 2109.72 1545.82 Q2113.35 1545.82 2115.16 1542.27 Q2116.99 1538.71 2116.99 1531.6 Q2116.99 1524.47 2115.16 1520.93 Q2113.35 1517.37 2109.72 1517.37 M2109.72 1513.66 Q2115.53 1513.66 2118.58 1518.27 Q2121.66 1522.85 2121.66 1531.6 Q2121.66 1540.33 2118.58 1544.94 Q2115.53 1549.52 2109.72 1549.52 Q2103.91 1549.52 2100.83 1544.94 Q2097.77 1540.33 2097.77 1531.6 Q2097.77 1522.85 2100.83 1518.27 Q2103.91 1513.66 2109.72 1513.66 Z" fill="#000000" fill-rule="evenodd" fill-opacity="1" /><path clip-path="url(#clip120)" d="M2129.88 1542.97 L2134.76 1542.97 L2134.76 1548.85 L2129.88 1548.85 L2129.88 1542.97 Z" fill="#000000" fill-rule="evenodd" fill-opacity="1" /><path clip-path="url(#clip120)" d="M2154.95 1532.44 Q2151.61 1532.44 2149.69 1534.22 Q2147.8 1536 2147.8 1539.13 Q2147.8 1542.25 2149.69 1544.03 Q2151.61 1545.82 2154.95 1545.82 Q2158.28 1545.82 2160.2 1544.03 Q2162.12 1542.23 2162.12 1539.13 Q2162.12 1536 2160.2 1534.22 Q2158.3 1532.44 2154.95 1532.44 M2150.27 1530.45 Q2147.26 1529.7 2145.57 1527.64 Q2143.91 1525.58 2143.91 1522.62 Q2143.91 1518.48 2146.85 1516.07 Q2149.81 1513.66 2154.95 1513.66 Q2160.11 1513.66 2163.05 1516.07 Q2165.99 1518.48 2165.99 1522.62 Q2165.99 1525.58 2164.3 1527.64 Q2162.63 1529.7 2159.65 1530.45 Q2163.03 1531.23 2164.9 1533.52 Q2166.8 1535.82 2166.8 1539.13 Q2166.8 1544.15 2163.72 1546.83 Q2160.67 1549.52 2154.95 1549.52 Q2149.23 1549.52 2146.15 1546.83 Q2143.1 1544.15 2143.1 1539.13 Q2143.1 1535.82 2144.99 1533.52 Q2146.89 1531.23 2150.27 1530.45 M2148.56 1523.06 Q2148.56 1525.75 2150.23 1527.25 Q2151.92 1528.76 2154.95 1528.76 Q2157.96 1528.76 2159.65 1527.25 Q2161.36 1525.75 2161.36 1523.06 Q2161.36 1520.38 2159.65 1518.87 Q2157.96 1517.37 2154.95 1517.37 Q2151.92 1517.37 2150.23 1518.87 Q2148.56 1520.38 2148.56 1523.06 Z" fill="#000000" fill-rule="evenodd" fill-opacity="1" /><polyline clip-path="url(#clip122)" style="stroke:#000000; stroke-linecap:butt; stroke-linejoin:round; stroke-width:2; stroke-opacity:0.1; fill:none" points="
  156.598,1265.35 2352.76,1265.35 
  "/>
<polyline clip-path="url(#clip122)" style="stroke:#000000; stroke-linecap:butt; stroke-linejoin:round; stroke-width:2; stroke-opacity:0.1; fill:none" points="
  156.598,890.772 2352.76,890.772 
  "/>
<polyline clip-path="url(#clip122)" style="stroke:#000000; stroke-linecap:butt; stroke-linejoin:round; stroke-width:2; stroke-opacity:0.1; fill:none" points="
  156.598,516.194 2352.76,516.194 
  "/>
<polyline clip-path="url(#clip122)" style="stroke:#000000; stroke-linecap:butt; stroke-linejoin:round; stroke-width:2; stroke-opacity:0.1; fill:none" points="
  156.598,141.616 2352.76,141.616 
  "/>
<polyline clip-path="url(#clip120)" style="stroke:#000000; stroke-linecap:butt; stroke-linejoin:round; stroke-width:4; stroke-opacity:1; fill:none" points="
  156.598,1486.45 156.598,47.2441 
  "/>
<polyline clip-path="url(#clip120)" style="stroke:#000000; stroke-linecap:butt; stroke-linejoin:round; stroke-width:4; stroke-opacity:1; fill:none" points="
  156.598,1265.35 175.496,1265.35 
  "/>
<polyline clip-path="url(#clip120)" style="stroke:#000000; stroke-linecap:butt; stroke-linejoin:round; stroke-width:4; stroke-opacity:1; fill:none" points="
  156.598,890.772 175.496,890.772 
  "/>
<polyline clip-path="url(#clip120)" style="stroke:#000000; stroke-linecap:butt; stroke-linejoin:round; stroke-width:4; stroke-opacity:1; fill:none" points="
  156.598,516.194 175.496,516.194 
  "/>
<polyline clip-path="url(#clip120)" style="stroke:#000000; stroke-linecap:butt; stroke-linejoin:round; stroke-width:4; stroke-opacity:1; fill:none" points="
  156.598,141.616 175.496,141.616 
  "/>
<path clip-path="url(#clip120)" d="M65.0198 1251.15 Q61.4087 1251.15 59.58 1254.71 Q57.7745 1258.25 57.7745 1265.38 Q57.7745 1272.49 59.58 1276.06 Q61.4087 1279.6 65.0198 1279.6 Q68.6541 1279.6 70.4596 1276.06 Q72.2883 1272.49 72.2883 1265.38 Q72.2883 1258.25 70.4596 1254.71 Q68.6541 1251.15 65.0198 1251.15 M65.0198 1247.44 Q70.83 1247.44 73.8855 1252.05 Q76.9642 1256.63 76.9642 1265.38 Q76.9642 1274.11 73.8855 1278.72 Q70.83 1283.3 65.0198 1283.3 Q59.2097 1283.3 56.131 1278.72 Q53.0754 1274.11 53.0754 1265.38 Q53.0754 1256.63 56.131 1252.05 Q59.2097 1247.44 65.0198 1247.44 Z" fill="#000000" fill-rule="evenodd" fill-opacity="1" /><path clip-path="url(#clip120)" d="M85.1818 1276.75 L90.066 1276.75 L90.066 1282.63 L85.1818 1282.63 L85.1818 1276.75 Z" fill="#000000" fill-rule="evenodd" fill-opacity="1" /><path clip-path="url(#clip120)" d="M104.279 1278.69 L120.598 1278.69 L120.598 1282.63 L98.6539 1282.63 L98.6539 1278.69 Q101.316 1275.94 105.899 1271.31 Q110.506 1266.66 111.686 1265.31 Q113.932 1262.79 114.811 1261.06 Q115.714 1259.3 115.714 1257.61 Q115.714 1254.85 113.77 1253.12 Q111.848 1251.38 108.746 1251.38 Q106.547 1251.38 104.094 1252.14 Q101.663 1252.91 98.8854 1254.46 L98.8854 1249.74 Q101.709 1248.6 104.163 1248.02 Q106.617 1247.44 108.654 1247.44 Q114.024 1247.44 117.219 1250.13 Q120.413 1252.82 120.413 1257.31 Q120.413 1259.44 119.603 1261.36 Q118.816 1263.25 116.709 1265.85 Q116.131 1266.52 113.029 1269.74 Q109.927 1272.93 104.279 1278.69 Z" fill="#000000" fill-rule="evenodd" fill-opacity="1" /><path clip-path="url(#clip120)" d="M62.9365 876.57 Q59.3254 876.57 57.4967 880.135 Q55.6912 883.677 55.6912 890.807 Q55.6912 897.913 57.4967 901.478 Q59.3254 905.019 62.9365 905.019 Q66.5707 905.019 68.3763 901.478 Q70.205 897.913 70.205 890.807 Q70.205 883.677 68.3763 880.135 Q66.5707 876.57 62.9365 876.57 M62.9365 872.867 Q68.7467 872.867 71.8022 877.473 Q74.8809 882.057 74.8809 890.807 Q74.8809 899.533 71.8022 904.14 Q68.7467 908.723 62.9365 908.723 Q57.1264 908.723 54.0477 904.14 Q50.9921 899.533 50.9921 890.807 Q50.9921 882.057 54.0477 877.473 Q57.1264 872.867 62.9365 872.867 Z" fill="#000000" fill-rule="evenodd" fill-opacity="1" /><path clip-path="url(#clip120)" d="M83.0984 902.172 L87.9827 902.172 L87.9827 908.052 L83.0984 908.052 L83.0984 902.172 Z" fill="#000000" fill-rule="evenodd" fill-opacity="1" /><path clip-path="url(#clip120)" d="M111.015 877.566 L99.2095 896.015 L111.015 896.015 L111.015 877.566 M109.788 873.492 L115.668 873.492 L115.668 896.015 L120.598 896.015 L120.598 899.904 L115.668 899.904 L115.668 908.052 L111.015 908.052 L111.015 899.904 L95.4132 899.904 L95.4132 895.39 L109.788 873.492 Z" fill="#000000" fill-rule="evenodd" fill-opacity="1" /><path clip-path="url(#clip120)" d="M63.2606 501.993 Q59.6495 501.993 57.8208 505.557 Q56.0152 509.099 56.0152 516.229 Q56.0152 523.335 57.8208 526.9 Q59.6495 530.441 63.2606 530.441 Q66.8948 530.441 68.7004 526.9 Q70.5291 523.335 70.5291 516.229 Q70.5291 509.099 68.7004 505.557 Q66.8948 501.993 63.2606 501.993 M63.2606 498.289 Q69.0707 498.289 72.1263 502.895 Q75.205 507.479 75.205 516.229 Q75.205 524.955 72.1263 529.562 Q69.0707 534.145 63.2606 534.145 Q57.4504 534.145 54.3717 529.562 Q51.3162 524.955 51.3162 516.229 Q51.3162 507.479 54.3717 502.895 Q57.4504 498.289 63.2606 498.289 Z" fill="#000000" fill-rule="evenodd" fill-opacity="1" /><path clip-path="url(#clip120)" d="M83.4225 527.594 L88.3067 527.594 L88.3067 533.474 L83.4225 533.474 L83.4225 527.594 Z" fill="#000000" fill-rule="evenodd" fill-opacity="1" /><path clip-path="url(#clip120)" d="M109.071 514.33 Q105.922 514.33 104.071 516.483 Q102.242 518.636 102.242 522.386 Q102.242 526.113 104.071 528.289 Q105.922 530.441 109.071 530.441 Q112.219 530.441 114.047 528.289 Q115.899 526.113 115.899 522.386 Q115.899 518.636 114.047 516.483 Q112.219 514.33 109.071 514.33 M118.353 499.678 L118.353 503.937 Q116.594 503.104 114.788 502.664 Q113.006 502.224 111.246 502.224 Q106.617 502.224 104.163 505.349 Q101.733 508.474 101.385 514.793 Q102.751 512.78 104.811 511.715 Q106.871 510.627 109.348 510.627 Q114.557 510.627 117.566 513.798 Q120.598 516.946 120.598 522.386 Q120.598 527.71 117.45 530.928 Q114.302 534.145 109.071 534.145 Q103.075 534.145 99.9039 529.562 Q96.7326 524.955 96.7326 516.229 Q96.7326 508.034 100.621 503.173 Q104.51 498.289 111.061 498.289 Q112.82 498.289 114.603 498.636 Q116.408 498.983 118.353 499.678 Z" fill="#000000" fill-rule="evenodd" fill-opacity="1" /><path clip-path="url(#clip120)" d="M63.5152 127.415 Q59.9041 127.415 58.0754 130.979 Q56.2699 134.521 56.2699 141.651 Q56.2699 148.757 58.0754 152.322 Q59.9041 155.864 63.5152 155.864 Q67.1494 155.864 68.955 152.322 Q70.7837 148.757 70.7837 141.651 Q70.7837 134.521 68.955 130.979 Q67.1494 127.415 63.5152 127.415 M63.5152 123.711 Q69.3254 123.711 72.3809 128.317 Q75.4596 132.901 75.4596 141.651 Q75.4596 150.377 72.3809 154.984 Q69.3254 159.567 63.5152 159.567 Q57.7051 159.567 54.6264 154.984 Q51.5708 150.377 51.5708 141.651 Q51.5708 132.901 54.6264 128.317 Q57.7051 123.711 63.5152 123.711 Z" fill="#000000" fill-rule="evenodd" fill-opacity="1" /><path clip-path="url(#clip120)" d="M83.6771 153.016 L88.5614 153.016 L88.5614 158.896 L83.6771 158.896 L83.6771 153.016 Z" fill="#000000" fill-rule="evenodd" fill-opacity="1" /><path clip-path="url(#clip120)" d="M108.746 142.484 Q105.413 142.484 103.492 144.266 Q101.594 146.049 101.594 149.174 Q101.594 152.299 103.492 154.081 Q105.413 155.864 108.746 155.864 Q112.08 155.864 114.001 154.081 Q115.922 152.276 115.922 149.174 Q115.922 146.049 114.001 144.266 Q112.103 142.484 108.746 142.484 M104.071 140.493 Q101.061 139.753 99.3715 137.692 Q97.7048 135.632 97.7048 132.669 Q97.7048 128.526 100.645 126.118 Q103.608 123.711 108.746 123.711 Q113.908 123.711 116.848 126.118 Q119.788 128.526 119.788 132.669 Q119.788 135.632 118.098 137.692 Q116.432 139.753 113.445 140.493 Q116.825 141.28 118.7 143.572 Q120.598 145.864 120.598 149.174 Q120.598 154.197 117.52 156.882 Q114.464 159.567 108.746 159.567 Q103.029 159.567 99.9502 156.882 Q96.8947 154.197 96.8947 149.174 Q96.8947 145.864 98.7928 143.572 Q100.691 141.28 104.071 140.493 M102.358 133.109 Q102.358 135.794 104.024 137.299 Q105.714 138.803 108.746 138.803 Q111.756 138.803 113.445 137.299 Q115.158 135.794 115.158 133.109 Q115.158 130.424 113.445 128.919 Q111.756 127.415 108.746 127.415 Q105.714 127.415 104.024 128.919 Q102.358 130.424 102.358 133.109 Z" fill="#000000" fill-rule="evenodd" fill-opacity="1" /><polyline clip-path="url(#clip122)" style="stroke:#009af9; stroke-linecap:butt; stroke-linejoin:round; stroke-width:4; stroke-opacity:1; fill:none" points="
  218.754,87.9763 2290.6,378.855 1984.09,1445.72 961.695,223.127 1506.65,325.941 1217.14,1202.38 1249.41,1346.96 1099.88,1328.41 2115.7,385.104 554.012,1412.92 
  
  "/>
<path clip-path="url(#clip120)" d="
M1987.12 198.898 L2279.55 198.898 L2279.55 95.2176 L1987.12 95.2176  Z
  " fill="#ffffff" fill-rule="evenodd" fill-opacity="1"/>
<polyline clip-path="url(#clip120)" style="stroke:#000000; stroke-linecap:butt; stroke-linejoin:round; stroke-width:4; stroke-opacity:1; fill:none" points="
  1987.12,198.898 2279.55,198.898 2279.55,95.2176 1987.12,95.2176 1987.12,198.898 
  "/>
<polyline clip-path="url(#clip120)" style="stroke:#009af9; stroke-linecap:butt; stroke-linejoin:round; stroke-width:4; stroke-opacity:1; fill:none" points="
  2011.12,147.058 2155.12,147.058 
  "/>
<path clip-path="url(#clip120)" d="M2192.96 166.745 Q2191.16 171.375 2189.44 172.787 Q2187.73 174.199 2184.86 174.199 L2181.46 174.199 L2181.46 170.634 L2183.96 170.634 Q2185.72 170.634 2186.69 169.8 Q2187.66 168.967 2188.84 165.865 L2189.61 163.921 L2179.12 138.412 L2183.63 138.412 L2191.74 158.689 L2199.84 138.412 L2204.35 138.412 L2192.96 166.745 Z" fill="#000000" fill-rule="evenodd" fill-opacity="1" /><path clip-path="url(#clip120)" d="M2211.64 160.402 L2219.28 160.402 L2219.28 134.037 L2210.97 135.703 L2210.97 131.444 L2219.24 129.778 L2223.91 129.778 L2223.91 160.402 L2231.55 160.402 L2231.55 164.338 L2211.64 164.338 L2211.64 160.402 Z" fill="#000000" fill-rule="evenodd" fill-opacity="1" /></svg>
