<?xml version="1.0" encoding="utf-8"?>
<svg xmlns="http://www.w3.org/2000/svg" xmlns:xlink="http://www.w3.org/1999/xlink" width="600" height="400" viewBox="0 0 2400 1600">
<defs>
  <clipPath id="clip920">
    <rect x="0" y="0" width="2400" height="1600"/>
  </clipPath>
</defs>
<path clip-path="url(#clip920)" d="
M0 1600 L2400 1600 L2400 0 L0 0  Z
  " fill="#ffffff" fill-rule="evenodd" fill-opacity="1"/>
<defs>
  <clipPath id="clip921">
    <rect x="480" y="0" width="1681" height="1600"/>
  </clipPath>
</defs>
<path clip-path="url(#clip920)" d="
M156.598 1486.45 L2352.76 1486.45 L2352.76 47.2441 L156.598 47.2441  Z
  " fill="#ffffff" fill-rule="evenodd" fill-opacity="1"/>
<defs>
  <clipPath id="clip922">
    <rect x="156" y="47" width="2197" height="1440"/>
  </clipPath>
</defs>
<polyline clip-path="url(#clip922)" style="stroke:#000000; stroke-linecap:butt; stroke-linejoin:round; stroke-width:2; stroke-opacity:0.1; fill:none" points="
  556.529,1486.45 556.529,47.2441 
  "/>
<polyline clip-path="url(#clip922)" style="stroke:#000000; stroke-linecap:butt; stroke-linejoin:round; stroke-width:2; stroke-opacity:0.1; fill:none" points="
  1026.79,1486.45 1026.79,47.2441 
  "/>
<polyline clip-path="url(#clip922)" style="stroke:#000000; stroke-linecap:butt; stroke-linejoin:round; stroke-width:2; stroke-opacity:0.1; fill:none" points="
  1497.05,1486.45 1497.05,47.2441 
  "/>
<polyline clip-path="url(#clip922)" style="stroke:#000000; stroke-linecap:butt; stroke-linejoin:round; stroke-width:2; stroke-opacity:0.1; fill:none" points="
  1967.32,1486.45 1967.32,47.2441 
  "/>
<polyline clip-path="url(#clip920)" style="stroke:#000000; stroke-linecap:butt; stroke-linejoin:round; stroke-width:4; stroke-opacity:1; fill:none" points="
  156.598,1486.45 2352.76,1486.45 
  "/>
<polyline clip-path="url(#clip920)" style="stroke:#000000; stroke-linecap:butt; stroke-linejoin:round; stroke-width:4; stroke-opacity:1; fill:none" points="
  556.529,1486.45 556.529,1467.55 
  "/>
<polyline clip-path="url(#clip920)" style="stroke:#000000; stroke-linecap:butt; stroke-linejoin:round; stroke-width:4; stroke-opacity:1; fill:none" points="
  1026.79,1486.45 1026.79,1467.55 
  "/>
<polyline clip-path="url(#clip920)" style="stroke:#000000; stroke-linecap:butt; stroke-linejoin:round; stroke-width:4; stroke-opacity:1; fill:none" points="
  1497.05,1486.45 1497.05,1467.55 
  "/>
<polyline clip-path="url(#clip920)" style="stroke:#000000; stroke-linecap:butt; stroke-linejoin:round; stroke-width:4; stroke-opacity:1; fill:none" points="
  1967.32,1486.45 1967.32,1467.55 
  "/>
<path clip-path="url(#clip920)" d="M534.712 1517.37 Q531.101 1517.37 529.272 1520.93 Q527.466 1524.47 527.466 1531.6 Q527.466 1538.71 529.272 1542.27 Q531.101 1545.82 534.712 1545.82 Q538.346 1545.82 540.152 1542.27 Q541.98 1538.71 541.98 1531.6 Q541.98 1524.47 540.152 1520.93 Q538.346 1517.37 534.712 1517.37 M534.712 1513.66 Q540.522 1513.66 543.578 1518.27 Q546.656 1522.85 546.656 1531.6 Q546.656 1540.33 543.578 1544.94 Q540.522 1549.52 534.712 1549.52 Q528.902 1549.52 525.823 1544.94 Q522.767 1540.33 522.767 1531.6 Q522.767 1522.85 525.823 1518.27 Q528.902 1513.66 534.712 1513.66 Z" fill="#000000" fill-rule="evenodd" fill-opacity="1" /><path clip-path="url(#clip920)" d="M554.874 1542.97 L559.758 1542.97 L559.758 1548.85 L554.874 1548.85 L554.874 1542.97 Z" fill="#000000" fill-rule="evenodd" fill-opacity="1" /><path clip-path="url(#clip920)" d="M573.971 1544.91 L590.29 1544.91 L590.29 1548.85 L568.346 1548.85 L568.346 1544.91 Q571.008 1542.16 575.591 1537.53 Q580.198 1532.88 581.378 1531.53 Q583.624 1529.01 584.503 1527.27 Q585.406 1525.51 585.406 1523.82 Q585.406 1521.07 583.462 1519.33 Q581.54 1517.6 578.438 1517.6 Q576.239 1517.6 573.786 1518.36 Q571.355 1519.13 568.577 1520.68 L568.577 1515.95 Q571.401 1514.82 573.855 1514.24 Q576.309 1513.66 578.346 1513.66 Q583.716 1513.66 586.911 1516.35 Q590.105 1519.03 590.105 1523.52 Q590.105 1525.65 589.295 1527.57 Q588.508 1529.47 586.401 1532.07 Q585.823 1532.74 582.721 1535.95 Q579.619 1539.15 573.971 1544.91 Z" fill="#000000" fill-rule="evenodd" fill-opacity="1" /><path clip-path="url(#clip920)" d="M1003.93 1517.37 Q1000.32 1517.37 998.493 1520.93 Q996.687 1524.47 996.687 1531.6 Q996.687 1538.71 998.493 1542.27 Q1000.32 1545.82 1003.93 1545.82 Q1007.57 1545.82 1009.37 1542.27 Q1011.2 1538.71 1011.2 1531.6 Q1011.2 1524.47 1009.37 1520.93 Q1007.57 1517.37 1003.93 1517.37 M1003.93 1513.66 Q1009.74 1513.66 1012.8 1518.27 Q1015.88 1522.85 1015.88 1531.6 Q1015.88 1540.33 1012.8 1544.94 Q1009.74 1549.52 1003.93 1549.52 Q998.123 1549.52 995.044 1544.94 Q991.988 1540.33 991.988 1531.6 Q991.988 1522.85 995.044 1518.27 Q998.123 1513.66 1003.93 1513.66 Z" fill="#000000" fill-rule="evenodd" fill-opacity="1" /><path clip-path="url(#clip920)" d="M1024.09 1542.97 L1028.98 1542.97 L1028.98 1548.85 L1024.09 1548.85 L1024.09 1542.97 Z" fill="#000000" fill-rule="evenodd" fill-opacity="1" /><path clip-path="url(#clip920)" d="M1052.01 1518.36 L1040.21 1536.81 L1052.01 1536.81 L1052.01 1518.36 M1050.78 1514.29 L1056.66 1514.29 L1056.66 1536.81 L1061.59 1536.81 L1061.59 1540.7 L1056.66 1540.7 L1056.66 1548.85 L1052.01 1548.85 L1052.01 1540.7 L1036.41 1540.7 L1036.41 1536.19 L1050.78 1514.29 Z" fill="#000000" fill-rule="evenodd" fill-opacity="1" /><path clip-path="url(#clip920)" d="M1474.36 1517.37 Q1470.75 1517.37 1468.92 1520.93 Q1467.11 1524.47 1467.11 1531.6 Q1467.11 1538.71 1468.92 1542.27 Q1470.75 1545.82 1474.36 1545.82 Q1477.99 1545.82 1479.8 1542.27 Q1481.63 1538.71 1481.63 1531.6 Q1481.63 1524.47 1479.8 1520.93 Q1477.99 1517.37 1474.36 1517.37 M1474.36 1513.66 Q1480.17 1513.66 1483.22 1518.27 Q1486.3 1522.85 1486.3 1531.6 Q1486.3 1540.33 1483.22 1544.94 Q1480.17 1549.52 1474.36 1549.52 Q1468.55 1549.52 1465.47 1544.94 Q1462.41 1540.33 1462.41 1531.6 Q1462.41 1522.85 1465.47 1518.27 Q1468.55 1513.66 1474.36 1513.66 Z" fill="#000000" fill-rule="evenodd" fill-opacity="1" /><path clip-path="url(#clip920)" d="M1494.52 1542.97 L1499.4 1542.97 L1499.4 1548.85 L1494.52 1548.85 L1494.52 1542.97 Z" fill="#000000" fill-rule="evenodd" fill-opacity="1" /><path clip-path="url(#clip920)" d="M1520.17 1529.7 Q1517.02 1529.7 1515.17 1531.86 Q1513.34 1534.01 1513.34 1537.76 Q1513.34 1541.49 1515.17 1543.66 Q1517.02 1545.82 1520.17 1545.82 Q1523.32 1545.82 1525.14 1543.66 Q1527 1541.49 1527 1537.76 Q1527 1534.01 1525.14 1531.86 Q1523.32 1529.7 1520.17 1529.7 M1529.45 1515.05 L1529.45 1519.31 Q1527.69 1518.48 1525.88 1518.04 Q1524.1 1517.6 1522.34 1517.6 Q1517.71 1517.6 1515.26 1520.72 Q1512.83 1523.85 1512.48 1530.17 Q1513.85 1528.15 1515.91 1527.09 Q1517.97 1526 1520.45 1526 Q1525.65 1526 1528.66 1529.17 Q1531.7 1532.32 1531.7 1537.76 Q1531.7 1543.08 1528.55 1546.3 Q1525.4 1549.52 1520.17 1549.52 Q1514.17 1549.52 1511 1544.94 Q1507.83 1540.33 1507.83 1531.6 Q1507.83 1523.41 1511.72 1518.55 Q1515.61 1513.66 1522.16 1513.66 Q1523.92 1513.66 1525.7 1514.01 Q1527.51 1514.36 1529.45 1515.05 Z" fill="#000000" fill-rule="evenodd" fill-opacity="1" /><path clip-path="url(#clip920)" d="M1944.75 1517.37 Q1941.14 1517.37 1939.31 1520.93 Q1937.5 1524.47 1937.5 1531.6 Q1937.5 1538.71 1939.31 1542.27 Q1941.14 1545.82 1944.75 1545.82 Q1948.38 1545.82 1950.19 1542.27 Q1952.02 1538.71 1952.02 1531.6 Q1952.02 1524.47 1950.19 1520.93 Q1948.38 1517.37 1944.75 1517.37 M1944.75 1513.66 Q1950.56 1513.66 1953.61 1518.27 Q1956.69 1522.85 1956.69 1531.6 Q1956.69 1540.33 1953.61 1544.94 Q1950.56 1549.52 1944.75 1549.52 Q1938.94 1549.52 1935.86 1544.94 Q1932.8 1540.33 1932.8 1531.6 Q1932.8 1522.85 1935.86 1518.27 Q1938.94 1513.66 1944.75 1513.66 Z" fill="#000000" fill-rule="evenodd" fill-opacity="1" /><path clip-path="url(#clip920)" d="M1964.91 1542.97 L1969.79 1542.97 L1969.79 1548.85 L1964.91 1548.85 L1964.91 1542.97 Z" fill="#000000" fill-rule="evenodd" fill-opacity="1" /><path clip-path="url(#clip920)" d="M1989.98 1532.44 Q1986.65 1532.44 1984.72 1534.22 Q1982.83 1536 1982.83 1539.13 Q1982.83 1542.25 1984.72 1544.03 Q1986.65 1545.82 1989.98 1545.82 Q1993.31 1545.82 1995.23 1544.03 Q1997.15 1542.23 1997.15 1539.13 Q1997.15 1536 1995.23 1534.22 Q1993.33 1532.44 1989.98 1532.44 M1985.3 1530.45 Q1982.29 1529.7 1980.6 1527.64 Q1978.94 1525.58 1978.94 1522.62 Q1978.94 1518.48 1981.88 1516.07 Q1984.84 1513.66 1989.98 1513.66 Q1995.14 1513.66 1998.08 1516.07 Q2001.02 1518.48 2001.02 1522.62 Q2001.02 1525.58 1999.33 1527.64 Q1997.66 1529.7 1994.68 1530.45 Q1998.06 1531.23 1999.93 1533.52 Q2001.83 1535.82 2001.83 1539.13 Q2001.83 1544.15 1998.75 1546.83 Q1995.7 1549.52 1989.98 1549.52 Q1984.26 1549.52 1981.18 1546.83 Q1978.13 1544.15 1978.13 1539.13 Q1978.13 1535.82 1980.02 1533.52 Q1981.92 1531.23 1985.3 1530.45 M1983.59 1523.06 Q1983.59 1525.75 1985.26 1527.25 Q1986.95 1528.76 1989.98 1528.76 Q1992.99 1528.76 1994.68 1527.25 Q1996.39 1525.75 1996.39 1523.06 Q1996.39 1520.38 1994.68 1518.87 Q1992.99 1517.37 1989.98 1517.37 Q1986.95 1517.37 1985.26 1518.87 Q1983.59 1520.38 1983.59 1523.06 Z" fill="#000000" fill-rule="evenodd" fill-opacity="1" /><polyline clip-path="url(#clip922)" style="stroke:#000000; stroke-linecap:butt; stroke-linejoin:round; stroke-width:2; stroke-opacity:0.1; fill:none" points="
  156.598,1400.25 2352.76,1400.25 
  "/>
<polyline clip-path="url(#clip922)" style="stroke:#000000; stroke-linecap:butt; stroke-linejoin:round; stroke-width:2; stroke-opacity:0.1; fill:none" points="
  156.598,1016.38 2352.76,1016.38 
  "/>
<polyline clip-path="url(#clip922)" style="stroke:#000000; stroke-linecap:butt; stroke-linejoin:round; stroke-width:2; stroke-opacity:0.1; fill:none" points="
  156.598,632.508 2352.76,632.508 
  "/>
<polyline clip-path="url(#clip922)" style="stroke:#000000; stroke-linecap:butt; stroke-linejoin:round; stroke-width:2; stroke-opacity:0.1; fill:none" points="
  156.598,248.634 2352.76,248.634 
  "/>
<polyline clip-path="url(#clip920)" style="stroke:#000000; stroke-linecap:butt; stroke-linejoin:round; stroke-width:4; stroke-opacity:1; fill:none" points="
  156.598,1486.45 156.598,47.2441 
  "/>
<polyline clip-path="url(#clip920)" style="stroke:#000000; stroke-linecap:butt; stroke-linejoin:round; stroke-width:4; stroke-opacity:1; fill:none" points="
  156.598,1400.25 175.496,1400.25 
  "/>
<polyline clip-path="url(#clip920)" style="stroke:#000000; stroke-linecap:butt; stroke-linejoin:round; stroke-width:4; stroke-opacity:1; fill:none" points="
  156.598,1016.38 175.496,1016.38 
  "/>
<polyline clip-path="url(#clip920)" style="stroke:#000000; stroke-linecap:butt; stroke-linejoin:round; stroke-width:4; stroke-opacity:1; fill:none" points="
  156.598,632.508 175.496,632.508 
  "/>
<polyline clip-path="url(#clip920)" style="stroke:#000000; stroke-linecap:butt; stroke-linejoin:round; stroke-width:4; stroke-opacity:1; fill:none" points="
  156.598,248.634 175.496,248.634 
  "/>
<path clip-path="url(#clip920)" d="M65.0198 1386.05 Q61.4087 1386.05 59.58 1389.62 Q57.7745 1393.16 57.7745 1400.29 Q57.7745 1407.4 59.58 1410.96 Q61.4087 1414.5 65.0198 1414.5 Q68.6541 1414.5 70.4596 1410.96 Q72.2883 1407.4 72.2883 1400.29 Q72.2883 1393.16 70.4596 1389.62 Q68.6541 1386.05 65.0198 1386.05 M65.0198 1382.35 Q70.83 1382.35 73.8855 1386.96 Q76.9642 1391.54 76.9642 1400.29 Q76.9642 1409.02 73.8855 1413.62 Q70.83 1418.21 65.0198 1418.21 Q59.2097 1418.21 56.131 1413.62 Q53.0754 1409.02 53.0754 1400.29 Q53.0754 1391.54 56.131 1386.96 Q59.2097 1382.35 65.0198 1382.35 Z" fill="#000000" fill-rule="evenodd" fill-opacity="1" /><path clip-path="url(#clip920)" d="M85.1818 1411.65 L90.066 1411.65 L90.066 1417.53 L85.1818 1417.53 L85.1818 1411.65 Z" fill="#000000" fill-rule="evenodd" fill-opacity="1" /><path clip-path="url(#clip920)" d="M104.279 1413.6 L120.598 1413.6 L120.598 1417.53 L98.6539 1417.53 L98.6539 1413.6 Q101.316 1410.84 105.899 1406.21 Q110.506 1401.56 111.686 1400.22 Q113.932 1397.7 114.811 1395.96 Q115.714 1394.2 115.714 1392.51 Q115.714 1389.76 113.77 1388.02 Q111.848 1386.28 108.746 1386.28 Q106.547 1386.28 104.094 1387.05 Q101.663 1387.81 98.8854 1389.36 L98.8854 1384.64 Q101.709 1383.51 104.163 1382.93 Q106.617 1382.35 108.654 1382.35 Q114.024 1382.35 117.219 1385.03 Q120.413 1387.72 120.413 1392.21 Q120.413 1394.34 119.603 1396.26 Q118.816 1398.16 116.709 1400.75 Q116.131 1401.42 113.029 1404.64 Q109.927 1407.84 104.279 1413.6 Z" fill="#000000" fill-rule="evenodd" fill-opacity="1" /><path clip-path="url(#clip920)" d="M62.9365 1002.18 Q59.3254 1002.18 57.4967 1005.74 Q55.6912 1009.29 55.6912 1016.42 Q55.6912 1023.52 57.4967 1027.09 Q59.3254 1030.63 62.9365 1030.63 Q66.5707 1030.63 68.3763 1027.09 Q70.205 1023.52 70.205 1016.42 Q70.205 1009.29 68.3763 1005.74 Q66.5707 1002.18 62.9365 1002.18 M62.9365 998.476 Q68.7467 998.476 71.8022 1003.08 Q74.8809 1007.67 74.8809 1016.42 Q74.8809 1025.14 71.8022 1029.75 Q68.7467 1034.33 62.9365 1034.33 Q57.1264 1034.33 54.0477 1029.75 Q50.9921 1025.14 50.9921 1016.42 Q50.9921 1007.67 54.0477 1003.08 Q57.1264 998.476 62.9365 998.476 Z" fill="#000000" fill-rule="evenodd" fill-opacity="1" /><path clip-path="url(#clip920)" d="M83.0984 1027.78 L87.9827 1027.78 L87.9827 1033.66 L83.0984 1033.66 L83.0984 1027.78 Z" fill="#000000" fill-rule="evenodd" fill-opacity="1" /><path clip-path="url(#clip920)" d="M111.015 1003.18 L99.2095 1021.62 L111.015 1021.62 L111.015 1003.18 M109.788 999.101 L115.668 999.101 L115.668 1021.62 L120.598 1021.62 L120.598 1025.51 L115.668 1025.51 L115.668 1033.66 L111.015 1033.66 L111.015 1025.51 L95.4132 1025.51 L95.4132 1021 L109.788 999.101 Z" fill="#000000" fill-rule="evenodd" fill-opacity="1" /><path clip-path="url(#clip920)" d="M63.2606 618.306 Q59.6495 618.306 57.8208 621.871 Q56.0152 625.413 56.0152 632.542 Q56.0152 639.649 57.8208 643.214 Q59.6495 646.755 63.2606 646.755 Q66.8948 646.755 68.7004 643.214 Q70.5291 639.649 70.5291 632.542 Q70.5291 625.413 68.7004 621.871 Q66.8948 618.306 63.2606 618.306 M63.2606 614.603 Q69.0707 614.603 72.1263 619.209 Q75.205 623.793 75.205 632.542 Q75.205 641.269 72.1263 645.876 Q69.0707 650.459 63.2606 650.459 Q57.4504 650.459 54.3717 645.876 Q51.3162 641.269 51.3162 632.542 Q51.3162 623.793 54.3717 619.209 Q57.4504 614.603 63.2606 614.603 Z" fill="#000000" fill-rule="evenodd" fill-opacity="1" /><path clip-path="url(#clip920)" d="M83.4225 643.908 L88.3067 643.908 L88.3067 649.788 L83.4225 649.788 L83.4225 643.908 Z" fill="#000000" fill-rule="evenodd" fill-opacity="1" /><path clip-path="url(#clip920)" d="M109.071 630.644 Q105.922 630.644 104.071 632.797 Q102.242 634.95 102.242 638.7 Q102.242 642.427 104.071 644.603 Q105.922 646.755 109.071 646.755 Q112.219 646.755 114.047 644.603 Q115.899 642.427 115.899 638.7 Q115.899 634.95 114.047 632.797 Q112.219 630.644 109.071 630.644 M118.353 615.992 L118.353 620.251 Q116.594 619.418 114.788 618.978 Q113.006 618.538 111.246 618.538 Q106.617 618.538 104.163 621.663 Q101.733 624.788 101.385 631.107 Q102.751 629.093 104.811 628.029 Q106.871 626.941 109.348 626.941 Q114.557 626.941 117.566 630.112 Q120.598 633.26 120.598 638.7 Q120.598 644.024 117.45 647.241 Q114.302 650.459 109.071 650.459 Q103.075 650.459 99.9039 645.876 Q96.7326 641.269 96.7326 632.542 Q96.7326 624.348 100.621 619.487 Q104.51 614.603 111.061 614.603 Q112.82 614.603 114.603 614.95 Q116.408 615.297 118.353 615.992 Z" fill="#000000" fill-rule="evenodd" fill-opacity="1" /><path clip-path="url(#clip920)" d="M63.5152 234.433 Q59.9041 234.433 58.0754 237.998 Q56.2699 241.54 56.2699 248.669 Q56.2699 255.776 58.0754 259.34 Q59.9041 262.882 63.5152 262.882 Q67.1494 262.882 68.955 259.34 Q70.7837 255.776 70.7837 248.669 Q70.7837 241.54 68.955 237.998 Q67.1494 234.433 63.5152 234.433 M63.5152 230.729 Q69.3254 230.729 72.3809 235.336 Q75.4596 239.919 75.4596 248.669 Q75.4596 257.396 72.3809 262.002 Q69.3254 266.586 63.5152 266.586 Q57.7051 266.586 54.6264 262.002 Q51.5708 257.396 51.5708 248.669 Q51.5708 239.919 54.6264 235.336 Q57.7051 230.729 63.5152 230.729 Z" fill="#000000" fill-rule="evenodd" fill-opacity="1" /><path clip-path="url(#clip920)" d="M83.6771 260.035 L88.5614 260.035 L88.5614 265.914 L83.6771 265.914 L83.6771 260.035 Z" fill="#000000" fill-rule="evenodd" fill-opacity="1" /><path clip-path="url(#clip920)" d="M108.746 249.503 Q105.413 249.503 103.492 251.285 Q101.594 253.067 101.594 256.192 Q101.594 259.317 103.492 261.1 Q105.413 262.882 108.746 262.882 Q112.08 262.882 114.001 261.1 Q115.922 259.294 115.922 256.192 Q115.922 253.067 114.001 251.285 Q112.103 249.503 108.746 249.503 M104.071 247.512 Q101.061 246.771 99.3715 244.711 Q97.7048 242.651 97.7048 239.688 Q97.7048 235.544 100.645 233.137 Q103.608 230.729 108.746 230.729 Q113.908 230.729 116.848 233.137 Q119.788 235.544 119.788 239.688 Q119.788 242.651 118.098 244.711 Q116.432 246.771 113.445 247.512 Q116.825 248.299 118.7 250.59 Q120.598 252.882 120.598 256.192 Q120.598 261.215 117.52 263.901 Q114.464 266.586 108.746 266.586 Q103.029 266.586 99.9502 263.901 Q96.8947 261.215 96.8947 256.192 Q96.8947 252.882 98.7928 250.59 Q100.691 248.299 104.071 247.512 M102.358 240.128 Q102.358 242.813 104.024 244.317 Q105.714 245.822 108.746 245.822 Q111.756 245.822 113.445 244.317 Q115.158 242.813 115.158 240.128 Q115.158 237.442 113.445 235.938 Q111.756 234.433 108.746 234.433 Q105.714 234.433 104.024 235.938 Q102.358 237.442 102.358 240.128 Z" fill="#000000" fill-rule="evenodd" fill-opacity="1" /><polyline clip-path="url(#clip922)" style="stroke:#009af9; stroke-linecap:butt; stroke-linejoin:round; stroke-width:4; stroke-opacity:1; fill:none" points="
  1289.74,87.9763 2195.56,113.629 2290.6,863.916 218.754,1445.72 1235.67,643.796 1398.97,135.325 985.873,385.127 905.664,199.316 973.061,118.918 1317.8,1167.82 
  
  "/>
<path clip-path="url(#clip920)" d="
M1987.12 198.898 L2279.55 198.898 L2279.55 95.2176 L1987.12 95.2176  Z
  " fill="#ffffff" fill-rule="evenodd" fill-opacity="1"/>
<polyline clip-path="url(#clip920)" style="stroke:#000000; stroke-linecap:butt; stroke-linejoin:round; stroke-width:4; stroke-opacity:1; fill:none" points="
  1987.12,198.898 2279.55,198.898 2279.55,95.2176 1987.12,95.2176 1987.12,198.898 
  "/>
<polyline clip-path="url(#clip920)" style="stroke:#009af9; stroke-linecap:butt; stroke-linejoin:round; stroke-width:4; stroke-opacity:1; fill:none" points="
  2011.12,147.058 2155.12,147.058 
  "/>
<path clip-path="url(#clip920)" d="M2192.96 166.745 Q2191.16 171.375 2189.44 172.787 Q2187.73 174.199 2184.86 174.199 L2181.46 174.199 L2181.46 170.634 L2183.96 170.634 Q2185.72 170.634 2186.69 169.8 Q2187.66 168.967 2188.84 165.865 L2189.61 163.921 L2179.12 138.412 L2183.63 138.412 L2191.74 158.689 L2199.84 138.412 L2204.35 138.412 L2192.96 166.745 Z" fill="#000000" fill-rule="evenodd" fill-opacity="1" /><path clip-path="url(#clip920)" d="M2211.64 160.402 L2219.28 160.402 L2219.28 134.037 L2210.97 135.703 L2210.97 131.444 L2219.24 129.778 L2223.91 129.778 L2223.91 160.402 L2231.55 160.402 L2231.55 164.338 L2211.64 164.338 L2211.64 160.402 Z" fill="#000000" fill-rule="evenodd" fill-opacity="1" /></svg>
