<?xml version="1.0" encoding="utf-8"?>
<svg xmlns="http://www.w3.org/2000/svg" xmlns:xlink="http://www.w3.org/1999/xlink" width="600" height="400" viewBox="0 0 2400 1600">
<defs>
  <clipPath id="clip470">
    <rect x="0" y="0" width="2400" height="1600"/>
  </clipPath>
</defs>
<path clip-path="url(#clip470)" d="
M0 1600 L2400 1600 L2400 0 L0 0  Z
  " fill="#ffffff" fill-rule="evenodd" fill-opacity="1"/>
<defs>
  <clipPath id="clip471">
    <rect x="480" y="0" width="1681" height="1600"/>
  </clipPath>
</defs>
<path clip-path="url(#clip470)" d="
M186.274 1486.45 L2352.76 1486.45 L2352.76 47.2441 L186.274 47.2441  Z
  " fill="#ffffff" fill-rule="evenodd" fill-opacity="1"/>
<defs>
  <clipPath id="clip472">
    <rect x="186" y="47" width="2167" height="1440"/>
  </clipPath>
</defs>
<polyline clip-path="url(#clip472)" style="stroke:#000000; stroke-linecap:butt; stroke-linejoin:round; stroke-width:2; stroke-opacity:0.1; fill:none" points="
  247.712,1486.45 247.712,47.2441 
  "/>
<polyline clip-path="url(#clip472)" style="stroke:#000000; stroke-linecap:butt; stroke-linejoin:round; stroke-width:2; stroke-opacity:0.1; fill:none" points="
  560.617,1486.45 560.617,47.2441 
  "/>
<polyline clip-path="url(#clip472)" style="stroke:#000000; stroke-linecap:butt; stroke-linejoin:round; stroke-width:2; stroke-opacity:0.1; fill:none" points="
  873.523,1486.45 873.523,47.2441 
  "/>
<polyline clip-path="url(#clip472)" style="stroke:#000000; stroke-linecap:butt; stroke-linejoin:round; stroke-width:2; stroke-opacity:0.1; fill:none" points="
  1186.43,1486.45 1186.43,47.2441 
  "/>
<polyline clip-path="url(#clip472)" style="stroke:#000000; stroke-linecap:butt; stroke-linejoin:round; stroke-width:2; stroke-opacity:0.1; fill:none" points="
  1499.33,1486.45 1499.33,47.2441 
  "/>
<polyline clip-path="url(#clip472)" style="stroke:#000000; stroke-linecap:butt; stroke-linejoin:round; stroke-width:2; stroke-opacity:0.1; fill:none" points="
  1812.24,1486.45 1812.24,47.2441 
  "/>
<polyline clip-path="url(#clip472)" style="stroke:#000000; stroke-linecap:butt; stroke-linejoin:round; stroke-width:2; stroke-opacity:0.1; fill:none" points="
  2125.14,1486.45 2125.14,47.2441 
  "/>
<polyline clip-path="url(#clip470)" style="stroke:#000000; stroke-linecap:butt; stroke-linejoin:round; stroke-width:4; stroke-opacity:1; fill:none" points="
  186.274,1486.45 2352.76,1486.45 
  "/>
<polyline clip-path="url(#clip470)" style="stroke:#000000; stroke-linecap:butt; stroke-linejoin:round; stroke-width:4; stroke-opacity:1; fill:none" points="
  247.712,1486.45 247.712,1467.55 
  "/>
<polyline clip-path="url(#clip470)" style="stroke:#000000; stroke-linecap:butt; stroke-linejoin:round; stroke-width:4; stroke-opacity:1; fill:none" points="
  560.617,1486.45 560.617,1467.55 
  "/>
<polyline clip-path="url(#clip470)" style="stroke:#000000; stroke-linecap:butt; stroke-linejoin:round; stroke-width:4; stroke-opacity:1; fill:none" points="
  873.523,1486.45 873.523,1467.55 
  "/>
<polyline clip-path="url(#clip470)" style="stroke:#000000; stroke-linecap:butt; stroke-linejoin:round; stroke-width:4; stroke-opacity:1; fill:none" points="
  1186.43,1486.45 1186.43,1467.55 
  "/>
<polyline clip-path="url(#clip470)" style="stroke:#000000; stroke-linecap:butt; stroke-linejoin:round; stroke-width:4; stroke-opacity:1; fill:none" points="
  1499.33,1486.45 1499.33,1467.55 
  "/>
<polyline clip-path="url(#clip470)" style="stroke:#000000; stroke-linecap:butt; stroke-linejoin:round; stroke-width:4; stroke-opacity:1; fill:none" points="
  1812.24,1486.45 1812.24,1467.55 
  "/>
<polyline clip-path="url(#clip470)" style="stroke:#000000; stroke-linecap:butt; stroke-linejoin:round; stroke-width:4; stroke-opacity:1; fill:none" points="
  2125.14,1486.45 2125.14,1467.55 
  "/>
<path clip-path="url(#clip470)" d="M225.421 1517.37 Q221.81 1517.37 219.981 1520.93 Q218.175 1524.47 218.175 1531.6 Q218.175 1538.71 219.981 1542.27 Q221.81 1545.82 225.421 1545.82 Q229.055 1545.82 230.86 1542.27 Q232.689 1538.71 232.689 1531.6 Q232.689 1524.47 230.86 1520.93 Q229.055 1517.37 225.421 1517.37 M225.421 1513.66 Q231.231 1513.66 234.286 1518.27 Q237.365 1522.85 237.365 1531.6 Q237.365 1540.33 234.286 1544.94 Q231.231 1549.52 225.421 1549.52 Q219.61 1549.52 216.532 1544.94 Q213.476 1540.33 213.476 1531.6 Q213.476 1522.85 216.532 1518.27 Q219.61 1513.66 225.421 1513.66 Z" fill="#000000" fill-rule="evenodd" fill-opacity="1" /><path clip-path="url(#clip470)" d="M245.583 1542.97 L250.467 1542.97 L250.467 1548.85 L245.583 1548.85 L245.583 1542.97 Z" fill="#000000" fill-rule="evenodd" fill-opacity="1" /><path clip-path="url(#clip470)" d="M274.819 1530.21 Q278.175 1530.93 280.05 1533.2 Q281.948 1535.47 281.948 1538.8 Q281.948 1543.92 278.43 1546.72 Q274.911 1549.52 268.43 1549.52 Q266.254 1549.52 263.939 1549.08 Q261.647 1548.66 259.194 1547.81 L259.194 1543.29 Q261.138 1544.43 263.453 1545.01 Q265.768 1545.58 268.291 1545.58 Q272.689 1545.58 274.981 1543.85 Q277.295 1542.11 277.295 1538.8 Q277.295 1535.75 275.143 1534.03 Q273.013 1532.3 269.194 1532.3 L265.166 1532.3 L265.166 1528.45 L269.379 1528.45 Q272.828 1528.45 274.656 1527.09 Q276.485 1525.7 276.485 1523.11 Q276.485 1520.45 274.587 1519.03 Q272.712 1517.6 269.194 1517.6 Q267.272 1517.6 265.073 1518.01 Q262.874 1518.43 260.235 1519.31 L260.235 1515.14 Q262.897 1514.4 265.212 1514.03 Q267.55 1513.66 269.61 1513.66 Q274.934 1513.66 278.036 1516.09 Q281.138 1518.5 281.138 1522.62 Q281.138 1525.49 279.494 1527.48 Q277.851 1529.45 274.819 1530.21 Z" fill="#000000" fill-rule="evenodd" fill-opacity="1" /><path clip-path="url(#clip470)" d="M537.759 1517.37 Q534.148 1517.37 532.319 1520.93 Q530.513 1524.47 530.513 1531.6 Q530.513 1538.71 532.319 1542.27 Q534.148 1545.82 537.759 1545.82 Q541.393 1545.82 543.199 1542.27 Q545.027 1538.71 545.027 1531.6 Q545.027 1524.47 543.199 1520.93 Q541.393 1517.37 537.759 1517.37 M537.759 1513.66 Q543.569 1513.66 546.624 1518.27 Q549.703 1522.85 549.703 1531.6 Q549.703 1540.33 546.624 1544.94 Q543.569 1549.52 537.759 1549.52 Q531.949 1549.52 528.87 1544.94 Q525.814 1540.33 525.814 1531.6 Q525.814 1522.85 528.87 1518.27 Q531.949 1513.66 537.759 1513.66 Z" fill="#000000" fill-rule="evenodd" fill-opacity="1" /><path clip-path="url(#clip470)" d="M557.921 1542.97 L562.805 1542.97 L562.805 1548.85 L557.921 1548.85 L557.921 1542.97 Z" fill="#000000" fill-rule="evenodd" fill-opacity="1" /><path clip-path="url(#clip470)" d="M585.837 1518.36 L574.032 1536.81 L585.837 1536.81 L585.837 1518.36 M584.61 1514.29 L590.49 1514.29 L590.49 1536.81 L595.42 1536.81 L595.42 1540.7 L590.49 1540.7 L590.49 1548.85 L585.837 1548.85 L585.837 1540.7 L570.235 1540.7 L570.235 1536.19 L584.61 1514.29 Z" fill="#000000" fill-rule="evenodd" fill-opacity="1" /><path clip-path="url(#clip470)" d="M851.405 1517.37 Q847.794 1517.37 845.965 1520.93 Q844.159 1524.47 844.159 1531.6 Q844.159 1538.71 845.965 1542.27 Q847.794 1545.82 851.405 1545.82 Q855.039 1545.82 856.844 1542.27 Q858.673 1538.71 858.673 1531.6 Q858.673 1524.47 856.844 1520.93 Q855.039 1517.37 851.405 1517.37 M851.405 1513.66 Q857.215 1513.66 860.27 1518.27 Q863.349 1522.85 863.349 1531.6 Q863.349 1540.33 860.27 1544.94 Q857.215 1549.52 851.405 1549.52 Q845.595 1549.52 842.516 1544.94 Q839.46 1540.33 839.46 1531.6 Q839.46 1522.85 842.516 1518.27 Q845.595 1513.66 851.405 1513.66 Z" fill="#000000" fill-rule="evenodd" fill-opacity="1" /><path clip-path="url(#clip470)" d="M871.567 1542.97 L876.451 1542.97 L876.451 1548.85 L871.567 1548.85 L871.567 1542.97 Z" fill="#000000" fill-rule="evenodd" fill-opacity="1" /><path clip-path="url(#clip470)" d="M886.682 1514.29 L905.039 1514.29 L905.039 1518.22 L890.965 1518.22 L890.965 1526.7 Q891.983 1526.35 893.002 1526.19 Q894.02 1526 895.039 1526 Q900.826 1526 904.205 1529.17 Q907.585 1532.34 907.585 1537.76 Q907.585 1543.34 904.113 1546.44 Q900.641 1549.52 894.321 1549.52 Q892.145 1549.52 889.877 1549.15 Q887.631 1548.78 885.224 1548.04 L885.224 1543.34 Q887.307 1544.47 889.529 1545.03 Q891.752 1545.58 894.229 1545.58 Q898.233 1545.58 900.571 1543.48 Q902.909 1541.37 902.909 1537.76 Q902.909 1534.15 900.571 1532.04 Q898.233 1529.94 894.229 1529.94 Q892.354 1529.94 890.479 1530.35 Q888.627 1530.77 886.682 1531.65 L886.682 1514.29 Z" fill="#000000" fill-rule="evenodd" fill-opacity="1" /><path clip-path="url(#clip470)" d="M1163.73 1517.37 Q1160.12 1517.37 1158.29 1520.93 Q1156.49 1524.47 1156.49 1531.6 Q1156.49 1538.71 1158.29 1542.27 Q1160.12 1545.82 1163.73 1545.82 Q1167.37 1545.82 1169.17 1542.27 Q1171 1538.71 1171 1531.6 Q1171 1524.47 1169.17 1520.93 Q1167.37 1517.37 1163.73 1517.37 M1163.73 1513.66 Q1169.54 1513.66 1172.6 1518.27 Q1175.68 1522.85 1175.68 1531.6 Q1175.68 1540.33 1172.6 1544.94 Q1169.54 1549.52 1163.73 1549.52 Q1157.92 1549.52 1154.84 1544.94 Q1151.79 1540.33 1151.79 1531.6 Q1151.79 1522.85 1154.84 1518.27 Q1157.92 1513.66 1163.73 1513.66 Z" fill="#000000" fill-rule="evenodd" fill-opacity="1" /><path clip-path="url(#clip470)" d="M1183.89 1542.97 L1188.78 1542.97 L1188.78 1548.85 L1183.89 1548.85 L1183.89 1542.97 Z" fill="#000000" fill-rule="evenodd" fill-opacity="1" /><path clip-path="url(#clip470)" d="M1209.54 1529.7 Q1206.39 1529.7 1204.54 1531.86 Q1202.71 1534.01 1202.71 1537.76 Q1202.71 1541.49 1204.54 1543.66 Q1206.39 1545.82 1209.54 1545.82 Q1212.69 1545.82 1214.52 1543.66 Q1216.37 1541.49 1216.37 1537.76 Q1216.37 1534.01 1214.52 1531.86 Q1212.69 1529.7 1209.54 1529.7 M1218.82 1515.05 L1218.82 1519.31 Q1217.06 1518.48 1215.26 1518.04 Q1213.48 1517.6 1211.72 1517.6 Q1207.09 1517.6 1204.63 1520.72 Q1202.2 1523.85 1201.86 1530.17 Q1203.22 1528.15 1205.28 1527.09 Q1207.34 1526 1209.82 1526 Q1215.03 1526 1218.04 1529.17 Q1221.07 1532.32 1221.07 1537.76 Q1221.07 1543.08 1217.92 1546.3 Q1214.77 1549.52 1209.54 1549.52 Q1203.55 1549.52 1200.37 1544.94 Q1197.2 1540.33 1197.2 1531.6 Q1197.2 1523.41 1201.09 1518.55 Q1204.98 1513.66 1211.53 1513.66 Q1213.29 1513.66 1215.07 1514.01 Q1216.88 1514.36 1218.82 1515.05 Z" fill="#000000" fill-rule="evenodd" fill-opacity="1" /><path clip-path="url(#clip470)" d="M1477.17 1517.37 Q1473.56 1517.37 1471.73 1520.93 Q1469.92 1524.47 1469.92 1531.6 Q1469.92 1538.71 1471.73 1542.27 Q1473.56 1545.82 1477.17 1545.82 Q1480.8 1545.82 1482.61 1542.27 Q1484.44 1538.71 1484.44 1531.6 Q1484.44 1524.47 1482.61 1520.93 Q1480.8 1517.37 1477.17 1517.37 M1477.17 1513.66 Q1482.98 1513.66 1486.03 1518.27 Q1489.11 1522.85 1489.11 1531.6 Q1489.11 1540.33 1486.03 1544.94 Q1482.98 1549.52 1477.17 1549.52 Q1471.36 1549.52 1468.28 1544.94 Q1465.22 1540.33 1465.22 1531.6 Q1465.22 1522.85 1468.28 1518.27 Q1471.36 1513.66 1477.17 1513.66 Z" fill="#000000" fill-rule="evenodd" fill-opacity="1" /><path clip-path="url(#clip470)" d="M1497.33 1542.97 L1502.21 1542.97 L1502.21 1548.85 L1497.33 1548.85 L1497.33 1542.97 Z" fill="#000000" fill-rule="evenodd" fill-opacity="1" /><path clip-path="url(#clip470)" d="M1511.22 1514.29 L1533.44 1514.29 L1533.44 1516.28 L1520.9 1548.85 L1516.01 1548.85 L1527.82 1518.22 L1511.22 1518.22 L1511.22 1514.29 Z" fill="#000000" fill-rule="evenodd" fill-opacity="1" /><path clip-path="url(#clip470)" d="M1789.67 1517.37 Q1786.06 1517.37 1784.23 1520.93 Q1782.42 1524.47 1782.42 1531.6 Q1782.42 1538.71 1784.23 1542.27 Q1786.06 1545.82 1789.67 1545.82 Q1793.3 1545.82 1795.11 1542.27 Q1796.94 1538.71 1796.94 1531.6 Q1796.94 1524.47 1795.11 1520.93 Q1793.3 1517.37 1789.67 1517.37 M1789.67 1513.66 Q1795.48 1513.66 1798.53 1518.27 Q1801.61 1522.85 1801.61 1531.6 Q1801.61 1540.33 1798.53 1544.94 Q1795.48 1549.52 1789.67 1549.52 Q1783.86 1549.52 1780.78 1544.94 Q1777.72 1540.33 1777.72 1531.6 Q1777.72 1522.85 1780.78 1518.27 Q1783.86 1513.66 1789.67 1513.66 Z" fill="#000000" fill-rule="evenodd" fill-opacity="1" /><path clip-path="url(#clip470)" d="M1809.83 1542.97 L1814.72 1542.97 L1814.72 1548.85 L1809.83 1548.85 L1809.83 1542.97 Z" fill="#000000" fill-rule="evenodd" fill-opacity="1" /><path clip-path="url(#clip470)" d="M1834.9 1532.44 Q1831.57 1532.44 1829.65 1534.22 Q1827.75 1536 1827.75 1539.13 Q1827.75 1542.25 1829.65 1544.03 Q1831.57 1545.82 1834.9 1545.82 Q1838.23 1545.82 1840.15 1544.03 Q1842.08 1542.23 1842.08 1539.13 Q1842.08 1536 1840.15 1534.22 Q1838.26 1532.44 1834.9 1532.44 M1830.22 1530.45 Q1827.22 1529.7 1825.53 1527.64 Q1823.86 1525.58 1823.86 1522.62 Q1823.86 1518.48 1826.8 1516.07 Q1829.76 1513.66 1834.9 1513.66 Q1840.06 1513.66 1843 1516.07 Q1845.94 1518.48 1845.94 1522.62 Q1845.94 1525.58 1844.25 1527.64 Q1842.59 1529.7 1839.6 1530.45 Q1842.98 1531.23 1844.85 1533.52 Q1846.75 1535.82 1846.75 1539.13 Q1846.75 1544.15 1843.67 1546.83 Q1840.62 1549.52 1834.9 1549.52 Q1829.18 1549.52 1826.1 1546.83 Q1823.05 1544.15 1823.05 1539.13 Q1823.05 1535.82 1824.95 1533.52 Q1826.84 1531.23 1830.22 1530.45 M1828.51 1523.06 Q1828.51 1525.75 1830.18 1527.25 Q1831.87 1528.76 1834.9 1528.76 Q1837.91 1528.76 1839.6 1527.25 Q1841.31 1525.75 1841.31 1523.06 Q1841.31 1520.38 1839.6 1518.87 Q1837.91 1517.37 1834.9 1517.37 Q1831.87 1517.37 1830.18 1518.87 Q1828.51 1520.38 1828.51 1523.06 Z" fill="#000000" fill-rule="evenodd" fill-opacity="1" /><path clip-path="url(#clip470)" d="M2102.62 1517.37 Q2099.01 1517.37 2097.18 1520.93 Q2095.38 1524.47 2095.38 1531.6 Q2095.38 1538.71 2097.18 1542.27 Q2099.01 1545.82 2102.62 1545.82 Q2106.25 1545.82 2108.06 1542.27 Q2109.89 1538.71 2109.89 1531.6 Q2109.89 1524.47 2108.06 1520.93 Q2106.25 1517.37 2102.62 1517.37 M2102.62 1513.66 Q2108.43 1513.66 2111.49 1518.27 Q2114.56 1522.85 2114.56 1531.6 Q2114.56 1540.33 2111.49 1544.94 Q2108.43 1549.52 2102.62 1549.52 Q2096.81 1549.52 2093.73 1544.94 Q2090.68 1540.33 2090.68 1531.6 Q2090.68 1522.85 2093.73 1518.27 Q2096.81 1513.66 2102.62 1513.66 Z" fill="#000000" fill-rule="evenodd" fill-opacity="1" /><path clip-path="url(#clip470)" d="M2122.78 1542.97 L2127.67 1542.97 L2127.67 1548.85 L2122.78 1548.85 L2122.78 1542.97 Z" fill="#000000" fill-rule="evenodd" fill-opacity="1" /><path clip-path="url(#clip470)" d="M2137.99 1548.13 L2137.99 1543.87 Q2139.75 1544.7 2141.56 1545.14 Q2143.36 1545.58 2145.1 1545.58 Q2149.73 1545.58 2152.16 1542.48 Q2154.61 1539.36 2154.96 1533.01 Q2153.62 1535.01 2151.56 1536.07 Q2149.5 1537.13 2147 1537.13 Q2141.81 1537.13 2138.78 1534.01 Q2135.77 1530.86 2135.77 1525.42 Q2135.77 1520.1 2138.92 1516.88 Q2142.06 1513.66 2147.3 1513.66 Q2153.29 1513.66 2156.44 1518.27 Q2159.61 1522.85 2159.61 1531.6 Q2159.61 1539.77 2155.72 1544.66 Q2151.86 1549.52 2145.31 1549.52 Q2143.55 1549.52 2141.74 1549.17 Q2139.94 1548.82 2137.99 1548.13 M2147.3 1533.48 Q2150.44 1533.48 2152.27 1531.32 Q2154.12 1529.17 2154.12 1525.42 Q2154.12 1521.7 2152.27 1519.54 Q2150.44 1517.37 2147.3 1517.37 Q2144.15 1517.37 2142.3 1519.54 Q2140.47 1521.7 2140.47 1525.42 Q2140.47 1529.17 2142.3 1531.32 Q2144.15 1533.48 2147.3 1533.48 Z" fill="#000000" fill-rule="evenodd" fill-opacity="1" /><polyline clip-path="url(#clip472)" style="stroke:#000000; stroke-linecap:butt; stroke-linejoin:round; stroke-width:2; stroke-opacity:0.1; fill:none" points="
  186.274,1450.58 2352.76,1450.58 
  "/>
<polyline clip-path="url(#clip472)" style="stroke:#000000; stroke-linecap:butt; stroke-linejoin:round; stroke-width:2; stroke-opacity:0.1; fill:none" points="
  186.274,1100.85 2352.76,1100.85 
  "/>
<polyline clip-path="url(#clip472)" style="stroke:#000000; stroke-linecap:butt; stroke-linejoin:round; stroke-width:2; stroke-opacity:0.1; fill:none" points="
  186.274,751.112 2352.76,751.112 
  "/>
<polyline clip-path="url(#clip472)" style="stroke:#000000; stroke-linecap:butt; stroke-linejoin:round; stroke-width:2; stroke-opacity:0.1; fill:none" points="
  186.274,401.378 2352.76,401.378 
  "/>
<polyline clip-path="url(#clip472)" style="stroke:#000000; stroke-linecap:butt; stroke-linejoin:round; stroke-width:2; stroke-opacity:0.1; fill:none" points="
  186.274,51.6434 2352.76,51.6434 
  "/>
<polyline clip-path="url(#clip470)" style="stroke:#000000; stroke-linecap:butt; stroke-linejoin:round; stroke-width:4; stroke-opacity:1; fill:none" points="
  186.274,1486.45 186.274,47.2441 
  "/>
<polyline clip-path="url(#clip470)" style="stroke:#000000; stroke-linecap:butt; stroke-linejoin:round; stroke-width:4; stroke-opacity:1; fill:none" points="
  186.274,1450.58 205.172,1450.58 
  "/>
<polyline clip-path="url(#clip470)" style="stroke:#000000; stroke-linecap:butt; stroke-linejoin:round; stroke-width:4; stroke-opacity:1; fill:none" points="
  186.274,1100.85 205.172,1100.85 
  "/>
<polyline clip-path="url(#clip470)" style="stroke:#000000; stroke-linecap:butt; stroke-linejoin:round; stroke-width:4; stroke-opacity:1; fill:none" points="
  186.274,751.112 205.172,751.112 
  "/>
<polyline clip-path="url(#clip470)" style="stroke:#000000; stroke-linecap:butt; stroke-linejoin:round; stroke-width:4; stroke-opacity:1; fill:none" points="
  186.274,401.378 205.172,401.378 
  "/>
<polyline clip-path="url(#clip470)" style="stroke:#000000; stroke-linecap:butt; stroke-linejoin:round; stroke-width:4; stroke-opacity:1; fill:none" points="
  186.274,51.6434 205.172,51.6434 
  "/>
<path clip-path="url(#clip470)" d="M62.9365 1436.38 Q59.3254 1436.38 57.4967 1439.94 Q55.6912 1443.49 55.6912 1450.62 Q55.6912 1457.72 57.4967 1461.29 Q59.3254 1464.83 62.9365 1464.83 Q66.5707 1464.83 68.3763 1461.29 Q70.205 1457.72 70.205 1450.62 Q70.205 1443.49 68.3763 1439.94 Q66.5707 1436.38 62.9365 1436.38 M62.9365 1432.68 Q68.7467 1432.68 71.8022 1437.28 Q74.8809 1441.87 74.8809 1450.62 Q74.8809 1459.34 71.8022 1463.95 Q68.7467 1468.53 62.9365 1468.53 Q57.1264 1468.53 54.0477 1463.95 Q50.9921 1459.34 50.9921 1450.62 Q50.9921 1441.87 54.0477 1437.28 Q57.1264 1432.68 62.9365 1432.68 Z" fill="#000000" fill-rule="evenodd" fill-opacity="1" /><path clip-path="url(#clip470)" d="M83.0984 1461.98 L87.9827 1461.98 L87.9827 1467.86 L83.0984 1467.86 L83.0984 1461.98 Z" fill="#000000" fill-rule="evenodd" fill-opacity="1" /><path clip-path="url(#clip470)" d="M108.168 1436.38 Q104.557 1436.38 102.728 1439.94 Q100.922 1443.49 100.922 1450.62 Q100.922 1457.72 102.728 1461.29 Q104.557 1464.83 108.168 1464.83 Q111.802 1464.83 113.608 1461.29 Q115.436 1457.72 115.436 1450.62 Q115.436 1443.49 113.608 1439.94 Q111.802 1436.38 108.168 1436.38 M108.168 1432.68 Q113.978 1432.68 117.033 1437.28 Q120.112 1441.87 120.112 1450.62 Q120.112 1459.34 117.033 1463.95 Q113.978 1468.53 108.168 1468.53 Q102.358 1468.53 99.2789 1463.95 Q96.2234 1459.34 96.2234 1450.62 Q96.2234 1441.87 99.2789 1437.28 Q102.358 1432.68 108.168 1432.68 Z" fill="#000000" fill-rule="evenodd" fill-opacity="1" /><path clip-path="url(#clip470)" d="M138.33 1436.38 Q134.719 1436.38 132.89 1439.94 Q131.084 1443.49 131.084 1450.62 Q131.084 1457.72 132.89 1461.29 Q134.719 1464.83 138.33 1464.83 Q141.964 1464.83 143.769 1461.29 Q145.598 1457.72 145.598 1450.62 Q145.598 1443.49 143.769 1439.94 Q141.964 1436.38 138.33 1436.38 M138.33 1432.68 Q144.14 1432.68 147.195 1437.28 Q150.274 1441.87 150.274 1450.62 Q150.274 1459.34 147.195 1463.95 Q144.14 1468.53 138.33 1468.53 Q132.519 1468.53 129.441 1463.95 Q126.385 1459.34 126.385 1450.62 Q126.385 1441.87 129.441 1437.28 Q132.519 1432.68 138.33 1432.68 Z" fill="#000000" fill-rule="evenodd" fill-opacity="1" /><path clip-path="url(#clip470)" d="M63.9319 1086.65 Q60.3208 1086.65 58.4921 1090.21 Q56.6865 1093.75 56.6865 1100.88 Q56.6865 1107.99 58.4921 1111.55 Q60.3208 1115.09 63.9319 1115.09 Q67.5661 1115.09 69.3717 1111.55 Q71.2004 1107.99 71.2004 1100.88 Q71.2004 1093.75 69.3717 1090.21 Q67.5661 1086.65 63.9319 1086.65 M63.9319 1082.94 Q69.742 1082.94 72.7976 1087.55 Q75.8763 1092.13 75.8763 1100.88 Q75.8763 1109.61 72.7976 1114.21 Q69.742 1118.8 63.9319 1118.8 Q58.1217 1118.8 55.043 1114.21 Q51.9875 1109.61 51.9875 1100.88 Q51.9875 1092.13 55.043 1087.55 Q58.1217 1082.94 63.9319 1082.94 Z" fill="#000000" fill-rule="evenodd" fill-opacity="1" /><path clip-path="url(#clip470)" d="M84.0938 1112.25 L88.978 1112.25 L88.978 1118.13 L84.0938 1118.13 L84.0938 1112.25 Z" fill="#000000" fill-rule="evenodd" fill-opacity="1" /><path clip-path="url(#clip470)" d="M103.191 1114.19 L119.51 1114.19 L119.51 1118.13 L97.566 1118.13 L97.566 1114.19 Q100.228 1111.44 104.811 1106.81 Q109.418 1102.15 110.598 1100.81 Q112.844 1098.29 113.723 1096.55 Q114.626 1094.79 114.626 1093.1 Q114.626 1090.35 112.682 1088.61 Q110.76 1086.88 107.658 1086.88 Q105.459 1086.88 103.006 1087.64 Q100.575 1088.4 97.7974 1089.96 L97.7974 1085.23 Q100.621 1084.1 103.075 1083.52 Q105.529 1082.94 107.566 1082.94 Q112.936 1082.94 116.131 1085.63 Q119.325 1088.31 119.325 1092.8 Q119.325 1094.93 118.515 1096.85 Q117.728 1098.75 115.621 1101.34 Q115.043 1102.02 111.941 1105.23 Q108.839 1108.43 103.191 1114.19 Z" fill="#000000" fill-rule="evenodd" fill-opacity="1" /><path clip-path="url(#clip470)" d="M129.371 1083.57 L147.728 1083.57 L147.728 1087.5 L133.654 1087.5 L133.654 1095.97 Q134.672 1095.63 135.691 1095.46 Q136.709 1095.28 137.728 1095.28 Q143.515 1095.28 146.894 1098.45 Q150.274 1101.62 150.274 1107.04 Q150.274 1112.62 146.802 1115.72 Q143.33 1118.8 137.01 1118.8 Q134.834 1118.8 132.566 1118.43 Q130.32 1118.06 127.913 1117.32 L127.913 1112.62 Q129.996 1113.75 132.219 1114.31 Q134.441 1114.86 136.918 1114.86 Q140.922 1114.86 143.26 1112.76 Q145.598 1110.65 145.598 1107.04 Q145.598 1103.43 143.26 1101.32 Q140.922 1099.21 136.918 1099.21 Q135.043 1099.21 133.168 1099.63 Q131.316 1100.05 129.371 1100.93 L129.371 1083.57 Z" fill="#000000" fill-rule="evenodd" fill-opacity="1" /><path clip-path="url(#clip470)" d="M62.9365 736.911 Q59.3254 736.911 57.4967 740.476 Q55.6912 744.017 55.6912 751.147 Q55.6912 758.253 57.4967 761.818 Q59.3254 765.36 62.9365 765.36 Q66.5707 765.36 68.3763 761.818 Q70.205 758.253 70.205 751.147 Q70.205 744.017 68.3763 740.476 Q66.5707 736.911 62.9365 736.911 M62.9365 733.207 Q68.7467 733.207 71.8022 737.814 Q74.8809 742.397 74.8809 751.147 Q74.8809 759.874 71.8022 764.48 Q68.7467 769.063 62.9365 769.063 Q57.1264 769.063 54.0477 764.48 Q50.9921 759.874 50.9921 751.147 Q50.9921 742.397 54.0477 737.814 Q57.1264 733.207 62.9365 733.207 Z" fill="#000000" fill-rule="evenodd" fill-opacity="1" /><path clip-path="url(#clip470)" d="M83.0984 762.512 L87.9827 762.512 L87.9827 768.392 L83.0984 768.392 L83.0984 762.512 Z" fill="#000000" fill-rule="evenodd" fill-opacity="1" /><path clip-path="url(#clip470)" d="M98.2141 733.832 L116.57 733.832 L116.57 737.767 L102.496 737.767 L102.496 746.239 Q103.515 745.892 104.534 745.73 Q105.552 745.545 106.571 745.545 Q112.358 745.545 115.737 748.716 Q119.117 751.888 119.117 757.304 Q119.117 762.883 115.645 765.985 Q112.172 769.063 105.853 769.063 Q103.677 769.063 101.409 768.693 Q99.1632 768.323 96.7558 767.582 L96.7558 762.883 Q98.8391 764.017 101.061 764.573 Q103.284 765.128 105.76 765.128 Q109.765 765.128 112.103 763.022 Q114.441 760.915 114.441 757.304 Q114.441 753.693 112.103 751.587 Q109.765 749.48 105.76 749.48 Q103.885 749.48 102.01 749.897 Q100.159 750.313 98.2141 751.193 L98.2141 733.832 Z" fill="#000000" fill-rule="evenodd" fill-opacity="1" /><path clip-path="url(#clip470)" d="M138.33 736.911 Q134.719 736.911 132.89 740.476 Q131.084 744.017 131.084 751.147 Q131.084 758.253 132.89 761.818 Q134.719 765.36 138.33 765.36 Q141.964 765.36 143.769 761.818 Q145.598 758.253 145.598 751.147 Q145.598 744.017 143.769 740.476 Q141.964 736.911 138.33 736.911 M138.33 733.207 Q144.14 733.207 147.195 737.814 Q150.274 742.397 150.274 751.147 Q150.274 759.874 147.195 764.48 Q144.14 769.063 138.33 769.063 Q132.519 769.063 129.441 764.48 Q126.385 759.874 126.385 751.147 Q126.385 742.397 129.441 737.814 Q132.519 733.207 138.33 733.207 Z" fill="#000000" fill-rule="evenodd" fill-opacity="1" /><path clip-path="url(#clip470)" d="M63.9319 387.176 Q60.3208 387.176 58.4921 390.741 Q56.6865 394.283 56.6865 401.412 Q56.6865 408.519 58.4921 412.084 Q60.3208 415.625 63.9319 415.625 Q67.5661 415.625 69.3717 412.084 Q71.2004 408.519 71.2004 401.412 Q71.2004 394.283 69.3717 390.741 Q67.5661 387.176 63.9319 387.176 M63.9319 383.473 Q69.742 383.473 72.7976 388.079 Q75.8763 392.662 75.8763 401.412 Q75.8763 410.139 72.7976 414.746 Q69.742 419.329 63.9319 419.329 Q58.1217 419.329 55.043 414.746 Q51.9875 410.139 51.9875 401.412 Q51.9875 392.662 55.043 388.079 Q58.1217 383.473 63.9319 383.473 Z" fill="#000000" fill-rule="evenodd" fill-opacity="1" /><path clip-path="url(#clip470)" d="M84.0938 412.778 L88.978 412.778 L88.978 418.658 L84.0938 418.658 L84.0938 412.778 Z" fill="#000000" fill-rule="evenodd" fill-opacity="1" /><path clip-path="url(#clip470)" d="M97.9826 384.098 L120.205 384.098 L120.205 386.088 L107.658 418.658 L102.774 418.658 L114.58 388.033 L97.9826 388.033 L97.9826 384.098 Z" fill="#000000" fill-rule="evenodd" fill-opacity="1" /><path clip-path="url(#clip470)" d="M129.371 384.098 L147.728 384.098 L147.728 388.033 L133.654 388.033 L133.654 396.505 Q134.672 396.158 135.691 395.996 Q136.709 395.811 137.728 395.811 Q143.515 395.811 146.894 398.982 Q150.274 402.153 150.274 407.57 Q150.274 413.148 146.802 416.25 Q143.33 419.329 137.01 419.329 Q134.834 419.329 132.566 418.959 Q130.32 418.588 127.913 417.848 L127.913 413.148 Q129.996 414.283 132.219 414.838 Q134.441 415.394 136.918 415.394 Q140.922 415.394 143.26 413.287 Q145.598 411.181 145.598 407.57 Q145.598 403.959 143.26 401.852 Q140.922 399.746 136.918 399.746 Q135.043 399.746 133.168 400.162 Q131.316 400.579 129.371 401.459 L129.371 384.098 Z" fill="#000000" fill-rule="evenodd" fill-opacity="1" /><path clip-path="url(#clip470)" d="M53.7467 64.9882 L61.3856 64.9882 L61.3856 38.6226 L53.0754 40.2893 L53.0754 36.03 L61.3393 34.3634 L66.0152 34.3634 L66.0152 64.9882 L73.654 64.9882 L73.654 68.9234 L53.7467 68.9234 L53.7467 64.9882 Z" fill="#000000" fill-rule="evenodd" fill-opacity="1" /><path clip-path="url(#clip470)" d="M83.0984 63.0438 L87.9827 63.0438 L87.9827 68.9234 L83.0984 68.9234 L83.0984 63.0438 Z" fill="#000000" fill-rule="evenodd" fill-opacity="1" /><path clip-path="url(#clip470)" d="M108.168 37.4421 Q104.557 37.4421 102.728 41.0069 Q100.922 44.5485 100.922 51.6781 Q100.922 58.7846 102.728 62.3493 Q104.557 65.891 108.168 65.891 Q111.802 65.891 113.608 62.3493 Q115.436 58.7846 115.436 51.6781 Q115.436 44.5485 113.608 41.0069 Q111.802 37.4421 108.168 37.4421 M108.168 33.7384 Q113.978 33.7384 117.033 38.3448 Q120.112 42.9282 120.112 51.6781 Q120.112 60.4049 117.033 65.0114 Q113.978 69.5947 108.168 69.5947 Q102.358 69.5947 99.2789 65.0114 Q96.2234 60.4049 96.2234 51.6781 Q96.2234 42.9282 99.2789 38.3448 Q102.358 33.7384 108.168 33.7384 Z" fill="#000000" fill-rule="evenodd" fill-opacity="1" /><path clip-path="url(#clip470)" d="M138.33 37.4421 Q134.719 37.4421 132.89 41.0069 Q131.084 44.5485 131.084 51.6781 Q131.084 58.7846 132.89 62.3493 Q134.719 65.891 138.33 65.891 Q141.964 65.891 143.769 62.3493 Q145.598 58.7846 145.598 51.6781 Q145.598 44.5485 143.769 41.0069 Q141.964 37.4421 138.33 37.4421 M138.33 33.7384 Q144.14 33.7384 147.195 38.3448 Q150.274 42.9282 150.274 51.6781 Q150.274 60.4049 147.195 65.0114 Q144.14 69.5947 138.33 69.5947 Q132.519 69.5947 129.441 65.0114 Q126.385 60.4049 126.385 51.6781 Q126.385 42.9282 129.441 38.3448 Q132.519 33.7384 138.33 33.7384 Z" fill="#000000" fill-rule="evenodd" fill-opacity="1" /><polyline clip-path="url(#clip472)" style="stroke:#009af9; stroke-linecap:butt; stroke-linejoin:round; stroke-width:4; stroke-opacity:1; fill:none" points="
  1241.45,87.9763 1857.95,1096.32 587.399,1164.39 1615.04,1445.72 2291.44,414.302 397.098,1237.7 1449.11,796.823 1642.48,636.986 247.59,673.485 1578.66,455.976 
  
  "/>
<path clip-path="url(#clip470)" d="
M1988.11 198.898 L2280.54 198.898 L2280.54 95.2176 L1988.11 95.2176  Z
  " fill="#ffffff" fill-rule="evenodd" fill-opacity="1"/>
<polyline clip-path="url(#clip470)" style="stroke:#000000; stroke-linecap:butt; stroke-linejoin:round; stroke-width:4; stroke-opacity:1; fill:none" points="
  1988.11,198.898 2280.54,198.898 2280.54,95.2176 1988.11,95.2176 1988.11,198.898 
  "/>
<polyline clip-path="url(#clip470)" style="stroke:#009af9; stroke-linecap:butt; stroke-linejoin:round; stroke-width:4; stroke-opacity:1; fill:none" points="
  2012.11,147.058 2156.11,147.058 
  "/>
<path clip-path="url(#clip470)" d="M2193.95 166.745 Q2192.15 171.375 2190.43 172.787 Q2188.72 174.199 2185.85 174.199 L2182.45 174.199 L2182.45 170.634 L2184.95 170.634 Q2186.71 170.634 2187.68 169.8 Q2188.65 168.967 2189.83 165.865 L2190.6 163.921 L2180.11 138.412 L2184.62 138.412 L2192.73 158.689 L2200.83 138.412 L2205.34 138.412 L2193.95 166.745 Z" fill="#000000" fill-rule="evenodd" fill-opacity="1" /><path clip-path="url(#clip470)" d="M2212.63 160.402 L2220.27 160.402 L2220.27 134.037 L2211.96 135.703 L2211.96 131.444 L2220.23 129.778 L2224.9 129.778 L2224.9 160.402 L2232.54 160.402 L2232.54 164.338 L2212.63 164.338 L2212.63 160.402 Z" fill="#000000" fill-rule="evenodd" fill-opacity="1" /></svg>
