<?xml version="1.0" encoding="utf-8"?>
<svg xmlns="http://www.w3.org/2000/svg" xmlns:xlink="http://www.w3.org/1999/xlink" width="600" height="400" viewBox="0 0 2400 1600">
<defs>
  <clipPath id="clip710">
    <rect x="0" y="0" width="2400" height="1600"/>
  </clipPath>
</defs>
<path clip-path="url(#clip710)" d="
M0 1600 L2400 1600 L2400 0 L0 0  Z
  " fill="#ffffff" fill-rule="evenodd" fill-opacity="1"/>
<defs>
  <clipPath id="clip711">
    <rect x="480" y="0" width="1681" height="1600"/>
  </clipPath>
</defs>
<path clip-path="url(#clip710)" d="
M156.598 1486.45 L2352.76 1486.45 L2352.76 47.2441 L156.598 47.2441  Z
  " fill="#ffffff" fill-rule="evenodd" fill-opacity="1"/>
<defs>
  <clipPath id="clip712">
    <rect x="156" y="47" width="2197" height="1440"/>
  </clipPath>
</defs>
<polyline clip-path="url(#clip712)" style="stroke:#000000; stroke-linecap:butt; stroke-linejoin:round; stroke-width:2; stroke-opacity:0.1; fill:none" points="
  579.737,1486.45 579.737,47.2441 
  "/>
<polyline clip-path="url(#clip712)" style="stroke:#000000; stroke-linecap:butt; stroke-linejoin:round; stroke-width:2; stroke-opacity:0.1; fill:none" points="
  1008.03,1486.45 1008.03,47.2441 
  "/>
<polyline clip-path="url(#clip712)" style="stroke:#000000; stroke-linecap:butt; stroke-linejoin:round; stroke-width:2; stroke-opacity:0.1; fill:none" points="
  1436.33,1486.45 1436.33,47.2441 
  "/>
<polyline clip-path="url(#clip712)" style="stroke:#000000; stroke-linecap:butt; stroke-linejoin:round; stroke-width:2; stroke-opacity:0.1; fill:none" points="
  1864.63,1486.45 1864.63,47.2441 
  "/>
<polyline clip-path="url(#clip712)" style="stroke:#000000; stroke-linecap:butt; stroke-linejoin:round; stroke-width:2; stroke-opacity:0.1; fill:none" points="
  2292.92,1486.45 2292.92,47.2441 
  "/>
<polyline clip-path="url(#clip710)" style="stroke:#000000; stroke-linecap:butt; stroke-linejoin:round; stroke-width:4; stroke-opacity:1; fill:none" points="
  156.598,1486.45 2352.76,1486.45 
  "/>
<polyline clip-path="url(#clip710)" style="stroke:#000000; stroke-linecap:butt; stroke-linejoin:round; stroke-width:4; stroke-opacity:1; fill:none" points="
  579.737,1486.45 579.737,1467.55 
  "/>
<polyline clip-path="url(#clip710)" style="stroke:#000000; stroke-linecap:butt; stroke-linejoin:round; stroke-width:4; stroke-opacity:1; fill:none" points="
  1008.03,1486.45 1008.03,1467.55 
  "/>
<polyline clip-path="url(#clip710)" style="stroke:#000000; stroke-linecap:butt; stroke-linejoin:round; stroke-width:4; stroke-opacity:1; fill:none" points="
  1436.33,1486.45 1436.33,1467.55 
  "/>
<polyline clip-path="url(#clip710)" style="stroke:#000000; stroke-linecap:butt; stroke-linejoin:round; stroke-width:4; stroke-opacity:1; fill:none" points="
  1864.63,1486.45 1864.63,1467.55 
  "/>
<polyline clip-path="url(#clip710)" style="stroke:#000000; stroke-linecap:butt; stroke-linejoin:round; stroke-width:4; stroke-opacity:1; fill:none" points="
  2292.92,1486.45 2292.92,1467.55 
  "/>
<path clip-path="url(#clip710)" d="M557.92 1517.37 Q554.309 1517.37 552.48 1520.93 Q550.674 1524.47 550.674 1531.6 Q550.674 1538.71 552.48 1542.27 Q554.309 1545.82 557.92 1545.82 Q561.554 1545.82 563.359 1542.27 Q565.188 1538.71 565.188 1531.6 Q565.188 1524.47 563.359 1520.93 Q561.554 1517.37 557.92 1517.37 M557.92 1513.66 Q563.73 1513.66 566.785 1518.27 Q569.864 1522.85 569.864 1531.6 Q569.864 1540.33 566.785 1544.94 Q563.73 1549.52 557.92 1549.52 Q552.11 1549.52 549.031 1544.94 Q545.975 1540.33 545.975 1531.6 Q545.975 1522.85 549.031 1518.27 Q552.11 1513.66 557.92 1513.66 Z" fill="#000000" fill-rule="evenodd" fill-opacity="1" /><path clip-path="url(#clip710)" d="M578.082 1542.97 L582.966 1542.97 L582.966 1548.85 L578.082 1548.85 L578.082 1542.97 Z" fill="#000000" fill-rule="evenodd" fill-opacity="1" /><path clip-path="url(#clip710)" d="M597.179 1544.91 L613.498 1544.91 L613.498 1548.85 L591.554 1548.85 L591.554 1544.91 Q594.216 1542.16 598.799 1537.53 Q603.406 1532.88 604.586 1531.53 Q606.831 1529.01 607.711 1527.27 Q608.614 1525.51 608.614 1523.82 Q608.614 1521.07 606.669 1519.33 Q604.748 1517.6 601.646 1517.6 Q599.447 1517.6 596.994 1518.36 Q594.563 1519.13 591.785 1520.68 L591.785 1515.95 Q594.609 1514.82 597.063 1514.24 Q599.517 1513.66 601.554 1513.66 Q606.924 1513.66 610.118 1516.35 Q613.313 1519.03 613.313 1523.52 Q613.313 1525.65 612.503 1527.57 Q611.716 1529.47 609.609 1532.07 Q609.031 1532.74 605.929 1535.95 Q602.827 1539.15 597.179 1544.91 Z" fill="#000000" fill-rule="evenodd" fill-opacity="1" /><path clip-path="url(#clip710)" d="M985.175 1517.37 Q981.563 1517.37 979.735 1520.93 Q977.929 1524.47 977.929 1531.6 Q977.929 1538.71 979.735 1542.27 Q981.563 1545.82 985.175 1545.82 Q988.809 1545.82 990.614 1542.27 Q992.443 1538.71 992.443 1531.6 Q992.443 1524.47 990.614 1520.93 Q988.809 1517.37 985.175 1517.37 M985.175 1513.66 Q990.985 1513.66 994.04 1518.27 Q997.119 1522.85 997.119 1531.6 Q997.119 1540.33 994.04 1544.94 Q990.985 1549.52 985.175 1549.52 Q979.364 1549.52 976.286 1544.94 Q973.23 1540.33 973.23 1531.6 Q973.23 1522.85 976.286 1518.27 Q979.364 1513.66 985.175 1513.66 Z" fill="#000000" fill-rule="evenodd" fill-opacity="1" /><path clip-path="url(#clip710)" d="M1005.34 1542.97 L1010.22 1542.97 L1010.22 1548.85 L1005.34 1548.85 L1005.34 1542.97 Z" fill="#000000" fill-rule="evenodd" fill-opacity="1" /><path clip-path="url(#clip710)" d="M1033.25 1518.36 L1021.45 1536.81 L1033.25 1536.81 L1033.25 1518.36 M1032.03 1514.29 L1037.91 1514.29 L1037.91 1536.81 L1042.84 1536.81 L1042.84 1540.7 L1037.91 1540.7 L1037.91 1548.85 L1033.25 1548.85 L1033.25 1540.7 L1017.65 1540.7 L1017.65 1536.19 L1032.03 1514.29 Z" fill="#000000" fill-rule="evenodd" fill-opacity="1" /><path clip-path="url(#clip710)" d="M1413.63 1517.37 Q1410.02 1517.37 1408.19 1520.93 Q1406.39 1524.47 1406.39 1531.6 Q1406.39 1538.71 1408.19 1542.27 Q1410.02 1545.82 1413.63 1545.82 Q1417.27 1545.82 1419.07 1542.27 Q1420.9 1538.71 1420.9 1531.6 Q1420.9 1524.47 1419.07 1520.93 Q1417.27 1517.37 1413.63 1517.37 M1413.63 1513.66 Q1419.44 1513.66 1422.5 1518.27 Q1425.58 1522.85 1425.58 1531.6 Q1425.58 1540.33 1422.5 1544.94 Q1419.44 1549.52 1413.63 1549.52 Q1407.82 1549.52 1404.74 1544.94 Q1401.69 1540.33 1401.69 1531.6 Q1401.69 1522.85 1404.74 1518.27 Q1407.82 1513.66 1413.63 1513.66 Z" fill="#000000" fill-rule="evenodd" fill-opacity="1" /><path clip-path="url(#clip710)" d="M1433.8 1542.97 L1438.68 1542.97 L1438.68 1548.85 L1433.8 1548.85 L1433.8 1542.97 Z" fill="#000000" fill-rule="evenodd" fill-opacity="1" /><path clip-path="url(#clip710)" d="M1459.44 1529.7 Q1456.29 1529.7 1454.44 1531.86 Q1452.61 1534.01 1452.61 1537.76 Q1452.61 1541.49 1454.44 1543.66 Q1456.29 1545.82 1459.44 1545.82 Q1462.59 1545.82 1464.42 1543.66 Q1466.27 1541.49 1466.27 1537.76 Q1466.27 1534.01 1464.42 1531.86 Q1462.59 1529.7 1459.44 1529.7 M1468.73 1515.05 L1468.73 1519.31 Q1466.97 1518.48 1465.16 1518.04 Q1463.38 1517.6 1461.62 1517.6 Q1456.99 1517.6 1454.54 1520.72 Q1452.11 1523.85 1451.76 1530.17 Q1453.12 1528.15 1455.18 1527.09 Q1457.24 1526 1459.72 1526 Q1464.93 1526 1467.94 1529.17 Q1470.97 1532.32 1470.97 1537.76 Q1470.97 1543.08 1467.82 1546.3 Q1464.67 1549.52 1459.44 1549.52 Q1453.45 1549.52 1450.28 1544.94 Q1447.11 1540.33 1447.11 1531.6 Q1447.11 1523.41 1450.99 1518.55 Q1454.88 1513.66 1461.43 1513.66 Q1463.19 1513.66 1464.98 1514.01 Q1466.78 1514.36 1468.73 1515.05 Z" fill="#000000" fill-rule="evenodd" fill-opacity="1" /><path clip-path="url(#clip710)" d="M1842.06 1517.37 Q1838.45 1517.37 1836.62 1520.93 Q1834.81 1524.47 1834.81 1531.6 Q1834.81 1538.71 1836.62 1542.27 Q1838.45 1545.82 1842.06 1545.82 Q1845.69 1545.82 1847.5 1542.27 Q1849.33 1538.71 1849.33 1531.6 Q1849.33 1524.47 1847.5 1520.93 Q1845.69 1517.37 1842.06 1517.37 M1842.06 1513.66 Q1847.87 1513.66 1850.92 1518.27 Q1854 1522.85 1854 1531.6 Q1854 1540.33 1850.92 1544.94 Q1847.87 1549.52 1842.06 1549.52 Q1836.25 1549.52 1833.17 1544.94 Q1830.11 1540.33 1830.11 1531.6 Q1830.11 1522.85 1833.17 1518.27 Q1836.25 1513.66 1842.06 1513.66 Z" fill="#000000" fill-rule="evenodd" fill-opacity="1" /><path clip-path="url(#clip710)" d="M1862.22 1542.97 L1867.1 1542.97 L1867.1 1548.85 L1862.22 1548.85 L1862.22 1542.97 Z" fill="#000000" fill-rule="evenodd" fill-opacity="1" /><path clip-path="url(#clip710)" d="M1887.29 1532.44 Q1883.95 1532.44 1882.03 1534.22 Q1880.14 1536 1880.14 1539.13 Q1880.14 1542.25 1882.03 1544.03 Q1883.95 1545.82 1887.29 1545.82 Q1890.62 1545.82 1892.54 1544.03 Q1894.46 1542.23 1894.46 1539.13 Q1894.46 1536 1892.54 1534.22 Q1890.64 1532.44 1887.29 1532.44 M1882.61 1530.45 Q1879.6 1529.7 1877.91 1527.64 Q1876.25 1525.58 1876.25 1522.62 Q1876.25 1518.48 1879.19 1516.07 Q1882.15 1513.66 1887.29 1513.66 Q1892.45 1513.66 1895.39 1516.07 Q1898.33 1518.48 1898.33 1522.62 Q1898.33 1525.58 1896.64 1527.64 Q1894.97 1529.7 1891.99 1530.45 Q1895.37 1531.23 1897.24 1533.52 Q1899.14 1535.82 1899.14 1539.13 Q1899.14 1544.15 1896.06 1546.83 Q1893.01 1549.52 1887.29 1549.52 Q1881.57 1549.52 1878.49 1546.83 Q1875.44 1544.15 1875.44 1539.13 Q1875.44 1535.82 1877.33 1533.52 Q1879.23 1531.23 1882.61 1530.45 M1880.9 1523.06 Q1880.9 1525.75 1882.57 1527.25 Q1884.26 1528.76 1887.29 1528.76 Q1890.3 1528.76 1891.99 1527.25 Q1893.7 1525.75 1893.7 1523.06 Q1893.7 1520.38 1891.99 1518.87 Q1890.3 1517.37 1887.29 1517.37 Q1884.26 1517.37 1882.57 1518.87 Q1880.9 1520.38 1880.9 1523.06 Z" fill="#000000" fill-rule="evenodd" fill-opacity="1" /><path clip-path="url(#clip710)" d="M2260.08 1544.91 L2267.71 1544.91 L2267.71 1518.55 L2259.4 1520.21 L2259.4 1515.95 L2267.67 1514.29 L2272.34 1514.29 L2272.34 1544.91 L2279.98 1544.91 L2279.98 1548.85 L2260.08 1548.85 L2260.08 1544.91 Z" fill="#000000" fill-rule="evenodd" fill-opacity="1" /><path clip-path="url(#clip710)" d="M2289.43 1542.97 L2294.31 1542.97 L2294.31 1548.85 L2289.43 1548.85 L2289.43 1542.97 Z" fill="#000000" fill-rule="evenodd" fill-opacity="1" /><path clip-path="url(#clip710)" d="M2314.5 1517.37 Q2310.89 1517.37 2309.06 1520.93 Q2307.25 1524.47 2307.25 1531.6 Q2307.25 1538.71 2309.06 1542.27 Q2310.89 1545.82 2314.5 1545.82 Q2318.13 1545.82 2319.94 1542.27 Q2321.77 1538.71 2321.77 1531.6 Q2321.77 1524.47 2319.94 1520.93 Q2318.13 1517.37 2314.5 1517.37 M2314.5 1513.66 Q2320.31 1513.66 2323.36 1518.27 Q2326.44 1522.85 2326.44 1531.6 Q2326.44 1540.33 2323.36 1544.94 Q2320.31 1549.52 2314.5 1549.52 Q2308.69 1549.52 2305.61 1544.94 Q2302.55 1540.33 2302.55 1531.6 Q2302.55 1522.85 2305.61 1518.27 Q2308.69 1513.66 2314.5 1513.66 Z" fill="#000000" fill-rule="evenodd" fill-opacity="1" /><polyline clip-path="url(#clip712)" style="stroke:#000000; stroke-linecap:butt; stroke-linejoin:round; stroke-width:2; stroke-opacity:0.1; fill:none" points="
  156.598,1231.43 2352.76,1231.43 
  "/>
<polyline clip-path="url(#clip712)" style="stroke:#000000; stroke-linecap:butt; stroke-linejoin:round; stroke-width:2; stroke-opacity:0.1; fill:none" points="
  156.598,902.246 2352.76,902.246 
  "/>
<polyline clip-path="url(#clip712)" style="stroke:#000000; stroke-linecap:butt; stroke-linejoin:round; stroke-width:2; stroke-opacity:0.1; fill:none" points="
  156.598,573.058 2352.76,573.058 
  "/>
<polyline clip-path="url(#clip712)" style="stroke:#000000; stroke-linecap:butt; stroke-linejoin:round; stroke-width:2; stroke-opacity:0.1; fill:none" points="
  156.598,243.871 2352.76,243.871 
  "/>
<polyline clip-path="url(#clip710)" style="stroke:#000000; stroke-linecap:butt; stroke-linejoin:round; stroke-width:4; stroke-opacity:1; fill:none" points="
  156.598,1486.45 156.598,47.2441 
  "/>
<polyline clip-path="url(#clip710)" style="stroke:#000000; stroke-linecap:butt; stroke-linejoin:round; stroke-width:4; stroke-opacity:1; fill:none" points="
  156.598,1231.43 175.496,1231.43 
  "/>
<polyline clip-path="url(#clip710)" style="stroke:#000000; stroke-linecap:butt; stroke-linejoin:round; stroke-width:4; stroke-opacity:1; fill:none" points="
  156.598,902.246 175.496,902.246 
  "/>
<polyline clip-path="url(#clip710)" style="stroke:#000000; stroke-linecap:butt; stroke-linejoin:round; stroke-width:4; stroke-opacity:1; fill:none" points="
  156.598,573.058 175.496,573.058 
  "/>
<polyline clip-path="url(#clip710)" style="stroke:#000000; stroke-linecap:butt; stroke-linejoin:round; stroke-width:4; stroke-opacity:1; fill:none" points="
  156.598,243.871 175.496,243.871 
  "/>
<path clip-path="url(#clip710)" d="M65.0198 1217.23 Q61.4087 1217.23 59.58 1220.8 Q57.7745 1224.34 57.7745 1231.47 Q57.7745 1238.57 59.58 1242.14 Q61.4087 1245.68 65.0198 1245.68 Q68.6541 1245.68 70.4596 1242.14 Q72.2883 1238.57 72.2883 1231.47 Q72.2883 1224.34 70.4596 1220.8 Q68.6541 1217.23 65.0198 1217.23 M65.0198 1213.53 Q70.83 1213.53 73.8855 1218.13 Q76.9642 1222.72 76.9642 1231.47 Q76.9642 1240.19 73.8855 1244.8 Q70.83 1249.38 65.0198 1249.38 Q59.2097 1249.38 56.131 1244.8 Q53.0754 1240.19 53.0754 1231.47 Q53.0754 1222.72 56.131 1218.13 Q59.2097 1213.53 65.0198 1213.53 Z" fill="#000000" fill-rule="evenodd" fill-opacity="1" /><path clip-path="url(#clip710)" d="M85.1818 1242.83 L90.066 1242.83 L90.066 1248.71 L85.1818 1248.71 L85.1818 1242.83 Z" fill="#000000" fill-rule="evenodd" fill-opacity="1" /><path clip-path="url(#clip710)" d="M104.279 1244.78 L120.598 1244.78 L120.598 1248.71 L98.6539 1248.71 L98.6539 1244.78 Q101.316 1242.02 105.899 1237.39 Q110.506 1232.74 111.686 1231.4 Q113.932 1228.88 114.811 1227.14 Q115.714 1225.38 115.714 1223.69 Q115.714 1220.94 113.77 1219.2 Q111.848 1217.46 108.746 1217.46 Q106.547 1217.46 104.094 1218.23 Q101.663 1218.99 98.8854 1220.54 L98.8854 1215.82 Q101.709 1214.69 104.163 1214.11 Q106.617 1213.53 108.654 1213.53 Q114.024 1213.53 117.219 1216.21 Q120.413 1218.9 120.413 1223.39 Q120.413 1225.52 119.603 1227.44 Q118.816 1229.34 116.709 1231.93 Q116.131 1232.6 113.029 1235.82 Q109.927 1239.01 104.279 1244.78 Z" fill="#000000" fill-rule="evenodd" fill-opacity="1" /><path clip-path="url(#clip710)" d="M62.9365 888.044 Q59.3254 888.044 57.4967 891.609 Q55.6912 895.151 55.6912 902.28 Q55.6912 909.387 57.4967 912.952 Q59.3254 916.493 62.9365 916.493 Q66.5707 916.493 68.3763 912.952 Q70.205 909.387 70.205 902.28 Q70.205 895.151 68.3763 891.609 Q66.5707 888.044 62.9365 888.044 M62.9365 884.341 Q68.7467 884.341 71.8022 888.947 Q74.8809 893.53 74.8809 902.28 Q74.8809 911.007 71.8022 915.614 Q68.7467 920.197 62.9365 920.197 Q57.1264 920.197 54.0477 915.614 Q50.9921 911.007 50.9921 902.28 Q50.9921 893.53 54.0477 888.947 Q57.1264 884.341 62.9365 884.341 Z" fill="#000000" fill-rule="evenodd" fill-opacity="1" /><path clip-path="url(#clip710)" d="M83.0984 913.646 L87.9827 913.646 L87.9827 919.526 L83.0984 919.526 L83.0984 913.646 Z" fill="#000000" fill-rule="evenodd" fill-opacity="1" /><path clip-path="url(#clip710)" d="M111.015 889.04 L99.2095 907.489 L111.015 907.489 L111.015 889.04 M109.788 884.966 L115.668 884.966 L115.668 907.489 L120.598 907.489 L120.598 911.377 L115.668 911.377 L115.668 919.526 L111.015 919.526 L111.015 911.377 L95.4132 911.377 L95.4132 906.864 L109.788 884.966 Z" fill="#000000" fill-rule="evenodd" fill-opacity="1" /><path clip-path="url(#clip710)" d="M63.2606 558.857 Q59.6495 558.857 57.8208 562.422 Q56.0152 565.963 56.0152 573.093 Q56.0152 580.199 57.8208 583.764 Q59.6495 587.306 63.2606 587.306 Q66.8948 587.306 68.7004 583.764 Q70.5291 580.199 70.5291 573.093 Q70.5291 565.963 68.7004 562.422 Q66.8948 558.857 63.2606 558.857 M63.2606 555.153 Q69.0707 555.153 72.1263 559.76 Q75.205 564.343 75.205 573.093 Q75.205 581.82 72.1263 586.426 Q69.0707 591.009 63.2606 591.009 Q57.4504 591.009 54.3717 586.426 Q51.3162 581.82 51.3162 573.093 Q51.3162 564.343 54.3717 559.76 Q57.4504 555.153 63.2606 555.153 Z" fill="#000000" fill-rule="evenodd" fill-opacity="1" /><path clip-path="url(#clip710)" d="M83.4225 584.458 L88.3067 584.458 L88.3067 590.338 L83.4225 590.338 L83.4225 584.458 Z" fill="#000000" fill-rule="evenodd" fill-opacity="1" /><path clip-path="url(#clip710)" d="M109.071 571.195 Q105.922 571.195 104.071 573.347 Q102.242 575.5 102.242 579.25 Q102.242 582.977 104.071 585.153 Q105.922 587.306 109.071 587.306 Q112.219 587.306 114.047 585.153 Q115.899 582.977 115.899 579.25 Q115.899 575.5 114.047 573.347 Q112.219 571.195 109.071 571.195 M118.353 556.542 L118.353 560.801 Q116.594 559.968 114.788 559.528 Q113.006 559.088 111.246 559.088 Q106.617 559.088 104.163 562.213 Q101.733 565.338 101.385 571.658 Q102.751 569.644 104.811 568.579 Q106.871 567.491 109.348 567.491 Q114.557 567.491 117.566 570.662 Q120.598 573.81 120.598 579.25 Q120.598 584.574 117.45 587.792 Q114.302 591.009 109.071 591.009 Q103.075 591.009 99.9039 586.426 Q96.7326 581.82 96.7326 573.093 Q96.7326 564.898 100.621 560.037 Q104.51 555.153 111.061 555.153 Q112.82 555.153 114.603 555.5 Q116.408 555.848 118.353 556.542 Z" fill="#000000" fill-rule="evenodd" fill-opacity="1" /><path clip-path="url(#clip710)" d="M63.5152 229.669 Q59.9041 229.669 58.0754 233.234 Q56.2699 236.776 56.2699 243.905 Q56.2699 251.012 58.0754 254.577 Q59.9041 258.118 63.5152 258.118 Q67.1494 258.118 68.955 254.577 Q70.7837 251.012 70.7837 243.905 Q70.7837 236.776 68.955 233.234 Q67.1494 229.669 63.5152 229.669 M63.5152 225.966 Q69.3254 225.966 72.3809 230.572 Q75.4596 235.155 75.4596 243.905 Q75.4596 252.632 72.3809 257.239 Q69.3254 261.822 63.5152 261.822 Q57.7051 261.822 54.6264 257.239 Q51.5708 252.632 51.5708 243.905 Q51.5708 235.155 54.6264 230.572 Q57.7051 225.966 63.5152 225.966 Z" fill="#000000" fill-rule="evenodd" fill-opacity="1" /><path clip-path="url(#clip710)" d="M83.6771 255.271 L88.5614 255.271 L88.5614 261.151 L83.6771 261.151 L83.6771 255.271 Z" fill="#000000" fill-rule="evenodd" fill-opacity="1" /><path clip-path="url(#clip710)" d="M108.746 244.739 Q105.413 244.739 103.492 246.521 Q101.594 248.303 101.594 251.428 Q101.594 254.553 103.492 256.336 Q105.413 258.118 108.746 258.118 Q112.08 258.118 114.001 256.336 Q115.922 254.53 115.922 251.428 Q115.922 248.303 114.001 246.521 Q112.103 244.739 108.746 244.739 M104.071 242.748 Q101.061 242.007 99.3715 239.947 Q97.7048 237.887 97.7048 234.924 Q97.7048 230.78 100.645 228.373 Q103.608 225.966 108.746 225.966 Q113.908 225.966 116.848 228.373 Q119.788 230.78 119.788 234.924 Q119.788 237.887 118.098 239.947 Q116.432 242.007 113.445 242.748 Q116.825 243.535 118.7 245.827 Q120.598 248.118 120.598 251.428 Q120.598 256.452 117.52 259.137 Q114.464 261.822 108.746 261.822 Q103.029 261.822 99.9502 259.137 Q96.8947 256.452 96.8947 251.428 Q96.8947 248.118 98.7928 245.827 Q100.691 243.535 104.071 242.748 M102.358 235.364 Q102.358 238.049 104.024 239.553 Q105.714 241.058 108.746 241.058 Q111.756 241.058 113.445 239.553 Q115.158 238.049 115.158 235.364 Q115.158 232.678 113.445 231.174 Q111.756 229.669 108.746 229.669 Q105.714 229.669 104.024 231.174 Q102.358 232.678 102.358 235.364 Z" fill="#000000" fill-rule="evenodd" fill-opacity="1" /><polyline clip-path="url(#clip712)" style="stroke:#009af9; stroke-linecap:butt; stroke-linejoin:round; stroke-width:4; stroke-opacity:1; fill:none" points="
  1029.69,183.68 1242.16,1117.44 1487.38,87.9763 685.877,829.13 1159.94,1445.72 2290.6,760.834 2103.95,967.841 218.754,971.495 387.842,130.07 1441.45,1166.55 
  
  "/>
<path clip-path="url(#clip710)" d="
M1987.12 198.898 L2279.55 198.898 L2279.55 95.2176 L1987.12 95.2176  Z
  " fill="#ffffff" fill-rule="evenodd" fill-opacity="1"/>
<polyline clip-path="url(#clip710)" style="stroke:#000000; stroke-linecap:butt; stroke-linejoin:round; stroke-width:4; stroke-opacity:1; fill:none" points="
  1987.12,198.898 2279.55,198.898 2279.55,95.2176 1987.12,95.2176 1987.12,198.898 
  "/>
<polyline clip-path="url(#clip710)" style="stroke:#009af9; stroke-linecap:butt; stroke-linejoin:round; stroke-width:4; stroke-opacity:1; fill:none" points="
  2011.12,147.058 2155.12,147.058 
  "/>
<path clip-path="url(#clip710)" d="M2192.96 166.745 Q2191.16 171.375 2189.44 172.787 Q2187.73 174.199 2184.86 174.199 L2181.46 174.199 L2181.46 170.634 L2183.96 170.634 Q2185.72 170.634 2186.69 169.8 Q2187.66 168.967 2188.84 165.865 L2189.61 163.921 L2179.12 138.412 L2183.63 138.412 L2191.74 158.689 L2199.84 138.412 L2204.35 138.412 L2192.96 166.745 Z" fill="#000000" fill-rule="evenodd" fill-opacity="1" /><path clip-path="url(#clip710)" d="M2211.64 160.402 L2219.28 160.402 L2219.28 134.037 L2210.97 135.703 L2210.97 131.444 L2219.24 129.778 L2223.91 129.778 L2223.91 160.402 L2231.55 160.402 L2231.55 164.338 L2211.64 164.338 L2211.64 160.402 Z" fill="#000000" fill-rule="evenodd" fill-opacity="1" /></svg>
