<?xml version="1.0" encoding="utf-8"?>
<svg xmlns="http://www.w3.org/2000/svg" xmlns:xlink="http://www.w3.org/1999/xlink" width="600" height="400" viewBox="0 0 2400 1600">
<defs>
  <clipPath id="clip270">
    <rect x="0" y="0" width="2400" height="1600"/>
  </clipPath>
</defs>
<path clip-path="url(#clip270)" d="
M0 1600 L2400 1600 L2400 0 L0 0  Z
  " fill="#ffffff" fill-rule="evenodd" fill-opacity="1"/>
<defs>
  <clipPath id="clip271">
    <rect x="480" y="0" width="1681" height="1600"/>
  </clipPath>
</defs>
<path clip-path="url(#clip270)" d="
M156.598 1486.45 L2352.76 1486.45 L2352.76 47.2441 L156.598 47.2441  Z
  " fill="#ffffff" fill-rule="evenodd" fill-opacity="1"/>
<defs>
  <clipPath id="clip272">
    <rect x="156" y="47" width="2197" height="1440"/>
  </clipPath>
</defs>
<polyline clip-path="url(#clip272)" style="stroke:#000000; stroke-linecap:butt; stroke-linejoin:round; stroke-width:2; stroke-opacity:0.1; fill:none" points="
  162.187,1486.45 162.187,47.2441 
  "/>
<polyline clip-path="url(#clip272)" style="stroke:#000000; stroke-linecap:butt; stroke-linejoin:round; stroke-width:2; stroke-opacity:0.1; fill:none" points="
  604.508,1486.45 604.508,47.2441 
  "/>
<polyline clip-path="url(#clip272)" style="stroke:#000000; stroke-linecap:butt; stroke-linejoin:round; stroke-width:2; stroke-opacity:0.1; fill:none" points="
  1046.83,1486.45 1046.83,47.2441 
  "/>
<polyline clip-path="url(#clip272)" style="stroke:#000000; stroke-linecap:butt; stroke-linejoin:round; stroke-width:2; stroke-opacity:0.1; fill:none" points="
  1489.15,1486.45 1489.15,47.2441 
  "/>
<polyline clip-path="url(#clip272)" style="stroke:#000000; stroke-linecap:butt; stroke-linejoin:round; stroke-width:2; stroke-opacity:0.1; fill:none" points="
  1931.47,1486.45 1931.47,47.2441 
  "/>
<polyline clip-path="url(#clip270)" style="stroke:#000000; stroke-linecap:butt; stroke-linejoin:round; stroke-width:4; stroke-opacity:1; fill:none" points="
  156.598,1486.45 2352.76,1486.45 
  "/>
<polyline clip-path="url(#clip270)" style="stroke:#000000; stroke-linecap:butt; stroke-linejoin:round; stroke-width:4; stroke-opacity:1; fill:none" points="
  162.187,1486.45 162.187,1467.55 
  "/>
<polyline clip-path="url(#clip270)" style="stroke:#000000; stroke-linecap:butt; stroke-linejoin:round; stroke-width:4; stroke-opacity:1; fill:none" points="
  604.508,1486.45 604.508,1467.55 
  "/>
<polyline clip-path="url(#clip270)" style="stroke:#000000; stroke-linecap:butt; stroke-linejoin:round; stroke-width:4; stroke-opacity:1; fill:none" points="
  1046.83,1486.45 1046.83,1467.55 
  "/>
<polyline clip-path="url(#clip270)" style="stroke:#000000; stroke-linecap:butt; stroke-linejoin:round; stroke-width:4; stroke-opacity:1; fill:none" points="
  1489.15,1486.45 1489.15,1467.55 
  "/>
<polyline clip-path="url(#clip270)" style="stroke:#000000; stroke-linecap:butt; stroke-linejoin:round; stroke-width:4; stroke-opacity:1; fill:none" points="
  1931.47,1486.45 1931.47,1467.55 
  "/>
<path clip-path="url(#clip270)" d="M139.571 1517.37 Q135.96 1517.37 134.131 1520.93 Q132.326 1524.47 132.326 1531.6 Q132.326 1538.71 134.131 1542.27 Q135.96 1545.82 139.571 1545.82 Q143.205 1545.82 145.011 1542.27 Q146.84 1538.71 146.84 1531.6 Q146.84 1524.47 145.011 1520.93 Q143.205 1517.37 139.571 1517.37 M139.571 1513.66 Q145.381 1513.66 148.437 1518.27 Q151.515 1522.85 151.515 1531.6 Q151.515 1540.33 148.437 1544.94 Q145.381 1549.52 139.571 1549.52 Q133.761 1549.52 130.682 1544.94 Q127.627 1540.33 127.627 1531.6 Q127.627 1522.85 130.682 1518.27 Q133.761 1513.66 139.571 1513.66 Z" fill="#000000" fill-rule="evenodd" fill-opacity="1" /><path clip-path="url(#clip270)" d="M159.733 1542.97 L164.617 1542.97 L164.617 1548.85 L159.733 1548.85 L159.733 1542.97 Z" fill="#000000" fill-rule="evenodd" fill-opacity="1" /><path clip-path="url(#clip270)" d="M184.802 1517.37 Q181.191 1517.37 179.363 1520.93 Q177.557 1524.47 177.557 1531.6 Q177.557 1538.71 179.363 1542.27 Q181.191 1545.82 184.802 1545.82 Q188.437 1545.82 190.242 1542.27 Q192.071 1538.71 192.071 1531.6 Q192.071 1524.47 190.242 1520.93 Q188.437 1517.37 184.802 1517.37 M184.802 1513.66 Q190.612 1513.66 193.668 1518.27 Q196.747 1522.85 196.747 1531.6 Q196.747 1540.33 193.668 1544.94 Q190.612 1549.52 184.802 1549.52 Q178.992 1549.52 175.913 1544.94 Q172.858 1540.33 172.858 1531.6 Q172.858 1522.85 175.913 1518.27 Q178.992 1513.66 184.802 1513.66 Z" fill="#000000" fill-rule="evenodd" fill-opacity="1" /><path clip-path="url(#clip270)" d="M582.69 1517.37 Q579.079 1517.37 577.251 1520.93 Q575.445 1524.47 575.445 1531.6 Q575.445 1538.71 577.251 1542.27 Q579.079 1545.82 582.69 1545.82 Q586.325 1545.82 588.13 1542.27 Q589.959 1538.71 589.959 1531.6 Q589.959 1524.47 588.13 1520.93 Q586.325 1517.37 582.69 1517.37 M582.69 1513.66 Q588.501 1513.66 591.556 1518.27 Q594.635 1522.85 594.635 1531.6 Q594.635 1540.33 591.556 1544.94 Q588.501 1549.52 582.69 1549.52 Q576.88 1549.52 573.802 1544.94 Q570.746 1540.33 570.746 1531.6 Q570.746 1522.85 573.802 1518.27 Q576.88 1513.66 582.69 1513.66 Z" fill="#000000" fill-rule="evenodd" fill-opacity="1" /><path clip-path="url(#clip270)" d="M602.852 1542.97 L607.737 1542.97 L607.737 1548.85 L602.852 1548.85 L602.852 1542.97 Z" fill="#000000" fill-rule="evenodd" fill-opacity="1" /><path clip-path="url(#clip270)" d="M621.95 1544.91 L638.269 1544.91 L638.269 1548.85 L616.325 1548.85 L616.325 1544.91 Q618.987 1542.16 623.57 1537.53 Q628.176 1532.88 629.357 1531.53 Q631.602 1529.01 632.482 1527.27 Q633.385 1525.51 633.385 1523.82 Q633.385 1521.07 631.44 1519.33 Q629.519 1517.6 626.417 1517.6 Q624.218 1517.6 621.764 1518.36 Q619.334 1519.13 616.556 1520.68 L616.556 1515.95 Q619.38 1514.82 621.834 1514.24 Q624.287 1513.66 626.325 1513.66 Q631.695 1513.66 634.889 1516.35 Q638.084 1519.03 638.084 1523.52 Q638.084 1525.65 637.274 1527.57 Q636.486 1529.47 634.38 1532.07 Q633.801 1532.74 630.699 1535.95 Q627.598 1539.15 621.95 1544.91 Z" fill="#000000" fill-rule="evenodd" fill-opacity="1" /><path clip-path="url(#clip270)" d="M1023.97 1517.37 Q1020.36 1517.37 1018.53 1520.93 Q1016.72 1524.47 1016.72 1531.6 Q1016.72 1538.71 1018.53 1542.27 Q1020.36 1545.82 1023.97 1545.82 Q1027.6 1545.82 1029.41 1542.27 Q1031.24 1538.71 1031.24 1531.6 Q1031.24 1524.47 1029.41 1520.93 Q1027.6 1517.37 1023.97 1517.37 M1023.97 1513.66 Q1029.78 1513.66 1032.84 1518.27 Q1035.91 1522.85 1035.91 1531.6 Q1035.91 1540.33 1032.84 1544.94 Q1029.78 1549.52 1023.97 1549.52 Q1018.16 1549.52 1015.08 1544.94 Q1012.03 1540.33 1012.03 1531.6 Q1012.03 1522.85 1015.08 1518.27 Q1018.16 1513.66 1023.97 1513.66 Z" fill="#000000" fill-rule="evenodd" fill-opacity="1" /><path clip-path="url(#clip270)" d="M1044.13 1542.97 L1049.02 1542.97 L1049.02 1548.85 L1044.13 1548.85 L1044.13 1542.97 Z" fill="#000000" fill-rule="evenodd" fill-opacity="1" /><path clip-path="url(#clip270)" d="M1072.05 1518.36 L1060.24 1536.81 L1072.05 1536.81 L1072.05 1518.36 M1070.82 1514.29 L1076.7 1514.29 L1076.7 1536.81 L1081.63 1536.81 L1081.63 1540.7 L1076.7 1540.7 L1076.7 1548.85 L1072.05 1548.85 L1072.05 1540.7 L1056.45 1540.7 L1056.45 1536.19 L1070.82 1514.29 Z" fill="#000000" fill-rule="evenodd" fill-opacity="1" /><path clip-path="url(#clip270)" d="M1466.45 1517.37 Q1462.84 1517.37 1461.01 1520.93 Q1459.21 1524.47 1459.21 1531.6 Q1459.21 1538.71 1461.01 1542.27 Q1462.84 1545.82 1466.45 1545.82 Q1470.09 1545.82 1471.89 1542.27 Q1473.72 1538.71 1473.72 1531.6 Q1473.72 1524.47 1471.89 1520.93 Q1470.09 1517.37 1466.45 1517.37 M1466.45 1513.66 Q1472.26 1513.66 1475.32 1518.27 Q1478.4 1522.85 1478.4 1531.6 Q1478.4 1540.33 1475.32 1544.94 Q1472.26 1549.52 1466.45 1549.52 Q1460.64 1549.52 1457.56 1544.94 Q1454.51 1540.33 1454.51 1531.6 Q1454.51 1522.85 1457.56 1518.27 Q1460.64 1513.66 1466.45 1513.66 Z" fill="#000000" fill-rule="evenodd" fill-opacity="1" /><path clip-path="url(#clip270)" d="M1486.61 1542.97 L1491.5 1542.97 L1491.5 1548.85 L1486.61 1548.85 L1486.61 1542.97 Z" fill="#000000" fill-rule="evenodd" fill-opacity="1" /><path clip-path="url(#clip270)" d="M1512.26 1529.7 Q1509.11 1529.7 1507.26 1531.86 Q1505.43 1534.01 1505.43 1537.76 Q1505.43 1541.49 1507.26 1543.66 Q1509.11 1545.82 1512.26 1545.82 Q1515.41 1545.82 1517.24 1543.66 Q1519.09 1541.49 1519.09 1537.76 Q1519.09 1534.01 1517.24 1531.86 Q1515.41 1529.7 1512.26 1529.7 M1521.54 1515.05 L1521.54 1519.31 Q1519.79 1518.48 1517.98 1518.04 Q1516.2 1517.6 1514.44 1517.6 Q1509.81 1517.6 1507.36 1520.72 Q1504.92 1523.85 1504.58 1530.17 Q1505.94 1528.15 1508 1527.09 Q1510.06 1526 1512.54 1526 Q1517.75 1526 1520.76 1529.17 Q1523.79 1532.32 1523.79 1537.76 Q1523.79 1543.08 1520.64 1546.3 Q1517.49 1549.52 1512.26 1549.52 Q1506.27 1549.52 1503.1 1544.94 Q1499.92 1540.33 1499.92 1531.6 Q1499.92 1523.41 1503.81 1518.55 Q1507.7 1513.66 1514.25 1513.66 Q1516.01 1513.66 1517.79 1514.01 Q1519.6 1514.36 1521.54 1515.05 Z" fill="#000000" fill-rule="evenodd" fill-opacity="1" /><path clip-path="url(#clip270)" d="M1908.9 1517.37 Q1905.29 1517.37 1903.46 1520.93 Q1901.66 1524.47 1901.66 1531.6 Q1901.66 1538.71 1903.46 1542.27 Q1905.29 1545.82 1908.9 1545.82 Q1912.53 1545.82 1914.34 1542.27 Q1916.17 1538.71 1916.17 1531.6 Q1916.17 1524.47 1914.34 1520.93 Q1912.53 1517.37 1908.9 1517.37 M1908.9 1513.66 Q1914.71 1513.66 1917.77 1518.27 Q1920.84 1522.85 1920.84 1531.6 Q1920.84 1540.33 1917.77 1544.94 Q1914.71 1549.52 1908.9 1549.52 Q1903.09 1549.52 1900.01 1544.94 Q1896.96 1540.33 1896.96 1531.6 Q1896.96 1522.85 1900.01 1518.27 Q1903.09 1513.66 1908.9 1513.66 Z" fill="#000000" fill-rule="evenodd" fill-opacity="1" /><path clip-path="url(#clip270)" d="M1929.06 1542.97 L1933.95 1542.97 L1933.95 1548.85 L1929.06 1548.85 L1929.06 1542.97 Z" fill="#000000" fill-rule="evenodd" fill-opacity="1" /><path clip-path="url(#clip270)" d="M1954.13 1532.44 Q1950.8 1532.44 1948.88 1534.22 Q1946.98 1536 1946.98 1539.13 Q1946.98 1542.25 1948.88 1544.03 Q1950.8 1545.82 1954.13 1545.82 Q1957.47 1545.82 1959.39 1544.03 Q1961.31 1542.23 1961.31 1539.13 Q1961.31 1536 1959.39 1534.22 Q1957.49 1532.44 1954.13 1532.44 M1949.46 1530.45 Q1946.45 1529.7 1944.76 1527.64 Q1943.09 1525.58 1943.09 1522.62 Q1943.09 1518.48 1946.03 1516.07 Q1948.99 1513.66 1954.13 1513.66 Q1959.29 1513.66 1962.23 1516.07 Q1965.17 1518.48 1965.17 1522.62 Q1965.17 1525.58 1963.48 1527.64 Q1961.82 1529.7 1958.83 1530.45 Q1962.21 1531.23 1964.09 1533.52 Q1965.98 1535.82 1965.98 1539.13 Q1965.98 1544.15 1962.9 1546.83 Q1959.85 1549.52 1954.13 1549.52 Q1948.41 1549.52 1945.34 1546.83 Q1942.28 1544.15 1942.28 1539.13 Q1942.28 1535.82 1944.18 1533.52 Q1946.08 1531.23 1949.46 1530.45 M1947.74 1523.06 Q1947.74 1525.75 1949.41 1527.25 Q1951.1 1528.76 1954.13 1528.76 Q1957.14 1528.76 1958.83 1527.25 Q1960.54 1525.75 1960.54 1523.06 Q1960.54 1520.38 1958.83 1518.87 Q1957.14 1517.37 1954.13 1517.37 Q1951.1 1517.37 1949.41 1518.87 Q1947.74 1520.38 1947.74 1523.06 Z" fill="#000000" fill-rule="evenodd" fill-opacity="1" /><polyline clip-path="url(#clip272)" style="stroke:#000000; stroke-linecap:butt; stroke-linejoin:round; stroke-width:2; stroke-opacity:0.1; fill:none" points="
  156.598,1446.78 2352.76,1446.78 
  "/>
<polyline clip-path="url(#clip272)" style="stroke:#000000; stroke-linecap:butt; stroke-linejoin:round; stroke-width:2; stroke-opacity:0.1; fill:none" points="
  156.598,1158.99 2352.76,1158.99 
  "/>
<polyline clip-path="url(#clip272)" style="stroke:#000000; stroke-linecap:butt; stroke-linejoin:round; stroke-width:2; stroke-opacity:0.1; fill:none" points="
  156.598,871.208 2352.76,871.208 
  "/>
<polyline clip-path="url(#clip272)" style="stroke:#000000; stroke-linecap:butt; stroke-linejoin:round; stroke-width:2; stroke-opacity:0.1; fill:none" points="
  156.598,583.422 2352.76,583.422 
  "/>
<polyline clip-path="url(#clip272)" style="stroke:#000000; stroke-linecap:butt; stroke-linejoin:round; stroke-width:2; stroke-opacity:0.1; fill:none" points="
  156.598,295.635 2352.76,295.635 
  "/>
<polyline clip-path="url(#clip270)" style="stroke:#000000; stroke-linecap:butt; stroke-linejoin:round; stroke-width:4; stroke-opacity:1; fill:none" points="
  156.598,1486.45 156.598,47.2441 
  "/>
<polyline clip-path="url(#clip270)" style="stroke:#000000; stroke-linecap:butt; stroke-linejoin:round; stroke-width:4; stroke-opacity:1; fill:none" points="
  156.598,1446.78 175.496,1446.78 
  "/>
<polyline clip-path="url(#clip270)" style="stroke:#000000; stroke-linecap:butt; stroke-linejoin:round; stroke-width:4; stroke-opacity:1; fill:none" points="
  156.598,1158.99 175.496,1158.99 
  "/>
<polyline clip-path="url(#clip270)" style="stroke:#000000; stroke-linecap:butt; stroke-linejoin:round; stroke-width:4; stroke-opacity:1; fill:none" points="
  156.598,871.208 175.496,871.208 
  "/>
<polyline clip-path="url(#clip270)" style="stroke:#000000; stroke-linecap:butt; stroke-linejoin:round; stroke-width:4; stroke-opacity:1; fill:none" points="
  156.598,583.422 175.496,583.422 
  "/>
<polyline clip-path="url(#clip270)" style="stroke:#000000; stroke-linecap:butt; stroke-linejoin:round; stroke-width:4; stroke-opacity:1; fill:none" points="
  156.598,295.635 175.496,295.635 
  "/>
<path clip-path="url(#clip270)" d="M63.4226 1432.58 Q59.8115 1432.58 57.9828 1436.14 Q56.1773 1439.69 56.1773 1446.82 Q56.1773 1453.92 57.9828 1457.49 Q59.8115 1461.03 63.4226 1461.03 Q67.0569 1461.03 68.8624 1457.49 Q70.6911 1453.92 70.6911 1446.82 Q70.6911 1439.69 68.8624 1436.14 Q67.0569 1432.58 63.4226 1432.58 M63.4226 1428.88 Q69.2328 1428.88 72.2883 1433.48 Q75.367 1438.07 75.367 1446.82 Q75.367 1455.54 72.2883 1460.15 Q69.2328 1464.73 63.4226 1464.73 Q57.6125 1464.73 54.5338 1460.15 Q51.4782 1455.54 51.4782 1446.82 Q51.4782 1438.07 54.5338 1433.48 Q57.6125 1428.88 63.4226 1428.88 Z" fill="#000000" fill-rule="evenodd" fill-opacity="1" /><path clip-path="url(#clip270)" d="M83.5845 1458.18 L88.4688 1458.18 L88.4688 1464.06 L83.5845 1464.06 L83.5845 1458.18 Z" fill="#000000" fill-rule="evenodd" fill-opacity="1" /><path clip-path="url(#clip270)" d="M108.654 1432.58 Q105.043 1432.58 103.214 1436.14 Q101.409 1439.69 101.409 1446.82 Q101.409 1453.92 103.214 1457.49 Q105.043 1461.03 108.654 1461.03 Q112.288 1461.03 114.094 1457.49 Q115.922 1453.92 115.922 1446.82 Q115.922 1439.69 114.094 1436.14 Q112.288 1432.58 108.654 1432.58 M108.654 1428.88 Q114.464 1428.88 117.52 1433.48 Q120.598 1438.07 120.598 1446.82 Q120.598 1455.54 117.52 1460.15 Q114.464 1464.73 108.654 1464.73 Q102.844 1464.73 99.765 1460.15 Q96.7095 1455.54 96.7095 1446.82 Q96.7095 1438.07 99.765 1433.48 Q102.844 1428.88 108.654 1428.88 Z" fill="#000000" fill-rule="evenodd" fill-opacity="1" /><path clip-path="url(#clip270)" d="M65.0198 1144.79 Q61.4087 1144.79 59.58 1148.36 Q57.7745 1151.9 57.7745 1159.03 Q57.7745 1166.14 59.58 1169.7 Q61.4087 1173.24 65.0198 1173.24 Q68.6541 1173.24 70.4596 1169.7 Q72.2883 1166.14 72.2883 1159.03 Q72.2883 1151.9 70.4596 1148.36 Q68.6541 1144.79 65.0198 1144.79 M65.0198 1141.09 Q70.83 1141.09 73.8855 1145.7 Q76.9642 1150.28 76.9642 1159.03 Q76.9642 1167.76 73.8855 1172.36 Q70.83 1176.95 65.0198 1176.95 Q59.2097 1176.95 56.131 1172.36 Q53.0754 1167.76 53.0754 1159.03 Q53.0754 1150.28 56.131 1145.7 Q59.2097 1141.09 65.0198 1141.09 Z" fill="#000000" fill-rule="evenodd" fill-opacity="1" /><path clip-path="url(#clip270)" d="M85.1818 1170.39 L90.066 1170.39 L90.066 1176.27 L85.1818 1176.27 L85.1818 1170.39 Z" fill="#000000" fill-rule="evenodd" fill-opacity="1" /><path clip-path="url(#clip270)" d="M104.279 1172.34 L120.598 1172.34 L120.598 1176.27 L98.6539 1176.27 L98.6539 1172.34 Q101.316 1169.58 105.899 1164.95 Q110.506 1160.3 111.686 1158.96 Q113.932 1156.44 114.811 1154.7 Q115.714 1152.94 115.714 1151.25 Q115.714 1148.5 113.77 1146.76 Q111.848 1145.02 108.746 1145.02 Q106.547 1145.02 104.094 1145.79 Q101.663 1146.55 98.8854 1148.1 L98.8854 1143.38 Q101.709 1142.25 104.163 1141.67 Q106.617 1141.09 108.654 1141.09 Q114.024 1141.09 117.219 1143.77 Q120.413 1146.46 120.413 1150.95 Q120.413 1153.08 119.603 1155 Q118.816 1156.9 116.709 1159.49 Q116.131 1160.16 113.029 1163.38 Q109.927 1166.58 104.279 1172.34 Z" fill="#000000" fill-rule="evenodd" fill-opacity="1" /><path clip-path="url(#clip270)" d="M62.9365 857.006 Q59.3254 857.006 57.4967 860.571 Q55.6912 864.113 55.6912 871.243 Q55.6912 878.349 57.4967 881.914 Q59.3254 885.455 62.9365 885.455 Q66.5707 885.455 68.3763 881.914 Q70.205 878.349 70.205 871.243 Q70.205 864.113 68.3763 860.571 Q66.5707 857.006 62.9365 857.006 M62.9365 853.303 Q68.7467 853.303 71.8022 857.909 Q74.8809 862.493 74.8809 871.243 Q74.8809 879.969 71.8022 884.576 Q68.7467 889.159 62.9365 889.159 Q57.1264 889.159 54.0477 884.576 Q50.9921 879.969 50.9921 871.243 Q50.9921 862.493 54.0477 857.909 Q57.1264 853.303 62.9365 853.303 Z" fill="#000000" fill-rule="evenodd" fill-opacity="1" /><path clip-path="url(#clip270)" d="M83.0984 882.608 L87.9827 882.608 L87.9827 888.488 L83.0984 888.488 L83.0984 882.608 Z" fill="#000000" fill-rule="evenodd" fill-opacity="1" /><path clip-path="url(#clip270)" d="M111.015 858.002 L99.2095 876.451 L111.015 876.451 L111.015 858.002 M109.788 853.928 L115.668 853.928 L115.668 876.451 L120.598 876.451 L120.598 880.34 L115.668 880.34 L115.668 888.488 L111.015 888.488 L111.015 880.34 L95.4132 880.34 L95.4132 875.826 L109.788 853.928 Z" fill="#000000" fill-rule="evenodd" fill-opacity="1" /><path clip-path="url(#clip270)" d="M63.2606 569.22 Q59.6495 569.22 57.8208 572.785 Q56.0152 576.327 56.0152 583.456 Q56.0152 590.563 57.8208 594.127 Q59.6495 597.669 63.2606 597.669 Q66.8948 597.669 68.7004 594.127 Q70.5291 590.563 70.5291 583.456 Q70.5291 576.327 68.7004 572.785 Q66.8948 569.22 63.2606 569.22 M63.2606 565.517 Q69.0707 565.517 72.1263 570.123 Q75.205 574.706 75.205 583.456 Q75.205 592.183 72.1263 596.79 Q69.0707 601.373 63.2606 601.373 Q57.4504 601.373 54.3717 596.79 Q51.3162 592.183 51.3162 583.456 Q51.3162 574.706 54.3717 570.123 Q57.4504 565.517 63.2606 565.517 Z" fill="#000000" fill-rule="evenodd" fill-opacity="1" /><path clip-path="url(#clip270)" d="M83.4225 594.822 L88.3067 594.822 L88.3067 600.702 L83.4225 600.702 L83.4225 594.822 Z" fill="#000000" fill-rule="evenodd" fill-opacity="1" /><path clip-path="url(#clip270)" d="M109.071 581.558 Q105.922 581.558 104.071 583.711 Q102.242 585.864 102.242 589.614 Q102.242 593.34 104.071 595.516 Q105.922 597.669 109.071 597.669 Q112.219 597.669 114.047 595.516 Q115.899 593.34 115.899 589.614 Q115.899 585.864 114.047 583.711 Q112.219 581.558 109.071 581.558 M118.353 566.905 L118.353 571.165 Q116.594 570.331 114.788 569.892 Q113.006 569.452 111.246 569.452 Q106.617 569.452 104.163 572.577 Q101.733 575.702 101.385 582.021 Q102.751 580.007 104.811 578.942 Q106.871 577.854 109.348 577.854 Q114.557 577.854 117.566 581.026 Q120.598 584.174 120.598 589.614 Q120.598 594.938 117.45 598.155 Q114.302 601.373 109.071 601.373 Q103.075 601.373 99.9039 596.79 Q96.7326 592.183 96.7326 583.456 Q96.7326 575.262 100.621 570.401 Q104.51 565.517 111.061 565.517 Q112.82 565.517 114.603 565.864 Q116.408 566.211 118.353 566.905 Z" fill="#000000" fill-rule="evenodd" fill-opacity="1" /><path clip-path="url(#clip270)" d="M63.5152 281.434 Q59.9041 281.434 58.0754 284.999 Q56.2699 288.54 56.2699 295.67 Q56.2699 302.776 58.0754 306.341 Q59.9041 309.883 63.5152 309.883 Q67.1494 309.883 68.955 306.341 Q70.7837 302.776 70.7837 295.67 Q70.7837 288.54 68.955 284.999 Q67.1494 281.434 63.5152 281.434 M63.5152 277.73 Q69.3254 277.73 72.3809 282.337 Q75.4596 286.92 75.4596 295.67 Q75.4596 304.397 72.3809 309.003 Q69.3254 313.587 63.5152 313.587 Q57.7051 313.587 54.6264 309.003 Q51.5708 304.397 51.5708 295.67 Q51.5708 286.92 54.6264 282.337 Q57.7051 277.73 63.5152 277.73 Z" fill="#000000" fill-rule="evenodd" fill-opacity="1" /><path clip-path="url(#clip270)" d="M83.6771 307.036 L88.5614 307.036 L88.5614 312.915 L83.6771 312.915 L83.6771 307.036 Z" fill="#000000" fill-rule="evenodd" fill-opacity="1" /><path clip-path="url(#clip270)" d="M108.746 296.503 Q105.413 296.503 103.492 298.286 Q101.594 300.068 101.594 303.193 Q101.594 306.318 103.492 308.1 Q105.413 309.883 108.746 309.883 Q112.08 309.883 114.001 308.1 Q115.922 306.295 115.922 303.193 Q115.922 300.068 114.001 298.286 Q112.103 296.503 108.746 296.503 M104.071 294.513 Q101.061 293.772 99.3715 291.712 Q97.7048 289.651 97.7048 286.689 Q97.7048 282.545 100.645 280.138 Q103.608 277.73 108.746 277.73 Q113.908 277.73 116.848 280.138 Q119.788 282.545 119.788 286.689 Q119.788 289.651 118.098 291.712 Q116.432 293.772 113.445 294.513 Q116.825 295.3 118.7 297.591 Q120.598 299.883 120.598 303.193 Q120.598 308.216 117.52 310.901 Q114.464 313.587 108.746 313.587 Q103.029 313.587 99.9502 310.901 Q96.8947 308.216 96.8947 303.193 Q96.8947 299.883 98.7928 297.591 Q100.691 295.3 104.071 294.513 M102.358 287.128 Q102.358 289.814 104.024 291.318 Q105.714 292.823 108.746 292.823 Q111.756 292.823 113.445 291.318 Q115.158 289.814 115.158 287.128 Q115.158 284.443 113.445 282.939 Q111.756 281.434 108.746 281.434 Q105.714 281.434 104.024 282.939 Q102.358 284.443 102.358 287.128 Z" fill="#000000" fill-rule="evenodd" fill-opacity="1" /><polyline clip-path="url(#clip272)" style="stroke:#009af9; stroke-linecap:butt; stroke-linejoin:round; stroke-width:4; stroke-opacity:1; fill:none" points="
  1104.62,719.204 218.754,1073.11 691.776,1042.04 2290.6,87.9763 1147.72,942.873 496.403,93.916 1076.66,1050.75 2107.63,1445.72 877.459,408.53 1421.18,772.943 
  
  "/>
<path clip-path="url(#clip270)" d="
M1987.12 198.898 L2279.55 198.898 L2279.55 95.2176 L1987.12 95.2176  Z
  " fill="#ffffff" fill-rule="evenodd" fill-opacity="1"/>
<polyline clip-path="url(#clip270)" style="stroke:#000000; stroke-linecap:butt; stroke-linejoin:round; stroke-width:4; stroke-opacity:1; fill:none" points="
  1987.12,198.898 2279.55,198.898 2279.55,95.2176 1987.12,95.2176 1987.12,198.898 
  "/>
<polyline clip-path="url(#clip270)" style="stroke:#009af9; stroke-linecap:butt; stroke-linejoin:round; stroke-width:4; stroke-opacity:1; fill:none" points="
  2011.12,147.058 2155.12,147.058 
  "/>
<path clip-path="url(#clip270)" d="M2192.96 166.745 Q2191.16 171.375 2189.44 172.787 Q2187.73 174.199 2184.86 174.199 L2181.46 174.199 L2181.46 170.634 L2183.96 170.634 Q2185.72 170.634 2186.69 169.8 Q2187.66 168.967 2188.84 165.865 L2189.61 163.921 L2179.12 138.412 L2183.63 138.412 L2191.74 158.689 L2199.84 138.412 L2204.35 138.412 L2192.96 166.745 Z" fill="#000000" fill-rule="evenodd" fill-opacity="1" /><path clip-path="url(#clip270)" d="M2211.64 160.402 L2219.28 160.402 L2219.28 134.037 L2210.97 135.703 L2210.97 131.444 L2219.24 129.778 L2223.91 129.778 L2223.91 160.402 L2231.55 160.402 L2231.55 164.338 L2211.64 164.338 L2211.64 160.402 Z" fill="#000000" fill-rule="evenodd" fill-opacity="1" /></svg>
