<?xml version="1.0" encoding="utf-8"?>
<svg xmlns="http://www.w3.org/2000/svg" xmlns:xlink="http://www.w3.org/1999/xlink" width="600" height="400" viewBox="0 0 2400 1600">
<defs>
  <clipPath id="clip770">
    <rect x="0" y="0" width="2400" height="1600"/>
  </clipPath>
</defs>
<path clip-path="url(#clip770)" d="
M0 1600 L2400 1600 L2400 0 L0 0  Z
  " fill="#ffffff" fill-rule="evenodd" fill-opacity="1"/>
<defs>
  <clipPath id="clip771">
    <rect x="480" y="0" width="1681" height="1600"/>
  </clipPath>
</defs>
<path clip-path="url(#clip770)" d="
M156.598 1486.45 L2352.76 1486.45 L2352.76 47.2441 L156.598 47.2441  Z
  " fill="#ffffff" fill-rule="evenodd" fill-opacity="1"/>
<defs>
  <clipPath id="clip772">
    <rect x="156" y="47" width="2197" height="1440"/>
  </clipPath>
</defs>
<polyline clip-path="url(#clip772)" style="stroke:#000000; stroke-linecap:butt; stroke-linejoin:round; stroke-width:2; stroke-opacity:0.1; fill:none" points="
  470.307,1486.45 470.307,47.2441 
  "/>
<polyline clip-path="url(#clip772)" style="stroke:#000000; stroke-linecap:butt; stroke-linejoin:round; stroke-width:2; stroke-opacity:0.1; fill:none" points="
  958.13,1486.45 958.13,47.2441 
  "/>
<polyline clip-path="url(#clip772)" style="stroke:#000000; stroke-linecap:butt; stroke-linejoin:round; stroke-width:2; stroke-opacity:0.1; fill:none" points="
  1445.95,1486.45 1445.95,47.2441 
  "/>
<polyline clip-path="url(#clip772)" style="stroke:#000000; stroke-linecap:butt; stroke-linejoin:round; stroke-width:2; stroke-opacity:0.1; fill:none" points="
  1933.78,1486.45 1933.78,47.2441 
  "/>
<polyline clip-path="url(#clip770)" style="stroke:#000000; stroke-linecap:butt; stroke-linejoin:round; stroke-width:4; stroke-opacity:1; fill:none" points="
  156.598,1486.45 2352.76,1486.45 
  "/>
<polyline clip-path="url(#clip770)" style="stroke:#000000; stroke-linecap:butt; stroke-linejoin:round; stroke-width:4; stroke-opacity:1; fill:none" points="
  470.307,1486.45 470.307,1467.55 
  "/>
<polyline clip-path="url(#clip770)" style="stroke:#000000; stroke-linecap:butt; stroke-linejoin:round; stroke-width:4; stroke-opacity:1; fill:none" points="
  958.13,1486.45 958.13,1467.55 
  "/>
<polyline clip-path="url(#clip770)" style="stroke:#000000; stroke-linecap:butt; stroke-linejoin:round; stroke-width:4; stroke-opacity:1; fill:none" points="
  1445.95,1486.45 1445.95,1467.55 
  "/>
<polyline clip-path="url(#clip770)" style="stroke:#000000; stroke-linecap:butt; stroke-linejoin:round; stroke-width:4; stroke-opacity:1; fill:none" points="
  1933.78,1486.45 1933.78,1467.55 
  "/>
<path clip-path="url(#clip770)" d="M448.49 1517.37 Q444.879 1517.37 443.05 1520.93 Q441.244 1524.47 441.244 1531.6 Q441.244 1538.71 443.05 1542.27 Q444.879 1545.82 448.49 1545.82 Q452.124 1545.82 453.929 1542.27 Q455.758 1538.71 455.758 1531.6 Q455.758 1524.47 453.929 1520.93 Q452.124 1517.37 448.49 1517.37 M448.49 1513.66 Q454.3 1513.66 457.355 1518.27 Q460.434 1522.85 460.434 1531.6 Q460.434 1540.33 457.355 1544.94 Q454.3 1549.52 448.49 1549.52 Q442.68 1549.52 439.601 1544.94 Q436.545 1540.33 436.545 1531.6 Q436.545 1522.85 439.601 1518.27 Q442.68 1513.66 448.49 1513.66 Z" fill="#000000" fill-rule="evenodd" fill-opacity="1" /><path clip-path="url(#clip770)" d="M468.652 1542.97 L473.536 1542.97 L473.536 1548.85 L468.652 1548.85 L468.652 1542.97 Z" fill="#000000" fill-rule="evenodd" fill-opacity="1" /><path clip-path="url(#clip770)" d="M487.749 1544.91 L504.068 1544.91 L504.068 1548.85 L482.124 1548.85 L482.124 1544.91 Q484.786 1542.16 489.369 1537.53 Q493.976 1532.88 495.156 1531.53 Q497.401 1529.01 498.281 1527.27 Q499.184 1525.51 499.184 1523.82 Q499.184 1521.07 497.239 1519.33 Q495.318 1517.6 492.216 1517.6 Q490.017 1517.6 487.564 1518.36 Q485.133 1519.13 482.355 1520.68 L482.355 1515.95 Q485.179 1514.82 487.633 1514.24 Q490.087 1513.66 492.124 1513.66 Q497.494 1513.66 500.688 1516.35 Q503.883 1519.03 503.883 1523.52 Q503.883 1525.65 503.073 1527.57 Q502.286 1529.47 500.179 1532.07 Q499.601 1532.74 496.499 1535.95 Q493.397 1539.15 487.749 1544.91 Z" fill="#000000" fill-rule="evenodd" fill-opacity="1" /><path clip-path="url(#clip770)" d="M935.271 1517.37 Q931.66 1517.37 929.831 1520.93 Q928.026 1524.47 928.026 1531.6 Q928.026 1538.71 929.831 1542.27 Q931.66 1545.82 935.271 1545.82 Q938.905 1545.82 940.711 1542.27 Q942.539 1538.71 942.539 1531.6 Q942.539 1524.47 940.711 1520.93 Q938.905 1517.37 935.271 1517.37 M935.271 1513.66 Q941.081 1513.66 944.137 1518.27 Q947.215 1522.85 947.215 1531.6 Q947.215 1540.33 944.137 1544.94 Q941.081 1549.52 935.271 1549.52 Q929.461 1549.52 926.382 1544.94 Q923.327 1540.33 923.327 1531.6 Q923.327 1522.85 926.382 1518.27 Q929.461 1513.66 935.271 1513.66 Z" fill="#000000" fill-rule="evenodd" fill-opacity="1" /><path clip-path="url(#clip770)" d="M955.433 1542.97 L960.317 1542.97 L960.317 1548.85 L955.433 1548.85 L955.433 1542.97 Z" fill="#000000" fill-rule="evenodd" fill-opacity="1" /><path clip-path="url(#clip770)" d="M983.349 1518.36 L971.544 1536.81 L983.349 1536.81 L983.349 1518.36 M982.123 1514.29 L988.002 1514.29 L988.002 1536.81 L992.933 1536.81 L992.933 1540.7 L988.002 1540.7 L988.002 1548.85 L983.349 1548.85 L983.349 1540.7 L967.748 1540.7 L967.748 1536.19 L982.123 1514.29 Z" fill="#000000" fill-rule="evenodd" fill-opacity="1" /><path clip-path="url(#clip770)" d="M1423.26 1517.37 Q1419.64 1517.37 1417.82 1520.93 Q1416.01 1524.47 1416.01 1531.6 Q1416.01 1538.71 1417.82 1542.27 Q1419.64 1545.82 1423.26 1545.82 Q1426.89 1545.82 1428.7 1542.27 Q1430.52 1538.71 1430.52 1531.6 Q1430.52 1524.47 1428.7 1520.93 Q1426.89 1517.37 1423.26 1517.37 M1423.26 1513.66 Q1429.07 1513.66 1432.12 1518.27 Q1435.2 1522.85 1435.2 1531.6 Q1435.2 1540.33 1432.12 1544.94 Q1429.07 1549.52 1423.26 1549.52 Q1417.45 1549.52 1414.37 1544.94 Q1411.31 1540.33 1411.31 1531.6 Q1411.31 1522.85 1414.37 1518.27 Q1417.45 1513.66 1423.26 1513.66 Z" fill="#000000" fill-rule="evenodd" fill-opacity="1" /><path clip-path="url(#clip770)" d="M1443.42 1542.97 L1448.3 1542.97 L1448.3 1548.85 L1443.42 1548.85 L1443.42 1542.97 Z" fill="#000000" fill-rule="evenodd" fill-opacity="1" /><path clip-path="url(#clip770)" d="M1469.07 1529.7 Q1465.92 1529.7 1464.07 1531.86 Q1462.24 1534.01 1462.24 1537.76 Q1462.24 1541.49 1464.07 1543.66 Q1465.92 1545.82 1469.07 1545.82 Q1472.21 1545.82 1474.04 1543.66 Q1475.89 1541.49 1475.89 1537.76 Q1475.89 1534.01 1474.04 1531.86 Q1472.21 1529.7 1469.07 1529.7 M1478.35 1515.05 L1478.35 1519.31 Q1476.59 1518.48 1474.78 1518.04 Q1473 1517.6 1471.24 1517.6 Q1466.61 1517.6 1464.16 1520.72 Q1461.73 1523.85 1461.38 1530.17 Q1462.75 1528.15 1464.81 1527.09 Q1466.87 1526 1469.34 1526 Q1474.55 1526 1477.56 1529.17 Q1480.59 1532.32 1480.59 1537.76 Q1480.59 1543.08 1477.45 1546.3 Q1474.3 1549.52 1469.07 1549.52 Q1463.07 1549.52 1459.9 1544.94 Q1456.73 1540.33 1456.73 1531.6 Q1456.73 1523.41 1460.62 1518.55 Q1464.51 1513.66 1471.06 1513.66 Q1472.82 1513.66 1474.6 1514.01 Q1476.4 1514.36 1478.35 1515.05 Z" fill="#000000" fill-rule="evenodd" fill-opacity="1" /><path clip-path="url(#clip770)" d="M1911.21 1517.37 Q1907.6 1517.37 1905.77 1520.93 Q1903.96 1524.47 1903.96 1531.6 Q1903.96 1538.71 1905.77 1542.27 Q1907.6 1545.82 1911.21 1545.82 Q1914.84 1545.82 1916.65 1542.27 Q1918.47 1538.71 1918.47 1531.6 Q1918.47 1524.47 1916.65 1520.93 Q1914.84 1517.37 1911.21 1517.37 M1911.21 1513.66 Q1917.02 1513.66 1920.07 1518.27 Q1923.15 1522.85 1923.15 1531.6 Q1923.15 1540.33 1920.07 1544.94 Q1917.02 1549.52 1911.21 1549.52 Q1905.4 1549.52 1902.32 1544.94 Q1899.26 1540.33 1899.26 1531.6 Q1899.26 1522.85 1902.32 1518.27 Q1905.4 1513.66 1911.21 1513.66 Z" fill="#000000" fill-rule="evenodd" fill-opacity="1" /><path clip-path="url(#clip770)" d="M1931.37 1542.97 L1936.25 1542.97 L1936.25 1548.85 L1931.37 1548.85 L1931.37 1542.97 Z" fill="#000000" fill-rule="evenodd" fill-opacity="1" /><path clip-path="url(#clip770)" d="M1956.44 1532.44 Q1953.1 1532.44 1951.18 1534.22 Q1949.28 1536 1949.28 1539.13 Q1949.28 1542.25 1951.18 1544.03 Q1953.1 1545.82 1956.44 1545.82 Q1959.77 1545.82 1961.69 1544.03 Q1963.61 1542.23 1963.61 1539.13 Q1963.61 1536 1961.69 1534.22 Q1959.79 1532.44 1956.44 1532.44 M1951.76 1530.45 Q1948.75 1529.7 1947.06 1527.64 Q1945.4 1525.58 1945.4 1522.62 Q1945.4 1518.48 1948.34 1516.07 Q1951.3 1513.66 1956.44 1513.66 Q1961.6 1513.66 1964.54 1516.07 Q1967.48 1518.48 1967.48 1522.62 Q1967.48 1525.58 1965.79 1527.64 Q1964.12 1529.7 1961.14 1530.45 Q1964.52 1531.23 1966.39 1533.52 Q1968.29 1535.82 1968.29 1539.13 Q1968.29 1544.15 1965.21 1546.83 Q1962.16 1549.52 1956.44 1549.52 Q1950.72 1549.52 1947.64 1546.83 Q1944.59 1544.15 1944.59 1539.13 Q1944.59 1535.82 1946.48 1533.52 Q1948.38 1531.23 1951.76 1530.45 M1950.05 1523.06 Q1950.05 1525.75 1951.72 1527.25 Q1953.41 1528.76 1956.44 1528.76 Q1959.45 1528.76 1961.14 1527.25 Q1962.85 1525.75 1962.85 1523.06 Q1962.85 1520.38 1961.14 1518.87 Q1959.45 1517.37 1956.44 1517.37 Q1953.41 1517.37 1951.72 1518.87 Q1950.05 1520.38 1950.05 1523.06 Z" fill="#000000" fill-rule="evenodd" fill-opacity="1" /><polyline clip-path="url(#clip772)" style="stroke:#000000; stroke-linecap:butt; stroke-linejoin:round; stroke-width:2; stroke-opacity:0.1; fill:none" points="
  156.598,1198.24 2352.76,1198.24 
  "/>
<polyline clip-path="url(#clip772)" style="stroke:#000000; stroke-linecap:butt; stroke-linejoin:round; stroke-width:2; stroke-opacity:0.1; fill:none" points="
  156.598,895.078 2352.76,895.078 
  "/>
<polyline clip-path="url(#clip772)" style="stroke:#000000; stroke-linecap:butt; stroke-linejoin:round; stroke-width:2; stroke-opacity:0.1; fill:none" points="
  156.598,591.915 2352.76,591.915 
  "/>
<polyline clip-path="url(#clip772)" style="stroke:#000000; stroke-linecap:butt; stroke-linejoin:round; stroke-width:2; stroke-opacity:0.1; fill:none" points="
  156.598,288.752 2352.76,288.752 
  "/>
<polyline clip-path="url(#clip770)" style="stroke:#000000; stroke-linecap:butt; stroke-linejoin:round; stroke-width:4; stroke-opacity:1; fill:none" points="
  156.598,1486.45 156.598,47.2441 
  "/>
<polyline clip-path="url(#clip770)" style="stroke:#000000; stroke-linecap:butt; stroke-linejoin:round; stroke-width:4; stroke-opacity:1; fill:none" points="
  156.598,1198.24 175.496,1198.24 
  "/>
<polyline clip-path="url(#clip770)" style="stroke:#000000; stroke-linecap:butt; stroke-linejoin:round; stroke-width:4; stroke-opacity:1; fill:none" points="
  156.598,895.078 175.496,895.078 
  "/>
<polyline clip-path="url(#clip770)" style="stroke:#000000; stroke-linecap:butt; stroke-linejoin:round; stroke-width:4; stroke-opacity:1; fill:none" points="
  156.598,591.915 175.496,591.915 
  "/>
<polyline clip-path="url(#clip770)" style="stroke:#000000; stroke-linecap:butt; stroke-linejoin:round; stroke-width:4; stroke-opacity:1; fill:none" points="
  156.598,288.752 175.496,288.752 
  "/>
<path clip-path="url(#clip770)" d="M65.0198 1184.04 Q61.4087 1184.04 59.58 1187.61 Q57.7745 1191.15 57.7745 1198.28 Q57.7745 1205.38 59.58 1208.95 Q61.4087 1212.49 65.0198 1212.49 Q68.6541 1212.49 70.4596 1208.95 Q72.2883 1205.38 72.2883 1198.28 Q72.2883 1191.15 70.4596 1187.61 Q68.6541 1184.04 65.0198 1184.04 M65.0198 1180.34 Q70.83 1180.34 73.8855 1184.94 Q76.9642 1189.53 76.9642 1198.28 Q76.9642 1207 73.8855 1211.61 Q70.83 1216.19 65.0198 1216.19 Q59.2097 1216.19 56.131 1211.61 Q53.0754 1207 53.0754 1198.28 Q53.0754 1189.53 56.131 1184.94 Q59.2097 1180.34 65.0198 1180.34 Z" fill="#000000" fill-rule="evenodd" fill-opacity="1" /><path clip-path="url(#clip770)" d="M85.1818 1209.64 L90.066 1209.64 L90.066 1215.52 L85.1818 1215.52 L85.1818 1209.64 Z" fill="#000000" fill-rule="evenodd" fill-opacity="1" /><path clip-path="url(#clip770)" d="M104.279 1211.59 L120.598 1211.59 L120.598 1215.52 L98.6539 1215.52 L98.6539 1211.59 Q101.316 1208.83 105.899 1204.2 Q110.506 1199.55 111.686 1198.21 Q113.932 1195.68 114.811 1193.95 Q115.714 1192.19 115.714 1190.5 Q115.714 1187.74 113.77 1186.01 Q111.848 1184.27 108.746 1184.27 Q106.547 1184.27 104.094 1185.04 Q101.663 1185.8 98.8854 1187.35 L98.8854 1182.63 Q101.709 1181.49 104.163 1180.92 Q106.617 1180.34 108.654 1180.34 Q114.024 1180.34 117.219 1183.02 Q120.413 1185.71 120.413 1190.2 Q120.413 1192.33 119.603 1194.25 Q118.816 1196.15 116.709 1198.74 Q116.131 1199.41 113.029 1202.63 Q109.927 1205.82 104.279 1211.59 Z" fill="#000000" fill-rule="evenodd" fill-opacity="1" /><path clip-path="url(#clip770)" d="M62.9365 880.877 Q59.3254 880.877 57.4967 884.442 Q55.6912 887.983 55.6912 895.113 Q55.6912 902.22 57.4967 905.784 Q59.3254 909.326 62.9365 909.326 Q66.5707 909.326 68.3763 905.784 Q70.205 902.22 70.205 895.113 Q70.205 887.983 68.3763 884.442 Q66.5707 880.877 62.9365 880.877 M62.9365 877.173 Q68.7467 877.173 71.8022 881.78 Q74.8809 886.363 74.8809 895.113 Q74.8809 903.84 71.8022 908.446 Q68.7467 913.03 62.9365 913.03 Q57.1264 913.03 54.0477 908.446 Q50.9921 903.84 50.9921 895.113 Q50.9921 886.363 54.0477 881.78 Q57.1264 877.173 62.9365 877.173 Z" fill="#000000" fill-rule="evenodd" fill-opacity="1" /><path clip-path="url(#clip770)" d="M83.0984 906.479 L87.9827 906.479 L87.9827 912.358 L83.0984 912.358 L83.0984 906.479 Z" fill="#000000" fill-rule="evenodd" fill-opacity="1" /><path clip-path="url(#clip770)" d="M111.015 881.872 L99.2095 900.321 L111.015 900.321 L111.015 881.872 M109.788 877.798 L115.668 877.798 L115.668 900.321 L120.598 900.321 L120.598 904.21 L115.668 904.21 L115.668 912.358 L111.015 912.358 L111.015 904.21 L95.4132 904.21 L95.4132 899.696 L109.788 877.798 Z" fill="#000000" fill-rule="evenodd" fill-opacity="1" /><path clip-path="url(#clip770)" d="M63.2606 577.714 Q59.6495 577.714 57.8208 581.279 Q56.0152 584.82 56.0152 591.95 Q56.0152 599.056 57.8208 602.621 Q59.6495 606.163 63.2606 606.163 Q66.8948 606.163 68.7004 602.621 Q70.5291 599.056 70.5291 591.95 Q70.5291 584.82 68.7004 581.279 Q66.8948 577.714 63.2606 577.714 M63.2606 574.01 Q69.0707 574.01 72.1263 578.617 Q75.205 583.2 75.205 591.95 Q75.205 600.677 72.1263 605.283 Q69.0707 609.866 63.2606 609.866 Q57.4504 609.866 54.3717 605.283 Q51.3162 600.677 51.3162 591.95 Q51.3162 583.2 54.3717 578.617 Q57.4504 574.01 63.2606 574.01 Z" fill="#000000" fill-rule="evenodd" fill-opacity="1" /><path clip-path="url(#clip770)" d="M83.4225 603.316 L88.3067 603.316 L88.3067 609.195 L83.4225 609.195 L83.4225 603.316 Z" fill="#000000" fill-rule="evenodd" fill-opacity="1" /><path clip-path="url(#clip770)" d="M109.071 590.052 Q105.922 590.052 104.071 592.205 Q102.242 594.357 102.242 598.107 Q102.242 601.834 104.071 604.01 Q105.922 606.163 109.071 606.163 Q112.219 606.163 114.047 604.01 Q115.899 601.834 115.899 598.107 Q115.899 594.357 114.047 592.205 Q112.219 590.052 109.071 590.052 M118.353 575.399 L118.353 579.658 Q116.594 578.825 114.788 578.385 Q113.006 577.945 111.246 577.945 Q106.617 577.945 104.163 581.07 Q101.733 584.195 101.385 590.515 Q102.751 588.501 104.811 587.436 Q106.871 586.348 109.348 586.348 Q114.557 586.348 117.566 589.519 Q120.598 592.667 120.598 598.107 Q120.598 603.431 117.45 606.649 Q114.302 609.866 109.071 609.866 Q103.075 609.866 99.9039 605.283 Q96.7326 600.677 96.7326 591.95 Q96.7326 583.756 100.621 578.894 Q104.51 574.01 111.061 574.01 Q112.82 574.01 114.603 574.357 Q116.408 574.705 118.353 575.399 Z" fill="#000000" fill-rule="evenodd" fill-opacity="1" /><path clip-path="url(#clip770)" d="M63.5152 274.551 Q59.9041 274.551 58.0754 278.116 Q56.2699 281.657 56.2699 288.787 Q56.2699 295.893 58.0754 299.458 Q59.9041 303 63.5152 303 Q67.1494 303 68.955 299.458 Q70.7837 295.893 70.7837 288.787 Q70.7837 281.657 68.955 278.116 Q67.1494 274.551 63.5152 274.551 M63.5152 270.847 Q69.3254 270.847 72.3809 275.453 Q75.4596 280.037 75.4596 288.787 Q75.4596 297.514 72.3809 302.12 Q69.3254 306.703 63.5152 306.703 Q57.7051 306.703 54.6264 302.12 Q51.5708 297.514 51.5708 288.787 Q51.5708 280.037 54.6264 275.453 Q57.7051 270.847 63.5152 270.847 Z" fill="#000000" fill-rule="evenodd" fill-opacity="1" /><path clip-path="url(#clip770)" d="M83.6771 300.152 L88.5614 300.152 L88.5614 306.032 L83.6771 306.032 L83.6771 300.152 Z" fill="#000000" fill-rule="evenodd" fill-opacity="1" /><path clip-path="url(#clip770)" d="M108.746 289.62 Q105.413 289.62 103.492 291.402 Q101.594 293.185 101.594 296.31 Q101.594 299.435 103.492 301.217 Q105.413 303 108.746 303 Q112.08 303 114.001 301.217 Q115.922 299.412 115.922 296.31 Q115.922 293.185 114.001 291.402 Q112.103 289.62 108.746 289.62 M104.071 287.629 Q101.061 286.889 99.3715 284.828 Q97.7048 282.768 97.7048 279.805 Q97.7048 275.662 100.645 273.254 Q103.608 270.847 108.746 270.847 Q113.908 270.847 116.848 273.254 Q119.788 275.662 119.788 279.805 Q119.788 282.768 118.098 284.828 Q116.432 286.889 113.445 287.629 Q116.825 288.416 118.7 290.708 Q120.598 293 120.598 296.31 Q120.598 301.333 117.52 304.018 Q114.464 306.703 108.746 306.703 Q103.029 306.703 99.9502 304.018 Q96.8947 301.333 96.8947 296.31 Q96.8947 293 98.7928 290.708 Q100.691 288.416 104.071 287.629 M102.358 280.245 Q102.358 282.93 104.024 284.435 Q105.714 285.94 108.746 285.94 Q111.756 285.94 113.445 284.435 Q115.158 282.93 115.158 280.245 Q115.158 277.56 113.445 276.055 Q111.756 274.551 108.746 274.551 Q105.714 274.551 104.024 276.055 Q102.358 277.56 102.358 280.245 Z" fill="#000000" fill-rule="evenodd" fill-opacity="1" /><polyline clip-path="url(#clip772)" style="stroke:#009af9; stroke-linecap:butt; stroke-linejoin:round; stroke-width:4; stroke-opacity:1; fill:none" points="
  2022.88,91.6612 421.639,161.947 1645.44,602.989 1205.23,1434.42 1805.38,1379.52 251.954,1445.72 1381.94,630.068 218.754,1328.82 2290.6,87.9763 1576.99,641.577 
  
  "/>
<path clip-path="url(#clip770)" d="
M1987.12 198.898 L2279.55 198.898 L2279.55 95.2176 L1987.12 95.2176  Z
  " fill="#ffffff" fill-rule="evenodd" fill-opacity="1"/>
<polyline clip-path="url(#clip770)" style="stroke:#000000; stroke-linecap:butt; stroke-linejoin:round; stroke-width:4; stroke-opacity:1; fill:none" points="
  1987.12,198.898 2279.55,198.898 2279.55,95.2176 1987.12,95.2176 1987.12,198.898 
  "/>
<polyline clip-path="url(#clip770)" style="stroke:#009af9; stroke-linecap:butt; stroke-linejoin:round; stroke-width:4; stroke-opacity:1; fill:none" points="
  2011.12,147.058 2155.12,147.058 
  "/>
<path clip-path="url(#clip770)" d="M2192.96 166.745 Q2191.16 171.375 2189.44 172.787 Q2187.73 174.199 2184.86 174.199 L2181.46 174.199 L2181.46 170.634 L2183.96 170.634 Q2185.72 170.634 2186.69 169.8 Q2187.66 168.967 2188.84 165.865 L2189.61 163.921 L2179.12 138.412 L2183.63 138.412 L2191.74 158.689 L2199.84 138.412 L2204.35 138.412 L2192.96 166.745 Z" fill="#000000" fill-rule="evenodd" fill-opacity="1" /><path clip-path="url(#clip770)" d="M2211.64 160.402 L2219.28 160.402 L2219.28 134.037 L2210.97 135.703 L2210.97 131.444 L2219.24 129.778 L2223.91 129.778 L2223.91 160.402 L2231.55 160.402 L2231.55 164.338 L2211.64 164.338 L2211.64 160.402 Z" fill="#000000" fill-rule="evenodd" fill-opacity="1" /></svg>
