<?xml version="1.0" encoding="utf-8"?>
<svg xmlns="http://www.w3.org/2000/svg" xmlns:xlink="http://www.w3.org/1999/xlink" width="600" height="400" viewBox="0 0 2400 1600">
<defs>
  <clipPath id="clip320">
    <rect x="0" y="0" width="2400" height="1600"/>
  </clipPath>
</defs>
<path clip-path="url(#clip320)" d="
M0 1600 L2400 1600 L2400 0 L0 0  Z
  " fill="#ffffff" fill-rule="evenodd" fill-opacity="1"/>
<defs>
  <clipPath id="clip321">
    <rect x="480" y="0" width="1681" height="1600"/>
  </clipPath>
</defs>
<path clip-path="url(#clip320)" d="
M156.598 1486.45 L2352.76 1486.45 L2352.76 47.2441 L156.598 47.2441  Z
  " fill="#ffffff" fill-rule="evenodd" fill-opacity="1"/>
<defs>
  <clipPath id="clip322">
    <rect x="156" y="47" width="2197" height="1440"/>
  </clipPath>
</defs>
<polyline clip-path="url(#clip322)" style="stroke:#000000; stroke-linecap:butt; stroke-linejoin:round; stroke-width:2; stroke-opacity:0.1; fill:none" points="
  571.536,1486.45 571.536,47.2441 
  "/>
<polyline clip-path="url(#clip322)" style="stroke:#000000; stroke-linecap:butt; stroke-linejoin:round; stroke-width:2; stroke-opacity:0.1; fill:none" points="
  1070.98,1486.45 1070.98,47.2441 
  "/>
<polyline clip-path="url(#clip322)" style="stroke:#000000; stroke-linecap:butt; stroke-linejoin:round; stroke-width:2; stroke-opacity:0.1; fill:none" points="
  1570.43,1486.45 1570.43,47.2441 
  "/>
<polyline clip-path="url(#clip322)" style="stroke:#000000; stroke-linecap:butt; stroke-linejoin:round; stroke-width:2; stroke-opacity:0.1; fill:none" points="
  2069.88,1486.45 2069.88,47.2441 
  "/>
<polyline clip-path="url(#clip320)" style="stroke:#000000; stroke-linecap:butt; stroke-linejoin:round; stroke-width:4; stroke-opacity:1; fill:none" points="
  156.598,1486.45 2352.76,1486.45 
  "/>
<polyline clip-path="url(#clip320)" style="stroke:#000000; stroke-linecap:butt; stroke-linejoin:round; stroke-width:4; stroke-opacity:1; fill:none" points="
  571.536,1486.45 571.536,1467.55 
  "/>
<polyline clip-path="url(#clip320)" style="stroke:#000000; stroke-linecap:butt; stroke-linejoin:round; stroke-width:4; stroke-opacity:1; fill:none" points="
  1070.98,1486.45 1070.98,1467.55 
  "/>
<polyline clip-path="url(#clip320)" style="stroke:#000000; stroke-linecap:butt; stroke-linejoin:round; stroke-width:4; stroke-opacity:1; fill:none" points="
  1570.43,1486.45 1570.43,1467.55 
  "/>
<polyline clip-path="url(#clip320)" style="stroke:#000000; stroke-linecap:butt; stroke-linejoin:round; stroke-width:4; stroke-opacity:1; fill:none" points="
  2069.88,1486.45 2069.88,1467.55 
  "/>
<path clip-path="url(#clip320)" d="M549.719 1517.37 Q546.108 1517.37 544.279 1520.93 Q542.474 1524.47 542.474 1531.6 Q542.474 1538.71 544.279 1542.27 Q546.108 1545.82 549.719 1545.82 Q553.354 1545.82 555.159 1542.27 Q556.988 1538.71 556.988 1531.6 Q556.988 1524.47 555.159 1520.93 Q553.354 1517.37 549.719 1517.37 M549.719 1513.66 Q555.529 1513.66 558.585 1518.27 Q561.664 1522.85 561.664 1531.6 Q561.664 1540.33 558.585 1544.94 Q555.529 1549.52 549.719 1549.52 Q543.909 1549.52 540.83 1544.94 Q537.775 1540.33 537.775 1531.6 Q537.775 1522.85 540.83 1518.27 Q543.909 1513.66 549.719 1513.66 Z" fill="#000000" fill-rule="evenodd" fill-opacity="1" /><path clip-path="url(#clip320)" d="M569.881 1542.97 L574.765 1542.97 L574.765 1548.85 L569.881 1548.85 L569.881 1542.97 Z" fill="#000000" fill-rule="evenodd" fill-opacity="1" /><path clip-path="url(#clip320)" d="M588.978 1544.91 L605.298 1544.91 L605.298 1548.85 L583.353 1548.85 L583.353 1544.91 Q586.015 1542.16 590.599 1537.53 Q595.205 1532.88 596.386 1531.53 Q598.631 1529.01 599.511 1527.27 Q600.413 1525.51 600.413 1523.82 Q600.413 1521.07 598.469 1519.33 Q596.548 1517.6 593.446 1517.6 Q591.247 1517.6 588.793 1518.36 Q586.363 1519.13 583.585 1520.68 L583.585 1515.95 Q586.409 1514.82 588.863 1514.24 Q591.316 1513.66 593.353 1513.66 Q598.724 1513.66 601.918 1516.35 Q605.113 1519.03 605.113 1523.52 Q605.113 1525.65 604.302 1527.57 Q603.515 1529.47 601.409 1532.07 Q600.83 1532.74 597.728 1535.95 Q594.626 1539.15 588.978 1544.91 Z" fill="#000000" fill-rule="evenodd" fill-opacity="1" /><path clip-path="url(#clip320)" d="M1048.12 1517.37 Q1044.51 1517.37 1042.68 1520.93 Q1040.88 1524.47 1040.88 1531.6 Q1040.88 1538.71 1042.68 1542.27 Q1044.51 1545.82 1048.12 1545.82 Q1051.76 1545.82 1053.56 1542.27 Q1055.39 1538.71 1055.39 1531.6 Q1055.39 1524.47 1053.56 1520.93 Q1051.76 1517.37 1048.12 1517.37 M1048.12 1513.66 Q1053.93 1513.66 1056.99 1518.27 Q1060.07 1522.85 1060.07 1531.6 Q1060.07 1540.33 1056.99 1544.94 Q1053.93 1549.52 1048.12 1549.52 Q1042.31 1549.52 1039.24 1544.94 Q1036.18 1540.33 1036.18 1531.6 Q1036.18 1522.85 1039.24 1518.27 Q1042.31 1513.66 1048.12 1513.66 Z" fill="#000000" fill-rule="evenodd" fill-opacity="1" /><path clip-path="url(#clip320)" d="M1068.29 1542.97 L1073.17 1542.97 L1073.17 1548.85 L1068.29 1548.85 L1068.29 1542.97 Z" fill="#000000" fill-rule="evenodd" fill-opacity="1" /><path clip-path="url(#clip320)" d="M1096.2 1518.36 L1084.4 1536.81 L1096.2 1536.81 L1096.2 1518.36 M1094.98 1514.29 L1100.86 1514.29 L1100.86 1536.81 L1105.79 1536.81 L1105.79 1540.7 L1100.86 1540.7 L1100.86 1548.85 L1096.2 1548.85 L1096.2 1540.7 L1080.6 1540.7 L1080.6 1536.19 L1094.98 1514.29 Z" fill="#000000" fill-rule="evenodd" fill-opacity="1" /><path clip-path="url(#clip320)" d="M1547.73 1517.37 Q1544.12 1517.37 1542.29 1520.93 Q1540.49 1524.47 1540.49 1531.6 Q1540.49 1538.71 1542.29 1542.27 Q1544.12 1545.82 1547.73 1545.82 Q1551.37 1545.82 1553.17 1542.27 Q1555 1538.71 1555 1531.6 Q1555 1524.47 1553.17 1520.93 Q1551.37 1517.37 1547.73 1517.37 M1547.73 1513.66 Q1553.54 1513.66 1556.6 1518.27 Q1559.68 1522.85 1559.68 1531.6 Q1559.68 1540.33 1556.6 1544.94 Q1553.54 1549.52 1547.73 1549.52 Q1541.92 1549.52 1538.84 1544.94 Q1535.79 1540.33 1535.79 1531.6 Q1535.79 1522.85 1538.84 1518.27 Q1541.92 1513.66 1547.73 1513.66 Z" fill="#000000" fill-rule="evenodd" fill-opacity="1" /><path clip-path="url(#clip320)" d="M1567.9 1542.97 L1572.78 1542.97 L1572.78 1548.85 L1567.9 1548.85 L1567.9 1542.97 Z" fill="#000000" fill-rule="evenodd" fill-opacity="1" /><path clip-path="url(#clip320)" d="M1593.54 1529.7 Q1590.4 1529.7 1588.54 1531.86 Q1586.71 1534.01 1586.71 1537.76 Q1586.71 1541.49 1588.54 1543.66 Q1590.4 1545.82 1593.54 1545.82 Q1596.69 1545.82 1598.52 1543.66 Q1600.37 1541.49 1600.37 1537.76 Q1600.37 1534.01 1598.52 1531.86 Q1596.69 1529.7 1593.54 1529.7 M1602.83 1515.05 L1602.83 1519.31 Q1601.07 1518.48 1599.26 1518.04 Q1597.48 1517.6 1595.72 1517.6 Q1591.09 1517.6 1588.64 1520.72 Q1586.21 1523.85 1585.86 1530.17 Q1587.22 1528.15 1589.28 1527.09 Q1591.34 1526 1593.82 1526 Q1599.03 1526 1602.04 1529.17 Q1605.07 1532.32 1605.07 1537.76 Q1605.07 1543.08 1601.92 1546.3 Q1598.78 1549.52 1593.54 1549.52 Q1587.55 1549.52 1584.38 1544.94 Q1581.21 1540.33 1581.21 1531.6 Q1581.21 1523.41 1585.09 1518.55 Q1588.98 1513.66 1595.53 1513.66 Q1597.29 1513.66 1599.08 1514.01 Q1600.88 1514.36 1602.83 1515.05 Z" fill="#000000" fill-rule="evenodd" fill-opacity="1" /><path clip-path="url(#clip320)" d="M2047.31 1517.37 Q2043.7 1517.37 2041.87 1520.93 Q2040.06 1524.47 2040.06 1531.6 Q2040.06 1538.71 2041.87 1542.27 Q2043.7 1545.82 2047.31 1545.82 Q2050.94 1545.82 2052.75 1542.27 Q2054.58 1538.71 2054.58 1531.6 Q2054.58 1524.47 2052.75 1520.93 Q2050.94 1517.37 2047.31 1517.37 M2047.31 1513.66 Q2053.12 1513.66 2056.17 1518.27 Q2059.25 1522.85 2059.25 1531.6 Q2059.25 1540.33 2056.17 1544.94 Q2053.12 1549.52 2047.31 1549.52 Q2041.5 1549.52 2038.42 1544.94 Q2035.36 1540.33 2035.36 1531.6 Q2035.36 1522.85 2038.42 1518.27 Q2041.5 1513.66 2047.31 1513.66 Z" fill="#000000" fill-rule="evenodd" fill-opacity="1" /><path clip-path="url(#clip320)" d="M2067.47 1542.97 L2072.35 1542.97 L2072.35 1548.85 L2067.47 1548.85 L2067.47 1542.97 Z" fill="#000000" fill-rule="evenodd" fill-opacity="1" /><path clip-path="url(#clip320)" d="M2092.54 1532.44 Q2089.21 1532.44 2087.28 1534.22 Q2085.39 1536 2085.39 1539.13 Q2085.39 1542.25 2087.28 1544.03 Q2089.21 1545.82 2092.54 1545.82 Q2095.87 1545.82 2097.79 1544.03 Q2099.72 1542.23 2099.72 1539.13 Q2099.72 1536 2097.79 1534.22 Q2095.9 1532.44 2092.54 1532.44 M2087.86 1530.45 Q2084.85 1529.7 2083.16 1527.64 Q2081.5 1525.58 2081.5 1522.62 Q2081.5 1518.48 2084.44 1516.07 Q2087.4 1513.66 2092.54 1513.66 Q2097.7 1513.66 2100.64 1516.07 Q2103.58 1518.48 2103.58 1522.62 Q2103.58 1525.58 2101.89 1527.64 Q2100.22 1529.7 2097.24 1530.45 Q2100.62 1531.23 2102.49 1533.52 Q2104.39 1535.82 2104.39 1539.13 Q2104.39 1544.15 2101.31 1546.83 Q2098.26 1549.52 2092.54 1549.52 Q2086.82 1549.52 2083.74 1546.83 Q2080.69 1544.15 2080.69 1539.13 Q2080.69 1535.82 2082.59 1533.52 Q2084.48 1531.23 2087.86 1530.45 M2086.15 1523.06 Q2086.15 1525.75 2087.82 1527.25 Q2089.51 1528.76 2092.54 1528.76 Q2095.55 1528.76 2097.24 1527.25 Q2098.95 1525.75 2098.95 1523.06 Q2098.95 1520.38 2097.24 1518.87 Q2095.55 1517.37 2092.54 1517.37 Q2089.51 1517.37 2087.82 1518.87 Q2086.15 1520.38 2086.15 1523.06 Z" fill="#000000" fill-rule="evenodd" fill-opacity="1" /><polyline clip-path="url(#clip322)" style="stroke:#000000; stroke-linecap:butt; stroke-linejoin:round; stroke-width:2; stroke-opacity:0.1; fill:none" points="
  156.598,1192.31 2352.76,1192.31 
  "/>
<polyline clip-path="url(#clip322)" style="stroke:#000000; stroke-linecap:butt; stroke-linejoin:round; stroke-width:2; stroke-opacity:0.1; fill:none" points="
  156.598,880.779 2352.76,880.779 
  "/>
<polyline clip-path="url(#clip322)" style="stroke:#000000; stroke-linecap:butt; stroke-linejoin:round; stroke-width:2; stroke-opacity:0.1; fill:none" points="
  156.598,569.252 2352.76,569.252 
  "/>
<polyline clip-path="url(#clip322)" style="stroke:#000000; stroke-linecap:butt; stroke-linejoin:round; stroke-width:2; stroke-opacity:0.1; fill:none" points="
  156.598,257.724 2352.76,257.724 
  "/>
<polyline clip-path="url(#clip320)" style="stroke:#000000; stroke-linecap:butt; stroke-linejoin:round; stroke-width:4; stroke-opacity:1; fill:none" points="
  156.598,1486.45 156.598,47.2441 
  "/>
<polyline clip-path="url(#clip320)" style="stroke:#000000; stroke-linecap:butt; stroke-linejoin:round; stroke-width:4; stroke-opacity:1; fill:none" points="
  156.598,1192.31 175.496,1192.31 
  "/>
<polyline clip-path="url(#clip320)" style="stroke:#000000; stroke-linecap:butt; stroke-linejoin:round; stroke-width:4; stroke-opacity:1; fill:none" points="
  156.598,880.779 175.496,880.779 
  "/>
<polyline clip-path="url(#clip320)" style="stroke:#000000; stroke-linecap:butt; stroke-linejoin:round; stroke-width:4; stroke-opacity:1; fill:none" points="
  156.598,569.252 175.496,569.252 
  "/>
<polyline clip-path="url(#clip320)" style="stroke:#000000; stroke-linecap:butt; stroke-linejoin:round; stroke-width:4; stroke-opacity:1; fill:none" points="
  156.598,257.724 175.496,257.724 
  "/>
<path clip-path="url(#clip320)" d="M65.0198 1178.11 Q61.4087 1178.11 59.58 1181.67 Q57.7745 1185.21 57.7745 1192.34 Q57.7745 1199.45 59.58 1203.01 Q61.4087 1206.55 65.0198 1206.55 Q68.6541 1206.55 70.4596 1203.01 Q72.2883 1199.45 72.2883 1192.34 Q72.2883 1185.21 70.4596 1181.67 Q68.6541 1178.11 65.0198 1178.11 M65.0198 1174.4 Q70.83 1174.4 73.8855 1179.01 Q76.9642 1183.59 76.9642 1192.34 Q76.9642 1201.07 73.8855 1205.68 Q70.83 1210.26 65.0198 1210.26 Q59.2097 1210.26 56.131 1205.68 Q53.0754 1201.07 53.0754 1192.34 Q53.0754 1183.59 56.131 1179.01 Q59.2097 1174.4 65.0198 1174.4 Z" fill="#000000" fill-rule="evenodd" fill-opacity="1" /><path clip-path="url(#clip320)" d="M85.1818 1203.71 L90.066 1203.71 L90.066 1209.59 L85.1818 1209.59 L85.1818 1203.71 Z" fill="#000000" fill-rule="evenodd" fill-opacity="1" /><path clip-path="url(#clip320)" d="M104.279 1205.65 L120.598 1205.65 L120.598 1209.59 L98.6539 1209.59 L98.6539 1205.65 Q101.316 1202.9 105.899 1198.27 Q110.506 1193.61 111.686 1192.27 Q113.932 1189.75 114.811 1188.01 Q115.714 1186.25 115.714 1184.56 Q115.714 1181.81 113.77 1180.07 Q111.848 1178.34 108.746 1178.34 Q106.547 1178.34 104.094 1179.1 Q101.663 1179.86 98.8854 1181.42 L98.8854 1176.69 Q101.709 1175.56 104.163 1174.98 Q106.617 1174.4 108.654 1174.4 Q114.024 1174.4 117.219 1177.09 Q120.413 1179.77 120.413 1184.26 Q120.413 1186.39 119.603 1188.31 Q118.816 1190.21 116.709 1192.8 Q116.131 1193.48 113.029 1196.69 Q109.927 1199.89 104.279 1205.65 Z" fill="#000000" fill-rule="evenodd" fill-opacity="1" /><path clip-path="url(#clip320)" d="M62.9365 866.578 Q59.3254 866.578 57.4967 870.143 Q55.6912 873.684 55.6912 880.814 Q55.6912 887.921 57.4967 891.485 Q59.3254 895.027 62.9365 895.027 Q66.5707 895.027 68.3763 891.485 Q70.205 887.921 70.205 880.814 Q70.205 873.684 68.3763 870.143 Q66.5707 866.578 62.9365 866.578 M62.9365 862.874 Q68.7467 862.874 71.8022 867.481 Q74.8809 872.064 74.8809 880.814 Q74.8809 889.541 71.8022 894.147 Q68.7467 898.731 62.9365 898.731 Q57.1264 898.731 54.0477 894.147 Q50.9921 889.541 50.9921 880.814 Q50.9921 872.064 54.0477 867.481 Q57.1264 862.874 62.9365 862.874 Z" fill="#000000" fill-rule="evenodd" fill-opacity="1" /><path clip-path="url(#clip320)" d="M83.0984 892.18 L87.9827 892.18 L87.9827 898.059 L83.0984 898.059 L83.0984 892.18 Z" fill="#000000" fill-rule="evenodd" fill-opacity="1" /><path clip-path="url(#clip320)" d="M111.015 867.573 L99.2095 886.022 L111.015 886.022 L111.015 867.573 M109.788 863.499 L115.668 863.499 L115.668 886.022 L120.598 886.022 L120.598 889.911 L115.668 889.911 L115.668 898.059 L111.015 898.059 L111.015 889.911 L95.4132 889.911 L95.4132 885.397 L109.788 863.499 Z" fill="#000000" fill-rule="evenodd" fill-opacity="1" /><path clip-path="url(#clip320)" d="M63.2606 555.05 Q59.6495 555.05 57.8208 558.615 Q56.0152 562.157 56.0152 569.286 Q56.0152 576.393 57.8208 579.958 Q59.6495 583.499 63.2606 583.499 Q66.8948 583.499 68.7004 579.958 Q70.5291 576.393 70.5291 569.286 Q70.5291 562.157 68.7004 558.615 Q66.8948 555.05 63.2606 555.05 M63.2606 551.347 Q69.0707 551.347 72.1263 555.953 Q75.205 560.536 75.205 569.286 Q75.205 578.013 72.1263 582.62 Q69.0707 587.203 63.2606 587.203 Q57.4504 587.203 54.3717 582.62 Q51.3162 578.013 51.3162 569.286 Q51.3162 560.536 54.3717 555.953 Q57.4504 551.347 63.2606 551.347 Z" fill="#000000" fill-rule="evenodd" fill-opacity="1" /><path clip-path="url(#clip320)" d="M83.4225 580.652 L88.3067 580.652 L88.3067 586.532 L83.4225 586.532 L83.4225 580.652 Z" fill="#000000" fill-rule="evenodd" fill-opacity="1" /><path clip-path="url(#clip320)" d="M109.071 567.388 Q105.922 567.388 104.071 569.541 Q102.242 571.694 102.242 575.444 Q102.242 579.171 104.071 581.347 Q105.922 583.499 109.071 583.499 Q112.219 583.499 114.047 581.347 Q115.899 579.171 115.899 575.444 Q115.899 571.694 114.047 569.541 Q112.219 567.388 109.071 567.388 M118.353 552.736 L118.353 556.995 Q116.594 556.161 114.788 555.722 Q113.006 555.282 111.246 555.282 Q106.617 555.282 104.163 558.407 Q101.733 561.532 101.385 567.851 Q102.751 565.837 104.811 564.773 Q106.871 563.685 109.348 563.685 Q114.557 563.685 117.566 566.856 Q120.598 570.004 120.598 575.444 Q120.598 580.768 117.45 583.985 Q114.302 587.203 109.071 587.203 Q103.075 587.203 99.9039 582.62 Q96.7326 578.013 96.7326 569.286 Q96.7326 561.092 100.621 556.231 Q104.51 551.347 111.061 551.347 Q112.82 551.347 114.603 551.694 Q116.408 552.041 118.353 552.736 Z" fill="#000000" fill-rule="evenodd" fill-opacity="1" /><path clip-path="url(#clip320)" d="M63.5152 243.523 Q59.9041 243.523 58.0754 247.087 Q56.2699 250.629 56.2699 257.759 Q56.2699 264.865 58.0754 268.43 Q59.9041 271.972 63.5152 271.972 Q67.1494 271.972 68.955 268.43 Q70.7837 264.865 70.7837 257.759 Q70.7837 250.629 68.955 247.087 Q67.1494 243.523 63.5152 243.523 M63.5152 239.819 Q69.3254 239.819 72.3809 244.425 Q75.4596 249.009 75.4596 257.759 Q75.4596 266.486 72.3809 271.092 Q69.3254 275.675 63.5152 275.675 Q57.7051 275.675 54.6264 271.092 Q51.5708 266.486 51.5708 257.759 Q51.5708 249.009 54.6264 244.425 Q57.7051 239.819 63.5152 239.819 Z" fill="#000000" fill-rule="evenodd" fill-opacity="1" /><path clip-path="url(#clip320)" d="M83.6771 269.124 L88.5614 269.124 L88.5614 275.004 L83.6771 275.004 L83.6771 269.124 Z" fill="#000000" fill-rule="evenodd" fill-opacity="1" /><path clip-path="url(#clip320)" d="M108.746 258.592 Q105.413 258.592 103.492 260.374 Q101.594 262.157 101.594 265.282 Q101.594 268.407 103.492 270.189 Q105.413 271.972 108.746 271.972 Q112.08 271.972 114.001 270.189 Q115.922 268.384 115.922 265.282 Q115.922 262.157 114.001 260.374 Q112.103 258.592 108.746 258.592 M104.071 256.601 Q101.061 255.861 99.3715 253.8 Q97.7048 251.74 97.7048 248.777 Q97.7048 244.634 100.645 242.226 Q103.608 239.819 108.746 239.819 Q113.908 239.819 116.848 242.226 Q119.788 244.634 119.788 248.777 Q119.788 251.74 118.098 253.8 Q116.432 255.861 113.445 256.601 Q116.825 257.388 118.7 259.68 Q120.598 261.972 120.598 265.282 Q120.598 270.305 117.52 272.99 Q114.464 275.675 108.746 275.675 Q103.029 275.675 99.9502 272.99 Q96.8947 270.305 96.8947 265.282 Q96.8947 261.972 98.7928 259.68 Q100.691 257.388 104.071 256.601 M102.358 249.217 Q102.358 251.902 104.024 253.407 Q105.714 254.912 108.746 254.912 Q111.756 254.912 113.445 253.407 Q115.158 251.902 115.158 249.217 Q115.158 246.532 113.445 245.027 Q111.756 243.523 108.746 243.523 Q105.714 243.523 104.024 245.027 Q102.358 246.532 102.358 249.217 Z" fill="#000000" fill-rule="evenodd" fill-opacity="1" /><polyline clip-path="url(#clip322)" style="stroke:#009af9; stroke-linecap:butt; stroke-linejoin:round; stroke-width:4; stroke-opacity:1; fill:none" points="
  218.754,647.411 2259.28,1229.83 2290.6,889.584 1547.62,1194.02 372.429,87.9763 1158.47,867.797 2010.26,1445.72 1463.49,1404.26 1956.84,707.418 975.517,1035.95 
  
  "/>
<path clip-path="url(#clip320)" d="
M1987.12 198.898 L2279.55 198.898 L2279.55 95.2176 L1987.12 95.2176  Z
  " fill="#ffffff" fill-rule="evenodd" fill-opacity="1"/>
<polyline clip-path="url(#clip320)" style="stroke:#000000; stroke-linecap:butt; stroke-linejoin:round; stroke-width:4; stroke-opacity:1; fill:none" points="
  1987.12,198.898 2279.55,198.898 2279.55,95.2176 1987.12,95.2176 1987.12,198.898 
  "/>
<polyline clip-path="url(#clip320)" style="stroke:#009af9; stroke-linecap:butt; stroke-linejoin:round; stroke-width:4; stroke-opacity:1; fill:none" points="
  2011.12,147.058 2155.12,147.058 
  "/>
<path clip-path="url(#clip320)" d="M2192.96 166.745 Q2191.16 171.375 2189.44 172.787 Q2187.73 174.199 2184.86 174.199 L2181.46 174.199 L2181.46 170.634 L2183.96 170.634 Q2185.72 170.634 2186.69 169.8 Q2187.66 168.967 2188.84 165.865 L2189.61 163.921 L2179.12 138.412 L2183.63 138.412 L2191.74 158.689 L2199.84 138.412 L2204.35 138.412 L2192.96 166.745 Z" fill="#000000" fill-rule="evenodd" fill-opacity="1" /><path clip-path="url(#clip320)" d="M2211.64 160.402 L2219.28 160.402 L2219.28 134.037 L2210.97 135.703 L2210.97 131.444 L2219.24 129.778 L2223.91 129.778 L2223.91 160.402 L2231.55 160.402 L2231.55 164.338 L2211.64 164.338 L2211.64 160.402 Z" fill="#000000" fill-rule="evenodd" fill-opacity="1" /></svg>
