<?xml version="1.0" encoding="utf-8"?>
<svg xmlns="http://www.w3.org/2000/svg" xmlns:xlink="http://www.w3.org/1999/xlink" width="600" height="400" viewBox="0 0 2400 1600">
<defs>
  <clipPath id="clip590">
    <rect x="0" y="0" width="2400" height="1600"/>
  </clipPath>
</defs>
<path clip-path="url(#clip590)" d="
M0 1600 L2400 1600 L2400 0 L0 0  Z
  " fill="#ffffff" fill-rule="evenodd" fill-opacity="1"/>
<defs>
  <clipPath id="clip591">
    <rect x="480" y="0" width="1681" height="1600"/>
  </clipPath>
</defs>
<path clip-path="url(#clip590)" d="
M156.598 1486.45 L2352.76 1486.45 L2352.76 47.2441 L156.598 47.2441  Z
  " fill="#ffffff" fill-rule="evenodd" fill-opacity="1"/>
<defs>
  <clipPath id="clip592">
    <rect x="156" y="47" width="2197" height="1440"/>
  </clipPath>
</defs>
<polyline clip-path="url(#clip592)" style="stroke:#000000; stroke-linecap:butt; stroke-linejoin:round; stroke-width:2; stroke-opacity:0.1; fill:none" points="
  473.646,1486.45 473.646,47.2441 
  "/>
<polyline clip-path="url(#clip592)" style="stroke:#000000; stroke-linecap:butt; stroke-linejoin:round; stroke-width:2; stroke-opacity:0.1; fill:none" points="
  969.084,1486.45 969.084,47.2441 
  "/>
<polyline clip-path="url(#clip592)" style="stroke:#000000; stroke-linecap:butt; stroke-linejoin:round; stroke-width:2; stroke-opacity:0.1; fill:none" points="
  1464.52,1486.45 1464.52,47.2441 
  "/>
<polyline clip-path="url(#clip592)" style="stroke:#000000; stroke-linecap:butt; stroke-linejoin:round; stroke-width:2; stroke-opacity:0.1; fill:none" points="
  1959.96,1486.45 1959.96,47.2441 
  "/>
<polyline clip-path="url(#clip590)" style="stroke:#000000; stroke-linecap:butt; stroke-linejoin:round; stroke-width:4; stroke-opacity:1; fill:none" points="
  156.598,1486.45 2352.76,1486.45 
  "/>
<polyline clip-path="url(#clip590)" style="stroke:#000000; stroke-linecap:butt; stroke-linejoin:round; stroke-width:4; stroke-opacity:1; fill:none" points="
  473.646,1486.45 473.646,1467.55 
  "/>
<polyline clip-path="url(#clip590)" style="stroke:#000000; stroke-linecap:butt; stroke-linejoin:round; stroke-width:4; stroke-opacity:1; fill:none" points="
  969.084,1486.45 969.084,1467.55 
  "/>
<polyline clip-path="url(#clip590)" style="stroke:#000000; stroke-linecap:butt; stroke-linejoin:round; stroke-width:4; stroke-opacity:1; fill:none" points="
  1464.52,1486.45 1464.52,1467.55 
  "/>
<polyline clip-path="url(#clip590)" style="stroke:#000000; stroke-linecap:butt; stroke-linejoin:round; stroke-width:4; stroke-opacity:1; fill:none" points="
  1959.96,1486.45 1959.96,1467.55 
  "/>
<path clip-path="url(#clip590)" d="M451.829 1517.37 Q448.218 1517.37 446.389 1520.93 Q444.584 1524.47 444.584 1531.6 Q444.584 1538.71 446.389 1542.27 Q448.218 1545.82 451.829 1545.82 Q455.463 1545.82 457.269 1542.27 Q459.098 1538.71 459.098 1531.6 Q459.098 1524.47 457.269 1520.93 Q455.463 1517.37 451.829 1517.37 M451.829 1513.66 Q457.639 1513.66 460.695 1518.27 Q463.773 1522.85 463.773 1531.6 Q463.773 1540.33 460.695 1544.94 Q457.639 1549.52 451.829 1549.52 Q446.019 1549.52 442.94 1544.94 Q439.885 1540.33 439.885 1531.6 Q439.885 1522.85 442.94 1518.27 Q446.019 1513.66 451.829 1513.66 Z" fill="#000000" fill-rule="evenodd" fill-opacity="1" /><path clip-path="url(#clip590)" d="M471.991 1542.97 L476.875 1542.97 L476.875 1548.85 L471.991 1548.85 L471.991 1542.97 Z" fill="#000000" fill-rule="evenodd" fill-opacity="1" /><path clip-path="url(#clip590)" d="M491.088 1544.91 L507.408 1544.91 L507.408 1548.85 L485.463 1548.85 L485.463 1544.91 Q488.125 1542.16 492.709 1537.53 Q497.315 1532.88 498.496 1531.53 Q500.741 1529.01 501.621 1527.27 Q502.523 1525.51 502.523 1523.82 Q502.523 1521.07 500.579 1519.33 Q498.658 1517.6 495.556 1517.6 Q493.357 1517.6 490.903 1518.36 Q488.472 1519.13 485.695 1520.68 L485.695 1515.95 Q488.519 1514.82 490.972 1514.24 Q493.426 1513.66 495.463 1513.66 Q500.833 1513.66 504.028 1516.35 Q507.222 1519.03 507.222 1523.52 Q507.222 1525.65 506.412 1527.57 Q505.625 1529.47 503.519 1532.07 Q502.94 1532.74 499.838 1535.95 Q496.736 1539.15 491.088 1544.91 Z" fill="#000000" fill-rule="evenodd" fill-opacity="1" /><path clip-path="url(#clip590)" d="M946.225 1517.37 Q942.614 1517.37 940.785 1520.93 Q938.98 1524.47 938.98 1531.6 Q938.98 1538.71 940.785 1542.27 Q942.614 1545.82 946.225 1545.82 Q949.859 1545.82 951.665 1542.27 Q953.494 1538.71 953.494 1531.6 Q953.494 1524.47 951.665 1520.93 Q949.859 1517.37 946.225 1517.37 M946.225 1513.66 Q952.035 1513.66 955.091 1518.27 Q958.17 1522.85 958.17 1531.6 Q958.17 1540.33 955.091 1544.94 Q952.035 1549.52 946.225 1549.52 Q940.415 1549.52 937.336 1544.94 Q934.281 1540.33 934.281 1531.6 Q934.281 1522.85 937.336 1518.27 Q940.415 1513.66 946.225 1513.66 Z" fill="#000000" fill-rule="evenodd" fill-opacity="1" /><path clip-path="url(#clip590)" d="M966.387 1542.97 L971.271 1542.97 L971.271 1548.85 L966.387 1548.85 L966.387 1542.97 Z" fill="#000000" fill-rule="evenodd" fill-opacity="1" /><path clip-path="url(#clip590)" d="M994.304 1518.36 L982.498 1536.81 L994.304 1536.81 L994.304 1518.36 M993.077 1514.29 L998.956 1514.29 L998.956 1536.81 L1003.89 1536.81 L1003.89 1540.7 L998.956 1540.7 L998.956 1548.85 L994.304 1548.85 L994.304 1540.7 L978.702 1540.7 L978.702 1536.19 L993.077 1514.29 Z" fill="#000000" fill-rule="evenodd" fill-opacity="1" /><path clip-path="url(#clip590)" d="M1441.82 1517.37 Q1438.21 1517.37 1436.39 1520.93 Q1434.58 1524.47 1434.58 1531.6 Q1434.58 1538.71 1436.39 1542.27 Q1438.21 1545.82 1441.82 1545.82 Q1445.46 1545.82 1447.26 1542.27 Q1449.09 1538.71 1449.09 1531.6 Q1449.09 1524.47 1447.26 1520.93 Q1445.46 1517.37 1441.82 1517.37 M1441.82 1513.66 Q1447.64 1513.66 1450.69 1518.27 Q1453.77 1522.85 1453.77 1531.6 Q1453.77 1540.33 1450.69 1544.94 Q1447.64 1549.52 1441.82 1549.52 Q1436.01 1549.52 1432.94 1544.94 Q1429.88 1540.33 1429.88 1531.6 Q1429.88 1522.85 1432.94 1518.27 Q1436.01 1513.66 1441.82 1513.66 Z" fill="#000000" fill-rule="evenodd" fill-opacity="1" /><path clip-path="url(#clip590)" d="M1461.99 1542.97 L1466.87 1542.97 L1466.87 1548.85 L1461.99 1548.85 L1461.99 1542.97 Z" fill="#000000" fill-rule="evenodd" fill-opacity="1" /><path clip-path="url(#clip590)" d="M1487.63 1529.7 Q1484.49 1529.7 1482.63 1531.86 Q1480.81 1534.01 1480.81 1537.76 Q1480.81 1541.49 1482.63 1543.66 Q1484.49 1545.82 1487.63 1545.82 Q1490.78 1545.82 1492.61 1543.66 Q1494.46 1541.49 1494.46 1537.76 Q1494.46 1534.01 1492.61 1531.86 Q1490.78 1529.7 1487.63 1529.7 M1496.92 1515.05 L1496.92 1519.31 Q1495.16 1518.48 1493.35 1518.04 Q1491.57 1517.6 1489.81 1517.6 Q1485.18 1517.6 1482.73 1520.72 Q1480.3 1523.85 1479.95 1530.17 Q1481.32 1528.15 1483.38 1527.09 Q1485.44 1526 1487.91 1526 Q1493.12 1526 1496.13 1529.17 Q1499.16 1532.32 1499.16 1537.76 Q1499.16 1543.08 1496.01 1546.3 Q1492.87 1549.52 1487.63 1549.52 Q1481.64 1549.52 1478.47 1544.94 Q1475.3 1540.33 1475.3 1531.6 Q1475.3 1523.41 1479.19 1518.55 Q1483.07 1513.66 1489.63 1513.66 Q1491.38 1513.66 1493.17 1514.01 Q1494.97 1514.36 1496.92 1515.05 Z" fill="#000000" fill-rule="evenodd" fill-opacity="1" /><path clip-path="url(#clip590)" d="M1937.39 1517.37 Q1933.78 1517.37 1931.95 1520.93 Q1930.14 1524.47 1930.14 1531.6 Q1930.14 1538.71 1931.95 1542.27 Q1933.78 1545.82 1937.39 1545.82 Q1941.02 1545.82 1942.83 1542.27 Q1944.66 1538.71 1944.66 1531.6 Q1944.66 1524.47 1942.83 1520.93 Q1941.02 1517.37 1937.39 1517.37 M1937.39 1513.66 Q1943.2 1513.66 1946.26 1518.27 Q1949.33 1522.85 1949.33 1531.6 Q1949.33 1540.33 1946.26 1544.94 Q1943.2 1549.52 1937.39 1549.52 Q1931.58 1549.52 1928.5 1544.94 Q1925.45 1540.33 1925.45 1531.6 Q1925.45 1522.85 1928.5 1518.27 Q1931.58 1513.66 1937.39 1513.66 Z" fill="#000000" fill-rule="evenodd" fill-opacity="1" /><path clip-path="url(#clip590)" d="M1957.55 1542.97 L1962.44 1542.97 L1962.44 1548.85 L1957.55 1548.85 L1957.55 1542.97 Z" fill="#000000" fill-rule="evenodd" fill-opacity="1" /><path clip-path="url(#clip590)" d="M1982.62 1532.44 Q1979.29 1532.44 1977.37 1534.22 Q1975.47 1536 1975.47 1539.13 Q1975.47 1542.25 1977.37 1544.03 Q1979.29 1545.82 1982.62 1545.82 Q1985.95 1545.82 1987.88 1544.03 Q1989.8 1542.23 1989.8 1539.13 Q1989.8 1536 1987.88 1534.22 Q1985.98 1532.44 1982.62 1532.44 M1977.95 1530.45 Q1974.94 1529.7 1973.25 1527.64 Q1971.58 1525.58 1971.58 1522.62 Q1971.58 1518.48 1974.52 1516.07 Q1977.48 1513.66 1982.62 1513.66 Q1987.78 1513.66 1990.72 1516.07 Q1993.66 1518.48 1993.66 1522.62 Q1993.66 1525.58 1991.97 1527.64 Q1990.31 1529.7 1987.32 1530.45 Q1990.7 1531.23 1992.57 1533.52 Q1994.47 1535.82 1994.47 1539.13 Q1994.47 1544.15 1991.39 1546.83 Q1988.34 1549.52 1982.62 1549.52 Q1976.9 1549.52 1973.83 1546.83 Q1970.77 1544.15 1970.77 1539.13 Q1970.77 1535.82 1972.67 1533.52 Q1974.57 1531.23 1977.95 1530.45 M1976.23 1523.06 Q1976.23 1525.75 1977.9 1527.25 Q1979.59 1528.76 1982.62 1528.76 Q1985.63 1528.76 1987.32 1527.25 Q1989.03 1525.75 1989.03 1523.06 Q1989.03 1520.38 1987.32 1518.87 Q1985.63 1517.37 1982.62 1517.37 Q1979.59 1517.37 1977.9 1518.87 Q1976.23 1520.38 1976.23 1523.06 Z" fill="#000000" fill-rule="evenodd" fill-opacity="1" /><polyline clip-path="url(#clip592)" style="stroke:#000000; stroke-linecap:butt; stroke-linejoin:round; stroke-width:2; stroke-opacity:0.1; fill:none" points="
  156.598,1209.24 2352.76,1209.24 
  "/>
<polyline clip-path="url(#clip592)" style="stroke:#000000; stroke-linecap:butt; stroke-linejoin:round; stroke-width:2; stroke-opacity:0.1; fill:none" points="
  156.598,907.283 2352.76,907.283 
  "/>
<polyline clip-path="url(#clip592)" style="stroke:#000000; stroke-linecap:butt; stroke-linejoin:round; stroke-width:2; stroke-opacity:0.1; fill:none" points="
  156.598,605.324 2352.76,605.324 
  "/>
<polyline clip-path="url(#clip592)" style="stroke:#000000; stroke-linecap:butt; stroke-linejoin:round; stroke-width:2; stroke-opacity:0.1; fill:none" points="
  156.598,303.364 2352.76,303.364 
  "/>
<polyline clip-path="url(#clip590)" style="stroke:#000000; stroke-linecap:butt; stroke-linejoin:round; stroke-width:4; stroke-opacity:1; fill:none" points="
  156.598,1486.45 156.598,47.2441 
  "/>
<polyline clip-path="url(#clip590)" style="stroke:#000000; stroke-linecap:butt; stroke-linejoin:round; stroke-width:4; stroke-opacity:1; fill:none" points="
  156.598,1209.24 175.496,1209.24 
  "/>
<polyline clip-path="url(#clip590)" style="stroke:#000000; stroke-linecap:butt; stroke-linejoin:round; stroke-width:4; stroke-opacity:1; fill:none" points="
  156.598,907.283 175.496,907.283 
  "/>
<polyline clip-path="url(#clip590)" style="stroke:#000000; stroke-linecap:butt; stroke-linejoin:round; stroke-width:4; stroke-opacity:1; fill:none" points="
  156.598,605.324 175.496,605.324 
  "/>
<polyline clip-path="url(#clip590)" style="stroke:#000000; stroke-linecap:butt; stroke-linejoin:round; stroke-width:4; stroke-opacity:1; fill:none" points="
  156.598,303.364 175.496,303.364 
  "/>
<path clip-path="url(#clip590)" d="M65.0198 1195.04 Q61.4087 1195.04 59.58 1198.61 Q57.7745 1202.15 57.7745 1209.28 Q57.7745 1216.38 59.58 1219.95 Q61.4087 1223.49 65.0198 1223.49 Q68.6541 1223.49 70.4596 1219.95 Q72.2883 1216.38 72.2883 1209.28 Q72.2883 1202.15 70.4596 1198.61 Q68.6541 1195.04 65.0198 1195.04 M65.0198 1191.34 Q70.83 1191.34 73.8855 1195.94 Q76.9642 1200.53 76.9642 1209.28 Q76.9642 1218 73.8855 1222.61 Q70.83 1227.19 65.0198 1227.19 Q59.2097 1227.19 56.131 1222.61 Q53.0754 1218 53.0754 1209.28 Q53.0754 1200.53 56.131 1195.94 Q59.2097 1191.34 65.0198 1191.34 Z" fill="#000000" fill-rule="evenodd" fill-opacity="1" /><path clip-path="url(#clip590)" d="M85.1818 1220.64 L90.066 1220.64 L90.066 1226.52 L85.1818 1226.52 L85.1818 1220.64 Z" fill="#000000" fill-rule="evenodd" fill-opacity="1" /><path clip-path="url(#clip590)" d="M104.279 1222.59 L120.598 1222.59 L120.598 1226.52 L98.6539 1226.52 L98.6539 1222.59 Q101.316 1219.83 105.899 1215.2 Q110.506 1210.55 111.686 1209.21 Q113.932 1206.69 114.811 1204.95 Q115.714 1203.19 115.714 1201.5 Q115.714 1198.75 113.77 1197.01 Q111.848 1195.27 108.746 1195.27 Q106.547 1195.27 104.094 1196.04 Q101.663 1196.8 98.8854 1198.35 L98.8854 1193.63 Q101.709 1192.5 104.163 1191.92 Q106.617 1191.34 108.654 1191.34 Q114.024 1191.34 117.219 1194.02 Q120.413 1196.71 120.413 1201.2 Q120.413 1203.33 119.603 1205.25 Q118.816 1207.15 116.709 1209.74 Q116.131 1210.41 113.029 1213.63 Q109.927 1216.82 104.279 1222.59 Z" fill="#000000" fill-rule="evenodd" fill-opacity="1" /><path clip-path="url(#clip590)" d="M62.9365 893.082 Q59.3254 893.082 57.4967 896.647 Q55.6912 900.189 55.6912 907.318 Q55.6912 914.425 57.4967 917.989 Q59.3254 921.531 62.9365 921.531 Q66.5707 921.531 68.3763 917.989 Q70.205 914.425 70.205 907.318 Q70.205 900.189 68.3763 896.647 Q66.5707 893.082 62.9365 893.082 M62.9365 889.378 Q68.7467 889.378 71.8022 893.985 Q74.8809 898.568 74.8809 907.318 Q74.8809 916.045 71.8022 920.651 Q68.7467 925.235 62.9365 925.235 Q57.1264 925.235 54.0477 920.651 Q50.9921 916.045 50.9921 907.318 Q50.9921 898.568 54.0477 893.985 Q57.1264 889.378 62.9365 889.378 Z" fill="#000000" fill-rule="evenodd" fill-opacity="1" /><path clip-path="url(#clip590)" d="M83.0984 918.684 L87.9827 918.684 L87.9827 924.563 L83.0984 924.563 L83.0984 918.684 Z" fill="#000000" fill-rule="evenodd" fill-opacity="1" /><path clip-path="url(#clip590)" d="M111.015 894.077 L99.2095 912.526 L111.015 912.526 L111.015 894.077 M109.788 890.003 L115.668 890.003 L115.668 912.526 L120.598 912.526 L120.598 916.415 L115.668 916.415 L115.668 924.563 L111.015 924.563 L111.015 916.415 L95.4132 916.415 L95.4132 911.901 L109.788 890.003 Z" fill="#000000" fill-rule="evenodd" fill-opacity="1" /><path clip-path="url(#clip590)" d="M63.2606 591.123 Q59.6495 591.123 57.8208 594.687 Q56.0152 598.229 56.0152 605.359 Q56.0152 612.465 57.8208 616.03 Q59.6495 619.571 63.2606 619.571 Q66.8948 619.571 68.7004 616.03 Q70.5291 612.465 70.5291 605.359 Q70.5291 598.229 68.7004 594.687 Q66.8948 591.123 63.2606 591.123 M63.2606 587.419 Q69.0707 587.419 72.1263 592.025 Q75.205 596.609 75.205 605.359 Q75.205 614.085 72.1263 618.692 Q69.0707 623.275 63.2606 623.275 Q57.4504 623.275 54.3717 618.692 Q51.3162 614.085 51.3162 605.359 Q51.3162 596.609 54.3717 592.025 Q57.4504 587.419 63.2606 587.419 Z" fill="#000000" fill-rule="evenodd" fill-opacity="1" /><path clip-path="url(#clip590)" d="M83.4225 616.724 L88.3067 616.724 L88.3067 622.604 L83.4225 622.604 L83.4225 616.724 Z" fill="#000000" fill-rule="evenodd" fill-opacity="1" /><path clip-path="url(#clip590)" d="M109.071 603.46 Q105.922 603.46 104.071 605.613 Q102.242 607.766 102.242 611.516 Q102.242 615.243 104.071 617.419 Q105.922 619.571 109.071 619.571 Q112.219 619.571 114.047 617.419 Q115.899 615.243 115.899 611.516 Q115.899 607.766 114.047 605.613 Q112.219 603.46 109.071 603.46 M118.353 588.808 L118.353 593.067 Q116.594 592.234 114.788 591.794 Q113.006 591.354 111.246 591.354 Q106.617 591.354 104.163 594.479 Q101.733 597.604 101.385 603.923 Q102.751 601.91 104.811 600.845 Q106.871 599.757 109.348 599.757 Q114.557 599.757 117.566 602.928 Q120.598 606.076 120.598 611.516 Q120.598 616.84 117.45 620.058 Q114.302 623.275 109.071 623.275 Q103.075 623.275 99.9039 618.692 Q96.7326 614.085 96.7326 605.359 Q96.7326 597.164 100.621 592.303 Q104.51 587.419 111.061 587.419 Q112.82 587.419 114.603 587.766 Q116.408 588.113 118.353 588.808 Z" fill="#000000" fill-rule="evenodd" fill-opacity="1" /><path clip-path="url(#clip590)" d="M63.5152 289.163 Q59.9041 289.163 58.0754 292.728 Q56.2699 296.269 56.2699 303.399 Q56.2699 310.506 58.0754 314.07 Q59.9041 317.612 63.5152 317.612 Q67.1494 317.612 68.955 314.07 Q70.7837 310.506 70.7837 303.399 Q70.7837 296.269 68.955 292.728 Q67.1494 289.163 63.5152 289.163 M63.5152 285.459 Q69.3254 285.459 72.3809 290.066 Q75.4596 294.649 75.4596 303.399 Q75.4596 312.126 72.3809 316.732 Q69.3254 321.316 63.5152 321.316 Q57.7051 321.316 54.6264 316.732 Q51.5708 312.126 51.5708 303.399 Q51.5708 294.649 54.6264 290.066 Q57.7051 285.459 63.5152 285.459 Z" fill="#000000" fill-rule="evenodd" fill-opacity="1" /><path clip-path="url(#clip590)" d="M83.6771 314.765 L88.5614 314.765 L88.5614 320.644 L83.6771 320.644 L83.6771 314.765 Z" fill="#000000" fill-rule="evenodd" fill-opacity="1" /><path clip-path="url(#clip590)" d="M108.746 304.232 Q105.413 304.232 103.492 306.015 Q101.594 307.797 101.594 310.922 Q101.594 314.047 103.492 315.83 Q105.413 317.612 108.746 317.612 Q112.08 317.612 114.001 315.83 Q115.922 314.024 115.922 310.922 Q115.922 307.797 114.001 306.015 Q112.103 304.232 108.746 304.232 M104.071 302.242 Q101.061 301.501 99.3715 299.441 Q97.7048 297.381 97.7048 294.418 Q97.7048 290.274 100.645 287.867 Q103.608 285.459 108.746 285.459 Q113.908 285.459 116.848 287.867 Q119.788 290.274 119.788 294.418 Q119.788 297.381 118.098 299.441 Q116.432 301.501 113.445 302.242 Q116.825 303.029 118.7 305.32 Q120.598 307.612 120.598 310.922 Q120.598 315.945 117.52 318.63 Q114.464 321.316 108.746 321.316 Q103.029 321.316 99.9502 318.63 Q96.8947 315.945 96.8947 310.922 Q96.8947 307.612 98.7928 305.32 Q100.691 303.029 104.071 302.242 M102.358 294.857 Q102.358 297.543 104.024 299.047 Q105.714 300.552 108.746 300.552 Q111.756 300.552 113.445 299.047 Q115.158 297.543 115.158 294.857 Q115.158 292.172 113.445 290.668 Q111.756 289.163 108.746 289.163 Q105.714 289.163 104.024 290.668 Q102.358 292.172 102.358 294.857 Z" fill="#000000" fill-rule="evenodd" fill-opacity="1" /><polyline clip-path="url(#clip592)" style="stroke:#009af9; stroke-linecap:butt; stroke-linejoin:round; stroke-width:4; stroke-opacity:1; fill:none" points="
  1364.86,935.513 218.754,544.184 2290.6,931.86 1170.69,411.409 1620.93,510.026 1229.66,1445.72 854.516,1227.68 950.31,87.9763 1909.29,1275.43 907.208,499.955 
  
  "/>
<path clip-path="url(#clip590)" d="
M1987.12 198.898 L2279.55 198.898 L2279.55 95.2176 L1987.12 95.2176  Z
  " fill="#ffffff" fill-rule="evenodd" fill-opacity="1"/>
<polyline clip-path="url(#clip590)" style="stroke:#000000; stroke-linecap:butt; stroke-linejoin:round; stroke-width:4; stroke-opacity:1; fill:none" points="
  1987.12,198.898 2279.55,198.898 2279.55,95.2176 1987.12,95.2176 1987.12,198.898 
  "/>
<polyline clip-path="url(#clip590)" style="stroke:#009af9; stroke-linecap:butt; stroke-linejoin:round; stroke-width:4; stroke-opacity:1; fill:none" points="
  2011.12,147.058 2155.12,147.058 
  "/>
<path clip-path="url(#clip590)" d="M2192.96 166.745 Q2191.16 171.375 2189.44 172.787 Q2187.73 174.199 2184.86 174.199 L2181.46 174.199 L2181.46 170.634 L2183.96 170.634 Q2185.72 170.634 2186.69 169.8 Q2187.66 168.967 2188.84 165.865 L2189.61 163.921 L2179.12 138.412 L2183.63 138.412 L2191.74 158.689 L2199.84 138.412 L2204.35 138.412 L2192.96 166.745 Z" fill="#000000" fill-rule="evenodd" fill-opacity="1" /><path clip-path="url(#clip590)" d="M2211.64 160.402 L2219.28 160.402 L2219.28 134.037 L2210.97 135.703 L2210.97 131.444 L2219.24 129.778 L2223.91 129.778 L2223.91 160.402 L2231.55 160.402 L2231.55 164.338 L2211.64 164.338 L2211.64 160.402 Z" fill="#000000" fill-rule="evenodd" fill-opacity="1" /></svg>
