<?xml version="1.0" encoding="utf-8"?>
<svg xmlns="http://www.w3.org/2000/svg" xmlns:xlink="http://www.w3.org/1999/xlink" width="600" height="400" viewBox="0 0 2400 1600">
<defs>
  <clipPath id="clip740">
    <rect x="0" y="0" width="2400" height="1600"/>
  </clipPath>
</defs>
<path clip-path="url(#clip740)" d="
M0 1600 L2400 1600 L2400 0 L0 0  Z
  " fill="#ffffff" fill-rule="evenodd" fill-opacity="1"/>
<defs>
  <clipPath id="clip741">
    <rect x="480" y="0" width="1681" height="1600"/>
  </clipPath>
</defs>
<path clip-path="url(#clip740)" d="
M156.598 1486.45 L2352.76 1486.45 L2352.76 47.2441 L156.598 47.2441  Z
  " fill="#ffffff" fill-rule="evenodd" fill-opacity="1"/>
<defs>
  <clipPath id="clip742">
    <rect x="156" y="47" width="2197" height="1440"/>
  </clipPath>
</defs>
<polyline clip-path="url(#clip742)" style="stroke:#000000; stroke-linecap:butt; stroke-linejoin:round; stroke-width:2; stroke-opacity:0.1; fill:none" points="
  226.225,1486.45 226.225,47.2441 
  "/>
<polyline clip-path="url(#clip742)" style="stroke:#000000; stroke-linecap:butt; stroke-linejoin:round; stroke-width:2; stroke-opacity:0.1; fill:none" points="
  746.595,1486.45 746.595,47.2441 
  "/>
<polyline clip-path="url(#clip742)" style="stroke:#000000; stroke-linecap:butt; stroke-linejoin:round; stroke-width:2; stroke-opacity:0.1; fill:none" points="
  1266.96,1486.45 1266.96,47.2441 
  "/>
<polyline clip-path="url(#clip742)" style="stroke:#000000; stroke-linecap:butt; stroke-linejoin:round; stroke-width:2; stroke-opacity:0.1; fill:none" points="
  1787.33,1486.45 1787.33,47.2441 
  "/>
<polyline clip-path="url(#clip742)" style="stroke:#000000; stroke-linecap:butt; stroke-linejoin:round; stroke-width:2; stroke-opacity:0.1; fill:none" points="
  2307.7,1486.45 2307.7,47.2441 
  "/>
<polyline clip-path="url(#clip740)" style="stroke:#000000; stroke-linecap:butt; stroke-linejoin:round; stroke-width:4; stroke-opacity:1; fill:none" points="
  156.598,1486.45 2352.76,1486.45 
  "/>
<polyline clip-path="url(#clip740)" style="stroke:#000000; stroke-linecap:butt; stroke-linejoin:round; stroke-width:4; stroke-opacity:1; fill:none" points="
  226.225,1486.45 226.225,1467.55 
  "/>
<polyline clip-path="url(#clip740)" style="stroke:#000000; stroke-linecap:butt; stroke-linejoin:round; stroke-width:4; stroke-opacity:1; fill:none" points="
  746.595,1486.45 746.595,1467.55 
  "/>
<polyline clip-path="url(#clip740)" style="stroke:#000000; stroke-linecap:butt; stroke-linejoin:round; stroke-width:4; stroke-opacity:1; fill:none" points="
  1266.96,1486.45 1266.96,1467.55 
  "/>
<polyline clip-path="url(#clip740)" style="stroke:#000000; stroke-linecap:butt; stroke-linejoin:round; stroke-width:4; stroke-opacity:1; fill:none" points="
  1787.33,1486.45 1787.33,1467.55 
  "/>
<polyline clip-path="url(#clip740)" style="stroke:#000000; stroke-linecap:butt; stroke-linejoin:round; stroke-width:4; stroke-opacity:1; fill:none" points="
  2307.7,1486.45 2307.7,1467.55 
  "/>
<path clip-path="url(#clip740)" d="M204.408 1517.37 Q200.797 1517.37 198.968 1520.93 Q197.163 1524.47 197.163 1531.6 Q197.163 1538.71 198.968 1542.27 Q200.797 1545.82 204.408 1545.82 Q208.042 1545.82 209.848 1542.27 Q211.676 1538.71 211.676 1531.6 Q211.676 1524.47 209.848 1520.93 Q208.042 1517.37 204.408 1517.37 M204.408 1513.66 Q210.218 1513.66 213.274 1518.27 Q216.352 1522.85 216.352 1531.6 Q216.352 1540.33 213.274 1544.94 Q210.218 1549.52 204.408 1549.52 Q198.598 1549.52 195.519 1544.94 Q192.464 1540.33 192.464 1531.6 Q192.464 1522.85 195.519 1518.27 Q198.598 1513.66 204.408 1513.66 Z" fill="#000000" fill-rule="evenodd" fill-opacity="1" /><path clip-path="url(#clip740)" d="M224.57 1542.97 L229.454 1542.97 L229.454 1548.85 L224.57 1548.85 L224.57 1542.97 Z" fill="#000000" fill-rule="evenodd" fill-opacity="1" /><path clip-path="url(#clip740)" d="M243.667 1544.91 L259.986 1544.91 L259.986 1548.85 L238.042 1548.85 L238.042 1544.91 Q240.704 1542.16 245.287 1537.53 Q249.894 1532.88 251.074 1531.53 Q253.32 1529.01 254.199 1527.27 Q255.102 1525.51 255.102 1523.82 Q255.102 1521.07 253.158 1519.33 Q251.236 1517.6 248.135 1517.6 Q245.936 1517.6 243.482 1518.36 Q241.051 1519.13 238.274 1520.68 L238.274 1515.95 Q241.098 1514.82 243.551 1514.24 Q246.005 1513.66 248.042 1513.66 Q253.412 1513.66 256.607 1516.35 Q259.801 1519.03 259.801 1523.52 Q259.801 1525.65 258.991 1527.57 Q258.204 1529.47 256.098 1532.07 Q255.519 1532.74 252.417 1535.95 Q249.315 1539.15 243.667 1544.91 Z" fill="#000000" fill-rule="evenodd" fill-opacity="1" /><path clip-path="url(#clip740)" d="M723.736 1517.37 Q720.125 1517.37 718.297 1520.93 Q716.491 1524.47 716.491 1531.6 Q716.491 1538.71 718.297 1542.27 Q720.125 1545.82 723.736 1545.82 Q727.371 1545.82 729.176 1542.27 Q731.005 1538.71 731.005 1531.6 Q731.005 1524.47 729.176 1520.93 Q727.371 1517.37 723.736 1517.37 M723.736 1513.66 Q729.546 1513.66 732.602 1518.27 Q735.681 1522.85 735.681 1531.6 Q735.681 1540.33 732.602 1544.94 Q729.546 1549.52 723.736 1549.52 Q717.926 1549.52 714.847 1544.94 Q711.792 1540.33 711.792 1531.6 Q711.792 1522.85 714.847 1518.27 Q717.926 1513.66 723.736 1513.66 Z" fill="#000000" fill-rule="evenodd" fill-opacity="1" /><path clip-path="url(#clip740)" d="M743.898 1542.97 L748.782 1542.97 L748.782 1548.85 L743.898 1548.85 L743.898 1542.97 Z" fill="#000000" fill-rule="evenodd" fill-opacity="1" /><path clip-path="url(#clip740)" d="M771.815 1518.36 L760.009 1536.81 L771.815 1536.81 L771.815 1518.36 M770.588 1514.29 L776.468 1514.29 L776.468 1536.81 L781.398 1536.81 L781.398 1540.7 L776.468 1540.7 L776.468 1548.85 L771.815 1548.85 L771.815 1540.7 L756.213 1540.7 L756.213 1536.19 L770.588 1514.29 Z" fill="#000000" fill-rule="evenodd" fill-opacity="1" /><path clip-path="url(#clip740)" d="M1244.27 1517.37 Q1240.66 1517.37 1238.83 1520.93 Q1237.02 1524.47 1237.02 1531.6 Q1237.02 1538.71 1238.83 1542.27 Q1240.66 1545.82 1244.27 1545.82 Q1247.9 1545.82 1249.71 1542.27 Q1251.54 1538.71 1251.54 1531.6 Q1251.54 1524.47 1249.71 1520.93 Q1247.9 1517.37 1244.27 1517.37 M1244.27 1513.66 Q1250.08 1513.66 1253.13 1518.27 Q1256.21 1522.85 1256.21 1531.6 Q1256.21 1540.33 1253.13 1544.94 Q1250.08 1549.52 1244.27 1549.52 Q1238.46 1549.52 1235.38 1544.94 Q1232.32 1540.33 1232.32 1531.6 Q1232.32 1522.85 1235.38 1518.27 Q1238.46 1513.66 1244.27 1513.66 Z" fill="#000000" fill-rule="evenodd" fill-opacity="1" /><path clip-path="url(#clip740)" d="M1264.43 1542.97 L1269.31 1542.97 L1269.31 1548.85 L1264.43 1548.85 L1264.43 1542.97 Z" fill="#000000" fill-rule="evenodd" fill-opacity="1" /><path clip-path="url(#clip740)" d="M1290.08 1529.7 Q1286.93 1529.7 1285.08 1531.86 Q1283.25 1534.01 1283.25 1537.76 Q1283.25 1541.49 1285.08 1543.66 Q1286.93 1545.82 1290.08 1545.82 Q1293.23 1545.82 1295.06 1543.66 Q1296.91 1541.49 1296.91 1537.76 Q1296.91 1534.01 1295.06 1531.86 Q1293.23 1529.7 1290.08 1529.7 M1299.36 1515.05 L1299.36 1519.31 Q1297.6 1518.48 1295.8 1518.04 Q1294.01 1517.6 1292.25 1517.6 Q1287.62 1517.6 1285.17 1520.72 Q1282.74 1523.85 1282.39 1530.17 Q1283.76 1528.15 1285.82 1527.09 Q1287.88 1526 1290.36 1526 Q1295.56 1526 1298.57 1529.17 Q1301.61 1532.32 1301.61 1537.76 Q1301.61 1543.08 1298.46 1546.3 Q1295.31 1549.52 1290.08 1549.52 Q1284.08 1549.52 1280.91 1544.94 Q1277.74 1540.33 1277.74 1531.6 Q1277.74 1523.41 1281.63 1518.55 Q1285.52 1513.66 1292.07 1513.66 Q1293.83 1513.66 1295.61 1514.01 Q1297.42 1514.36 1299.36 1515.05 Z" fill="#000000" fill-rule="evenodd" fill-opacity="1" /><path clip-path="url(#clip740)" d="M1764.77 1517.37 Q1761.15 1517.37 1759.33 1520.93 Q1757.52 1524.47 1757.52 1531.6 Q1757.52 1538.71 1759.33 1542.27 Q1761.15 1545.82 1764.77 1545.82 Q1768.4 1545.82 1770.21 1542.27 Q1772.03 1538.71 1772.03 1531.6 Q1772.03 1524.47 1770.21 1520.93 Q1768.4 1517.37 1764.77 1517.37 M1764.77 1513.66 Q1770.58 1513.66 1773.63 1518.27 Q1776.71 1522.85 1776.71 1531.6 Q1776.71 1540.33 1773.63 1544.94 Q1770.58 1549.52 1764.77 1549.52 Q1758.96 1549.52 1755.88 1544.94 Q1752.82 1540.33 1752.82 1531.6 Q1752.82 1522.85 1755.88 1518.27 Q1758.96 1513.66 1764.77 1513.66 Z" fill="#000000" fill-rule="evenodd" fill-opacity="1" /><path clip-path="url(#clip740)" d="M1784.93 1542.97 L1789.81 1542.97 L1789.81 1548.85 L1784.93 1548.85 L1784.93 1542.97 Z" fill="#000000" fill-rule="evenodd" fill-opacity="1" /><path clip-path="url(#clip740)" d="M1810 1532.44 Q1806.66 1532.44 1804.74 1534.22 Q1802.84 1536 1802.84 1539.13 Q1802.84 1542.25 1804.74 1544.03 Q1806.66 1545.82 1810 1545.82 Q1813.33 1545.82 1815.25 1544.03 Q1817.17 1542.23 1817.17 1539.13 Q1817.17 1536 1815.25 1534.22 Q1813.35 1532.44 1810 1532.44 M1805.32 1530.45 Q1802.31 1529.7 1800.62 1527.64 Q1798.96 1525.58 1798.96 1522.62 Q1798.96 1518.48 1801.9 1516.07 Q1804.86 1513.66 1810 1513.66 Q1815.16 1513.66 1818.1 1516.07 Q1821.04 1518.48 1821.04 1522.62 Q1821.04 1525.58 1819.35 1527.64 Q1817.68 1529.7 1814.7 1530.45 Q1818.08 1531.23 1819.95 1533.52 Q1821.85 1535.82 1821.85 1539.13 Q1821.85 1544.15 1818.77 1546.83 Q1815.71 1549.52 1810 1549.52 Q1804.28 1549.52 1801.2 1546.83 Q1798.15 1544.15 1798.15 1539.13 Q1798.15 1535.82 1800.04 1533.52 Q1801.94 1531.23 1805.32 1530.45 M1803.61 1523.06 Q1803.61 1525.75 1805.27 1527.25 Q1806.96 1528.76 1810 1528.76 Q1813.01 1528.76 1814.7 1527.25 Q1816.41 1525.75 1816.41 1523.06 Q1816.41 1520.38 1814.7 1518.87 Q1813.01 1517.37 1810 1517.37 Q1806.96 1517.37 1805.27 1518.87 Q1803.61 1520.38 1803.61 1523.06 Z" fill="#000000" fill-rule="evenodd" fill-opacity="1" /><path clip-path="url(#clip740)" d="M2274.86 1544.91 L2282.5 1544.91 L2282.5 1518.55 L2274.19 1520.21 L2274.19 1515.95 L2282.45 1514.29 L2287.13 1514.29 L2287.13 1544.91 L2294.77 1544.91 L2294.77 1548.85 L2274.86 1548.85 L2274.86 1544.91 Z" fill="#000000" fill-rule="evenodd" fill-opacity="1" /><path clip-path="url(#clip740)" d="M2304.21 1542.97 L2309.09 1542.97 L2309.09 1548.85 L2304.21 1548.85 L2304.21 1542.97 Z" fill="#000000" fill-rule="evenodd" fill-opacity="1" /><path clip-path="url(#clip740)" d="M2329.28 1517.37 Q2325.67 1517.37 2323.84 1520.93 Q2322.03 1524.47 2322.03 1531.6 Q2322.03 1538.71 2323.84 1542.27 Q2325.67 1545.82 2329.28 1545.82 Q2332.91 1545.82 2334.72 1542.27 Q2336.55 1538.71 2336.55 1531.6 Q2336.55 1524.47 2334.72 1520.93 Q2332.91 1517.37 2329.28 1517.37 M2329.28 1513.66 Q2335.09 1513.66 2338.14 1518.27 Q2341.22 1522.85 2341.22 1531.6 Q2341.22 1540.33 2338.14 1544.94 Q2335.09 1549.52 2329.28 1549.52 Q2323.47 1549.52 2320.39 1544.94 Q2317.33 1540.33 2317.33 1531.6 Q2317.33 1522.85 2320.39 1518.27 Q2323.47 1513.66 2329.28 1513.66 Z" fill="#000000" fill-rule="evenodd" fill-opacity="1" /><polyline clip-path="url(#clip742)" style="stroke:#000000; stroke-linecap:butt; stroke-linejoin:round; stroke-width:2; stroke-opacity:0.1; fill:none" points="
  156.598,1302.31 2352.76,1302.31 
  "/>
<polyline clip-path="url(#clip742)" style="stroke:#000000; stroke-linecap:butt; stroke-linejoin:round; stroke-width:2; stroke-opacity:0.1; fill:none" points="
  156.598,967.367 2352.76,967.367 
  "/>
<polyline clip-path="url(#clip742)" style="stroke:#000000; stroke-linecap:butt; stroke-linejoin:round; stroke-width:2; stroke-opacity:0.1; fill:none" points="
  156.598,632.42 2352.76,632.42 
  "/>
<polyline clip-path="url(#clip742)" style="stroke:#000000; stroke-linecap:butt; stroke-linejoin:round; stroke-width:2; stroke-opacity:0.1; fill:none" points="
  156.598,297.473 2352.76,297.473 
  "/>
<polyline clip-path="url(#clip740)" style="stroke:#000000; stroke-linecap:butt; stroke-linejoin:round; stroke-width:4; stroke-opacity:1; fill:none" points="
  156.598,1486.45 156.598,47.2441 
  "/>
<polyline clip-path="url(#clip740)" style="stroke:#000000; stroke-linecap:butt; stroke-linejoin:round; stroke-width:4; stroke-opacity:1; fill:none" points="
  156.598,1302.31 175.496,1302.31 
  "/>
<polyline clip-path="url(#clip740)" style="stroke:#000000; stroke-linecap:butt; stroke-linejoin:round; stroke-width:4; stroke-opacity:1; fill:none" points="
  156.598,967.367 175.496,967.367 
  "/>
<polyline clip-path="url(#clip740)" style="stroke:#000000; stroke-linecap:butt; stroke-linejoin:round; stroke-width:4; stroke-opacity:1; fill:none" points="
  156.598,632.42 175.496,632.42 
  "/>
<polyline clip-path="url(#clip740)" style="stroke:#000000; stroke-linecap:butt; stroke-linejoin:round; stroke-width:4; stroke-opacity:1; fill:none" points="
  156.598,297.473 175.496,297.473 
  "/>
<path clip-path="url(#clip740)" d="M65.0198 1288.11 Q61.4087 1288.11 59.58 1291.68 Q57.7745 1295.22 57.7745 1302.35 Q57.7745 1309.45 59.58 1313.02 Q61.4087 1316.56 65.0198 1316.56 Q68.6541 1316.56 70.4596 1313.02 Q72.2883 1309.45 72.2883 1302.35 Q72.2883 1295.22 70.4596 1291.68 Q68.6541 1288.11 65.0198 1288.11 M65.0198 1284.41 Q70.83 1284.41 73.8855 1289.01 Q76.9642 1293.6 76.9642 1302.35 Q76.9642 1311.07 73.8855 1315.68 Q70.83 1320.26 65.0198 1320.26 Q59.2097 1320.26 56.131 1315.68 Q53.0754 1311.07 53.0754 1302.35 Q53.0754 1293.6 56.131 1289.01 Q59.2097 1284.41 65.0198 1284.41 Z" fill="#000000" fill-rule="evenodd" fill-opacity="1" /><path clip-path="url(#clip740)" d="M85.1818 1313.71 L90.066 1313.71 L90.066 1319.59 L85.1818 1319.59 L85.1818 1313.71 Z" fill="#000000" fill-rule="evenodd" fill-opacity="1" /><path clip-path="url(#clip740)" d="M104.279 1315.66 L120.598 1315.66 L120.598 1319.59 L98.6539 1319.59 L98.6539 1315.66 Q101.316 1312.9 105.899 1308.27 Q110.506 1303.62 111.686 1302.28 Q113.932 1299.76 114.811 1298.02 Q115.714 1296.26 115.714 1294.57 Q115.714 1291.82 113.77 1290.08 Q111.848 1288.34 108.746 1288.34 Q106.547 1288.34 104.094 1289.11 Q101.663 1289.87 98.8854 1291.42 L98.8854 1286.7 Q101.709 1285.57 104.163 1284.99 Q106.617 1284.41 108.654 1284.41 Q114.024 1284.41 117.219 1287.09 Q120.413 1289.78 120.413 1294.27 Q120.413 1296.4 119.603 1298.32 Q118.816 1300.22 116.709 1302.81 Q116.131 1303.48 113.029 1306.7 Q109.927 1309.89 104.279 1315.66 Z" fill="#000000" fill-rule="evenodd" fill-opacity="1" /><path clip-path="url(#clip740)" d="M62.9365 953.165 Q59.3254 953.165 57.4967 956.73 Q55.6912 960.272 55.6912 967.401 Q55.6912 974.508 57.4967 978.073 Q59.3254 981.614 62.9365 981.614 Q66.5707 981.614 68.3763 978.073 Q70.205 974.508 70.205 967.401 Q70.205 960.272 68.3763 956.73 Q66.5707 953.165 62.9365 953.165 M62.9365 949.462 Q68.7467 949.462 71.8022 954.068 Q74.8809 958.651 74.8809 967.401 Q74.8809 976.128 71.8022 980.735 Q68.7467 985.318 62.9365 985.318 Q57.1264 985.318 54.0477 980.735 Q50.9921 976.128 50.9921 967.401 Q50.9921 958.651 54.0477 954.068 Q57.1264 949.462 62.9365 949.462 Z" fill="#000000" fill-rule="evenodd" fill-opacity="1" /><path clip-path="url(#clip740)" d="M83.0984 978.767 L87.9827 978.767 L87.9827 984.647 L83.0984 984.647 L83.0984 978.767 Z" fill="#000000" fill-rule="evenodd" fill-opacity="1" /><path clip-path="url(#clip740)" d="M111.015 954.161 L99.2095 972.61 L111.015 972.61 L111.015 954.161 M109.788 950.087 L115.668 950.087 L115.668 972.61 L120.598 972.61 L120.598 976.498 L115.668 976.498 L115.668 984.647 L111.015 984.647 L111.015 976.498 L95.4132 976.498 L95.4132 971.985 L109.788 950.087 Z" fill="#000000" fill-rule="evenodd" fill-opacity="1" /><path clip-path="url(#clip740)" d="M63.2606 618.219 Q59.6495 618.219 57.8208 621.783 Q56.0152 625.325 56.0152 632.455 Q56.0152 639.561 57.8208 643.126 Q59.6495 646.667 63.2606 646.667 Q66.8948 646.667 68.7004 643.126 Q70.5291 639.561 70.5291 632.455 Q70.5291 625.325 68.7004 621.783 Q66.8948 618.219 63.2606 618.219 M63.2606 614.515 Q69.0707 614.515 72.1263 619.121 Q75.205 623.705 75.205 632.455 Q75.205 641.181 72.1263 645.788 Q69.0707 650.371 63.2606 650.371 Q57.4504 650.371 54.3717 645.788 Q51.3162 641.181 51.3162 632.455 Q51.3162 623.705 54.3717 619.121 Q57.4504 614.515 63.2606 614.515 Z" fill="#000000" fill-rule="evenodd" fill-opacity="1" /><path clip-path="url(#clip740)" d="M83.4225 643.82 L88.3067 643.82 L88.3067 649.7 L83.4225 649.7 L83.4225 643.82 Z" fill="#000000" fill-rule="evenodd" fill-opacity="1" /><path clip-path="url(#clip740)" d="M109.071 630.556 Q105.922 630.556 104.071 632.709 Q102.242 634.862 102.242 638.612 Q102.242 642.339 104.071 644.515 Q105.922 646.667 109.071 646.667 Q112.219 646.667 114.047 644.515 Q115.899 642.339 115.899 638.612 Q115.899 634.862 114.047 632.709 Q112.219 630.556 109.071 630.556 M118.353 615.904 L118.353 620.163 Q116.594 619.33 114.788 618.89 Q113.006 618.45 111.246 618.45 Q106.617 618.45 104.163 621.575 Q101.733 624.7 101.385 631.019 Q102.751 629.006 104.811 627.941 Q106.871 626.853 109.348 626.853 Q114.557 626.853 117.566 630.024 Q120.598 633.172 120.598 638.612 Q120.598 643.936 117.45 647.154 Q114.302 650.371 109.071 650.371 Q103.075 650.371 99.9039 645.788 Q96.7326 641.181 96.7326 632.455 Q96.7326 624.26 100.621 619.399 Q104.51 614.515 111.061 614.515 Q112.82 614.515 114.603 614.862 Q116.408 615.209 118.353 615.904 Z" fill="#000000" fill-rule="evenodd" fill-opacity="1" /><path clip-path="url(#clip740)" d="M63.5152 283.272 Q59.9041 283.272 58.0754 286.837 Q56.2699 290.378 56.2699 297.508 Q56.2699 304.614 58.0754 308.179 Q59.9041 311.721 63.5152 311.721 Q67.1494 311.721 68.955 308.179 Q70.7837 304.614 70.7837 297.508 Q70.7837 290.378 68.955 286.837 Q67.1494 283.272 63.5152 283.272 M63.5152 279.568 Q69.3254 279.568 72.3809 284.175 Q75.4596 288.758 75.4596 297.508 Q75.4596 306.235 72.3809 310.841 Q69.3254 315.424 63.5152 315.424 Q57.7051 315.424 54.6264 310.841 Q51.5708 306.235 51.5708 297.508 Q51.5708 288.758 54.6264 284.175 Q57.7051 279.568 63.5152 279.568 Z" fill="#000000" fill-rule="evenodd" fill-opacity="1" /><path clip-path="url(#clip740)" d="M83.6771 308.874 L88.5614 308.874 L88.5614 314.753 L83.6771 314.753 L83.6771 308.874 Z" fill="#000000" fill-rule="evenodd" fill-opacity="1" /><path clip-path="url(#clip740)" d="M108.746 298.341 Q105.413 298.341 103.492 300.124 Q101.594 301.906 101.594 305.031 Q101.594 308.156 103.492 309.938 Q105.413 311.721 108.746 311.721 Q112.08 311.721 114.001 309.938 Q115.922 308.133 115.922 305.031 Q115.922 301.906 114.001 300.124 Q112.103 298.341 108.746 298.341 M104.071 296.35 Q101.061 295.61 99.3715 293.55 Q97.7048 291.489 97.7048 288.526 Q97.7048 284.383 100.645 281.976 Q103.608 279.568 108.746 279.568 Q113.908 279.568 116.848 281.976 Q119.788 284.383 119.788 288.526 Q119.788 291.489 118.098 293.55 Q116.432 295.61 113.445 296.35 Q116.825 297.137 118.7 299.429 Q120.598 301.721 120.598 305.031 Q120.598 310.054 117.52 312.739 Q114.464 315.424 108.746 315.424 Q103.029 315.424 99.9502 312.739 Q96.8947 310.054 96.8947 305.031 Q96.8947 301.721 98.7928 299.429 Q100.691 297.137 104.071 296.35 M102.358 288.966 Q102.358 291.651 104.024 293.156 Q105.714 294.661 108.746 294.661 Q111.756 294.661 113.445 293.156 Q115.158 291.651 115.158 288.966 Q115.158 286.281 113.445 284.776 Q111.756 283.272 108.746 283.272 Q105.714 283.272 104.024 284.776 Q102.358 286.281 102.358 288.966 Z" fill="#000000" fill-rule="evenodd" fill-opacity="1" /><polyline clip-path="url(#clip742)" style="stroke:#009af9; stroke-linecap:butt; stroke-linejoin:round; stroke-width:4; stroke-opacity:1; fill:none" points="
  218.754,628.673 1341.95,855.849 489.156,407.61 2290.6,1445.72 1355.55,622.491 1228.77,612.439 780.632,520.622 1192.2,87.9763 1121.1,844.223 1572.86,609.42 
  
  "/>
<path clip-path="url(#clip740)" d="
M1987.12 198.898 L2279.55 198.898 L2279.55 95.2176 L1987.12 95.2176  Z
  " fill="#ffffff" fill-rule="evenodd" fill-opacity="1"/>
<polyline clip-path="url(#clip740)" style="stroke:#000000; stroke-linecap:butt; stroke-linejoin:round; stroke-width:4; stroke-opacity:1; fill:none" points="
  1987.12,198.898 2279.55,198.898 2279.55,95.2176 1987.12,95.2176 1987.12,198.898 
  "/>
<polyline clip-path="url(#clip740)" style="stroke:#009af9; stroke-linecap:butt; stroke-linejoin:round; stroke-width:4; stroke-opacity:1; fill:none" points="
  2011.12,147.058 2155.12,147.058 
  "/>
<path clip-path="url(#clip740)" d="M2192.96 166.745 Q2191.16 171.375 2189.44 172.787 Q2187.73 174.199 2184.86 174.199 L2181.46 174.199 L2181.46 170.634 L2183.96 170.634 Q2185.72 170.634 2186.69 169.8 Q2187.66 168.967 2188.84 165.865 L2189.61 163.921 L2179.12 138.412 L2183.63 138.412 L2191.74 158.689 L2199.84 138.412 L2204.35 138.412 L2192.96 166.745 Z" fill="#000000" fill-rule="evenodd" fill-opacity="1" /><path clip-path="url(#clip740)" d="M2211.64 160.402 L2219.28 160.402 L2219.28 134.037 L2210.97 135.703 L2210.97 131.444 L2219.24 129.778 L2223.91 129.778 L2223.91 160.402 L2231.55 160.402 L2231.55 164.338 L2211.64 164.338 L2211.64 160.402 Z" fill="#000000" fill-rule="evenodd" fill-opacity="1" /></svg>
