<?xml version="1.0" encoding="utf-8"?>
<svg xmlns="http://www.w3.org/2000/svg" xmlns:xlink="http://www.w3.org/1999/xlink" width="600" height="400" viewBox="0 0 2400 1600">
<defs>
  <clipPath id="clip670">
    <rect x="0" y="0" width="2400" height="1600"/>
  </clipPath>
</defs>
<path clip-path="url(#clip670)" d="
M0 1600 L2400 1600 L2400 0 L0 0  Z
  " fill="#ffffff" fill-rule="evenodd" fill-opacity="1"/>
<defs>
  <clipPath id="clip671">
    <rect x="480" y="0" width="1681" height="1600"/>
  </clipPath>
</defs>
<path clip-path="url(#clip670)" d="
M156.598 1486.45 L2352.76 1486.45 L2352.76 47.2441 L156.598 47.2441  Z
  " fill="#ffffff" fill-rule="evenodd" fill-opacity="1"/>
<defs>
  <clipPath id="clip672">
    <rect x="156" y="47" width="2197" height="1440"/>
  </clipPath>
</defs>
<polyline clip-path="url(#clip672)" style="stroke:#000000; stroke-linecap:butt; stroke-linejoin:round; stroke-width:2; stroke-opacity:0.1; fill:none" points="
  477.917,1486.45 477.917,47.2441 
  "/>
<polyline clip-path="url(#clip672)" style="stroke:#000000; stroke-linecap:butt; stroke-linejoin:round; stroke-width:2; stroke-opacity:0.1; fill:none" points="
  973.587,1486.45 973.587,47.2441 
  "/>
<polyline clip-path="url(#clip672)" style="stroke:#000000; stroke-linecap:butt; stroke-linejoin:round; stroke-width:2; stroke-opacity:0.1; fill:none" points="
  1469.26,1486.45 1469.26,47.2441 
  "/>
<polyline clip-path="url(#clip672)" style="stroke:#000000; stroke-linecap:butt; stroke-linejoin:round; stroke-width:2; stroke-opacity:0.1; fill:none" points="
  1964.93,1486.45 1964.93,47.2441 
  "/>
<polyline clip-path="url(#clip670)" style="stroke:#000000; stroke-linecap:butt; stroke-linejoin:round; stroke-width:4; stroke-opacity:1; fill:none" points="
  156.598,1486.45 2352.76,1486.45 
  "/>
<polyline clip-path="url(#clip670)" style="stroke:#000000; stroke-linecap:butt; stroke-linejoin:round; stroke-width:4; stroke-opacity:1; fill:none" points="
  477.917,1486.45 477.917,1467.55 
  "/>
<polyline clip-path="url(#clip670)" style="stroke:#000000; stroke-linecap:butt; stroke-linejoin:round; stroke-width:4; stroke-opacity:1; fill:none" points="
  973.587,1486.45 973.587,1467.55 
  "/>
<polyline clip-path="url(#clip670)" style="stroke:#000000; stroke-linecap:butt; stroke-linejoin:round; stroke-width:4; stroke-opacity:1; fill:none" points="
  1469.26,1486.45 1469.26,1467.55 
  "/>
<polyline clip-path="url(#clip670)" style="stroke:#000000; stroke-linecap:butt; stroke-linejoin:round; stroke-width:4; stroke-opacity:1; fill:none" points="
  1964.93,1486.45 1964.93,1467.55 
  "/>
<path clip-path="url(#clip670)" d="M456.1 1517.37 Q452.489 1517.37 450.66 1520.93 Q448.854 1524.47 448.854 1531.6 Q448.854 1538.71 450.66 1542.27 Q452.489 1545.82 456.1 1545.82 Q459.734 1545.82 461.54 1542.27 Q463.368 1538.71 463.368 1531.6 Q463.368 1524.47 461.54 1520.93 Q459.734 1517.37 456.1 1517.37 M456.1 1513.66 Q461.91 1513.66 464.965 1518.27 Q468.044 1522.85 468.044 1531.6 Q468.044 1540.33 464.965 1544.94 Q461.91 1549.52 456.1 1549.52 Q450.29 1549.52 447.211 1544.94 Q444.155 1540.33 444.155 1531.6 Q444.155 1522.85 447.211 1518.27 Q450.29 1513.66 456.1 1513.66 Z" fill="#000000" fill-rule="evenodd" fill-opacity="1" /><path clip-path="url(#clip670)" d="M476.262 1542.97 L481.146 1542.97 L481.146 1548.85 L476.262 1548.85 L476.262 1542.97 Z" fill="#000000" fill-rule="evenodd" fill-opacity="1" /><path clip-path="url(#clip670)" d="M495.359 1544.91 L511.678 1544.91 L511.678 1548.85 L489.734 1548.85 L489.734 1544.91 Q492.396 1542.16 496.979 1537.53 Q501.586 1532.88 502.766 1531.53 Q505.012 1529.01 505.891 1527.27 Q506.794 1525.51 506.794 1523.82 Q506.794 1521.07 504.85 1519.33 Q502.928 1517.6 499.826 1517.6 Q497.627 1517.6 495.174 1518.36 Q492.743 1519.13 489.965 1520.68 L489.965 1515.95 Q492.789 1514.82 495.243 1514.24 Q497.697 1513.66 499.734 1513.66 Q505.104 1513.66 508.299 1516.35 Q511.493 1519.03 511.493 1523.52 Q511.493 1525.65 510.683 1527.57 Q509.896 1529.47 507.789 1532.07 Q507.211 1532.74 504.109 1535.95 Q501.007 1539.15 495.359 1544.91 Z" fill="#000000" fill-rule="evenodd" fill-opacity="1" /><path clip-path="url(#clip670)" d="M950.729 1517.37 Q947.118 1517.37 945.289 1520.93 Q943.483 1524.47 943.483 1531.6 Q943.483 1538.71 945.289 1542.27 Q947.118 1545.82 950.729 1545.82 Q954.363 1545.82 956.168 1542.27 Q957.997 1538.71 957.997 1531.6 Q957.997 1524.47 956.168 1520.93 Q954.363 1517.37 950.729 1517.37 M950.729 1513.66 Q956.539 1513.66 959.594 1518.27 Q962.673 1522.85 962.673 1531.6 Q962.673 1540.33 959.594 1544.94 Q956.539 1549.52 950.729 1549.52 Q944.919 1549.52 941.84 1544.94 Q938.784 1540.33 938.784 1531.6 Q938.784 1522.85 941.84 1518.27 Q944.919 1513.66 950.729 1513.66 Z" fill="#000000" fill-rule="evenodd" fill-opacity="1" /><path clip-path="url(#clip670)" d="M970.891 1542.97 L975.775 1542.97 L975.775 1548.85 L970.891 1548.85 L970.891 1542.97 Z" fill="#000000" fill-rule="evenodd" fill-opacity="1" /><path clip-path="url(#clip670)" d="M998.807 1518.36 L987.002 1536.81 L998.807 1536.81 L998.807 1518.36 M997.58 1514.29 L1003.46 1514.29 L1003.46 1536.81 L1008.39 1536.81 L1008.39 1540.7 L1003.46 1540.7 L1003.46 1548.85 L998.807 1548.85 L998.807 1540.7 L983.205 1540.7 L983.205 1536.19 L997.58 1514.29 Z" fill="#000000" fill-rule="evenodd" fill-opacity="1" /><path clip-path="url(#clip670)" d="M1446.56 1517.37 Q1442.95 1517.37 1441.12 1520.93 Q1439.32 1524.47 1439.32 1531.6 Q1439.32 1538.71 1441.12 1542.27 Q1442.95 1545.82 1446.56 1545.82 Q1450.2 1545.82 1452 1542.27 Q1453.83 1538.71 1453.83 1531.6 Q1453.83 1524.47 1452 1520.93 Q1450.2 1517.37 1446.56 1517.37 M1446.56 1513.66 Q1452.37 1513.66 1455.43 1518.27 Q1458.51 1522.85 1458.51 1531.6 Q1458.51 1540.33 1455.43 1544.94 Q1452.37 1549.52 1446.56 1549.52 Q1440.75 1549.52 1437.67 1544.94 Q1434.62 1540.33 1434.62 1531.6 Q1434.62 1522.85 1437.67 1518.27 Q1440.75 1513.66 1446.56 1513.66 Z" fill="#000000" fill-rule="evenodd" fill-opacity="1" /><path clip-path="url(#clip670)" d="M1466.72 1542.97 L1471.61 1542.97 L1471.61 1548.85 L1466.72 1548.85 L1466.72 1542.97 Z" fill="#000000" fill-rule="evenodd" fill-opacity="1" /><path clip-path="url(#clip670)" d="M1492.37 1529.7 Q1489.22 1529.7 1487.37 1531.86 Q1485.54 1534.01 1485.54 1537.76 Q1485.54 1541.49 1487.37 1543.66 Q1489.22 1545.82 1492.37 1545.82 Q1495.52 1545.82 1497.35 1543.66 Q1499.2 1541.49 1499.2 1537.76 Q1499.2 1534.01 1497.35 1531.86 Q1495.52 1529.7 1492.37 1529.7 M1501.65 1515.05 L1501.65 1519.31 Q1499.89 1518.48 1498.09 1518.04 Q1496.31 1517.6 1494.55 1517.6 Q1489.92 1517.6 1487.46 1520.72 Q1485.03 1523.85 1484.69 1530.17 Q1486.05 1528.15 1488.11 1527.09 Q1490.17 1526 1492.65 1526 Q1497.86 1526 1500.87 1529.17 Q1503.9 1532.32 1503.9 1537.76 Q1503.9 1543.08 1500.75 1546.3 Q1497.6 1549.52 1492.37 1549.52 Q1486.38 1549.52 1483.2 1544.94 Q1480.03 1540.33 1480.03 1531.6 Q1480.03 1523.41 1483.92 1518.55 Q1487.81 1513.66 1494.36 1513.66 Q1496.12 1513.66 1497.9 1514.01 Q1499.71 1514.36 1501.65 1515.05 Z" fill="#000000" fill-rule="evenodd" fill-opacity="1" /><path clip-path="url(#clip670)" d="M1942.36 1517.37 Q1938.75 1517.37 1936.92 1520.93 Q1935.11 1524.47 1935.11 1531.6 Q1935.11 1538.71 1936.92 1542.27 Q1938.75 1545.82 1942.36 1545.82 Q1945.99 1545.82 1947.8 1542.27 Q1949.63 1538.71 1949.63 1531.6 Q1949.63 1524.47 1947.8 1520.93 Q1945.99 1517.37 1942.36 1517.37 M1942.36 1513.66 Q1948.17 1513.66 1951.22 1518.27 Q1954.3 1522.85 1954.3 1531.6 Q1954.3 1540.33 1951.22 1544.94 Q1948.17 1549.52 1942.36 1549.52 Q1936.55 1549.52 1933.47 1544.94 Q1930.41 1540.33 1930.41 1531.6 Q1930.41 1522.85 1933.47 1518.27 Q1936.55 1513.66 1942.36 1513.66 Z" fill="#000000" fill-rule="evenodd" fill-opacity="1" /><path clip-path="url(#clip670)" d="M1962.52 1542.97 L1967.41 1542.97 L1967.41 1548.85 L1962.52 1548.85 L1962.52 1542.97 Z" fill="#000000" fill-rule="evenodd" fill-opacity="1" /><path clip-path="url(#clip670)" d="M1987.59 1532.44 Q1984.26 1532.44 1982.34 1534.22 Q1980.44 1536 1980.44 1539.13 Q1980.44 1542.25 1982.34 1544.03 Q1984.26 1545.82 1987.59 1545.82 Q1990.92 1545.82 1992.85 1544.03 Q1994.77 1542.23 1994.77 1539.13 Q1994.77 1536 1992.85 1534.22 Q1990.95 1532.44 1987.59 1532.44 M1982.91 1530.45 Q1979.91 1529.7 1978.22 1527.64 Q1976.55 1525.58 1976.55 1522.62 Q1976.55 1518.48 1979.49 1516.07 Q1982.45 1513.66 1987.59 1513.66 Q1992.75 1513.66 1995.69 1516.07 Q1998.63 1518.48 1998.63 1522.62 Q1998.63 1525.58 1996.94 1527.64 Q1995.28 1529.7 1992.29 1530.45 Q1995.67 1531.23 1997.54 1533.52 Q1999.44 1535.82 1999.44 1539.13 Q1999.44 1544.15 1996.36 1546.83 Q1993.31 1549.52 1987.59 1549.52 Q1981.87 1549.52 1978.79 1546.83 Q1975.74 1544.15 1975.74 1539.13 Q1975.74 1535.82 1977.64 1533.52 Q1979.53 1531.23 1982.91 1530.45 M1981.2 1523.06 Q1981.2 1525.75 1982.87 1527.25 Q1984.56 1528.76 1987.59 1528.76 Q1990.6 1528.76 1992.29 1527.25 Q1994 1525.75 1994 1523.06 Q1994 1520.38 1992.29 1518.87 Q1990.6 1517.37 1987.59 1517.37 Q1984.56 1517.37 1982.87 1518.87 Q1981.2 1520.38 1981.2 1523.06 Z" fill="#000000" fill-rule="evenodd" fill-opacity="1" /><polyline clip-path="url(#clip672)" style="stroke:#000000; stroke-linecap:butt; stroke-linejoin:round; stroke-width:2; stroke-opacity:0.1; fill:none" points="
  156.598,1228.71 2352.76,1228.71 
  "/>
<polyline clip-path="url(#clip672)" style="stroke:#000000; stroke-linecap:butt; stroke-linejoin:round; stroke-width:2; stroke-opacity:0.1; fill:none" points="
  156.598,926.548 2352.76,926.548 
  "/>
<polyline clip-path="url(#clip672)" style="stroke:#000000; stroke-linecap:butt; stroke-linejoin:round; stroke-width:2; stroke-opacity:0.1; fill:none" points="
  156.598,624.385 2352.76,624.385 
  "/>
<polyline clip-path="url(#clip672)" style="stroke:#000000; stroke-linecap:butt; stroke-linejoin:round; stroke-width:2; stroke-opacity:0.1; fill:none" points="
  156.598,322.222 2352.76,322.222 
  "/>
<polyline clip-path="url(#clip670)" style="stroke:#000000; stroke-linecap:butt; stroke-linejoin:round; stroke-width:4; stroke-opacity:1; fill:none" points="
  156.598,1486.45 156.598,47.2441 
  "/>
<polyline clip-path="url(#clip670)" style="stroke:#000000; stroke-linecap:butt; stroke-linejoin:round; stroke-width:4; stroke-opacity:1; fill:none" points="
  156.598,1228.71 175.496,1228.71 
  "/>
<polyline clip-path="url(#clip670)" style="stroke:#000000; stroke-linecap:butt; stroke-linejoin:round; stroke-width:4; stroke-opacity:1; fill:none" points="
  156.598,926.548 175.496,926.548 
  "/>
<polyline clip-path="url(#clip670)" style="stroke:#000000; stroke-linecap:butt; stroke-linejoin:round; stroke-width:4; stroke-opacity:1; fill:none" points="
  156.598,624.385 175.496,624.385 
  "/>
<polyline clip-path="url(#clip670)" style="stroke:#000000; stroke-linecap:butt; stroke-linejoin:round; stroke-width:4; stroke-opacity:1; fill:none" points="
  156.598,322.222 175.496,322.222 
  "/>
<path clip-path="url(#clip670)" d="M65.0198 1214.51 Q61.4087 1214.51 59.58 1218.07 Q57.7745 1221.62 57.7745 1228.75 Q57.7745 1235.85 59.58 1239.42 Q61.4087 1242.96 65.0198 1242.96 Q68.6541 1242.96 70.4596 1239.42 Q72.2883 1235.85 72.2883 1228.75 Q72.2883 1221.62 70.4596 1218.07 Q68.6541 1214.51 65.0198 1214.51 M65.0198 1210.81 Q70.83 1210.81 73.8855 1215.41 Q76.9642 1220 76.9642 1228.75 Q76.9642 1237.47 73.8855 1242.08 Q70.83 1246.66 65.0198 1246.66 Q59.2097 1246.66 56.131 1242.08 Q53.0754 1237.47 53.0754 1228.75 Q53.0754 1220 56.131 1215.41 Q59.2097 1210.81 65.0198 1210.81 Z" fill="#000000" fill-rule="evenodd" fill-opacity="1" /><path clip-path="url(#clip670)" d="M85.1818 1240.11 L90.066 1240.11 L90.066 1245.99 L85.1818 1245.99 L85.1818 1240.11 Z" fill="#000000" fill-rule="evenodd" fill-opacity="1" /><path clip-path="url(#clip670)" d="M104.279 1242.06 L120.598 1242.06 L120.598 1245.99 L98.6539 1245.99 L98.6539 1242.06 Q101.316 1239.3 105.899 1234.67 Q110.506 1230.02 111.686 1228.68 Q113.932 1226.15 114.811 1224.42 Q115.714 1222.66 115.714 1220.97 Q115.714 1218.21 113.77 1216.48 Q111.848 1214.74 108.746 1214.74 Q106.547 1214.74 104.094 1215.5 Q101.663 1216.27 98.8854 1217.82 L98.8854 1213.1 Q101.709 1211.96 104.163 1211.38 Q106.617 1210.81 108.654 1210.81 Q114.024 1210.81 117.219 1213.49 Q120.413 1216.18 120.413 1220.67 Q120.413 1222.8 119.603 1224.72 Q118.816 1226.62 116.709 1229.21 Q116.131 1229.88 113.029 1233.1 Q109.927 1236.29 104.279 1242.06 Z" fill="#000000" fill-rule="evenodd" fill-opacity="1" /><path clip-path="url(#clip670)" d="M62.9365 912.347 Q59.3254 912.347 57.4967 915.912 Q55.6912 919.453 55.6912 926.583 Q55.6912 933.689 57.4967 937.254 Q59.3254 940.796 62.9365 940.796 Q66.5707 940.796 68.3763 937.254 Q70.205 933.689 70.205 926.583 Q70.205 919.453 68.3763 915.912 Q66.5707 912.347 62.9365 912.347 M62.9365 908.643 Q68.7467 908.643 71.8022 913.25 Q74.8809 917.833 74.8809 926.583 Q74.8809 935.31 71.8022 939.916 Q68.7467 944.499 62.9365 944.499 Q57.1264 944.499 54.0477 939.916 Q50.9921 935.31 50.9921 926.583 Q50.9921 917.833 54.0477 913.25 Q57.1264 908.643 62.9365 908.643 Z" fill="#000000" fill-rule="evenodd" fill-opacity="1" /><path clip-path="url(#clip670)" d="M83.0984 937.948 L87.9827 937.948 L87.9827 943.828 L83.0984 943.828 L83.0984 937.948 Z" fill="#000000" fill-rule="evenodd" fill-opacity="1" /><path clip-path="url(#clip670)" d="M111.015 913.342 L99.2095 931.791 L111.015 931.791 L111.015 913.342 M109.788 909.268 L115.668 909.268 L115.668 931.791 L120.598 931.791 L120.598 935.68 L115.668 935.68 L115.668 943.828 L111.015 943.828 L111.015 935.68 L95.4132 935.68 L95.4132 931.166 L109.788 909.268 Z" fill="#000000" fill-rule="evenodd" fill-opacity="1" /><path clip-path="url(#clip670)" d="M63.2606 610.184 Q59.6495 610.184 57.8208 613.749 Q56.0152 617.29 56.0152 624.42 Q56.0152 631.526 57.8208 635.091 Q59.6495 638.633 63.2606 638.633 Q66.8948 638.633 68.7004 635.091 Q70.5291 631.526 70.5291 624.42 Q70.5291 617.29 68.7004 613.749 Q66.8948 610.184 63.2606 610.184 M63.2606 606.48 Q69.0707 606.48 72.1263 611.087 Q75.205 615.67 75.205 624.42 Q75.205 633.147 72.1263 637.753 Q69.0707 642.337 63.2606 642.337 Q57.4504 642.337 54.3717 637.753 Q51.3162 633.147 51.3162 624.42 Q51.3162 615.67 54.3717 611.087 Q57.4504 606.48 63.2606 606.48 Z" fill="#000000" fill-rule="evenodd" fill-opacity="1" /><path clip-path="url(#clip670)" d="M83.4225 635.786 L88.3067 635.786 L88.3067 641.665 L83.4225 641.665 L83.4225 635.786 Z" fill="#000000" fill-rule="evenodd" fill-opacity="1" /><path clip-path="url(#clip670)" d="M109.071 622.522 Q105.922 622.522 104.071 624.675 Q102.242 626.827 102.242 630.577 Q102.242 634.304 104.071 636.48 Q105.922 638.633 109.071 638.633 Q112.219 638.633 114.047 636.48 Q115.899 634.304 115.899 630.577 Q115.899 626.827 114.047 624.675 Q112.219 622.522 109.071 622.522 M118.353 607.869 L118.353 612.128 Q116.594 611.295 114.788 610.855 Q113.006 610.415 111.246 610.415 Q106.617 610.415 104.163 613.54 Q101.733 616.665 101.385 622.985 Q102.751 620.971 104.811 619.906 Q106.871 618.818 109.348 618.818 Q114.557 618.818 117.566 621.989 Q120.598 625.138 120.598 630.577 Q120.598 635.901 117.45 639.119 Q114.302 642.337 109.071 642.337 Q103.075 642.337 99.9039 637.753 Q96.7326 633.147 96.7326 624.42 Q96.7326 616.226 100.621 611.365 Q104.51 606.48 111.061 606.48 Q112.82 606.48 114.603 606.827 Q116.408 607.175 118.353 607.869 Z" fill="#000000" fill-rule="evenodd" fill-opacity="1" /><path clip-path="url(#clip670)" d="M63.5152 308.021 Q59.9041 308.021 58.0754 311.586 Q56.2699 315.128 56.2699 322.257 Q56.2699 329.364 58.0754 332.928 Q59.9041 336.47 63.5152 336.47 Q67.1494 336.47 68.955 332.928 Q70.7837 329.364 70.7837 322.257 Q70.7837 315.128 68.955 311.586 Q67.1494 308.021 63.5152 308.021 M63.5152 304.317 Q69.3254 304.317 72.3809 308.924 Q75.4596 313.507 75.4596 322.257 Q75.4596 330.984 72.3809 335.59 Q69.3254 340.174 63.5152 340.174 Q57.7051 340.174 54.6264 335.59 Q51.5708 330.984 51.5708 322.257 Q51.5708 313.507 54.6264 308.924 Q57.7051 304.317 63.5152 304.317 Z" fill="#000000" fill-rule="evenodd" fill-opacity="1" /><path clip-path="url(#clip670)" d="M83.6771 333.623 L88.5614 333.623 L88.5614 339.502 L83.6771 339.502 L83.6771 333.623 Z" fill="#000000" fill-rule="evenodd" fill-opacity="1" /><path clip-path="url(#clip670)" d="M108.746 323.091 Q105.413 323.091 103.492 324.873 Q101.594 326.655 101.594 329.78 Q101.594 332.905 103.492 334.688 Q105.413 336.47 108.746 336.47 Q112.08 336.47 114.001 334.688 Q115.922 332.882 115.922 329.78 Q115.922 326.655 114.001 324.873 Q112.103 323.091 108.746 323.091 M104.071 321.1 Q101.061 320.359 99.3715 318.299 Q97.7048 316.239 97.7048 313.276 Q97.7048 309.132 100.645 306.725 Q103.608 304.317 108.746 304.317 Q113.908 304.317 116.848 306.725 Q119.788 309.132 119.788 313.276 Q119.788 316.239 118.098 318.299 Q116.432 320.359 113.445 321.1 Q116.825 321.887 118.7 324.178 Q120.598 326.47 120.598 329.78 Q120.598 334.803 117.52 337.489 Q114.464 340.174 108.746 340.174 Q103.029 340.174 99.9502 337.489 Q96.8947 334.803 96.8947 329.78 Q96.8947 326.47 98.7928 324.178 Q100.691 321.887 104.071 321.1 M102.358 313.716 Q102.358 316.401 104.024 317.905 Q105.714 319.41 108.746 319.41 Q111.756 319.41 113.445 317.905 Q115.158 316.401 115.158 313.716 Q115.158 311.03 113.445 309.526 Q111.756 308.021 108.746 308.021 Q105.714 308.021 104.024 309.526 Q102.358 311.03 102.358 313.716 Z" fill="#000000" fill-rule="evenodd" fill-opacity="1" /><polyline clip-path="url(#clip672)" style="stroke:#009af9; stroke-linecap:butt; stroke-linejoin:round; stroke-width:4; stroke-opacity:1; fill:none" points="
  943.179,1183.51 1450.08,1198.73 2005.96,1127.64 1987.38,1271.69 2290.6,1445.72 1432.62,363.823 218.754,205.485 1280.08,803.509 982.177,1158.43 1726.24,87.9763 
  
  "/>
<path clip-path="url(#clip670)" d="
M1987.12 198.898 L2279.55 198.898 L2279.55 95.2176 L1987.12 95.2176  Z
  " fill="#ffffff" fill-rule="evenodd" fill-opacity="1"/>
<polyline clip-path="url(#clip670)" style="stroke:#000000; stroke-linecap:butt; stroke-linejoin:round; stroke-width:4; stroke-opacity:1; fill:none" points="
  1987.12,198.898 2279.55,198.898 2279.55,95.2176 1987.12,95.2176 1987.12,198.898 
  "/>
<polyline clip-path="url(#clip670)" style="stroke:#009af9; stroke-linecap:butt; stroke-linejoin:round; stroke-width:4; stroke-opacity:1; fill:none" points="
  2011.12,147.058 2155.12,147.058 
  "/>
<path clip-path="url(#clip670)" d="M2192.96 166.745 Q2191.16 171.375 2189.44 172.787 Q2187.73 174.199 2184.86 174.199 L2181.46 174.199 L2181.46 170.634 L2183.96 170.634 Q2185.72 170.634 2186.69 169.8 Q2187.66 168.967 2188.84 165.865 L2189.61 163.921 L2179.12 138.412 L2183.63 138.412 L2191.74 158.689 L2199.84 138.412 L2204.35 138.412 L2192.96 166.745 Z" fill="#000000" fill-rule="evenodd" fill-opacity="1" /><path clip-path="url(#clip670)" d="M2211.64 160.402 L2219.28 160.402 L2219.28 134.037 L2210.97 135.703 L2210.97 131.444 L2219.24 129.778 L2223.91 129.778 L2223.91 160.402 L2231.55 160.402 L2231.55 164.338 L2211.64 164.338 L2211.64 160.402 Z" fill="#000000" fill-rule="evenodd" fill-opacity="1" /></svg>
