<?xml version="1.0" encoding="utf-8"?>
<svg xmlns="http://www.w3.org/2000/svg" xmlns:xlink="http://www.w3.org/1999/xlink" width="600" height="400" viewBox="0 0 2400 1600">
<defs>
  <clipPath id="clip680">
    <rect x="0" y="0" width="2400" height="1600"/>
  </clipPath>
</defs>
<path clip-path="url(#clip680)" d="
M0 1600 L2400 1600 L2400 0 L0 0  Z
  " fill="#ffffff" fill-rule="evenodd" fill-opacity="1"/>
<defs>
  <clipPath id="clip681">
    <rect x="480" y="0" width="1681" height="1600"/>
  </clipPath>
</defs>
<path clip-path="url(#clip680)" d="
M156.598 1486.45 L2352.76 1486.45 L2352.76 47.2441 L156.598 47.2441  Z
  " fill="#ffffff" fill-rule="evenodd" fill-opacity="1"/>
<defs>
  <clipPath id="clip682">
    <rect x="156" y="47" width="2197" height="1440"/>
  </clipPath>
</defs>
<polyline clip-path="url(#clip682)" style="stroke:#000000; stroke-linecap:butt; stroke-linejoin:round; stroke-width:2; stroke-opacity:0.1; fill:none" points="
  423.42,1486.45 423.42,47.2441 
  "/>
<polyline clip-path="url(#clip682)" style="stroke:#000000; stroke-linecap:butt; stroke-linejoin:round; stroke-width:2; stroke-opacity:0.1; fill:none" points="
  706.862,1486.45 706.862,47.2441 
  "/>
<polyline clip-path="url(#clip682)" style="stroke:#000000; stroke-linecap:butt; stroke-linejoin:round; stroke-width:2; stroke-opacity:0.1; fill:none" points="
  990.304,1486.45 990.304,47.2441 
  "/>
<polyline clip-path="url(#clip682)" style="stroke:#000000; stroke-linecap:butt; stroke-linejoin:round; stroke-width:2; stroke-opacity:0.1; fill:none" points="
  1273.75,1486.45 1273.75,47.2441 
  "/>
<polyline clip-path="url(#clip682)" style="stroke:#000000; stroke-linecap:butt; stroke-linejoin:round; stroke-width:2; stroke-opacity:0.1; fill:none" points="
  1557.19,1486.45 1557.19,47.2441 
  "/>
<polyline clip-path="url(#clip682)" style="stroke:#000000; stroke-linecap:butt; stroke-linejoin:round; stroke-width:2; stroke-opacity:0.1; fill:none" points="
  1840.63,1486.45 1840.63,47.2441 
  "/>
<polyline clip-path="url(#clip682)" style="stroke:#000000; stroke-linecap:butt; stroke-linejoin:round; stroke-width:2; stroke-opacity:0.1; fill:none" points="
  2124.07,1486.45 2124.07,47.2441 
  "/>
<polyline clip-path="url(#clip680)" style="stroke:#000000; stroke-linecap:butt; stroke-linejoin:round; stroke-width:4; stroke-opacity:1; fill:none" points="
  156.598,1486.45 2352.76,1486.45 
  "/>
<polyline clip-path="url(#clip680)" style="stroke:#000000; stroke-linecap:butt; stroke-linejoin:round; stroke-width:4; stroke-opacity:1; fill:none" points="
  423.42,1486.45 423.42,1467.55 
  "/>
<polyline clip-path="url(#clip680)" style="stroke:#000000; stroke-linecap:butt; stroke-linejoin:round; stroke-width:4; stroke-opacity:1; fill:none" points="
  706.862,1486.45 706.862,1467.55 
  "/>
<polyline clip-path="url(#clip680)" style="stroke:#000000; stroke-linecap:butt; stroke-linejoin:round; stroke-width:4; stroke-opacity:1; fill:none" points="
  990.304,1486.45 990.304,1467.55 
  "/>
<polyline clip-path="url(#clip680)" style="stroke:#000000; stroke-linecap:butt; stroke-linejoin:round; stroke-width:4; stroke-opacity:1; fill:none" points="
  1273.75,1486.45 1273.75,1467.55 
  "/>
<polyline clip-path="url(#clip680)" style="stroke:#000000; stroke-linecap:butt; stroke-linejoin:round; stroke-width:4; stroke-opacity:1; fill:none" points="
  1557.19,1486.45 1557.19,1467.55 
  "/>
<polyline clip-path="url(#clip680)" style="stroke:#000000; stroke-linecap:butt; stroke-linejoin:round; stroke-width:4; stroke-opacity:1; fill:none" points="
  1840.63,1486.45 1840.63,1467.55 
  "/>
<polyline clip-path="url(#clip680)" style="stroke:#000000; stroke-linecap:butt; stroke-linejoin:round; stroke-width:4; stroke-opacity:1; fill:none" points="
  2124.07,1486.45 2124.07,1467.55 
  "/>
<path clip-path="url(#clip680)" d="M401.128 1517.37 Q397.517 1517.37 395.689 1520.93 Q393.883 1524.47 393.883 1531.6 Q393.883 1538.71 395.689 1542.27 Q397.517 1545.82 401.128 1545.82 Q404.763 1545.82 406.568 1542.27 Q408.397 1538.71 408.397 1531.6 Q408.397 1524.47 406.568 1520.93 Q404.763 1517.37 401.128 1517.37 M401.128 1513.66 Q406.938 1513.66 409.994 1518.27 Q413.073 1522.85 413.073 1531.6 Q413.073 1540.33 409.994 1544.94 Q406.938 1549.52 401.128 1549.52 Q395.318 1549.52 392.24 1544.94 Q389.184 1540.33 389.184 1531.6 Q389.184 1522.85 392.24 1518.27 Q395.318 1513.66 401.128 1513.66 Z" fill="#000000" fill-rule="evenodd" fill-opacity="1" /><path clip-path="url(#clip680)" d="M421.29 1542.97 L426.175 1542.97 L426.175 1548.85 L421.29 1548.85 L421.29 1542.97 Z" fill="#000000" fill-rule="evenodd" fill-opacity="1" /><path clip-path="url(#clip680)" d="M450.526 1530.21 Q453.883 1530.93 455.758 1533.2 Q457.656 1535.47 457.656 1538.8 Q457.656 1543.92 454.137 1546.72 Q450.619 1549.52 444.137 1549.52 Q441.961 1549.52 439.647 1549.08 Q437.355 1548.66 434.901 1547.81 L434.901 1543.29 Q436.846 1544.43 439.161 1545.01 Q441.475 1545.58 443.998 1545.58 Q448.397 1545.58 450.688 1543.85 Q453.003 1542.11 453.003 1538.8 Q453.003 1535.75 450.85 1534.03 Q448.721 1532.3 444.901 1532.3 L440.874 1532.3 L440.874 1528.45 L445.086 1528.45 Q448.535 1528.45 450.364 1527.09 Q452.193 1525.7 452.193 1523.11 Q452.193 1520.45 450.295 1519.03 Q448.42 1517.6 444.901 1517.6 Q442.98 1517.6 440.781 1518.01 Q438.582 1518.43 435.943 1519.31 L435.943 1515.14 Q438.605 1514.4 440.92 1514.03 Q443.258 1513.66 445.318 1513.66 Q450.642 1513.66 453.744 1516.09 Q456.846 1518.5 456.846 1522.62 Q456.846 1525.49 455.202 1527.48 Q453.559 1529.45 450.526 1530.21 Z" fill="#000000" fill-rule="evenodd" fill-opacity="1" /><path clip-path="url(#clip680)" d="M684.004 1517.37 Q680.392 1517.37 678.564 1520.93 Q676.758 1524.47 676.758 1531.6 Q676.758 1538.71 678.564 1542.27 Q680.392 1545.82 684.004 1545.82 Q687.638 1545.82 689.443 1542.27 Q691.272 1538.71 691.272 1531.6 Q691.272 1524.47 689.443 1520.93 Q687.638 1517.37 684.004 1517.37 M684.004 1513.66 Q689.814 1513.66 692.869 1518.27 Q695.948 1522.85 695.948 1531.6 Q695.948 1540.33 692.869 1544.94 Q689.814 1549.52 684.004 1549.52 Q678.193 1549.52 675.115 1544.94 Q672.059 1540.33 672.059 1531.6 Q672.059 1522.85 675.115 1518.27 Q678.193 1513.66 684.004 1513.66 Z" fill="#000000" fill-rule="evenodd" fill-opacity="1" /><path clip-path="url(#clip680)" d="M704.165 1542.97 L709.05 1542.97 L709.05 1548.85 L704.165 1548.85 L704.165 1542.97 Z" fill="#000000" fill-rule="evenodd" fill-opacity="1" /><path clip-path="url(#clip680)" d="M732.082 1518.36 L720.276 1536.81 L732.082 1536.81 L732.082 1518.36 M730.855 1514.29 L736.735 1514.29 L736.735 1536.81 L741.665 1536.81 L741.665 1540.7 L736.735 1540.7 L736.735 1548.85 L732.082 1548.85 L732.082 1540.7 L716.48 1540.7 L716.48 1536.19 L730.855 1514.29 Z" fill="#000000" fill-rule="evenodd" fill-opacity="1" /><path clip-path="url(#clip680)" d="M968.187 1517.37 Q964.575 1517.37 962.747 1520.93 Q960.941 1524.47 960.941 1531.6 Q960.941 1538.71 962.747 1542.27 Q964.575 1545.82 968.187 1545.82 Q971.821 1545.82 973.626 1542.27 Q975.455 1538.71 975.455 1531.6 Q975.455 1524.47 973.626 1520.93 Q971.821 1517.37 968.187 1517.37 M968.187 1513.66 Q973.997 1513.66 977.052 1518.27 Q980.131 1522.85 980.131 1531.6 Q980.131 1540.33 977.052 1544.94 Q973.997 1549.52 968.187 1549.52 Q962.376 1549.52 959.298 1544.94 Q956.242 1540.33 956.242 1531.6 Q956.242 1522.85 959.298 1518.27 Q962.376 1513.66 968.187 1513.66 Z" fill="#000000" fill-rule="evenodd" fill-opacity="1" /><path clip-path="url(#clip680)" d="M988.348 1542.97 L993.233 1542.97 L993.233 1548.85 L988.348 1548.85 L988.348 1542.97 Z" fill="#000000" fill-rule="evenodd" fill-opacity="1" /><path clip-path="url(#clip680)" d="M1003.46 1514.29 L1021.82 1514.29 L1021.82 1518.22 L1007.75 1518.22 L1007.75 1526.7 Q1008.77 1526.35 1009.78 1526.19 Q1010.8 1526 1011.82 1526 Q1017.61 1526 1020.99 1529.17 Q1024.37 1532.34 1024.37 1537.76 Q1024.37 1543.34 1020.89 1546.44 Q1017.42 1549.52 1011.1 1549.52 Q1008.93 1549.52 1006.66 1549.15 Q1004.41 1548.78 1002.01 1548.04 L1002.01 1543.34 Q1004.09 1544.47 1006.31 1545.03 Q1008.53 1545.58 1011.01 1545.58 Q1015.01 1545.58 1017.35 1543.48 Q1019.69 1541.37 1019.69 1537.76 Q1019.69 1534.15 1017.35 1532.04 Q1015.01 1529.94 1011.01 1529.94 Q1009.14 1529.94 1007.26 1530.35 Q1005.41 1530.77 1003.46 1531.65 L1003.46 1514.29 Z" fill="#000000" fill-rule="evenodd" fill-opacity="1" /><path clip-path="url(#clip680)" d="M1251.05 1517.37 Q1247.44 1517.37 1245.61 1520.93 Q1243.8 1524.47 1243.8 1531.6 Q1243.8 1538.71 1245.61 1542.27 Q1247.44 1545.82 1251.05 1545.82 Q1254.68 1545.82 1256.49 1542.27 Q1258.32 1538.71 1258.32 1531.6 Q1258.32 1524.47 1256.49 1520.93 Q1254.68 1517.37 1251.05 1517.37 M1251.05 1513.66 Q1256.86 1513.66 1259.92 1518.27 Q1262.99 1522.85 1262.99 1531.6 Q1262.99 1540.33 1259.92 1544.94 Q1256.86 1549.52 1251.05 1549.52 Q1245.24 1549.52 1242.16 1544.94 Q1239.11 1540.33 1239.11 1531.6 Q1239.11 1522.85 1242.16 1518.27 Q1245.24 1513.66 1251.05 1513.66 Z" fill="#000000" fill-rule="evenodd" fill-opacity="1" /><path clip-path="url(#clip680)" d="M1271.21 1542.97 L1276.1 1542.97 L1276.1 1548.85 L1271.21 1548.85 L1271.21 1542.97 Z" fill="#000000" fill-rule="evenodd" fill-opacity="1" /><path clip-path="url(#clip680)" d="M1296.86 1529.7 Q1293.71 1529.7 1291.86 1531.86 Q1290.03 1534.01 1290.03 1537.76 Q1290.03 1541.49 1291.86 1543.66 Q1293.71 1545.82 1296.86 1545.82 Q1300.01 1545.82 1301.84 1543.66 Q1303.69 1541.49 1303.69 1537.76 Q1303.69 1534.01 1301.84 1531.86 Q1300.01 1529.7 1296.86 1529.7 M1306.14 1515.05 L1306.14 1519.31 Q1304.38 1518.48 1302.58 1518.04 Q1300.8 1517.6 1299.04 1517.6 Q1294.41 1517.6 1291.95 1520.72 Q1289.52 1523.85 1289.17 1530.17 Q1290.54 1528.15 1292.6 1527.09 Q1294.66 1526 1297.14 1526 Q1302.35 1526 1305.36 1529.17 Q1308.39 1532.32 1308.39 1537.76 Q1308.39 1543.08 1305.24 1546.3 Q1302.09 1549.52 1296.86 1549.52 Q1290.86 1549.52 1287.69 1544.94 Q1284.52 1540.33 1284.52 1531.6 Q1284.52 1523.41 1288.41 1518.55 Q1292.3 1513.66 1298.85 1513.66 Q1300.61 1513.66 1302.39 1514.01 Q1304.2 1514.36 1306.14 1515.05 Z" fill="#000000" fill-rule="evenodd" fill-opacity="1" /><path clip-path="url(#clip680)" d="M1535.02 1517.37 Q1531.41 1517.37 1529.59 1520.93 Q1527.78 1524.47 1527.78 1531.6 Q1527.78 1538.71 1529.59 1542.27 Q1531.41 1545.82 1535.02 1545.82 Q1538.66 1545.82 1540.46 1542.27 Q1542.29 1538.71 1542.29 1531.6 Q1542.29 1524.47 1540.46 1520.93 Q1538.66 1517.37 1535.02 1517.37 M1535.02 1513.66 Q1540.83 1513.66 1543.89 1518.27 Q1546.97 1522.85 1546.97 1531.6 Q1546.97 1540.33 1543.89 1544.94 Q1540.83 1549.52 1535.02 1549.52 Q1529.21 1549.52 1526.14 1544.94 Q1523.08 1540.33 1523.08 1531.6 Q1523.08 1522.85 1526.14 1518.27 Q1529.21 1513.66 1535.02 1513.66 Z" fill="#000000" fill-rule="evenodd" fill-opacity="1" /><path clip-path="url(#clip680)" d="M1555.19 1542.97 L1560.07 1542.97 L1560.07 1548.85 L1555.19 1548.85 L1555.19 1542.97 Z" fill="#000000" fill-rule="evenodd" fill-opacity="1" /><path clip-path="url(#clip680)" d="M1569.08 1514.29 L1591.3 1514.29 L1591.3 1516.28 L1578.75 1548.85 L1573.87 1548.85 L1585.67 1518.22 L1569.08 1518.22 L1569.08 1514.29 Z" fill="#000000" fill-rule="evenodd" fill-opacity="1" /><path clip-path="url(#clip680)" d="M1818.06 1517.37 Q1814.45 1517.37 1812.62 1520.93 Q1810.82 1524.47 1810.82 1531.6 Q1810.82 1538.71 1812.62 1542.27 Q1814.45 1545.82 1818.06 1545.82 Q1821.7 1545.82 1823.5 1542.27 Q1825.33 1538.71 1825.33 1531.6 Q1825.33 1524.47 1823.5 1520.93 Q1821.7 1517.37 1818.06 1517.37 M1818.06 1513.66 Q1823.87 1513.66 1826.93 1518.27 Q1830.01 1522.85 1830.01 1531.6 Q1830.01 1540.33 1826.93 1544.94 Q1823.87 1549.52 1818.06 1549.52 Q1812.25 1549.52 1809.17 1544.94 Q1806.12 1540.33 1806.12 1531.6 Q1806.12 1522.85 1809.17 1518.27 Q1812.25 1513.66 1818.06 1513.66 Z" fill="#000000" fill-rule="evenodd" fill-opacity="1" /><path clip-path="url(#clip680)" d="M1838.22 1542.97 L1843.11 1542.97 L1843.11 1548.85 L1838.22 1548.85 L1838.22 1542.97 Z" fill="#000000" fill-rule="evenodd" fill-opacity="1" /><path clip-path="url(#clip680)" d="M1863.29 1532.44 Q1859.96 1532.44 1858.04 1534.22 Q1856.14 1536 1856.14 1539.13 Q1856.14 1542.25 1858.04 1544.03 Q1859.96 1545.82 1863.29 1545.82 Q1866.63 1545.82 1868.55 1544.03 Q1870.47 1542.23 1870.47 1539.13 Q1870.47 1536 1868.55 1534.22 Q1866.65 1532.44 1863.29 1532.44 M1858.62 1530.45 Q1855.61 1529.7 1853.92 1527.64 Q1852.25 1525.58 1852.25 1522.62 Q1852.25 1518.48 1855.19 1516.07 Q1858.15 1513.66 1863.29 1513.66 Q1868.46 1513.66 1871.4 1516.07 Q1874.33 1518.48 1874.33 1522.62 Q1874.33 1525.58 1872.65 1527.64 Q1870.98 1529.7 1867.99 1530.45 Q1871.37 1531.23 1873.25 1533.52 Q1875.15 1535.82 1875.15 1539.13 Q1875.15 1544.15 1872.07 1546.83 Q1869.01 1549.52 1863.29 1549.52 Q1857.58 1549.52 1854.5 1546.83 Q1851.44 1544.15 1851.44 1539.13 Q1851.44 1535.82 1853.34 1533.52 Q1855.24 1531.23 1858.62 1530.45 M1856.9 1523.06 Q1856.9 1525.75 1858.57 1527.25 Q1860.26 1528.76 1863.29 1528.76 Q1866.3 1528.76 1867.99 1527.25 Q1869.71 1525.75 1869.71 1523.06 Q1869.71 1520.38 1867.99 1518.87 Q1866.3 1517.37 1863.29 1517.37 Q1860.26 1517.37 1858.57 1518.87 Q1856.9 1520.38 1856.9 1523.06 Z" fill="#000000" fill-rule="evenodd" fill-opacity="1" /><path clip-path="url(#clip680)" d="M2101.55 1517.37 Q2097.94 1517.37 2096.11 1520.93 Q2094.31 1524.47 2094.31 1531.6 Q2094.31 1538.71 2096.11 1542.27 Q2097.94 1545.82 2101.55 1545.82 Q2105.18 1545.82 2106.99 1542.27 Q2108.82 1538.71 2108.82 1531.6 Q2108.82 1524.47 2106.99 1520.93 Q2105.18 1517.37 2101.55 1517.37 M2101.55 1513.66 Q2107.36 1513.66 2110.42 1518.27 Q2113.49 1522.85 2113.49 1531.6 Q2113.49 1540.33 2110.42 1544.94 Q2107.36 1549.52 2101.55 1549.52 Q2095.74 1549.52 2092.66 1544.94 Q2089.61 1540.33 2089.61 1531.6 Q2089.61 1522.85 2092.66 1518.27 Q2095.74 1513.66 2101.55 1513.66 Z" fill="#000000" fill-rule="evenodd" fill-opacity="1" /><path clip-path="url(#clip680)" d="M2121.71 1542.97 L2126.6 1542.97 L2126.6 1548.85 L2121.71 1548.85 L2121.71 1542.97 Z" fill="#000000" fill-rule="evenodd" fill-opacity="1" /><path clip-path="url(#clip680)" d="M2136.92 1548.13 L2136.92 1543.87 Q2138.68 1544.7 2140.49 1545.14 Q2142.29 1545.58 2144.03 1545.58 Q2148.66 1545.58 2151.09 1542.48 Q2153.54 1539.36 2153.89 1533.01 Q2152.55 1535.01 2150.49 1536.07 Q2148.43 1537.13 2145.93 1537.13 Q2140.74 1537.13 2137.71 1534.01 Q2134.7 1530.86 2134.7 1525.42 Q2134.7 1520.1 2137.85 1516.88 Q2140.99 1513.66 2146.23 1513.66 Q2152.22 1513.66 2155.37 1518.27 Q2158.54 1522.85 2158.54 1531.6 Q2158.54 1539.77 2154.65 1544.66 Q2150.79 1549.52 2144.24 1549.52 Q2142.48 1549.52 2140.67 1549.17 Q2138.87 1548.82 2136.92 1548.13 M2146.23 1533.48 Q2149.37 1533.48 2151.2 1531.32 Q2153.05 1529.17 2153.05 1525.42 Q2153.05 1521.7 2151.2 1519.54 Q2149.37 1517.37 2146.23 1517.37 Q2143.08 1517.37 2141.23 1519.54 Q2139.4 1521.7 2139.4 1525.42 Q2139.4 1529.17 2141.23 1531.32 Q2143.08 1533.48 2146.23 1533.48 Z" fill="#000000" fill-rule="evenodd" fill-opacity="1" /><polyline clip-path="url(#clip682)" style="stroke:#000000; stroke-linecap:butt; stroke-linejoin:round; stroke-width:2; stroke-opacity:0.1; fill:none" points="
  156.598,1229.14 2352.76,1229.14 
  "/>
<polyline clip-path="url(#clip682)" style="stroke:#000000; stroke-linecap:butt; stroke-linejoin:round; stroke-width:2; stroke-opacity:0.1; fill:none" points="
  156.598,925.745 2352.76,925.745 
  "/>
<polyline clip-path="url(#clip682)" style="stroke:#000000; stroke-linecap:butt; stroke-linejoin:round; stroke-width:2; stroke-opacity:0.1; fill:none" points="
  156.598,622.344 2352.76,622.344 
  "/>
<polyline clip-path="url(#clip682)" style="stroke:#000000; stroke-linecap:butt; stroke-linejoin:round; stroke-width:2; stroke-opacity:0.1; fill:none" points="
  156.598,318.944 2352.76,318.944 
  "/>
<polyline clip-path="url(#clip680)" style="stroke:#000000; stroke-linecap:butt; stroke-linejoin:round; stroke-width:4; stroke-opacity:1; fill:none" points="
  156.598,1486.45 156.598,47.2441 
  "/>
<polyline clip-path="url(#clip680)" style="stroke:#000000; stroke-linecap:butt; stroke-linejoin:round; stroke-width:4; stroke-opacity:1; fill:none" points="
  156.598,1229.14 175.496,1229.14 
  "/>
<polyline clip-path="url(#clip680)" style="stroke:#000000; stroke-linecap:butt; stroke-linejoin:round; stroke-width:4; stroke-opacity:1; fill:none" points="
  156.598,925.745 175.496,925.745 
  "/>
<polyline clip-path="url(#clip680)" style="stroke:#000000; stroke-linecap:butt; stroke-linejoin:round; stroke-width:4; stroke-opacity:1; fill:none" points="
  156.598,622.344 175.496,622.344 
  "/>
<polyline clip-path="url(#clip680)" style="stroke:#000000; stroke-linecap:butt; stroke-linejoin:round; stroke-width:4; stroke-opacity:1; fill:none" points="
  156.598,318.944 175.496,318.944 
  "/>
<path clip-path="url(#clip680)" d="M65.0198 1214.94 Q61.4087 1214.94 59.58 1218.51 Q57.7745 1222.05 57.7745 1229.18 Q57.7745 1236.29 59.58 1239.85 Q61.4087 1243.39 65.0198 1243.39 Q68.6541 1243.39 70.4596 1239.85 Q72.2883 1236.29 72.2883 1229.18 Q72.2883 1222.05 70.4596 1218.51 Q68.6541 1214.94 65.0198 1214.94 M65.0198 1211.24 Q70.83 1211.24 73.8855 1215.85 Q76.9642 1220.43 76.9642 1229.18 Q76.9642 1237.91 73.8855 1242.51 Q70.83 1247.1 65.0198 1247.1 Q59.2097 1247.1 56.131 1242.51 Q53.0754 1237.91 53.0754 1229.18 Q53.0754 1220.43 56.131 1215.85 Q59.2097 1211.24 65.0198 1211.24 Z" fill="#000000" fill-rule="evenodd" fill-opacity="1" /><path clip-path="url(#clip680)" d="M85.1818 1240.55 L90.066 1240.55 L90.066 1246.42 L85.1818 1246.42 L85.1818 1240.55 Z" fill="#000000" fill-rule="evenodd" fill-opacity="1" /><path clip-path="url(#clip680)" d="M104.279 1242.49 L120.598 1242.49 L120.598 1246.42 L98.6539 1246.42 L98.6539 1242.49 Q101.316 1239.74 105.899 1235.11 Q110.506 1230.45 111.686 1229.11 Q113.932 1226.59 114.811 1224.85 Q115.714 1223.09 115.714 1221.4 Q115.714 1218.65 113.77 1216.91 Q111.848 1215.17 108.746 1215.17 Q106.547 1215.17 104.094 1215.94 Q101.663 1216.7 98.8854 1218.25 L98.8854 1213.53 Q101.709 1212.4 104.163 1211.82 Q106.617 1211.24 108.654 1211.24 Q114.024 1211.24 117.219 1213.93 Q120.413 1216.61 120.413 1221.1 Q120.413 1223.23 119.603 1225.15 Q118.816 1227.05 116.709 1229.64 Q116.131 1230.31 113.029 1233.53 Q109.927 1236.73 104.279 1242.49 Z" fill="#000000" fill-rule="evenodd" fill-opacity="1" /><path clip-path="url(#clip680)" d="M62.9365 911.543 Q59.3254 911.543 57.4967 915.108 Q55.6912 918.65 55.6912 925.779 Q55.6912 932.886 57.4967 936.451 Q59.3254 939.992 62.9365 939.992 Q66.5707 939.992 68.3763 936.451 Q70.205 932.886 70.205 925.779 Q70.205 918.65 68.3763 915.108 Q66.5707 911.543 62.9365 911.543 M62.9365 907.84 Q68.7467 907.84 71.8022 912.446 Q74.8809 917.029 74.8809 925.779 Q74.8809 934.506 71.8022 939.113 Q68.7467 943.696 62.9365 943.696 Q57.1264 943.696 54.0477 939.113 Q50.9921 934.506 50.9921 925.779 Q50.9921 917.029 54.0477 912.446 Q57.1264 907.84 62.9365 907.84 Z" fill="#000000" fill-rule="evenodd" fill-opacity="1" /><path clip-path="url(#clip680)" d="M83.0984 937.145 L87.9827 937.145 L87.9827 943.025 L83.0984 943.025 L83.0984 937.145 Z" fill="#000000" fill-rule="evenodd" fill-opacity="1" /><path clip-path="url(#clip680)" d="M111.015 912.539 L99.2095 930.988 L111.015 930.988 L111.015 912.539 M109.788 908.465 L115.668 908.465 L115.668 930.988 L120.598 930.988 L120.598 934.877 L115.668 934.877 L115.668 943.025 L111.015 943.025 L111.015 934.877 L95.4132 934.877 L95.4132 930.363 L109.788 908.465 Z" fill="#000000" fill-rule="evenodd" fill-opacity="1" /><path clip-path="url(#clip680)" d="M63.2606 608.143 Q59.6495 608.143 57.8208 611.708 Q56.0152 615.25 56.0152 622.379 Q56.0152 629.486 57.8208 633.05 Q59.6495 636.592 63.2606 636.592 Q66.8948 636.592 68.7004 633.05 Q70.5291 629.486 70.5291 622.379 Q70.5291 615.25 68.7004 611.708 Q66.8948 608.143 63.2606 608.143 M63.2606 604.439 Q69.0707 604.439 72.1263 609.046 Q75.205 613.629 75.205 622.379 Q75.205 631.106 72.1263 635.712 Q69.0707 640.296 63.2606 640.296 Q57.4504 640.296 54.3717 635.712 Q51.3162 631.106 51.3162 622.379 Q51.3162 613.629 54.3717 609.046 Q57.4504 604.439 63.2606 604.439 Z" fill="#000000" fill-rule="evenodd" fill-opacity="1" /><path clip-path="url(#clip680)" d="M83.4225 633.745 L88.3067 633.745 L88.3067 639.624 L83.4225 639.624 L83.4225 633.745 Z" fill="#000000" fill-rule="evenodd" fill-opacity="1" /><path clip-path="url(#clip680)" d="M109.071 620.481 Q105.922 620.481 104.071 622.634 Q102.242 624.787 102.242 628.537 Q102.242 632.263 104.071 634.439 Q105.922 636.592 109.071 636.592 Q112.219 636.592 114.047 634.439 Q115.899 632.263 115.899 628.537 Q115.899 624.787 114.047 622.634 Q112.219 620.481 109.071 620.481 M118.353 605.828 L118.353 610.088 Q116.594 609.254 114.788 608.814 Q113.006 608.375 111.246 608.375 Q106.617 608.375 104.163 611.5 Q101.733 614.625 101.385 620.944 Q102.751 618.93 104.811 617.865 Q106.871 616.777 109.348 616.777 Q114.557 616.777 117.566 619.949 Q120.598 623.097 120.598 628.537 Q120.598 633.861 117.45 637.078 Q114.302 640.296 109.071 640.296 Q103.075 640.296 99.9039 635.712 Q96.7326 631.106 96.7326 622.379 Q96.7326 614.185 100.621 609.324 Q104.51 604.439 111.061 604.439 Q112.82 604.439 114.603 604.787 Q116.408 605.134 118.353 605.828 Z" fill="#000000" fill-rule="evenodd" fill-opacity="1" /><path clip-path="url(#clip680)" d="M63.5152 304.743 Q59.9041 304.743 58.0754 308.308 Q56.2699 311.849 56.2699 318.979 Q56.2699 326.085 58.0754 329.65 Q59.9041 333.192 63.5152 333.192 Q67.1494 333.192 68.955 329.65 Q70.7837 326.085 70.7837 318.979 Q70.7837 311.849 68.955 308.308 Q67.1494 304.743 63.5152 304.743 M63.5152 301.039 Q69.3254 301.039 72.3809 305.646 Q75.4596 310.229 75.4596 318.979 Q75.4596 327.706 72.3809 332.312 Q69.3254 336.896 63.5152 336.896 Q57.7051 336.896 54.6264 332.312 Q51.5708 327.706 51.5708 318.979 Q51.5708 310.229 54.6264 305.646 Q57.7051 301.039 63.5152 301.039 Z" fill="#000000" fill-rule="evenodd" fill-opacity="1" /><path clip-path="url(#clip680)" d="M83.6771 330.345 L88.5614 330.345 L88.5614 336.224 L83.6771 336.224 L83.6771 330.345 Z" fill="#000000" fill-rule="evenodd" fill-opacity="1" /><path clip-path="url(#clip680)" d="M108.746 319.812 Q105.413 319.812 103.492 321.595 Q101.594 323.377 101.594 326.502 Q101.594 329.627 103.492 331.409 Q105.413 333.192 108.746 333.192 Q112.08 333.192 114.001 331.409 Q115.922 329.604 115.922 326.502 Q115.922 323.377 114.001 321.595 Q112.103 319.812 108.746 319.812 M104.071 317.822 Q101.061 317.081 99.3715 315.021 Q97.7048 312.961 97.7048 309.998 Q97.7048 305.854 100.645 303.447 Q103.608 301.039 108.746 301.039 Q113.908 301.039 116.848 303.447 Q119.788 305.854 119.788 309.998 Q119.788 312.961 118.098 315.021 Q116.432 317.081 113.445 317.822 Q116.825 318.609 118.7 320.9 Q120.598 323.192 120.598 326.502 Q120.598 331.525 117.52 334.21 Q114.464 336.896 108.746 336.896 Q103.029 336.896 99.9502 334.21 Q96.8947 331.525 96.8947 326.502 Q96.8947 323.192 98.7928 320.9 Q100.691 318.609 104.071 317.822 M102.358 310.437 Q102.358 313.123 104.024 314.627 Q105.714 316.132 108.746 316.132 Q111.756 316.132 113.445 314.627 Q115.158 313.123 115.158 310.437 Q115.158 307.752 113.445 306.248 Q111.756 304.743 108.746 304.743 Q105.714 304.743 104.024 306.248 Q102.358 307.752 102.358 310.437 Z" fill="#000000" fill-rule="evenodd" fill-opacity="1" /><polyline clip-path="url(#clip682)" style="stroke:#009af9; stroke-linecap:butt; stroke-linejoin:round; stroke-width:4; stroke-opacity:1; fill:none" points="
  636.521,546.113 1041.36,1101.86 2290.6,87.9763 415.284,664.655 2075.03,1445.72 1899.26,802.976 1691.24,1277.37 218.754,507.71 1864.88,1132.34 1381.8,562.523 
  
  "/>
<path clip-path="url(#clip680)" d="
M1987.12 198.898 L2279.55 198.898 L2279.55 95.2176 L1987.12 95.2176  Z
  " fill="#ffffff" fill-rule="evenodd" fill-opacity="1"/>
<polyline clip-path="url(#clip680)" style="stroke:#000000; stroke-linecap:butt; stroke-linejoin:round; stroke-width:4; stroke-opacity:1; fill:none" points="
  1987.12,198.898 2279.55,198.898 2279.55,95.2176 1987.12,95.2176 1987.12,198.898 
  "/>
<polyline clip-path="url(#clip680)" style="stroke:#009af9; stroke-linecap:butt; stroke-linejoin:round; stroke-width:4; stroke-opacity:1; fill:none" points="
  2011.12,147.058 2155.12,147.058 
  "/>
<path clip-path="url(#clip680)" d="M2192.96 166.745 Q2191.16 171.375 2189.44 172.787 Q2187.73 174.199 2184.86 174.199 L2181.46 174.199 L2181.46 170.634 L2183.96 170.634 Q2185.72 170.634 2186.69 169.8 Q2187.66 168.967 2188.84 165.865 L2189.61 163.921 L2179.12 138.412 L2183.63 138.412 L2191.74 158.689 L2199.84 138.412 L2204.35 138.412 L2192.96 166.745 Z" fill="#000000" fill-rule="evenodd" fill-opacity="1" /><path clip-path="url(#clip680)" d="M2211.64 160.402 L2219.28 160.402 L2219.28 134.037 L2210.97 135.703 L2210.97 131.444 L2219.24 129.778 L2223.91 129.778 L2223.91 160.402 L2231.55 160.402 L2231.55 164.338 L2211.64 164.338 L2211.64 160.402 Z" fill="#000000" fill-rule="evenodd" fill-opacity="1" /></svg>
