<?xml version="1.0" encoding="utf-8"?>
<svg xmlns="http://www.w3.org/2000/svg" xmlns:xlink="http://www.w3.org/1999/xlink" width="600" height="400" viewBox="0 0 2400 1600">
<defs>
  <clipPath id="clip570">
    <rect x="0" y="0" width="2400" height="1600"/>
  </clipPath>
</defs>
<path clip-path="url(#clip570)" d="
M0 1600 L2400 1600 L2400 0 L0 0  Z
  " fill="#ffffff" fill-rule="evenodd" fill-opacity="1"/>
<defs>
  <clipPath id="clip571">
    <rect x="480" y="0" width="1681" height="1600"/>
  </clipPath>
</defs>
<path clip-path="url(#clip570)" d="
M156.598 1486.45 L2352.76 1486.45 L2352.76 47.2441 L156.598 47.2441  Z
  " fill="#ffffff" fill-rule="evenodd" fill-opacity="1"/>
<defs>
  <clipPath id="clip572">
    <rect x="156" y="47" width="2197" height="1440"/>
  </clipPath>
</defs>
<polyline clip-path="url(#clip572)" style="stroke:#000000; stroke-linecap:butt; stroke-linejoin:round; stroke-width:2; stroke-opacity:0.1; fill:none" points="
  215.485,1486.45 215.485,47.2441 
  "/>
<polyline clip-path="url(#clip572)" style="stroke:#000000; stroke-linecap:butt; stroke-linejoin:round; stroke-width:2; stroke-opacity:0.1; fill:none" points="
  745.694,1486.45 745.694,47.2441 
  "/>
<polyline clip-path="url(#clip572)" style="stroke:#000000; stroke-linecap:butt; stroke-linejoin:round; stroke-width:2; stroke-opacity:0.1; fill:none" points="
  1275.9,1486.45 1275.9,47.2441 
  "/>
<polyline clip-path="url(#clip572)" style="stroke:#000000; stroke-linecap:butt; stroke-linejoin:round; stroke-width:2; stroke-opacity:0.1; fill:none" points="
  1806.11,1486.45 1806.11,47.2441 
  "/>
<polyline clip-path="url(#clip572)" style="stroke:#000000; stroke-linecap:butt; stroke-linejoin:round; stroke-width:2; stroke-opacity:0.1; fill:none" points="
  2336.32,1486.45 2336.32,47.2441 
  "/>
<polyline clip-path="url(#clip570)" style="stroke:#000000; stroke-linecap:butt; stroke-linejoin:round; stroke-width:4; stroke-opacity:1; fill:none" points="
  156.598,1486.45 2352.76,1486.45 
  "/>
<polyline clip-path="url(#clip570)" style="stroke:#000000; stroke-linecap:butt; stroke-linejoin:round; stroke-width:4; stroke-opacity:1; fill:none" points="
  215.485,1486.45 215.485,1467.55 
  "/>
<polyline clip-path="url(#clip570)" style="stroke:#000000; stroke-linecap:butt; stroke-linejoin:round; stroke-width:4; stroke-opacity:1; fill:none" points="
  745.694,1486.45 745.694,1467.55 
  "/>
<polyline clip-path="url(#clip570)" style="stroke:#000000; stroke-linecap:butt; stroke-linejoin:round; stroke-width:4; stroke-opacity:1; fill:none" points="
  1275.9,1486.45 1275.9,1467.55 
  "/>
<polyline clip-path="url(#clip570)" style="stroke:#000000; stroke-linecap:butt; stroke-linejoin:round; stroke-width:4; stroke-opacity:1; fill:none" points="
  1806.11,1486.45 1806.11,1467.55 
  "/>
<polyline clip-path="url(#clip570)" style="stroke:#000000; stroke-linecap:butt; stroke-linejoin:round; stroke-width:4; stroke-opacity:1; fill:none" points="
  2336.32,1486.45 2336.32,1467.55 
  "/>
<path clip-path="url(#clip570)" d="M192.87 1517.37 Q189.259 1517.37 187.43 1520.93 Q185.625 1524.47 185.625 1531.6 Q185.625 1538.71 187.43 1542.27 Q189.259 1545.82 192.87 1545.82 Q196.504 1545.82 198.31 1542.27 Q200.138 1538.71 200.138 1531.6 Q200.138 1524.47 198.31 1520.93 Q196.504 1517.37 192.87 1517.37 M192.87 1513.66 Q198.68 1513.66 201.736 1518.27 Q204.814 1522.85 204.814 1531.6 Q204.814 1540.33 201.736 1544.94 Q198.68 1549.52 192.87 1549.52 Q187.06 1549.52 183.981 1544.94 Q180.925 1540.33 180.925 1531.6 Q180.925 1522.85 183.981 1518.27 Q187.06 1513.66 192.87 1513.66 Z" fill="#000000" fill-rule="evenodd" fill-opacity="1" /><path clip-path="url(#clip570)" d="M213.032 1542.97 L217.916 1542.97 L217.916 1548.85 L213.032 1548.85 L213.032 1542.97 Z" fill="#000000" fill-rule="evenodd" fill-opacity="1" /><path clip-path="url(#clip570)" d="M238.101 1517.37 Q234.49 1517.37 232.661 1520.93 Q230.856 1524.47 230.856 1531.6 Q230.856 1538.71 232.661 1542.27 Q234.49 1545.82 238.101 1545.82 Q241.735 1545.82 243.541 1542.27 Q245.37 1538.71 245.37 1531.6 Q245.37 1524.47 243.541 1520.93 Q241.735 1517.37 238.101 1517.37 M238.101 1513.66 Q243.911 1513.66 246.967 1518.27 Q250.045 1522.85 250.045 1531.6 Q250.045 1540.33 246.967 1544.94 Q243.911 1549.52 238.101 1549.52 Q232.291 1549.52 229.212 1544.94 Q226.157 1540.33 226.157 1531.6 Q226.157 1522.85 229.212 1518.27 Q232.291 1513.66 238.101 1513.66 Z" fill="#000000" fill-rule="evenodd" fill-opacity="1" /><path clip-path="url(#clip570)" d="M723.877 1517.37 Q720.266 1517.37 718.438 1520.93 Q716.632 1524.47 716.632 1531.6 Q716.632 1538.71 718.438 1542.27 Q720.266 1545.82 723.877 1545.82 Q727.512 1545.82 729.317 1542.27 Q731.146 1538.71 731.146 1531.6 Q731.146 1524.47 729.317 1520.93 Q727.512 1517.37 723.877 1517.37 M723.877 1513.66 Q729.688 1513.66 732.743 1518.27 Q735.822 1522.85 735.822 1531.6 Q735.822 1540.33 732.743 1544.94 Q729.688 1549.52 723.877 1549.52 Q718.067 1549.52 714.989 1544.94 Q711.933 1540.33 711.933 1531.6 Q711.933 1522.85 714.989 1518.27 Q718.067 1513.66 723.877 1513.66 Z" fill="#000000" fill-rule="evenodd" fill-opacity="1" /><path clip-path="url(#clip570)" d="M744.039 1542.97 L748.924 1542.97 L748.924 1548.85 L744.039 1548.85 L744.039 1542.97 Z" fill="#000000" fill-rule="evenodd" fill-opacity="1" /><path clip-path="url(#clip570)" d="M763.137 1544.91 L779.456 1544.91 L779.456 1548.85 L757.512 1548.85 L757.512 1544.91 Q760.174 1542.16 764.757 1537.53 Q769.363 1532.88 770.544 1531.53 Q772.789 1529.01 773.669 1527.27 Q774.572 1525.51 774.572 1523.82 Q774.572 1521.07 772.627 1519.33 Q770.706 1517.6 767.604 1517.6 Q765.405 1517.6 762.951 1518.36 Q760.521 1519.13 757.743 1520.68 L757.743 1515.95 Q760.567 1514.82 763.021 1514.24 Q765.474 1513.66 767.512 1513.66 Q772.882 1513.66 776.076 1516.35 Q779.271 1519.03 779.271 1523.52 Q779.271 1525.65 778.461 1527.57 Q777.673 1529.47 775.567 1532.07 Q774.988 1532.74 771.886 1535.95 Q768.785 1539.15 763.137 1544.91 Z" fill="#000000" fill-rule="evenodd" fill-opacity="1" /><path clip-path="url(#clip570)" d="M1253.04 1517.37 Q1249.43 1517.37 1247.61 1520.93 Q1245.8 1524.47 1245.8 1531.6 Q1245.8 1538.71 1247.61 1542.27 Q1249.43 1545.82 1253.04 1545.82 Q1256.68 1545.82 1258.48 1542.27 Q1260.31 1538.71 1260.31 1531.6 Q1260.31 1524.47 1258.48 1520.93 Q1256.68 1517.37 1253.04 1517.37 M1253.04 1513.66 Q1258.85 1513.66 1261.91 1518.27 Q1264.99 1522.85 1264.99 1531.6 Q1264.99 1540.33 1261.91 1544.94 Q1258.85 1549.52 1253.04 1549.52 Q1247.23 1549.52 1244.16 1544.94 Q1241.1 1540.33 1241.1 1531.6 Q1241.1 1522.85 1244.16 1518.27 Q1247.23 1513.66 1253.04 1513.66 Z" fill="#000000" fill-rule="evenodd" fill-opacity="1" /><path clip-path="url(#clip570)" d="M1273.21 1542.97 L1278.09 1542.97 L1278.09 1548.85 L1273.21 1548.85 L1273.21 1542.97 Z" fill="#000000" fill-rule="evenodd" fill-opacity="1" /><path clip-path="url(#clip570)" d="M1301.12 1518.36 L1289.32 1536.81 L1301.12 1536.81 L1301.12 1518.36 M1299.9 1514.29 L1305.78 1514.29 L1305.78 1536.81 L1310.71 1536.81 L1310.71 1540.7 L1305.78 1540.7 L1305.78 1548.85 L1301.12 1548.85 L1301.12 1540.7 L1285.52 1540.7 L1285.52 1536.19 L1299.9 1514.29 Z" fill="#000000" fill-rule="evenodd" fill-opacity="1" /><path clip-path="url(#clip570)" d="M1783.42 1517.37 Q1779.8 1517.37 1777.98 1520.93 Q1776.17 1524.47 1776.17 1531.6 Q1776.17 1538.71 1777.98 1542.27 Q1779.8 1545.82 1783.42 1545.82 Q1787.05 1545.82 1788.86 1542.27 Q1790.68 1538.71 1790.68 1531.6 Q1790.68 1524.47 1788.86 1520.93 Q1787.05 1517.37 1783.42 1517.37 M1783.42 1513.66 Q1789.23 1513.66 1792.28 1518.27 Q1795.36 1522.85 1795.36 1531.6 Q1795.36 1540.33 1792.28 1544.94 Q1789.23 1549.52 1783.42 1549.52 Q1777.61 1549.52 1774.53 1544.94 Q1771.47 1540.33 1771.47 1531.6 Q1771.47 1522.85 1774.53 1518.27 Q1777.61 1513.66 1783.42 1513.66 Z" fill="#000000" fill-rule="evenodd" fill-opacity="1" /><path clip-path="url(#clip570)" d="M1803.58 1542.97 L1808.46 1542.97 L1808.46 1548.85 L1803.58 1548.85 L1803.58 1542.97 Z" fill="#000000" fill-rule="evenodd" fill-opacity="1" /><path clip-path="url(#clip570)" d="M1829.23 1529.7 Q1826.08 1529.7 1824.23 1531.86 Q1822.4 1534.01 1822.4 1537.76 Q1822.4 1541.49 1824.23 1543.66 Q1826.08 1545.82 1829.23 1545.82 Q1832.37 1545.82 1834.2 1543.66 Q1836.05 1541.49 1836.05 1537.76 Q1836.05 1534.01 1834.2 1531.86 Q1832.37 1529.7 1829.23 1529.7 M1838.51 1515.05 L1838.51 1519.31 Q1836.75 1518.48 1834.94 1518.04 Q1833.16 1517.6 1831.4 1517.6 Q1826.77 1517.6 1824.32 1520.72 Q1821.89 1523.85 1821.54 1530.17 Q1822.91 1528.15 1824.97 1527.09 Q1827.03 1526 1829.5 1526 Q1834.71 1526 1837.72 1529.17 Q1840.75 1532.32 1840.75 1537.76 Q1840.75 1543.08 1837.61 1546.3 Q1834.46 1549.52 1829.23 1549.52 Q1823.23 1549.52 1820.06 1544.94 Q1816.89 1540.33 1816.89 1531.6 Q1816.89 1523.41 1820.78 1518.55 Q1824.67 1513.66 1831.22 1513.66 Q1832.98 1513.66 1834.76 1514.01 Q1836.56 1514.36 1838.51 1515.05 Z" fill="#000000" fill-rule="evenodd" fill-opacity="1" /><path clip-path="url(#clip570)" d="M2313.75 1517.37 Q2310.14 1517.37 2308.31 1520.93 Q2306.51 1524.47 2306.51 1531.6 Q2306.51 1538.71 2308.31 1542.27 Q2310.14 1545.82 2313.75 1545.82 Q2317.39 1545.82 2319.19 1542.27 Q2321.02 1538.71 2321.02 1531.6 Q2321.02 1524.47 2319.19 1520.93 Q2317.39 1517.37 2313.75 1517.37 M2313.75 1513.66 Q2319.56 1513.66 2322.62 1518.27 Q2325.7 1522.85 2325.7 1531.6 Q2325.7 1540.33 2322.62 1544.94 Q2319.56 1549.52 2313.75 1549.52 Q2307.94 1549.52 2304.86 1544.94 Q2301.81 1540.33 2301.81 1531.6 Q2301.81 1522.85 2304.86 1518.27 Q2307.94 1513.66 2313.75 1513.66 Z" fill="#000000" fill-rule="evenodd" fill-opacity="1" /><path clip-path="url(#clip570)" d="M2333.91 1542.97 L2338.8 1542.97 L2338.8 1548.85 L2333.91 1548.85 L2333.91 1542.97 Z" fill="#000000" fill-rule="evenodd" fill-opacity="1" /><path clip-path="url(#clip570)" d="M2358.98 1532.44 Q2355.65 1532.44 2353.73 1534.22 Q2351.83 1536 2351.83 1539.13 Q2351.83 1542.25 2353.73 1544.03 Q2355.65 1545.82 2358.98 1545.82 Q2362.32 1545.82 2364.24 1544.03 Q2366.16 1542.23 2366.16 1539.13 Q2366.16 1536 2364.24 1534.22 Q2362.34 1532.44 2358.98 1532.44 M2354.31 1530.45 Q2351.3 1529.7 2349.61 1527.64 Q2347.94 1525.58 2347.94 1522.62 Q2347.94 1518.48 2350.88 1516.07 Q2353.84 1513.66 2358.98 1513.66 Q2364.15 1513.66 2367.09 1516.07 Q2370.03 1518.48 2370.03 1522.62 Q2370.03 1525.58 2368.34 1527.64 Q2366.67 1529.7 2363.68 1530.45 Q2367.06 1531.23 2368.94 1533.52 Q2370.84 1535.82 2370.84 1539.13 Q2370.84 1544.15 2367.76 1546.83 Q2364.7 1549.52 2358.98 1549.52 Q2353.27 1549.52 2350.19 1546.83 Q2347.13 1544.15 2347.13 1539.13 Q2347.13 1535.82 2349.03 1533.52 Q2350.93 1531.23 2354.31 1530.45 M2352.59 1523.06 Q2352.59 1525.75 2354.26 1527.25 Q2355.95 1528.76 2358.98 1528.76 Q2361.99 1528.76 2363.68 1527.25 Q2365.4 1525.75 2365.4 1523.06 Q2365.4 1520.38 2363.68 1518.87 Q2361.99 1517.37 2358.98 1517.37 Q2355.95 1517.37 2354.26 1518.87 Q2352.59 1520.38 2352.59 1523.06 Z" fill="#000000" fill-rule="evenodd" fill-opacity="1" /><polyline clip-path="url(#clip572)" style="stroke:#000000; stroke-linecap:butt; stroke-linejoin:round; stroke-width:2; stroke-opacity:0.1; fill:none" points="
  156.598,1450.43 2352.76,1450.43 
  "/>
<polyline clip-path="url(#clip572)" style="stroke:#000000; stroke-linecap:butt; stroke-linejoin:round; stroke-width:2; stroke-opacity:0.1; fill:none" points="
  156.598,1063.04 2352.76,1063.04 
  "/>
<polyline clip-path="url(#clip572)" style="stroke:#000000; stroke-linecap:butt; stroke-linejoin:round; stroke-width:2; stroke-opacity:0.1; fill:none" points="
  156.598,675.663 2352.76,675.663 
  "/>
<polyline clip-path="url(#clip572)" style="stroke:#000000; stroke-linecap:butt; stroke-linejoin:round; stroke-width:2; stroke-opacity:0.1; fill:none" points="
  156.598,288.282 2352.76,288.282 
  "/>
<polyline clip-path="url(#clip570)" style="stroke:#000000; stroke-linecap:butt; stroke-linejoin:round; stroke-width:4; stroke-opacity:1; fill:none" points="
  156.598,1486.45 156.598,47.2441 
  "/>
<polyline clip-path="url(#clip570)" style="stroke:#000000; stroke-linecap:butt; stroke-linejoin:round; stroke-width:4; stroke-opacity:1; fill:none" points="
  156.598,1450.43 175.496,1450.43 
  "/>
<polyline clip-path="url(#clip570)" style="stroke:#000000; stroke-linecap:butt; stroke-linejoin:round; stroke-width:4; stroke-opacity:1; fill:none" points="
  156.598,1063.04 175.496,1063.04 
  "/>
<polyline clip-path="url(#clip570)" style="stroke:#000000; stroke-linecap:butt; stroke-linejoin:round; stroke-width:4; stroke-opacity:1; fill:none" points="
  156.598,675.663 175.496,675.663 
  "/>
<polyline clip-path="url(#clip570)" style="stroke:#000000; stroke-linecap:butt; stroke-linejoin:round; stroke-width:4; stroke-opacity:1; fill:none" points="
  156.598,288.282 175.496,288.282 
  "/>
<path clip-path="url(#clip570)" d="M63.4226 1436.22 Q59.8115 1436.22 57.9828 1439.79 Q56.1773 1443.33 56.1773 1450.46 Q56.1773 1457.57 57.9828 1461.13 Q59.8115 1464.67 63.4226 1464.67 Q67.0569 1464.67 68.8624 1461.13 Q70.6911 1457.57 70.6911 1450.46 Q70.6911 1443.33 68.8624 1439.79 Q67.0569 1436.22 63.4226 1436.22 M63.4226 1432.52 Q69.2328 1432.52 72.2883 1437.13 Q75.367 1441.71 75.367 1450.46 Q75.367 1459.19 72.2883 1463.79 Q69.2328 1468.38 63.4226 1468.38 Q57.6125 1468.38 54.5338 1463.79 Q51.4782 1459.19 51.4782 1450.46 Q51.4782 1441.71 54.5338 1437.13 Q57.6125 1432.52 63.4226 1432.52 Z" fill="#000000" fill-rule="evenodd" fill-opacity="1" /><path clip-path="url(#clip570)" d="M83.5845 1461.83 L88.4688 1461.83 L88.4688 1467.71 L83.5845 1467.71 L83.5845 1461.83 Z" fill="#000000" fill-rule="evenodd" fill-opacity="1" /><path clip-path="url(#clip570)" d="M108.654 1436.22 Q105.043 1436.22 103.214 1439.79 Q101.409 1443.33 101.409 1450.46 Q101.409 1457.57 103.214 1461.13 Q105.043 1464.67 108.654 1464.67 Q112.288 1464.67 114.094 1461.13 Q115.922 1457.57 115.922 1450.46 Q115.922 1443.33 114.094 1439.79 Q112.288 1436.22 108.654 1436.22 M108.654 1432.52 Q114.464 1432.52 117.52 1437.13 Q120.598 1441.71 120.598 1450.46 Q120.598 1459.19 117.52 1463.79 Q114.464 1468.38 108.654 1468.38 Q102.844 1468.38 99.765 1463.79 Q96.7095 1459.19 96.7095 1450.46 Q96.7095 1441.71 99.765 1437.13 Q102.844 1432.52 108.654 1432.52 Z" fill="#000000" fill-rule="evenodd" fill-opacity="1" /><path clip-path="url(#clip570)" d="M65.0198 1048.84 Q61.4087 1048.84 59.58 1052.41 Q57.7745 1055.95 57.7745 1063.08 Q57.7745 1070.19 59.58 1073.75 Q61.4087 1077.29 65.0198 1077.29 Q68.6541 1077.29 70.4596 1073.75 Q72.2883 1070.19 72.2883 1063.08 Q72.2883 1055.95 70.4596 1052.41 Q68.6541 1048.84 65.0198 1048.84 M65.0198 1045.14 Q70.83 1045.14 73.8855 1049.75 Q76.9642 1054.33 76.9642 1063.08 Q76.9642 1071.81 73.8855 1076.41 Q70.83 1081 65.0198 1081 Q59.2097 1081 56.131 1076.41 Q53.0754 1071.81 53.0754 1063.08 Q53.0754 1054.33 56.131 1049.75 Q59.2097 1045.14 65.0198 1045.14 Z" fill="#000000" fill-rule="evenodd" fill-opacity="1" /><path clip-path="url(#clip570)" d="M85.1818 1074.44 L90.066 1074.44 L90.066 1080.32 L85.1818 1080.32 L85.1818 1074.44 Z" fill="#000000" fill-rule="evenodd" fill-opacity="1" /><path clip-path="url(#clip570)" d="M104.279 1076.39 L120.598 1076.39 L120.598 1080.32 L98.6539 1080.32 L98.6539 1076.39 Q101.316 1073.63 105.899 1069 Q110.506 1064.35 111.686 1063.01 Q113.932 1060.49 114.811 1058.75 Q115.714 1056.99 115.714 1055.3 Q115.714 1052.55 113.77 1050.81 Q111.848 1049.07 108.746 1049.07 Q106.547 1049.07 104.094 1049.84 Q101.663 1050.6 98.8854 1052.15 L98.8854 1047.43 Q101.709 1046.3 104.163 1045.72 Q106.617 1045.14 108.654 1045.14 Q114.024 1045.14 117.219 1047.82 Q120.413 1050.51 120.413 1055 Q120.413 1057.13 119.603 1059.05 Q118.816 1060.95 116.709 1063.54 Q116.131 1064.21 113.029 1067.43 Q109.927 1070.63 104.279 1076.39 Z" fill="#000000" fill-rule="evenodd" fill-opacity="1" /><path clip-path="url(#clip570)" d="M62.9365 661.462 Q59.3254 661.462 57.4967 665.026 Q55.6912 668.568 55.6912 675.698 Q55.6912 682.804 57.4967 686.369 Q59.3254 689.911 62.9365 689.911 Q66.5707 689.911 68.3763 686.369 Q70.205 682.804 70.205 675.698 Q70.205 668.568 68.3763 665.026 Q66.5707 661.462 62.9365 661.462 M62.9365 657.758 Q68.7467 657.758 71.8022 662.364 Q74.8809 666.948 74.8809 675.698 Q74.8809 684.424 71.8022 689.031 Q68.7467 693.614 62.9365 693.614 Q57.1264 693.614 54.0477 689.031 Q50.9921 684.424 50.9921 675.698 Q50.9921 666.948 54.0477 662.364 Q57.1264 657.758 62.9365 657.758 Z" fill="#000000" fill-rule="evenodd" fill-opacity="1" /><path clip-path="url(#clip570)" d="M83.0984 687.063 L87.9827 687.063 L87.9827 692.943 L83.0984 692.943 L83.0984 687.063 Z" fill="#000000" fill-rule="evenodd" fill-opacity="1" /><path clip-path="url(#clip570)" d="M111.015 662.457 L99.2095 680.906 L111.015 680.906 L111.015 662.457 M109.788 658.383 L115.668 658.383 L115.668 680.906 L120.598 680.906 L120.598 684.795 L115.668 684.795 L115.668 692.943 L111.015 692.943 L111.015 684.795 L95.4132 684.795 L95.4132 680.281 L109.788 658.383 Z" fill="#000000" fill-rule="evenodd" fill-opacity="1" /><path clip-path="url(#clip570)" d="M63.2606 274.08 Q59.6495 274.08 57.8208 277.645 Q56.0152 281.187 56.0152 288.316 Q56.0152 295.423 57.8208 298.988 Q59.6495 302.529 63.2606 302.529 Q66.8948 302.529 68.7004 298.988 Q70.5291 295.423 70.5291 288.316 Q70.5291 281.187 68.7004 277.645 Q66.8948 274.08 63.2606 274.08 M63.2606 270.377 Q69.0707 270.377 72.1263 274.983 Q75.205 279.567 75.205 288.316 Q75.205 297.043 72.1263 301.65 Q69.0707 306.233 63.2606 306.233 Q57.4504 306.233 54.3717 301.65 Q51.3162 297.043 51.3162 288.316 Q51.3162 279.567 54.3717 274.983 Q57.4504 270.377 63.2606 270.377 Z" fill="#000000" fill-rule="evenodd" fill-opacity="1" /><path clip-path="url(#clip570)" d="M83.4225 299.682 L88.3067 299.682 L88.3067 305.562 L83.4225 305.562 L83.4225 299.682 Z" fill="#000000" fill-rule="evenodd" fill-opacity="1" /><path clip-path="url(#clip570)" d="M109.071 286.418 Q105.922 286.418 104.071 288.571 Q102.242 290.724 102.242 294.474 Q102.242 298.201 104.071 300.377 Q105.922 302.529 109.071 302.529 Q112.219 302.529 114.047 300.377 Q115.899 298.201 115.899 294.474 Q115.899 290.724 114.047 288.571 Q112.219 286.418 109.071 286.418 M118.353 271.766 L118.353 276.025 Q116.594 275.192 114.788 274.752 Q113.006 274.312 111.246 274.312 Q106.617 274.312 104.163 277.437 Q101.733 280.562 101.385 286.881 Q102.751 284.867 104.811 283.803 Q106.871 282.715 109.348 282.715 Q114.557 282.715 117.566 285.886 Q120.598 289.034 120.598 294.474 Q120.598 299.798 117.45 303.015 Q114.302 306.233 109.071 306.233 Q103.075 306.233 99.9039 301.65 Q96.7326 297.043 96.7326 288.316 Q96.7326 280.122 100.621 275.261 Q104.51 270.377 111.061 270.377 Q112.82 270.377 114.603 270.724 Q116.408 271.071 118.353 271.766 Z" fill="#000000" fill-rule="evenodd" fill-opacity="1" /><polyline clip-path="url(#clip572)" style="stroke:#009af9; stroke-linecap:butt; stroke-linejoin:round; stroke-width:4; stroke-opacity:1; fill:none" points="
  636.012,1434.72 1909.47,1445.72 218.754,87.9763 1846.91,482.184 527.85,536.891 2290.6,542.722 2286.68,572.642 2201.51,1377.46 1582.77,931.484 1424.42,1152.77 
  
  "/>
<path clip-path="url(#clip570)" d="
M1987.12 198.898 L2279.55 198.898 L2279.55 95.2176 L1987.12 95.2176  Z
  " fill="#ffffff" fill-rule="evenodd" fill-opacity="1"/>
<polyline clip-path="url(#clip570)" style="stroke:#000000; stroke-linecap:butt; stroke-linejoin:round; stroke-width:4; stroke-opacity:1; fill:none" points="
  1987.12,198.898 2279.55,198.898 2279.55,95.2176 1987.12,95.2176 1987.12,198.898 
  "/>
<polyline clip-path="url(#clip570)" style="stroke:#009af9; stroke-linecap:butt; stroke-linejoin:round; stroke-width:4; stroke-opacity:1; fill:none" points="
  2011.12,147.058 2155.12,147.058 
  "/>
<path clip-path="url(#clip570)" d="M2192.96 166.745 Q2191.16 171.375 2189.44 172.787 Q2187.73 174.199 2184.86 174.199 L2181.46 174.199 L2181.46 170.634 L2183.96 170.634 Q2185.72 170.634 2186.69 169.8 Q2187.66 168.967 2188.84 165.865 L2189.61 163.921 L2179.12 138.412 L2183.63 138.412 L2191.74 158.689 L2199.84 138.412 L2204.35 138.412 L2192.96 166.745 Z" fill="#000000" fill-rule="evenodd" fill-opacity="1" /><path clip-path="url(#clip570)" d="M2211.64 160.402 L2219.28 160.402 L2219.28 134.037 L2210.97 135.703 L2210.97 131.444 L2219.24 129.778 L2223.91 129.778 L2223.91 160.402 L2231.55 160.402 L2231.55 164.338 L2211.64 164.338 L2211.64 160.402 Z" fill="#000000" fill-rule="evenodd" fill-opacity="1" /></svg>
