<?xml version="1.0" encoding="utf-8"?>
<svg xmlns="http://www.w3.org/2000/svg" xmlns:xlink="http://www.w3.org/1999/xlink" width="600" height="400" viewBox="0 0 2400 1600">
<defs>
  <clipPath id="clip820">
    <rect x="0" y="0" width="2400" height="1600"/>
  </clipPath>
</defs>
<path clip-path="url(#clip820)" d="
M0 1600 L2400 1600 L2400 0 L0 0  Z
  " fill="#ffffff" fill-rule="evenodd" fill-opacity="1"/>
<defs>
  <clipPath id="clip821">
    <rect x="480" y="0" width="1681" height="1600"/>
  </clipPath>
</defs>
<path clip-path="url(#clip820)" d="
M156.598 1486.45 L2352.76 1486.45 L2352.76 47.2441 L156.598 47.2441  Z
  " fill="#ffffff" fill-rule="evenodd" fill-opacity="1"/>
<defs>
  <clipPath id="clip822">
    <rect x="156" y="47" width="2197" height="1440"/>
  </clipPath>
</defs>
<polyline clip-path="url(#clip822)" style="stroke:#000000; stroke-linecap:butt; stroke-linejoin:round; stroke-width:2; stroke-opacity:0.1; fill:none" points="
  161.11,1486.45 161.11,47.2441 
  "/>
<polyline clip-path="url(#clip822)" style="stroke:#000000; stroke-linecap:butt; stroke-linejoin:round; stroke-width:2; stroke-opacity:0.1; fill:none" points="
  645.394,1486.45 645.394,47.2441 
  "/>
<polyline clip-path="url(#clip822)" style="stroke:#000000; stroke-linecap:butt; stroke-linejoin:round; stroke-width:2; stroke-opacity:0.1; fill:none" points="
  1129.68,1486.45 1129.68,47.2441 
  "/>
<polyline clip-path="url(#clip822)" style="stroke:#000000; stroke-linecap:butt; stroke-linejoin:round; stroke-width:2; stroke-opacity:0.1; fill:none" points="
  1613.96,1486.45 1613.96,47.2441 
  "/>
<polyline clip-path="url(#clip822)" style="stroke:#000000; stroke-linecap:butt; stroke-linejoin:round; stroke-width:2; stroke-opacity:0.1; fill:none" points="
  2098.25,1486.45 2098.25,47.2441 
  "/>
<polyline clip-path="url(#clip820)" style="stroke:#000000; stroke-linecap:butt; stroke-linejoin:round; stroke-width:4; stroke-opacity:1; fill:none" points="
  156.598,1486.45 2352.76,1486.45 
  "/>
<polyline clip-path="url(#clip820)" style="stroke:#000000; stroke-linecap:butt; stroke-linejoin:round; stroke-width:4; stroke-opacity:1; fill:none" points="
  161.11,1486.45 161.11,1467.55 
  "/>
<polyline clip-path="url(#clip820)" style="stroke:#000000; stroke-linecap:butt; stroke-linejoin:round; stroke-width:4; stroke-opacity:1; fill:none" points="
  645.394,1486.45 645.394,1467.55 
  "/>
<polyline clip-path="url(#clip820)" style="stroke:#000000; stroke-linecap:butt; stroke-linejoin:round; stroke-width:4; stroke-opacity:1; fill:none" points="
  1129.68,1486.45 1129.68,1467.55 
  "/>
<polyline clip-path="url(#clip820)" style="stroke:#000000; stroke-linecap:butt; stroke-linejoin:round; stroke-width:4; stroke-opacity:1; fill:none" points="
  1613.96,1486.45 1613.96,1467.55 
  "/>
<polyline clip-path="url(#clip820)" style="stroke:#000000; stroke-linecap:butt; stroke-linejoin:round; stroke-width:4; stroke-opacity:1; fill:none" points="
  2098.25,1486.45 2098.25,1467.55 
  "/>
<path clip-path="url(#clip820)" d="M138.494 1517.37 Q134.883 1517.37 133.054 1520.93 Q131.249 1524.47 131.249 1531.6 Q131.249 1538.71 133.054 1542.27 Q134.883 1545.82 138.494 1545.82 Q142.128 1545.82 143.934 1542.27 Q145.763 1538.71 145.763 1531.6 Q145.763 1524.47 143.934 1520.93 Q142.128 1517.37 138.494 1517.37 M138.494 1513.66 Q144.304 1513.66 147.36 1518.27 Q150.439 1522.85 150.439 1531.6 Q150.439 1540.33 147.36 1544.94 Q144.304 1549.52 138.494 1549.52 Q132.684 1549.52 129.605 1544.94 Q126.55 1540.33 126.55 1531.6 Q126.55 1522.85 129.605 1518.27 Q132.684 1513.66 138.494 1513.66 Z" fill="#000000" fill-rule="evenodd" fill-opacity="1" /><path clip-path="url(#clip820)" d="M158.656 1542.97 L163.54 1542.97 L163.54 1548.85 L158.656 1548.85 L158.656 1542.97 Z" fill="#000000" fill-rule="evenodd" fill-opacity="1" /><path clip-path="url(#clip820)" d="M183.725 1517.37 Q180.114 1517.37 178.286 1520.93 Q176.48 1524.47 176.48 1531.6 Q176.48 1538.71 178.286 1542.27 Q180.114 1545.82 183.725 1545.82 Q187.36 1545.82 189.165 1542.27 Q190.994 1538.71 190.994 1531.6 Q190.994 1524.47 189.165 1520.93 Q187.36 1517.37 183.725 1517.37 M183.725 1513.66 Q189.536 1513.66 192.591 1518.27 Q195.67 1522.85 195.67 1531.6 Q195.67 1540.33 192.591 1544.94 Q189.536 1549.52 183.725 1549.52 Q177.915 1549.52 174.837 1544.94 Q171.781 1540.33 171.781 1531.6 Q171.781 1522.85 174.837 1518.27 Q177.915 1513.66 183.725 1513.66 Z" fill="#000000" fill-rule="evenodd" fill-opacity="1" /><path clip-path="url(#clip820)" d="M623.577 1517.37 Q619.966 1517.37 618.138 1520.93 Q616.332 1524.47 616.332 1531.6 Q616.332 1538.71 618.138 1542.27 Q619.966 1545.82 623.577 1545.82 Q627.212 1545.82 629.017 1542.27 Q630.846 1538.71 630.846 1531.6 Q630.846 1524.47 629.017 1520.93 Q627.212 1517.37 623.577 1517.37 M623.577 1513.66 Q629.388 1513.66 632.443 1518.27 Q635.522 1522.85 635.522 1531.6 Q635.522 1540.33 632.443 1544.94 Q629.388 1549.52 623.577 1549.52 Q617.767 1549.52 614.689 1544.94 Q611.633 1540.33 611.633 1531.6 Q611.633 1522.85 614.689 1518.27 Q617.767 1513.66 623.577 1513.66 Z" fill="#000000" fill-rule="evenodd" fill-opacity="1" /><path clip-path="url(#clip820)" d="M643.739 1542.97 L648.624 1542.97 L648.624 1548.85 L643.739 1548.85 L643.739 1542.97 Z" fill="#000000" fill-rule="evenodd" fill-opacity="1" /><path clip-path="url(#clip820)" d="M662.836 1544.91 L679.156 1544.91 L679.156 1548.85 L657.211 1548.85 L657.211 1544.91 Q659.873 1542.16 664.457 1537.53 Q669.063 1532.88 670.244 1531.53 Q672.489 1529.01 673.369 1527.27 Q674.272 1525.51 674.272 1523.82 Q674.272 1521.07 672.327 1519.33 Q670.406 1517.6 667.304 1517.6 Q665.105 1517.6 662.651 1518.36 Q660.221 1519.13 657.443 1520.68 L657.443 1515.95 Q660.267 1514.82 662.721 1514.24 Q665.174 1513.66 667.211 1513.66 Q672.582 1513.66 675.776 1516.35 Q678.971 1519.03 678.971 1523.52 Q678.971 1525.65 678.16 1527.57 Q677.373 1529.47 675.267 1532.07 Q674.688 1532.74 671.586 1535.95 Q668.485 1539.15 662.836 1544.91 Z" fill="#000000" fill-rule="evenodd" fill-opacity="1" /><path clip-path="url(#clip820)" d="M1106.82 1517.37 Q1103.21 1517.37 1101.38 1520.93 Q1099.57 1524.47 1099.57 1531.6 Q1099.57 1538.71 1101.38 1542.27 Q1103.21 1545.82 1106.82 1545.82 Q1110.45 1545.82 1112.26 1542.27 Q1114.09 1538.71 1114.09 1531.6 Q1114.09 1524.47 1112.26 1520.93 Q1110.45 1517.37 1106.82 1517.37 M1106.82 1513.66 Q1112.63 1513.66 1115.69 1518.27 Q1118.76 1522.85 1118.76 1531.6 Q1118.76 1540.33 1115.69 1544.94 Q1112.63 1549.52 1106.82 1549.52 Q1101.01 1549.52 1097.93 1544.94 Q1094.88 1540.33 1094.88 1531.6 Q1094.88 1522.85 1097.93 1518.27 Q1101.01 1513.66 1106.82 1513.66 Z" fill="#000000" fill-rule="evenodd" fill-opacity="1" /><path clip-path="url(#clip820)" d="M1126.98 1542.97 L1131.87 1542.97 L1131.87 1548.85 L1126.98 1548.85 L1126.98 1542.97 Z" fill="#000000" fill-rule="evenodd" fill-opacity="1" /><path clip-path="url(#clip820)" d="M1154.9 1518.36 L1143.09 1536.81 L1154.9 1536.81 L1154.9 1518.36 M1153.67 1514.29 L1159.55 1514.29 L1159.55 1536.81 L1164.48 1536.81 L1164.48 1540.7 L1159.55 1540.7 L1159.55 1548.85 L1154.9 1548.85 L1154.9 1540.7 L1139.3 1540.7 L1139.3 1536.19 L1153.67 1514.29 Z" fill="#000000" fill-rule="evenodd" fill-opacity="1" /><path clip-path="url(#clip820)" d="M1591.27 1517.37 Q1587.66 1517.37 1585.83 1520.93 Q1584.02 1524.47 1584.02 1531.6 Q1584.02 1538.71 1585.83 1542.27 Q1587.66 1545.82 1591.27 1545.82 Q1594.9 1545.82 1596.71 1542.27 Q1598.54 1538.71 1598.54 1531.6 Q1598.54 1524.47 1596.71 1520.93 Q1594.9 1517.37 1591.27 1517.37 M1591.27 1513.66 Q1597.08 1513.66 1600.13 1518.27 Q1603.21 1522.85 1603.21 1531.6 Q1603.21 1540.33 1600.13 1544.94 Q1597.08 1549.52 1591.27 1549.52 Q1585.46 1549.52 1582.38 1544.94 Q1579.32 1540.33 1579.32 1531.6 Q1579.32 1522.85 1582.38 1518.27 Q1585.46 1513.66 1591.27 1513.66 Z" fill="#000000" fill-rule="evenodd" fill-opacity="1" /><path clip-path="url(#clip820)" d="M1611.43 1542.97 L1616.31 1542.97 L1616.31 1548.85 L1611.43 1548.85 L1611.43 1542.97 Z" fill="#000000" fill-rule="evenodd" fill-opacity="1" /><path clip-path="url(#clip820)" d="M1637.08 1529.7 Q1633.93 1529.7 1632.08 1531.86 Q1630.25 1534.01 1630.25 1537.76 Q1630.25 1541.49 1632.08 1543.66 Q1633.93 1545.82 1637.08 1545.82 Q1640.22 1545.82 1642.05 1543.66 Q1643.91 1541.49 1643.91 1537.76 Q1643.91 1534.01 1642.05 1531.86 Q1640.22 1529.7 1637.08 1529.7 M1646.36 1515.05 L1646.36 1519.31 Q1644.6 1518.48 1642.79 1518.04 Q1641.01 1517.6 1639.25 1517.6 Q1634.62 1517.6 1632.17 1520.72 Q1629.74 1523.85 1629.39 1530.17 Q1630.76 1528.15 1632.82 1527.09 Q1634.88 1526 1637.35 1526 Q1642.56 1526 1645.57 1529.17 Q1648.6 1532.32 1648.6 1537.76 Q1648.6 1543.08 1645.46 1546.3 Q1642.31 1549.52 1637.08 1549.52 Q1631.08 1549.52 1627.91 1544.94 Q1624.74 1540.33 1624.74 1531.6 Q1624.74 1523.41 1628.63 1518.55 Q1632.52 1513.66 1639.07 1513.66 Q1640.83 1513.66 1642.61 1514.01 Q1644.41 1514.36 1646.36 1515.05 Z" fill="#000000" fill-rule="evenodd" fill-opacity="1" /><path clip-path="url(#clip820)" d="M2075.68 1517.37 Q2072.07 1517.37 2070.24 1520.93 Q2068.43 1524.47 2068.43 1531.6 Q2068.43 1538.71 2070.24 1542.27 Q2072.07 1545.82 2075.68 1545.82 Q2079.31 1545.82 2081.12 1542.27 Q2082.95 1538.71 2082.95 1531.6 Q2082.95 1524.47 2081.12 1520.93 Q2079.31 1517.37 2075.68 1517.37 M2075.68 1513.66 Q2081.49 1513.66 2084.54 1518.27 Q2087.62 1522.85 2087.62 1531.6 Q2087.62 1540.33 2084.54 1544.94 Q2081.49 1549.52 2075.68 1549.52 Q2069.87 1549.52 2066.79 1544.94 Q2063.73 1540.33 2063.73 1531.6 Q2063.73 1522.85 2066.79 1518.27 Q2069.87 1513.66 2075.68 1513.66 Z" fill="#000000" fill-rule="evenodd" fill-opacity="1" /><path clip-path="url(#clip820)" d="M2095.84 1542.97 L2100.72 1542.97 L2100.72 1548.85 L2095.84 1548.85 L2095.84 1542.97 Z" fill="#000000" fill-rule="evenodd" fill-opacity="1" /><path clip-path="url(#clip820)" d="M2120.91 1532.44 Q2117.58 1532.44 2115.66 1534.22 Q2113.76 1536 2113.76 1539.13 Q2113.76 1542.25 2115.66 1544.03 Q2117.58 1545.82 2120.91 1545.82 Q2124.24 1545.82 2126.16 1544.03 Q2128.09 1542.23 2128.09 1539.13 Q2128.09 1536 2126.16 1534.22 Q2124.27 1532.44 2120.91 1532.44 M2116.23 1530.45 Q2113.22 1529.7 2111.53 1527.64 Q2109.87 1525.58 2109.87 1522.62 Q2109.87 1518.48 2112.81 1516.07 Q2115.77 1513.66 2120.91 1513.66 Q2126.07 1513.66 2129.01 1516.07 Q2131.95 1518.48 2131.95 1522.62 Q2131.95 1525.58 2130.26 1527.64 Q2128.6 1529.7 2125.61 1530.45 Q2128.99 1531.23 2130.86 1533.52 Q2132.76 1535.82 2132.76 1539.13 Q2132.76 1544.15 2129.68 1546.83 Q2126.63 1549.52 2120.91 1549.52 Q2115.19 1549.52 2112.11 1546.83 Q2109.06 1544.15 2109.06 1539.13 Q2109.06 1535.82 2110.96 1533.52 Q2112.85 1531.23 2116.23 1530.45 M2114.52 1523.06 Q2114.52 1525.75 2116.19 1527.25 Q2117.88 1528.76 2120.91 1528.76 Q2123.92 1528.76 2125.61 1527.25 Q2127.32 1525.75 2127.32 1523.06 Q2127.32 1520.38 2125.61 1518.87 Q2123.92 1517.37 2120.91 1517.37 Q2117.88 1517.37 2116.19 1518.87 Q2114.52 1520.38 2114.52 1523.06 Z" fill="#000000" fill-rule="evenodd" fill-opacity="1" /><polyline clip-path="url(#clip822)" style="stroke:#000000; stroke-linecap:butt; stroke-linejoin:round; stroke-width:2; stroke-opacity:0.1; fill:none" points="
  156.598,1202.75 2352.76,1202.75 
  "/>
<polyline clip-path="url(#clip822)" style="stroke:#000000; stroke-linecap:butt; stroke-linejoin:round; stroke-width:2; stroke-opacity:0.1; fill:none" points="
  156.598,918.146 2352.76,918.146 
  "/>
<polyline clip-path="url(#clip822)" style="stroke:#000000; stroke-linecap:butt; stroke-linejoin:round; stroke-width:2; stroke-opacity:0.1; fill:none" points="
  156.598,633.547 2352.76,633.547 
  "/>
<polyline clip-path="url(#clip822)" style="stroke:#000000; stroke-linecap:butt; stroke-linejoin:round; stroke-width:2; stroke-opacity:0.1; fill:none" points="
  156.598,348.947 2352.76,348.947 
  "/>
<polyline clip-path="url(#clip822)" style="stroke:#000000; stroke-linecap:butt; stroke-linejoin:round; stroke-width:2; stroke-opacity:0.1; fill:none" points="
  156.598,64.348 2352.76,64.348 
  "/>
<polyline clip-path="url(#clip820)" style="stroke:#000000; stroke-linecap:butt; stroke-linejoin:round; stroke-width:4; stroke-opacity:1; fill:none" points="
  156.598,1486.45 156.598,47.2441 
  "/>
<polyline clip-path="url(#clip820)" style="stroke:#000000; stroke-linecap:butt; stroke-linejoin:round; stroke-width:4; stroke-opacity:1; fill:none" points="
  156.598,1202.75 175.496,1202.75 
  "/>
<polyline clip-path="url(#clip820)" style="stroke:#000000; stroke-linecap:butt; stroke-linejoin:round; stroke-width:4; stroke-opacity:1; fill:none" points="
  156.598,918.146 175.496,918.146 
  "/>
<polyline clip-path="url(#clip820)" style="stroke:#000000; stroke-linecap:butt; stroke-linejoin:round; stroke-width:4; stroke-opacity:1; fill:none" points="
  156.598,633.547 175.496,633.547 
  "/>
<polyline clip-path="url(#clip820)" style="stroke:#000000; stroke-linecap:butt; stroke-linejoin:round; stroke-width:4; stroke-opacity:1; fill:none" points="
  156.598,348.947 175.496,348.947 
  "/>
<polyline clip-path="url(#clip820)" style="stroke:#000000; stroke-linecap:butt; stroke-linejoin:round; stroke-width:4; stroke-opacity:1; fill:none" points="
  156.598,64.348 175.496,64.348 
  "/>
<path clip-path="url(#clip820)" d="M65.0198 1188.54 Q61.4087 1188.54 59.58 1192.11 Q57.7745 1195.65 57.7745 1202.78 Q57.7745 1209.89 59.58 1213.45 Q61.4087 1216.99 65.0198 1216.99 Q68.6541 1216.99 70.4596 1213.45 Q72.2883 1209.89 72.2883 1202.78 Q72.2883 1195.65 70.4596 1192.11 Q68.6541 1188.54 65.0198 1188.54 M65.0198 1184.84 Q70.83 1184.84 73.8855 1189.45 Q76.9642 1194.03 76.9642 1202.78 Q76.9642 1211.51 73.8855 1216.11 Q70.83 1220.7 65.0198 1220.7 Q59.2097 1220.7 56.131 1216.11 Q53.0754 1211.51 53.0754 1202.78 Q53.0754 1194.03 56.131 1189.45 Q59.2097 1184.84 65.0198 1184.84 Z" fill="#000000" fill-rule="evenodd" fill-opacity="1" /><path clip-path="url(#clip820)" d="M85.1818 1214.15 L90.066 1214.15 L90.066 1220.03 L85.1818 1220.03 L85.1818 1214.15 Z" fill="#000000" fill-rule="evenodd" fill-opacity="1" /><path clip-path="url(#clip820)" d="M104.279 1216.09 L120.598 1216.09 L120.598 1220.03 L98.6539 1220.03 L98.6539 1216.09 Q101.316 1213.34 105.899 1208.71 Q110.506 1204.05 111.686 1202.71 Q113.932 1200.19 114.811 1198.45 Q115.714 1196.69 115.714 1195 Q115.714 1192.25 113.77 1190.51 Q111.848 1188.78 108.746 1188.78 Q106.547 1188.78 104.094 1189.54 Q101.663 1190.3 98.8854 1191.85 L98.8854 1187.13 Q101.709 1186 104.163 1185.42 Q106.617 1184.84 108.654 1184.84 Q114.024 1184.84 117.219 1187.53 Q120.413 1190.21 120.413 1194.7 Q120.413 1196.83 119.603 1198.75 Q118.816 1200.65 116.709 1203.24 Q116.131 1203.91 113.029 1207.13 Q109.927 1210.33 104.279 1216.09 Z" fill="#000000" fill-rule="evenodd" fill-opacity="1" /><path clip-path="url(#clip820)" d="M62.9365 903.945 Q59.3254 903.945 57.4967 907.51 Q55.6912 911.052 55.6912 918.181 Q55.6912 925.288 57.4967 928.852 Q59.3254 932.394 62.9365 932.394 Q66.5707 932.394 68.3763 928.852 Q70.205 925.288 70.205 918.181 Q70.205 911.052 68.3763 907.51 Q66.5707 903.945 62.9365 903.945 M62.9365 900.241 Q68.7467 900.241 71.8022 904.848 Q74.8809 909.431 74.8809 918.181 Q74.8809 926.908 71.8022 931.514 Q68.7467 936.098 62.9365 936.098 Q57.1264 936.098 54.0477 931.514 Q50.9921 926.908 50.9921 918.181 Q50.9921 909.431 54.0477 904.848 Q57.1264 900.241 62.9365 900.241 Z" fill="#000000" fill-rule="evenodd" fill-opacity="1" /><path clip-path="url(#clip820)" d="M83.0984 929.547 L87.9827 929.547 L87.9827 935.426 L83.0984 935.426 L83.0984 929.547 Z" fill="#000000" fill-rule="evenodd" fill-opacity="1" /><path clip-path="url(#clip820)" d="M111.015 904.941 L99.2095 923.389 L111.015 923.389 L111.015 904.941 M109.788 900.866 L115.668 900.866 L115.668 923.389 L120.598 923.389 L120.598 927.278 L115.668 927.278 L115.668 935.426 L111.015 935.426 L111.015 927.278 L95.4132 927.278 L95.4132 922.765 L109.788 900.866 Z" fill="#000000" fill-rule="evenodd" fill-opacity="1" /><path clip-path="url(#clip820)" d="M63.2606 619.346 Q59.6495 619.346 57.8208 622.91 Q56.0152 626.452 56.0152 633.582 Q56.0152 640.688 57.8208 644.253 Q59.6495 647.795 63.2606 647.795 Q66.8948 647.795 68.7004 644.253 Q70.5291 640.688 70.5291 633.582 Q70.5291 626.452 68.7004 622.91 Q66.8948 619.346 63.2606 619.346 M63.2606 615.642 Q69.0707 615.642 72.1263 620.248 Q75.205 624.832 75.205 633.582 Q75.205 642.309 72.1263 646.915 Q69.0707 651.498 63.2606 651.498 Q57.4504 651.498 54.3717 646.915 Q51.3162 642.309 51.3162 633.582 Q51.3162 624.832 54.3717 620.248 Q57.4504 615.642 63.2606 615.642 Z" fill="#000000" fill-rule="evenodd" fill-opacity="1" /><path clip-path="url(#clip820)" d="M83.4225 644.947 L88.3067 644.947 L88.3067 650.827 L83.4225 650.827 L83.4225 644.947 Z" fill="#000000" fill-rule="evenodd" fill-opacity="1" /><path clip-path="url(#clip820)" d="M109.071 631.684 Q105.922 631.684 104.071 633.836 Q102.242 635.989 102.242 639.739 Q102.242 643.466 104.071 645.642 Q105.922 647.795 109.071 647.795 Q112.219 647.795 114.047 645.642 Q115.899 643.466 115.899 639.739 Q115.899 635.989 114.047 633.836 Q112.219 631.684 109.071 631.684 M118.353 617.031 L118.353 621.29 Q116.594 620.457 114.788 620.017 Q113.006 619.577 111.246 619.577 Q106.617 619.577 104.163 622.702 Q101.733 625.827 101.385 632.147 Q102.751 630.133 104.811 629.068 Q106.871 627.98 109.348 627.98 Q114.557 627.98 117.566 631.151 Q120.598 634.299 120.598 639.739 Q120.598 645.063 117.45 648.281 Q114.302 651.498 109.071 651.498 Q103.075 651.498 99.9039 646.915 Q96.7326 642.309 96.7326 633.582 Q96.7326 625.387 100.621 620.526 Q104.51 615.642 111.061 615.642 Q112.82 615.642 114.603 615.989 Q116.408 616.336 118.353 617.031 Z" fill="#000000" fill-rule="evenodd" fill-opacity="1" /><path clip-path="url(#clip820)" d="M63.5152 334.746 Q59.9041 334.746 58.0754 338.311 Q56.2699 341.853 56.2699 348.982 Q56.2699 356.089 58.0754 359.653 Q59.9041 363.195 63.5152 363.195 Q67.1494 363.195 68.955 359.653 Q70.7837 356.089 70.7837 348.982 Q70.7837 341.853 68.955 338.311 Q67.1494 334.746 63.5152 334.746 M63.5152 331.042 Q69.3254 331.042 72.3809 335.649 Q75.4596 340.232 75.4596 348.982 Q75.4596 357.709 72.3809 362.315 Q69.3254 366.899 63.5152 366.899 Q57.7051 366.899 54.6264 362.315 Q51.5708 357.709 51.5708 348.982 Q51.5708 340.232 54.6264 335.649 Q57.7051 331.042 63.5152 331.042 Z" fill="#000000" fill-rule="evenodd" fill-opacity="1" /><path clip-path="url(#clip820)" d="M83.6771 360.348 L88.5614 360.348 L88.5614 366.227 L83.6771 366.227 L83.6771 360.348 Z" fill="#000000" fill-rule="evenodd" fill-opacity="1" /><path clip-path="url(#clip820)" d="M108.746 349.816 Q105.413 349.816 103.492 351.598 Q101.594 353.38 101.594 356.505 Q101.594 359.63 103.492 361.413 Q105.413 363.195 108.746 363.195 Q112.08 363.195 114.001 361.413 Q115.922 359.607 115.922 356.505 Q115.922 353.38 114.001 351.598 Q112.103 349.816 108.746 349.816 M104.071 347.825 Q101.061 347.084 99.3715 345.024 Q97.7048 342.964 97.7048 340.001 Q97.7048 335.857 100.645 333.45 Q103.608 331.042 108.746 331.042 Q113.908 331.042 116.848 333.45 Q119.788 335.857 119.788 340.001 Q119.788 342.964 118.098 345.024 Q116.432 347.084 113.445 347.825 Q116.825 348.612 118.7 350.903 Q120.598 353.195 120.598 356.505 Q120.598 361.528 117.52 364.214 Q114.464 366.899 108.746 366.899 Q103.029 366.899 99.9502 364.214 Q96.8947 361.528 96.8947 356.505 Q96.8947 353.195 98.7928 350.903 Q100.691 348.612 104.071 347.825 M102.358 340.441 Q102.358 343.126 104.024 344.63 Q105.714 346.135 108.746 346.135 Q111.756 346.135 113.445 344.63 Q115.158 343.126 115.158 340.441 Q115.158 337.755 113.445 336.251 Q111.756 334.746 108.746 334.746 Q105.714 334.746 104.024 336.251 Q102.358 337.755 102.358 340.441 Z" fill="#000000" fill-rule="evenodd" fill-opacity="1" /><path clip-path="url(#clip820)" d="M54.2328 77.6928 L61.8717 77.6928 L61.8717 51.3272 L53.5616 52.9939 L53.5616 48.7346 L61.8254 47.068 L66.5013 47.068 L66.5013 77.6928 L74.1402 77.6928 L74.1402 81.628 L54.2328 81.628 L54.2328 77.6928 Z" fill="#000000" fill-rule="evenodd" fill-opacity="1" /><path clip-path="url(#clip820)" d="M83.5845 75.7484 L88.4688 75.7484 L88.4688 81.628 L83.5845 81.628 L83.5845 75.7484 Z" fill="#000000" fill-rule="evenodd" fill-opacity="1" /><path clip-path="url(#clip820)" d="M108.654 50.1467 Q105.043 50.1467 103.214 53.7115 Q101.409 57.2531 101.409 64.3827 Q101.409 71.4891 103.214 75.0539 Q105.043 78.5956 108.654 78.5956 Q112.288 78.5956 114.094 75.0539 Q115.922 71.4891 115.922 64.3827 Q115.922 57.2531 114.094 53.7115 Q112.288 50.1467 108.654 50.1467 M108.654 46.443 Q114.464 46.443 117.52 51.0494 Q120.598 55.6328 120.598 64.3827 Q120.598 73.1095 117.52 77.716 Q114.464 82.2993 108.654 82.2993 Q102.844 82.2993 99.765 77.716 Q96.7095 73.1095 96.7095 64.3827 Q96.7095 55.6328 99.765 51.0494 Q102.844 46.443 108.654 46.443 Z" fill="#000000" fill-rule="evenodd" fill-opacity="1" /><polyline clip-path="url(#clip822)" style="stroke:#009af9; stroke-linecap:butt; stroke-linejoin:round; stroke-width:4; stroke-opacity:1; fill:none" points="
  218.754,314.644 1336.65,1085.71 583.105,522.744 614.613,588.725 296.46,87.9763 708.535,1445.72 2290.6,497.148 1209.75,912.611 532.673,1352.3 1937.27,875.882 
  
  "/>
<path clip-path="url(#clip820)" d="
M1987.12 198.898 L2279.55 198.898 L2279.55 95.2176 L1987.12 95.2176  Z
  " fill="#ffffff" fill-rule="evenodd" fill-opacity="1"/>
<polyline clip-path="url(#clip820)" style="stroke:#000000; stroke-linecap:butt; stroke-linejoin:round; stroke-width:4; stroke-opacity:1; fill:none" points="
  1987.12,198.898 2279.55,198.898 2279.55,95.2176 1987.12,95.2176 1987.12,198.898 
  "/>
<polyline clip-path="url(#clip820)" style="stroke:#009af9; stroke-linecap:butt; stroke-linejoin:round; stroke-width:4; stroke-opacity:1; fill:none" points="
  2011.12,147.058 2155.12,147.058 
  "/>
<path clip-path="url(#clip820)" d="M2192.96 166.745 Q2191.16 171.375 2189.44 172.787 Q2187.73 174.199 2184.86 174.199 L2181.46 174.199 L2181.46 170.634 L2183.96 170.634 Q2185.72 170.634 2186.69 169.8 Q2187.66 168.967 2188.84 165.865 L2189.61 163.921 L2179.12 138.412 L2183.63 138.412 L2191.74 158.689 L2199.84 138.412 L2204.35 138.412 L2192.96 166.745 Z" fill="#000000" fill-rule="evenodd" fill-opacity="1" /><path clip-path="url(#clip820)" d="M2211.64 160.402 L2219.28 160.402 L2219.28 134.037 L2210.97 135.703 L2210.97 131.444 L2219.24 129.778 L2223.91 129.778 L2223.91 160.402 L2231.55 160.402 L2231.55 164.338 L2211.64 164.338 L2211.64 160.402 Z" fill="#000000" fill-rule="evenodd" fill-opacity="1" /></svg>
