<?xml version="1.0" encoding="utf-8"?>
<svg xmlns="http://www.w3.org/2000/svg" xmlns:xlink="http://www.w3.org/1999/xlink" width="600" height="400" viewBox="0 0 2400 1600">
<defs>
  <clipPath id="clip720">
    <rect x="0" y="0" width="2400" height="1600"/>
  </clipPath>
</defs>
<path clip-path="url(#clip720)" d="
M0 1600 L2400 1600 L2400 0 L0 0  Z
  " fill="#ffffff" fill-rule="evenodd" fill-opacity="1"/>
<defs>
  <clipPath id="clip721">
    <rect x="480" y="0" width="1681" height="1600"/>
  </clipPath>
</defs>
<path clip-path="url(#clip720)" d="
M156.598 1486.45 L2352.76 1486.45 L2352.76 47.2441 L156.598 47.2441  Z
  " fill="#ffffff" fill-rule="evenodd" fill-opacity="1"/>
<defs>
  <clipPath id="clip722">
    <rect x="156" y="47" width="2197" height="1440"/>
  </clipPath>
</defs>
<polyline clip-path="url(#clip722)" style="stroke:#000000; stroke-linecap:butt; stroke-linejoin:round; stroke-width:2; stroke-opacity:0.1; fill:none" points="
  360.355,1486.45 360.355,47.2441 
  "/>
<polyline clip-path="url(#clip722)" style="stroke:#000000; stroke-linecap:butt; stroke-linejoin:round; stroke-width:2; stroke-opacity:0.1; fill:none" points="
  843.348,1486.45 843.348,47.2441 
  "/>
<polyline clip-path="url(#clip722)" style="stroke:#000000; stroke-linecap:butt; stroke-linejoin:round; stroke-width:2; stroke-opacity:0.1; fill:none" points="
  1326.34,1486.45 1326.34,47.2441 
  "/>
<polyline clip-path="url(#clip722)" style="stroke:#000000; stroke-linecap:butt; stroke-linejoin:round; stroke-width:2; stroke-opacity:0.1; fill:none" points="
  1809.33,1486.45 1809.33,47.2441 
  "/>
<polyline clip-path="url(#clip722)" style="stroke:#000000; stroke-linecap:butt; stroke-linejoin:round; stroke-width:2; stroke-opacity:0.1; fill:none" points="
  2292.33,1486.45 2292.33,47.2441 
  "/>
<polyline clip-path="url(#clip720)" style="stroke:#000000; stroke-linecap:butt; stroke-linejoin:round; stroke-width:4; stroke-opacity:1; fill:none" points="
  156.598,1486.45 2352.76,1486.45 
  "/>
<polyline clip-path="url(#clip720)" style="stroke:#000000; stroke-linecap:butt; stroke-linejoin:round; stroke-width:4; stroke-opacity:1; fill:none" points="
  360.355,1486.45 360.355,1467.55 
  "/>
<polyline clip-path="url(#clip720)" style="stroke:#000000; stroke-linecap:butt; stroke-linejoin:round; stroke-width:4; stroke-opacity:1; fill:none" points="
  843.348,1486.45 843.348,1467.55 
  "/>
<polyline clip-path="url(#clip720)" style="stroke:#000000; stroke-linecap:butt; stroke-linejoin:round; stroke-width:4; stroke-opacity:1; fill:none" points="
  1326.34,1486.45 1326.34,1467.55 
  "/>
<polyline clip-path="url(#clip720)" style="stroke:#000000; stroke-linecap:butt; stroke-linejoin:round; stroke-width:4; stroke-opacity:1; fill:none" points="
  1809.33,1486.45 1809.33,1467.55 
  "/>
<polyline clip-path="url(#clip720)" style="stroke:#000000; stroke-linecap:butt; stroke-linejoin:round; stroke-width:4; stroke-opacity:1; fill:none" points="
  2292.33,1486.45 2292.33,1467.55 
  "/>
<path clip-path="url(#clip720)" d="M338.538 1517.37 Q334.927 1517.37 333.098 1520.93 Q331.293 1524.47 331.293 1531.6 Q331.293 1538.71 333.098 1542.27 Q334.927 1545.82 338.538 1545.82 Q342.172 1545.82 343.978 1542.27 Q345.806 1538.71 345.806 1531.6 Q345.806 1524.47 343.978 1520.93 Q342.172 1517.37 338.538 1517.37 M338.538 1513.66 Q344.348 1513.66 347.404 1518.27 Q350.482 1522.85 350.482 1531.6 Q350.482 1540.33 347.404 1544.94 Q344.348 1549.52 338.538 1549.52 Q332.728 1549.52 329.649 1544.94 Q326.594 1540.33 326.594 1531.6 Q326.594 1522.85 329.649 1518.27 Q332.728 1513.66 338.538 1513.66 Z" fill="#000000" fill-rule="evenodd" fill-opacity="1" /><path clip-path="url(#clip720)" d="M358.7 1542.97 L363.584 1542.97 L363.584 1548.85 L358.7 1548.85 L358.7 1542.97 Z" fill="#000000" fill-rule="evenodd" fill-opacity="1" /><path clip-path="url(#clip720)" d="M377.797 1544.91 L394.116 1544.91 L394.116 1548.85 L372.172 1548.85 L372.172 1544.91 Q374.834 1542.16 379.417 1537.53 Q384.024 1532.88 385.204 1531.53 Q387.45 1529.01 388.329 1527.27 Q389.232 1525.51 389.232 1523.82 Q389.232 1521.07 387.288 1519.33 Q385.366 1517.6 382.265 1517.6 Q380.066 1517.6 377.612 1518.36 Q375.181 1519.13 372.404 1520.68 L372.404 1515.95 Q375.228 1514.82 377.681 1514.24 Q380.135 1513.66 382.172 1513.66 Q387.542 1513.66 390.737 1516.35 Q393.931 1519.03 393.931 1523.52 Q393.931 1525.65 393.121 1527.57 Q392.334 1529.47 390.228 1532.07 Q389.649 1532.74 386.547 1535.95 Q383.445 1539.15 377.797 1544.91 Z" fill="#000000" fill-rule="evenodd" fill-opacity="1" /><path clip-path="url(#clip720)" d="M820.489 1517.37 Q816.878 1517.37 815.049 1520.93 Q813.244 1524.47 813.244 1531.6 Q813.244 1538.71 815.049 1542.27 Q816.878 1545.82 820.489 1545.82 Q824.123 1545.82 825.929 1542.27 Q827.758 1538.71 827.758 1531.6 Q827.758 1524.47 825.929 1520.93 Q824.123 1517.37 820.489 1517.37 M820.489 1513.66 Q826.299 1513.66 829.355 1518.27 Q832.434 1522.85 832.434 1531.6 Q832.434 1540.33 829.355 1544.94 Q826.299 1549.52 820.489 1549.52 Q814.679 1549.52 811.6 1544.94 Q808.545 1540.33 808.545 1531.6 Q808.545 1522.85 811.6 1518.27 Q814.679 1513.66 820.489 1513.66 Z" fill="#000000" fill-rule="evenodd" fill-opacity="1" /><path clip-path="url(#clip720)" d="M840.651 1542.97 L845.535 1542.97 L845.535 1548.85 L840.651 1548.85 L840.651 1542.97 Z" fill="#000000" fill-rule="evenodd" fill-opacity="1" /><path clip-path="url(#clip720)" d="M868.568 1518.36 L856.762 1536.81 L868.568 1536.81 L868.568 1518.36 M867.341 1514.29 L873.22 1514.29 L873.22 1536.81 L878.151 1536.81 L878.151 1540.7 L873.22 1540.7 L873.22 1548.85 L868.568 1548.85 L868.568 1540.7 L852.966 1540.7 L852.966 1536.19 L867.341 1514.29 Z" fill="#000000" fill-rule="evenodd" fill-opacity="1" /><path clip-path="url(#clip720)" d="M1303.64 1517.37 Q1300.03 1517.37 1298.2 1520.93 Q1296.4 1524.47 1296.4 1531.6 Q1296.4 1538.71 1298.2 1542.27 Q1300.03 1545.82 1303.64 1545.82 Q1307.28 1545.82 1309.08 1542.27 Q1310.91 1538.71 1310.91 1531.6 Q1310.91 1524.47 1309.08 1520.93 Q1307.28 1517.37 1303.64 1517.37 M1303.64 1513.66 Q1309.45 1513.66 1312.51 1518.27 Q1315.59 1522.85 1315.59 1531.6 Q1315.59 1540.33 1312.51 1544.94 Q1309.45 1549.52 1303.64 1549.52 Q1297.83 1549.52 1294.76 1544.94 Q1291.7 1540.33 1291.7 1531.6 Q1291.7 1522.85 1294.76 1518.27 Q1297.83 1513.66 1303.64 1513.66 Z" fill="#000000" fill-rule="evenodd" fill-opacity="1" /><path clip-path="url(#clip720)" d="M1323.81 1542.97 L1328.69 1542.97 L1328.69 1548.85 L1323.81 1548.85 L1323.81 1542.97 Z" fill="#000000" fill-rule="evenodd" fill-opacity="1" /><path clip-path="url(#clip720)" d="M1349.45 1529.7 Q1346.31 1529.7 1344.45 1531.86 Q1342.63 1534.01 1342.63 1537.76 Q1342.63 1541.49 1344.45 1543.66 Q1346.31 1545.82 1349.45 1545.82 Q1352.6 1545.82 1354.43 1543.66 Q1356.28 1541.49 1356.28 1537.76 Q1356.28 1534.01 1354.43 1531.86 Q1352.6 1529.7 1349.45 1529.7 M1358.74 1515.05 L1358.74 1519.31 Q1356.98 1518.48 1355.17 1518.04 Q1353.39 1517.6 1351.63 1517.6 Q1347 1517.6 1344.55 1520.72 Q1342.12 1523.85 1341.77 1530.17 Q1343.13 1528.15 1345.19 1527.09 Q1347.25 1526 1349.73 1526 Q1354.94 1526 1357.95 1529.17 Q1360.98 1532.32 1360.98 1537.76 Q1360.98 1543.08 1357.83 1546.3 Q1354.69 1549.52 1349.45 1549.52 Q1343.46 1549.52 1340.29 1544.94 Q1337.12 1540.33 1337.12 1531.6 Q1337.12 1523.41 1341 1518.55 Q1344.89 1513.66 1351.44 1513.66 Q1353.2 1513.66 1354.99 1514.01 Q1356.79 1514.36 1358.74 1515.05 Z" fill="#000000" fill-rule="evenodd" fill-opacity="1" /><path clip-path="url(#clip720)" d="M1786.76 1517.37 Q1783.15 1517.37 1781.32 1520.93 Q1779.52 1524.47 1779.52 1531.6 Q1779.52 1538.71 1781.32 1542.27 Q1783.15 1545.82 1786.76 1545.82 Q1790.4 1545.82 1792.2 1542.27 Q1794.03 1538.71 1794.03 1531.6 Q1794.03 1524.47 1792.2 1520.93 Q1790.4 1517.37 1786.76 1517.37 M1786.76 1513.66 Q1792.57 1513.66 1795.63 1518.27 Q1798.71 1522.85 1798.71 1531.6 Q1798.71 1540.33 1795.63 1544.94 Q1792.57 1549.52 1786.76 1549.52 Q1780.95 1549.52 1777.88 1544.94 Q1774.82 1540.33 1774.82 1531.6 Q1774.82 1522.85 1777.88 1518.27 Q1780.95 1513.66 1786.76 1513.66 Z" fill="#000000" fill-rule="evenodd" fill-opacity="1" /><path clip-path="url(#clip720)" d="M1806.93 1542.97 L1811.81 1542.97 L1811.81 1548.85 L1806.93 1548.85 L1806.93 1542.97 Z" fill="#000000" fill-rule="evenodd" fill-opacity="1" /><path clip-path="url(#clip720)" d="M1832 1532.44 Q1828.66 1532.44 1826.74 1534.22 Q1824.84 1536 1824.84 1539.13 Q1824.84 1542.25 1826.74 1544.03 Q1828.66 1545.82 1832 1545.82 Q1835.33 1545.82 1837.25 1544.03 Q1839.17 1542.23 1839.17 1539.13 Q1839.17 1536 1837.25 1534.22 Q1835.35 1532.44 1832 1532.44 M1827.32 1530.45 Q1824.31 1529.7 1822.62 1527.64 Q1820.95 1525.58 1820.95 1522.62 Q1820.95 1518.48 1823.89 1516.07 Q1826.86 1513.66 1832 1513.66 Q1837.16 1513.66 1840.1 1516.07 Q1843.04 1518.48 1843.04 1522.62 Q1843.04 1525.58 1841.35 1527.64 Q1839.68 1529.7 1836.69 1530.45 Q1840.07 1531.23 1841.95 1533.52 Q1843.85 1535.82 1843.85 1539.13 Q1843.85 1544.15 1840.77 1546.83 Q1837.71 1549.52 1832 1549.52 Q1826.28 1549.52 1823.2 1546.83 Q1820.14 1544.15 1820.14 1539.13 Q1820.14 1535.82 1822.04 1533.52 Q1823.94 1531.23 1827.32 1530.45 M1825.61 1523.06 Q1825.61 1525.75 1827.27 1527.25 Q1828.96 1528.76 1832 1528.76 Q1835 1528.76 1836.69 1527.25 Q1838.41 1525.75 1838.41 1523.06 Q1838.41 1520.38 1836.69 1518.87 Q1835 1517.37 1832 1517.37 Q1828.96 1517.37 1827.27 1518.87 Q1825.61 1520.38 1825.61 1523.06 Z" fill="#000000" fill-rule="evenodd" fill-opacity="1" /><path clip-path="url(#clip720)" d="M2259.48 1544.91 L2267.12 1544.91 L2267.12 1518.55 L2258.81 1520.21 L2258.81 1515.95 L2267.07 1514.29 L2271.75 1514.29 L2271.75 1544.91 L2279.39 1544.91 L2279.39 1548.85 L2259.48 1548.85 L2259.48 1544.91 Z" fill="#000000" fill-rule="evenodd" fill-opacity="1" /><path clip-path="url(#clip720)" d="M2288.83 1542.97 L2293.72 1542.97 L2293.72 1548.85 L2288.83 1548.85 L2288.83 1542.97 Z" fill="#000000" fill-rule="evenodd" fill-opacity="1" /><path clip-path="url(#clip720)" d="M2313.9 1517.37 Q2310.29 1517.37 2308.46 1520.93 Q2306.65 1524.47 2306.65 1531.6 Q2306.65 1538.71 2308.46 1542.27 Q2310.29 1545.82 2313.9 1545.82 Q2317.53 1545.82 2319.34 1542.27 Q2321.17 1538.71 2321.17 1531.6 Q2321.17 1524.47 2319.34 1520.93 Q2317.53 1517.37 2313.9 1517.37 M2313.9 1513.66 Q2319.71 1513.66 2322.77 1518.27 Q2325.84 1522.85 2325.84 1531.6 Q2325.84 1540.33 2322.77 1544.94 Q2319.71 1549.52 2313.9 1549.52 Q2308.09 1549.52 2305.01 1544.94 Q2301.96 1540.33 2301.96 1531.6 Q2301.96 1522.85 2305.01 1518.27 Q2308.09 1513.66 2313.9 1513.66 Z" fill="#000000" fill-rule="evenodd" fill-opacity="1" /><polyline clip-path="url(#clip722)" style="stroke:#000000; stroke-linecap:butt; stroke-linejoin:round; stroke-width:2; stroke-opacity:0.1; fill:none" points="
  156.598,1218.91 2352.76,1218.91 
  "/>
<polyline clip-path="url(#clip722)" style="stroke:#000000; stroke-linecap:butt; stroke-linejoin:round; stroke-width:2; stroke-opacity:0.1; fill:none" points="
  156.598,876.58 2352.76,876.58 
  "/>
<polyline clip-path="url(#clip722)" style="stroke:#000000; stroke-linecap:butt; stroke-linejoin:round; stroke-width:2; stroke-opacity:0.1; fill:none" points="
  156.598,534.245 2352.76,534.245 
  "/>
<polyline clip-path="url(#clip722)" style="stroke:#000000; stroke-linecap:butt; stroke-linejoin:round; stroke-width:2; stroke-opacity:0.1; fill:none" points="
  156.598,191.911 2352.76,191.911 
  "/>
<polyline clip-path="url(#clip720)" style="stroke:#000000; stroke-linecap:butt; stroke-linejoin:round; stroke-width:4; stroke-opacity:1; fill:none" points="
  156.598,1486.45 156.598,47.2441 
  "/>
<polyline clip-path="url(#clip720)" style="stroke:#000000; stroke-linecap:butt; stroke-linejoin:round; stroke-width:4; stroke-opacity:1; fill:none" points="
  156.598,1218.91 175.496,1218.91 
  "/>
<polyline clip-path="url(#clip720)" style="stroke:#000000; stroke-linecap:butt; stroke-linejoin:round; stroke-width:4; stroke-opacity:1; fill:none" points="
  156.598,876.58 175.496,876.58 
  "/>
<polyline clip-path="url(#clip720)" style="stroke:#000000; stroke-linecap:butt; stroke-linejoin:round; stroke-width:4; stroke-opacity:1; fill:none" points="
  156.598,534.245 175.496,534.245 
  "/>
<polyline clip-path="url(#clip720)" style="stroke:#000000; stroke-linecap:butt; stroke-linejoin:round; stroke-width:4; stroke-opacity:1; fill:none" points="
  156.598,191.911 175.496,191.911 
  "/>
<path clip-path="url(#clip720)" d="M65.0198 1204.71 Q61.4087 1204.71 59.58 1208.28 Q57.7745 1211.82 57.7745 1218.95 Q57.7745 1226.05 59.58 1229.62 Q61.4087 1233.16 65.0198 1233.16 Q68.6541 1233.16 70.4596 1229.62 Q72.2883 1226.05 72.2883 1218.95 Q72.2883 1211.82 70.4596 1208.28 Q68.6541 1204.71 65.0198 1204.71 M65.0198 1201.01 Q70.83 1201.01 73.8855 1205.62 Q76.9642 1210.2 76.9642 1218.95 Q76.9642 1227.68 73.8855 1232.28 Q70.83 1236.86 65.0198 1236.86 Q59.2097 1236.86 56.131 1232.28 Q53.0754 1227.68 53.0754 1218.95 Q53.0754 1210.2 56.131 1205.62 Q59.2097 1201.01 65.0198 1201.01 Z" fill="#000000" fill-rule="evenodd" fill-opacity="1" /><path clip-path="url(#clip720)" d="M85.1818 1230.31 L90.066 1230.31 L90.066 1236.19 L85.1818 1236.19 L85.1818 1230.31 Z" fill="#000000" fill-rule="evenodd" fill-opacity="1" /><path clip-path="url(#clip720)" d="M104.279 1232.26 L120.598 1232.26 L120.598 1236.19 L98.6539 1236.19 L98.6539 1232.26 Q101.316 1229.5 105.899 1224.87 Q110.506 1220.22 111.686 1218.88 Q113.932 1216.36 114.811 1214.62 Q115.714 1212.86 115.714 1211.17 Q115.714 1208.42 113.77 1206.68 Q111.848 1204.94 108.746 1204.94 Q106.547 1204.94 104.094 1205.71 Q101.663 1206.47 98.8854 1208.02 L98.8854 1203.3 Q101.709 1202.17 104.163 1201.59 Q106.617 1201.01 108.654 1201.01 Q114.024 1201.01 117.219 1203.69 Q120.413 1206.38 120.413 1210.87 Q120.413 1213 119.603 1214.92 Q118.816 1216.82 116.709 1219.41 Q116.131 1220.08 113.029 1223.3 Q109.927 1226.49 104.279 1232.26 Z" fill="#000000" fill-rule="evenodd" fill-opacity="1" /><path clip-path="url(#clip720)" d="M62.9365 862.378 Q59.3254 862.378 57.4967 865.943 Q55.6912 869.485 55.6912 876.614 Q55.6912 883.721 57.4967 887.285 Q59.3254 890.827 62.9365 890.827 Q66.5707 890.827 68.3763 887.285 Q70.205 883.721 70.205 876.614 Q70.205 869.485 68.3763 865.943 Q66.5707 862.378 62.9365 862.378 M62.9365 858.675 Q68.7467 858.675 71.8022 863.281 Q74.8809 867.864 74.8809 876.614 Q74.8809 885.341 71.8022 889.948 Q68.7467 894.531 62.9365 894.531 Q57.1264 894.531 54.0477 889.948 Q50.9921 885.341 50.9921 876.614 Q50.9921 867.864 54.0477 863.281 Q57.1264 858.675 62.9365 858.675 Z" fill="#000000" fill-rule="evenodd" fill-opacity="1" /><path clip-path="url(#clip720)" d="M83.0984 887.98 L87.9827 887.98 L87.9827 893.86 L83.0984 893.86 L83.0984 887.98 Z" fill="#000000" fill-rule="evenodd" fill-opacity="1" /><path clip-path="url(#clip720)" d="M111.015 863.374 L99.2095 881.823 L111.015 881.823 L111.015 863.374 M109.788 859.3 L115.668 859.3 L115.668 881.823 L120.598 881.823 L120.598 885.711 L115.668 885.711 L115.668 893.86 L111.015 893.86 L111.015 885.711 L95.4132 885.711 L95.4132 881.198 L109.788 859.3 Z" fill="#000000" fill-rule="evenodd" fill-opacity="1" /><path clip-path="url(#clip720)" d="M63.2606 520.044 Q59.6495 520.044 57.8208 523.609 Q56.0152 527.151 56.0152 534.28 Q56.0152 541.387 57.8208 544.951 Q59.6495 548.493 63.2606 548.493 Q66.8948 548.493 68.7004 544.951 Q70.5291 541.387 70.5291 534.28 Q70.5291 527.151 68.7004 523.609 Q66.8948 520.044 63.2606 520.044 M63.2606 516.34 Q69.0707 516.34 72.1263 520.947 Q75.205 525.53 75.205 534.28 Q75.205 543.007 72.1263 547.613 Q69.0707 552.197 63.2606 552.197 Q57.4504 552.197 54.3717 547.613 Q51.3162 543.007 51.3162 534.28 Q51.3162 525.53 54.3717 520.947 Q57.4504 516.34 63.2606 516.34 Z" fill="#000000" fill-rule="evenodd" fill-opacity="1" /><path clip-path="url(#clip720)" d="M83.4225 545.646 L88.3067 545.646 L88.3067 551.525 L83.4225 551.525 L83.4225 545.646 Z" fill="#000000" fill-rule="evenodd" fill-opacity="1" /><path clip-path="url(#clip720)" d="M109.071 532.382 Q105.922 532.382 104.071 534.535 Q102.242 536.688 102.242 540.437 Q102.242 544.164 104.071 546.34 Q105.922 548.493 109.071 548.493 Q112.219 548.493 114.047 546.34 Q115.899 544.164 115.899 540.437 Q115.899 536.688 114.047 534.535 Q112.219 532.382 109.071 532.382 M118.353 517.729 L118.353 521.989 Q116.594 521.155 114.788 520.715 Q113.006 520.276 111.246 520.276 Q106.617 520.276 104.163 523.401 Q101.733 526.526 101.385 532.845 Q102.751 530.831 104.811 529.766 Q106.871 528.678 109.348 528.678 Q114.557 528.678 117.566 531.85 Q120.598 534.998 120.598 540.437 Q120.598 545.762 117.45 548.979 Q114.302 552.197 109.071 552.197 Q103.075 552.197 99.9039 547.613 Q96.7326 543.007 96.7326 534.28 Q96.7326 526.086 100.621 521.225 Q104.51 516.34 111.061 516.34 Q112.82 516.34 114.603 516.688 Q116.408 517.035 118.353 517.729 Z" fill="#000000" fill-rule="evenodd" fill-opacity="1" /><path clip-path="url(#clip720)" d="M63.5152 177.71 Q59.9041 177.71 58.0754 181.275 Q56.2699 184.816 56.2699 191.946 Q56.2699 199.052 58.0754 202.617 Q59.9041 206.159 63.5152 206.159 Q67.1494 206.159 68.955 202.617 Q70.7837 199.052 70.7837 191.946 Q70.7837 184.816 68.955 181.275 Q67.1494 177.71 63.5152 177.71 M63.5152 174.006 Q69.3254 174.006 72.3809 178.613 Q75.4596 183.196 75.4596 191.946 Q75.4596 200.673 72.3809 205.279 Q69.3254 209.863 63.5152 209.863 Q57.7051 209.863 54.6264 205.279 Q51.5708 200.673 51.5708 191.946 Q51.5708 183.196 54.6264 178.613 Q57.7051 174.006 63.5152 174.006 Z" fill="#000000" fill-rule="evenodd" fill-opacity="1" /><path clip-path="url(#clip720)" d="M83.6771 203.312 L88.5614 203.312 L88.5614 209.191 L83.6771 209.191 L83.6771 203.312 Z" fill="#000000" fill-rule="evenodd" fill-opacity="1" /><path clip-path="url(#clip720)" d="M108.746 192.779 Q105.413 192.779 103.492 194.562 Q101.594 196.344 101.594 199.469 Q101.594 202.594 103.492 204.376 Q105.413 206.159 108.746 206.159 Q112.08 206.159 114.001 204.376 Q115.922 202.571 115.922 199.469 Q115.922 196.344 114.001 194.562 Q112.103 192.779 108.746 192.779 M104.071 190.789 Q101.061 190.048 99.3715 187.988 Q97.7048 185.928 97.7048 182.965 Q97.7048 178.821 100.645 176.414 Q103.608 174.006 108.746 174.006 Q113.908 174.006 116.848 176.414 Q119.788 178.821 119.788 182.965 Q119.788 185.928 118.098 187.988 Q116.432 190.048 113.445 190.789 Q116.825 191.576 118.7 193.867 Q120.598 196.159 120.598 199.469 Q120.598 204.492 117.52 207.177 Q114.464 209.863 108.746 209.863 Q103.029 209.863 99.9502 207.177 Q96.8947 204.492 96.8947 199.469 Q96.8947 196.159 98.7928 193.867 Q100.691 191.576 104.071 190.789 M102.358 183.404 Q102.358 186.09 104.024 187.594 Q105.714 189.099 108.746 189.099 Q111.756 189.099 113.445 187.594 Q115.158 186.09 115.158 183.404 Q115.158 180.719 113.445 179.215 Q111.756 177.71 108.746 177.71 Q105.714 177.71 104.024 179.215 Q102.358 180.719 102.358 183.404 Z" fill="#000000" fill-rule="evenodd" fill-opacity="1" /><polyline clip-path="url(#clip722)" style="stroke:#009af9; stroke-linecap:butt; stroke-linejoin:round; stroke-width:4; stroke-opacity:1; fill:none" points="
  1183.64,313.547 2134.92,399.726 1670.41,879.836 1849.84,1174.31 988.783,305.599 1581,1445.72 1966.39,87.9763 2290.6,142.167 1332.08,1082.04 218.754,589.889 
  
  "/>
<path clip-path="url(#clip720)" d="
M1987.12 198.898 L2279.55 198.898 L2279.55 95.2176 L1987.12 95.2176  Z
  " fill="#ffffff" fill-rule="evenodd" fill-opacity="1"/>
<polyline clip-path="url(#clip720)" style="stroke:#000000; stroke-linecap:butt; stroke-linejoin:round; stroke-width:4; stroke-opacity:1; fill:none" points="
  1987.12,198.898 2279.55,198.898 2279.55,95.2176 1987.12,95.2176 1987.12,198.898 
  "/>
<polyline clip-path="url(#clip720)" style="stroke:#009af9; stroke-linecap:butt; stroke-linejoin:round; stroke-width:4; stroke-opacity:1; fill:none" points="
  2011.12,147.058 2155.12,147.058 
  "/>
<path clip-path="url(#clip720)" d="M2192.96 166.745 Q2191.16 171.375 2189.44 172.787 Q2187.73 174.199 2184.86 174.199 L2181.46 174.199 L2181.46 170.634 L2183.96 170.634 Q2185.72 170.634 2186.69 169.8 Q2187.66 168.967 2188.84 165.865 L2189.61 163.921 L2179.12 138.412 L2183.63 138.412 L2191.74 158.689 L2199.84 138.412 L2204.35 138.412 L2192.96 166.745 Z" fill="#000000" fill-rule="evenodd" fill-opacity="1" /><path clip-path="url(#clip720)" d="M2211.64 160.402 L2219.28 160.402 L2219.28 134.037 L2210.97 135.703 L2210.97 131.444 L2219.24 129.778 L2223.91 129.778 L2223.91 160.402 L2231.55 160.402 L2231.55 164.338 L2211.64 164.338 L2211.64 160.402 Z" fill="#000000" fill-rule="evenodd" fill-opacity="1" /></svg>
