<?xml version="1.0" encoding="utf-8"?>
<svg xmlns="http://www.w3.org/2000/svg" xmlns:xlink="http://www.w3.org/1999/xlink" width="600" height="400" viewBox="0 0 2400 1600">
<defs>
  <clipPath id="clip910">
    <rect x="0" y="0" width="2400" height="1600"/>
  </clipPath>
</defs>
<path clip-path="url(#clip910)" d="
M0 1600 L2400 1600 L2400 0 L0 0  Z
  " fill="#ffffff" fill-rule="evenodd" fill-opacity="1"/>
<defs>
  <clipPath id="clip911">
    <rect x="480" y="0" width="1681" height="1600"/>
  </clipPath>
</defs>
<path clip-path="url(#clip910)" d="
M156.598 1486.45 L2352.76 1486.45 L2352.76 47.2441 L156.598 47.2441  Z
  " fill="#ffffff" fill-rule="evenodd" fill-opacity="1"/>
<defs>
  <clipPath id="clip912">
    <rect x="156" y="47" width="2197" height="1440"/>
  </clipPath>
</defs>
<polyline clip-path="url(#clip912)" style="stroke:#000000; stroke-linecap:butt; stroke-linejoin:round; stroke-width:2; stroke-opacity:0.1; fill:none" points="
  180.814,1486.45 180.814,47.2441 
  "/>
<polyline clip-path="url(#clip912)" style="stroke:#000000; stroke-linecap:butt; stroke-linejoin:round; stroke-width:2; stroke-opacity:0.1; fill:none" points="
  710.695,1486.45 710.695,47.2441 
  "/>
<polyline clip-path="url(#clip912)" style="stroke:#000000; stroke-linecap:butt; stroke-linejoin:round; stroke-width:2; stroke-opacity:0.1; fill:none" points="
  1240.58,1486.45 1240.58,47.2441 
  "/>
<polyline clip-path="url(#clip912)" style="stroke:#000000; stroke-linecap:butt; stroke-linejoin:round; stroke-width:2; stroke-opacity:0.1; fill:none" points="
  1770.46,1486.45 1770.46,47.2441 
  "/>
<polyline clip-path="url(#clip912)" style="stroke:#000000; stroke-linecap:butt; stroke-linejoin:round; stroke-width:2; stroke-opacity:0.1; fill:none" points="
  2300.34,1486.45 2300.34,47.2441 
  "/>
<polyline clip-path="url(#clip910)" style="stroke:#000000; stroke-linecap:butt; stroke-linejoin:round; stroke-width:4; stroke-opacity:1; fill:none" points="
  156.598,1486.45 2352.76,1486.45 
  "/>
<polyline clip-path="url(#clip910)" style="stroke:#000000; stroke-linecap:butt; stroke-linejoin:round; stroke-width:4; stroke-opacity:1; fill:none" points="
  180.814,1486.45 180.814,1467.55 
  "/>
<polyline clip-path="url(#clip910)" style="stroke:#000000; stroke-linecap:butt; stroke-linejoin:round; stroke-width:4; stroke-opacity:1; fill:none" points="
  710.695,1486.45 710.695,1467.55 
  "/>
<polyline clip-path="url(#clip910)" style="stroke:#000000; stroke-linecap:butt; stroke-linejoin:round; stroke-width:4; stroke-opacity:1; fill:none" points="
  1240.58,1486.45 1240.58,1467.55 
  "/>
<polyline clip-path="url(#clip910)" style="stroke:#000000; stroke-linecap:butt; stroke-linejoin:round; stroke-width:4; stroke-opacity:1; fill:none" points="
  1770.46,1486.45 1770.46,1467.55 
  "/>
<polyline clip-path="url(#clip910)" style="stroke:#000000; stroke-linecap:butt; stroke-linejoin:round; stroke-width:4; stroke-opacity:1; fill:none" points="
  2300.34,1486.45 2300.34,1467.55 
  "/>
<path clip-path="url(#clip910)" d="M143.117 1517.37 Q139.506 1517.37 137.677 1520.93 Q135.872 1524.47 135.872 1531.6 Q135.872 1538.71 137.677 1542.27 Q139.506 1545.82 143.117 1545.82 Q146.751 1545.82 148.557 1542.27 Q150.385 1538.71 150.385 1531.6 Q150.385 1524.47 148.557 1520.93 Q146.751 1517.37 143.117 1517.37 M143.117 1513.66 Q148.927 1513.66 151.983 1518.27 Q155.061 1522.85 155.061 1531.6 Q155.061 1540.33 151.983 1544.94 Q148.927 1549.52 143.117 1549.52 Q137.307 1549.52 134.228 1544.94 Q131.173 1540.33 131.173 1531.6 Q131.173 1522.85 134.228 1518.27 Q137.307 1513.66 143.117 1513.66 Z" fill="#000000" fill-rule="evenodd" fill-opacity="1" /><path clip-path="url(#clip910)" d="M163.279 1542.97 L168.163 1542.97 L168.163 1548.85 L163.279 1548.85 L163.279 1542.97 Z" fill="#000000" fill-rule="evenodd" fill-opacity="1" /><path clip-path="url(#clip910)" d="M188.348 1517.37 Q184.737 1517.37 182.908 1520.93 Q181.103 1524.47 181.103 1531.6 Q181.103 1538.71 182.908 1542.27 Q184.737 1545.82 188.348 1545.82 Q191.982 1545.82 193.788 1542.27 Q195.617 1538.71 195.617 1531.6 Q195.617 1524.47 193.788 1520.93 Q191.982 1517.37 188.348 1517.37 M188.348 1513.66 Q194.158 1513.66 197.214 1518.27 Q200.293 1522.85 200.293 1531.6 Q200.293 1540.33 197.214 1544.94 Q194.158 1549.52 188.348 1549.52 Q182.538 1549.52 179.459 1544.94 Q176.404 1540.33 176.404 1531.6 Q176.404 1522.85 179.459 1518.27 Q182.538 1513.66 188.348 1513.66 Z" fill="#000000" fill-rule="evenodd" fill-opacity="1" /><path clip-path="url(#clip910)" d="M218.51 1517.37 Q214.899 1517.37 213.07 1520.93 Q211.265 1524.47 211.265 1531.6 Q211.265 1538.71 213.07 1542.27 Q214.899 1545.82 218.51 1545.82 Q222.144 1545.82 223.95 1542.27 Q225.779 1538.71 225.779 1531.6 Q225.779 1524.47 223.95 1520.93 Q222.144 1517.37 218.51 1517.37 M218.51 1513.66 Q224.32 1513.66 227.376 1518.27 Q230.455 1522.85 230.455 1531.6 Q230.455 1540.33 227.376 1544.94 Q224.32 1549.52 218.51 1549.52 Q212.7 1549.52 209.621 1544.94 Q206.566 1540.33 206.566 1531.6 Q206.566 1522.85 209.621 1518.27 Q212.7 1513.66 218.51 1513.66 Z" fill="#000000" fill-rule="evenodd" fill-opacity="1" /><path clip-path="url(#clip910)" d="M673.496 1517.37 Q669.885 1517.37 668.057 1520.93 Q666.251 1524.47 666.251 1531.6 Q666.251 1538.71 668.057 1542.27 Q669.885 1545.82 673.496 1545.82 Q677.131 1545.82 678.936 1542.27 Q680.765 1538.71 680.765 1531.6 Q680.765 1524.47 678.936 1520.93 Q677.131 1517.37 673.496 1517.37 M673.496 1513.66 Q679.306 1513.66 682.362 1518.27 Q685.441 1522.85 685.441 1531.6 Q685.441 1540.33 682.362 1544.94 Q679.306 1549.52 673.496 1549.52 Q667.686 1549.52 664.607 1544.94 Q661.552 1540.33 661.552 1531.6 Q661.552 1522.85 664.607 1518.27 Q667.686 1513.66 673.496 1513.66 Z" fill="#000000" fill-rule="evenodd" fill-opacity="1" /><path clip-path="url(#clip910)" d="M693.658 1542.97 L698.542 1542.97 L698.542 1548.85 L693.658 1548.85 L693.658 1542.97 Z" fill="#000000" fill-rule="evenodd" fill-opacity="1" /><path clip-path="url(#clip910)" d="M712.755 1544.91 L729.075 1544.91 L729.075 1548.85 L707.13 1548.85 L707.13 1544.91 Q709.792 1542.16 714.376 1537.53 Q718.982 1532.88 720.163 1531.53 Q722.408 1529.01 723.288 1527.27 Q724.19 1525.51 724.19 1523.82 Q724.19 1521.07 722.246 1519.33 Q720.325 1517.6 717.223 1517.6 Q715.024 1517.6 712.57 1518.36 Q710.14 1519.13 707.362 1520.68 L707.362 1515.95 Q710.186 1514.82 712.64 1514.24 Q715.093 1513.66 717.13 1513.66 Q722.501 1513.66 725.695 1516.35 Q728.89 1519.03 728.89 1523.52 Q728.89 1525.65 728.079 1527.57 Q727.292 1529.47 725.186 1532.07 Q724.607 1532.74 721.505 1535.95 Q718.403 1539.15 712.755 1544.91 Z" fill="#000000" fill-rule="evenodd" fill-opacity="1" /><path clip-path="url(#clip910)" d="M738.936 1514.29 L757.292 1514.29 L757.292 1518.22 L743.218 1518.22 L743.218 1526.7 Q744.237 1526.35 745.255 1526.19 Q746.274 1526 747.292 1526 Q753.079 1526 756.459 1529.17 Q759.838 1532.34 759.838 1537.76 Q759.838 1543.34 756.366 1546.44 Q752.894 1549.52 746.575 1549.52 Q744.399 1549.52 742.13 1549.15 Q739.885 1548.78 737.477 1548.04 L737.477 1543.34 Q739.561 1544.47 741.783 1545.03 Q744.005 1545.58 746.482 1545.58 Q750.487 1545.58 752.825 1543.48 Q755.163 1541.37 755.163 1537.76 Q755.163 1534.15 752.825 1532.04 Q750.487 1529.94 746.482 1529.94 Q744.607 1529.94 742.732 1530.35 Q740.88 1530.77 738.936 1531.65 L738.936 1514.29 Z" fill="#000000" fill-rule="evenodd" fill-opacity="1" /><path clip-path="url(#clip910)" d="M1202.88 1517.37 Q1199.27 1517.37 1197.44 1520.93 Q1195.63 1524.47 1195.63 1531.6 Q1195.63 1538.71 1197.44 1542.27 Q1199.27 1545.82 1202.88 1545.82 Q1206.51 1545.82 1208.32 1542.27 Q1210.15 1538.71 1210.15 1531.6 Q1210.15 1524.47 1208.32 1520.93 Q1206.51 1517.37 1202.88 1517.37 M1202.88 1513.66 Q1208.69 1513.66 1211.75 1518.27 Q1214.82 1522.85 1214.82 1531.6 Q1214.82 1540.33 1211.75 1544.94 Q1208.69 1549.52 1202.88 1549.52 Q1197.07 1549.52 1193.99 1544.94 Q1190.94 1540.33 1190.94 1531.6 Q1190.94 1522.85 1193.99 1518.27 Q1197.07 1513.66 1202.88 1513.66 Z" fill="#000000" fill-rule="evenodd" fill-opacity="1" /><path clip-path="url(#clip910)" d="M1223.04 1542.97 L1227.93 1542.97 L1227.93 1548.85 L1223.04 1548.85 L1223.04 1542.97 Z" fill="#000000" fill-rule="evenodd" fill-opacity="1" /><path clip-path="url(#clip910)" d="M1238.16 1514.29 L1256.51 1514.29 L1256.51 1518.22 L1242.44 1518.22 L1242.44 1526.7 Q1243.46 1526.35 1244.48 1526.19 Q1245.5 1526 1246.51 1526 Q1252.3 1526 1255.68 1529.17 Q1259.06 1532.34 1259.06 1537.76 Q1259.06 1543.34 1255.59 1546.44 Q1252.12 1549.52 1245.8 1549.52 Q1243.62 1549.52 1241.35 1549.15 Q1239.11 1548.78 1236.7 1548.04 L1236.7 1543.34 Q1238.78 1544.47 1241.01 1545.03 Q1243.23 1545.58 1245.7 1545.58 Q1249.71 1545.58 1252.05 1543.48 Q1254.38 1541.37 1254.38 1537.76 Q1254.38 1534.15 1252.05 1532.04 Q1249.71 1529.94 1245.7 1529.94 Q1243.83 1529.94 1241.95 1530.35 Q1240.1 1530.77 1238.16 1531.65 L1238.16 1514.29 Z" fill="#000000" fill-rule="evenodd" fill-opacity="1" /><path clip-path="url(#clip910)" d="M1278.27 1517.37 Q1274.66 1517.37 1272.83 1520.93 Q1271.03 1524.47 1271.03 1531.6 Q1271.03 1538.71 1272.83 1542.27 Q1274.66 1545.82 1278.27 1545.82 Q1281.91 1545.82 1283.71 1542.27 Q1285.54 1538.71 1285.54 1531.6 Q1285.54 1524.47 1283.71 1520.93 Q1281.91 1517.37 1278.27 1517.37 M1278.27 1513.66 Q1284.08 1513.66 1287.14 1518.27 Q1290.22 1522.85 1290.22 1531.6 Q1290.22 1540.33 1287.14 1544.94 Q1284.08 1549.52 1278.27 1549.52 Q1272.46 1549.52 1269.38 1544.94 Q1266.33 1540.33 1266.33 1531.6 Q1266.33 1522.85 1269.38 1518.27 Q1272.46 1513.66 1278.27 1513.66 Z" fill="#000000" fill-rule="evenodd" fill-opacity="1" /><path clip-path="url(#clip910)" d="M1733.26 1517.37 Q1729.65 1517.37 1727.82 1520.93 Q1726.01 1524.47 1726.01 1531.6 Q1726.01 1538.71 1727.82 1542.27 Q1729.65 1545.82 1733.26 1545.82 Q1736.89 1545.82 1738.7 1542.27 Q1740.53 1538.71 1740.53 1531.6 Q1740.53 1524.47 1738.7 1520.93 Q1736.89 1517.37 1733.26 1517.37 M1733.26 1513.66 Q1739.07 1513.66 1742.13 1518.27 Q1745.2 1522.85 1745.2 1531.6 Q1745.2 1540.33 1742.13 1544.94 Q1739.07 1549.52 1733.26 1549.52 Q1727.45 1549.52 1724.37 1544.94 Q1721.32 1540.33 1721.32 1531.6 Q1721.32 1522.85 1724.37 1518.27 Q1727.45 1513.66 1733.26 1513.66 Z" fill="#000000" fill-rule="evenodd" fill-opacity="1" /><path clip-path="url(#clip910)" d="M1753.42 1542.97 L1758.31 1542.97 L1758.31 1548.85 L1753.42 1548.85 L1753.42 1542.97 Z" fill="#000000" fill-rule="evenodd" fill-opacity="1" /><path clip-path="url(#clip910)" d="M1767.31 1514.29 L1789.53 1514.29 L1789.53 1516.28 L1776.99 1548.85 L1772.1 1548.85 L1783.91 1518.22 L1767.31 1518.22 L1767.31 1514.29 Z" fill="#000000" fill-rule="evenodd" fill-opacity="1" /><path clip-path="url(#clip910)" d="M1798.7 1514.29 L1817.06 1514.29 L1817.06 1518.22 L1802.98 1518.22 L1802.98 1526.7 Q1804 1526.35 1805.02 1526.19 Q1806.04 1526 1807.06 1526 Q1812.84 1526 1816.22 1529.17 Q1819.6 1532.34 1819.6 1537.76 Q1819.6 1543.34 1816.13 1546.44 Q1812.66 1549.52 1806.34 1549.52 Q1804.16 1549.52 1801.89 1549.15 Q1799.65 1548.78 1797.24 1548.04 L1797.24 1543.34 Q1799.32 1544.47 1801.55 1545.03 Q1803.77 1545.58 1806.25 1545.58 Q1810.25 1545.58 1812.59 1543.48 Q1814.93 1541.37 1814.93 1537.76 Q1814.93 1534.15 1812.59 1532.04 Q1810.25 1529.94 1806.25 1529.94 Q1804.37 1529.94 1802.5 1530.35 Q1800.64 1530.77 1798.7 1531.65 L1798.7 1514.29 Z" fill="#000000" fill-rule="evenodd" fill-opacity="1" /><path clip-path="url(#clip910)" d="M2252.41 1544.91 L2260.05 1544.91 L2260.05 1518.55 L2251.74 1520.21 L2251.74 1515.95 L2260 1514.29 L2264.68 1514.29 L2264.68 1544.91 L2272.32 1544.91 L2272.32 1548.85 L2252.41 1548.85 L2252.41 1544.91 Z" fill="#000000" fill-rule="evenodd" fill-opacity="1" /><path clip-path="url(#clip910)" d="M2281.76 1542.97 L2286.65 1542.97 L2286.65 1548.85 L2281.76 1548.85 L2281.76 1542.97 Z" fill="#000000" fill-rule="evenodd" fill-opacity="1" /><path clip-path="url(#clip910)" d="M2306.83 1517.37 Q2303.22 1517.37 2301.39 1520.93 Q2299.59 1524.47 2299.59 1531.6 Q2299.59 1538.71 2301.39 1542.27 Q2303.22 1545.82 2306.83 1545.82 Q2310.47 1545.82 2312.27 1542.27 Q2314.1 1538.71 2314.1 1531.6 Q2314.1 1524.47 2312.27 1520.93 Q2310.47 1517.37 2306.83 1517.37 M2306.83 1513.66 Q2312.64 1513.66 2315.7 1518.27 Q2318.78 1522.85 2318.78 1531.6 Q2318.78 1540.33 2315.7 1544.94 Q2312.64 1549.52 2306.83 1549.52 Q2301.02 1549.52 2297.94 1544.94 Q2294.89 1540.33 2294.89 1531.6 Q2294.89 1522.85 2297.94 1518.27 Q2301.02 1513.66 2306.83 1513.66 Z" fill="#000000" fill-rule="evenodd" fill-opacity="1" /><path clip-path="url(#clip910)" d="M2336.99 1517.37 Q2333.38 1517.37 2331.56 1520.93 Q2329.75 1524.47 2329.75 1531.6 Q2329.75 1538.71 2331.56 1542.27 Q2333.38 1545.82 2336.99 1545.82 Q2340.63 1545.82 2342.43 1542.27 Q2344.26 1538.71 2344.26 1531.6 Q2344.26 1524.47 2342.43 1520.93 Q2340.63 1517.37 2336.99 1517.37 M2336.99 1513.66 Q2342.81 1513.66 2345.86 1518.27 Q2348.94 1522.85 2348.94 1531.6 Q2348.94 1540.33 2345.86 1544.94 Q2342.81 1549.52 2336.99 1549.52 Q2331.18 1549.52 2328.11 1544.94 Q2325.05 1540.33 2325.05 1531.6 Q2325.05 1522.85 2328.11 1518.27 Q2331.18 1513.66 2336.99 1513.66 Z" fill="#000000" fill-rule="evenodd" fill-opacity="1" /><polyline clip-path="url(#clip912)" style="stroke:#000000; stroke-linecap:butt; stroke-linejoin:round; stroke-width:2; stroke-opacity:0.1; fill:none" points="
  156.598,1376.03 2352.76,1376.03 
  "/>
<polyline clip-path="url(#clip912)" style="stroke:#000000; stroke-linecap:butt; stroke-linejoin:round; stroke-width:2; stroke-opacity:0.1; fill:none" points="
  156.598,1169.94 2352.76,1169.94 
  "/>
<polyline clip-path="url(#clip912)" style="stroke:#000000; stroke-linecap:butt; stroke-linejoin:round; stroke-width:2; stroke-opacity:0.1; fill:none" points="
  156.598,963.851 2352.76,963.851 
  "/>
<polyline clip-path="url(#clip912)" style="stroke:#000000; stroke-linecap:butt; stroke-linejoin:round; stroke-width:2; stroke-opacity:0.1; fill:none" points="
  156.598,757.76 2352.76,757.76 
  "/>
<polyline clip-path="url(#clip912)" style="stroke:#000000; stroke-linecap:butt; stroke-linejoin:round; stroke-width:2; stroke-opacity:0.1; fill:none" points="
  156.598,551.67 2352.76,551.67 
  "/>
<polyline clip-path="url(#clip912)" style="stroke:#000000; stroke-linecap:butt; stroke-linejoin:round; stroke-width:2; stroke-opacity:0.1; fill:none" points="
  156.598,345.579 2352.76,345.579 
  "/>
<polyline clip-path="url(#clip912)" style="stroke:#000000; stroke-linecap:butt; stroke-linejoin:round; stroke-width:2; stroke-opacity:0.1; fill:none" points="
  156.598,139.488 2352.76,139.488 
  "/>
<polyline clip-path="url(#clip910)" style="stroke:#000000; stroke-linecap:butt; stroke-linejoin:round; stroke-width:4; stroke-opacity:1; fill:none" points="
  156.598,1486.45 156.598,47.2441 
  "/>
<polyline clip-path="url(#clip910)" style="stroke:#000000; stroke-linecap:butt; stroke-linejoin:round; stroke-width:4; stroke-opacity:1; fill:none" points="
  156.598,1376.03 175.496,1376.03 
  "/>
<polyline clip-path="url(#clip910)" style="stroke:#000000; stroke-linecap:butt; stroke-linejoin:round; stroke-width:4; stroke-opacity:1; fill:none" points="
  156.598,1169.94 175.496,1169.94 
  "/>
<polyline clip-path="url(#clip910)" style="stroke:#000000; stroke-linecap:butt; stroke-linejoin:round; stroke-width:4; stroke-opacity:1; fill:none" points="
  156.598,963.851 175.496,963.851 
  "/>
<polyline clip-path="url(#clip910)" style="stroke:#000000; stroke-linecap:butt; stroke-linejoin:round; stroke-width:4; stroke-opacity:1; fill:none" points="
  156.598,757.76 175.496,757.76 
  "/>
<polyline clip-path="url(#clip910)" style="stroke:#000000; stroke-linecap:butt; stroke-linejoin:round; stroke-width:4; stroke-opacity:1; fill:none" points="
  156.598,551.67 175.496,551.67 
  "/>
<polyline clip-path="url(#clip910)" style="stroke:#000000; stroke-linecap:butt; stroke-linejoin:round; stroke-width:4; stroke-opacity:1; fill:none" points="
  156.598,345.579 175.496,345.579 
  "/>
<polyline clip-path="url(#clip910)" style="stroke:#000000; stroke-linecap:butt; stroke-linejoin:round; stroke-width:4; stroke-opacity:1; fill:none" points="
  156.598,139.488 175.496,139.488 
  "/>
<path clip-path="url(#clip910)" d="M65.0198 1361.83 Q61.4087 1361.83 59.58 1365.4 Q57.7745 1368.94 57.7745 1376.07 Q57.7745 1383.17 59.58 1386.74 Q61.4087 1390.28 65.0198 1390.28 Q68.6541 1390.28 70.4596 1386.74 Q72.2883 1383.17 72.2883 1376.07 Q72.2883 1368.94 70.4596 1365.4 Q68.6541 1361.83 65.0198 1361.83 M65.0198 1358.13 Q70.83 1358.13 73.8855 1362.73 Q76.9642 1367.32 76.9642 1376.07 Q76.9642 1384.79 73.8855 1389.4 Q70.83 1393.98 65.0198 1393.98 Q59.2097 1393.98 56.131 1389.4 Q53.0754 1384.79 53.0754 1376.07 Q53.0754 1367.32 56.131 1362.73 Q59.2097 1358.13 65.0198 1358.13 Z" fill="#000000" fill-rule="evenodd" fill-opacity="1" /><path clip-path="url(#clip910)" d="M85.1818 1387.43 L90.066 1387.43 L90.066 1393.31 L85.1818 1393.31 L85.1818 1387.43 Z" fill="#000000" fill-rule="evenodd" fill-opacity="1" /><path clip-path="url(#clip910)" d="M104.279 1389.38 L120.598 1389.38 L120.598 1393.31 L98.6539 1393.31 L98.6539 1389.38 Q101.316 1386.62 105.899 1381.99 Q110.506 1377.34 111.686 1376 Q113.932 1373.48 114.811 1371.74 Q115.714 1369.98 115.714 1368.29 Q115.714 1365.54 113.77 1363.8 Q111.848 1362.06 108.746 1362.06 Q106.547 1362.06 104.094 1362.83 Q101.663 1363.59 98.8854 1365.14 L98.8854 1360.42 Q101.709 1359.29 104.163 1358.71 Q106.617 1358.13 108.654 1358.13 Q114.024 1358.13 117.219 1360.81 Q120.413 1363.5 120.413 1367.99 Q120.413 1370.12 119.603 1372.04 Q118.816 1373.94 116.709 1376.53 Q116.131 1377.2 113.029 1380.42 Q109.927 1383.61 104.279 1389.38 Z" fill="#000000" fill-rule="evenodd" fill-opacity="1" /><path clip-path="url(#clip910)" d="M64.0708 1155.74 Q60.4597 1155.74 58.631 1159.31 Q56.8254 1162.85 56.8254 1169.98 Q56.8254 1177.08 58.631 1180.65 Q60.4597 1184.19 64.0708 1184.19 Q67.705 1184.19 69.5105 1180.65 Q71.3392 1177.08 71.3392 1169.98 Q71.3392 1162.85 69.5105 1159.31 Q67.705 1155.74 64.0708 1155.74 M64.0708 1152.04 Q69.8809 1152.04 72.9365 1156.64 Q76.0151 1161.23 76.0151 1169.98 Q76.0151 1178.7 72.9365 1183.31 Q69.8809 1187.89 64.0708 1187.89 Q58.2606 1187.89 55.1819 1183.31 Q52.1264 1178.7 52.1264 1169.98 Q52.1264 1161.23 55.1819 1156.64 Q58.2606 1152.04 64.0708 1152.04 Z" fill="#000000" fill-rule="evenodd" fill-opacity="1" /><path clip-path="url(#clip910)" d="M84.2327 1181.34 L89.1169 1181.34 L89.1169 1187.22 L84.2327 1187.22 L84.2327 1181.34 Z" fill="#000000" fill-rule="evenodd" fill-opacity="1" /><path clip-path="url(#clip910)" d="M113.469 1168.59 Q116.825 1169.31 118.7 1171.57 Q120.598 1173.84 120.598 1177.18 Q120.598 1182.29 117.08 1185.09 Q113.561 1187.89 107.08 1187.89 Q104.904 1187.89 102.589 1187.45 Q100.297 1187.04 97.8437 1186.18 L97.8437 1181.67 Q99.7882 1182.8 102.103 1183.38 Q104.418 1183.96 106.941 1183.96 Q111.339 1183.96 113.631 1182.22 Q115.945 1180.49 115.945 1177.18 Q115.945 1174.12 113.793 1172.41 Q111.663 1170.67 107.844 1170.67 L103.816 1170.67 L103.816 1166.83 L108.029 1166.83 Q111.478 1166.83 113.307 1165.46 Q115.135 1164.07 115.135 1161.48 Q115.135 1158.82 113.237 1157.41 Q111.362 1155.97 107.844 1155.97 Q105.922 1155.97 103.723 1156.39 Q101.524 1156.81 98.8854 1157.69 L98.8854 1153.52 Q101.547 1152.78 103.862 1152.41 Q106.2 1152.04 108.26 1152.04 Q113.584 1152.04 116.686 1154.47 Q119.788 1156.88 119.788 1161 Q119.788 1163.87 118.145 1165.86 Q116.501 1167.82 113.469 1168.59 Z" fill="#000000" fill-rule="evenodd" fill-opacity="1" /><path clip-path="url(#clip910)" d="M62.9365 949.65 Q59.3254 949.65 57.4967 953.215 Q55.6912 956.756 55.6912 963.886 Q55.6912 970.992 57.4967 974.557 Q59.3254 978.099 62.9365 978.099 Q66.5707 978.099 68.3763 974.557 Q70.205 970.992 70.205 963.886 Q70.205 956.756 68.3763 953.215 Q66.5707 949.65 62.9365 949.65 M62.9365 945.946 Q68.7467 945.946 71.8022 950.553 Q74.8809 955.136 74.8809 963.886 Q74.8809 972.613 71.8022 977.219 Q68.7467 981.803 62.9365 981.803 Q57.1264 981.803 54.0477 977.219 Q50.9921 972.613 50.9921 963.886 Q50.9921 955.136 54.0477 950.553 Q57.1264 945.946 62.9365 945.946 Z" fill="#000000" fill-rule="evenodd" fill-opacity="1" /><path clip-path="url(#clip910)" d="M83.0984 975.252 L87.9827 975.252 L87.9827 981.131 L83.0984 981.131 L83.0984 975.252 Z" fill="#000000" fill-rule="evenodd" fill-opacity="1" /><path clip-path="url(#clip910)" d="M111.015 950.645 L99.2095 969.094 L111.015 969.094 L111.015 950.645 M109.788 946.571 L115.668 946.571 L115.668 969.094 L120.598 969.094 L120.598 972.983 L115.668 972.983 L115.668 981.131 L111.015 981.131 L111.015 972.983 L95.4132 972.983 L95.4132 968.469 L109.788 946.571 Z" fill="#000000" fill-rule="evenodd" fill-opacity="1" /><path clip-path="url(#clip910)" d="M64.418 743.559 Q60.8069 743.559 58.9782 747.124 Q57.1726 750.666 57.1726 757.795 Q57.1726 764.902 58.9782 768.466 Q60.8069 772.008 64.418 772.008 Q68.0522 772.008 69.8578 768.466 Q71.6865 764.902 71.6865 757.795 Q71.6865 750.666 69.8578 747.124 Q68.0522 743.559 64.418 743.559 M64.418 739.855 Q70.2281 739.855 73.2837 744.462 Q76.3624 749.045 76.3624 757.795 Q76.3624 766.522 73.2837 771.128 Q70.2281 775.712 64.418 775.712 Q58.6078 775.712 55.5291 771.128 Q52.4736 766.522 52.4736 757.795 Q52.4736 749.045 55.5291 744.462 Q58.6078 739.855 64.418 739.855 Z" fill="#000000" fill-rule="evenodd" fill-opacity="1" /><path clip-path="url(#clip910)" d="M84.5799 769.161 L89.4641 769.161 L89.4641 775.04 L84.5799 775.04 L84.5799 769.161 Z" fill="#000000" fill-rule="evenodd" fill-opacity="1" /><path clip-path="url(#clip910)" d="M99.6956 740.48 L118.052 740.48 L118.052 744.416 L103.978 744.416 L103.978 752.888 Q104.996 752.541 106.015 752.379 Q107.033 752.193 108.052 752.193 Q113.839 752.193 117.219 755.365 Q120.598 758.536 120.598 763.953 Q120.598 769.531 117.126 772.633 Q113.654 775.712 107.334 775.712 Q105.159 775.712 102.89 775.341 Q100.645 774.971 98.2372 774.23 L98.2372 769.531 Q100.321 770.665 102.543 771.221 Q104.765 771.777 107.242 771.777 Q111.246 771.777 113.584 769.67 Q115.922 767.564 115.922 763.953 Q115.922 760.341 113.584 758.235 Q111.246 756.129 107.242 756.129 Q105.367 756.129 103.492 756.545 Q101.64 756.962 99.6956 757.841 L99.6956 740.48 Z" fill="#000000" fill-rule="evenodd" fill-opacity="1" /><path clip-path="url(#clip910)" d="M63.2606 537.468 Q59.6495 537.468 57.8208 541.033 Q56.0152 544.575 56.0152 551.704 Q56.0152 558.811 57.8208 562.376 Q59.6495 565.917 63.2606 565.917 Q66.8948 565.917 68.7004 562.376 Q70.5291 558.811 70.5291 551.704 Q70.5291 544.575 68.7004 541.033 Q66.8948 537.468 63.2606 537.468 M63.2606 533.765 Q69.0707 533.765 72.1263 538.371 Q75.205 542.954 75.205 551.704 Q75.205 560.431 72.1263 565.038 Q69.0707 569.621 63.2606 569.621 Q57.4504 569.621 54.3717 565.038 Q51.3162 560.431 51.3162 551.704 Q51.3162 542.954 54.3717 538.371 Q57.4504 533.765 63.2606 533.765 Z" fill="#000000" fill-rule="evenodd" fill-opacity="1" /><path clip-path="url(#clip910)" d="M83.4225 563.07 L88.3067 563.07 L88.3067 568.95 L83.4225 568.95 L83.4225 563.07 Z" fill="#000000" fill-rule="evenodd" fill-opacity="1" /><path clip-path="url(#clip910)" d="M109.071 549.806 Q105.922 549.806 104.071 551.959 Q102.242 554.112 102.242 557.862 Q102.242 561.588 104.071 563.764 Q105.922 565.917 109.071 565.917 Q112.219 565.917 114.047 563.764 Q115.899 561.588 115.899 557.862 Q115.899 554.112 114.047 551.959 Q112.219 549.806 109.071 549.806 M118.353 535.153 L118.353 539.413 Q116.594 538.579 114.788 538.14 Q113.006 537.7 111.246 537.7 Q106.617 537.7 104.163 540.825 Q101.733 543.95 101.385 550.269 Q102.751 548.255 104.811 547.19 Q106.871 546.102 109.348 546.102 Q114.557 546.102 117.566 549.274 Q120.598 552.422 120.598 557.862 Q120.598 563.186 117.45 566.403 Q114.302 569.621 109.071 569.621 Q103.075 569.621 99.9039 565.038 Q96.7326 560.431 96.7326 551.704 Q96.7326 543.51 100.621 538.649 Q104.51 533.765 111.061 533.765 Q112.82 533.765 114.603 534.112 Q116.408 534.459 118.353 535.153 Z" fill="#000000" fill-rule="evenodd" fill-opacity="1" /><path clip-path="url(#clip910)" d="M64.3254 331.377 Q60.7143 331.377 58.8856 334.942 Q57.0801 338.484 57.0801 345.613 Q57.0801 352.72 58.8856 356.285 Q60.7143 359.826 64.3254 359.826 Q67.9596 359.826 69.7652 356.285 Q71.5939 352.72 71.5939 345.613 Q71.5939 338.484 69.7652 334.942 Q67.9596 331.377 64.3254 331.377 M64.3254 327.674 Q70.1355 327.674 73.1911 332.28 Q76.2698 336.863 76.2698 345.613 Q76.2698 354.34 73.1911 358.947 Q70.1355 363.53 64.3254 363.53 Q58.5152 363.53 55.4365 358.947 Q52.381 354.34 52.381 345.613 Q52.381 336.863 55.4365 332.28 Q58.5152 327.674 64.3254 327.674 Z" fill="#000000" fill-rule="evenodd" fill-opacity="1" /><path clip-path="url(#clip910)" d="M84.4873 356.979 L89.3715 356.979 L89.3715 362.859 L84.4873 362.859 L84.4873 356.979 Z" fill="#000000" fill-rule="evenodd" fill-opacity="1" /><path clip-path="url(#clip910)" d="M98.3761 328.299 L120.598 328.299 L120.598 330.289 L108.052 362.859 L103.168 362.859 L114.973 332.234 L98.3761 332.234 L98.3761 328.299 Z" fill="#000000" fill-rule="evenodd" fill-opacity="1" /><path clip-path="url(#clip910)" d="M63.5152 125.286 Q59.9041 125.286 58.0754 128.851 Q56.2699 132.393 56.2699 139.523 Q56.2699 146.629 58.0754 150.194 Q59.9041 153.735 63.5152 153.735 Q67.1494 153.735 68.955 150.194 Q70.7837 146.629 70.7837 139.523 Q70.7837 132.393 68.955 128.851 Q67.1494 125.286 63.5152 125.286 M63.5152 121.583 Q69.3254 121.583 72.3809 126.189 Q75.4596 130.773 75.4596 139.523 Q75.4596 148.249 72.3809 152.856 Q69.3254 157.439 63.5152 157.439 Q57.7051 157.439 54.6264 152.856 Q51.5708 148.249 51.5708 139.523 Q51.5708 130.773 54.6264 126.189 Q57.7051 121.583 63.5152 121.583 Z" fill="#000000" fill-rule="evenodd" fill-opacity="1" /><path clip-path="url(#clip910)" d="M83.6771 150.888 L88.5614 150.888 L88.5614 156.768 L83.6771 156.768 L83.6771 150.888 Z" fill="#000000" fill-rule="evenodd" fill-opacity="1" /><path clip-path="url(#clip910)" d="M108.746 140.356 Q105.413 140.356 103.492 142.138 Q101.594 143.921 101.594 147.046 Q101.594 150.171 103.492 151.953 Q105.413 153.735 108.746 153.735 Q112.08 153.735 114.001 151.953 Q115.922 150.147 115.922 147.046 Q115.922 143.921 114.001 142.138 Q112.103 140.356 108.746 140.356 M104.071 138.365 Q101.061 137.624 99.3715 135.564 Q97.7048 133.504 97.7048 130.541 Q97.7048 126.398 100.645 123.99 Q103.608 121.583 108.746 121.583 Q113.908 121.583 116.848 123.99 Q119.788 126.398 119.788 130.541 Q119.788 133.504 118.098 135.564 Q116.432 137.624 113.445 138.365 Q116.825 139.152 118.7 141.444 Q120.598 143.735 120.598 147.046 Q120.598 152.069 117.52 154.754 Q114.464 157.439 108.746 157.439 Q103.029 157.439 99.9502 154.754 Q96.8947 152.069 96.8947 147.046 Q96.8947 143.735 98.7928 141.444 Q100.691 139.152 104.071 138.365 M102.358 130.981 Q102.358 133.666 104.024 135.171 Q105.714 136.675 108.746 136.675 Q111.756 136.675 113.445 135.171 Q115.158 133.666 115.158 130.981 Q115.158 128.296 113.445 126.791 Q111.756 125.286 108.746 125.286 Q105.714 125.286 104.024 126.791 Q102.358 128.296 102.358 130.981 Z" fill="#000000" fill-rule="evenodd" fill-opacity="1" /><polyline clip-path="url(#clip912)" style="stroke:#009af9; stroke-linecap:butt; stroke-linejoin:round; stroke-width:4; stroke-opacity:1; fill:none" points="
  1197.48,127.807 1389.62,587.753 2290.6,278.574 2150.18,457.698 218.754,729.315 2251.06,87.9763 880.89,485.607 1899.29,1445.72 572.469,236.95 2131.87,1316.31 
  
  "/>
<path clip-path="url(#clip910)" d="
M1987.12 198.898 L2279.55 198.898 L2279.55 95.2176 L1987.12 95.2176  Z
  " fill="#ffffff" fill-rule="evenodd" fill-opacity="1"/>
<polyline clip-path="url(#clip910)" style="stroke:#000000; stroke-linecap:butt; stroke-linejoin:round; stroke-width:4; stroke-opacity:1; fill:none" points="
  1987.12,198.898 2279.55,198.898 2279.55,95.2176 1987.12,95.2176 1987.12,198.898 
  "/>
<polyline clip-path="url(#clip910)" style="stroke:#009af9; stroke-linecap:butt; stroke-linejoin:round; stroke-width:4; stroke-opacity:1; fill:none" points="
  2011.12,147.058 2155.12,147.058 
  "/>
<path clip-path="url(#clip910)" d="M2192.96 166.745 Q2191.16 171.375 2189.44 172.787 Q2187.73 174.199 2184.86 174.199 L2181.46 174.199 L2181.46 170.634 L2183.96 170.634 Q2185.72 170.634 2186.69 169.8 Q2187.66 168.967 2188.84 165.865 L2189.61 163.921 L2179.12 138.412 L2183.63 138.412 L2191.74 158.689 L2199.84 138.412 L2204.35 138.412 L2192.96 166.745 Z" fill="#000000" fill-rule="evenodd" fill-opacity="1" /><path clip-path="url(#clip910)" d="M2211.64 160.402 L2219.28 160.402 L2219.28 134.037 L2210.97 135.703 L2210.97 131.444 L2219.24 129.778 L2223.91 129.778 L2223.91 160.402 L2231.55 160.402 L2231.55 164.338 L2211.64 164.338 L2211.64 160.402 Z" fill="#000000" fill-rule="evenodd" fill-opacity="1" /></svg>
