<?xml version="1.0" encoding="utf-8"?>
<svg xmlns="http://www.w3.org/2000/svg" xmlns:xlink="http://www.w3.org/1999/xlink" width="600" height="400" viewBox="0 0 2400 1600">
<defs>
  <clipPath id="clip520">
    <rect x="0" y="0" width="2400" height="1600"/>
  </clipPath>
</defs>
<path clip-path="url(#clip520)" d="
M0 1600 L2400 1600 L2400 0 L0 0  Z
  " fill="#ffffff" fill-rule="evenodd" fill-opacity="1"/>
<defs>
  <clipPath id="clip521">
    <rect x="480" y="0" width="1681" height="1600"/>
  </clipPath>
</defs>
<path clip-path="url(#clip520)" d="
M156.598 1486.45 L2352.76 1486.45 L2352.76 47.2441 L156.598 47.2441  Z
  " fill="#ffffff" fill-rule="evenodd" fill-opacity="1"/>
<defs>
  <clipPath id="clip522">
    <rect x="156" y="47" width="2197" height="1440"/>
  </clipPath>
</defs>
<polyline clip-path="url(#clip522)" style="stroke:#000000; stroke-linecap:butt; stroke-linejoin:round; stroke-width:2; stroke-opacity:0.1; fill:none" points="
  576.923,1486.45 576.923,47.2441 
  "/>
<polyline clip-path="url(#clip522)" style="stroke:#000000; stroke-linecap:butt; stroke-linejoin:round; stroke-width:2; stroke-opacity:0.1; fill:none" points="
  1012.89,1486.45 1012.89,47.2441 
  "/>
<polyline clip-path="url(#clip522)" style="stroke:#000000; stroke-linecap:butt; stroke-linejoin:round; stroke-width:2; stroke-opacity:0.1; fill:none" points="
  1448.85,1486.45 1448.85,47.2441 
  "/>
<polyline clip-path="url(#clip522)" style="stroke:#000000; stroke-linecap:butt; stroke-linejoin:round; stroke-width:2; stroke-opacity:0.1; fill:none" points="
  1884.81,1486.45 1884.81,47.2441 
  "/>
<polyline clip-path="url(#clip522)" style="stroke:#000000; stroke-linecap:butt; stroke-linejoin:round; stroke-width:2; stroke-opacity:0.1; fill:none" points="
  2320.77,1486.45 2320.77,47.2441 
  "/>
<polyline clip-path="url(#clip520)" style="stroke:#000000; stroke-linecap:butt; stroke-linejoin:round; stroke-width:4; stroke-opacity:1; fill:none" points="
  156.598,1486.45 2352.76,1486.45 
  "/>
<polyline clip-path="url(#clip520)" style="stroke:#000000; stroke-linecap:butt; stroke-linejoin:round; stroke-width:4; stroke-opacity:1; fill:none" points="
  576.923,1486.45 576.923,1467.55 
  "/>
<polyline clip-path="url(#clip520)" style="stroke:#000000; stroke-linecap:butt; stroke-linejoin:round; stroke-width:4; stroke-opacity:1; fill:none" points="
  1012.89,1486.45 1012.89,1467.55 
  "/>
<polyline clip-path="url(#clip520)" style="stroke:#000000; stroke-linecap:butt; stroke-linejoin:round; stroke-width:4; stroke-opacity:1; fill:none" points="
  1448.85,1486.45 1448.85,1467.55 
  "/>
<polyline clip-path="url(#clip520)" style="stroke:#000000; stroke-linecap:butt; stroke-linejoin:round; stroke-width:4; stroke-opacity:1; fill:none" points="
  1884.81,1486.45 1884.81,1467.55 
  "/>
<polyline clip-path="url(#clip520)" style="stroke:#000000; stroke-linecap:butt; stroke-linejoin:round; stroke-width:4; stroke-opacity:1; fill:none" points="
  2320.77,1486.45 2320.77,1467.55 
  "/>
<path clip-path="url(#clip520)" d="M555.106 1517.37 Q551.495 1517.37 549.667 1520.93 Q547.861 1524.47 547.861 1531.6 Q547.861 1538.71 549.667 1542.27 Q551.495 1545.82 555.106 1545.82 Q558.741 1545.82 560.546 1542.27 Q562.375 1538.71 562.375 1531.6 Q562.375 1524.47 560.546 1520.93 Q558.741 1517.37 555.106 1517.37 M555.106 1513.66 Q560.916 1513.66 563.972 1518.27 Q567.051 1522.85 567.051 1531.6 Q567.051 1540.33 563.972 1544.94 Q560.916 1549.52 555.106 1549.52 Q549.296 1549.52 546.217 1544.94 Q543.162 1540.33 543.162 1531.6 Q543.162 1522.85 546.217 1518.27 Q549.296 1513.66 555.106 1513.66 Z" fill="#000000" fill-rule="evenodd" fill-opacity="1" /><path clip-path="url(#clip520)" d="M575.268 1542.97 L580.152 1542.97 L580.152 1548.85 L575.268 1548.85 L575.268 1542.97 Z" fill="#000000" fill-rule="evenodd" fill-opacity="1" /><path clip-path="url(#clip520)" d="M594.365 1544.91 L610.685 1544.91 L610.685 1548.85 L588.74 1548.85 L588.74 1544.91 Q591.402 1542.16 595.986 1537.53 Q600.592 1532.88 601.773 1531.53 Q604.018 1529.01 604.898 1527.27 Q605.8 1525.51 605.8 1523.82 Q605.8 1521.07 603.856 1519.33 Q601.935 1517.6 598.833 1517.6 Q596.634 1517.6 594.18 1518.36 Q591.75 1519.13 588.972 1520.68 L588.972 1515.95 Q591.796 1514.82 594.25 1514.24 Q596.703 1513.66 598.74 1513.66 Q604.111 1513.66 607.305 1516.35 Q610.5 1519.03 610.5 1523.52 Q610.5 1525.65 609.689 1527.57 Q608.902 1529.47 606.796 1532.07 Q606.217 1532.74 603.115 1535.95 Q600.013 1539.15 594.365 1544.91 Z" fill="#000000" fill-rule="evenodd" fill-opacity="1" /><path clip-path="url(#clip520)" d="M990.027 1517.37 Q986.416 1517.37 984.587 1520.93 Q982.782 1524.47 982.782 1531.6 Q982.782 1538.71 984.587 1542.27 Q986.416 1545.82 990.027 1545.82 Q993.661 1545.82 995.467 1542.27 Q997.295 1538.71 997.295 1531.6 Q997.295 1524.47 995.467 1520.93 Q993.661 1517.37 990.027 1517.37 M990.027 1513.66 Q995.837 1513.66 998.893 1518.27 Q1001.97 1522.85 1001.97 1531.6 Q1001.97 1540.33 998.893 1544.94 Q995.837 1549.52 990.027 1549.52 Q984.217 1549.52 981.138 1544.94 Q978.083 1540.33 978.083 1531.6 Q978.083 1522.85 981.138 1518.27 Q984.217 1513.66 990.027 1513.66 Z" fill="#000000" fill-rule="evenodd" fill-opacity="1" /><path clip-path="url(#clip520)" d="M1010.19 1542.97 L1015.07 1542.97 L1015.07 1548.85 L1010.19 1548.85 L1010.19 1542.97 Z" fill="#000000" fill-rule="evenodd" fill-opacity="1" /><path clip-path="url(#clip520)" d="M1038.11 1518.36 L1026.3 1536.81 L1038.11 1536.81 L1038.11 1518.36 M1036.88 1514.29 L1042.76 1514.29 L1042.76 1536.81 L1047.69 1536.81 L1047.69 1540.7 L1042.76 1540.7 L1042.76 1548.85 L1038.11 1548.85 L1038.11 1540.7 L1022.5 1540.7 L1022.5 1536.19 L1036.88 1514.29 Z" fill="#000000" fill-rule="evenodd" fill-opacity="1" /><path clip-path="url(#clip520)" d="M1426.15 1517.37 Q1422.54 1517.37 1420.71 1520.93 Q1418.91 1524.47 1418.91 1531.6 Q1418.91 1538.71 1420.71 1542.27 Q1422.54 1545.82 1426.15 1545.82 Q1429.79 1545.82 1431.59 1542.27 Q1433.42 1538.71 1433.42 1531.6 Q1433.42 1524.47 1431.59 1520.93 Q1429.79 1517.37 1426.15 1517.37 M1426.15 1513.66 Q1431.96 1513.66 1435.02 1518.27 Q1438.1 1522.85 1438.1 1531.6 Q1438.1 1540.33 1435.02 1544.94 Q1431.96 1549.52 1426.15 1549.52 Q1420.34 1549.52 1417.26 1544.94 Q1414.21 1540.33 1414.21 1531.6 Q1414.21 1522.85 1417.26 1518.27 Q1420.34 1513.66 1426.15 1513.66 Z" fill="#000000" fill-rule="evenodd" fill-opacity="1" /><path clip-path="url(#clip520)" d="M1446.31 1542.97 L1451.2 1542.97 L1451.2 1548.85 L1446.31 1548.85 L1446.31 1542.97 Z" fill="#000000" fill-rule="evenodd" fill-opacity="1" /><path clip-path="url(#clip520)" d="M1471.96 1529.7 Q1468.81 1529.7 1466.96 1531.86 Q1465.13 1534.01 1465.13 1537.76 Q1465.13 1541.49 1466.96 1543.66 Q1468.81 1545.82 1471.96 1545.82 Q1475.11 1545.82 1476.94 1543.66 Q1478.79 1541.49 1478.79 1537.76 Q1478.79 1534.01 1476.94 1531.86 Q1475.11 1529.7 1471.96 1529.7 M1481.24 1515.05 L1481.24 1519.31 Q1479.48 1518.48 1477.68 1518.04 Q1475.9 1517.6 1474.14 1517.6 Q1469.51 1517.6 1467.05 1520.72 Q1464.62 1523.85 1464.28 1530.17 Q1465.64 1528.15 1467.7 1527.09 Q1469.76 1526 1472.24 1526 Q1477.45 1526 1480.46 1529.17 Q1483.49 1532.32 1483.49 1537.76 Q1483.49 1543.08 1480.34 1546.3 Q1477.19 1549.52 1471.96 1549.52 Q1465.97 1549.52 1462.79 1544.94 Q1459.62 1540.33 1459.62 1531.6 Q1459.62 1523.41 1463.51 1518.55 Q1467.4 1513.66 1473.95 1513.66 Q1475.71 1513.66 1477.49 1514.01 Q1479.3 1514.36 1481.24 1515.05 Z" fill="#000000" fill-rule="evenodd" fill-opacity="1" /><path clip-path="url(#clip520)" d="M1862.24 1517.37 Q1858.63 1517.37 1856.8 1520.93 Q1855 1524.47 1855 1531.6 Q1855 1538.71 1856.8 1542.27 Q1858.63 1545.82 1862.24 1545.82 Q1865.88 1545.82 1867.68 1542.27 Q1869.51 1538.71 1869.51 1531.6 Q1869.51 1524.47 1867.68 1520.93 Q1865.88 1517.37 1862.24 1517.37 M1862.24 1513.66 Q1868.05 1513.66 1871.11 1518.27 Q1874.19 1522.85 1874.19 1531.6 Q1874.19 1540.33 1871.11 1544.94 Q1868.05 1549.52 1862.24 1549.52 Q1856.43 1549.52 1853.35 1544.94 Q1850.3 1540.33 1850.3 1531.6 Q1850.3 1522.85 1853.35 1518.27 Q1856.43 1513.66 1862.24 1513.66 Z" fill="#000000" fill-rule="evenodd" fill-opacity="1" /><path clip-path="url(#clip520)" d="M1882.4 1542.97 L1887.29 1542.97 L1887.29 1548.85 L1882.4 1548.85 L1882.4 1542.97 Z" fill="#000000" fill-rule="evenodd" fill-opacity="1" /><path clip-path="url(#clip520)" d="M1907.47 1532.44 Q1904.14 1532.44 1902.22 1534.22 Q1900.32 1536 1900.32 1539.13 Q1900.32 1542.25 1902.22 1544.03 Q1904.14 1545.82 1907.47 1545.82 Q1910.81 1545.82 1912.73 1544.03 Q1914.65 1542.23 1914.65 1539.13 Q1914.65 1536 1912.73 1534.22 Q1910.83 1532.44 1907.47 1532.44 M1902.8 1530.45 Q1899.79 1529.7 1898.1 1527.64 Q1896.43 1525.58 1896.43 1522.62 Q1896.43 1518.48 1899.37 1516.07 Q1902.33 1513.66 1907.47 1513.66 Q1912.63 1513.66 1915.57 1516.07 Q1918.51 1518.48 1918.51 1522.62 Q1918.51 1525.58 1916.82 1527.64 Q1915.16 1529.7 1912.17 1530.45 Q1915.55 1531.23 1917.43 1533.52 Q1919.32 1535.82 1919.32 1539.13 Q1919.32 1544.15 1916.25 1546.83 Q1913.19 1549.52 1907.47 1549.52 Q1901.75 1549.52 1898.68 1546.83 Q1895.62 1544.15 1895.62 1539.13 Q1895.62 1535.82 1897.52 1533.52 Q1899.42 1531.23 1902.8 1530.45 M1901.08 1523.06 Q1901.08 1525.75 1902.75 1527.25 Q1904.44 1528.76 1907.47 1528.76 Q1910.48 1528.76 1912.17 1527.25 Q1913.88 1525.75 1913.88 1523.06 Q1913.88 1520.38 1912.17 1518.87 Q1910.48 1517.37 1907.47 1517.37 Q1904.44 1517.37 1902.75 1518.87 Q1901.08 1520.38 1901.08 1523.06 Z" fill="#000000" fill-rule="evenodd" fill-opacity="1" /><path clip-path="url(#clip520)" d="M2287.93 1544.91 L2295.56 1544.91 L2295.56 1518.55 L2287.25 1520.21 L2287.25 1515.95 L2295.52 1514.29 L2300.19 1514.29 L2300.19 1544.91 L2307.83 1544.91 L2307.83 1548.85 L2287.93 1548.85 L2287.93 1544.91 Z" fill="#000000" fill-rule="evenodd" fill-opacity="1" /><path clip-path="url(#clip520)" d="M2317.28 1542.97 L2322.16 1542.97 L2322.16 1548.85 L2317.28 1548.85 L2317.28 1542.97 Z" fill="#000000" fill-rule="evenodd" fill-opacity="1" /><path clip-path="url(#clip520)" d="M2342.35 1517.37 Q2338.74 1517.37 2336.91 1520.93 Q2335.1 1524.47 2335.1 1531.6 Q2335.1 1538.71 2336.91 1542.27 Q2338.74 1545.82 2342.35 1545.82 Q2345.98 1545.82 2347.79 1542.27 Q2349.61 1538.71 2349.61 1531.6 Q2349.61 1524.47 2347.79 1520.93 Q2345.98 1517.37 2342.35 1517.37 M2342.35 1513.66 Q2348.16 1513.66 2351.21 1518.27 Q2354.29 1522.85 2354.29 1531.6 Q2354.29 1540.33 2351.21 1544.94 Q2348.16 1549.52 2342.35 1549.52 Q2336.54 1549.52 2333.46 1544.94 Q2330.4 1540.33 2330.4 1531.6 Q2330.4 1522.85 2333.46 1518.27 Q2336.54 1513.66 2342.35 1513.66 Z" fill="#000000" fill-rule="evenodd" fill-opacity="1" /><polyline clip-path="url(#clip522)" style="stroke:#000000; stroke-linecap:butt; stroke-linejoin:round; stroke-width:2; stroke-opacity:0.1; fill:none" points="
  156.598,1273.41 2352.76,1273.41 
  "/>
<polyline clip-path="url(#clip522)" style="stroke:#000000; stroke-linecap:butt; stroke-linejoin:round; stroke-width:2; stroke-opacity:0.1; fill:none" points="
  156.598,967.281 2352.76,967.281 
  "/>
<polyline clip-path="url(#clip522)" style="stroke:#000000; stroke-linecap:butt; stroke-linejoin:round; stroke-width:2; stroke-opacity:0.1; fill:none" points="
  156.598,661.148 2352.76,661.148 
  "/>
<polyline clip-path="url(#clip522)" style="stroke:#000000; stroke-linecap:butt; stroke-linejoin:round; stroke-width:2; stroke-opacity:0.1; fill:none" points="
  156.598,355.015 2352.76,355.015 
  "/>
<polyline clip-path="url(#clip522)" style="stroke:#000000; stroke-linecap:butt; stroke-linejoin:round; stroke-width:2; stroke-opacity:0.1; fill:none" points="
  156.598,48.8824 2352.76,48.8824 
  "/>
<polyline clip-path="url(#clip520)" style="stroke:#000000; stroke-linecap:butt; stroke-linejoin:round; stroke-width:4; stroke-opacity:1; fill:none" points="
  156.598,1486.45 156.598,47.2441 
  "/>
<polyline clip-path="url(#clip520)" style="stroke:#000000; stroke-linecap:butt; stroke-linejoin:round; stroke-width:4; stroke-opacity:1; fill:none" points="
  156.598,1273.41 175.496,1273.41 
  "/>
<polyline clip-path="url(#clip520)" style="stroke:#000000; stroke-linecap:butt; stroke-linejoin:round; stroke-width:4; stroke-opacity:1; fill:none" points="
  156.598,967.281 175.496,967.281 
  "/>
<polyline clip-path="url(#clip520)" style="stroke:#000000; stroke-linecap:butt; stroke-linejoin:round; stroke-width:4; stroke-opacity:1; fill:none" points="
  156.598,661.148 175.496,661.148 
  "/>
<polyline clip-path="url(#clip520)" style="stroke:#000000; stroke-linecap:butt; stroke-linejoin:round; stroke-width:4; stroke-opacity:1; fill:none" points="
  156.598,355.015 175.496,355.015 
  "/>
<polyline clip-path="url(#clip520)" style="stroke:#000000; stroke-linecap:butt; stroke-linejoin:round; stroke-width:4; stroke-opacity:1; fill:none" points="
  156.598,48.8824 175.496,48.8824 
  "/>
<path clip-path="url(#clip520)" d="M65.0198 1259.21 Q61.4087 1259.21 59.58 1262.78 Q57.7745 1266.32 57.7745 1273.45 Q57.7745 1280.56 59.58 1284.12 Q61.4087 1287.66 65.0198 1287.66 Q68.6541 1287.66 70.4596 1284.12 Q72.2883 1280.56 72.2883 1273.45 Q72.2883 1266.32 70.4596 1262.78 Q68.6541 1259.21 65.0198 1259.21 M65.0198 1255.51 Q70.83 1255.51 73.8855 1260.12 Q76.9642 1264.7 76.9642 1273.45 Q76.9642 1282.18 73.8855 1286.78 Q70.83 1291.37 65.0198 1291.37 Q59.2097 1291.37 56.131 1286.78 Q53.0754 1282.18 53.0754 1273.45 Q53.0754 1264.7 56.131 1260.12 Q59.2097 1255.51 65.0198 1255.51 Z" fill="#000000" fill-rule="evenodd" fill-opacity="1" /><path clip-path="url(#clip520)" d="M85.1818 1284.81 L90.066 1284.81 L90.066 1290.69 L85.1818 1290.69 L85.1818 1284.81 Z" fill="#000000" fill-rule="evenodd" fill-opacity="1" /><path clip-path="url(#clip520)" d="M104.279 1286.76 L120.598 1286.76 L120.598 1290.69 L98.6539 1290.69 L98.6539 1286.76 Q101.316 1284 105.899 1279.37 Q110.506 1274.72 111.686 1273.38 Q113.932 1270.86 114.811 1269.12 Q115.714 1267.36 115.714 1265.67 Q115.714 1262.92 113.77 1261.18 Q111.848 1259.44 108.746 1259.44 Q106.547 1259.44 104.094 1260.21 Q101.663 1260.97 98.8854 1262.52 L98.8854 1257.8 Q101.709 1256.67 104.163 1256.09 Q106.617 1255.51 108.654 1255.51 Q114.024 1255.51 117.219 1258.19 Q120.413 1260.88 120.413 1265.37 Q120.413 1267.5 119.603 1269.42 Q118.816 1271.32 116.709 1273.91 Q116.131 1274.58 113.029 1277.8 Q109.927 1281 104.279 1286.76 Z" fill="#000000" fill-rule="evenodd" fill-opacity="1" /><path clip-path="url(#clip520)" d="M62.9365 953.08 Q59.3254 953.08 57.4967 956.645 Q55.6912 960.186 55.6912 967.316 Q55.6912 974.423 57.4967 977.987 Q59.3254 981.529 62.9365 981.529 Q66.5707 981.529 68.3763 977.987 Q70.205 974.423 70.205 967.316 Q70.205 960.186 68.3763 956.645 Q66.5707 953.08 62.9365 953.08 M62.9365 949.376 Q68.7467 949.376 71.8022 953.983 Q74.8809 958.566 74.8809 967.316 Q74.8809 976.043 71.8022 980.649 Q68.7467 985.233 62.9365 985.233 Q57.1264 985.233 54.0477 980.649 Q50.9921 976.043 50.9921 967.316 Q50.9921 958.566 54.0477 953.983 Q57.1264 949.376 62.9365 949.376 Z" fill="#000000" fill-rule="evenodd" fill-opacity="1" /><path clip-path="url(#clip520)" d="M83.0984 978.682 L87.9827 978.682 L87.9827 984.561 L83.0984 984.561 L83.0984 978.682 Z" fill="#000000" fill-rule="evenodd" fill-opacity="1" /><path clip-path="url(#clip520)" d="M111.015 954.075 L99.2095 972.524 L111.015 972.524 L111.015 954.075 M109.788 950.001 L115.668 950.001 L115.668 972.524 L120.598 972.524 L120.598 976.413 L115.668 976.413 L115.668 984.561 L111.015 984.561 L111.015 976.413 L95.4132 976.413 L95.4132 971.899 L109.788 950.001 Z" fill="#000000" fill-rule="evenodd" fill-opacity="1" /><path clip-path="url(#clip520)" d="M63.2606 646.947 Q59.6495 646.947 57.8208 650.512 Q56.0152 654.054 56.0152 661.183 Q56.0152 668.29 57.8208 671.854 Q59.6495 675.396 63.2606 675.396 Q66.8948 675.396 68.7004 671.854 Q70.5291 668.29 70.5291 661.183 Q70.5291 654.054 68.7004 650.512 Q66.8948 646.947 63.2606 646.947 M63.2606 643.243 Q69.0707 643.243 72.1263 647.85 Q75.205 652.433 75.205 661.183 Q75.205 669.91 72.1263 674.516 Q69.0707 679.1 63.2606 679.1 Q57.4504 679.1 54.3717 674.516 Q51.3162 669.91 51.3162 661.183 Q51.3162 652.433 54.3717 647.85 Q57.4504 643.243 63.2606 643.243 Z" fill="#000000" fill-rule="evenodd" fill-opacity="1" /><path clip-path="url(#clip520)" d="M83.4225 672.549 L88.3067 672.549 L88.3067 678.428 L83.4225 678.428 L83.4225 672.549 Z" fill="#000000" fill-rule="evenodd" fill-opacity="1" /><path clip-path="url(#clip520)" d="M109.071 659.285 Q105.922 659.285 104.071 661.438 Q102.242 663.591 102.242 667.34 Q102.242 671.067 104.071 673.243 Q105.922 675.396 109.071 675.396 Q112.219 675.396 114.047 673.243 Q115.899 671.067 115.899 667.34 Q115.899 663.591 114.047 661.438 Q112.219 659.285 109.071 659.285 M118.353 644.632 L118.353 648.892 Q116.594 648.058 114.788 647.618 Q113.006 647.179 111.246 647.179 Q106.617 647.179 104.163 650.304 Q101.733 653.429 101.385 659.748 Q102.751 657.734 104.811 656.669 Q106.871 655.581 109.348 655.581 Q114.557 655.581 117.566 658.753 Q120.598 661.901 120.598 667.34 Q120.598 672.665 117.45 675.882 Q114.302 679.1 109.071 679.1 Q103.075 679.1 99.9039 674.516 Q96.7326 669.91 96.7326 661.183 Q96.7326 652.989 100.621 648.128 Q104.51 643.243 111.061 643.243 Q112.82 643.243 114.603 643.591 Q116.408 643.938 118.353 644.632 Z" fill="#000000" fill-rule="evenodd" fill-opacity="1" /><path clip-path="url(#clip520)" d="M63.5152 340.814 Q59.9041 340.814 58.0754 344.379 Q56.2699 347.921 56.2699 355.05 Q56.2699 362.157 58.0754 365.721 Q59.9041 369.263 63.5152 369.263 Q67.1494 369.263 68.955 365.721 Q70.7837 362.157 70.7837 355.05 Q70.7837 347.921 68.955 344.379 Q67.1494 340.814 63.5152 340.814 M63.5152 337.11 Q69.3254 337.11 72.3809 341.717 Q75.4596 346.3 75.4596 355.05 Q75.4596 363.777 72.3809 368.383 Q69.3254 372.967 63.5152 372.967 Q57.7051 372.967 54.6264 368.383 Q51.5708 363.777 51.5708 355.05 Q51.5708 346.3 54.6264 341.717 Q57.7051 337.11 63.5152 337.11 Z" fill="#000000" fill-rule="evenodd" fill-opacity="1" /><path clip-path="url(#clip520)" d="M83.6771 366.416 L88.5614 366.416 L88.5614 372.295 L83.6771 372.295 L83.6771 366.416 Z" fill="#000000" fill-rule="evenodd" fill-opacity="1" /><path clip-path="url(#clip520)" d="M108.746 355.883 Q105.413 355.883 103.492 357.666 Q101.594 359.448 101.594 362.573 Q101.594 365.698 103.492 367.481 Q105.413 369.263 108.746 369.263 Q112.08 369.263 114.001 367.481 Q115.922 365.675 115.922 362.573 Q115.922 359.448 114.001 357.666 Q112.103 355.883 108.746 355.883 M104.071 353.893 Q101.061 353.152 99.3715 351.092 Q97.7048 349.032 97.7048 346.069 Q97.7048 341.925 100.645 339.518 Q103.608 337.11 108.746 337.11 Q113.908 337.11 116.848 339.518 Q119.788 341.925 119.788 346.069 Q119.788 349.032 118.098 351.092 Q116.432 353.152 113.445 353.893 Q116.825 354.68 118.7 356.971 Q120.598 359.263 120.598 362.573 Q120.598 367.596 117.52 370.282 Q114.464 372.967 108.746 372.967 Q103.029 372.967 99.9502 370.282 Q96.8947 367.596 96.8947 362.573 Q96.8947 359.263 98.7928 356.971 Q100.691 354.68 104.071 353.893 M102.358 346.509 Q102.358 349.194 104.024 350.698 Q105.714 352.203 108.746 352.203 Q111.756 352.203 113.445 350.698 Q115.158 349.194 115.158 346.509 Q115.158 343.823 113.445 342.319 Q111.756 340.814 108.746 340.814 Q105.714 340.814 104.024 342.319 Q102.358 343.823 102.358 346.509 Z" fill="#000000" fill-rule="evenodd" fill-opacity="1" /><path clip-path="url(#clip520)" d="M54.2328 62.2273 L61.8717 62.2273 L61.8717 35.8617 L53.5616 37.5283 L53.5616 33.2691 L61.8254 31.6024 L66.5013 31.6024 L66.5013 62.2273 L74.1402 62.2273 L74.1402 66.1624 L54.2328 66.1624 L54.2328 62.2273 Z" fill="#000000" fill-rule="evenodd" fill-opacity="1" /><path clip-path="url(#clip520)" d="M83.5845 60.2828 L88.4688 60.2828 L88.4688 66.1624 L83.5845 66.1624 L83.5845 60.2828 Z" fill="#000000" fill-rule="evenodd" fill-opacity="1" /><path clip-path="url(#clip520)" d="M108.654 34.6811 Q105.043 34.6811 103.214 38.2459 Q101.409 41.7876 101.409 48.9172 Q101.409 56.0236 103.214 59.5884 Q105.043 63.1301 108.654 63.1301 Q112.288 63.1301 114.094 59.5884 Q115.922 56.0236 115.922 48.9172 Q115.922 41.7876 114.094 38.2459 Q112.288 34.6811 108.654 34.6811 M108.654 30.9774 Q114.464 30.9774 117.52 35.5839 Q120.598 40.1672 120.598 48.9172 Q120.598 57.644 117.52 62.2504 Q114.464 66.8337 108.654 66.8337 Q102.844 66.8337 99.765 62.2504 Q96.7095 57.644 96.7095 48.9172 Q96.7095 40.1672 99.765 35.5839 Q102.844 30.9774 108.654 30.9774 Z" fill="#000000" fill-rule="evenodd" fill-opacity="1" /><polyline clip-path="url(#clip522)" style="stroke:#009af9; stroke-linecap:butt; stroke-linejoin:round; stroke-width:4; stroke-opacity:1; fill:none" points="
  218.754,985.488 2290.6,163.788 522.248,286.009 1786.48,976.802 2158.6,1184.71 624.358,1445.72 731.744,87.9763 1322.95,854.096 1022.49,239.418 1998.49,123.884 
  
  "/>
<path clip-path="url(#clip520)" d="
M1987.12 198.898 L2279.55 198.898 L2279.55 95.2176 L1987.12 95.2176  Z
  " fill="#ffffff" fill-rule="evenodd" fill-opacity="1"/>
<polyline clip-path="url(#clip520)" style="stroke:#000000; stroke-linecap:butt; stroke-linejoin:round; stroke-width:4; stroke-opacity:1; fill:none" points="
  1987.12,198.898 2279.55,198.898 2279.55,95.2176 1987.12,95.2176 1987.12,198.898 
  "/>
<polyline clip-path="url(#clip520)" style="stroke:#009af9; stroke-linecap:butt; stroke-linejoin:round; stroke-width:4; stroke-opacity:1; fill:none" points="
  2011.12,147.058 2155.12,147.058 
  "/>
<path clip-path="url(#clip520)" d="M2192.96 166.745 Q2191.16 171.375 2189.44 172.787 Q2187.73 174.199 2184.86 174.199 L2181.46 174.199 L2181.46 170.634 L2183.96 170.634 Q2185.72 170.634 2186.69 169.8 Q2187.66 168.967 2188.84 165.865 L2189.61 163.921 L2179.12 138.412 L2183.63 138.412 L2191.74 158.689 L2199.84 138.412 L2204.35 138.412 L2192.96 166.745 Z" fill="#000000" fill-rule="evenodd" fill-opacity="1" /><path clip-path="url(#clip520)" d="M2211.64 160.402 L2219.28 160.402 L2219.28 134.037 L2210.97 135.703 L2210.97 131.444 L2219.24 129.778 L2223.91 129.778 L2223.91 160.402 L2231.55 160.402 L2231.55 164.338 L2211.64 164.338 L2211.64 160.402 Z" fill="#000000" fill-rule="evenodd" fill-opacity="1" /></svg>
