<?xml version="1.0" encoding="utf-8"?>
<svg xmlns="http://www.w3.org/2000/svg" xmlns:xlink="http://www.w3.org/1999/xlink" width="600" height="400" viewBox="0 0 2400 1600">
<defs>
  <clipPath id="clip070">
    <rect x="0" y="0" width="2400" height="1600"/>
  </clipPath>
</defs>
<path clip-path="url(#clip070)" d="
M0 1600 L2400 1600 L2400 0 L0 0  Z
  " fill="#ffffff" fill-rule="evenodd" fill-opacity="1"/>
<defs>
  <clipPath id="clip071">
    <rect x="480" y="0" width="1681" height="1600"/>
  </clipPath>
</defs>
<path clip-path="url(#clip070)" d="
M156.598 1486.45 L2352.76 1486.45 L2352.76 47.2441 L156.598 47.2441  Z
  " fill="#ffffff" fill-rule="evenodd" fill-opacity="1"/>
<defs>
  <clipPath id="clip072">
    <rect x="156" y="47" width="2197" height="1440"/>
  </clipPath>
</defs>
<polyline clip-path="url(#clip072)" style="stroke:#000000; stroke-linecap:butt; stroke-linejoin:round; stroke-width:2; stroke-opacity:0.1; fill:none" points="
  164.362,1486.45 164.362,47.2441 
  "/>
<polyline clip-path="url(#clip072)" style="stroke:#000000; stroke-linecap:butt; stroke-linejoin:round; stroke-width:2; stroke-opacity:0.1; fill:none" points="
  623.151,1486.45 623.151,47.2441 
  "/>
<polyline clip-path="url(#clip072)" style="stroke:#000000; stroke-linecap:butt; stroke-linejoin:round; stroke-width:2; stroke-opacity:0.1; fill:none" points="
  1081.94,1486.45 1081.94,47.2441 
  "/>
<polyline clip-path="url(#clip072)" style="stroke:#000000; stroke-linecap:butt; stroke-linejoin:round; stroke-width:2; stroke-opacity:0.1; fill:none" points="
  1540.73,1486.45 1540.73,47.2441 
  "/>
<polyline clip-path="url(#clip072)" style="stroke:#000000; stroke-linecap:butt; stroke-linejoin:round; stroke-width:2; stroke-opacity:0.1; fill:none" points="
  1999.52,1486.45 1999.52,47.2441 
  "/>
<polyline clip-path="url(#clip070)" style="stroke:#000000; stroke-linecap:butt; stroke-linejoin:round; stroke-width:4; stroke-opacity:1; fill:none" points="
  156.598,1486.45 2352.76,1486.45 
  "/>
<polyline clip-path="url(#clip070)" style="stroke:#000000; stroke-linecap:butt; stroke-linejoin:round; stroke-width:4; stroke-opacity:1; fill:none" points="
  164.362,1486.45 164.362,1467.55 
  "/>
<polyline clip-path="url(#clip070)" style="stroke:#000000; stroke-linecap:butt; stroke-linejoin:round; stroke-width:4; stroke-opacity:1; fill:none" points="
  623.151,1486.45 623.151,1467.55 
  "/>
<polyline clip-path="url(#clip070)" style="stroke:#000000; stroke-linecap:butt; stroke-linejoin:round; stroke-width:4; stroke-opacity:1; fill:none" points="
  1081.94,1486.45 1081.94,1467.55 
  "/>
<polyline clip-path="url(#clip070)" style="stroke:#000000; stroke-linecap:butt; stroke-linejoin:round; stroke-width:4; stroke-opacity:1; fill:none" points="
  1540.73,1486.45 1540.73,1467.55 
  "/>
<polyline clip-path="url(#clip070)" style="stroke:#000000; stroke-linecap:butt; stroke-linejoin:round; stroke-width:4; stroke-opacity:1; fill:none" points="
  1999.52,1486.45 1999.52,1467.55 
  "/>
<path clip-path="url(#clip070)" d="M141.746 1517.37 Q138.135 1517.37 136.306 1520.93 Q134.501 1524.47 134.501 1531.6 Q134.501 1538.71 136.306 1542.27 Q138.135 1545.82 141.746 1545.82 Q145.38 1545.82 147.186 1542.27 Q149.014 1538.71 149.014 1531.6 Q149.014 1524.47 147.186 1520.93 Q145.38 1517.37 141.746 1517.37 M141.746 1513.66 Q147.556 1513.66 150.612 1518.27 Q153.69 1522.85 153.69 1531.6 Q153.69 1540.33 150.612 1544.94 Q147.556 1549.52 141.746 1549.52 Q135.936 1549.52 132.857 1544.94 Q129.802 1540.33 129.802 1531.6 Q129.802 1522.85 132.857 1518.27 Q135.936 1513.66 141.746 1513.66 Z" fill="#000000" fill-rule="evenodd" fill-opacity="1" /><path clip-path="url(#clip070)" d="M161.908 1542.97 L166.792 1542.97 L166.792 1548.85 L161.908 1548.85 L161.908 1542.97 Z" fill="#000000" fill-rule="evenodd" fill-opacity="1" /><path clip-path="url(#clip070)" d="M186.977 1517.37 Q183.366 1517.37 181.537 1520.93 Q179.732 1524.47 179.732 1531.6 Q179.732 1538.71 181.537 1542.27 Q183.366 1545.82 186.977 1545.82 Q190.611 1545.82 192.417 1542.27 Q194.246 1538.71 194.246 1531.6 Q194.246 1524.47 192.417 1520.93 Q190.611 1517.37 186.977 1517.37 M186.977 1513.66 Q192.787 1513.66 195.843 1518.27 Q198.922 1522.85 198.922 1531.6 Q198.922 1540.33 195.843 1544.94 Q192.787 1549.52 186.977 1549.52 Q181.167 1549.52 178.088 1544.94 Q175.033 1540.33 175.033 1531.6 Q175.033 1522.85 178.088 1518.27 Q181.167 1513.66 186.977 1513.66 Z" fill="#000000" fill-rule="evenodd" fill-opacity="1" /><path clip-path="url(#clip070)" d="M601.334 1517.37 Q597.723 1517.37 595.894 1520.93 Q594.089 1524.47 594.089 1531.6 Q594.089 1538.71 595.894 1542.27 Q597.723 1545.82 601.334 1545.82 Q604.968 1545.82 606.774 1542.27 Q608.603 1538.71 608.603 1531.6 Q608.603 1524.47 606.774 1520.93 Q604.968 1517.37 601.334 1517.37 M601.334 1513.66 Q607.144 1513.66 610.2 1518.27 Q613.279 1522.85 613.279 1531.6 Q613.279 1540.33 610.2 1544.94 Q607.144 1549.52 601.334 1549.52 Q595.524 1549.52 592.445 1544.94 Q589.39 1540.33 589.39 1531.6 Q589.39 1522.85 592.445 1518.27 Q595.524 1513.66 601.334 1513.66 Z" fill="#000000" fill-rule="evenodd" fill-opacity="1" /><path clip-path="url(#clip070)" d="M621.496 1542.97 L626.38 1542.97 L626.38 1548.85 L621.496 1548.85 L621.496 1542.97 Z" fill="#000000" fill-rule="evenodd" fill-opacity="1" /><path clip-path="url(#clip070)" d="M640.593 1544.91 L656.913 1544.91 L656.913 1548.85 L634.968 1548.85 L634.968 1544.91 Q637.63 1542.16 642.214 1537.53 Q646.82 1532.88 648.001 1531.53 Q650.246 1529.01 651.126 1527.27 Q652.028 1525.51 652.028 1523.82 Q652.028 1521.07 650.084 1519.33 Q648.163 1517.6 645.061 1517.6 Q642.862 1517.6 640.408 1518.36 Q637.978 1519.13 635.2 1520.68 L635.2 1515.95 Q638.024 1514.82 640.478 1514.24 Q642.931 1513.66 644.968 1513.66 Q650.339 1513.66 653.533 1516.35 Q656.727 1519.03 656.727 1523.52 Q656.727 1525.65 655.917 1527.57 Q655.13 1529.47 653.024 1532.07 Q652.445 1532.74 649.343 1535.95 Q646.241 1539.15 640.593 1544.91 Z" fill="#000000" fill-rule="evenodd" fill-opacity="1" /><path clip-path="url(#clip070)" d="M1059.08 1517.37 Q1055.47 1517.37 1053.64 1520.93 Q1051.84 1524.47 1051.84 1531.6 Q1051.84 1538.71 1053.64 1542.27 Q1055.47 1545.82 1059.08 1545.82 Q1062.72 1545.82 1064.52 1542.27 Q1066.35 1538.71 1066.35 1531.6 Q1066.35 1524.47 1064.52 1520.93 Q1062.72 1517.37 1059.08 1517.37 M1059.08 1513.66 Q1064.89 1513.66 1067.95 1518.27 Q1071.03 1522.85 1071.03 1531.6 Q1071.03 1540.33 1067.95 1544.94 Q1064.89 1549.52 1059.08 1549.52 Q1053.27 1549.52 1050.19 1544.94 Q1047.14 1540.33 1047.14 1531.6 Q1047.14 1522.85 1050.19 1518.27 Q1053.27 1513.66 1059.08 1513.66 Z" fill="#000000" fill-rule="evenodd" fill-opacity="1" /><path clip-path="url(#clip070)" d="M1079.24 1542.97 L1084.13 1542.97 L1084.13 1548.85 L1079.24 1548.85 L1079.24 1542.97 Z" fill="#000000" fill-rule="evenodd" fill-opacity="1" /><path clip-path="url(#clip070)" d="M1107.16 1518.36 L1095.36 1536.81 L1107.16 1536.81 L1107.16 1518.36 M1105.93 1514.29 L1111.81 1514.29 L1111.81 1536.81 L1116.74 1536.81 L1116.74 1540.7 L1111.81 1540.7 L1111.81 1548.85 L1107.16 1548.85 L1107.16 1540.7 L1091.56 1540.7 L1091.56 1536.19 L1105.93 1514.29 Z" fill="#000000" fill-rule="evenodd" fill-opacity="1" /><path clip-path="url(#clip070)" d="M1518.03 1517.37 Q1514.42 1517.37 1512.59 1520.93 Q1510.79 1524.47 1510.79 1531.6 Q1510.79 1538.71 1512.59 1542.27 Q1514.42 1545.82 1518.03 1545.82 Q1521.67 1545.82 1523.47 1542.27 Q1525.3 1538.71 1525.3 1531.6 Q1525.3 1524.47 1523.47 1520.93 Q1521.67 1517.37 1518.03 1517.37 M1518.03 1513.66 Q1523.84 1513.66 1526.9 1518.27 Q1529.98 1522.85 1529.98 1531.6 Q1529.98 1540.33 1526.9 1544.94 Q1523.84 1549.52 1518.03 1549.52 Q1512.22 1549.52 1509.15 1544.94 Q1506.09 1540.33 1506.09 1531.6 Q1506.09 1522.85 1509.15 1518.27 Q1512.22 1513.66 1518.03 1513.66 Z" fill="#000000" fill-rule="evenodd" fill-opacity="1" /><path clip-path="url(#clip070)" d="M1538.2 1542.97 L1543.08 1542.97 L1543.08 1548.85 L1538.2 1548.85 L1538.2 1542.97 Z" fill="#000000" fill-rule="evenodd" fill-opacity="1" /><path clip-path="url(#clip070)" d="M1563.84 1529.7 Q1560.7 1529.7 1558.84 1531.86 Q1557.02 1534.01 1557.02 1537.76 Q1557.02 1541.49 1558.84 1543.66 Q1560.7 1545.82 1563.84 1545.82 Q1566.99 1545.82 1568.82 1543.66 Q1570.67 1541.49 1570.67 1537.76 Q1570.67 1534.01 1568.82 1531.86 Q1566.99 1529.7 1563.84 1529.7 M1573.13 1515.05 L1573.13 1519.31 Q1571.37 1518.48 1569.56 1518.04 Q1567.78 1517.6 1566.02 1517.6 Q1561.39 1517.6 1558.94 1520.72 Q1556.51 1523.85 1556.16 1530.17 Q1557.52 1528.15 1559.58 1527.09 Q1561.64 1526 1564.12 1526 Q1569.33 1526 1572.34 1529.17 Q1575.37 1532.32 1575.37 1537.76 Q1575.37 1543.08 1572.22 1546.3 Q1569.08 1549.52 1563.84 1549.52 Q1557.85 1549.52 1554.68 1544.94 Q1551.51 1540.33 1551.51 1531.6 Q1551.51 1523.41 1555.39 1518.55 Q1559.28 1513.66 1565.83 1513.66 Q1567.59 1513.66 1569.38 1514.01 Q1571.18 1514.36 1573.13 1515.05 Z" fill="#000000" fill-rule="evenodd" fill-opacity="1" /><path clip-path="url(#clip070)" d="M1976.95 1517.37 Q1973.34 1517.37 1971.51 1520.93 Q1969.71 1524.47 1969.71 1531.6 Q1969.71 1538.71 1971.51 1542.27 Q1973.34 1545.82 1976.95 1545.82 Q1980.59 1545.82 1982.39 1542.27 Q1984.22 1538.71 1984.22 1531.6 Q1984.22 1524.47 1982.39 1520.93 Q1980.59 1517.37 1976.95 1517.37 M1976.95 1513.66 Q1982.76 1513.66 1985.82 1518.27 Q1988.9 1522.85 1988.9 1531.6 Q1988.9 1540.33 1985.82 1544.94 Q1982.76 1549.52 1976.95 1549.52 Q1971.14 1549.52 1968.06 1544.94 Q1965.01 1540.33 1965.01 1531.6 Q1965.01 1522.85 1968.06 1518.27 Q1971.14 1513.66 1976.95 1513.66 Z" fill="#000000" fill-rule="evenodd" fill-opacity="1" /><path clip-path="url(#clip070)" d="M1997.11 1542.97 L2002 1542.97 L2002 1548.85 L1997.11 1548.85 L1997.11 1542.97 Z" fill="#000000" fill-rule="evenodd" fill-opacity="1" /><path clip-path="url(#clip070)" d="M2022.18 1532.44 Q2018.85 1532.44 2016.93 1534.22 Q2015.03 1536 2015.03 1539.13 Q2015.03 1542.25 2016.93 1544.03 Q2018.85 1545.82 2022.18 1545.82 Q2025.52 1545.82 2027.44 1544.03 Q2029.36 1542.23 2029.36 1539.13 Q2029.36 1536 2027.44 1534.22 Q2025.54 1532.44 2022.18 1532.44 M2017.51 1530.45 Q2014.5 1529.7 2012.81 1527.64 Q2011.14 1525.58 2011.14 1522.62 Q2011.14 1518.48 2014.08 1516.07 Q2017.04 1513.66 2022.18 1513.66 Q2027.34 1513.66 2030.28 1516.07 Q2033.22 1518.48 2033.22 1522.62 Q2033.22 1525.58 2031.53 1527.64 Q2029.87 1529.7 2026.88 1530.45 Q2030.26 1531.23 2032.14 1533.52 Q2034.03 1535.82 2034.03 1539.13 Q2034.03 1544.15 2030.96 1546.83 Q2027.9 1549.52 2022.18 1549.52 Q2016.46 1549.52 2013.39 1546.83 Q2010.33 1544.15 2010.33 1539.13 Q2010.33 1535.82 2012.23 1533.52 Q2014.13 1531.23 2017.51 1530.45 M2015.79 1523.06 Q2015.79 1525.75 2017.46 1527.25 Q2019.15 1528.76 2022.18 1528.76 Q2025.19 1528.76 2026.88 1527.25 Q2028.59 1525.75 2028.59 1523.06 Q2028.59 1520.38 2026.88 1518.87 Q2025.19 1517.37 2022.18 1517.37 Q2019.15 1517.37 2017.46 1518.87 Q2015.79 1520.38 2015.79 1523.06 Z" fill="#000000" fill-rule="evenodd" fill-opacity="1" /><polyline clip-path="url(#clip072)" style="stroke:#000000; stroke-linecap:butt; stroke-linejoin:round; stroke-width:2; stroke-opacity:0.1; fill:none" points="
  156.598,1486.19 2352.76,1486.19 
  "/>
<polyline clip-path="url(#clip072)" style="stroke:#000000; stroke-linecap:butt; stroke-linejoin:round; stroke-width:2; stroke-opacity:0.1; fill:none" points="
  156.598,1173.05 2352.76,1173.05 
  "/>
<polyline clip-path="url(#clip072)" style="stroke:#000000; stroke-linecap:butt; stroke-linejoin:round; stroke-width:2; stroke-opacity:0.1; fill:none" points="
  156.598,859.908 2352.76,859.908 
  "/>
<polyline clip-path="url(#clip072)" style="stroke:#000000; stroke-linecap:butt; stroke-linejoin:round; stroke-width:2; stroke-opacity:0.1; fill:none" points="
  156.598,546.767 2352.76,546.767 
  "/>
<polyline clip-path="url(#clip072)" style="stroke:#000000; stroke-linecap:butt; stroke-linejoin:round; stroke-width:2; stroke-opacity:0.1; fill:none" points="
  156.598,233.626 2352.76,233.626 
  "/>
<polyline clip-path="url(#clip070)" style="stroke:#000000; stroke-linecap:butt; stroke-linejoin:round; stroke-width:4; stroke-opacity:1; fill:none" points="
  156.598,1486.45 156.598,47.2441 
  "/>
<polyline clip-path="url(#clip070)" style="stroke:#000000; stroke-linecap:butt; stroke-linejoin:round; stroke-width:4; stroke-opacity:1; fill:none" points="
  156.598,1486.19 175.496,1486.19 
  "/>
<polyline clip-path="url(#clip070)" style="stroke:#000000; stroke-linecap:butt; stroke-linejoin:round; stroke-width:4; stroke-opacity:1; fill:none" points="
  156.598,1173.05 175.496,1173.05 
  "/>
<polyline clip-path="url(#clip070)" style="stroke:#000000; stroke-linecap:butt; stroke-linejoin:round; stroke-width:4; stroke-opacity:1; fill:none" points="
  156.598,859.908 175.496,859.908 
  "/>
<polyline clip-path="url(#clip070)" style="stroke:#000000; stroke-linecap:butt; stroke-linejoin:round; stroke-width:4; stroke-opacity:1; fill:none" points="
  156.598,546.767 175.496,546.767 
  "/>
<polyline clip-path="url(#clip070)" style="stroke:#000000; stroke-linecap:butt; stroke-linejoin:round; stroke-width:4; stroke-opacity:1; fill:none" points="
  156.598,233.626 175.496,233.626 
  "/>
<path clip-path="url(#clip070)" d="M63.4226 1471.99 Q59.8115 1471.99 57.9828 1475.55 Q56.1773 1479.09 56.1773 1486.22 Q56.1773 1493.33 57.9828 1496.89 Q59.8115 1500.44 63.4226 1500.44 Q67.0569 1500.44 68.8624 1496.89 Q70.6911 1493.33 70.6911 1486.22 Q70.6911 1479.09 68.8624 1475.55 Q67.0569 1471.99 63.4226 1471.99 M63.4226 1468.28 Q69.2328 1468.28 72.2883 1472.89 Q75.367 1477.47 75.367 1486.22 Q75.367 1494.95 72.2883 1499.56 Q69.2328 1504.14 63.4226 1504.14 Q57.6125 1504.14 54.5338 1499.56 Q51.4782 1494.95 51.4782 1486.22 Q51.4782 1477.47 54.5338 1472.89 Q57.6125 1468.28 63.4226 1468.28 Z" fill="#000000" fill-rule="evenodd" fill-opacity="1" /><path clip-path="url(#clip070)" d="M83.5845 1497.59 L88.4688 1497.59 L88.4688 1503.47 L83.5845 1503.47 L83.5845 1497.59 Z" fill="#000000" fill-rule="evenodd" fill-opacity="1" /><path clip-path="url(#clip070)" d="M108.654 1471.99 Q105.043 1471.99 103.214 1475.55 Q101.409 1479.09 101.409 1486.22 Q101.409 1493.33 103.214 1496.89 Q105.043 1500.44 108.654 1500.44 Q112.288 1500.44 114.094 1496.89 Q115.922 1493.33 115.922 1486.22 Q115.922 1479.09 114.094 1475.55 Q112.288 1471.99 108.654 1471.99 M108.654 1468.28 Q114.464 1468.28 117.52 1472.89 Q120.598 1477.47 120.598 1486.22 Q120.598 1494.95 117.52 1499.56 Q114.464 1504.14 108.654 1504.14 Q102.844 1504.14 99.765 1499.56 Q96.7095 1494.95 96.7095 1486.22 Q96.7095 1477.47 99.765 1472.89 Q102.844 1468.28 108.654 1468.28 Z" fill="#000000" fill-rule="evenodd" fill-opacity="1" /><path clip-path="url(#clip070)" d="M65.0198 1158.85 Q61.4087 1158.85 59.58 1162.41 Q57.7745 1165.95 57.7745 1173.08 Q57.7745 1180.19 59.58 1183.75 Q61.4087 1187.3 65.0198 1187.3 Q68.6541 1187.3 70.4596 1183.75 Q72.2883 1180.19 72.2883 1173.08 Q72.2883 1165.95 70.4596 1162.41 Q68.6541 1158.85 65.0198 1158.85 M65.0198 1155.14 Q70.83 1155.14 73.8855 1159.75 Q76.9642 1164.33 76.9642 1173.08 Q76.9642 1181.81 73.8855 1186.42 Q70.83 1191 65.0198 1191 Q59.2097 1191 56.131 1186.42 Q53.0754 1181.81 53.0754 1173.08 Q53.0754 1164.33 56.131 1159.75 Q59.2097 1155.14 65.0198 1155.14 Z" fill="#000000" fill-rule="evenodd" fill-opacity="1" /><path clip-path="url(#clip070)" d="M85.1818 1184.45 L90.066 1184.45 L90.066 1190.33 L85.1818 1190.33 L85.1818 1184.45 Z" fill="#000000" fill-rule="evenodd" fill-opacity="1" /><path clip-path="url(#clip070)" d="M104.279 1186.39 L120.598 1186.39 L120.598 1190.33 L98.6539 1190.33 L98.6539 1186.39 Q101.316 1183.64 105.899 1179.01 Q110.506 1174.36 111.686 1173.01 Q113.932 1170.49 114.811 1168.75 Q115.714 1167 115.714 1165.31 Q115.714 1162.55 113.77 1160.81 Q111.848 1159.08 108.746 1159.08 Q106.547 1159.08 104.094 1159.84 Q101.663 1160.61 98.8854 1162.16 L98.8854 1157.43 Q101.709 1156.3 104.163 1155.72 Q106.617 1155.14 108.654 1155.14 Q114.024 1155.14 117.219 1157.83 Q120.413 1160.51 120.413 1165 Q120.413 1167.13 119.603 1169.06 Q118.816 1170.95 116.709 1173.55 Q116.131 1174.22 113.029 1177.43 Q109.927 1180.63 104.279 1186.39 Z" fill="#000000" fill-rule="evenodd" fill-opacity="1" /><path clip-path="url(#clip070)" d="M62.9365 845.706 Q59.3254 845.706 57.4967 849.271 Q55.6912 852.813 55.6912 859.942 Q55.6912 867.049 57.4967 870.614 Q59.3254 874.155 62.9365 874.155 Q66.5707 874.155 68.3763 870.614 Q70.205 867.049 70.205 859.942 Q70.205 852.813 68.3763 849.271 Q66.5707 845.706 62.9365 845.706 M62.9365 842.003 Q68.7467 842.003 71.8022 846.609 Q74.8809 851.192 74.8809 859.942 Q74.8809 868.669 71.8022 873.276 Q68.7467 877.859 62.9365 877.859 Q57.1264 877.859 54.0477 873.276 Q50.9921 868.669 50.9921 859.942 Q50.9921 851.192 54.0477 846.609 Q57.1264 842.003 62.9365 842.003 Z" fill="#000000" fill-rule="evenodd" fill-opacity="1" /><path clip-path="url(#clip070)" d="M83.0984 871.308 L87.9827 871.308 L87.9827 877.188 L83.0984 877.188 L83.0984 871.308 Z" fill="#000000" fill-rule="evenodd" fill-opacity="1" /><path clip-path="url(#clip070)" d="M111.015 846.702 L99.2095 865.151 L111.015 865.151 L111.015 846.702 M109.788 842.628 L115.668 842.628 L115.668 865.151 L120.598 865.151 L120.598 869.039 L115.668 869.039 L115.668 877.188 L111.015 877.188 L111.015 869.039 L95.4132 869.039 L95.4132 864.526 L109.788 842.628 Z" fill="#000000" fill-rule="evenodd" fill-opacity="1" /><path clip-path="url(#clip070)" d="M63.2606 532.566 Q59.6495 532.566 57.8208 536.13 Q56.0152 539.672 56.0152 546.802 Q56.0152 553.908 57.8208 557.473 Q59.6495 561.015 63.2606 561.015 Q66.8948 561.015 68.7004 557.473 Q70.5291 553.908 70.5291 546.802 Q70.5291 539.672 68.7004 536.13 Q66.8948 532.566 63.2606 532.566 M63.2606 528.862 Q69.0707 528.862 72.1263 533.468 Q75.205 538.052 75.205 546.802 Q75.205 555.528 72.1263 560.135 Q69.0707 564.718 63.2606 564.718 Q57.4504 564.718 54.3717 560.135 Q51.3162 555.528 51.3162 546.802 Q51.3162 538.052 54.3717 533.468 Q57.4504 528.862 63.2606 528.862 Z" fill="#000000" fill-rule="evenodd" fill-opacity="1" /><path clip-path="url(#clip070)" d="M83.4225 558.167 L88.3067 558.167 L88.3067 564.047 L83.4225 564.047 L83.4225 558.167 Z" fill="#000000" fill-rule="evenodd" fill-opacity="1" /><path clip-path="url(#clip070)" d="M109.071 544.904 Q105.922 544.904 104.071 547.056 Q102.242 549.209 102.242 552.959 Q102.242 556.686 104.071 558.862 Q105.922 561.015 109.071 561.015 Q112.219 561.015 114.047 558.862 Q115.899 556.686 115.899 552.959 Q115.899 549.209 114.047 547.056 Q112.219 544.904 109.071 544.904 M118.353 530.251 L118.353 534.51 Q116.594 533.677 114.788 533.237 Q113.006 532.797 111.246 532.797 Q106.617 532.797 104.163 535.922 Q101.733 539.047 101.385 545.366 Q102.751 543.353 104.811 542.288 Q106.871 541.2 109.348 541.2 Q114.557 541.2 117.566 544.371 Q120.598 547.519 120.598 552.959 Q120.598 558.283 117.45 561.501 Q114.302 564.718 109.071 564.718 Q103.075 564.718 99.9039 560.135 Q96.7326 555.528 96.7326 546.802 Q96.7326 538.607 100.621 533.746 Q104.51 528.862 111.061 528.862 Q112.82 528.862 114.603 529.209 Q116.408 529.556 118.353 530.251 Z" fill="#000000" fill-rule="evenodd" fill-opacity="1" /><path clip-path="url(#clip070)" d="M63.5152 219.425 Q59.9041 219.425 58.0754 222.99 Q56.2699 226.531 56.2699 233.661 Q56.2699 240.767 58.0754 244.332 Q59.9041 247.874 63.5152 247.874 Q67.1494 247.874 68.955 244.332 Q70.7837 240.767 70.7837 233.661 Q70.7837 226.531 68.955 222.99 Q67.1494 219.425 63.5152 219.425 M63.5152 215.721 Q69.3254 215.721 72.3809 220.328 Q75.4596 224.911 75.4596 233.661 Q75.4596 242.388 72.3809 246.994 Q69.3254 251.578 63.5152 251.578 Q57.7051 251.578 54.6264 246.994 Q51.5708 242.388 51.5708 233.661 Q51.5708 224.911 54.6264 220.328 Q57.7051 215.721 63.5152 215.721 Z" fill="#000000" fill-rule="evenodd" fill-opacity="1" /><path clip-path="url(#clip070)" d="M83.6771 245.027 L88.5614 245.027 L88.5614 250.906 L83.6771 250.906 L83.6771 245.027 Z" fill="#000000" fill-rule="evenodd" fill-opacity="1" /><path clip-path="url(#clip070)" d="M108.746 234.494 Q105.413 234.494 103.492 236.277 Q101.594 238.059 101.594 241.184 Q101.594 244.309 103.492 246.091 Q105.413 247.874 108.746 247.874 Q112.08 247.874 114.001 246.091 Q115.922 244.286 115.922 241.184 Q115.922 238.059 114.001 236.277 Q112.103 234.494 108.746 234.494 M104.071 232.504 Q101.061 231.763 99.3715 229.703 Q97.7048 227.642 97.7048 224.68 Q97.7048 220.536 100.645 218.129 Q103.608 215.721 108.746 215.721 Q113.908 215.721 116.848 218.129 Q119.788 220.536 119.788 224.68 Q119.788 227.642 118.098 229.703 Q116.432 231.763 113.445 232.504 Q116.825 233.291 118.7 235.582 Q120.598 237.874 120.598 241.184 Q120.598 246.207 117.52 248.892 Q114.464 251.578 108.746 251.578 Q103.029 251.578 99.9502 248.892 Q96.8947 246.207 96.8947 241.184 Q96.8947 237.874 98.7928 235.582 Q100.691 233.291 104.071 232.504 M102.358 225.119 Q102.358 227.805 104.024 229.309 Q105.714 230.814 108.746 230.814 Q111.756 230.814 113.445 229.309 Q115.158 227.805 115.158 225.119 Q115.158 222.434 113.445 220.93 Q111.756 219.425 108.746 219.425 Q105.714 219.425 104.024 220.93 Q102.358 222.434 102.358 225.119 Z" fill="#000000" fill-rule="evenodd" fill-opacity="1" /><polyline clip-path="url(#clip072)" style="stroke:#009af9; stroke-linecap:butt; stroke-linejoin:round; stroke-width:4; stroke-opacity:1; fill:none" points="
  623.969,1374.36 218.754,400.71 755.954,181.209 1700.5,679.889 2290.6,1110.96 845.915,109.234 1298.94,726.714 1049.29,1445.72 2019.96,770.593 648.309,87.9763 
  
  "/>
<path clip-path="url(#clip070)" d="
M1987.12 198.898 L2279.55 198.898 L2279.55 95.2176 L1987.12 95.2176  Z
  " fill="#ffffff" fill-rule="evenodd" fill-opacity="1"/>
<polyline clip-path="url(#clip070)" style="stroke:#000000; stroke-linecap:butt; stroke-linejoin:round; stroke-width:4; stroke-opacity:1; fill:none" points="
  1987.12,198.898 2279.55,198.898 2279.55,95.2176 1987.12,95.2176 1987.12,198.898 
  "/>
<polyline clip-path="url(#clip070)" style="stroke:#009af9; stroke-linecap:butt; stroke-linejoin:round; stroke-width:4; stroke-opacity:1; fill:none" points="
  2011.12,147.058 2155.12,147.058 
  "/>
<path clip-path="url(#clip070)" d="M2192.96 166.745 Q2191.16 171.375 2189.44 172.787 Q2187.73 174.199 2184.86 174.199 L2181.46 174.199 L2181.46 170.634 L2183.96 170.634 Q2185.72 170.634 2186.69 169.8 Q2187.66 168.967 2188.84 165.865 L2189.61 163.921 L2179.12 138.412 L2183.63 138.412 L2191.74 158.689 L2199.84 138.412 L2204.35 138.412 L2192.96 166.745 Z" fill="#000000" fill-rule="evenodd" fill-opacity="1" /><path clip-path="url(#clip070)" d="M2211.64 160.402 L2219.28 160.402 L2219.28 134.037 L2210.97 135.703 L2210.97 131.444 L2219.24 129.778 L2223.91 129.778 L2223.91 160.402 L2231.55 160.402 L2231.55 164.338 L2211.64 164.338 L2211.64 160.402 Z" fill="#000000" fill-rule="evenodd" fill-opacity="1" /></svg>
