<?xml version="1.0" encoding="utf-8"?>
<svg xmlns="http://www.w3.org/2000/svg" xmlns:xlink="http://www.w3.org/1999/xlink" width="600" height="400" viewBox="0 0 2400 1600">
<defs>
  <clipPath id="clip350">
    <rect x="0" y="0" width="2400" height="1600"/>
  </clipPath>
</defs>
<path clip-path="url(#clip350)" d="
M0 1600 L2400 1600 L2400 0 L0 0  Z
  " fill="#ffffff" fill-rule="evenodd" fill-opacity="1"/>
<defs>
  <clipPath id="clip351">
    <rect x="480" y="0" width="1681" height="1600"/>
  </clipPath>
</defs>
<path clip-path="url(#clip350)" d="
M156.598 1486.45 L2352.76 1486.45 L2352.76 47.2441 L156.598 47.2441  Z
  " fill="#ffffff" fill-rule="evenodd" fill-opacity="1"/>
<defs>
  <clipPath id="clip352">
    <rect x="156" y="47" width="2197" height="1440"/>
  </clipPath>
</defs>
<polyline clip-path="url(#clip352)" style="stroke:#000000; stroke-linecap:butt; stroke-linejoin:round; stroke-width:2; stroke-opacity:0.1; fill:none" points="
  196.231,1486.45 196.231,47.2441 
  "/>
<polyline clip-path="url(#clip352)" style="stroke:#000000; stroke-linecap:butt; stroke-linejoin:round; stroke-width:2; stroke-opacity:0.1; fill:none" points="
  685.891,1486.45 685.891,47.2441 
  "/>
<polyline clip-path="url(#clip352)" style="stroke:#000000; stroke-linecap:butt; stroke-linejoin:round; stroke-width:2; stroke-opacity:0.1; fill:none" points="
  1175.55,1486.45 1175.55,47.2441 
  "/>
<polyline clip-path="url(#clip352)" style="stroke:#000000; stroke-linecap:butt; stroke-linejoin:round; stroke-width:2; stroke-opacity:0.1; fill:none" points="
  1665.21,1486.45 1665.21,47.2441 
  "/>
<polyline clip-path="url(#clip352)" style="stroke:#000000; stroke-linecap:butt; stroke-linejoin:round; stroke-width:2; stroke-opacity:0.1; fill:none" points="
  2154.87,1486.45 2154.87,47.2441 
  "/>
<polyline clip-path="url(#clip350)" style="stroke:#000000; stroke-linecap:butt; stroke-linejoin:round; stroke-width:4; stroke-opacity:1; fill:none" points="
  156.598,1486.45 2352.76,1486.45 
  "/>
<polyline clip-path="url(#clip350)" style="stroke:#000000; stroke-linecap:butt; stroke-linejoin:round; stroke-width:4; stroke-opacity:1; fill:none" points="
  196.231,1486.45 196.231,1467.55 
  "/>
<polyline clip-path="url(#clip350)" style="stroke:#000000; stroke-linecap:butt; stroke-linejoin:round; stroke-width:4; stroke-opacity:1; fill:none" points="
  685.891,1486.45 685.891,1467.55 
  "/>
<polyline clip-path="url(#clip350)" style="stroke:#000000; stroke-linecap:butt; stroke-linejoin:round; stroke-width:4; stroke-opacity:1; fill:none" points="
  1175.55,1486.45 1175.55,1467.55 
  "/>
<polyline clip-path="url(#clip350)" style="stroke:#000000; stroke-linecap:butt; stroke-linejoin:round; stroke-width:4; stroke-opacity:1; fill:none" points="
  1665.21,1486.45 1665.21,1467.55 
  "/>
<polyline clip-path="url(#clip350)" style="stroke:#000000; stroke-linecap:butt; stroke-linejoin:round; stroke-width:4; stroke-opacity:1; fill:none" points="
  2154.87,1486.45 2154.87,1467.55 
  "/>
<path clip-path="url(#clip350)" d="M173.615 1517.37 Q170.004 1517.37 168.175 1520.93 Q166.37 1524.47 166.37 1531.6 Q166.37 1538.71 168.175 1542.27 Q170.004 1545.82 173.615 1545.82 Q177.25 1545.82 179.055 1542.27 Q180.884 1538.71 180.884 1531.6 Q180.884 1524.47 179.055 1520.93 Q177.25 1517.37 173.615 1517.37 M173.615 1513.66 Q179.425 1513.66 182.481 1518.27 Q185.56 1522.85 185.56 1531.6 Q185.56 1540.33 182.481 1544.94 Q179.425 1549.52 173.615 1549.52 Q167.805 1549.52 164.726 1544.94 Q161.671 1540.33 161.671 1531.6 Q161.671 1522.85 164.726 1518.27 Q167.805 1513.66 173.615 1513.66 Z" fill="#000000" fill-rule="evenodd" fill-opacity="1" /><path clip-path="url(#clip350)" d="M193.777 1542.97 L198.661 1542.97 L198.661 1548.85 L193.777 1548.85 L193.777 1542.97 Z" fill="#000000" fill-rule="evenodd" fill-opacity="1" /><path clip-path="url(#clip350)" d="M218.847 1517.37 Q215.235 1517.37 213.407 1520.93 Q211.601 1524.47 211.601 1531.6 Q211.601 1538.71 213.407 1542.27 Q215.235 1545.82 218.847 1545.82 Q222.481 1545.82 224.286 1542.27 Q226.115 1538.71 226.115 1531.6 Q226.115 1524.47 224.286 1520.93 Q222.481 1517.37 218.847 1517.37 M218.847 1513.66 Q224.657 1513.66 227.712 1518.27 Q230.791 1522.85 230.791 1531.6 Q230.791 1540.33 227.712 1544.94 Q224.657 1549.52 218.847 1549.52 Q213.036 1549.52 209.958 1544.94 Q206.902 1540.33 206.902 1531.6 Q206.902 1522.85 209.958 1518.27 Q213.036 1513.66 218.847 1513.66 Z" fill="#000000" fill-rule="evenodd" fill-opacity="1" /><path clip-path="url(#clip350)" d="M664.074 1517.37 Q660.463 1517.37 658.634 1520.93 Q656.829 1524.47 656.829 1531.6 Q656.829 1538.71 658.634 1542.27 Q660.463 1545.82 664.074 1545.82 Q667.708 1545.82 669.514 1542.27 Q671.343 1538.71 671.343 1531.6 Q671.343 1524.47 669.514 1520.93 Q667.708 1517.37 664.074 1517.37 M664.074 1513.66 Q669.884 1513.66 672.94 1518.27 Q676.019 1522.85 676.019 1531.6 Q676.019 1540.33 672.94 1544.94 Q669.884 1549.52 664.074 1549.52 Q658.264 1549.52 655.185 1544.94 Q652.13 1540.33 652.13 1531.6 Q652.13 1522.85 655.185 1518.27 Q658.264 1513.66 664.074 1513.66 Z" fill="#000000" fill-rule="evenodd" fill-opacity="1" /><path clip-path="url(#clip350)" d="M684.236 1542.97 L689.12 1542.97 L689.12 1548.85 L684.236 1548.85 L684.236 1542.97 Z" fill="#000000" fill-rule="evenodd" fill-opacity="1" /><path clip-path="url(#clip350)" d="M703.333 1544.91 L719.653 1544.91 L719.653 1548.85 L697.708 1548.85 L697.708 1544.91 Q700.37 1542.16 704.954 1537.53 Q709.56 1532.88 710.741 1531.53 Q712.986 1529.01 713.866 1527.27 Q714.768 1525.51 714.768 1523.82 Q714.768 1521.07 712.824 1519.33 Q710.903 1517.6 707.801 1517.6 Q705.602 1517.6 703.148 1518.36 Q700.718 1519.13 697.94 1520.68 L697.94 1515.95 Q700.764 1514.82 703.218 1514.24 Q705.671 1513.66 707.708 1513.66 Q713.079 1513.66 716.273 1516.35 Q719.467 1519.03 719.467 1523.52 Q719.467 1525.65 718.657 1527.57 Q717.87 1529.47 715.764 1532.07 Q715.185 1532.74 712.083 1535.95 Q708.981 1539.15 703.333 1544.91 Z" fill="#000000" fill-rule="evenodd" fill-opacity="1" /><path clip-path="url(#clip350)" d="M1152.69 1517.37 Q1149.08 1517.37 1147.25 1520.93 Q1145.45 1524.47 1145.45 1531.6 Q1145.45 1538.71 1147.25 1542.27 Q1149.08 1545.82 1152.69 1545.82 Q1156.33 1545.82 1158.13 1542.27 Q1159.96 1538.71 1159.96 1531.6 Q1159.96 1524.47 1158.13 1520.93 Q1156.33 1517.37 1152.69 1517.37 M1152.69 1513.66 Q1158.5 1513.66 1161.56 1518.27 Q1164.64 1522.85 1164.64 1531.6 Q1164.64 1540.33 1161.56 1544.94 Q1158.5 1549.52 1152.69 1549.52 Q1146.88 1549.52 1143.8 1544.94 Q1140.75 1540.33 1140.75 1531.6 Q1140.75 1522.85 1143.8 1518.27 Q1146.88 1513.66 1152.69 1513.66 Z" fill="#000000" fill-rule="evenodd" fill-opacity="1" /><path clip-path="url(#clip350)" d="M1172.85 1542.97 L1177.74 1542.97 L1177.74 1548.85 L1172.85 1548.85 L1172.85 1542.97 Z" fill="#000000" fill-rule="evenodd" fill-opacity="1" /><path clip-path="url(#clip350)" d="M1200.77 1518.36 L1188.97 1536.81 L1200.77 1536.81 L1200.77 1518.36 M1199.54 1514.29 L1205.42 1514.29 L1205.42 1536.81 L1210.35 1536.81 L1210.35 1540.7 L1205.42 1540.7 L1205.42 1548.85 L1200.77 1548.85 L1200.77 1540.7 L1185.17 1540.7 L1185.17 1536.19 L1199.54 1514.29 Z" fill="#000000" fill-rule="evenodd" fill-opacity="1" /><path clip-path="url(#clip350)" d="M1642.52 1517.37 Q1638.9 1517.37 1637.08 1520.93 Q1635.27 1524.47 1635.27 1531.6 Q1635.27 1538.71 1637.08 1542.27 Q1638.9 1545.82 1642.52 1545.82 Q1646.15 1545.82 1647.96 1542.27 Q1649.78 1538.71 1649.78 1531.6 Q1649.78 1524.47 1647.96 1520.93 Q1646.15 1517.37 1642.52 1517.37 M1642.52 1513.66 Q1648.33 1513.66 1651.38 1518.27 Q1654.46 1522.85 1654.46 1531.6 Q1654.46 1540.33 1651.38 1544.94 Q1648.33 1549.52 1642.52 1549.52 Q1636.71 1549.52 1633.63 1544.94 Q1630.57 1540.33 1630.57 1531.6 Q1630.57 1522.85 1633.63 1518.27 Q1636.71 1513.66 1642.52 1513.66 Z" fill="#000000" fill-rule="evenodd" fill-opacity="1" /><path clip-path="url(#clip350)" d="M1662.68 1542.97 L1667.56 1542.97 L1667.56 1548.85 L1662.68 1548.85 L1662.68 1542.97 Z" fill="#000000" fill-rule="evenodd" fill-opacity="1" /><path clip-path="url(#clip350)" d="M1688.33 1529.7 Q1685.18 1529.7 1683.33 1531.86 Q1681.5 1534.01 1681.5 1537.76 Q1681.5 1541.49 1683.33 1543.66 Q1685.18 1545.82 1688.33 1545.82 Q1691.47 1545.82 1693.3 1543.66 Q1695.15 1541.49 1695.15 1537.76 Q1695.15 1534.01 1693.3 1531.86 Q1691.47 1529.7 1688.33 1529.7 M1697.61 1515.05 L1697.61 1519.31 Q1695.85 1518.48 1694.04 1518.04 Q1692.26 1517.6 1690.5 1517.6 Q1685.87 1517.6 1683.42 1520.72 Q1680.99 1523.85 1680.64 1530.17 Q1682.01 1528.15 1684.07 1527.09 Q1686.13 1526 1688.6 1526 Q1693.81 1526 1696.82 1529.17 Q1699.85 1532.32 1699.85 1537.76 Q1699.85 1543.08 1696.7 1546.3 Q1693.56 1549.52 1688.33 1549.52 Q1682.33 1549.52 1679.16 1544.94 Q1675.99 1540.33 1675.99 1531.6 Q1675.99 1523.41 1679.88 1518.55 Q1683.77 1513.66 1690.32 1513.66 Q1692.08 1513.66 1693.86 1514.01 Q1695.66 1514.36 1697.61 1515.05 Z" fill="#000000" fill-rule="evenodd" fill-opacity="1" /><path clip-path="url(#clip350)" d="M2132.3 1517.37 Q2128.69 1517.37 2126.86 1520.93 Q2125.06 1524.47 2125.06 1531.6 Q2125.06 1538.71 2126.86 1542.27 Q2128.69 1545.82 2132.3 1545.82 Q2135.94 1545.82 2137.74 1542.27 Q2139.57 1538.71 2139.57 1531.6 Q2139.57 1524.47 2137.74 1520.93 Q2135.94 1517.37 2132.3 1517.37 M2132.3 1513.66 Q2138.11 1513.66 2141.17 1518.27 Q2144.25 1522.85 2144.25 1531.6 Q2144.25 1540.33 2141.17 1544.94 Q2138.11 1549.52 2132.3 1549.52 Q2126.49 1549.52 2123.41 1544.94 Q2120.36 1540.33 2120.36 1531.6 Q2120.36 1522.85 2123.41 1518.27 Q2126.49 1513.66 2132.3 1513.66 Z" fill="#000000" fill-rule="evenodd" fill-opacity="1" /><path clip-path="url(#clip350)" d="M2152.46 1542.97 L2157.35 1542.97 L2157.35 1548.85 L2152.46 1548.85 L2152.46 1542.97 Z" fill="#000000" fill-rule="evenodd" fill-opacity="1" /><path clip-path="url(#clip350)" d="M2177.53 1532.44 Q2174.2 1532.44 2172.28 1534.22 Q2170.38 1536 2170.38 1539.13 Q2170.38 1542.25 2172.28 1544.03 Q2174.2 1545.82 2177.53 1545.82 Q2180.87 1545.82 2182.79 1544.03 Q2184.71 1542.23 2184.71 1539.13 Q2184.71 1536 2182.79 1534.22 Q2180.89 1532.44 2177.53 1532.44 M2172.86 1530.45 Q2169.85 1529.7 2168.16 1527.64 Q2166.49 1525.58 2166.49 1522.62 Q2166.49 1518.48 2169.43 1516.07 Q2172.4 1513.66 2177.53 1513.66 Q2182.7 1513.66 2185.64 1516.07 Q2188.58 1518.48 2188.58 1522.62 Q2188.58 1525.58 2186.89 1527.64 Q2185.22 1529.7 2182.23 1530.45 Q2185.61 1531.23 2187.49 1533.52 Q2189.39 1535.82 2189.39 1539.13 Q2189.39 1544.15 2186.31 1546.83 Q2183.25 1549.52 2177.53 1549.52 Q2171.82 1549.52 2168.74 1546.83 Q2165.68 1544.15 2165.68 1539.13 Q2165.68 1535.82 2167.58 1533.52 Q2169.48 1531.23 2172.86 1530.45 M2171.15 1523.06 Q2171.15 1525.75 2172.81 1527.25 Q2174.5 1528.76 2177.53 1528.76 Q2180.54 1528.76 2182.23 1527.25 Q2183.95 1525.75 2183.95 1523.06 Q2183.95 1520.38 2182.23 1518.87 Q2180.54 1517.37 2177.53 1517.37 Q2174.5 1517.37 2172.81 1518.87 Q2171.15 1520.38 2171.15 1523.06 Z" fill="#000000" fill-rule="evenodd" fill-opacity="1" /><polyline clip-path="url(#clip352)" style="stroke:#000000; stroke-linecap:butt; stroke-linejoin:round; stroke-width:2; stroke-opacity:0.1; fill:none" points="
  156.598,1266.09 2352.76,1266.09 
  "/>
<polyline clip-path="url(#clip352)" style="stroke:#000000; stroke-linecap:butt; stroke-linejoin:round; stroke-width:2; stroke-opacity:0.1; fill:none" points="
  156.598,965.503 2352.76,965.503 
  "/>
<polyline clip-path="url(#clip352)" style="stroke:#000000; stroke-linecap:butt; stroke-linejoin:round; stroke-width:2; stroke-opacity:0.1; fill:none" points="
  156.598,664.919 2352.76,664.919 
  "/>
<polyline clip-path="url(#clip352)" style="stroke:#000000; stroke-linecap:butt; stroke-linejoin:round; stroke-width:2; stroke-opacity:0.1; fill:none" points="
  156.598,364.335 2352.76,364.335 
  "/>
<polyline clip-path="url(#clip352)" style="stroke:#000000; stroke-linecap:butt; stroke-linejoin:round; stroke-width:2; stroke-opacity:0.1; fill:none" points="
  156.598,63.7508 2352.76,63.7508 
  "/>
<polyline clip-path="url(#clip350)" style="stroke:#000000; stroke-linecap:butt; stroke-linejoin:round; stroke-width:4; stroke-opacity:1; fill:none" points="
  156.598,1486.45 156.598,47.2441 
  "/>
<polyline clip-path="url(#clip350)" style="stroke:#000000; stroke-linecap:butt; stroke-linejoin:round; stroke-width:4; stroke-opacity:1; fill:none" points="
  156.598,1266.09 175.496,1266.09 
  "/>
<polyline clip-path="url(#clip350)" style="stroke:#000000; stroke-linecap:butt; stroke-linejoin:round; stroke-width:4; stroke-opacity:1; fill:none" points="
  156.598,965.503 175.496,965.503 
  "/>
<polyline clip-path="url(#clip350)" style="stroke:#000000; stroke-linecap:butt; stroke-linejoin:round; stroke-width:4; stroke-opacity:1; fill:none" points="
  156.598,664.919 175.496,664.919 
  "/>
<polyline clip-path="url(#clip350)" style="stroke:#000000; stroke-linecap:butt; stroke-linejoin:round; stroke-width:4; stroke-opacity:1; fill:none" points="
  156.598,364.335 175.496,364.335 
  "/>
<polyline clip-path="url(#clip350)" style="stroke:#000000; stroke-linecap:butt; stroke-linejoin:round; stroke-width:4; stroke-opacity:1; fill:none" points="
  156.598,63.7508 175.496,63.7508 
  "/>
<path clip-path="url(#clip350)" d="M65.0198 1251.89 Q61.4087 1251.89 59.58 1255.45 Q57.7745 1258.99 57.7745 1266.12 Q57.7745 1273.23 59.58 1276.79 Q61.4087 1280.33 65.0198 1280.33 Q68.6541 1280.33 70.4596 1276.79 Q72.2883 1273.23 72.2883 1266.12 Q72.2883 1258.99 70.4596 1255.45 Q68.6541 1251.89 65.0198 1251.89 M65.0198 1248.18 Q70.83 1248.18 73.8855 1252.79 Q76.9642 1257.37 76.9642 1266.12 Q76.9642 1274.85 73.8855 1279.46 Q70.83 1284.04 65.0198 1284.04 Q59.2097 1284.04 56.131 1279.46 Q53.0754 1274.85 53.0754 1266.12 Q53.0754 1257.37 56.131 1252.79 Q59.2097 1248.18 65.0198 1248.18 Z" fill="#000000" fill-rule="evenodd" fill-opacity="1" /><path clip-path="url(#clip350)" d="M85.1818 1277.49 L90.066 1277.49 L90.066 1283.37 L85.1818 1283.37 L85.1818 1277.49 Z" fill="#000000" fill-rule="evenodd" fill-opacity="1" /><path clip-path="url(#clip350)" d="M104.279 1279.43 L120.598 1279.43 L120.598 1283.37 L98.6539 1283.37 L98.6539 1279.43 Q101.316 1276.68 105.899 1272.05 Q110.506 1267.39 111.686 1266.05 Q113.932 1263.53 114.811 1261.79 Q115.714 1260.03 115.714 1258.34 Q115.714 1255.59 113.77 1253.85 Q111.848 1252.12 108.746 1252.12 Q106.547 1252.12 104.094 1252.88 Q101.663 1253.65 98.8854 1255.2 L98.8854 1250.47 Q101.709 1249.34 104.163 1248.76 Q106.617 1248.18 108.654 1248.18 Q114.024 1248.18 117.219 1250.87 Q120.413 1253.55 120.413 1258.04 Q120.413 1260.17 119.603 1262.09 Q118.816 1263.99 116.709 1266.58 Q116.131 1267.26 113.029 1270.47 Q109.927 1273.67 104.279 1279.43 Z" fill="#000000" fill-rule="evenodd" fill-opacity="1" /><path clip-path="url(#clip350)" d="M62.9365 951.302 Q59.3254 951.302 57.4967 954.867 Q55.6912 958.408 55.6912 965.538 Q55.6912 972.644 57.4967 976.209 Q59.3254 979.751 62.9365 979.751 Q66.5707 979.751 68.3763 976.209 Q70.205 972.644 70.205 965.538 Q70.205 958.408 68.3763 954.867 Q66.5707 951.302 62.9365 951.302 M62.9365 947.598 Q68.7467 947.598 71.8022 952.204 Q74.8809 956.788 74.8809 965.538 Q74.8809 974.265 71.8022 978.871 Q68.7467 983.454 62.9365 983.454 Q57.1264 983.454 54.0477 978.871 Q50.9921 974.265 50.9921 965.538 Q50.9921 956.788 54.0477 952.204 Q57.1264 947.598 62.9365 947.598 Z" fill="#000000" fill-rule="evenodd" fill-opacity="1" /><path clip-path="url(#clip350)" d="M83.0984 976.903 L87.9827 976.903 L87.9827 982.783 L83.0984 982.783 L83.0984 976.903 Z" fill="#000000" fill-rule="evenodd" fill-opacity="1" /><path clip-path="url(#clip350)" d="M111.015 952.297 L99.2095 970.746 L111.015 970.746 L111.015 952.297 M109.788 948.223 L115.668 948.223 L115.668 970.746 L120.598 970.746 L120.598 974.635 L115.668 974.635 L115.668 982.783 L111.015 982.783 L111.015 974.635 L95.4132 974.635 L95.4132 970.121 L109.788 948.223 Z" fill="#000000" fill-rule="evenodd" fill-opacity="1" /><path clip-path="url(#clip350)" d="M63.2606 650.718 Q59.6495 650.718 57.8208 654.282 Q56.0152 657.824 56.0152 664.954 Q56.0152 672.06 57.8208 675.625 Q59.6495 679.167 63.2606 679.167 Q66.8948 679.167 68.7004 675.625 Q70.5291 672.06 70.5291 664.954 Q70.5291 657.824 68.7004 654.282 Q66.8948 650.718 63.2606 650.718 M63.2606 647.014 Q69.0707 647.014 72.1263 651.62 Q75.205 656.204 75.205 664.954 Q75.205 673.68 72.1263 678.287 Q69.0707 682.87 63.2606 682.87 Q57.4504 682.87 54.3717 678.287 Q51.3162 673.68 51.3162 664.954 Q51.3162 656.204 54.3717 651.62 Q57.4504 647.014 63.2606 647.014 Z" fill="#000000" fill-rule="evenodd" fill-opacity="1" /><path clip-path="url(#clip350)" d="M83.4225 676.319 L88.3067 676.319 L88.3067 682.199 L83.4225 682.199 L83.4225 676.319 Z" fill="#000000" fill-rule="evenodd" fill-opacity="1" /><path clip-path="url(#clip350)" d="M109.071 663.056 Q105.922 663.056 104.071 665.208 Q102.242 667.361 102.242 671.111 Q102.242 674.838 104.071 677.014 Q105.922 679.167 109.071 679.167 Q112.219 679.167 114.047 677.014 Q115.899 674.838 115.899 671.111 Q115.899 667.361 114.047 665.208 Q112.219 663.056 109.071 663.056 M118.353 648.403 L118.353 652.662 Q116.594 651.829 114.788 651.389 Q113.006 650.949 111.246 650.949 Q106.617 650.949 104.163 654.074 Q101.733 657.199 101.385 663.519 Q102.751 661.505 104.811 660.44 Q106.871 659.352 109.348 659.352 Q114.557 659.352 117.566 662.523 Q120.598 665.671 120.598 671.111 Q120.598 676.435 117.45 679.653 Q114.302 682.87 109.071 682.87 Q103.075 682.87 99.9039 678.287 Q96.7326 673.68 96.7326 664.954 Q96.7326 656.759 100.621 651.898 Q104.51 647.014 111.061 647.014 Q112.82 647.014 114.603 647.361 Q116.408 647.708 118.353 648.403 Z" fill="#000000" fill-rule="evenodd" fill-opacity="1" /><path clip-path="url(#clip350)" d="M63.5152 350.134 Q59.9041 350.134 58.0754 353.698 Q56.2699 357.24 56.2699 364.37 Q56.2699 371.476 58.0754 375.041 Q59.9041 378.583 63.5152 378.583 Q67.1494 378.583 68.955 375.041 Q70.7837 371.476 70.7837 364.37 Q70.7837 357.24 68.955 353.698 Q67.1494 350.134 63.5152 350.134 M63.5152 346.43 Q69.3254 346.43 72.3809 351.036 Q75.4596 355.62 75.4596 364.37 Q75.4596 373.096 72.3809 377.703 Q69.3254 382.286 63.5152 382.286 Q57.7051 382.286 54.6264 377.703 Q51.5708 373.096 51.5708 364.37 Q51.5708 355.62 54.6264 351.036 Q57.7051 346.43 63.5152 346.43 Z" fill="#000000" fill-rule="evenodd" fill-opacity="1" /><path clip-path="url(#clip350)" d="M83.6771 375.735 L88.5614 375.735 L88.5614 381.615 L83.6771 381.615 L83.6771 375.735 Z" fill="#000000" fill-rule="evenodd" fill-opacity="1" /><path clip-path="url(#clip350)" d="M108.746 365.203 Q105.413 365.203 103.492 366.985 Q101.594 368.768 101.594 371.893 Q101.594 375.018 103.492 376.8 Q105.413 378.583 108.746 378.583 Q112.08 378.583 114.001 376.8 Q115.922 374.995 115.922 371.893 Q115.922 368.768 114.001 366.985 Q112.103 365.203 108.746 365.203 M104.071 363.212 Q101.061 362.471 99.3715 360.411 Q97.7048 358.351 97.7048 355.388 Q97.7048 351.245 100.645 348.837 Q103.608 346.43 108.746 346.43 Q113.908 346.43 116.848 348.837 Q119.788 351.245 119.788 355.388 Q119.788 358.351 118.098 360.411 Q116.432 362.471 113.445 363.212 Q116.825 363.999 118.7 366.291 Q120.598 368.583 120.598 371.893 Q120.598 376.916 117.52 379.601 Q114.464 382.286 108.746 382.286 Q103.029 382.286 99.9502 379.601 Q96.8947 376.916 96.8947 371.893 Q96.8947 368.583 98.7928 366.291 Q100.691 363.999 104.071 363.212 M102.358 355.828 Q102.358 358.513 104.024 360.018 Q105.714 361.522 108.746 361.522 Q111.756 361.522 113.445 360.018 Q115.158 358.513 115.158 355.828 Q115.158 353.143 113.445 351.638 Q111.756 350.134 108.746 350.134 Q105.714 350.134 104.024 351.638 Q102.358 353.143 102.358 355.828 Z" fill="#000000" fill-rule="evenodd" fill-opacity="1" /><path clip-path="url(#clip350)" d="M54.2328 77.0957 L61.8717 77.0957 L61.8717 50.7301 L53.5616 52.3967 L53.5616 48.1375 L61.8254 46.4708 L66.5013 46.4708 L66.5013 77.0957 L74.1402 77.0957 L74.1402 81.0308 L54.2328 81.0308 L54.2328 77.0957 Z" fill="#000000" fill-rule="evenodd" fill-opacity="1" /><path clip-path="url(#clip350)" d="M83.5845 75.1512 L88.4688 75.1512 L88.4688 81.0308 L83.5845 81.0308 L83.5845 75.1512 Z" fill="#000000" fill-rule="evenodd" fill-opacity="1" /><path clip-path="url(#clip350)" d="M108.654 49.5495 Q105.043 49.5495 103.214 53.1143 Q101.409 56.656 101.409 63.7856 Q101.409 70.892 103.214 74.4568 Q105.043 77.9984 108.654 77.9984 Q112.288 77.9984 114.094 74.4568 Q115.922 70.892 115.922 63.7856 Q115.922 56.656 114.094 53.1143 Q112.288 49.5495 108.654 49.5495 M108.654 45.8458 Q114.464 45.8458 117.52 50.4523 Q120.598 55.0356 120.598 63.7856 Q120.598 72.5124 117.52 77.1188 Q114.464 81.7021 108.654 81.7021 Q102.844 81.7021 99.765 77.1188 Q96.7095 72.5124 96.7095 63.7856 Q96.7095 55.0356 99.765 50.4523 Q102.844 45.8458 108.654 45.8458 Z" fill="#000000" fill-rule="evenodd" fill-opacity="1" /><polyline clip-path="url(#clip352)" style="stroke:#009af9; stroke-linecap:butt; stroke-linejoin:round; stroke-width:4; stroke-opacity:1; fill:none" points="
  2290.6,1445.72 2166.34,1302.39 2064.71,625.531 2065.3,1209.22 1682.1,820.181 218.754,87.9763 581.307,1117.39 1934.55,322.605 1038.62,734.49 1423.68,1333.64 
  
  "/>
<path clip-path="url(#clip350)" d="
M1987.12 198.898 L2279.55 198.898 L2279.55 95.2176 L1987.12 95.2176  Z
  " fill="#ffffff" fill-rule="evenodd" fill-opacity="1"/>
<polyline clip-path="url(#clip350)" style="stroke:#000000; stroke-linecap:butt; stroke-linejoin:round; stroke-width:4; stroke-opacity:1; fill:none" points="
  1987.12,198.898 2279.55,198.898 2279.55,95.2176 1987.12,95.2176 1987.12,198.898 
  "/>
<polyline clip-path="url(#clip350)" style="stroke:#009af9; stroke-linecap:butt; stroke-linejoin:round; stroke-width:4; stroke-opacity:1; fill:none" points="
  2011.12,147.058 2155.12,147.058 
  "/>
<path clip-path="url(#clip350)" d="M2192.96 166.745 Q2191.16 171.375 2189.44 172.787 Q2187.73 174.199 2184.86 174.199 L2181.46 174.199 L2181.46 170.634 L2183.96 170.634 Q2185.72 170.634 2186.69 169.8 Q2187.66 168.967 2188.84 165.865 L2189.61 163.921 L2179.12 138.412 L2183.63 138.412 L2191.74 158.689 L2199.84 138.412 L2204.35 138.412 L2192.96 166.745 Z" fill="#000000" fill-rule="evenodd" fill-opacity="1" /><path clip-path="url(#clip350)" d="M2211.64 160.402 L2219.28 160.402 L2219.28 134.037 L2210.97 135.703 L2210.97 131.444 L2219.24 129.778 L2223.91 129.778 L2223.91 160.402 L2231.55 160.402 L2231.55 164.338 L2211.64 164.338 L2211.64 160.402 Z" fill="#000000" fill-rule="evenodd" fill-opacity="1" /></svg>
