<?xml version="1.0" encoding="utf-8"?>
<svg xmlns="http://www.w3.org/2000/svg" xmlns:xlink="http://www.w3.org/1999/xlink" width="600" height="400" viewBox="0 0 2400 1600">
<defs>
  <clipPath id="clip510">
    <rect x="0" y="0" width="2400" height="1600"/>
  </clipPath>
</defs>
<path clip-path="url(#clip510)" d="
M0 1600 L2400 1600 L2400 0 L0 0  Z
  " fill="#ffffff" fill-rule="evenodd" fill-opacity="1"/>
<defs>
  <clipPath id="clip511">
    <rect x="480" y="0" width="1681" height="1600"/>
  </clipPath>
</defs>
<path clip-path="url(#clip510)" d="
M156.598 1486.45 L2352.76 1486.45 L2352.76 47.2441 L156.598 47.2441  Z
  " fill="#ffffff" fill-rule="evenodd" fill-opacity="1"/>
<defs>
  <clipPath id="clip512">
    <rect x="156" y="47" width="2197" height="1440"/>
  </clipPath>
</defs>
<polyline clip-path="url(#clip512)" style="stroke:#000000; stroke-linecap:butt; stroke-linejoin:round; stroke-width:2; stroke-opacity:0.1; fill:none" points="
  163.052,1486.45 163.052,47.2441 
  "/>
<polyline clip-path="url(#clip512)" style="stroke:#000000; stroke-linecap:butt; stroke-linejoin:round; stroke-width:2; stroke-opacity:0.1; fill:none" points="
  643.362,1486.45 643.362,47.2441 
  "/>
<polyline clip-path="url(#clip512)" style="stroke:#000000; stroke-linecap:butt; stroke-linejoin:round; stroke-width:2; stroke-opacity:0.1; fill:none" points="
  1123.67,1486.45 1123.67,47.2441 
  "/>
<polyline clip-path="url(#clip512)" style="stroke:#000000; stroke-linecap:butt; stroke-linejoin:round; stroke-width:2; stroke-opacity:0.1; fill:none" points="
  1603.98,1486.45 1603.98,47.2441 
  "/>
<polyline clip-path="url(#clip512)" style="stroke:#000000; stroke-linecap:butt; stroke-linejoin:round; stroke-width:2; stroke-opacity:0.1; fill:none" points="
  2084.29,1486.45 2084.29,47.2441 
  "/>
<polyline clip-path="url(#clip510)" style="stroke:#000000; stroke-linecap:butt; stroke-linejoin:round; stroke-width:4; stroke-opacity:1; fill:none" points="
  156.598,1486.45 2352.76,1486.45 
  "/>
<polyline clip-path="url(#clip510)" style="stroke:#000000; stroke-linecap:butt; stroke-linejoin:round; stroke-width:4; stroke-opacity:1; fill:none" points="
  163.052,1486.45 163.052,1467.55 
  "/>
<polyline clip-path="url(#clip510)" style="stroke:#000000; stroke-linecap:butt; stroke-linejoin:round; stroke-width:4; stroke-opacity:1; fill:none" points="
  643.362,1486.45 643.362,1467.55 
  "/>
<polyline clip-path="url(#clip510)" style="stroke:#000000; stroke-linecap:butt; stroke-linejoin:round; stroke-width:4; stroke-opacity:1; fill:none" points="
  1123.67,1486.45 1123.67,1467.55 
  "/>
<polyline clip-path="url(#clip510)" style="stroke:#000000; stroke-linecap:butt; stroke-linejoin:round; stroke-width:4; stroke-opacity:1; fill:none" points="
  1603.98,1486.45 1603.98,1467.55 
  "/>
<polyline clip-path="url(#clip510)" style="stroke:#000000; stroke-linecap:butt; stroke-linejoin:round; stroke-width:4; stroke-opacity:1; fill:none" points="
  2084.29,1486.45 2084.29,1467.55 
  "/>
<path clip-path="url(#clip510)" d="M140.436 1517.37 Q136.825 1517.37 134.996 1520.93 Q133.191 1524.47 133.191 1531.6 Q133.191 1538.71 134.996 1542.27 Q136.825 1545.82 140.436 1545.82 Q144.07 1545.82 145.876 1542.27 Q147.705 1538.71 147.705 1531.6 Q147.705 1524.47 145.876 1520.93 Q144.07 1517.37 140.436 1517.37 M140.436 1513.66 Q146.246 1513.66 149.302 1518.27 Q152.381 1522.85 152.381 1531.6 Q152.381 1540.33 149.302 1544.94 Q146.246 1549.52 140.436 1549.52 Q134.626 1549.52 131.547 1544.94 Q128.492 1540.33 128.492 1531.6 Q128.492 1522.85 131.547 1518.27 Q134.626 1513.66 140.436 1513.66 Z" fill="#000000" fill-rule="evenodd" fill-opacity="1" /><path clip-path="url(#clip510)" d="M160.598 1542.97 L165.482 1542.97 L165.482 1548.85 L160.598 1548.85 L160.598 1542.97 Z" fill="#000000" fill-rule="evenodd" fill-opacity="1" /><path clip-path="url(#clip510)" d="M185.667 1517.37 Q182.056 1517.37 180.228 1520.93 Q178.422 1524.47 178.422 1531.6 Q178.422 1538.71 180.228 1542.27 Q182.056 1545.82 185.667 1545.82 Q189.302 1545.82 191.107 1542.27 Q192.936 1538.71 192.936 1531.6 Q192.936 1524.47 191.107 1520.93 Q189.302 1517.37 185.667 1517.37 M185.667 1513.66 Q191.478 1513.66 194.533 1518.27 Q197.612 1522.85 197.612 1531.6 Q197.612 1540.33 194.533 1544.94 Q191.478 1549.52 185.667 1549.52 Q179.857 1549.52 176.779 1544.94 Q173.723 1540.33 173.723 1531.6 Q173.723 1522.85 176.779 1518.27 Q179.857 1513.66 185.667 1513.66 Z" fill="#000000" fill-rule="evenodd" fill-opacity="1" /><path clip-path="url(#clip510)" d="M621.545 1517.37 Q617.934 1517.37 616.105 1520.93 Q614.3 1524.47 614.3 1531.6 Q614.3 1538.71 616.105 1542.27 Q617.934 1545.82 621.545 1545.82 Q625.179 1545.82 626.985 1542.27 Q628.813 1538.71 628.813 1531.6 Q628.813 1524.47 626.985 1520.93 Q625.179 1517.37 621.545 1517.37 M621.545 1513.66 Q627.355 1513.66 630.411 1518.27 Q633.489 1522.85 633.489 1531.6 Q633.489 1540.33 630.411 1544.94 Q627.355 1549.52 621.545 1549.52 Q615.735 1549.52 612.656 1544.94 Q609.601 1540.33 609.601 1531.6 Q609.601 1522.85 612.656 1518.27 Q615.735 1513.66 621.545 1513.66 Z" fill="#000000" fill-rule="evenodd" fill-opacity="1" /><path clip-path="url(#clip510)" d="M641.707 1542.97 L646.591 1542.97 L646.591 1548.85 L641.707 1548.85 L641.707 1542.97 Z" fill="#000000" fill-rule="evenodd" fill-opacity="1" /><path clip-path="url(#clip510)" d="M660.804 1544.91 L677.123 1544.91 L677.123 1548.85 L655.179 1548.85 L655.179 1544.91 Q657.841 1542.16 662.424 1537.53 Q667.031 1532.88 668.211 1531.53 Q670.457 1529.01 671.336 1527.27 Q672.239 1525.51 672.239 1523.82 Q672.239 1521.07 670.295 1519.33 Q668.373 1517.6 665.272 1517.6 Q663.073 1517.6 660.619 1518.36 Q658.188 1519.13 655.411 1520.68 L655.411 1515.95 Q658.235 1514.82 660.688 1514.24 Q663.142 1513.66 665.179 1513.66 Q670.549 1513.66 673.744 1516.35 Q676.938 1519.03 676.938 1523.52 Q676.938 1525.65 676.128 1527.57 Q675.341 1529.47 673.234 1532.07 Q672.656 1532.74 669.554 1535.95 Q666.452 1539.15 660.804 1544.91 Z" fill="#000000" fill-rule="evenodd" fill-opacity="1" /><path clip-path="url(#clip510)" d="M1100.81 1517.37 Q1097.2 1517.37 1095.37 1520.93 Q1093.57 1524.47 1093.57 1531.6 Q1093.57 1538.71 1095.37 1542.27 Q1097.2 1545.82 1100.81 1545.82 Q1104.45 1545.82 1106.25 1542.27 Q1108.08 1538.71 1108.08 1531.6 Q1108.08 1524.47 1106.25 1520.93 Q1104.45 1517.37 1100.81 1517.37 M1100.81 1513.66 Q1106.62 1513.66 1109.68 1518.27 Q1112.76 1522.85 1112.76 1531.6 Q1112.76 1540.33 1109.68 1544.94 Q1106.62 1549.52 1100.81 1549.52 Q1095 1549.52 1091.92 1544.94 Q1088.87 1540.33 1088.87 1531.6 Q1088.87 1522.85 1091.92 1518.27 Q1095 1513.66 1100.81 1513.66 Z" fill="#000000" fill-rule="evenodd" fill-opacity="1" /><path clip-path="url(#clip510)" d="M1120.98 1542.97 L1125.86 1542.97 L1125.86 1548.85 L1120.98 1548.85 L1120.98 1542.97 Z" fill="#000000" fill-rule="evenodd" fill-opacity="1" /><path clip-path="url(#clip510)" d="M1148.89 1518.36 L1137.09 1536.81 L1148.89 1536.81 L1148.89 1518.36 M1147.66 1514.29 L1153.54 1514.29 L1153.54 1536.81 L1158.48 1536.81 L1158.48 1540.7 L1153.54 1540.7 L1153.54 1548.85 L1148.89 1548.85 L1148.89 1540.7 L1133.29 1540.7 L1133.29 1536.19 L1147.66 1514.29 Z" fill="#000000" fill-rule="evenodd" fill-opacity="1" /><path clip-path="url(#clip510)" d="M1581.29 1517.37 Q1577.67 1517.37 1575.85 1520.93 Q1574.04 1524.47 1574.04 1531.6 Q1574.04 1538.71 1575.85 1542.27 Q1577.67 1545.82 1581.29 1545.82 Q1584.92 1545.82 1586.73 1542.27 Q1588.55 1538.71 1588.55 1531.6 Q1588.55 1524.47 1586.73 1520.93 Q1584.92 1517.37 1581.29 1517.37 M1581.29 1513.66 Q1587.1 1513.66 1590.15 1518.27 Q1593.23 1522.85 1593.23 1531.6 Q1593.23 1540.33 1590.15 1544.94 Q1587.1 1549.52 1581.29 1549.52 Q1575.48 1549.52 1572.4 1544.94 Q1569.34 1540.33 1569.34 1531.6 Q1569.34 1522.85 1572.4 1518.27 Q1575.48 1513.66 1581.29 1513.66 Z" fill="#000000" fill-rule="evenodd" fill-opacity="1" /><path clip-path="url(#clip510)" d="M1601.45 1542.97 L1606.33 1542.97 L1606.33 1548.85 L1601.45 1548.85 L1601.45 1542.97 Z" fill="#000000" fill-rule="evenodd" fill-opacity="1" /><path clip-path="url(#clip510)" d="M1627.1 1529.7 Q1623.95 1529.7 1622.1 1531.86 Q1620.27 1534.01 1620.27 1537.76 Q1620.27 1541.49 1622.1 1543.66 Q1623.95 1545.82 1627.1 1545.82 Q1630.24 1545.82 1632.07 1543.66 Q1633.92 1541.49 1633.92 1537.76 Q1633.92 1534.01 1632.07 1531.86 Q1630.24 1529.7 1627.1 1529.7 M1636.38 1515.05 L1636.38 1519.31 Q1634.62 1518.48 1632.81 1518.04 Q1631.03 1517.6 1629.27 1517.6 Q1624.64 1517.6 1622.19 1520.72 Q1619.76 1523.85 1619.41 1530.17 Q1620.78 1528.15 1622.84 1527.09 Q1624.9 1526 1627.37 1526 Q1632.58 1526 1635.59 1529.17 Q1638.62 1532.32 1638.62 1537.76 Q1638.62 1543.08 1635.48 1546.3 Q1632.33 1549.52 1627.1 1549.52 Q1621.1 1549.52 1617.93 1544.94 Q1614.76 1540.33 1614.76 1531.6 Q1614.76 1523.41 1618.65 1518.55 Q1622.54 1513.66 1629.09 1513.66 Q1630.85 1513.66 1632.63 1514.01 Q1634.43 1514.36 1636.38 1515.05 Z" fill="#000000" fill-rule="evenodd" fill-opacity="1" /><path clip-path="url(#clip510)" d="M2061.72 1517.37 Q2058.11 1517.37 2056.28 1520.93 Q2054.48 1524.47 2054.48 1531.6 Q2054.48 1538.71 2056.28 1542.27 Q2058.11 1545.82 2061.72 1545.82 Q2065.36 1545.82 2067.16 1542.27 Q2068.99 1538.71 2068.99 1531.6 Q2068.99 1524.47 2067.16 1520.93 Q2065.36 1517.37 2061.72 1517.37 M2061.72 1513.66 Q2067.53 1513.66 2070.59 1518.27 Q2073.67 1522.85 2073.67 1531.6 Q2073.67 1540.33 2070.59 1544.94 Q2067.53 1549.52 2061.72 1549.52 Q2055.91 1549.52 2052.83 1544.94 Q2049.78 1540.33 2049.78 1531.6 Q2049.78 1522.85 2052.83 1518.27 Q2055.91 1513.66 2061.72 1513.66 Z" fill="#000000" fill-rule="evenodd" fill-opacity="1" /><path clip-path="url(#clip510)" d="M2081.88 1542.97 L2086.77 1542.97 L2086.77 1548.85 L2081.88 1548.85 L2081.88 1542.97 Z" fill="#000000" fill-rule="evenodd" fill-opacity="1" /><path clip-path="url(#clip510)" d="M2106.95 1532.44 Q2103.62 1532.44 2101.7 1534.22 Q2099.8 1536 2099.8 1539.13 Q2099.8 1542.25 2101.7 1544.03 Q2103.62 1545.82 2106.95 1545.82 Q2110.29 1545.82 2112.21 1544.03 Q2114.13 1542.23 2114.13 1539.13 Q2114.13 1536 2112.21 1534.22 Q2110.31 1532.44 2106.95 1532.44 M2102.28 1530.45 Q2099.27 1529.7 2097.58 1527.64 Q2095.91 1525.58 2095.91 1522.62 Q2095.91 1518.48 2098.85 1516.07 Q2101.82 1513.66 2106.95 1513.66 Q2112.12 1513.66 2115.06 1516.07 Q2118 1518.48 2118 1522.62 Q2118 1525.58 2116.31 1527.64 Q2114.64 1529.7 2111.65 1530.45 Q2115.03 1531.23 2116.91 1533.52 Q2118.81 1535.82 2118.81 1539.13 Q2118.81 1544.15 2115.73 1546.83 Q2112.67 1549.52 2106.95 1549.52 Q2101.24 1549.52 2098.16 1546.83 Q2095.1 1544.15 2095.1 1539.13 Q2095.1 1535.82 2097 1533.52 Q2098.9 1531.23 2102.28 1530.45 M2100.57 1523.06 Q2100.57 1525.75 2102.23 1527.25 Q2103.92 1528.76 2106.95 1528.76 Q2109.96 1528.76 2111.65 1527.25 Q2113.37 1525.75 2113.37 1523.06 Q2113.37 1520.38 2111.65 1518.87 Q2109.96 1517.37 2106.95 1517.37 Q2103.92 1517.37 2102.23 1518.87 Q2100.57 1520.38 2100.57 1523.06 Z" fill="#000000" fill-rule="evenodd" fill-opacity="1" /><polyline clip-path="url(#clip512)" style="stroke:#000000; stroke-linecap:butt; stroke-linejoin:round; stroke-width:2; stroke-opacity:0.1; fill:none" points="
  156.598,1140.32 2352.76,1140.32 
  "/>
<polyline clip-path="url(#clip512)" style="stroke:#000000; stroke-linecap:butt; stroke-linejoin:round; stroke-width:2; stroke-opacity:0.1; fill:none" points="
  156.598,784.561 2352.76,784.561 
  "/>
<polyline clip-path="url(#clip512)" style="stroke:#000000; stroke-linecap:butt; stroke-linejoin:round; stroke-width:2; stroke-opacity:0.1; fill:none" points="
  156.598,428.805 2352.76,428.805 
  "/>
<polyline clip-path="url(#clip512)" style="stroke:#000000; stroke-linecap:butt; stroke-linejoin:round; stroke-width:2; stroke-opacity:0.1; fill:none" points="
  156.598,73.0481 2352.76,73.0481 
  "/>
<polyline clip-path="url(#clip510)" style="stroke:#000000; stroke-linecap:butt; stroke-linejoin:round; stroke-width:4; stroke-opacity:1; fill:none" points="
  156.598,1486.45 156.598,47.2441 
  "/>
<polyline clip-path="url(#clip510)" style="stroke:#000000; stroke-linecap:butt; stroke-linejoin:round; stroke-width:4; stroke-opacity:1; fill:none" points="
  156.598,1140.32 175.496,1140.32 
  "/>
<polyline clip-path="url(#clip510)" style="stroke:#000000; stroke-linecap:butt; stroke-linejoin:round; stroke-width:4; stroke-opacity:1; fill:none" points="
  156.598,784.561 175.496,784.561 
  "/>
<polyline clip-path="url(#clip510)" style="stroke:#000000; stroke-linecap:butt; stroke-linejoin:round; stroke-width:4; stroke-opacity:1; fill:none" points="
  156.598,428.805 175.496,428.805 
  "/>
<polyline clip-path="url(#clip510)" style="stroke:#000000; stroke-linecap:butt; stroke-linejoin:round; stroke-width:4; stroke-opacity:1; fill:none" points="
  156.598,73.0481 175.496,73.0481 
  "/>
<path clip-path="url(#clip510)" d="M62.9365 1126.12 Q59.3254 1126.12 57.4967 1129.68 Q55.6912 1133.22 55.6912 1140.35 Q55.6912 1147.46 57.4967 1151.02 Q59.3254 1154.57 62.9365 1154.57 Q66.5707 1154.57 68.3763 1151.02 Q70.205 1147.46 70.205 1140.35 Q70.205 1133.22 68.3763 1129.68 Q66.5707 1126.12 62.9365 1126.12 M62.9365 1122.41 Q68.7467 1122.41 71.8022 1127.02 Q74.8809 1131.6 74.8809 1140.35 Q74.8809 1149.08 71.8022 1153.69 Q68.7467 1158.27 62.9365 1158.27 Q57.1264 1158.27 54.0477 1153.69 Q50.9921 1149.08 50.9921 1140.35 Q50.9921 1131.6 54.0477 1127.02 Q57.1264 1122.41 62.9365 1122.41 Z" fill="#000000" fill-rule="evenodd" fill-opacity="1" /><path clip-path="url(#clip510)" d="M83.0984 1151.72 L87.9827 1151.72 L87.9827 1157.6 L83.0984 1157.6 L83.0984 1151.72 Z" fill="#000000" fill-rule="evenodd" fill-opacity="1" /><path clip-path="url(#clip510)" d="M111.015 1127.11 L99.2095 1145.56 L111.015 1145.56 L111.015 1127.11 M109.788 1123.04 L115.668 1123.04 L115.668 1145.56 L120.598 1145.56 L120.598 1149.45 L115.668 1149.45 L115.668 1157.6 L111.015 1157.6 L111.015 1149.45 L95.4132 1149.45 L95.4132 1144.94 L109.788 1123.04 Z" fill="#000000" fill-rule="evenodd" fill-opacity="1" /><path clip-path="url(#clip510)" d="M63.2606 770.36 Q59.6495 770.36 57.8208 773.925 Q56.0152 777.467 56.0152 784.596 Q56.0152 791.703 57.8208 795.267 Q59.6495 798.809 63.2606 798.809 Q66.8948 798.809 68.7004 795.267 Q70.5291 791.703 70.5291 784.596 Q70.5291 777.467 68.7004 773.925 Q66.8948 770.36 63.2606 770.36 M63.2606 766.656 Q69.0707 766.656 72.1263 771.263 Q75.205 775.846 75.205 784.596 Q75.205 793.323 72.1263 797.929 Q69.0707 802.513 63.2606 802.513 Q57.4504 802.513 54.3717 797.929 Q51.3162 793.323 51.3162 784.596 Q51.3162 775.846 54.3717 771.263 Q57.4504 766.656 63.2606 766.656 Z" fill="#000000" fill-rule="evenodd" fill-opacity="1" /><path clip-path="url(#clip510)" d="M83.4225 795.962 L88.3067 795.962 L88.3067 801.841 L83.4225 801.841 L83.4225 795.962 Z" fill="#000000" fill-rule="evenodd" fill-opacity="1" /><path clip-path="url(#clip510)" d="M109.071 782.698 Q105.922 782.698 104.071 784.851 Q102.242 787.004 102.242 790.753 Q102.242 794.48 104.071 796.656 Q105.922 798.809 109.071 798.809 Q112.219 798.809 114.047 796.656 Q115.899 794.48 115.899 790.753 Q115.899 787.004 114.047 784.851 Q112.219 782.698 109.071 782.698 M118.353 768.045 L118.353 772.305 Q116.594 771.471 114.788 771.031 Q113.006 770.592 111.246 770.592 Q106.617 770.592 104.163 773.717 Q101.733 776.842 101.385 783.161 Q102.751 781.147 104.811 780.082 Q106.871 778.994 109.348 778.994 Q114.557 778.994 117.566 782.166 Q120.598 785.314 120.598 790.753 Q120.598 796.078 117.45 799.295 Q114.302 802.513 109.071 802.513 Q103.075 802.513 99.9039 797.929 Q96.7326 793.323 96.7326 784.596 Q96.7326 776.402 100.621 771.541 Q104.51 766.656 111.061 766.656 Q112.82 766.656 114.603 767.004 Q116.408 767.351 118.353 768.045 Z" fill="#000000" fill-rule="evenodd" fill-opacity="1" /><path clip-path="url(#clip510)" d="M63.5152 414.603 Q59.9041 414.603 58.0754 418.168 Q56.2699 421.71 56.2699 428.839 Q56.2699 435.946 58.0754 439.511 Q59.9041 443.052 63.5152 443.052 Q67.1494 443.052 68.955 439.511 Q70.7837 435.946 70.7837 428.839 Q70.7837 421.71 68.955 418.168 Q67.1494 414.603 63.5152 414.603 M63.5152 410.9 Q69.3254 410.9 72.3809 415.506 Q75.4596 420.09 75.4596 428.839 Q75.4596 437.566 72.3809 442.173 Q69.3254 446.756 63.5152 446.756 Q57.7051 446.756 54.6264 442.173 Q51.5708 437.566 51.5708 428.839 Q51.5708 420.09 54.6264 415.506 Q57.7051 410.9 63.5152 410.9 Z" fill="#000000" fill-rule="evenodd" fill-opacity="1" /><path clip-path="url(#clip510)" d="M83.6771 440.205 L88.5614 440.205 L88.5614 446.085 L83.6771 446.085 L83.6771 440.205 Z" fill="#000000" fill-rule="evenodd" fill-opacity="1" /><path clip-path="url(#clip510)" d="M108.746 429.673 Q105.413 429.673 103.492 431.455 Q101.594 433.238 101.594 436.363 Q101.594 439.488 103.492 441.27 Q105.413 443.052 108.746 443.052 Q112.08 443.052 114.001 441.27 Q115.922 439.464 115.922 436.363 Q115.922 433.238 114.001 431.455 Q112.103 429.673 108.746 429.673 M104.071 427.682 Q101.061 426.941 99.3715 424.881 Q97.7048 422.821 97.7048 419.858 Q97.7048 415.715 100.645 413.307 Q103.608 410.9 108.746 410.9 Q113.908 410.9 116.848 413.307 Q119.788 415.715 119.788 419.858 Q119.788 422.821 118.098 424.881 Q116.432 426.941 113.445 427.682 Q116.825 428.469 118.7 430.761 Q120.598 433.052 120.598 436.363 Q120.598 441.386 117.52 444.071 Q114.464 446.756 108.746 446.756 Q103.029 446.756 99.9502 444.071 Q96.8947 441.386 96.8947 436.363 Q96.8947 433.052 98.7928 430.761 Q100.691 428.469 104.071 427.682 M102.358 420.298 Q102.358 422.983 104.024 424.488 Q105.714 425.992 108.746 425.992 Q111.756 425.992 113.445 424.488 Q115.158 422.983 115.158 420.298 Q115.158 417.613 113.445 416.108 Q111.756 414.603 108.746 414.603 Q105.714 414.603 104.024 416.108 Q102.358 417.613 102.358 420.298 Z" fill="#000000" fill-rule="evenodd" fill-opacity="1" /><path clip-path="url(#clip510)" d="M54.2328 86.393 L61.8717 86.393 L61.8717 60.0274 L53.5616 61.694 L53.5616 57.4348 L61.8254 55.7681 L66.5013 55.7681 L66.5013 86.393 L74.1402 86.393 L74.1402 90.3281 L54.2328 90.3281 L54.2328 86.393 Z" fill="#000000" fill-rule="evenodd" fill-opacity="1" /><path clip-path="url(#clip510)" d="M83.5845 84.4485 L88.4688 84.4485 L88.4688 90.3281 L83.5845 90.3281 L83.5845 84.4485 Z" fill="#000000" fill-rule="evenodd" fill-opacity="1" /><path clip-path="url(#clip510)" d="M108.654 58.8468 Q105.043 58.8468 103.214 62.4116 Q101.409 65.9533 101.409 73.0829 Q101.409 80.1893 103.214 83.7541 Q105.043 87.2957 108.654 87.2957 Q112.288 87.2957 114.094 83.7541 Q115.922 80.1893 115.922 73.0829 Q115.922 65.9533 114.094 62.4116 Q112.288 58.8468 108.654 58.8468 M108.654 55.1431 Q114.464 55.1431 117.52 59.7496 Q120.598 64.3329 120.598 73.0829 Q120.598 81.8097 117.52 86.4161 Q114.464 90.9994 108.654 90.9994 Q102.844 90.9994 99.765 86.4161 Q96.7095 81.8097 96.7095 73.0829 Q96.7095 64.3329 99.765 59.7496 Q102.844 55.1431 108.654 55.1431 Z" fill="#000000" fill-rule="evenodd" fill-opacity="1" /><polyline clip-path="url(#clip512)" style="stroke:#009af9; stroke-linecap:butt; stroke-linejoin:round; stroke-width:4; stroke-opacity:1; fill:none" points="
  1764.66,87.9763 739.298,1445.72 1005.08,671.41 1166.38,1058.14 1613.09,458.361 2290.6,417.32 2276.75,686.263 218.754,1106.33 428.194,89.7664 1382.9,304.468 
  
  "/>
<path clip-path="url(#clip510)" d="
M1987.12 198.898 L2279.55 198.898 L2279.55 95.2176 L1987.12 95.2176  Z
  " fill="#ffffff" fill-rule="evenodd" fill-opacity="1"/>
<polyline clip-path="url(#clip510)" style="stroke:#000000; stroke-linecap:butt; stroke-linejoin:round; stroke-width:4; stroke-opacity:1; fill:none" points="
  1987.12,198.898 2279.55,198.898 2279.55,95.2176 1987.12,95.2176 1987.12,198.898 
  "/>
<polyline clip-path="url(#clip510)" style="stroke:#009af9; stroke-linecap:butt; stroke-linejoin:round; stroke-width:4; stroke-opacity:1; fill:none" points="
  2011.12,147.058 2155.12,147.058 
  "/>
<path clip-path="url(#clip510)" d="M2192.96 166.745 Q2191.16 171.375 2189.44 172.787 Q2187.73 174.199 2184.86 174.199 L2181.46 174.199 L2181.46 170.634 L2183.96 170.634 Q2185.72 170.634 2186.69 169.8 Q2187.66 168.967 2188.84 165.865 L2189.61 163.921 L2179.12 138.412 L2183.63 138.412 L2191.74 158.689 L2199.84 138.412 L2204.35 138.412 L2192.96 166.745 Z" fill="#000000" fill-rule="evenodd" fill-opacity="1" /><path clip-path="url(#clip510)" d="M2211.64 160.402 L2219.28 160.402 L2219.28 134.037 L2210.97 135.703 L2210.97 131.444 L2219.24 129.778 L2223.91 129.778 L2223.91 160.402 L2231.55 160.402 L2231.55 164.338 L2211.64 164.338 L2211.64 160.402 Z" fill="#000000" fill-rule="evenodd" fill-opacity="1" /></svg>
