<?xml version="1.0" encoding="utf-8"?>
<svg xmlns="http://www.w3.org/2000/svg" xmlns:xlink="http://www.w3.org/1999/xlink" width="600" height="400" viewBox="0 0 2400 1600">
<defs>
  <clipPath id="clip530">
    <rect x="0" y="0" width="2400" height="1600"/>
  </clipPath>
</defs>
<path clip-path="url(#clip530)" d="
M0 1600 L2400 1600 L2400 0 L0 0  Z
  " fill="#ffffff" fill-rule="evenodd" fill-opacity="1"/>
<defs>
  <clipPath id="clip531">
    <rect x="480" y="0" width="1681" height="1600"/>
  </clipPath>
</defs>
<path clip-path="url(#clip530)" d="
M156.598 1486.45 L2352.76 1486.45 L2352.76 47.2441 L156.598 47.2441  Z
  " fill="#ffffff" fill-rule="evenodd" fill-opacity="1"/>
<defs>
  <clipPath id="clip532">
    <rect x="156" y="47" width="2197" height="1440"/>
  </clipPath>
</defs>
<polyline clip-path="url(#clip532)" style="stroke:#000000; stroke-linecap:butt; stroke-linejoin:round; stroke-width:2; stroke-opacity:0.1; fill:none" points="
  450.269,1486.45 450.269,47.2441 
  "/>
<polyline clip-path="url(#clip532)" style="stroke:#000000; stroke-linecap:butt; stroke-linejoin:round; stroke-width:2; stroke-opacity:0.1; fill:none" points="
  1009.72,1486.45 1009.72,47.2441 
  "/>
<polyline clip-path="url(#clip532)" style="stroke:#000000; stroke-linecap:butt; stroke-linejoin:round; stroke-width:2; stroke-opacity:0.1; fill:none" points="
  1569.17,1486.45 1569.17,47.2441 
  "/>
<polyline clip-path="url(#clip532)" style="stroke:#000000; stroke-linecap:butt; stroke-linejoin:round; stroke-width:2; stroke-opacity:0.1; fill:none" points="
  2128.62,1486.45 2128.62,47.2441 
  "/>
<polyline clip-path="url(#clip530)" style="stroke:#000000; stroke-linecap:butt; stroke-linejoin:round; stroke-width:4; stroke-opacity:1; fill:none" points="
  156.598,1486.45 2352.76,1486.45 
  "/>
<polyline clip-path="url(#clip530)" style="stroke:#000000; stroke-linecap:butt; stroke-linejoin:round; stroke-width:4; stroke-opacity:1; fill:none" points="
  450.269,1486.45 450.269,1467.55 
  "/>
<polyline clip-path="url(#clip530)" style="stroke:#000000; stroke-linecap:butt; stroke-linejoin:round; stroke-width:4; stroke-opacity:1; fill:none" points="
  1009.72,1486.45 1009.72,1467.55 
  "/>
<polyline clip-path="url(#clip530)" style="stroke:#000000; stroke-linecap:butt; stroke-linejoin:round; stroke-width:4; stroke-opacity:1; fill:none" points="
  1569.17,1486.45 1569.17,1467.55 
  "/>
<polyline clip-path="url(#clip530)" style="stroke:#000000; stroke-linecap:butt; stroke-linejoin:round; stroke-width:4; stroke-opacity:1; fill:none" points="
  2128.62,1486.45 2128.62,1467.55 
  "/>
<path clip-path="url(#clip530)" d="M428.452 1517.37 Q424.841 1517.37 423.012 1520.93 Q421.207 1524.47 421.207 1531.6 Q421.207 1538.71 423.012 1542.27 Q424.841 1545.82 428.452 1545.82 Q432.086 1545.82 433.892 1542.27 Q435.721 1538.71 435.721 1531.6 Q435.721 1524.47 433.892 1520.93 Q432.086 1517.37 428.452 1517.37 M428.452 1513.66 Q434.262 1513.66 437.318 1518.27 Q440.397 1522.85 440.397 1531.6 Q440.397 1540.33 437.318 1544.94 Q434.262 1549.52 428.452 1549.52 Q422.642 1549.52 419.563 1544.94 Q416.508 1540.33 416.508 1531.6 Q416.508 1522.85 419.563 1518.27 Q422.642 1513.66 428.452 1513.66 Z" fill="#000000" fill-rule="evenodd" fill-opacity="1" /><path clip-path="url(#clip530)" d="M448.614 1542.97 L453.498 1542.97 L453.498 1548.85 L448.614 1548.85 L448.614 1542.97 Z" fill="#000000" fill-rule="evenodd" fill-opacity="1" /><path clip-path="url(#clip530)" d="M467.711 1544.91 L484.031 1544.91 L484.031 1548.85 L462.086 1548.85 L462.086 1544.91 Q464.748 1542.16 469.332 1537.53 Q473.938 1532.88 475.119 1531.53 Q477.364 1529.01 478.244 1527.27 Q479.146 1525.51 479.146 1523.82 Q479.146 1521.07 477.202 1519.33 Q475.281 1517.6 472.179 1517.6 Q469.98 1517.6 467.526 1518.36 Q465.096 1519.13 462.318 1520.68 L462.318 1515.95 Q465.142 1514.82 467.596 1514.24 Q470.049 1513.66 472.086 1513.66 Q477.457 1513.66 480.651 1516.35 Q483.845 1519.03 483.845 1523.52 Q483.845 1525.65 483.035 1527.57 Q482.248 1529.47 480.142 1532.07 Q479.563 1532.74 476.461 1535.95 Q473.359 1539.15 467.711 1544.91 Z" fill="#000000" fill-rule="evenodd" fill-opacity="1" /><path clip-path="url(#clip530)" d="M986.861 1517.37 Q983.25 1517.37 981.421 1520.93 Q979.616 1524.47 979.616 1531.6 Q979.616 1538.71 981.421 1542.27 Q983.25 1545.82 986.861 1545.82 Q990.495 1545.82 992.301 1542.27 Q994.13 1538.71 994.13 1531.6 Q994.13 1524.47 992.301 1520.93 Q990.495 1517.37 986.861 1517.37 M986.861 1513.66 Q992.671 1513.66 995.727 1518.27 Q998.806 1522.85 998.806 1531.6 Q998.806 1540.33 995.727 1544.94 Q992.671 1549.52 986.861 1549.52 Q981.051 1549.52 977.972 1544.94 Q974.917 1540.33 974.917 1531.6 Q974.917 1522.85 977.972 1518.27 Q981.051 1513.66 986.861 1513.66 Z" fill="#000000" fill-rule="evenodd" fill-opacity="1" /><path clip-path="url(#clip530)" d="M1007.02 1542.97 L1011.91 1542.97 L1011.91 1548.85 L1007.02 1548.85 L1007.02 1542.97 Z" fill="#000000" fill-rule="evenodd" fill-opacity="1" /><path clip-path="url(#clip530)" d="M1034.94 1518.36 L1023.13 1536.81 L1034.94 1536.81 L1034.94 1518.36 M1033.71 1514.29 L1039.59 1514.29 L1039.59 1536.81 L1044.52 1536.81 L1044.52 1540.7 L1039.59 1540.7 L1039.59 1548.85 L1034.94 1548.85 L1034.94 1540.7 L1019.34 1540.7 L1019.34 1536.19 L1033.71 1514.29 Z" fill="#000000" fill-rule="evenodd" fill-opacity="1" /><path clip-path="url(#clip530)" d="M1546.47 1517.37 Q1542.86 1517.37 1541.03 1520.93 Q1539.23 1524.47 1539.23 1531.6 Q1539.23 1538.71 1541.03 1542.27 Q1542.86 1545.82 1546.47 1545.82 Q1550.11 1545.82 1551.91 1542.27 Q1553.74 1538.71 1553.74 1531.6 Q1553.74 1524.47 1551.91 1520.93 Q1550.11 1517.37 1546.47 1517.37 M1546.47 1513.66 Q1552.28 1513.66 1555.34 1518.27 Q1558.42 1522.85 1558.42 1531.6 Q1558.42 1540.33 1555.34 1544.94 Q1552.28 1549.52 1546.47 1549.52 Q1540.66 1549.52 1537.59 1544.94 Q1534.53 1540.33 1534.53 1531.6 Q1534.53 1522.85 1537.59 1518.27 Q1540.66 1513.66 1546.47 1513.66 Z" fill="#000000" fill-rule="evenodd" fill-opacity="1" /><path clip-path="url(#clip530)" d="M1566.64 1542.97 L1571.52 1542.97 L1571.52 1548.85 L1566.64 1548.85 L1566.64 1542.97 Z" fill="#000000" fill-rule="evenodd" fill-opacity="1" /><path clip-path="url(#clip530)" d="M1592.28 1529.7 Q1589.14 1529.7 1587.28 1531.86 Q1585.46 1534.01 1585.46 1537.76 Q1585.46 1541.49 1587.28 1543.66 Q1589.14 1545.82 1592.28 1545.82 Q1595.43 1545.82 1597.26 1543.66 Q1599.11 1541.49 1599.11 1537.76 Q1599.11 1534.01 1597.26 1531.86 Q1595.43 1529.7 1592.28 1529.7 M1601.57 1515.05 L1601.57 1519.31 Q1599.81 1518.48 1598 1518.04 Q1596.22 1517.6 1594.46 1517.6 Q1589.83 1517.6 1587.38 1520.72 Q1584.95 1523.85 1584.6 1530.17 Q1585.96 1528.15 1588.02 1527.09 Q1590.08 1526 1592.56 1526 Q1597.77 1526 1600.78 1529.17 Q1603.81 1532.32 1603.81 1537.76 Q1603.81 1543.08 1600.66 1546.3 Q1597.52 1549.52 1592.28 1549.52 Q1586.29 1549.52 1583.12 1544.94 Q1579.95 1540.33 1579.95 1531.6 Q1579.95 1523.41 1583.83 1518.55 Q1587.72 1513.66 1594.27 1513.66 Q1596.03 1513.66 1597.82 1514.01 Q1599.62 1514.36 1601.57 1515.05 Z" fill="#000000" fill-rule="evenodd" fill-opacity="1" /><path clip-path="url(#clip530)" d="M2106.05 1517.37 Q2102.44 1517.37 2100.61 1520.93 Q2098.81 1524.47 2098.81 1531.6 Q2098.81 1538.71 2100.61 1542.27 Q2102.44 1545.82 2106.05 1545.82 Q2109.69 1545.82 2111.49 1542.27 Q2113.32 1538.71 2113.32 1531.6 Q2113.32 1524.47 2111.49 1520.93 Q2109.69 1517.37 2106.05 1517.37 M2106.05 1513.66 Q2111.86 1513.66 2114.92 1518.27 Q2118 1522.85 2118 1531.6 Q2118 1540.33 2114.92 1544.94 Q2111.86 1549.52 2106.05 1549.52 Q2100.24 1549.52 2097.16 1544.94 Q2094.11 1540.33 2094.11 1531.6 Q2094.11 1522.85 2097.16 1518.27 Q2100.24 1513.66 2106.05 1513.66 Z" fill="#000000" fill-rule="evenodd" fill-opacity="1" /><path clip-path="url(#clip530)" d="M2126.21 1542.97 L2131.1 1542.97 L2131.1 1548.85 L2126.21 1548.85 L2126.21 1542.97 Z" fill="#000000" fill-rule="evenodd" fill-opacity="1" /><path clip-path="url(#clip530)" d="M2151.28 1532.44 Q2147.95 1532.44 2146.03 1534.22 Q2144.13 1536 2144.13 1539.13 Q2144.13 1542.25 2146.03 1544.03 Q2147.95 1545.82 2151.28 1545.82 Q2154.62 1545.82 2156.54 1544.03 Q2158.46 1542.23 2158.46 1539.13 Q2158.46 1536 2156.54 1534.22 Q2154.64 1532.44 2151.28 1532.44 M2146.61 1530.45 Q2143.6 1529.7 2141.91 1527.64 Q2140.24 1525.58 2140.24 1522.62 Q2140.24 1518.48 2143.18 1516.07 Q2146.14 1513.66 2151.28 1513.66 Q2156.45 1513.66 2159.38 1516.07 Q2162.32 1518.48 2162.32 1522.62 Q2162.32 1525.58 2160.63 1527.64 Q2158.97 1529.7 2155.98 1530.45 Q2159.36 1531.23 2161.24 1533.52 Q2163.13 1535.82 2163.13 1539.13 Q2163.13 1544.15 2160.06 1546.83 Q2157 1549.52 2151.28 1549.52 Q2145.57 1549.52 2142.49 1546.83 Q2139.43 1544.15 2139.43 1539.13 Q2139.43 1535.82 2141.33 1533.52 Q2143.23 1531.23 2146.61 1530.45 M2144.89 1523.06 Q2144.89 1525.75 2146.56 1527.25 Q2148.25 1528.76 2151.28 1528.76 Q2154.29 1528.76 2155.98 1527.25 Q2157.7 1525.75 2157.7 1523.06 Q2157.7 1520.38 2155.98 1518.87 Q2154.29 1517.37 2151.28 1517.37 Q2148.25 1517.37 2146.56 1518.87 Q2144.89 1520.38 2144.89 1523.06 Z" fill="#000000" fill-rule="evenodd" fill-opacity="1" /><polyline clip-path="url(#clip532)" style="stroke:#000000; stroke-linecap:butt; stroke-linejoin:round; stroke-width:2; stroke-opacity:0.1; fill:none" points="
  156.598,1211.75 2352.76,1211.75 
  "/>
<polyline clip-path="url(#clip532)" style="stroke:#000000; stroke-linecap:butt; stroke-linejoin:round; stroke-width:2; stroke-opacity:0.1; fill:none" points="
  156.598,924.764 2352.76,924.764 
  "/>
<polyline clip-path="url(#clip532)" style="stroke:#000000; stroke-linecap:butt; stroke-linejoin:round; stroke-width:2; stroke-opacity:0.1; fill:none" points="
  156.598,637.773 2352.76,637.773 
  "/>
<polyline clip-path="url(#clip532)" style="stroke:#000000; stroke-linecap:butt; stroke-linejoin:round; stroke-width:2; stroke-opacity:0.1; fill:none" points="
  156.598,350.782 2352.76,350.782 
  "/>
<polyline clip-path="url(#clip532)" style="stroke:#000000; stroke-linecap:butt; stroke-linejoin:round; stroke-width:2; stroke-opacity:0.1; fill:none" points="
  156.598,63.7911 2352.76,63.7911 
  "/>
<polyline clip-path="url(#clip530)" style="stroke:#000000; stroke-linecap:butt; stroke-linejoin:round; stroke-width:4; stroke-opacity:1; fill:none" points="
  156.598,1486.45 156.598,47.2441 
  "/>
<polyline clip-path="url(#clip530)" style="stroke:#000000; stroke-linecap:butt; stroke-linejoin:round; stroke-width:4; stroke-opacity:1; fill:none" points="
  156.598,1211.75 175.496,1211.75 
  "/>
<polyline clip-path="url(#clip530)" style="stroke:#000000; stroke-linecap:butt; stroke-linejoin:round; stroke-width:4; stroke-opacity:1; fill:none" points="
  156.598,924.764 175.496,924.764 
  "/>
<polyline clip-path="url(#clip530)" style="stroke:#000000; stroke-linecap:butt; stroke-linejoin:round; stroke-width:4; stroke-opacity:1; fill:none" points="
  156.598,637.773 175.496,637.773 
  "/>
<polyline clip-path="url(#clip530)" style="stroke:#000000; stroke-linecap:butt; stroke-linejoin:round; stroke-width:4; stroke-opacity:1; fill:none" points="
  156.598,350.782 175.496,350.782 
  "/>
<polyline clip-path="url(#clip530)" style="stroke:#000000; stroke-linecap:butt; stroke-linejoin:round; stroke-width:4; stroke-opacity:1; fill:none" points="
  156.598,63.7911 175.496,63.7911 
  "/>
<path clip-path="url(#clip530)" d="M65.0198 1197.55 Q61.4087 1197.55 59.58 1201.12 Q57.7745 1204.66 57.7745 1211.79 Q57.7745 1218.9 59.58 1222.46 Q61.4087 1226 65.0198 1226 Q68.6541 1226 70.4596 1222.46 Q72.2883 1218.9 72.2883 1211.79 Q72.2883 1204.66 70.4596 1201.12 Q68.6541 1197.55 65.0198 1197.55 M65.0198 1193.85 Q70.83 1193.85 73.8855 1198.46 Q76.9642 1203.04 76.9642 1211.79 Q76.9642 1220.52 73.8855 1225.12 Q70.83 1229.71 65.0198 1229.71 Q59.2097 1229.71 56.131 1225.12 Q53.0754 1220.52 53.0754 1211.79 Q53.0754 1203.04 56.131 1198.46 Q59.2097 1193.85 65.0198 1193.85 Z" fill="#000000" fill-rule="evenodd" fill-opacity="1" /><path clip-path="url(#clip530)" d="M85.1818 1223.15 L90.066 1223.15 L90.066 1229.03 L85.1818 1229.03 L85.1818 1223.15 Z" fill="#000000" fill-rule="evenodd" fill-opacity="1" /><path clip-path="url(#clip530)" d="M104.279 1225.1 L120.598 1225.1 L120.598 1229.03 L98.6539 1229.03 L98.6539 1225.1 Q101.316 1222.34 105.899 1217.71 Q110.506 1213.06 111.686 1211.72 Q113.932 1209.2 114.811 1207.46 Q115.714 1205.7 115.714 1204.01 Q115.714 1201.26 113.77 1199.52 Q111.848 1197.78 108.746 1197.78 Q106.547 1197.78 104.094 1198.55 Q101.663 1199.31 98.8854 1200.86 L98.8854 1196.14 Q101.709 1195.01 104.163 1194.43 Q106.617 1193.85 108.654 1193.85 Q114.024 1193.85 117.219 1196.53 Q120.413 1199.22 120.413 1203.71 Q120.413 1205.84 119.603 1207.76 Q118.816 1209.66 116.709 1212.25 Q116.131 1212.92 113.029 1216.14 Q109.927 1219.34 104.279 1225.1 Z" fill="#000000" fill-rule="evenodd" fill-opacity="1" /><path clip-path="url(#clip530)" d="M62.9365 910.562 Q59.3254 910.562 57.4967 914.127 Q55.6912 917.669 55.6912 924.798 Q55.6912 931.905 57.4967 935.469 Q59.3254 939.011 62.9365 939.011 Q66.5707 939.011 68.3763 935.469 Q70.205 931.905 70.205 924.798 Q70.205 917.669 68.3763 914.127 Q66.5707 910.562 62.9365 910.562 M62.9365 906.859 Q68.7467 906.859 71.8022 911.465 Q74.8809 916.048 74.8809 924.798 Q74.8809 933.525 71.8022 938.132 Q68.7467 942.715 62.9365 942.715 Q57.1264 942.715 54.0477 938.132 Q50.9921 933.525 50.9921 924.798 Q50.9921 916.048 54.0477 911.465 Q57.1264 906.859 62.9365 906.859 Z" fill="#000000" fill-rule="evenodd" fill-opacity="1" /><path clip-path="url(#clip530)" d="M83.0984 936.164 L87.9827 936.164 L87.9827 942.044 L83.0984 942.044 L83.0984 936.164 Z" fill="#000000" fill-rule="evenodd" fill-opacity="1" /><path clip-path="url(#clip530)" d="M111.015 911.558 L99.2095 930.007 L111.015 930.007 L111.015 911.558 M109.788 907.484 L115.668 907.484 L115.668 930.007 L120.598 930.007 L120.598 933.895 L115.668 933.895 L115.668 942.044 L111.015 942.044 L111.015 933.895 L95.4132 933.895 L95.4132 929.382 L109.788 907.484 Z" fill="#000000" fill-rule="evenodd" fill-opacity="1" /><path clip-path="url(#clip530)" d="M63.2606 623.571 Q59.6495 623.571 57.8208 627.136 Q56.0152 630.678 56.0152 637.807 Q56.0152 644.914 57.8208 648.479 Q59.6495 652.02 63.2606 652.02 Q66.8948 652.02 68.7004 648.479 Q70.5291 644.914 70.5291 637.807 Q70.5291 630.678 68.7004 627.136 Q66.8948 623.571 63.2606 623.571 M63.2606 619.868 Q69.0707 619.868 72.1263 624.474 Q75.205 629.057 75.205 637.807 Q75.205 646.534 72.1263 651.141 Q69.0707 655.724 63.2606 655.724 Q57.4504 655.724 54.3717 651.141 Q51.3162 646.534 51.3162 637.807 Q51.3162 629.057 54.3717 624.474 Q57.4504 619.868 63.2606 619.868 Z" fill="#000000" fill-rule="evenodd" fill-opacity="1" /><path clip-path="url(#clip530)" d="M83.4225 649.173 L88.3067 649.173 L88.3067 655.053 L83.4225 655.053 L83.4225 649.173 Z" fill="#000000" fill-rule="evenodd" fill-opacity="1" /><path clip-path="url(#clip530)" d="M109.071 635.909 Q105.922 635.909 104.071 638.062 Q102.242 640.215 102.242 643.965 Q102.242 647.692 104.071 649.868 Q105.922 652.02 109.071 652.02 Q112.219 652.02 114.047 649.868 Q115.899 647.692 115.899 643.965 Q115.899 640.215 114.047 638.062 Q112.219 635.909 109.071 635.909 M118.353 621.257 L118.353 625.516 Q116.594 624.683 114.788 624.243 Q113.006 623.803 111.246 623.803 Q106.617 623.803 104.163 626.928 Q101.733 630.053 101.385 636.372 Q102.751 634.358 104.811 633.294 Q106.871 632.206 109.348 632.206 Q114.557 632.206 117.566 635.377 Q120.598 638.525 120.598 643.965 Q120.598 649.289 117.45 652.506 Q114.302 655.724 109.071 655.724 Q103.075 655.724 99.9039 651.141 Q96.7326 646.534 96.7326 637.807 Q96.7326 629.613 100.621 624.752 Q104.51 619.868 111.061 619.868 Q112.82 619.868 114.603 620.215 Q116.408 620.562 118.353 621.257 Z" fill="#000000" fill-rule="evenodd" fill-opacity="1" /><path clip-path="url(#clip530)" d="M63.5152 336.581 Q59.9041 336.581 58.0754 340.145 Q56.2699 343.687 56.2699 350.817 Q56.2699 357.923 58.0754 361.488 Q59.9041 365.03 63.5152 365.03 Q67.1494 365.03 68.955 361.488 Q70.7837 357.923 70.7837 350.817 Q70.7837 343.687 68.955 340.145 Q67.1494 336.581 63.5152 336.581 M63.5152 332.877 Q69.3254 332.877 72.3809 337.483 Q75.4596 342.067 75.4596 350.817 Q75.4596 359.543 72.3809 364.15 Q69.3254 368.733 63.5152 368.733 Q57.7051 368.733 54.6264 364.15 Q51.5708 359.543 51.5708 350.817 Q51.5708 342.067 54.6264 337.483 Q57.7051 332.877 63.5152 332.877 Z" fill="#000000" fill-rule="evenodd" fill-opacity="1" /><path clip-path="url(#clip530)" d="M83.6771 362.182 L88.5614 362.182 L88.5614 368.062 L83.6771 368.062 L83.6771 362.182 Z" fill="#000000" fill-rule="evenodd" fill-opacity="1" /><path clip-path="url(#clip530)" d="M108.746 351.65 Q105.413 351.65 103.492 353.432 Q101.594 355.215 101.594 358.34 Q101.594 361.465 103.492 363.247 Q105.413 365.03 108.746 365.03 Q112.08 365.03 114.001 363.247 Q115.922 361.442 115.922 358.34 Q115.922 355.215 114.001 353.432 Q112.103 351.65 108.746 351.65 M104.071 349.659 Q101.061 348.919 99.3715 346.858 Q97.7048 344.798 97.7048 341.835 Q97.7048 337.692 100.645 335.284 Q103.608 332.877 108.746 332.877 Q113.908 332.877 116.848 335.284 Q119.788 337.692 119.788 341.835 Q119.788 344.798 118.098 346.858 Q116.432 348.919 113.445 349.659 Q116.825 350.446 118.7 352.738 Q120.598 355.03 120.598 358.34 Q120.598 363.363 117.52 366.048 Q114.464 368.733 108.746 368.733 Q103.029 368.733 99.9502 366.048 Q96.8947 363.363 96.8947 358.34 Q96.8947 355.03 98.7928 352.738 Q100.691 350.446 104.071 349.659 M102.358 342.275 Q102.358 344.96 104.024 346.465 Q105.714 347.969 108.746 347.969 Q111.756 347.969 113.445 346.465 Q115.158 344.96 115.158 342.275 Q115.158 339.59 113.445 338.085 Q111.756 336.581 108.746 336.581 Q105.714 336.581 104.024 338.085 Q102.358 339.59 102.358 342.275 Z" fill="#000000" fill-rule="evenodd" fill-opacity="1" /><path clip-path="url(#clip530)" d="M54.2328 77.136 L61.8717 77.136 L61.8717 50.7704 L53.5616 52.437 L53.5616 48.1778 L61.8254 46.5111 L66.5013 46.5111 L66.5013 77.136 L74.1402 77.136 L74.1402 81.0711 L54.2328 81.0711 L54.2328 77.136 Z" fill="#000000" fill-rule="evenodd" fill-opacity="1" /><path clip-path="url(#clip530)" d="M83.5845 75.1915 L88.4688 75.1915 L88.4688 81.0711 L83.5845 81.0711 L83.5845 75.1915 Z" fill="#000000" fill-rule="evenodd" fill-opacity="1" /><path clip-path="url(#clip530)" d="M108.654 49.5898 Q105.043 49.5898 103.214 53.1546 Q101.409 56.6963 101.409 63.8259 Q101.409 70.9323 103.214 74.4971 Q105.043 78.0387 108.654 78.0387 Q112.288 78.0387 114.094 74.4971 Q115.922 70.9323 115.922 63.8259 Q115.922 56.6963 114.094 53.1546 Q112.288 49.5898 108.654 49.5898 M108.654 45.8861 Q114.464 45.8861 117.52 50.4926 Q120.598 55.0759 120.598 63.8259 Q120.598 72.5527 117.52 77.1591 Q114.464 81.7424 108.654 81.7424 Q102.844 81.7424 99.765 77.1591 Q96.7095 72.5527 96.7095 63.8259 Q96.7095 55.0759 99.765 50.4926 Q102.844 45.8861 108.654 45.8861 Z" fill="#000000" fill-rule="evenodd" fill-opacity="1" /><polyline clip-path="url(#clip532)" style="stroke:#009af9; stroke-linecap:butt; stroke-linejoin:round; stroke-width:4; stroke-opacity:1; fill:none" points="
  1447.46,390.942 877.331,778.405 418.378,1445.72 772.828,87.9763 2037.05,1145.25 1084.45,1352.93 218.754,1096.25 2290.6,817.735 1155.09,453.517 1851.44,1072.24 
  
  "/>
<path clip-path="url(#clip530)" d="
M1987.12 198.898 L2279.55 198.898 L2279.55 95.2176 L1987.12 95.2176  Z
  " fill="#ffffff" fill-rule="evenodd" fill-opacity="1"/>
<polyline clip-path="url(#clip530)" style="stroke:#000000; stroke-linecap:butt; stroke-linejoin:round; stroke-width:4; stroke-opacity:1; fill:none" points="
  1987.12,198.898 2279.55,198.898 2279.55,95.2176 1987.12,95.2176 1987.12,198.898 
  "/>
<polyline clip-path="url(#clip530)" style="stroke:#009af9; stroke-linecap:butt; stroke-linejoin:round; stroke-width:4; stroke-opacity:1; fill:none" points="
  2011.12,147.058 2155.12,147.058 
  "/>
<path clip-path="url(#clip530)" d="M2192.96 166.745 Q2191.16 171.375 2189.44 172.787 Q2187.73 174.199 2184.86 174.199 L2181.46 174.199 L2181.46 170.634 L2183.96 170.634 Q2185.72 170.634 2186.69 169.8 Q2187.66 168.967 2188.84 165.865 L2189.61 163.921 L2179.12 138.412 L2183.63 138.412 L2191.74 158.689 L2199.84 138.412 L2204.35 138.412 L2192.96 166.745 Z" fill="#000000" fill-rule="evenodd" fill-opacity="1" /><path clip-path="url(#clip530)" d="M2211.64 160.402 L2219.28 160.402 L2219.28 134.037 L2210.97 135.703 L2210.97 131.444 L2219.24 129.778 L2223.91 129.778 L2223.91 160.402 L2231.55 160.402 L2231.55 164.338 L2211.64 164.338 L2211.64 160.402 Z" fill="#000000" fill-rule="evenodd" fill-opacity="1" /></svg>
