<?xml version="1.0" encoding="utf-8"?>
<svg xmlns="http://www.w3.org/2000/svg" xmlns:xlink="http://www.w3.org/1999/xlink" width="600" height="400" viewBox="0 0 2400 1600">
<defs>
  <clipPath id="clip830">
    <rect x="0" y="0" width="2400" height="1600"/>
  </clipPath>
</defs>
<path clip-path="url(#clip830)" d="
M0 1600 L2400 1600 L2400 0 L0 0  Z
  " fill="#ffffff" fill-rule="evenodd" fill-opacity="1"/>
<defs>
  <clipPath id="clip831">
    <rect x="480" y="0" width="1681" height="1600"/>
  </clipPath>
</defs>
<path clip-path="url(#clip830)" d="
M156.598 1486.45 L2352.76 1486.45 L2352.76 47.2441 L156.598 47.2441  Z
  " fill="#ffffff" fill-rule="evenodd" fill-opacity="1"/>
<defs>
  <clipPath id="clip832">
    <rect x="156" y="47" width="2197" height="1440"/>
  </clipPath>
</defs>
<polyline clip-path="url(#clip832)" style="stroke:#000000; stroke-linecap:butt; stroke-linejoin:round; stroke-width:2; stroke-opacity:0.1; fill:none" points="
  628.955,1486.45 628.955,47.2441 
  "/>
<polyline clip-path="url(#clip832)" style="stroke:#000000; stroke-linecap:butt; stroke-linejoin:round; stroke-width:2; stroke-opacity:0.1; fill:none" points="
  1110.92,1486.45 1110.92,47.2441 
  "/>
<polyline clip-path="url(#clip832)" style="stroke:#000000; stroke-linecap:butt; stroke-linejoin:round; stroke-width:2; stroke-opacity:0.1; fill:none" points="
  1592.88,1486.45 1592.88,47.2441 
  "/>
<polyline clip-path="url(#clip832)" style="stroke:#000000; stroke-linecap:butt; stroke-linejoin:round; stroke-width:2; stroke-opacity:0.1; fill:none" points="
  2074.85,1486.45 2074.85,47.2441 
  "/>
<polyline clip-path="url(#clip830)" style="stroke:#000000; stroke-linecap:butt; stroke-linejoin:round; stroke-width:4; stroke-opacity:1; fill:none" points="
  156.598,1486.45 2352.76,1486.45 
  "/>
<polyline clip-path="url(#clip830)" style="stroke:#000000; stroke-linecap:butt; stroke-linejoin:round; stroke-width:4; stroke-opacity:1; fill:none" points="
  628.955,1486.45 628.955,1467.55 
  "/>
<polyline clip-path="url(#clip830)" style="stroke:#000000; stroke-linecap:butt; stroke-linejoin:round; stroke-width:4; stroke-opacity:1; fill:none" points="
  1110.92,1486.45 1110.92,1467.55 
  "/>
<polyline clip-path="url(#clip830)" style="stroke:#000000; stroke-linecap:butt; stroke-linejoin:round; stroke-width:4; stroke-opacity:1; fill:none" points="
  1592.88,1486.45 1592.88,1467.55 
  "/>
<polyline clip-path="url(#clip830)" style="stroke:#000000; stroke-linecap:butt; stroke-linejoin:round; stroke-width:4; stroke-opacity:1; fill:none" points="
  2074.85,1486.45 2074.85,1467.55 
  "/>
<path clip-path="url(#clip830)" d="M607.138 1517.37 Q603.526 1517.37 601.698 1520.93 Q599.892 1524.47 599.892 1531.6 Q599.892 1538.71 601.698 1542.27 Q603.526 1545.82 607.138 1545.82 Q610.772 1545.82 612.577 1542.27 Q614.406 1538.71 614.406 1531.6 Q614.406 1524.47 612.577 1520.93 Q610.772 1517.37 607.138 1517.37 M607.138 1513.66 Q612.948 1513.66 616.003 1518.27 Q619.082 1522.85 619.082 1531.6 Q619.082 1540.33 616.003 1544.94 Q612.948 1549.52 607.138 1549.52 Q601.327 1549.52 598.249 1544.94 Q595.193 1540.33 595.193 1531.6 Q595.193 1522.85 598.249 1518.27 Q601.327 1513.66 607.138 1513.66 Z" fill="#000000" fill-rule="evenodd" fill-opacity="1" /><path clip-path="url(#clip830)" d="M627.299 1542.97 L632.184 1542.97 L632.184 1548.85 L627.299 1548.85 L627.299 1542.97 Z" fill="#000000" fill-rule="evenodd" fill-opacity="1" /><path clip-path="url(#clip830)" d="M646.397 1544.91 L662.716 1544.91 L662.716 1548.85 L640.772 1548.85 L640.772 1544.91 Q643.434 1542.16 648.017 1537.53 Q652.623 1532.88 653.804 1531.53 Q656.049 1529.01 656.929 1527.27 Q657.832 1525.51 657.832 1523.82 Q657.832 1521.07 655.887 1519.33 Q653.966 1517.6 650.864 1517.6 Q648.665 1517.6 646.211 1518.36 Q643.781 1519.13 641.003 1520.68 L641.003 1515.95 Q643.827 1514.82 646.281 1514.24 Q648.735 1513.66 650.772 1513.66 Q656.142 1513.66 659.336 1516.35 Q662.531 1519.03 662.531 1523.52 Q662.531 1525.65 661.721 1527.57 Q660.934 1529.47 658.827 1532.07 Q658.248 1532.74 655.147 1535.95 Q652.045 1539.15 646.397 1544.91 Z" fill="#000000" fill-rule="evenodd" fill-opacity="1" /><path clip-path="url(#clip830)" d="M1088.06 1517.37 Q1084.45 1517.37 1082.62 1520.93 Q1080.81 1524.47 1080.81 1531.6 Q1080.81 1538.71 1082.62 1542.27 Q1084.45 1545.82 1088.06 1545.82 Q1091.69 1545.82 1093.5 1542.27 Q1095.33 1538.71 1095.33 1531.6 Q1095.33 1524.47 1093.5 1520.93 Q1091.69 1517.37 1088.06 1517.37 M1088.06 1513.66 Q1093.87 1513.66 1096.93 1518.27 Q1100 1522.85 1100 1531.6 Q1100 1540.33 1096.93 1544.94 Q1093.87 1549.52 1088.06 1549.52 Q1082.25 1549.52 1079.17 1544.94 Q1076.12 1540.33 1076.12 1531.6 Q1076.12 1522.85 1079.17 1518.27 Q1082.25 1513.66 1088.06 1513.66 Z" fill="#000000" fill-rule="evenodd" fill-opacity="1" /><path clip-path="url(#clip830)" d="M1108.22 1542.97 L1113.11 1542.97 L1113.11 1548.85 L1108.22 1548.85 L1108.22 1542.97 Z" fill="#000000" fill-rule="evenodd" fill-opacity="1" /><path clip-path="url(#clip830)" d="M1136.14 1518.36 L1124.33 1536.81 L1136.14 1536.81 L1136.14 1518.36 M1134.91 1514.29 L1140.79 1514.29 L1140.79 1536.81 L1145.72 1536.81 L1145.72 1540.7 L1140.79 1540.7 L1140.79 1548.85 L1136.14 1548.85 L1136.14 1540.7 L1120.54 1540.7 L1120.54 1536.19 L1134.91 1514.29 Z" fill="#000000" fill-rule="evenodd" fill-opacity="1" /><path clip-path="url(#clip830)" d="M1570.19 1517.37 Q1566.57 1517.37 1564.75 1520.93 Q1562.94 1524.47 1562.94 1531.6 Q1562.94 1538.71 1564.75 1542.27 Q1566.57 1545.82 1570.19 1545.82 Q1573.82 1545.82 1575.63 1542.27 Q1577.45 1538.71 1577.45 1531.6 Q1577.45 1524.47 1575.63 1520.93 Q1573.82 1517.37 1570.19 1517.37 M1570.19 1513.66 Q1576 1513.66 1579.05 1518.27 Q1582.13 1522.85 1582.13 1531.6 Q1582.13 1540.33 1579.05 1544.94 Q1576 1549.52 1570.19 1549.52 Q1564.38 1549.52 1561.3 1544.94 Q1558.24 1540.33 1558.24 1531.6 Q1558.24 1522.85 1561.3 1518.27 Q1564.38 1513.66 1570.19 1513.66 Z" fill="#000000" fill-rule="evenodd" fill-opacity="1" /><path clip-path="url(#clip830)" d="M1590.35 1542.97 L1595.23 1542.97 L1595.23 1548.85 L1590.35 1548.85 L1590.35 1542.97 Z" fill="#000000" fill-rule="evenodd" fill-opacity="1" /><path clip-path="url(#clip830)" d="M1616 1529.7 Q1612.85 1529.7 1611 1531.86 Q1609.17 1534.01 1609.17 1537.76 Q1609.17 1541.49 1611 1543.66 Q1612.85 1545.82 1616 1545.82 Q1619.14 1545.82 1620.97 1543.66 Q1622.82 1541.49 1622.82 1537.76 Q1622.82 1534.01 1620.97 1531.86 Q1619.14 1529.7 1616 1529.7 M1625.28 1515.05 L1625.28 1519.31 Q1623.52 1518.48 1621.71 1518.04 Q1619.93 1517.6 1618.17 1517.6 Q1613.54 1517.6 1611.09 1520.72 Q1608.66 1523.85 1608.31 1530.17 Q1609.68 1528.15 1611.74 1527.09 Q1613.8 1526 1616.27 1526 Q1621.48 1526 1624.49 1529.17 Q1627.52 1532.32 1627.52 1537.76 Q1627.52 1543.08 1624.38 1546.3 Q1621.23 1549.52 1616 1549.52 Q1610 1549.52 1606.83 1544.94 Q1603.66 1540.33 1603.66 1531.6 Q1603.66 1523.41 1607.55 1518.55 Q1611.44 1513.66 1617.99 1513.66 Q1619.75 1513.66 1621.53 1514.01 Q1623.33 1514.36 1625.28 1515.05 Z" fill="#000000" fill-rule="evenodd" fill-opacity="1" /><path clip-path="url(#clip830)" d="M2052.28 1517.37 Q2048.67 1517.37 2046.84 1520.93 Q2045.03 1524.47 2045.03 1531.6 Q2045.03 1538.71 2046.84 1542.27 Q2048.67 1545.82 2052.28 1545.82 Q2055.91 1545.82 2057.72 1542.27 Q2059.55 1538.71 2059.55 1531.6 Q2059.55 1524.47 2057.72 1520.93 Q2055.91 1517.37 2052.28 1517.37 M2052.28 1513.66 Q2058.09 1513.66 2061.14 1518.27 Q2064.22 1522.85 2064.22 1531.6 Q2064.22 1540.33 2061.14 1544.94 Q2058.09 1549.52 2052.28 1549.52 Q2046.47 1549.52 2043.39 1544.94 Q2040.33 1540.33 2040.33 1531.6 Q2040.33 1522.85 2043.39 1518.27 Q2046.47 1513.66 2052.28 1513.66 Z" fill="#000000" fill-rule="evenodd" fill-opacity="1" /><path clip-path="url(#clip830)" d="M2072.44 1542.97 L2077.32 1542.97 L2077.32 1548.85 L2072.44 1548.85 L2072.44 1542.97 Z" fill="#000000" fill-rule="evenodd" fill-opacity="1" /><path clip-path="url(#clip830)" d="M2097.51 1532.44 Q2094.18 1532.44 2092.25 1534.22 Q2090.36 1536 2090.36 1539.13 Q2090.36 1542.25 2092.25 1544.03 Q2094.18 1545.82 2097.51 1545.82 Q2100.84 1545.82 2102.76 1544.03 Q2104.68 1542.23 2104.68 1539.13 Q2104.68 1536 2102.76 1534.22 Q2100.86 1532.44 2097.51 1532.44 M2092.83 1530.45 Q2089.82 1529.7 2088.13 1527.64 Q2086.47 1525.58 2086.47 1522.62 Q2086.47 1518.48 2089.41 1516.07 Q2092.37 1513.66 2097.51 1513.66 Q2102.67 1513.66 2105.61 1516.07 Q2108.55 1518.48 2108.55 1522.62 Q2108.55 1525.58 2106.86 1527.64 Q2105.19 1529.7 2102.21 1530.45 Q2105.59 1531.23 2107.46 1533.52 Q2109.36 1535.82 2109.36 1539.13 Q2109.36 1544.15 2106.28 1546.83 Q2103.23 1549.52 2097.51 1549.52 Q2091.79 1549.52 2088.71 1546.83 Q2085.66 1544.15 2085.66 1539.13 Q2085.66 1535.82 2087.55 1533.52 Q2089.45 1531.23 2092.83 1530.45 M2091.12 1523.06 Q2091.12 1525.75 2092.79 1527.25 Q2094.48 1528.76 2097.51 1528.76 Q2100.52 1528.76 2102.21 1527.25 Q2103.92 1525.75 2103.92 1523.06 Q2103.92 1520.38 2102.21 1518.87 Q2100.52 1517.37 2097.51 1517.37 Q2094.48 1517.37 2092.79 1518.87 Q2091.12 1520.38 2091.12 1523.06 Z" fill="#000000" fill-rule="evenodd" fill-opacity="1" /><polyline clip-path="url(#clip832)" style="stroke:#000000; stroke-linecap:butt; stroke-linejoin:round; stroke-width:2; stroke-opacity:0.1; fill:none" points="
  156.598,1226.18 2352.76,1226.18 
  "/>
<polyline clip-path="url(#clip832)" style="stroke:#000000; stroke-linecap:butt; stroke-linejoin:round; stroke-width:2; stroke-opacity:0.1; fill:none" points="
  156.598,860.973 2352.76,860.973 
  "/>
<polyline clip-path="url(#clip832)" style="stroke:#000000; stroke-linecap:butt; stroke-linejoin:round; stroke-width:2; stroke-opacity:0.1; fill:none" points="
  156.598,495.768 2352.76,495.768 
  "/>
<polyline clip-path="url(#clip832)" style="stroke:#000000; stroke-linecap:butt; stroke-linejoin:round; stroke-width:2; stroke-opacity:0.1; fill:none" points="
  156.598,130.564 2352.76,130.564 
  "/>
<polyline clip-path="url(#clip830)" style="stroke:#000000; stroke-linecap:butt; stroke-linejoin:round; stroke-width:4; stroke-opacity:1; fill:none" points="
  156.598,1486.45 156.598,47.2441 
  "/>
<polyline clip-path="url(#clip830)" style="stroke:#000000; stroke-linecap:butt; stroke-linejoin:round; stroke-width:4; stroke-opacity:1; fill:none" points="
  156.598,1226.18 175.496,1226.18 
  "/>
<polyline clip-path="url(#clip830)" style="stroke:#000000; stroke-linecap:butt; stroke-linejoin:round; stroke-width:4; stroke-opacity:1; fill:none" points="
  156.598,860.973 175.496,860.973 
  "/>
<polyline clip-path="url(#clip830)" style="stroke:#000000; stroke-linecap:butt; stroke-linejoin:round; stroke-width:4; stroke-opacity:1; fill:none" points="
  156.598,495.768 175.496,495.768 
  "/>
<polyline clip-path="url(#clip830)" style="stroke:#000000; stroke-linecap:butt; stroke-linejoin:round; stroke-width:4; stroke-opacity:1; fill:none" points="
  156.598,130.564 175.496,130.564 
  "/>
<path clip-path="url(#clip830)" d="M65.0198 1211.98 Q61.4087 1211.98 59.58 1215.54 Q57.7745 1219.08 57.7745 1226.21 Q57.7745 1233.32 59.58 1236.88 Q61.4087 1240.42 65.0198 1240.42 Q68.6541 1240.42 70.4596 1236.88 Q72.2883 1233.32 72.2883 1226.21 Q72.2883 1219.08 70.4596 1215.54 Q68.6541 1211.98 65.0198 1211.98 M65.0198 1208.27 Q70.83 1208.27 73.8855 1212.88 Q76.9642 1217.46 76.9642 1226.21 Q76.9642 1234.94 73.8855 1239.54 Q70.83 1244.13 65.0198 1244.13 Q59.2097 1244.13 56.131 1239.54 Q53.0754 1234.94 53.0754 1226.21 Q53.0754 1217.46 56.131 1212.88 Q59.2097 1208.27 65.0198 1208.27 Z" fill="#000000" fill-rule="evenodd" fill-opacity="1" /><path clip-path="url(#clip830)" d="M85.1818 1237.58 L90.066 1237.58 L90.066 1243.46 L85.1818 1243.46 L85.1818 1237.58 Z" fill="#000000" fill-rule="evenodd" fill-opacity="1" /><path clip-path="url(#clip830)" d="M104.279 1239.52 L120.598 1239.52 L120.598 1243.46 L98.6539 1243.46 L98.6539 1239.52 Q101.316 1236.77 105.899 1232.14 Q110.506 1227.48 111.686 1226.14 Q113.932 1223.62 114.811 1221.88 Q115.714 1220.12 115.714 1218.43 Q115.714 1215.68 113.77 1213.94 Q111.848 1212.21 108.746 1212.21 Q106.547 1212.21 104.094 1212.97 Q101.663 1213.73 98.8854 1215.29 L98.8854 1210.56 Q101.709 1209.43 104.163 1208.85 Q106.617 1208.27 108.654 1208.27 Q114.024 1208.27 117.219 1210.96 Q120.413 1213.64 120.413 1218.13 Q120.413 1220.26 119.603 1222.18 Q118.816 1224.08 116.709 1226.67 Q116.131 1227.35 113.029 1230.56 Q109.927 1233.76 104.279 1239.52 Z" fill="#000000" fill-rule="evenodd" fill-opacity="1" /><path clip-path="url(#clip830)" d="M62.9365 846.771 Q59.3254 846.771 57.4967 850.336 Q55.6912 853.878 55.6912 861.007 Q55.6912 868.114 57.4967 871.679 Q59.3254 875.22 62.9365 875.22 Q66.5707 875.22 68.3763 871.679 Q70.205 868.114 70.205 861.007 Q70.205 853.878 68.3763 850.336 Q66.5707 846.771 62.9365 846.771 M62.9365 843.068 Q68.7467 843.068 71.8022 847.674 Q74.8809 852.257 74.8809 861.007 Q74.8809 869.734 71.8022 874.341 Q68.7467 878.924 62.9365 878.924 Q57.1264 878.924 54.0477 874.341 Q50.9921 869.734 50.9921 861.007 Q50.9921 852.257 54.0477 847.674 Q57.1264 843.068 62.9365 843.068 Z" fill="#000000" fill-rule="evenodd" fill-opacity="1" /><path clip-path="url(#clip830)" d="M83.0984 872.373 L87.9827 872.373 L87.9827 878.253 L83.0984 878.253 L83.0984 872.373 Z" fill="#000000" fill-rule="evenodd" fill-opacity="1" /><path clip-path="url(#clip830)" d="M111.015 847.767 L99.2095 866.216 L111.015 866.216 L111.015 847.767 M109.788 843.693 L115.668 843.693 L115.668 866.216 L120.598 866.216 L120.598 870.104 L115.668 870.104 L115.668 878.253 L111.015 878.253 L111.015 870.104 L95.4132 870.104 L95.4132 865.591 L109.788 843.693 Z" fill="#000000" fill-rule="evenodd" fill-opacity="1" /><path clip-path="url(#clip830)" d="M63.2606 481.567 Q59.6495 481.567 57.8208 485.132 Q56.0152 488.674 56.0152 495.803 Q56.0152 502.91 57.8208 506.474 Q59.6495 510.016 63.2606 510.016 Q66.8948 510.016 68.7004 506.474 Q70.5291 502.91 70.5291 495.803 Q70.5291 488.674 68.7004 485.132 Q66.8948 481.567 63.2606 481.567 M63.2606 477.863 Q69.0707 477.863 72.1263 482.47 Q75.205 487.053 75.205 495.803 Q75.205 504.53 72.1263 509.136 Q69.0707 513.72 63.2606 513.72 Q57.4504 513.72 54.3717 509.136 Q51.3162 504.53 51.3162 495.803 Q51.3162 487.053 54.3717 482.47 Q57.4504 477.863 63.2606 477.863 Z" fill="#000000" fill-rule="evenodd" fill-opacity="1" /><path clip-path="url(#clip830)" d="M83.4225 507.169 L88.3067 507.169 L88.3067 513.048 L83.4225 513.048 L83.4225 507.169 Z" fill="#000000" fill-rule="evenodd" fill-opacity="1" /><path clip-path="url(#clip830)" d="M109.071 493.905 Q105.922 493.905 104.071 496.058 Q102.242 498.211 102.242 501.961 Q102.242 505.687 104.071 507.863 Q105.922 510.016 109.071 510.016 Q112.219 510.016 114.047 507.863 Q115.899 505.687 115.899 501.961 Q115.899 498.211 114.047 496.058 Q112.219 493.905 109.071 493.905 M118.353 479.252 L118.353 483.512 Q116.594 482.678 114.788 482.238 Q113.006 481.799 111.246 481.799 Q106.617 481.799 104.163 484.924 Q101.733 488.049 101.385 494.368 Q102.751 492.354 104.811 491.289 Q106.871 490.201 109.348 490.201 Q114.557 490.201 117.566 493.373 Q120.598 496.521 120.598 501.961 Q120.598 507.285 117.45 510.502 Q114.302 513.72 109.071 513.72 Q103.075 513.72 99.9039 509.136 Q96.7326 504.53 96.7326 495.803 Q96.7326 487.609 100.621 482.748 Q104.51 477.863 111.061 477.863 Q112.82 477.863 114.603 478.211 Q116.408 478.558 118.353 479.252 Z" fill="#000000" fill-rule="evenodd" fill-opacity="1" /><path clip-path="url(#clip830)" d="M63.5152 116.363 Q59.9041 116.363 58.0754 119.928 Q56.2699 123.47 56.2699 130.599 Q56.2699 137.706 58.0754 141.27 Q59.9041 144.812 63.5152 144.812 Q67.1494 144.812 68.955 141.27 Q70.7837 137.706 70.7837 130.599 Q70.7837 123.47 68.955 119.928 Q67.1494 116.363 63.5152 116.363 M63.5152 112.659 Q69.3254 112.659 72.3809 117.266 Q75.4596 121.849 75.4596 130.599 Q75.4596 139.326 72.3809 143.932 Q69.3254 148.516 63.5152 148.516 Q57.7051 148.516 54.6264 143.932 Q51.5708 139.326 51.5708 130.599 Q51.5708 121.849 54.6264 117.266 Q57.7051 112.659 63.5152 112.659 Z" fill="#000000" fill-rule="evenodd" fill-opacity="1" /><path clip-path="url(#clip830)" d="M83.6771 141.965 L88.5614 141.965 L88.5614 147.844 L83.6771 147.844 L83.6771 141.965 Z" fill="#000000" fill-rule="evenodd" fill-opacity="1" /><path clip-path="url(#clip830)" d="M108.746 131.432 Q105.413 131.432 103.492 133.215 Q101.594 134.997 101.594 138.122 Q101.594 141.247 103.492 143.03 Q105.413 144.812 108.746 144.812 Q112.08 144.812 114.001 143.03 Q115.922 141.224 115.922 138.122 Q115.922 134.997 114.001 133.215 Q112.103 131.432 108.746 131.432 M104.071 129.442 Q101.061 128.701 99.3715 126.641 Q97.7048 124.581 97.7048 121.618 Q97.7048 117.474 100.645 115.067 Q103.608 112.659 108.746 112.659 Q113.908 112.659 116.848 115.067 Q119.788 117.474 119.788 121.618 Q119.788 124.581 118.098 126.641 Q116.432 128.701 113.445 129.442 Q116.825 130.229 118.7 132.52 Q120.598 134.812 120.598 138.122 Q120.598 143.145 117.52 145.831 Q114.464 148.516 108.746 148.516 Q103.029 148.516 99.9502 145.831 Q96.8947 143.145 96.8947 138.122 Q96.8947 134.812 98.7928 132.52 Q100.691 130.229 104.071 129.442 M102.358 122.058 Q102.358 124.743 104.024 126.247 Q105.714 127.752 108.746 127.752 Q111.756 127.752 113.445 126.247 Q115.158 124.743 115.158 122.058 Q115.158 119.372 113.445 117.868 Q111.756 116.363 108.746 116.363 Q105.714 116.363 104.024 117.868 Q102.358 119.372 102.358 122.058 Z" fill="#000000" fill-rule="evenodd" fill-opacity="1" /><polyline clip-path="url(#clip832)" style="stroke:#009af9; stroke-linecap:butt; stroke-linejoin:round; stroke-width:4; stroke-opacity:1; fill:none" points="
  911.335,584.638 2096.56,847.656 796.423,232.672 1695.18,1444.9 218.754,87.9763 468.244,546.091 1331.87,770.696 538.038,1218.68 640.245,1394.18 2290.6,1445.72 
  
  "/>
<path clip-path="url(#clip830)" d="
M1987.12 198.898 L2279.55 198.898 L2279.55 95.2176 L1987.12 95.2176  Z
  " fill="#ffffff" fill-rule="evenodd" fill-opacity="1"/>
<polyline clip-path="url(#clip830)" style="stroke:#000000; stroke-linecap:butt; stroke-linejoin:round; stroke-width:4; stroke-opacity:1; fill:none" points="
  1987.12,198.898 2279.55,198.898 2279.55,95.2176 1987.12,95.2176 1987.12,198.898 
  "/>
<polyline clip-path="url(#clip830)" style="stroke:#009af9; stroke-linecap:butt; stroke-linejoin:round; stroke-width:4; stroke-opacity:1; fill:none" points="
  2011.12,147.058 2155.12,147.058 
  "/>
<path clip-path="url(#clip830)" d="M2192.96 166.745 Q2191.16 171.375 2189.44 172.787 Q2187.73 174.199 2184.86 174.199 L2181.46 174.199 L2181.46 170.634 L2183.96 170.634 Q2185.72 170.634 2186.69 169.8 Q2187.66 168.967 2188.84 165.865 L2189.61 163.921 L2179.12 138.412 L2183.63 138.412 L2191.74 158.689 L2199.84 138.412 L2204.35 138.412 L2192.96 166.745 Z" fill="#000000" fill-rule="evenodd" fill-opacity="1" /><path clip-path="url(#clip830)" d="M2211.64 160.402 L2219.28 160.402 L2219.28 134.037 L2210.97 135.703 L2210.97 131.444 L2219.24 129.778 L2223.91 129.778 L2223.91 160.402 L2231.55 160.402 L2231.55 164.338 L2211.64 164.338 L2211.64 160.402 Z" fill="#000000" fill-rule="evenodd" fill-opacity="1" /></svg>
