<?xml version="1.0" encoding="utf-8"?>
<svg xmlns="http://www.w3.org/2000/svg" xmlns:xlink="http://www.w3.org/1999/xlink" width="600" height="400" viewBox="0 0 2400 1600">
<defs>
  <clipPath id="clip860">
    <rect x="0" y="0" width="2400" height="1600"/>
  </clipPath>
</defs>
<path clip-path="url(#clip860)" d="
M0 1600 L2400 1600 L2400 0 L0 0  Z
  " fill="#ffffff" fill-rule="evenodd" fill-opacity="1"/>
<defs>
  <clipPath id="clip861">
    <rect x="480" y="0" width="1681" height="1600"/>
  </clipPath>
</defs>
<path clip-path="url(#clip860)" d="
M156.598 1486.45 L2352.76 1486.45 L2352.76 47.2441 L156.598 47.2441  Z
  " fill="#ffffff" fill-rule="evenodd" fill-opacity="1"/>
<defs>
  <clipPath id="clip862">
    <rect x="156" y="47" width="2197" height="1440"/>
  </clipPath>
</defs>
<polyline clip-path="url(#clip862)" style="stroke:#000000; stroke-linecap:butt; stroke-linejoin:round; stroke-width:2; stroke-opacity:0.1; fill:none" points="
  420.138,1486.45 420.138,47.2441 
  "/>
<polyline clip-path="url(#clip862)" style="stroke:#000000; stroke-linecap:butt; stroke-linejoin:round; stroke-width:2; stroke-opacity:0.1; fill:none" points="
  760.255,1486.45 760.255,47.2441 
  "/>
<polyline clip-path="url(#clip862)" style="stroke:#000000; stroke-linecap:butt; stroke-linejoin:round; stroke-width:2; stroke-opacity:0.1; fill:none" points="
  1100.37,1486.45 1100.37,47.2441 
  "/>
<polyline clip-path="url(#clip862)" style="stroke:#000000; stroke-linecap:butt; stroke-linejoin:round; stroke-width:2; stroke-opacity:0.1; fill:none" points="
  1440.49,1486.45 1440.49,47.2441 
  "/>
<polyline clip-path="url(#clip862)" style="stroke:#000000; stroke-linecap:butt; stroke-linejoin:round; stroke-width:2; stroke-opacity:0.1; fill:none" points="
  1780.61,1486.45 1780.61,47.2441 
  "/>
<polyline clip-path="url(#clip862)" style="stroke:#000000; stroke-linecap:butt; stroke-linejoin:round; stroke-width:2; stroke-opacity:0.1; fill:none" points="
  2120.72,1486.45 2120.72,47.2441 
  "/>
<polyline clip-path="url(#clip860)" style="stroke:#000000; stroke-linecap:butt; stroke-linejoin:round; stroke-width:4; stroke-opacity:1; fill:none" points="
  156.598,1486.45 2352.76,1486.45 
  "/>
<polyline clip-path="url(#clip860)" style="stroke:#000000; stroke-linecap:butt; stroke-linejoin:round; stroke-width:4; stroke-opacity:1; fill:none" points="
  420.138,1486.45 420.138,1467.55 
  "/>
<polyline clip-path="url(#clip860)" style="stroke:#000000; stroke-linecap:butt; stroke-linejoin:round; stroke-width:4; stroke-opacity:1; fill:none" points="
  760.255,1486.45 760.255,1467.55 
  "/>
<polyline clip-path="url(#clip860)" style="stroke:#000000; stroke-linecap:butt; stroke-linejoin:round; stroke-width:4; stroke-opacity:1; fill:none" points="
  1100.37,1486.45 1100.37,1467.55 
  "/>
<polyline clip-path="url(#clip860)" style="stroke:#000000; stroke-linecap:butt; stroke-linejoin:round; stroke-width:4; stroke-opacity:1; fill:none" points="
  1440.49,1486.45 1440.49,1467.55 
  "/>
<polyline clip-path="url(#clip860)" style="stroke:#000000; stroke-linecap:butt; stroke-linejoin:round; stroke-width:4; stroke-opacity:1; fill:none" points="
  1780.61,1486.45 1780.61,1467.55 
  "/>
<polyline clip-path="url(#clip860)" style="stroke:#000000; stroke-linecap:butt; stroke-linejoin:round; stroke-width:4; stroke-opacity:1; fill:none" points="
  2120.72,1486.45 2120.72,1467.55 
  "/>
<path clip-path="url(#clip860)" d="M397.279 1517.37 Q393.668 1517.37 391.84 1520.93 Q390.034 1524.47 390.034 1531.6 Q390.034 1538.71 391.84 1542.27 Q393.668 1545.82 397.279 1545.82 Q400.914 1545.82 402.719 1542.27 Q404.548 1538.71 404.548 1531.6 Q404.548 1524.47 402.719 1520.93 Q400.914 1517.37 397.279 1517.37 M397.279 1513.66 Q403.09 1513.66 406.145 1518.27 Q409.224 1522.85 409.224 1531.6 Q409.224 1540.33 406.145 1544.94 Q403.09 1549.52 397.279 1549.52 Q391.469 1549.52 388.391 1544.94 Q385.335 1540.33 385.335 1531.6 Q385.335 1522.85 388.391 1518.27 Q391.469 1513.66 397.279 1513.66 Z" fill="#000000" fill-rule="evenodd" fill-opacity="1" /><path clip-path="url(#clip860)" d="M417.441 1542.97 L422.326 1542.97 L422.326 1548.85 L417.441 1548.85 L417.441 1542.97 Z" fill="#000000" fill-rule="evenodd" fill-opacity="1" /><path clip-path="url(#clip860)" d="M445.358 1518.36 L433.552 1536.81 L445.358 1536.81 L445.358 1518.36 M444.131 1514.29 L450.011 1514.29 L450.011 1536.81 L454.941 1536.81 L454.941 1540.7 L450.011 1540.7 L450.011 1548.85 L445.358 1548.85 L445.358 1540.7 L429.756 1540.7 L429.756 1536.19 L444.131 1514.29 Z" fill="#000000" fill-rule="evenodd" fill-opacity="1" /><path clip-path="url(#clip860)" d="M738.137 1517.37 Q734.526 1517.37 732.697 1520.93 Q730.892 1524.47 730.892 1531.6 Q730.892 1538.71 732.697 1542.27 Q734.526 1545.82 738.137 1545.82 Q741.771 1545.82 743.577 1542.27 Q745.405 1538.71 745.405 1531.6 Q745.405 1524.47 743.577 1520.93 Q741.771 1517.37 738.137 1517.37 M738.137 1513.66 Q743.947 1513.66 747.003 1518.27 Q750.081 1522.85 750.081 1531.6 Q750.081 1540.33 747.003 1544.94 Q743.947 1549.52 738.137 1549.52 Q732.327 1549.52 729.248 1544.94 Q726.193 1540.33 726.193 1531.6 Q726.193 1522.85 729.248 1518.27 Q732.327 1513.66 738.137 1513.66 Z" fill="#000000" fill-rule="evenodd" fill-opacity="1" /><path clip-path="url(#clip860)" d="M758.299 1542.97 L763.183 1542.97 L763.183 1548.85 L758.299 1548.85 L758.299 1542.97 Z" fill="#000000" fill-rule="evenodd" fill-opacity="1" /><path clip-path="url(#clip860)" d="M773.415 1514.29 L791.771 1514.29 L791.771 1518.22 L777.697 1518.22 L777.697 1526.7 Q778.716 1526.35 779.734 1526.19 Q780.753 1526 781.771 1526 Q787.558 1526 790.938 1529.17 Q794.317 1532.34 794.317 1537.76 Q794.317 1543.34 790.845 1546.44 Q787.373 1549.52 781.053 1549.52 Q778.878 1549.52 776.609 1549.15 Q774.364 1548.78 771.956 1548.04 L771.956 1543.34 Q774.04 1544.47 776.262 1545.03 Q778.484 1545.58 780.961 1545.58 Q784.965 1545.58 787.303 1543.48 Q789.641 1541.37 789.641 1537.76 Q789.641 1534.15 787.303 1532.04 Q784.965 1529.94 780.961 1529.94 Q779.086 1529.94 777.211 1530.35 Q775.359 1530.77 773.415 1531.65 L773.415 1514.29 Z" fill="#000000" fill-rule="evenodd" fill-opacity="1" /><path clip-path="url(#clip860)" d="M1077.68 1517.37 Q1074.06 1517.37 1072.24 1520.93 Q1070.43 1524.47 1070.43 1531.6 Q1070.43 1538.71 1072.24 1542.27 Q1074.06 1545.82 1077.68 1545.82 Q1081.31 1545.82 1083.12 1542.27 Q1084.94 1538.71 1084.94 1531.6 Q1084.94 1524.47 1083.12 1520.93 Q1081.31 1517.37 1077.68 1517.37 M1077.68 1513.66 Q1083.49 1513.66 1086.54 1518.27 Q1089.62 1522.85 1089.62 1531.6 Q1089.62 1540.33 1086.54 1544.94 Q1083.49 1549.52 1077.68 1549.52 Q1071.87 1549.52 1068.79 1544.94 Q1065.73 1540.33 1065.73 1531.6 Q1065.73 1522.85 1068.79 1518.27 Q1071.87 1513.66 1077.68 1513.66 Z" fill="#000000" fill-rule="evenodd" fill-opacity="1" /><path clip-path="url(#clip860)" d="M1097.84 1542.97 L1102.72 1542.97 L1102.72 1548.85 L1097.84 1548.85 L1097.84 1542.97 Z" fill="#000000" fill-rule="evenodd" fill-opacity="1" /><path clip-path="url(#clip860)" d="M1123.49 1529.7 Q1120.34 1529.7 1118.49 1531.86 Q1116.66 1534.01 1116.66 1537.76 Q1116.66 1541.49 1118.49 1543.66 Q1120.34 1545.82 1123.49 1545.82 Q1126.63 1545.82 1128.46 1543.66 Q1130.31 1541.49 1130.31 1537.76 Q1130.31 1534.01 1128.46 1531.86 Q1126.63 1529.7 1123.49 1529.7 M1132.77 1515.05 L1132.77 1519.31 Q1131.01 1518.48 1129.2 1518.04 Q1127.42 1517.6 1125.66 1517.6 Q1121.03 1517.6 1118.58 1520.72 Q1116.15 1523.85 1115.8 1530.17 Q1117.17 1528.15 1119.23 1527.09 Q1121.29 1526 1123.76 1526 Q1128.97 1526 1131.98 1529.17 Q1135.01 1532.32 1135.01 1537.76 Q1135.01 1543.08 1131.86 1546.3 Q1128.72 1549.52 1123.49 1549.52 Q1117.49 1549.52 1114.32 1544.94 Q1111.15 1540.33 1111.15 1531.6 Q1111.15 1523.41 1115.04 1518.55 Q1118.93 1513.66 1125.48 1513.66 Q1127.24 1513.66 1129.02 1514.01 Q1130.82 1514.36 1132.77 1515.05 Z" fill="#000000" fill-rule="evenodd" fill-opacity="1" /><path clip-path="url(#clip860)" d="M1418.32 1517.37 Q1414.71 1517.37 1412.88 1520.93 Q1411.08 1524.47 1411.08 1531.6 Q1411.08 1538.71 1412.88 1542.27 Q1414.71 1545.82 1418.32 1545.82 Q1421.96 1545.82 1423.76 1542.27 Q1425.59 1538.71 1425.59 1531.6 Q1425.59 1524.47 1423.76 1520.93 Q1421.96 1517.37 1418.32 1517.37 M1418.32 1513.66 Q1424.13 1513.66 1427.19 1518.27 Q1430.27 1522.85 1430.27 1531.6 Q1430.27 1540.33 1427.19 1544.94 Q1424.13 1549.52 1418.32 1549.52 Q1412.51 1549.52 1409.44 1544.94 Q1406.38 1540.33 1406.38 1531.6 Q1406.38 1522.85 1409.44 1518.27 Q1412.51 1513.66 1418.32 1513.66 Z" fill="#000000" fill-rule="evenodd" fill-opacity="1" /><path clip-path="url(#clip860)" d="M1438.49 1542.97 L1443.37 1542.97 L1443.37 1548.85 L1438.49 1548.85 L1438.49 1542.97 Z" fill="#000000" fill-rule="evenodd" fill-opacity="1" /><path clip-path="url(#clip860)" d="M1452.38 1514.29 L1474.6 1514.29 L1474.6 1516.28 L1462.05 1548.85 L1457.17 1548.85 L1468.97 1518.22 L1452.38 1518.22 L1452.38 1514.29 Z" fill="#000000" fill-rule="evenodd" fill-opacity="1" /><path clip-path="url(#clip860)" d="M1758.04 1517.37 Q1754.43 1517.37 1752.6 1520.93 Q1750.79 1524.47 1750.79 1531.6 Q1750.79 1538.71 1752.6 1542.27 Q1754.43 1545.82 1758.04 1545.82 Q1761.67 1545.82 1763.48 1542.27 Q1765.3 1538.71 1765.3 1531.6 Q1765.3 1524.47 1763.48 1520.93 Q1761.67 1517.37 1758.04 1517.37 M1758.04 1513.66 Q1763.85 1513.66 1766.9 1518.27 Q1769.98 1522.85 1769.98 1531.6 Q1769.98 1540.33 1766.9 1544.94 Q1763.85 1549.52 1758.04 1549.52 Q1752.23 1549.52 1749.15 1544.94 Q1746.09 1540.33 1746.09 1531.6 Q1746.09 1522.85 1749.15 1518.27 Q1752.23 1513.66 1758.04 1513.66 Z" fill="#000000" fill-rule="evenodd" fill-opacity="1" /><path clip-path="url(#clip860)" d="M1778.2 1542.97 L1783.08 1542.97 L1783.08 1548.85 L1778.2 1548.85 L1778.2 1542.97 Z" fill="#000000" fill-rule="evenodd" fill-opacity="1" /><path clip-path="url(#clip860)" d="M1803.27 1532.44 Q1799.93 1532.44 1798.01 1534.22 Q1796.11 1536 1796.11 1539.13 Q1796.11 1542.25 1798.01 1544.03 Q1799.93 1545.82 1803.27 1545.82 Q1806.6 1545.82 1808.52 1544.03 Q1810.44 1542.23 1810.44 1539.13 Q1810.44 1536 1808.52 1534.22 Q1806.62 1532.44 1803.27 1532.44 M1798.59 1530.45 Q1795.58 1529.7 1793.89 1527.64 Q1792.23 1525.58 1792.23 1522.62 Q1792.23 1518.48 1795.17 1516.07 Q1798.13 1513.66 1803.27 1513.66 Q1808.43 1513.66 1811.37 1516.07 Q1814.31 1518.48 1814.31 1522.62 Q1814.31 1525.58 1812.62 1527.64 Q1810.95 1529.7 1807.97 1530.45 Q1811.35 1531.23 1813.22 1533.52 Q1815.12 1535.82 1815.12 1539.13 Q1815.12 1544.15 1812.04 1546.83 Q1808.99 1549.52 1803.27 1549.52 Q1797.55 1549.52 1794.47 1546.83 Q1791.42 1544.15 1791.42 1539.13 Q1791.42 1535.82 1793.31 1533.52 Q1795.21 1531.23 1798.59 1530.45 M1796.88 1523.06 Q1796.88 1525.75 1798.55 1527.25 Q1800.24 1528.76 1803.27 1528.76 Q1806.28 1528.76 1807.97 1527.25 Q1809.68 1525.75 1809.68 1523.06 Q1809.68 1520.38 1807.97 1518.87 Q1806.28 1517.37 1803.27 1517.37 Q1800.24 1517.37 1798.55 1518.87 Q1796.88 1520.38 1796.88 1523.06 Z" fill="#000000" fill-rule="evenodd" fill-opacity="1" /><path clip-path="url(#clip860)" d="M2098.2 1517.37 Q2094.59 1517.37 2092.76 1520.93 Q2090.95 1524.47 2090.95 1531.6 Q2090.95 1538.71 2092.76 1542.27 Q2094.59 1545.82 2098.2 1545.82 Q2101.83 1545.82 2103.64 1542.27 Q2105.47 1538.71 2105.47 1531.6 Q2105.47 1524.47 2103.64 1520.93 Q2101.83 1517.37 2098.2 1517.37 M2098.2 1513.66 Q2104.01 1513.66 2107.07 1518.27 Q2110.14 1522.85 2110.14 1531.6 Q2110.14 1540.33 2107.07 1544.94 Q2104.01 1549.52 2098.2 1549.52 Q2092.39 1549.52 2089.31 1544.94 Q2086.26 1540.33 2086.26 1531.6 Q2086.26 1522.85 2089.31 1518.27 Q2092.39 1513.66 2098.2 1513.66 Z" fill="#000000" fill-rule="evenodd" fill-opacity="1" /><path clip-path="url(#clip860)" d="M2118.36 1542.97 L2123.25 1542.97 L2123.25 1548.85 L2118.36 1548.85 L2118.36 1542.97 Z" fill="#000000" fill-rule="evenodd" fill-opacity="1" /><path clip-path="url(#clip860)" d="M2133.57 1548.13 L2133.57 1543.87 Q2135.33 1544.7 2137.13 1545.14 Q2138.94 1545.58 2140.68 1545.58 Q2145.31 1545.58 2147.74 1542.48 Q2150.19 1539.36 2150.54 1533.01 Q2149.19 1535.01 2147.13 1536.07 Q2145.07 1537.13 2142.57 1537.13 Q2137.39 1537.13 2134.36 1534.01 Q2131.35 1530.86 2131.35 1525.42 Q2131.35 1520.1 2134.5 1516.88 Q2137.64 1513.66 2142.88 1513.66 Q2148.87 1513.66 2152.02 1518.27 Q2155.19 1522.85 2155.19 1531.6 Q2155.19 1539.77 2151.3 1544.66 Q2147.44 1549.52 2140.88 1549.52 Q2139.13 1549.52 2137.32 1549.17 Q2135.51 1548.82 2133.57 1548.13 M2142.88 1533.48 Q2146.02 1533.48 2147.85 1531.32 Q2149.7 1529.17 2149.7 1525.42 Q2149.7 1521.7 2147.85 1519.54 Q2146.02 1517.37 2142.88 1517.37 Q2139.73 1517.37 2137.88 1519.54 Q2136.05 1521.7 2136.05 1525.42 Q2136.05 1529.17 2137.88 1531.32 Q2139.73 1533.48 2142.88 1533.48 Z" fill="#000000" fill-rule="evenodd" fill-opacity="1" /><polyline clip-path="url(#clip862)" style="stroke:#000000; stroke-linecap:butt; stroke-linejoin:round; stroke-width:2; stroke-opacity:0.1; fill:none" points="
  156.598,1481.02 2352.76,1481.02 
  "/>
<polyline clip-path="url(#clip862)" style="stroke:#000000; stroke-linecap:butt; stroke-linejoin:round; stroke-width:2; stroke-opacity:0.1; fill:none" points="
  156.598,1173.14 2352.76,1173.14 
  "/>
<polyline clip-path="url(#clip862)" style="stroke:#000000; stroke-linecap:butt; stroke-linejoin:round; stroke-width:2; stroke-opacity:0.1; fill:none" points="
  156.598,865.269 2352.76,865.269 
  "/>
<polyline clip-path="url(#clip862)" style="stroke:#000000; stroke-linecap:butt; stroke-linejoin:round; stroke-width:2; stroke-opacity:0.1; fill:none" points="
  156.598,557.393 2352.76,557.393 
  "/>
<polyline clip-path="url(#clip862)" style="stroke:#000000; stroke-linecap:butt; stroke-linejoin:round; stroke-width:2; stroke-opacity:0.1; fill:none" points="
  156.598,249.518 2352.76,249.518 
  "/>
<polyline clip-path="url(#clip860)" style="stroke:#000000; stroke-linecap:butt; stroke-linejoin:round; stroke-width:4; stroke-opacity:1; fill:none" points="
  156.598,1486.45 156.598,47.2441 
  "/>
<polyline clip-path="url(#clip860)" style="stroke:#000000; stroke-linecap:butt; stroke-linejoin:round; stroke-width:4; stroke-opacity:1; fill:none" points="
  156.598,1481.02 175.496,1481.02 
  "/>
<polyline clip-path="url(#clip860)" style="stroke:#000000; stroke-linecap:butt; stroke-linejoin:round; stroke-width:4; stroke-opacity:1; fill:none" points="
  156.598,1173.14 175.496,1173.14 
  "/>
<polyline clip-path="url(#clip860)" style="stroke:#000000; stroke-linecap:butt; stroke-linejoin:round; stroke-width:4; stroke-opacity:1; fill:none" points="
  156.598,865.269 175.496,865.269 
  "/>
<polyline clip-path="url(#clip860)" style="stroke:#000000; stroke-linecap:butt; stroke-linejoin:round; stroke-width:4; stroke-opacity:1; fill:none" points="
  156.598,557.393 175.496,557.393 
  "/>
<polyline clip-path="url(#clip860)" style="stroke:#000000; stroke-linecap:butt; stroke-linejoin:round; stroke-width:4; stroke-opacity:1; fill:none" points="
  156.598,249.518 175.496,249.518 
  "/>
<path clip-path="url(#clip860)" d="M63.4226 1466.82 Q59.8115 1466.82 57.9828 1470.38 Q56.1773 1473.92 56.1773 1481.05 Q56.1773 1488.16 57.9828 1491.73 Q59.8115 1495.27 63.4226 1495.27 Q67.0569 1495.27 68.8624 1491.73 Q70.6911 1488.16 70.6911 1481.05 Q70.6911 1473.92 68.8624 1470.38 Q67.0569 1466.82 63.4226 1466.82 M63.4226 1463.11 Q69.2328 1463.11 72.2883 1467.72 Q75.367 1472.3 75.367 1481.05 Q75.367 1489.78 72.2883 1494.39 Q69.2328 1498.97 63.4226 1498.97 Q57.6125 1498.97 54.5338 1494.39 Q51.4782 1489.78 51.4782 1481.05 Q51.4782 1472.3 54.5338 1467.72 Q57.6125 1463.11 63.4226 1463.11 Z" fill="#000000" fill-rule="evenodd" fill-opacity="1" /><path clip-path="url(#clip860)" d="M83.5845 1492.42 L88.4688 1492.42 L88.4688 1498.3 L83.5845 1498.3 L83.5845 1492.42 Z" fill="#000000" fill-rule="evenodd" fill-opacity="1" /><path clip-path="url(#clip860)" d="M108.654 1466.82 Q105.043 1466.82 103.214 1470.38 Q101.409 1473.92 101.409 1481.05 Q101.409 1488.16 103.214 1491.73 Q105.043 1495.27 108.654 1495.27 Q112.288 1495.27 114.094 1491.73 Q115.922 1488.16 115.922 1481.05 Q115.922 1473.92 114.094 1470.38 Q112.288 1466.82 108.654 1466.82 M108.654 1463.11 Q114.464 1463.11 117.52 1467.72 Q120.598 1472.3 120.598 1481.05 Q120.598 1489.78 117.52 1494.39 Q114.464 1498.97 108.654 1498.97 Q102.844 1498.97 99.765 1494.39 Q96.7095 1489.78 96.7095 1481.05 Q96.7095 1472.3 99.765 1467.72 Q102.844 1463.11 108.654 1463.11 Z" fill="#000000" fill-rule="evenodd" fill-opacity="1" /><path clip-path="url(#clip860)" d="M65.0198 1158.94 Q61.4087 1158.94 59.58 1162.51 Q57.7745 1166.05 57.7745 1173.18 Q57.7745 1180.29 59.58 1183.85 Q61.4087 1187.39 65.0198 1187.39 Q68.6541 1187.39 70.4596 1183.85 Q72.2883 1180.29 72.2883 1173.18 Q72.2883 1166.05 70.4596 1162.51 Q68.6541 1158.94 65.0198 1158.94 M65.0198 1155.24 Q70.83 1155.24 73.8855 1159.85 Q76.9642 1164.43 76.9642 1173.18 Q76.9642 1181.91 73.8855 1186.51 Q70.83 1191.1 65.0198 1191.1 Q59.2097 1191.1 56.131 1186.51 Q53.0754 1181.91 53.0754 1173.18 Q53.0754 1164.43 56.131 1159.85 Q59.2097 1155.24 65.0198 1155.24 Z" fill="#000000" fill-rule="evenodd" fill-opacity="1" /><path clip-path="url(#clip860)" d="M85.1818 1184.54 L90.066 1184.54 L90.066 1190.42 L85.1818 1190.42 L85.1818 1184.54 Z" fill="#000000" fill-rule="evenodd" fill-opacity="1" /><path clip-path="url(#clip860)" d="M104.279 1186.49 L120.598 1186.49 L120.598 1190.42 L98.6539 1190.42 L98.6539 1186.49 Q101.316 1183.73 105.899 1179.1 Q110.506 1174.45 111.686 1173.11 Q113.932 1170.59 114.811 1168.85 Q115.714 1167.09 115.714 1165.4 Q115.714 1162.65 113.77 1160.91 Q111.848 1159.17 108.746 1159.17 Q106.547 1159.17 104.094 1159.94 Q101.663 1160.7 98.8854 1162.25 L98.8854 1157.53 Q101.709 1156.4 104.163 1155.82 Q106.617 1155.24 108.654 1155.24 Q114.024 1155.24 117.219 1157.92 Q120.413 1160.61 120.413 1165.1 Q120.413 1167.23 119.603 1169.15 Q118.816 1171.05 116.709 1173.64 Q116.131 1174.31 113.029 1177.53 Q109.927 1180.72 104.279 1186.49 Z" fill="#000000" fill-rule="evenodd" fill-opacity="1" /><path clip-path="url(#clip860)" d="M62.9365 851.067 Q59.3254 851.067 57.4967 854.632 Q55.6912 858.174 55.6912 865.303 Q55.6912 872.41 57.4967 875.975 Q59.3254 879.516 62.9365 879.516 Q66.5707 879.516 68.3763 875.975 Q70.205 872.41 70.205 865.303 Q70.205 858.174 68.3763 854.632 Q66.5707 851.067 62.9365 851.067 M62.9365 847.364 Q68.7467 847.364 71.8022 851.97 Q74.8809 856.553 74.8809 865.303 Q74.8809 874.03 71.8022 878.637 Q68.7467 883.22 62.9365 883.22 Q57.1264 883.22 54.0477 878.637 Q50.9921 874.03 50.9921 865.303 Q50.9921 856.553 54.0477 851.97 Q57.1264 847.364 62.9365 847.364 Z" fill="#000000" fill-rule="evenodd" fill-opacity="1" /><path clip-path="url(#clip860)" d="M83.0984 876.669 L87.9827 876.669 L87.9827 882.549 L83.0984 882.549 L83.0984 876.669 Z" fill="#000000" fill-rule="evenodd" fill-opacity="1" /><path clip-path="url(#clip860)" d="M111.015 852.063 L99.2095 870.512 L111.015 870.512 L111.015 852.063 M109.788 847.989 L115.668 847.989 L115.668 870.512 L120.598 870.512 L120.598 874.4 L115.668 874.4 L115.668 882.549 L111.015 882.549 L111.015 874.4 L95.4132 874.4 L95.4132 869.887 L109.788 847.989 Z" fill="#000000" fill-rule="evenodd" fill-opacity="1" /><path clip-path="url(#clip860)" d="M63.2606 543.192 Q59.6495 543.192 57.8208 546.757 Q56.0152 550.298 56.0152 557.428 Q56.0152 564.534 57.8208 568.099 Q59.6495 571.641 63.2606 571.641 Q66.8948 571.641 68.7004 568.099 Q70.5291 564.534 70.5291 557.428 Q70.5291 550.298 68.7004 546.757 Q66.8948 543.192 63.2606 543.192 M63.2606 539.488 Q69.0707 539.488 72.1263 544.095 Q75.205 548.678 75.205 557.428 Q75.205 566.155 72.1263 570.761 Q69.0707 575.344 63.2606 575.344 Q57.4504 575.344 54.3717 570.761 Q51.3162 566.155 51.3162 557.428 Q51.3162 548.678 54.3717 544.095 Q57.4504 539.488 63.2606 539.488 Z" fill="#000000" fill-rule="evenodd" fill-opacity="1" /><path clip-path="url(#clip860)" d="M83.4225 568.793 L88.3067 568.793 L88.3067 574.673 L83.4225 574.673 L83.4225 568.793 Z" fill="#000000" fill-rule="evenodd" fill-opacity="1" /><path clip-path="url(#clip860)" d="M109.071 555.53 Q105.922 555.53 104.071 557.682 Q102.242 559.835 102.242 563.585 Q102.242 567.312 104.071 569.488 Q105.922 571.641 109.071 571.641 Q112.219 571.641 114.047 569.488 Q115.899 567.312 115.899 563.585 Q115.899 559.835 114.047 557.682 Q112.219 555.53 109.071 555.53 M118.353 540.877 L118.353 545.136 Q116.594 544.303 114.788 543.863 Q113.006 543.423 111.246 543.423 Q106.617 543.423 104.163 546.548 Q101.733 549.673 101.385 555.993 Q102.751 553.979 104.811 552.914 Q106.871 551.826 109.348 551.826 Q114.557 551.826 117.566 554.997 Q120.598 558.145 120.598 563.585 Q120.598 568.909 117.45 572.127 Q114.302 575.344 109.071 575.344 Q103.075 575.344 99.9039 570.761 Q96.7326 566.155 96.7326 557.428 Q96.7326 549.233 100.621 544.372 Q104.51 539.488 111.061 539.488 Q112.82 539.488 114.603 539.835 Q116.408 540.183 118.353 540.877 Z" fill="#000000" fill-rule="evenodd" fill-opacity="1" /><path clip-path="url(#clip860)" d="M63.5152 235.316 Q59.9041 235.316 58.0754 238.881 Q56.2699 242.423 56.2699 249.552 Q56.2699 256.659 58.0754 260.224 Q59.9041 263.765 63.5152 263.765 Q67.1494 263.765 68.955 260.224 Q70.7837 256.659 70.7837 249.552 Q70.7837 242.423 68.955 238.881 Q67.1494 235.316 63.5152 235.316 M63.5152 231.613 Q69.3254 231.613 72.3809 236.219 Q75.4596 240.802 75.4596 249.552 Q75.4596 258.279 72.3809 262.886 Q69.3254 267.469 63.5152 267.469 Q57.7051 267.469 54.6264 262.886 Q51.5708 258.279 51.5708 249.552 Q51.5708 240.802 54.6264 236.219 Q57.7051 231.613 63.5152 231.613 Z" fill="#000000" fill-rule="evenodd" fill-opacity="1" /><path clip-path="url(#clip860)" d="M83.6771 260.918 L88.5614 260.918 L88.5614 266.798 L83.6771 266.798 L83.6771 260.918 Z" fill="#000000" fill-rule="evenodd" fill-opacity="1" /><path clip-path="url(#clip860)" d="M108.746 250.386 Q105.413 250.386 103.492 252.168 Q101.594 253.95 101.594 257.075 Q101.594 260.2 103.492 261.983 Q105.413 263.765 108.746 263.765 Q112.08 263.765 114.001 261.983 Q115.922 260.177 115.922 257.075 Q115.922 253.95 114.001 252.168 Q112.103 250.386 108.746 250.386 M104.071 248.395 Q101.061 247.654 99.3715 245.594 Q97.7048 243.534 97.7048 240.571 Q97.7048 236.427 100.645 234.02 Q103.608 231.613 108.746 231.613 Q113.908 231.613 116.848 234.02 Q119.788 236.427 119.788 240.571 Q119.788 243.534 118.098 245.594 Q116.432 247.654 113.445 248.395 Q116.825 249.182 118.7 251.474 Q120.598 253.765 120.598 257.075 Q120.598 262.099 117.52 264.784 Q114.464 267.469 108.746 267.469 Q103.029 267.469 99.9502 264.784 Q96.8947 262.099 96.8947 257.075 Q96.8947 253.765 98.7928 251.474 Q100.691 249.182 104.071 248.395 M102.358 241.011 Q102.358 243.696 104.024 245.201 Q105.714 246.705 108.746 246.705 Q111.756 246.705 113.445 245.201 Q115.158 243.696 115.158 241.011 Q115.158 238.326 113.445 236.821 Q111.756 235.316 108.746 235.316 Q105.714 235.316 104.024 236.821 Q102.358 238.326 102.358 241.011 Z" fill="#000000" fill-rule="evenodd" fill-opacity="1" /><polyline clip-path="url(#clip862)" style="stroke:#009af9; stroke-linecap:butt; stroke-linejoin:round; stroke-width:4; stroke-opacity:1; fill:none" points="
  2290.6,87.9763 1043.38,1445.72 218.754,885.29 1640.44,1113.68 1260.24,1439.34 2251.92,1403.14 672.483,364.478 1784.31,425.217 2028.58,780.337 1990.34,894.453 
  
  "/>
<path clip-path="url(#clip860)" d="
M1987.12 198.898 L2279.55 198.898 L2279.55 95.2176 L1987.12 95.2176  Z
  " fill="#ffffff" fill-rule="evenodd" fill-opacity="1"/>
<polyline clip-path="url(#clip860)" style="stroke:#000000; stroke-linecap:butt; stroke-linejoin:round; stroke-width:4; stroke-opacity:1; fill:none" points="
  1987.12,198.898 2279.55,198.898 2279.55,95.2176 1987.12,95.2176 1987.12,198.898 
  "/>
<polyline clip-path="url(#clip860)" style="stroke:#009af9; stroke-linecap:butt; stroke-linejoin:round; stroke-width:4; stroke-opacity:1; fill:none" points="
  2011.12,147.058 2155.12,147.058 
  "/>
<path clip-path="url(#clip860)" d="M2192.96 166.745 Q2191.16 171.375 2189.44 172.787 Q2187.73 174.199 2184.86 174.199 L2181.46 174.199 L2181.46 170.634 L2183.96 170.634 Q2185.72 170.634 2186.69 169.8 Q2187.66 168.967 2188.84 165.865 L2189.61 163.921 L2179.12 138.412 L2183.63 138.412 L2191.74 158.689 L2199.84 138.412 L2204.35 138.412 L2192.96 166.745 Z" fill="#000000" fill-rule="evenodd" fill-opacity="1" /><path clip-path="url(#clip860)" d="M2211.64 160.402 L2219.28 160.402 L2219.28 134.037 L2210.97 135.703 L2210.97 131.444 L2219.24 129.778 L2223.91 129.778 L2223.91 160.402 L2231.55 160.402 L2231.55 164.338 L2211.64 164.338 L2211.64 160.402 Z" fill="#000000" fill-rule="evenodd" fill-opacity="1" /></svg>
