<?xml version="1.0" encoding="utf-8"?>
<svg xmlns="http://www.w3.org/2000/svg" xmlns:xlink="http://www.w3.org/1999/xlink" width="600" height="400" viewBox="0 0 2400 1600">
<defs>
  <clipPath id="clip060">
    <rect x="0" y="0" width="2400" height="1600"/>
  </clipPath>
</defs>
<path clip-path="url(#clip060)" d="
M0 1600 L2400 1600 L2400 0 L0 0  Z
  " fill="#ffffff" fill-rule="evenodd" fill-opacity="1"/>
<defs>
  <clipPath id="clip061">
    <rect x="480" y="0" width="1681" height="1600"/>
  </clipPath>
</defs>
<path clip-path="url(#clip060)" d="
M156.598 1486.45 L2352.76 1486.45 L2352.76 47.2441 L156.598 47.2441  Z
  " fill="#ffffff" fill-rule="evenodd" fill-opacity="1"/>
<defs>
  <clipPath id="clip062">
    <rect x="156" y="47" width="2197" height="1440"/>
  </clipPath>
</defs>
<polyline clip-path="url(#clip062)" style="stroke:#000000; stroke-linecap:butt; stroke-linejoin:round; stroke-width:2; stroke-opacity:0.1; fill:none" points="
  360.363,1486.45 360.363,47.2441 
  "/>
<polyline clip-path="url(#clip062)" style="stroke:#000000; stroke-linecap:butt; stroke-linejoin:round; stroke-width:2; stroke-opacity:0.1; fill:none" points="
  663.074,1486.45 663.074,47.2441 
  "/>
<polyline clip-path="url(#clip062)" style="stroke:#000000; stroke-linecap:butt; stroke-linejoin:round; stroke-width:2; stroke-opacity:0.1; fill:none" points="
  965.784,1486.45 965.784,47.2441 
  "/>
<polyline clip-path="url(#clip062)" style="stroke:#000000; stroke-linecap:butt; stroke-linejoin:round; stroke-width:2; stroke-opacity:0.1; fill:none" points="
  1268.49,1486.45 1268.49,47.2441 
  "/>
<polyline clip-path="url(#clip062)" style="stroke:#000000; stroke-linecap:butt; stroke-linejoin:round; stroke-width:2; stroke-opacity:0.1; fill:none" points="
  1571.2,1486.45 1571.2,47.2441 
  "/>
<polyline clip-path="url(#clip062)" style="stroke:#000000; stroke-linecap:butt; stroke-linejoin:round; stroke-width:2; stroke-opacity:0.1; fill:none" points="
  1873.92,1486.45 1873.92,47.2441 
  "/>
<polyline clip-path="url(#clip062)" style="stroke:#000000; stroke-linecap:butt; stroke-linejoin:round; stroke-width:2; stroke-opacity:0.1; fill:none" points="
  2176.63,1486.45 2176.63,47.2441 
  "/>
<polyline clip-path="url(#clip060)" style="stroke:#000000; stroke-linecap:butt; stroke-linejoin:round; stroke-width:4; stroke-opacity:1; fill:none" points="
  156.598,1486.45 2352.76,1486.45 
  "/>
<polyline clip-path="url(#clip060)" style="stroke:#000000; stroke-linecap:butt; stroke-linejoin:round; stroke-width:4; stroke-opacity:1; fill:none" points="
  360.363,1486.45 360.363,1467.55 
  "/>
<polyline clip-path="url(#clip060)" style="stroke:#000000; stroke-linecap:butt; stroke-linejoin:round; stroke-width:4; stroke-opacity:1; fill:none" points="
  663.074,1486.45 663.074,1467.55 
  "/>
<polyline clip-path="url(#clip060)" style="stroke:#000000; stroke-linecap:butt; stroke-linejoin:round; stroke-width:4; stroke-opacity:1; fill:none" points="
  965.784,1486.45 965.784,1467.55 
  "/>
<polyline clip-path="url(#clip060)" style="stroke:#000000; stroke-linecap:butt; stroke-linejoin:round; stroke-width:4; stroke-opacity:1; fill:none" points="
  1268.49,1486.45 1268.49,1467.55 
  "/>
<polyline clip-path="url(#clip060)" style="stroke:#000000; stroke-linecap:butt; stroke-linejoin:round; stroke-width:4; stroke-opacity:1; fill:none" points="
  1571.2,1486.45 1571.2,1467.55 
  "/>
<polyline clip-path="url(#clip060)" style="stroke:#000000; stroke-linecap:butt; stroke-linejoin:round; stroke-width:4; stroke-opacity:1; fill:none" points="
  1873.92,1486.45 1873.92,1467.55 
  "/>
<polyline clip-path="url(#clip060)" style="stroke:#000000; stroke-linecap:butt; stroke-linejoin:round; stroke-width:4; stroke-opacity:1; fill:none" points="
  2176.63,1486.45 2176.63,1467.55 
  "/>
<path clip-path="url(#clip060)" d="M338.361 1517.37 Q334.75 1517.37 332.921 1520.93 Q331.116 1524.47 331.116 1531.6 Q331.116 1538.71 332.921 1542.27 Q334.75 1545.82 338.361 1545.82 Q341.995 1545.82 343.801 1542.27 Q345.629 1538.71 345.629 1531.6 Q345.629 1524.47 343.801 1520.93 Q341.995 1517.37 338.361 1517.37 M338.361 1513.66 Q344.171 1513.66 347.227 1518.27 Q350.305 1522.85 350.305 1531.6 Q350.305 1540.33 347.227 1544.94 Q344.171 1549.52 338.361 1549.52 Q332.551 1549.52 329.472 1544.94 Q326.417 1540.33 326.417 1531.6 Q326.417 1522.85 329.472 1518.27 Q332.551 1513.66 338.361 1513.66 Z" fill="#000000" fill-rule="evenodd" fill-opacity="1" /><path clip-path="url(#clip060)" d="M358.523 1542.97 L363.407 1542.97 L363.407 1548.85 L358.523 1548.85 L358.523 1542.97 Z" fill="#000000" fill-rule="evenodd" fill-opacity="1" /><path clip-path="url(#clip060)" d="M374.402 1544.91 L382.041 1544.91 L382.041 1518.55 L373.731 1520.21 L373.731 1515.95 L381.995 1514.29 L386.671 1514.29 L386.671 1544.91 L394.31 1544.91 L394.31 1548.85 L374.402 1548.85 L374.402 1544.91 Z" fill="#000000" fill-rule="evenodd" fill-opacity="1" /><path clip-path="url(#clip060)" d="M641.257 1517.37 Q637.645 1517.37 635.817 1520.93 Q634.011 1524.47 634.011 1531.6 Q634.011 1538.71 635.817 1542.27 Q637.645 1545.82 641.257 1545.82 Q644.891 1545.82 646.696 1542.27 Q648.525 1538.71 648.525 1531.6 Q648.525 1524.47 646.696 1520.93 Q644.891 1517.37 641.257 1517.37 M641.257 1513.66 Q647.067 1513.66 650.122 1518.27 Q653.201 1522.85 653.201 1531.6 Q653.201 1540.33 650.122 1544.94 Q647.067 1549.52 641.257 1549.52 Q635.446 1549.52 632.368 1544.94 Q629.312 1540.33 629.312 1531.6 Q629.312 1522.85 632.368 1518.27 Q635.446 1513.66 641.257 1513.66 Z" fill="#000000" fill-rule="evenodd" fill-opacity="1" /><path clip-path="url(#clip060)" d="M661.418 1542.97 L666.303 1542.97 L666.303 1548.85 L661.418 1548.85 L661.418 1542.97 Z" fill="#000000" fill-rule="evenodd" fill-opacity="1" /><path clip-path="url(#clip060)" d="M680.516 1544.91 L696.835 1544.91 L696.835 1548.85 L674.891 1548.85 L674.891 1544.91 Q677.553 1542.16 682.136 1537.53 Q686.742 1532.88 687.923 1531.53 Q690.168 1529.01 691.048 1527.27 Q691.951 1525.51 691.951 1523.82 Q691.951 1521.07 690.006 1519.33 Q688.085 1517.6 684.983 1517.6 Q682.784 1517.6 680.33 1518.36 Q677.9 1519.13 675.122 1520.68 L675.122 1515.95 Q677.946 1514.82 680.4 1514.24 Q682.854 1513.66 684.891 1513.66 Q690.261 1513.66 693.455 1516.35 Q696.65 1519.03 696.65 1523.52 Q696.65 1525.65 695.84 1527.57 Q695.053 1529.47 692.946 1532.07 Q692.367 1532.74 689.266 1535.95 Q686.164 1539.15 680.516 1544.91 Z" fill="#000000" fill-rule="evenodd" fill-opacity="1" /><path clip-path="url(#clip060)" d="M943.492 1517.37 Q939.881 1517.37 938.053 1520.93 Q936.247 1524.47 936.247 1531.6 Q936.247 1538.71 938.053 1542.27 Q939.881 1545.82 943.492 1545.82 Q947.127 1545.82 948.932 1542.27 Q950.761 1538.71 950.761 1531.6 Q950.761 1524.47 948.932 1520.93 Q947.127 1517.37 943.492 1517.37 M943.492 1513.66 Q949.303 1513.66 952.358 1518.27 Q955.437 1522.85 955.437 1531.6 Q955.437 1540.33 952.358 1544.94 Q949.303 1549.52 943.492 1549.52 Q937.682 1549.52 934.604 1544.94 Q931.548 1540.33 931.548 1531.6 Q931.548 1522.85 934.604 1518.27 Q937.682 1513.66 943.492 1513.66 Z" fill="#000000" fill-rule="evenodd" fill-opacity="1" /><path clip-path="url(#clip060)" d="M963.654 1542.97 L968.539 1542.97 L968.539 1548.85 L963.654 1548.85 L963.654 1542.97 Z" fill="#000000" fill-rule="evenodd" fill-opacity="1" /><path clip-path="url(#clip060)" d="M992.89 1530.21 Q996.247 1530.93 998.122 1533.2 Q1000.02 1535.47 1000.02 1538.8 Q1000.02 1543.92 996.501 1546.72 Q992.983 1549.52 986.501 1549.52 Q984.326 1549.52 982.011 1549.08 Q979.719 1548.66 977.265 1547.81 L977.265 1543.29 Q979.21 1544.43 981.525 1545.01 Q983.839 1545.58 986.363 1545.58 Q990.761 1545.58 993.052 1543.85 Q995.367 1542.11 995.367 1538.8 Q995.367 1535.75 993.214 1534.03 Q991.085 1532.3 987.265 1532.3 L983.238 1532.3 L983.238 1528.45 L987.451 1528.45 Q990.9 1528.45 992.728 1527.09 Q994.557 1525.7 994.557 1523.11 Q994.557 1520.45 992.659 1519.03 Q990.784 1517.6 987.265 1517.6 Q985.344 1517.6 983.145 1518.01 Q980.946 1518.43 978.307 1519.31 L978.307 1515.14 Q980.969 1514.4 983.284 1514.03 Q985.622 1513.66 987.682 1513.66 Q993.006 1513.66 996.108 1516.09 Q999.21 1518.5 999.21 1522.62 Q999.21 1525.49 997.566 1527.48 Q995.923 1529.45 992.89 1530.21 Z" fill="#000000" fill-rule="evenodd" fill-opacity="1" /><path clip-path="url(#clip060)" d="M1245.64 1517.37 Q1242.02 1517.37 1240.2 1520.93 Q1238.39 1524.47 1238.39 1531.6 Q1238.39 1538.71 1240.2 1542.27 Q1242.02 1545.82 1245.64 1545.82 Q1249.27 1545.82 1251.08 1542.27 Q1252.9 1538.71 1252.9 1531.6 Q1252.9 1524.47 1251.08 1520.93 Q1249.27 1517.37 1245.64 1517.37 M1245.64 1513.66 Q1251.45 1513.66 1254.5 1518.27 Q1257.58 1522.85 1257.58 1531.6 Q1257.58 1540.33 1254.5 1544.94 Q1251.45 1549.52 1245.64 1549.52 Q1239.83 1549.52 1236.75 1544.94 Q1233.69 1540.33 1233.69 1531.6 Q1233.69 1522.85 1236.75 1518.27 Q1239.83 1513.66 1245.64 1513.66 Z" fill="#000000" fill-rule="evenodd" fill-opacity="1" /><path clip-path="url(#clip060)" d="M1265.8 1542.97 L1270.68 1542.97 L1270.68 1548.85 L1265.8 1548.85 L1265.8 1542.97 Z" fill="#000000" fill-rule="evenodd" fill-opacity="1" /><path clip-path="url(#clip060)" d="M1293.71 1518.36 L1281.91 1536.81 L1293.71 1536.81 L1293.71 1518.36 M1292.49 1514.29 L1298.37 1514.29 L1298.37 1536.81 L1303.3 1536.81 L1303.3 1540.7 L1298.37 1540.7 L1298.37 1548.85 L1293.71 1548.85 L1293.71 1540.7 L1278.11 1540.7 L1278.11 1536.19 L1292.49 1514.29 Z" fill="#000000" fill-rule="evenodd" fill-opacity="1" /><path clip-path="url(#clip060)" d="M1549.09 1517.37 Q1545.48 1517.37 1543.65 1520.93 Q1541.84 1524.47 1541.84 1531.6 Q1541.84 1538.71 1543.65 1542.27 Q1545.48 1545.82 1549.09 1545.82 Q1552.72 1545.82 1554.53 1542.27 Q1556.36 1538.71 1556.36 1531.6 Q1556.36 1524.47 1554.53 1520.93 Q1552.72 1517.37 1549.09 1517.37 M1549.09 1513.66 Q1554.9 1513.66 1557.95 1518.27 Q1561.03 1522.85 1561.03 1531.6 Q1561.03 1540.33 1557.95 1544.94 Q1554.9 1549.52 1549.09 1549.52 Q1543.28 1549.52 1540.2 1544.94 Q1537.14 1540.33 1537.14 1531.6 Q1537.14 1522.85 1540.2 1518.27 Q1543.28 1513.66 1549.09 1513.66 Z" fill="#000000" fill-rule="evenodd" fill-opacity="1" /><path clip-path="url(#clip060)" d="M1569.25 1542.97 L1574.13 1542.97 L1574.13 1548.85 L1569.25 1548.85 L1569.25 1542.97 Z" fill="#000000" fill-rule="evenodd" fill-opacity="1" /><path clip-path="url(#clip060)" d="M1584.36 1514.29 L1602.72 1514.29 L1602.72 1518.22 L1588.65 1518.22 L1588.65 1526.7 Q1589.67 1526.35 1590.68 1526.19 Q1591.7 1526 1592.72 1526 Q1598.51 1526 1601.89 1529.17 Q1605.27 1532.34 1605.27 1537.76 Q1605.27 1543.34 1601.8 1546.44 Q1598.32 1549.52 1592 1549.52 Q1589.83 1549.52 1587.56 1549.15 Q1585.31 1548.78 1582.91 1548.04 L1582.91 1543.34 Q1584.99 1544.47 1587.21 1545.03 Q1589.43 1545.58 1591.91 1545.58 Q1595.92 1545.58 1598.25 1543.48 Q1600.59 1541.37 1600.59 1537.76 Q1600.59 1534.15 1598.25 1532.04 Q1595.92 1529.94 1591.91 1529.94 Q1590.04 1529.94 1588.16 1530.35 Q1586.31 1530.77 1584.36 1531.65 L1584.36 1514.29 Z" fill="#000000" fill-rule="evenodd" fill-opacity="1" /><path clip-path="url(#clip060)" d="M1851.22 1517.37 Q1847.61 1517.37 1845.78 1520.93 Q1843.97 1524.47 1843.97 1531.6 Q1843.97 1538.71 1845.78 1542.27 Q1847.61 1545.82 1851.22 1545.82 Q1854.85 1545.82 1856.66 1542.27 Q1858.49 1538.71 1858.49 1531.6 Q1858.49 1524.47 1856.66 1520.93 Q1854.85 1517.37 1851.22 1517.37 M1851.22 1513.66 Q1857.03 1513.66 1860.08 1518.27 Q1863.16 1522.85 1863.16 1531.6 Q1863.16 1540.33 1860.08 1544.94 Q1857.03 1549.52 1851.22 1549.52 Q1845.41 1549.52 1842.33 1544.94 Q1839.27 1540.33 1839.27 1531.6 Q1839.27 1522.85 1842.33 1518.27 Q1845.41 1513.66 1851.22 1513.66 Z" fill="#000000" fill-rule="evenodd" fill-opacity="1" /><path clip-path="url(#clip060)" d="M1871.38 1542.97 L1876.26 1542.97 L1876.26 1548.85 L1871.38 1548.85 L1871.38 1542.97 Z" fill="#000000" fill-rule="evenodd" fill-opacity="1" /><path clip-path="url(#clip060)" d="M1897.03 1529.7 Q1893.88 1529.7 1892.03 1531.86 Q1890.2 1534.01 1890.2 1537.76 Q1890.2 1541.49 1892.03 1543.66 Q1893.88 1545.82 1897.03 1545.82 Q1900.18 1545.82 1902.01 1543.66 Q1903.86 1541.49 1903.86 1537.76 Q1903.86 1534.01 1902.01 1531.86 Q1900.18 1529.7 1897.03 1529.7 M1906.31 1515.05 L1906.31 1519.31 Q1904.55 1518.48 1902.75 1518.04 Q1900.96 1517.6 1899.2 1517.6 Q1894.57 1517.6 1892.12 1520.72 Q1889.69 1523.85 1889.34 1530.17 Q1890.71 1528.15 1892.77 1527.09 Q1894.83 1526 1897.31 1526 Q1902.51 1526 1905.52 1529.17 Q1908.56 1532.32 1908.56 1537.76 Q1908.56 1543.08 1905.41 1546.3 Q1902.26 1549.52 1897.03 1549.52 Q1891.03 1549.52 1887.86 1544.94 Q1884.69 1540.33 1884.69 1531.6 Q1884.69 1523.41 1888.58 1518.55 Q1892.47 1513.66 1899.02 1513.66 Q1900.78 1513.66 1902.56 1514.01 Q1904.37 1514.36 1906.31 1515.05 Z" fill="#000000" fill-rule="evenodd" fill-opacity="1" /><path clip-path="url(#clip060)" d="M2154.46 1517.37 Q2150.85 1517.37 2149.02 1520.93 Q2147.22 1524.47 2147.22 1531.6 Q2147.22 1538.71 2149.02 1542.27 Q2150.85 1545.82 2154.46 1545.82 Q2158.1 1545.82 2159.9 1542.27 Q2161.73 1538.71 2161.73 1531.6 Q2161.73 1524.47 2159.9 1520.93 Q2158.1 1517.37 2154.46 1517.37 M2154.46 1513.66 Q2160.27 1513.66 2163.33 1518.27 Q2166.41 1522.85 2166.41 1531.6 Q2166.41 1540.33 2163.33 1544.94 Q2160.27 1549.52 2154.46 1549.52 Q2148.65 1549.52 2145.57 1544.94 Q2142.52 1540.33 2142.52 1531.6 Q2142.52 1522.85 2145.57 1518.27 Q2148.65 1513.66 2154.46 1513.66 Z" fill="#000000" fill-rule="evenodd" fill-opacity="1" /><path clip-path="url(#clip060)" d="M2174.62 1542.97 L2179.51 1542.97 L2179.51 1548.85 L2174.62 1548.85 L2174.62 1542.97 Z" fill="#000000" fill-rule="evenodd" fill-opacity="1" /><path clip-path="url(#clip060)" d="M2188.51 1514.29 L2210.73 1514.29 L2210.73 1516.28 L2198.19 1548.85 L2193.3 1548.85 L2205.11 1518.22 L2188.51 1518.22 L2188.51 1514.29 Z" fill="#000000" fill-rule="evenodd" fill-opacity="1" /><polyline clip-path="url(#clip062)" style="stroke:#000000; stroke-linecap:butt; stroke-linejoin:round; stroke-width:2; stroke-opacity:0.1; fill:none" points="
  156.598,1469.8 2352.76,1469.8 
  "/>
<polyline clip-path="url(#clip062)" style="stroke:#000000; stroke-linecap:butt; stroke-linejoin:round; stroke-width:2; stroke-opacity:0.1; fill:none" points="
  156.598,1169.02 2352.76,1169.02 
  "/>
<polyline clip-path="url(#clip062)" style="stroke:#000000; stroke-linecap:butt; stroke-linejoin:round; stroke-width:2; stroke-opacity:0.1; fill:none" points="
  156.598,868.244 2352.76,868.244 
  "/>
<polyline clip-path="url(#clip062)" style="stroke:#000000; stroke-linecap:butt; stroke-linejoin:round; stroke-width:2; stroke-opacity:0.1; fill:none" points="
  156.598,567.464 2352.76,567.464 
  "/>
<polyline clip-path="url(#clip062)" style="stroke:#000000; stroke-linecap:butt; stroke-linejoin:round; stroke-width:2; stroke-opacity:0.1; fill:none" points="
  156.598,266.685 2352.76,266.685 
  "/>
<polyline clip-path="url(#clip060)" style="stroke:#000000; stroke-linecap:butt; stroke-linejoin:round; stroke-width:4; stroke-opacity:1; fill:none" points="
  156.598,1486.45 156.598,47.2441 
  "/>
<polyline clip-path="url(#clip060)" style="stroke:#000000; stroke-linecap:butt; stroke-linejoin:round; stroke-width:4; stroke-opacity:1; fill:none" points="
  156.598,1469.8 175.496,1469.8 
  "/>
<polyline clip-path="url(#clip060)" style="stroke:#000000; stroke-linecap:butt; stroke-linejoin:round; stroke-width:4; stroke-opacity:1; fill:none" points="
  156.598,1169.02 175.496,1169.02 
  "/>
<polyline clip-path="url(#clip060)" style="stroke:#000000; stroke-linecap:butt; stroke-linejoin:round; stroke-width:4; stroke-opacity:1; fill:none" points="
  156.598,868.244 175.496,868.244 
  "/>
<polyline clip-path="url(#clip060)" style="stroke:#000000; stroke-linecap:butt; stroke-linejoin:round; stroke-width:4; stroke-opacity:1; fill:none" points="
  156.598,567.464 175.496,567.464 
  "/>
<polyline clip-path="url(#clip060)" style="stroke:#000000; stroke-linecap:butt; stroke-linejoin:round; stroke-width:4; stroke-opacity:1; fill:none" points="
  156.598,266.685 175.496,266.685 
  "/>
<path clip-path="url(#clip060)" d="M63.4226 1455.6 Q59.8115 1455.6 57.9828 1459.17 Q56.1773 1462.71 56.1773 1469.84 Q56.1773 1476.94 57.9828 1480.51 Q59.8115 1484.05 63.4226 1484.05 Q67.0569 1484.05 68.8624 1480.51 Q70.6911 1476.94 70.6911 1469.84 Q70.6911 1462.71 68.8624 1459.17 Q67.0569 1455.6 63.4226 1455.6 M63.4226 1451.9 Q69.2328 1451.9 72.2883 1456.5 Q75.367 1461.09 75.367 1469.84 Q75.367 1478.56 72.2883 1483.17 Q69.2328 1487.75 63.4226 1487.75 Q57.6125 1487.75 54.5338 1483.17 Q51.4782 1478.56 51.4782 1469.84 Q51.4782 1461.09 54.5338 1456.5 Q57.6125 1451.9 63.4226 1451.9 Z" fill="#000000" fill-rule="evenodd" fill-opacity="1" /><path clip-path="url(#clip060)" d="M83.5845 1481.2 L88.4688 1481.2 L88.4688 1487.08 L83.5845 1487.08 L83.5845 1481.2 Z" fill="#000000" fill-rule="evenodd" fill-opacity="1" /><path clip-path="url(#clip060)" d="M108.654 1455.6 Q105.043 1455.6 103.214 1459.17 Q101.409 1462.71 101.409 1469.84 Q101.409 1476.94 103.214 1480.51 Q105.043 1484.05 108.654 1484.05 Q112.288 1484.05 114.094 1480.51 Q115.922 1476.94 115.922 1469.84 Q115.922 1462.71 114.094 1459.17 Q112.288 1455.6 108.654 1455.6 M108.654 1451.9 Q114.464 1451.9 117.52 1456.5 Q120.598 1461.09 120.598 1469.84 Q120.598 1478.56 117.52 1483.17 Q114.464 1487.75 108.654 1487.75 Q102.844 1487.75 99.765 1483.17 Q96.7095 1478.56 96.7095 1469.84 Q96.7095 1461.09 99.765 1456.5 Q102.844 1451.9 108.654 1451.9 Z" fill="#000000" fill-rule="evenodd" fill-opacity="1" /><path clip-path="url(#clip060)" d="M65.0198 1154.82 Q61.4087 1154.82 59.58 1158.39 Q57.7745 1161.93 57.7745 1169.06 Q57.7745 1176.16 59.58 1179.73 Q61.4087 1183.27 65.0198 1183.27 Q68.6541 1183.27 70.4596 1179.73 Q72.2883 1176.16 72.2883 1169.06 Q72.2883 1161.93 70.4596 1158.39 Q68.6541 1154.82 65.0198 1154.82 M65.0198 1151.12 Q70.83 1151.12 73.8855 1155.72 Q76.9642 1160.31 76.9642 1169.06 Q76.9642 1177.78 73.8855 1182.39 Q70.83 1186.97 65.0198 1186.97 Q59.2097 1186.97 56.131 1182.39 Q53.0754 1177.78 53.0754 1169.06 Q53.0754 1160.31 56.131 1155.72 Q59.2097 1151.12 65.0198 1151.12 Z" fill="#000000" fill-rule="evenodd" fill-opacity="1" /><path clip-path="url(#clip060)" d="M85.1818 1180.42 L90.066 1180.42 L90.066 1186.3 L85.1818 1186.3 L85.1818 1180.42 Z" fill="#000000" fill-rule="evenodd" fill-opacity="1" /><path clip-path="url(#clip060)" d="M104.279 1182.37 L120.598 1182.37 L120.598 1186.3 L98.6539 1186.3 L98.6539 1182.37 Q101.316 1179.61 105.899 1174.98 Q110.506 1170.33 111.686 1168.99 Q113.932 1166.47 114.811 1164.73 Q115.714 1162.97 115.714 1161.28 Q115.714 1158.53 113.77 1156.79 Q111.848 1155.05 108.746 1155.05 Q106.547 1155.05 104.094 1155.82 Q101.663 1156.58 98.8854 1158.13 L98.8854 1153.41 Q101.709 1152.28 104.163 1151.7 Q106.617 1151.12 108.654 1151.12 Q114.024 1151.12 117.219 1153.8 Q120.413 1156.49 120.413 1160.98 Q120.413 1163.11 119.603 1165.03 Q118.816 1166.93 116.709 1169.52 Q116.131 1170.19 113.029 1173.41 Q109.927 1176.6 104.279 1182.37 Z" fill="#000000" fill-rule="evenodd" fill-opacity="1" /><path clip-path="url(#clip060)" d="M62.9365 854.042 Q59.3254 854.042 57.4967 857.607 Q55.6912 861.149 55.6912 868.278 Q55.6912 875.385 57.4967 878.95 Q59.3254 882.491 62.9365 882.491 Q66.5707 882.491 68.3763 878.95 Q70.205 875.385 70.205 868.278 Q70.205 861.149 68.3763 857.607 Q66.5707 854.042 62.9365 854.042 M62.9365 850.339 Q68.7467 850.339 71.8022 854.945 Q74.8809 859.528 74.8809 868.278 Q74.8809 877.005 71.8022 881.612 Q68.7467 886.195 62.9365 886.195 Q57.1264 886.195 54.0477 881.612 Q50.9921 877.005 50.9921 868.278 Q50.9921 859.528 54.0477 854.945 Q57.1264 850.339 62.9365 850.339 Z" fill="#000000" fill-rule="evenodd" fill-opacity="1" /><path clip-path="url(#clip060)" d="M83.0984 879.644 L87.9827 879.644 L87.9827 885.524 L83.0984 885.524 L83.0984 879.644 Z" fill="#000000" fill-rule="evenodd" fill-opacity="1" /><path clip-path="url(#clip060)" d="M111.015 855.038 L99.2095 873.487 L111.015 873.487 L111.015 855.038 M109.788 850.964 L115.668 850.964 L115.668 873.487 L120.598 873.487 L120.598 877.376 L115.668 877.376 L115.668 885.524 L111.015 885.524 L111.015 877.376 L95.4132 877.376 L95.4132 872.862 L109.788 850.964 Z" fill="#000000" fill-rule="evenodd" fill-opacity="1" /><path clip-path="url(#clip060)" d="M63.2606 553.263 Q59.6495 553.263 57.8208 556.828 Q56.0152 560.369 56.0152 567.499 Q56.0152 574.605 57.8208 578.17 Q59.6495 581.712 63.2606 581.712 Q66.8948 581.712 68.7004 578.17 Q70.5291 574.605 70.5291 567.499 Q70.5291 560.369 68.7004 556.828 Q66.8948 553.263 63.2606 553.263 M63.2606 549.559 Q69.0707 549.559 72.1263 554.166 Q75.205 558.749 75.205 567.499 Q75.205 576.226 72.1263 580.832 Q69.0707 585.416 63.2606 585.416 Q57.4504 585.416 54.3717 580.832 Q51.3162 576.226 51.3162 567.499 Q51.3162 558.749 54.3717 554.166 Q57.4504 549.559 63.2606 549.559 Z" fill="#000000" fill-rule="evenodd" fill-opacity="1" /><path clip-path="url(#clip060)" d="M83.4225 578.865 L88.3067 578.865 L88.3067 584.744 L83.4225 584.744 L83.4225 578.865 Z" fill="#000000" fill-rule="evenodd" fill-opacity="1" /><path clip-path="url(#clip060)" d="M109.071 565.601 Q105.922 565.601 104.071 567.754 Q102.242 569.906 102.242 573.656 Q102.242 577.383 104.071 579.559 Q105.922 581.712 109.071 581.712 Q112.219 581.712 114.047 579.559 Q115.899 577.383 115.899 573.656 Q115.899 569.906 114.047 567.754 Q112.219 565.601 109.071 565.601 M118.353 550.948 L118.353 555.207 Q116.594 554.374 114.788 553.934 Q113.006 553.494 111.246 553.494 Q106.617 553.494 104.163 556.619 Q101.733 559.744 101.385 566.064 Q102.751 564.05 104.811 562.985 Q106.871 561.897 109.348 561.897 Q114.557 561.897 117.566 565.068 Q120.598 568.217 120.598 573.656 Q120.598 578.98 117.45 582.198 Q114.302 585.416 109.071 585.416 Q103.075 585.416 99.9039 580.832 Q96.7326 576.226 96.7326 567.499 Q96.7326 559.305 100.621 554.443 Q104.51 549.559 111.061 549.559 Q112.82 549.559 114.603 549.906 Q116.408 550.254 118.353 550.948 Z" fill="#000000" fill-rule="evenodd" fill-opacity="1" /><path clip-path="url(#clip060)" d="M63.5152 252.483 Q59.9041 252.483 58.0754 256.048 Q56.2699 259.59 56.2699 266.719 Q56.2699 273.826 58.0754 277.391 Q59.9041 280.932 63.5152 280.932 Q67.1494 280.932 68.955 277.391 Q70.7837 273.826 70.7837 266.719 Q70.7837 259.59 68.955 256.048 Q67.1494 252.483 63.5152 252.483 M63.5152 248.78 Q69.3254 248.78 72.3809 253.386 Q75.4596 257.97 75.4596 266.719 Q75.4596 275.446 72.3809 280.053 Q69.3254 284.636 63.5152 284.636 Q57.7051 284.636 54.6264 280.053 Q51.5708 275.446 51.5708 266.719 Q51.5708 257.97 54.6264 253.386 Q57.7051 248.78 63.5152 248.78 Z" fill="#000000" fill-rule="evenodd" fill-opacity="1" /><path clip-path="url(#clip060)" d="M83.6771 278.085 L88.5614 278.085 L88.5614 283.965 L83.6771 283.965 L83.6771 278.085 Z" fill="#000000" fill-rule="evenodd" fill-opacity="1" /><path clip-path="url(#clip060)" d="M108.746 267.553 Q105.413 267.553 103.492 269.335 Q101.594 271.118 101.594 274.243 Q101.594 277.368 103.492 279.15 Q105.413 280.932 108.746 280.932 Q112.08 280.932 114.001 279.15 Q115.922 277.344 115.922 274.243 Q115.922 271.118 114.001 269.335 Q112.103 267.553 108.746 267.553 M104.071 265.562 Q101.061 264.821 99.3715 262.761 Q97.7048 260.701 97.7048 257.738 Q97.7048 253.595 100.645 251.187 Q103.608 248.78 108.746 248.78 Q113.908 248.78 116.848 251.187 Q119.788 253.595 119.788 257.738 Q119.788 260.701 118.098 262.761 Q116.432 264.821 113.445 265.562 Q116.825 266.349 118.7 268.641 Q120.598 270.932 120.598 274.243 Q120.598 279.266 117.52 281.951 Q114.464 284.636 108.746 284.636 Q103.029 284.636 99.9502 281.951 Q96.8947 279.266 96.8947 274.243 Q96.8947 270.932 98.7928 268.641 Q100.691 266.349 104.071 265.562 M102.358 258.178 Q102.358 260.863 104.024 262.368 Q105.714 263.872 108.746 263.872 Q111.756 263.872 113.445 262.368 Q115.158 260.863 115.158 258.178 Q115.158 255.493 113.445 253.988 Q111.756 252.483 108.746 252.483 Q105.714 252.483 104.024 253.988 Q102.358 255.493 102.358 258.178 Z" fill="#000000" fill-rule="evenodd" fill-opacity="1" /><polyline clip-path="url(#clip062)" style="stroke:#009af9; stroke-linecap:butt; stroke-linejoin:round; stroke-width:4; stroke-opacity:1; fill:none" points="
  1674.7,1331.81 2039.04,223.928 2290.6,1445.72 243.419,221.357 1537.83,1269.02 1510.41,1242.55 756.388,912.763 218.754,131.128 288.461,87.9763 1113.94,865.622 
  
  "/>
<path clip-path="url(#clip060)" d="
M1987.12 198.898 L2279.55 198.898 L2279.55 95.2176 L1987.12 95.2176  Z
  " fill="#ffffff" fill-rule="evenodd" fill-opacity="1"/>
<polyline clip-path="url(#clip060)" style="stroke:#000000; stroke-linecap:butt; stroke-linejoin:round; stroke-width:4; stroke-opacity:1; fill:none" points="
  1987.12,198.898 2279.55,198.898 2279.55,95.2176 1987.12,95.2176 1987.12,198.898 
  "/>
<polyline clip-path="url(#clip060)" style="stroke:#009af9; stroke-linecap:butt; stroke-linejoin:round; stroke-width:4; stroke-opacity:1; fill:none" points="
  2011.12,147.058 2155.12,147.058 
  "/>
<path clip-path="url(#clip060)" d="M2192.96 166.745 Q2191.16 171.375 2189.44 172.787 Q2187.73 174.199 2184.86 174.199 L2181.46 174.199 L2181.46 170.634 L2183.96 170.634 Q2185.72 170.634 2186.69 169.8 Q2187.66 168.967 2188.84 165.865 L2189.61 163.921 L2179.12 138.412 L2183.63 138.412 L2191.74 158.689 L2199.84 138.412 L2204.35 138.412 L2192.96 166.745 Z" fill="#000000" fill-rule="evenodd" fill-opacity="1" /><path clip-path="url(#clip060)" d="M2211.64 160.402 L2219.28 160.402 L2219.28 134.037 L2210.97 135.703 L2210.97 131.444 L2219.24 129.778 L2223.91 129.778 L2223.91 160.402 L2231.55 160.402 L2231.55 164.338 L2211.64 164.338 L2211.64 160.402 Z" fill="#000000" fill-rule="evenodd" fill-opacity="1" /></svg>
