<?xml version="1.0" encoding="utf-8"?>
<svg xmlns="http://www.w3.org/2000/svg" xmlns:xlink="http://www.w3.org/1999/xlink" width="600" height="400" viewBox="0 0 2400 1600">
<defs>
  <clipPath id="clip020">
    <rect x="0" y="0" width="2400" height="1600"/>
  </clipPath>
</defs>
<path clip-path="url(#clip020)" d="
M0 1600 L2400 1600 L2400 0 L0 0  Z
  " fill="#ffffff" fill-rule="evenodd" fill-opacity="1"/>
<defs>
  <clipPath id="clip021">
    <rect x="480" y="0" width="1681" height="1600"/>
  </clipPath>
</defs>
<path clip-path="url(#clip020)" d="
M156.598 1486.45 L2352.76 1486.45 L2352.76 47.2441 L156.598 47.2441  Z
  " fill="#ffffff" fill-rule="evenodd" fill-opacity="1"/>
<defs>
  <clipPath id="clip022">
    <rect x="156" y="47" width="2197" height="1440"/>
  </clipPath>
</defs>
<polyline clip-path="url(#clip022)" style="stroke:#000000; stroke-linecap:butt; stroke-linejoin:round; stroke-width:2; stroke-opacity:0.1; fill:none" points="
  629.87,1486.45 629.87,47.2441 
  "/>
<polyline clip-path="url(#clip022)" style="stroke:#000000; stroke-linecap:butt; stroke-linejoin:round; stroke-width:2; stroke-opacity:0.1; fill:none" points="
  1122.23,1486.45 1122.23,47.2441 
  "/>
<polyline clip-path="url(#clip022)" style="stroke:#000000; stroke-linecap:butt; stroke-linejoin:round; stroke-width:2; stroke-opacity:0.1; fill:none" points="
  1614.59,1486.45 1614.59,47.2441 
  "/>
<polyline clip-path="url(#clip022)" style="stroke:#000000; stroke-linecap:butt; stroke-linejoin:round; stroke-width:2; stroke-opacity:0.1; fill:none" points="
  2106.95,1486.45 2106.95,47.2441 
  "/>
<polyline clip-path="url(#clip020)" style="stroke:#000000; stroke-linecap:butt; stroke-linejoin:round; stroke-width:4; stroke-opacity:1; fill:none" points="
  156.598,1486.45 2352.76,1486.45 
  "/>
<polyline clip-path="url(#clip020)" style="stroke:#000000; stroke-linecap:butt; stroke-linejoin:round; stroke-width:4; stroke-opacity:1; fill:none" points="
  629.87,1486.45 629.87,1467.55 
  "/>
<polyline clip-path="url(#clip020)" style="stroke:#000000; stroke-linecap:butt; stroke-linejoin:round; stroke-width:4; stroke-opacity:1; fill:none" points="
  1122.23,1486.45 1122.23,1467.55 
  "/>
<polyline clip-path="url(#clip020)" style="stroke:#000000; stroke-linecap:butt; stroke-linejoin:round; stroke-width:4; stroke-opacity:1; fill:none" points="
  1614.59,1486.45 1614.59,1467.55 
  "/>
<polyline clip-path="url(#clip020)" style="stroke:#000000; stroke-linecap:butt; stroke-linejoin:round; stroke-width:4; stroke-opacity:1; fill:none" points="
  2106.95,1486.45 2106.95,1467.55 
  "/>
<path clip-path="url(#clip020)" d="M608.053 1517.37 Q604.442 1517.37 602.613 1520.93 Q600.808 1524.47 600.808 1531.6 Q600.808 1538.71 602.613 1542.27 Q604.442 1545.82 608.053 1545.82 Q611.688 1545.82 613.493 1542.27 Q615.322 1538.71 615.322 1531.6 Q615.322 1524.47 613.493 1520.93 Q611.688 1517.37 608.053 1517.37 M608.053 1513.66 Q613.863 1513.66 616.919 1518.27 Q619.998 1522.85 619.998 1531.6 Q619.998 1540.33 616.919 1544.94 Q613.863 1549.52 608.053 1549.52 Q602.243 1549.52 599.164 1544.94 Q596.109 1540.33 596.109 1531.6 Q596.109 1522.85 599.164 1518.27 Q602.243 1513.66 608.053 1513.66 Z" fill="#000000" fill-rule="evenodd" fill-opacity="1" /><path clip-path="url(#clip020)" d="M628.215 1542.97 L633.099 1542.97 L633.099 1548.85 L628.215 1548.85 L628.215 1542.97 Z" fill="#000000" fill-rule="evenodd" fill-opacity="1" /><path clip-path="url(#clip020)" d="M647.312 1544.91 L663.632 1544.91 L663.632 1548.85 L641.687 1548.85 L641.687 1544.91 Q644.349 1542.16 648.933 1537.53 Q653.539 1532.88 654.72 1531.53 Q656.965 1529.01 657.845 1527.27 Q658.747 1525.51 658.747 1523.82 Q658.747 1521.07 656.803 1519.33 Q654.882 1517.6 651.78 1517.6 Q649.581 1517.6 647.127 1518.36 Q644.697 1519.13 641.919 1520.68 L641.919 1515.95 Q644.743 1514.82 647.197 1514.24 Q649.65 1513.66 651.687 1513.66 Q657.058 1513.66 660.252 1516.35 Q663.446 1519.03 663.446 1523.52 Q663.446 1525.65 662.636 1527.57 Q661.849 1529.47 659.743 1532.07 Q659.164 1532.74 656.062 1535.95 Q652.96 1539.15 647.312 1544.91 Z" fill="#000000" fill-rule="evenodd" fill-opacity="1" /><path clip-path="url(#clip020)" d="M1099.37 1517.37 Q1095.76 1517.37 1093.93 1520.93 Q1092.13 1524.47 1092.13 1531.6 Q1092.13 1538.71 1093.93 1542.27 Q1095.76 1545.82 1099.37 1545.82 Q1103.01 1545.82 1104.81 1542.27 Q1106.64 1538.71 1106.64 1531.6 Q1106.64 1524.47 1104.81 1520.93 Q1103.01 1517.37 1099.37 1517.37 M1099.37 1513.66 Q1105.18 1513.66 1108.24 1518.27 Q1111.32 1522.85 1111.32 1531.6 Q1111.32 1540.33 1108.24 1544.94 Q1105.18 1549.52 1099.37 1549.52 Q1093.56 1549.52 1090.48 1544.94 Q1087.43 1540.33 1087.43 1531.6 Q1087.43 1522.85 1090.48 1518.27 Q1093.56 1513.66 1099.37 1513.66 Z" fill="#000000" fill-rule="evenodd" fill-opacity="1" /><path clip-path="url(#clip020)" d="M1119.53 1542.97 L1124.42 1542.97 L1124.42 1548.85 L1119.53 1548.85 L1119.53 1542.97 Z" fill="#000000" fill-rule="evenodd" fill-opacity="1" /><path clip-path="url(#clip020)" d="M1147.45 1518.36 L1135.65 1536.81 L1147.45 1536.81 L1147.45 1518.36 M1146.22 1514.29 L1152.1 1514.29 L1152.1 1536.81 L1157.03 1536.81 L1157.03 1540.7 L1152.1 1540.7 L1152.1 1548.85 L1147.45 1548.85 L1147.45 1540.7 L1131.85 1540.7 L1131.85 1536.19 L1146.22 1514.29 Z" fill="#000000" fill-rule="evenodd" fill-opacity="1" /><path clip-path="url(#clip020)" d="M1591.89 1517.37 Q1588.28 1517.37 1586.45 1520.93 Q1584.65 1524.47 1584.65 1531.6 Q1584.65 1538.71 1586.45 1542.27 Q1588.28 1545.82 1591.89 1545.82 Q1595.53 1545.82 1597.33 1542.27 Q1599.16 1538.71 1599.16 1531.6 Q1599.16 1524.47 1597.33 1520.93 Q1595.53 1517.37 1591.89 1517.37 M1591.89 1513.66 Q1597.7 1513.66 1600.76 1518.27 Q1603.84 1522.85 1603.84 1531.6 Q1603.84 1540.33 1600.76 1544.94 Q1597.7 1549.52 1591.89 1549.52 Q1586.08 1549.52 1583.01 1544.94 Q1579.95 1540.33 1579.95 1531.6 Q1579.95 1522.85 1583.01 1518.27 Q1586.08 1513.66 1591.89 1513.66 Z" fill="#000000" fill-rule="evenodd" fill-opacity="1" /><path clip-path="url(#clip020)" d="M1612.06 1542.97 L1616.94 1542.97 L1616.94 1548.85 L1612.06 1548.85 L1612.06 1542.97 Z" fill="#000000" fill-rule="evenodd" fill-opacity="1" /><path clip-path="url(#clip020)" d="M1637.7 1529.7 Q1634.56 1529.7 1632.7 1531.86 Q1630.88 1534.01 1630.88 1537.76 Q1630.88 1541.49 1632.7 1543.66 Q1634.56 1545.82 1637.7 1545.82 Q1640.85 1545.82 1642.68 1543.66 Q1644.53 1541.49 1644.53 1537.76 Q1644.53 1534.01 1642.68 1531.86 Q1640.85 1529.7 1637.7 1529.7 M1646.99 1515.05 L1646.99 1519.31 Q1645.23 1518.48 1643.42 1518.04 Q1641.64 1517.6 1639.88 1517.6 Q1635.25 1517.6 1632.8 1520.72 Q1630.37 1523.85 1630.02 1530.17 Q1631.39 1528.15 1633.45 1527.09 Q1635.51 1526 1637.98 1526 Q1643.19 1526 1646.2 1529.17 Q1649.23 1532.32 1649.23 1537.76 Q1649.23 1543.08 1646.08 1546.3 Q1642.94 1549.52 1637.7 1549.52 Q1631.71 1549.52 1628.54 1544.94 Q1625.37 1540.33 1625.37 1531.6 Q1625.37 1523.41 1629.26 1518.55 Q1633.14 1513.66 1639.7 1513.66 Q1641.45 1513.66 1643.24 1514.01 Q1645.04 1514.36 1646.99 1515.05 Z" fill="#000000" fill-rule="evenodd" fill-opacity="1" /><path clip-path="url(#clip020)" d="M2084.38 1517.37 Q2080.77 1517.37 2078.94 1520.93 Q2077.14 1524.47 2077.14 1531.6 Q2077.14 1538.71 2078.94 1542.27 Q2080.77 1545.82 2084.38 1545.82 Q2088.02 1545.82 2089.82 1542.27 Q2091.65 1538.71 2091.65 1531.6 Q2091.65 1524.47 2089.82 1520.93 Q2088.02 1517.37 2084.38 1517.37 M2084.38 1513.66 Q2090.19 1513.66 2093.25 1518.27 Q2096.33 1522.85 2096.33 1531.6 Q2096.33 1540.33 2093.25 1544.94 Q2090.19 1549.52 2084.38 1549.52 Q2078.57 1549.52 2075.49 1544.94 Q2072.44 1540.33 2072.44 1531.6 Q2072.44 1522.85 2075.49 1518.27 Q2078.57 1513.66 2084.38 1513.66 Z" fill="#000000" fill-rule="evenodd" fill-opacity="1" /><path clip-path="url(#clip020)" d="M2104.54 1542.97 L2109.43 1542.97 L2109.43 1548.85 L2104.54 1548.85 L2104.54 1542.97 Z" fill="#000000" fill-rule="evenodd" fill-opacity="1" /><path clip-path="url(#clip020)" d="M2129.61 1532.44 Q2126.28 1532.44 2124.36 1534.22 Q2122.46 1536 2122.46 1539.13 Q2122.46 1542.25 2124.36 1544.03 Q2126.28 1545.82 2129.61 1545.82 Q2132.95 1545.82 2134.87 1544.03 Q2136.79 1542.23 2136.79 1539.13 Q2136.79 1536 2134.87 1534.22 Q2132.97 1532.44 2129.61 1532.44 M2124.94 1530.45 Q2121.93 1529.7 2120.24 1527.64 Q2118.57 1525.58 2118.57 1522.62 Q2118.57 1518.48 2121.51 1516.07 Q2124.48 1513.66 2129.61 1513.66 Q2134.78 1513.66 2137.72 1516.07 Q2140.66 1518.48 2140.66 1522.62 Q2140.66 1525.58 2138.97 1527.64 Q2137.3 1529.7 2134.31 1530.45 Q2137.69 1531.23 2139.57 1533.52 Q2141.47 1535.82 2141.47 1539.13 Q2141.47 1544.15 2138.39 1546.83 Q2135.33 1549.52 2129.61 1549.52 Q2123.9 1549.52 2120.82 1546.83 Q2117.76 1544.15 2117.76 1539.13 Q2117.76 1535.82 2119.66 1533.52 Q2121.56 1531.23 2124.94 1530.45 M2123.23 1523.06 Q2123.23 1525.75 2124.89 1527.25 Q2126.58 1528.76 2129.61 1528.76 Q2132.62 1528.76 2134.31 1527.25 Q2136.03 1525.75 2136.03 1523.06 Q2136.03 1520.38 2134.31 1518.87 Q2132.62 1517.37 2129.61 1517.37 Q2126.58 1517.37 2124.89 1518.87 Q2123.23 1520.38 2123.23 1523.06 Z" fill="#000000" fill-rule="evenodd" fill-opacity="1" /><polyline clip-path="url(#clip022)" style="stroke:#000000; stroke-linecap:butt; stroke-linejoin:round; stroke-width:2; stroke-opacity:0.1; fill:none" points="
  156.598,1193.09 2352.76,1193.09 
  "/>
<polyline clip-path="url(#clip022)" style="stroke:#000000; stroke-linecap:butt; stroke-linejoin:round; stroke-width:2; stroke-opacity:0.1; fill:none" points="
  156.598,857.277 2352.76,857.277 
  "/>
<polyline clip-path="url(#clip022)" style="stroke:#000000; stroke-linecap:butt; stroke-linejoin:round; stroke-width:2; stroke-opacity:0.1; fill:none" points="
  156.598,521.467 2352.76,521.467 
  "/>
<polyline clip-path="url(#clip022)" style="stroke:#000000; stroke-linecap:butt; stroke-linejoin:round; stroke-width:2; stroke-opacity:0.1; fill:none" points="
  156.598,185.657 2352.76,185.657 
  "/>
<polyline clip-path="url(#clip020)" style="stroke:#000000; stroke-linecap:butt; stroke-linejoin:round; stroke-width:4; stroke-opacity:1; fill:none" points="
  156.598,1486.45 156.598,47.2441 
  "/>
<polyline clip-path="url(#clip020)" style="stroke:#000000; stroke-linecap:butt; stroke-linejoin:round; stroke-width:4; stroke-opacity:1; fill:none" points="
  156.598,1193.09 175.496,1193.09 
  "/>
<polyline clip-path="url(#clip020)" style="stroke:#000000; stroke-linecap:butt; stroke-linejoin:round; stroke-width:4; stroke-opacity:1; fill:none" points="
  156.598,857.277 175.496,857.277 
  "/>
<polyline clip-path="url(#clip020)" style="stroke:#000000; stroke-linecap:butt; stroke-linejoin:round; stroke-width:4; stroke-opacity:1; fill:none" points="
  156.598,521.467 175.496,521.467 
  "/>
<polyline clip-path="url(#clip020)" style="stroke:#000000; stroke-linecap:butt; stroke-linejoin:round; stroke-width:4; stroke-opacity:1; fill:none" points="
  156.598,185.657 175.496,185.657 
  "/>
<path clip-path="url(#clip020)" d="M65.0198 1178.89 Q61.4087 1178.89 59.58 1182.45 Q57.7745 1185.99 57.7745 1193.12 Q57.7745 1200.23 59.58 1203.79 Q61.4087 1207.33 65.0198 1207.33 Q68.6541 1207.33 70.4596 1203.79 Q72.2883 1200.23 72.2883 1193.12 Q72.2883 1185.99 70.4596 1182.45 Q68.6541 1178.89 65.0198 1178.89 M65.0198 1175.18 Q70.83 1175.18 73.8855 1179.79 Q76.9642 1184.37 76.9642 1193.12 Q76.9642 1201.85 73.8855 1206.45 Q70.83 1211.04 65.0198 1211.04 Q59.2097 1211.04 56.131 1206.45 Q53.0754 1201.85 53.0754 1193.12 Q53.0754 1184.37 56.131 1179.79 Q59.2097 1175.18 65.0198 1175.18 Z" fill="#000000" fill-rule="evenodd" fill-opacity="1" /><path clip-path="url(#clip020)" d="M85.1818 1204.49 L90.066 1204.49 L90.066 1210.37 L85.1818 1210.37 L85.1818 1204.49 Z" fill="#000000" fill-rule="evenodd" fill-opacity="1" /><path clip-path="url(#clip020)" d="M104.279 1206.43 L120.598 1206.43 L120.598 1210.37 L98.6539 1210.37 L98.6539 1206.43 Q101.316 1203.68 105.899 1199.05 Q110.506 1194.39 111.686 1193.05 Q113.932 1190.53 114.811 1188.79 Q115.714 1187.03 115.714 1185.34 Q115.714 1182.59 113.77 1180.85 Q111.848 1179.12 108.746 1179.12 Q106.547 1179.12 104.094 1179.88 Q101.663 1180.64 98.8854 1182.2 L98.8854 1177.47 Q101.709 1176.34 104.163 1175.76 Q106.617 1175.18 108.654 1175.18 Q114.024 1175.18 117.219 1177.87 Q120.413 1180.55 120.413 1185.04 Q120.413 1187.17 119.603 1189.09 Q118.816 1190.99 116.709 1193.58 Q116.131 1194.26 113.029 1197.47 Q109.927 1200.67 104.279 1206.43 Z" fill="#000000" fill-rule="evenodd" fill-opacity="1" /><path clip-path="url(#clip020)" d="M62.9365 843.075 Q59.3254 843.075 57.4967 846.64 Q55.6912 850.182 55.6912 857.311 Q55.6912 864.418 57.4967 867.983 Q59.3254 871.524 62.9365 871.524 Q66.5707 871.524 68.3763 867.983 Q70.205 864.418 70.205 857.311 Q70.205 850.182 68.3763 846.64 Q66.5707 843.075 62.9365 843.075 M62.9365 839.372 Q68.7467 839.372 71.8022 843.978 Q74.8809 848.561 74.8809 857.311 Q74.8809 866.038 71.8022 870.645 Q68.7467 875.228 62.9365 875.228 Q57.1264 875.228 54.0477 870.645 Q50.9921 866.038 50.9921 857.311 Q50.9921 848.561 54.0477 843.978 Q57.1264 839.372 62.9365 839.372 Z" fill="#000000" fill-rule="evenodd" fill-opacity="1" /><path clip-path="url(#clip020)" d="M83.0984 868.677 L87.9827 868.677 L87.9827 874.557 L83.0984 874.557 L83.0984 868.677 Z" fill="#000000" fill-rule="evenodd" fill-opacity="1" /><path clip-path="url(#clip020)" d="M111.015 844.071 L99.2095 862.52 L111.015 862.52 L111.015 844.071 M109.788 839.997 L115.668 839.997 L115.668 862.52 L120.598 862.52 L120.598 866.409 L115.668 866.409 L115.668 874.557 L111.015 874.557 L111.015 866.409 L95.4132 866.409 L95.4132 861.895 L109.788 839.997 Z" fill="#000000" fill-rule="evenodd" fill-opacity="1" /><path clip-path="url(#clip020)" d="M63.2606 507.265 Q59.6495 507.265 57.8208 510.83 Q56.0152 514.372 56.0152 521.501 Q56.0152 528.608 57.8208 532.173 Q59.6495 535.714 63.2606 535.714 Q66.8948 535.714 68.7004 532.173 Q70.5291 528.608 70.5291 521.501 Q70.5291 514.372 68.7004 510.83 Q66.8948 507.265 63.2606 507.265 M63.2606 503.562 Q69.0707 503.562 72.1263 508.168 Q75.205 512.752 75.205 521.501 Q75.205 530.228 72.1263 534.835 Q69.0707 539.418 63.2606 539.418 Q57.4504 539.418 54.3717 534.835 Q51.3162 530.228 51.3162 521.501 Q51.3162 512.752 54.3717 508.168 Q57.4504 503.562 63.2606 503.562 Z" fill="#000000" fill-rule="evenodd" fill-opacity="1" /><path clip-path="url(#clip020)" d="M83.4225 532.867 L88.3067 532.867 L88.3067 538.747 L83.4225 538.747 L83.4225 532.867 Z" fill="#000000" fill-rule="evenodd" fill-opacity="1" /><path clip-path="url(#clip020)" d="M109.071 519.603 Q105.922 519.603 104.071 521.756 Q102.242 523.909 102.242 527.659 Q102.242 531.386 104.071 533.562 Q105.922 535.714 109.071 535.714 Q112.219 535.714 114.047 533.562 Q115.899 531.386 115.899 527.659 Q115.899 523.909 114.047 521.756 Q112.219 519.603 109.071 519.603 M118.353 504.951 L118.353 509.21 Q116.594 508.377 114.788 507.937 Q113.006 507.497 111.246 507.497 Q106.617 507.497 104.163 510.622 Q101.733 513.747 101.385 520.066 Q102.751 518.052 104.811 516.988 Q106.871 515.9 109.348 515.9 Q114.557 515.9 117.566 519.071 Q120.598 522.219 120.598 527.659 Q120.598 532.983 117.45 536.2 Q114.302 539.418 109.071 539.418 Q103.075 539.418 99.9039 534.835 Q96.7326 530.228 96.7326 521.501 Q96.7326 513.307 100.621 508.446 Q104.51 503.562 111.061 503.562 Q112.82 503.562 114.603 503.909 Q116.408 504.256 118.353 504.951 Z" fill="#000000" fill-rule="evenodd" fill-opacity="1" /><path clip-path="url(#clip020)" d="M63.5152 171.456 Q59.9041 171.456 58.0754 175.02 Q56.2699 178.562 56.2699 185.692 Q56.2699 192.798 58.0754 196.363 Q59.9041 199.904 63.5152 199.904 Q67.1494 199.904 68.955 196.363 Q70.7837 192.798 70.7837 185.692 Q70.7837 178.562 68.955 175.02 Q67.1494 171.456 63.5152 171.456 M63.5152 167.752 Q69.3254 167.752 72.3809 172.358 Q75.4596 176.942 75.4596 185.692 Q75.4596 194.418 72.3809 199.025 Q69.3254 203.608 63.5152 203.608 Q57.7051 203.608 54.6264 199.025 Q51.5708 194.418 51.5708 185.692 Q51.5708 176.942 54.6264 172.358 Q57.7051 167.752 63.5152 167.752 Z" fill="#000000" fill-rule="evenodd" fill-opacity="1" /><path clip-path="url(#clip020)" d="M83.6771 197.057 L88.5614 197.057 L88.5614 202.937 L83.6771 202.937 L83.6771 197.057 Z" fill="#000000" fill-rule="evenodd" fill-opacity="1" /><path clip-path="url(#clip020)" d="M108.746 186.525 Q105.413 186.525 103.492 188.307 Q101.594 190.09 101.594 193.215 Q101.594 196.34 103.492 198.122 Q105.413 199.904 108.746 199.904 Q112.08 199.904 114.001 198.122 Q115.922 196.317 115.922 193.215 Q115.922 190.09 114.001 188.307 Q112.103 186.525 108.746 186.525 M104.071 184.534 Q101.061 183.793 99.3715 181.733 Q97.7048 179.673 97.7048 176.71 Q97.7048 172.567 100.645 170.159 Q103.608 167.752 108.746 167.752 Q113.908 167.752 116.848 170.159 Q119.788 172.567 119.788 176.71 Q119.788 179.673 118.098 181.733 Q116.432 183.793 113.445 184.534 Q116.825 185.321 118.7 187.613 Q120.598 189.905 120.598 193.215 Q120.598 198.238 117.52 200.923 Q114.464 203.608 108.746 203.608 Q103.029 203.608 99.9502 200.923 Q96.8947 198.238 96.8947 193.215 Q96.8947 189.905 98.7928 187.613 Q100.691 185.321 104.071 184.534 M102.358 177.15 Q102.358 179.835 104.024 181.34 Q105.714 182.844 108.746 182.844 Q111.756 182.844 113.445 181.34 Q115.158 179.835 115.158 177.15 Q115.158 174.465 113.445 172.96 Q111.756 171.456 108.746 171.456 Q105.714 171.456 104.024 172.96 Q102.358 174.465 102.358 177.15 Z" fill="#000000" fill-rule="evenodd" fill-opacity="1" /><polyline clip-path="url(#clip022)" style="stroke:#009af9; stroke-linecap:butt; stroke-linejoin:round; stroke-width:4; stroke-opacity:1; fill:none" points="
  930.116,355.983 1058.45,519.969 2242.24,87.9763 1558.72,991.628 1234.12,752.86 2290.6,1425.77 257.204,1010.75 218.754,1423.09 1262.42,1445.72 1431.48,918.098 
  
  "/>
<path clip-path="url(#clip020)" d="
M1987.12 198.898 L2279.55 198.898 L2279.55 95.2176 L1987.12 95.2176  Z
  " fill="#ffffff" fill-rule="evenodd" fill-opacity="1"/>
<polyline clip-path="url(#clip020)" style="stroke:#000000; stroke-linecap:butt; stroke-linejoin:round; stroke-width:4; stroke-opacity:1; fill:none" points="
  1987.12,198.898 2279.55,198.898 2279.55,95.2176 1987.12,95.2176 1987.12,198.898 
  "/>
<polyline clip-path="url(#clip020)" style="stroke:#009af9; stroke-linecap:butt; stroke-linejoin:round; stroke-width:4; stroke-opacity:1; fill:none" points="
  2011.12,147.058 2155.12,147.058 
  "/>
<path clip-path="url(#clip020)" d="M2192.96 166.745 Q2191.16 171.375 2189.44 172.787 Q2187.73 174.199 2184.86 174.199 L2181.46 174.199 L2181.46 170.634 L2183.96 170.634 Q2185.72 170.634 2186.69 169.8 Q2187.66 168.967 2188.84 165.865 L2189.61 163.921 L2179.12 138.412 L2183.63 138.412 L2191.74 158.689 L2199.84 138.412 L2204.35 138.412 L2192.96 166.745 Z" fill="#000000" fill-rule="evenodd" fill-opacity="1" /><path clip-path="url(#clip020)" d="M2211.64 160.402 L2219.28 160.402 L2219.28 134.037 L2210.97 135.703 L2210.97 131.444 L2219.24 129.778 L2223.91 129.778 L2223.91 160.402 L2231.55 160.402 L2231.55 164.338 L2211.64 164.338 L2211.64 160.402 Z" fill="#000000" fill-rule="evenodd" fill-opacity="1" /></svg>
