<?xml version="1.0" encoding="utf-8"?>
<svg xmlns="http://www.w3.org/2000/svg" xmlns:xlink="http://www.w3.org/1999/xlink" width="600" height="400" viewBox="0 0 2400 1600">
<defs>
  <clipPath id="clip920">
    <rect x="0" y="0" width="2400" height="1600"/>
  </clipPath>
</defs>
<path clip-path="url(#clip920)" d="
M0 1600 L2400 1600 L2400 0 L0 0  Z
  " fill="#ffffff" fill-rule="evenodd" fill-opacity="1"/>
<defs>
  <clipPath id="clip921">
    <rect x="480" y="0" width="1681" height="1600"/>
  </clipPath>
</defs>
<path clip-path="url(#clip920)" d="
M156.598 1486.45 L2352.76 1486.45 L2352.76 47.2441 L156.598 47.2441  Z
  " fill="#ffffff" fill-rule="evenodd" fill-opacity="1"/>
<defs>
  <clipPath id="clip922">
    <rect x="156" y="47" width="2197" height="1440"/>
  </clipPath>
</defs>
<polyline clip-path="url(#clip922)" style="stroke:#000000; stroke-linecap:butt; stroke-linejoin:round; stroke-width:2; stroke-opacity:0.1; fill:none" points="
  505.809,1486.45 505.809,47.2441 
  "/>
<polyline clip-path="url(#clip922)" style="stroke:#000000; stroke-linecap:butt; stroke-linejoin:round; stroke-width:2; stroke-opacity:0.1; fill:none" points="
  985.031,1486.45 985.031,47.2441 
  "/>
<polyline clip-path="url(#clip922)" style="stroke:#000000; stroke-linecap:butt; stroke-linejoin:round; stroke-width:2; stroke-opacity:0.1; fill:none" points="
  1464.25,1486.45 1464.25,47.2441 
  "/>
<polyline clip-path="url(#clip922)" style="stroke:#000000; stroke-linecap:butt; stroke-linejoin:round; stroke-width:2; stroke-opacity:0.1; fill:none" points="
  1943.48,1486.45 1943.48,47.2441 
  "/>
<polyline clip-path="url(#clip920)" style="stroke:#000000; stroke-linecap:butt; stroke-linejoin:round; stroke-width:4; stroke-opacity:1; fill:none" points="
  156.598,1486.45 2352.76,1486.45 
  "/>
<polyline clip-path="url(#clip920)" style="stroke:#000000; stroke-linecap:butt; stroke-linejoin:round; stroke-width:4; stroke-opacity:1; fill:none" points="
  505.809,1486.45 505.809,1467.55 
  "/>
<polyline clip-path="url(#clip920)" style="stroke:#000000; stroke-linecap:butt; stroke-linejoin:round; stroke-width:4; stroke-opacity:1; fill:none" points="
  985.031,1486.45 985.031,1467.55 
  "/>
<polyline clip-path="url(#clip920)" style="stroke:#000000; stroke-linecap:butt; stroke-linejoin:round; stroke-width:4; stroke-opacity:1; fill:none" points="
  1464.25,1486.45 1464.25,1467.55 
  "/>
<polyline clip-path="url(#clip920)" style="stroke:#000000; stroke-linecap:butt; stroke-linejoin:round; stroke-width:4; stroke-opacity:1; fill:none" points="
  1943.48,1486.45 1943.48,1467.55 
  "/>
<path clip-path="url(#clip920)" d="M483.992 1517.37 Q480.38 1517.37 478.552 1520.93 Q476.746 1524.47 476.746 1531.6 Q476.746 1538.71 478.552 1542.27 Q480.38 1545.82 483.992 1545.82 Q487.626 1545.82 489.431 1542.27 Q491.26 1538.71 491.26 1531.6 Q491.26 1524.47 489.431 1520.93 Q487.626 1517.37 483.992 1517.37 M483.992 1513.66 Q489.802 1513.66 492.857 1518.27 Q495.936 1522.85 495.936 1531.6 Q495.936 1540.33 492.857 1544.94 Q489.802 1549.52 483.992 1549.52 Q478.181 1549.52 475.103 1544.94 Q472.047 1540.33 472.047 1531.6 Q472.047 1522.85 475.103 1518.27 Q478.181 1513.66 483.992 1513.66 Z" fill="#000000" fill-rule="evenodd" fill-opacity="1" /><path clip-path="url(#clip920)" d="M504.153 1542.97 L509.038 1542.97 L509.038 1548.85 L504.153 1548.85 L504.153 1542.97 Z" fill="#000000" fill-rule="evenodd" fill-opacity="1" /><path clip-path="url(#clip920)" d="M523.251 1544.91 L539.57 1544.91 L539.57 1548.85 L517.626 1548.85 L517.626 1544.91 Q520.288 1542.16 524.871 1537.53 Q529.477 1532.88 530.658 1531.53 Q532.903 1529.01 533.783 1527.27 Q534.686 1525.51 534.686 1523.82 Q534.686 1521.07 532.741 1519.33 Q530.82 1517.6 527.718 1517.6 Q525.519 1517.6 523.065 1518.36 Q520.635 1519.13 517.857 1520.68 L517.857 1515.95 Q520.681 1514.82 523.135 1514.24 Q525.589 1513.66 527.626 1513.66 Q532.996 1513.66 536.19 1516.35 Q539.385 1519.03 539.385 1523.52 Q539.385 1525.65 538.575 1527.57 Q537.788 1529.47 535.681 1532.07 Q535.102 1532.74 532.001 1535.95 Q528.899 1539.15 523.251 1544.91 Z" fill="#000000" fill-rule="evenodd" fill-opacity="1" /><path clip-path="url(#clip920)" d="M962.172 1517.37 Q958.561 1517.37 956.732 1520.93 Q954.927 1524.47 954.927 1531.6 Q954.927 1538.71 956.732 1542.27 Q958.561 1545.82 962.172 1545.82 Q965.806 1545.82 967.612 1542.27 Q969.441 1538.71 969.441 1531.6 Q969.441 1524.47 967.612 1520.93 Q965.806 1517.37 962.172 1517.37 M962.172 1513.66 Q967.982 1513.66 971.038 1518.27 Q974.116 1522.85 974.116 1531.6 Q974.116 1540.33 971.038 1544.94 Q967.982 1549.52 962.172 1549.52 Q956.362 1549.52 953.283 1544.94 Q950.228 1540.33 950.228 1531.6 Q950.228 1522.85 953.283 1518.27 Q956.362 1513.66 962.172 1513.66 Z" fill="#000000" fill-rule="evenodd" fill-opacity="1" /><path clip-path="url(#clip920)" d="M982.334 1542.97 L987.218 1542.97 L987.218 1548.85 L982.334 1548.85 L982.334 1542.97 Z" fill="#000000" fill-rule="evenodd" fill-opacity="1" /><path clip-path="url(#clip920)" d="M1010.25 1518.36 L998.445 1536.81 L1010.25 1536.81 L1010.25 1518.36 M1009.02 1514.29 L1014.9 1514.29 L1014.9 1536.81 L1019.83 1536.81 L1019.83 1540.7 L1014.9 1540.7 L1014.9 1548.85 L1010.25 1548.85 L1010.25 1540.7 L994.649 1540.7 L994.649 1536.19 L1009.02 1514.29 Z" fill="#000000" fill-rule="evenodd" fill-opacity="1" /><path clip-path="url(#clip920)" d="M1441.56 1517.37 Q1437.95 1517.37 1436.12 1520.93 Q1434.31 1524.47 1434.31 1531.6 Q1434.31 1538.71 1436.12 1542.27 Q1437.95 1545.82 1441.56 1545.82 Q1445.19 1545.82 1447 1542.27 Q1448.82 1538.71 1448.82 1531.6 Q1448.82 1524.47 1447 1520.93 Q1445.19 1517.37 1441.56 1517.37 M1441.56 1513.66 Q1447.37 1513.66 1450.42 1518.27 Q1453.5 1522.85 1453.5 1531.6 Q1453.5 1540.33 1450.42 1544.94 Q1447.37 1549.52 1441.56 1549.52 Q1435.75 1549.52 1432.67 1544.94 Q1429.61 1540.33 1429.61 1531.6 Q1429.61 1522.85 1432.67 1518.27 Q1435.75 1513.66 1441.56 1513.66 Z" fill="#000000" fill-rule="evenodd" fill-opacity="1" /><path clip-path="url(#clip920)" d="M1461.72 1542.97 L1466.6 1542.97 L1466.6 1548.85 L1461.72 1548.85 L1461.72 1542.97 Z" fill="#000000" fill-rule="evenodd" fill-opacity="1" /><path clip-path="url(#clip920)" d="M1487.37 1529.7 Q1484.22 1529.7 1482.37 1531.86 Q1480.54 1534.01 1480.54 1537.76 Q1480.54 1541.49 1482.37 1543.66 Q1484.22 1545.82 1487.37 1545.82 Q1490.51 1545.82 1492.34 1543.66 Q1494.19 1541.49 1494.19 1537.76 Q1494.19 1534.01 1492.34 1531.86 Q1490.51 1529.7 1487.37 1529.7 M1496.65 1515.05 L1496.65 1519.31 Q1494.89 1518.48 1493.08 1518.04 Q1491.3 1517.6 1489.54 1517.6 Q1484.91 1517.6 1482.46 1520.72 Q1480.03 1523.85 1479.68 1530.17 Q1481.05 1528.15 1483.11 1527.09 Q1485.17 1526 1487.64 1526 Q1492.85 1526 1495.86 1529.17 Q1498.89 1532.32 1498.89 1537.76 Q1498.89 1543.08 1495.75 1546.3 Q1492.6 1549.52 1487.37 1549.52 Q1481.37 1549.52 1478.2 1544.94 Q1475.03 1540.33 1475.03 1531.6 Q1475.03 1523.41 1478.92 1518.55 Q1482.81 1513.66 1489.36 1513.66 Q1491.12 1513.66 1492.9 1514.01 Q1494.7 1514.36 1496.65 1515.05 Z" fill="#000000" fill-rule="evenodd" fill-opacity="1" /><path clip-path="url(#clip920)" d="M1920.91 1517.37 Q1917.29 1517.37 1915.47 1520.93 Q1913.66 1524.47 1913.66 1531.6 Q1913.66 1538.71 1915.47 1542.27 Q1917.29 1545.82 1920.91 1545.82 Q1924.54 1545.82 1926.35 1542.27 Q1928.17 1538.71 1928.17 1531.6 Q1928.17 1524.47 1926.35 1520.93 Q1924.54 1517.37 1920.91 1517.37 M1920.91 1513.66 Q1926.72 1513.66 1929.77 1518.27 Q1932.85 1522.85 1932.85 1531.6 Q1932.85 1540.33 1929.77 1544.94 Q1926.72 1549.52 1920.91 1549.52 Q1915.1 1549.52 1912.02 1544.94 Q1908.96 1540.33 1908.96 1531.6 Q1908.96 1522.85 1912.02 1518.27 Q1915.1 1513.66 1920.91 1513.66 Z" fill="#000000" fill-rule="evenodd" fill-opacity="1" /><path clip-path="url(#clip920)" d="M1941.07 1542.97 L1945.95 1542.97 L1945.95 1548.85 L1941.07 1548.85 L1941.07 1542.97 Z" fill="#000000" fill-rule="evenodd" fill-opacity="1" /><path clip-path="url(#clip920)" d="M1966.14 1532.44 Q1962.8 1532.44 1960.88 1534.22 Q1958.98 1536 1958.98 1539.13 Q1958.98 1542.25 1960.88 1544.03 Q1962.8 1545.82 1966.14 1545.82 Q1969.47 1545.82 1971.39 1544.03 Q1973.31 1542.23 1973.31 1539.13 Q1973.31 1536 1971.39 1534.22 Q1969.49 1532.44 1966.14 1532.44 M1961.46 1530.45 Q1958.45 1529.7 1956.76 1527.64 Q1955.1 1525.58 1955.1 1522.62 Q1955.1 1518.48 1958.04 1516.07 Q1961 1513.66 1966.14 1513.66 Q1971.3 1513.66 1974.24 1516.07 Q1977.18 1518.48 1977.18 1522.62 Q1977.18 1525.58 1975.49 1527.64 Q1973.82 1529.7 1970.84 1530.45 Q1974.22 1531.23 1976.09 1533.52 Q1977.99 1535.82 1977.99 1539.13 Q1977.99 1544.15 1974.91 1546.83 Q1971.85 1549.52 1966.14 1549.52 Q1960.42 1549.52 1957.34 1546.83 Q1954.29 1544.15 1954.29 1539.13 Q1954.29 1535.82 1956.18 1533.52 Q1958.08 1531.23 1961.46 1530.45 M1959.75 1523.06 Q1959.75 1525.75 1961.41 1527.25 Q1963.1 1528.76 1966.14 1528.76 Q1969.15 1528.76 1970.84 1527.25 Q1972.55 1525.75 1972.55 1523.06 Q1972.55 1520.38 1970.84 1518.87 Q1969.15 1517.37 1966.14 1517.37 Q1963.1 1517.37 1961.41 1518.87 Q1959.75 1520.38 1959.75 1523.06 Z" fill="#000000" fill-rule="evenodd" fill-opacity="1" /><polyline clip-path="url(#clip922)" style="stroke:#000000; stroke-linecap:butt; stroke-linejoin:round; stroke-width:2; stroke-opacity:0.1; fill:none" points="
  156.598,1260.63 2352.76,1260.63 
  "/>
<polyline clip-path="url(#clip922)" style="stroke:#000000; stroke-linecap:butt; stroke-linejoin:round; stroke-width:2; stroke-opacity:0.1; fill:none" points="
  156.598,941.911 2352.76,941.911 
  "/>
<polyline clip-path="url(#clip922)" style="stroke:#000000; stroke-linecap:butt; stroke-linejoin:round; stroke-width:2; stroke-opacity:0.1; fill:none" points="
  156.598,623.189 2352.76,623.189 
  "/>
<polyline clip-path="url(#clip922)" style="stroke:#000000; stroke-linecap:butt; stroke-linejoin:round; stroke-width:2; stroke-opacity:0.1; fill:none" points="
  156.598,304.468 2352.76,304.468 
  "/>
<polyline clip-path="url(#clip920)" style="stroke:#000000; stroke-linecap:butt; stroke-linejoin:round; stroke-width:4; stroke-opacity:1; fill:none" points="
  156.598,1486.45 156.598,47.2441 
  "/>
<polyline clip-path="url(#clip920)" style="stroke:#000000; stroke-linecap:butt; stroke-linejoin:round; stroke-width:4; stroke-opacity:1; fill:none" points="
  156.598,1260.63 175.496,1260.63 
  "/>
<polyline clip-path="url(#clip920)" style="stroke:#000000; stroke-linecap:butt; stroke-linejoin:round; stroke-width:4; stroke-opacity:1; fill:none" points="
  156.598,941.911 175.496,941.911 
  "/>
<polyline clip-path="url(#clip920)" style="stroke:#000000; stroke-linecap:butt; stroke-linejoin:round; stroke-width:4; stroke-opacity:1; fill:none" points="
  156.598,623.189 175.496,623.189 
  "/>
<polyline clip-path="url(#clip920)" style="stroke:#000000; stroke-linecap:butt; stroke-linejoin:round; stroke-width:4; stroke-opacity:1; fill:none" points="
  156.598,304.468 175.496,304.468 
  "/>
<path clip-path="url(#clip920)" d="M65.0198 1246.43 Q61.4087 1246.43 59.58 1250 Q57.7745 1253.54 57.7745 1260.67 Q57.7745 1267.77 59.58 1271.34 Q61.4087 1274.88 65.0198 1274.88 Q68.6541 1274.88 70.4596 1271.34 Q72.2883 1267.77 72.2883 1260.67 Q72.2883 1253.54 70.4596 1250 Q68.6541 1246.43 65.0198 1246.43 M65.0198 1242.73 Q70.83 1242.73 73.8855 1247.33 Q76.9642 1251.92 76.9642 1260.67 Q76.9642 1269.39 73.8855 1274 Q70.83 1278.58 65.0198 1278.58 Q59.2097 1278.58 56.131 1274 Q53.0754 1269.39 53.0754 1260.67 Q53.0754 1251.92 56.131 1247.33 Q59.2097 1242.73 65.0198 1242.73 Z" fill="#000000" fill-rule="evenodd" fill-opacity="1" /><path clip-path="url(#clip920)" d="M85.1818 1272.03 L90.066 1272.03 L90.066 1277.91 L85.1818 1277.91 L85.1818 1272.03 Z" fill="#000000" fill-rule="evenodd" fill-opacity="1" /><path clip-path="url(#clip920)" d="M104.279 1273.98 L120.598 1273.98 L120.598 1277.91 L98.6539 1277.91 L98.6539 1273.98 Q101.316 1271.22 105.899 1266.59 Q110.506 1261.94 111.686 1260.6 Q113.932 1258.08 114.811 1256.34 Q115.714 1254.58 115.714 1252.89 Q115.714 1250.14 113.77 1248.4 Q111.848 1246.66 108.746 1246.66 Q106.547 1246.66 104.094 1247.43 Q101.663 1248.19 98.8854 1249.74 L98.8854 1245.02 Q101.709 1243.89 104.163 1243.31 Q106.617 1242.73 108.654 1242.73 Q114.024 1242.73 117.219 1245.41 Q120.413 1248.1 120.413 1252.59 Q120.413 1254.72 119.603 1256.64 Q118.816 1258.54 116.709 1261.13 Q116.131 1261.8 113.029 1265.02 Q109.927 1268.21 104.279 1273.98 Z" fill="#000000" fill-rule="evenodd" fill-opacity="1" /><path clip-path="url(#clip920)" d="M62.9365 927.71 Q59.3254 927.71 57.4967 931.275 Q55.6912 934.816 55.6912 941.946 Q55.6912 949.052 57.4967 952.617 Q59.3254 956.159 62.9365 956.159 Q66.5707 956.159 68.3763 952.617 Q70.205 949.052 70.205 941.946 Q70.205 934.816 68.3763 931.275 Q66.5707 927.71 62.9365 927.71 M62.9365 924.006 Q68.7467 924.006 71.8022 928.613 Q74.8809 933.196 74.8809 941.946 Q74.8809 950.673 71.8022 955.279 Q68.7467 959.863 62.9365 959.863 Q57.1264 959.863 54.0477 955.279 Q50.9921 950.673 50.9921 941.946 Q50.9921 933.196 54.0477 928.613 Q57.1264 924.006 62.9365 924.006 Z" fill="#000000" fill-rule="evenodd" fill-opacity="1" /><path clip-path="url(#clip920)" d="M83.0984 953.312 L87.9827 953.312 L87.9827 959.191 L83.0984 959.191 L83.0984 953.312 Z" fill="#000000" fill-rule="evenodd" fill-opacity="1" /><path clip-path="url(#clip920)" d="M111.015 928.705 L99.2095 947.154 L111.015 947.154 L111.015 928.705 M109.788 924.631 L115.668 924.631 L115.668 947.154 L120.598 947.154 L120.598 951.043 L115.668 951.043 L115.668 959.191 L111.015 959.191 L111.015 951.043 L95.4132 951.043 L95.4132 946.529 L109.788 924.631 Z" fill="#000000" fill-rule="evenodd" fill-opacity="1" /><path clip-path="url(#clip920)" d="M63.2606 608.988 Q59.6495 608.988 57.8208 612.553 Q56.0152 616.095 56.0152 623.224 Q56.0152 630.331 57.8208 633.895 Q59.6495 637.437 63.2606 637.437 Q66.8948 637.437 68.7004 633.895 Q70.5291 630.331 70.5291 623.224 Q70.5291 616.095 68.7004 612.553 Q66.8948 608.988 63.2606 608.988 M63.2606 605.284 Q69.0707 605.284 72.1263 609.891 Q75.205 614.474 75.205 623.224 Q75.205 631.951 72.1263 636.557 Q69.0707 641.141 63.2606 641.141 Q57.4504 641.141 54.3717 636.557 Q51.3162 631.951 51.3162 623.224 Q51.3162 614.474 54.3717 609.891 Q57.4504 605.284 63.2606 605.284 Z" fill="#000000" fill-rule="evenodd" fill-opacity="1" /><path clip-path="url(#clip920)" d="M83.4225 634.59 L88.3067 634.59 L88.3067 640.469 L83.4225 640.469 L83.4225 634.59 Z" fill="#000000" fill-rule="evenodd" fill-opacity="1" /><path clip-path="url(#clip920)" d="M109.071 621.326 Q105.922 621.326 104.071 623.479 Q102.242 625.632 102.242 629.382 Q102.242 633.108 104.071 635.284 Q105.922 637.437 109.071 637.437 Q112.219 637.437 114.047 635.284 Q115.899 633.108 115.899 629.382 Q115.899 625.632 114.047 623.479 Q112.219 621.326 109.071 621.326 M118.353 606.673 L118.353 610.933 Q116.594 610.099 114.788 609.659 Q113.006 609.22 111.246 609.22 Q106.617 609.22 104.163 612.345 Q101.733 615.47 101.385 621.789 Q102.751 619.775 104.811 618.71 Q106.871 617.622 109.348 617.622 Q114.557 617.622 117.566 620.794 Q120.598 623.942 120.598 629.382 Q120.598 634.706 117.45 637.923 Q114.302 641.141 109.071 641.141 Q103.075 641.141 99.9039 636.557 Q96.7326 631.951 96.7326 623.224 Q96.7326 615.03 100.621 610.169 Q104.51 605.284 111.061 605.284 Q112.82 605.284 114.603 605.632 Q116.408 605.979 118.353 606.673 Z" fill="#000000" fill-rule="evenodd" fill-opacity="1" /><path clip-path="url(#clip920)" d="M63.5152 290.266 Q59.9041 290.266 58.0754 293.831 Q56.2699 297.373 56.2699 304.502 Q56.2699 311.609 58.0754 315.174 Q59.9041 318.715 63.5152 318.715 Q67.1494 318.715 68.955 315.174 Q70.7837 311.609 70.7837 304.502 Q70.7837 297.373 68.955 293.831 Q67.1494 290.266 63.5152 290.266 M63.5152 286.563 Q69.3254 286.563 72.3809 291.169 Q75.4596 295.752 75.4596 304.502 Q75.4596 313.229 72.3809 317.836 Q69.3254 322.419 63.5152 322.419 Q57.7051 322.419 54.6264 317.836 Q51.5708 313.229 51.5708 304.502 Q51.5708 295.752 54.6264 291.169 Q57.7051 286.563 63.5152 286.563 Z" fill="#000000" fill-rule="evenodd" fill-opacity="1" /><path clip-path="url(#clip920)" d="M83.6771 315.868 L88.5614 315.868 L88.5614 321.748 L83.6771 321.748 L83.6771 315.868 Z" fill="#000000" fill-rule="evenodd" fill-opacity="1" /><path clip-path="url(#clip920)" d="M108.746 305.336 Q105.413 305.336 103.492 307.118 Q101.594 308.901 101.594 312.026 Q101.594 315.151 103.492 316.933 Q105.413 318.715 108.746 318.715 Q112.08 318.715 114.001 316.933 Q115.922 315.127 115.922 312.026 Q115.922 308.901 114.001 307.118 Q112.103 305.336 108.746 305.336 M104.071 303.345 Q101.061 302.604 99.3715 300.544 Q97.7048 298.484 97.7048 295.521 Q97.7048 291.377 100.645 288.97 Q103.608 286.563 108.746 286.563 Q113.908 286.563 116.848 288.97 Q119.788 291.377 119.788 295.521 Q119.788 298.484 118.098 300.544 Q116.432 302.604 113.445 303.345 Q116.825 304.132 118.7 306.424 Q120.598 308.715 120.598 312.026 Q120.598 317.049 117.52 319.734 Q114.464 322.419 108.746 322.419 Q103.029 322.419 99.9502 319.734 Q96.8947 317.049 96.8947 312.026 Q96.8947 308.715 98.7928 306.424 Q100.691 304.132 104.071 303.345 M102.358 295.961 Q102.358 298.646 104.024 300.151 Q105.714 301.655 108.746 301.655 Q111.756 301.655 113.445 300.151 Q115.158 298.646 115.158 295.961 Q115.158 293.276 113.445 291.771 Q111.756 290.266 108.746 290.266 Q105.714 290.266 104.024 291.771 Q102.358 293.276 102.358 295.961 Z" fill="#000000" fill-rule="evenodd" fill-opacity="1" /><polyline clip-path="url(#clip922)" style="stroke:#009af9; stroke-linecap:butt; stroke-linejoin:round; stroke-width:4; stroke-opacity:1; fill:none" points="
  218.754,1445.72 1138.22,430.704 473.892,429.828 230.562,1156.74 1440.69,1192.02 1529.14,1376.46 1407.16,1379.71 2290.6,87.9763 548.83,741.199 924.028,953.079 
  
  "/>
<path clip-path="url(#clip920)" d="
M1987.12 198.898 L2279.55 198.898 L2279.55 95.2176 L1987.12 95.2176  Z
  " fill="#ffffff" fill-rule="evenodd" fill-opacity="1"/>
<polyline clip-path="url(#clip920)" style="stroke:#000000; stroke-linecap:butt; stroke-linejoin:round; stroke-width:4; stroke-opacity:1; fill:none" points="
  1987.12,198.898 2279.55,198.898 2279.55,95.2176 1987.12,95.2176 1987.12,198.898 
  "/>
<polyline clip-path="url(#clip920)" style="stroke:#009af9; stroke-linecap:butt; stroke-linejoin:round; stroke-width:4; stroke-opacity:1; fill:none" points="
  2011.12,147.058 2155.12,147.058 
  "/>
<path clip-path="url(#clip920)" d="M2192.96 166.745 Q2191.16 171.375 2189.44 172.787 Q2187.73 174.199 2184.86 174.199 L2181.46 174.199 L2181.46 170.634 L2183.96 170.634 Q2185.72 170.634 2186.69 169.8 Q2187.66 168.967 2188.84 165.865 L2189.61 163.921 L2179.12 138.412 L2183.63 138.412 L2191.74 158.689 L2199.84 138.412 L2204.35 138.412 L2192.96 166.745 Z" fill="#000000" fill-rule="evenodd" fill-opacity="1" /><path clip-path="url(#clip920)" d="M2211.64 160.402 L2219.28 160.402 L2219.28 134.037 L2210.97 135.703 L2210.97 131.444 L2219.24 129.778 L2223.91 129.778 L2223.91 160.402 L2231.55 160.402 L2231.55 164.338 L2211.64 164.338 L2211.64 160.402 Z" fill="#000000" fill-rule="evenodd" fill-opacity="1" /></svg>
