<?xml version="1.0" encoding="utf-8"?>
<svg xmlns="http://www.w3.org/2000/svg" xmlns:xlink="http://www.w3.org/1999/xlink" width="600" height="400" viewBox="0 0 2400 1600">
<defs>
  <clipPath id="clip170">
    <rect x="0" y="0" width="2400" height="1600"/>
  </clipPath>
</defs>
<path clip-path="url(#clip170)" d="
M0 1600 L2400 1600 L2400 0 L0 0  Z
  " fill="#ffffff" fill-rule="evenodd" fill-opacity="1"/>
<defs>
  <clipPath id="clip171">
    <rect x="480" y="0" width="1681" height="1600"/>
  </clipPath>
</defs>
<path clip-path="url(#clip170)" d="
M156.598 1486.45 L2352.76 1486.45 L2352.76 47.2441 L156.598 47.2441  Z
  " fill="#ffffff" fill-rule="evenodd" fill-opacity="1"/>
<defs>
  <clipPath id="clip172">
    <rect x="156" y="47" width="2197" height="1440"/>
  </clipPath>
</defs>
<polyline clip-path="url(#clip172)" style="stroke:#000000; stroke-linecap:butt; stroke-linejoin:round; stroke-width:2; stroke-opacity:0.1; fill:none" points="
  404.449,1486.45 404.449,47.2441 
  "/>
<polyline clip-path="url(#clip172)" style="stroke:#000000; stroke-linecap:butt; stroke-linejoin:round; stroke-width:2; stroke-opacity:0.1; fill:none" points="
  878.024,1486.45 878.024,47.2441 
  "/>
<polyline clip-path="url(#clip172)" style="stroke:#000000; stroke-linecap:butt; stroke-linejoin:round; stroke-width:2; stroke-opacity:0.1; fill:none" points="
  1351.6,1486.45 1351.6,47.2441 
  "/>
<polyline clip-path="url(#clip172)" style="stroke:#000000; stroke-linecap:butt; stroke-linejoin:round; stroke-width:2; stroke-opacity:0.1; fill:none" points="
  1825.17,1486.45 1825.17,47.2441 
  "/>
<polyline clip-path="url(#clip172)" style="stroke:#000000; stroke-linecap:butt; stroke-linejoin:round; stroke-width:2; stroke-opacity:0.1; fill:none" points="
  2298.75,1486.45 2298.75,47.2441 
  "/>
<polyline clip-path="url(#clip170)" style="stroke:#000000; stroke-linecap:butt; stroke-linejoin:round; stroke-width:4; stroke-opacity:1; fill:none" points="
  156.598,1486.45 2352.76,1486.45 
  "/>
<polyline clip-path="url(#clip170)" style="stroke:#000000; stroke-linecap:butt; stroke-linejoin:round; stroke-width:4; stroke-opacity:1; fill:none" points="
  404.449,1486.45 404.449,1467.55 
  "/>
<polyline clip-path="url(#clip170)" style="stroke:#000000; stroke-linecap:butt; stroke-linejoin:round; stroke-width:4; stroke-opacity:1; fill:none" points="
  878.024,1486.45 878.024,1467.55 
  "/>
<polyline clip-path="url(#clip170)" style="stroke:#000000; stroke-linecap:butt; stroke-linejoin:round; stroke-width:4; stroke-opacity:1; fill:none" points="
  1351.6,1486.45 1351.6,1467.55 
  "/>
<polyline clip-path="url(#clip170)" style="stroke:#000000; stroke-linecap:butt; stroke-linejoin:round; stroke-width:4; stroke-opacity:1; fill:none" points="
  1825.17,1486.45 1825.17,1467.55 
  "/>
<polyline clip-path="url(#clip170)" style="stroke:#000000; stroke-linecap:butt; stroke-linejoin:round; stroke-width:4; stroke-opacity:1; fill:none" points="
  2298.75,1486.45 2298.75,1467.55 
  "/>
<path clip-path="url(#clip170)" d="M382.632 1517.37 Q379.021 1517.37 377.192 1520.93 Q375.387 1524.47 375.387 1531.6 Q375.387 1538.71 377.192 1542.27 Q379.021 1545.82 382.632 1545.82 Q386.266 1545.82 388.072 1542.27 Q389.901 1538.71 389.901 1531.6 Q389.901 1524.47 388.072 1520.93 Q386.266 1517.37 382.632 1517.37 M382.632 1513.66 Q388.442 1513.66 391.498 1518.27 Q394.576 1522.85 394.576 1531.6 Q394.576 1540.33 391.498 1544.94 Q388.442 1549.52 382.632 1549.52 Q376.822 1549.52 373.743 1544.94 Q370.688 1540.33 370.688 1531.6 Q370.688 1522.85 373.743 1518.27 Q376.822 1513.66 382.632 1513.66 Z" fill="#000000" fill-rule="evenodd" fill-opacity="1" /><path clip-path="url(#clip170)" d="M402.794 1542.97 L407.678 1542.97 L407.678 1548.85 L402.794 1548.85 L402.794 1542.97 Z" fill="#000000" fill-rule="evenodd" fill-opacity="1" /><path clip-path="url(#clip170)" d="M421.891 1544.91 L438.21 1544.91 L438.21 1548.85 L416.266 1548.85 L416.266 1544.91 Q418.928 1542.16 423.511 1537.53 Q428.118 1532.88 429.298 1531.53 Q431.544 1529.01 432.423 1527.27 Q433.326 1525.51 433.326 1523.82 Q433.326 1521.07 431.382 1519.33 Q429.46 1517.6 426.359 1517.6 Q424.16 1517.6 421.706 1518.36 Q419.275 1519.13 416.498 1520.68 L416.498 1515.95 Q419.322 1514.82 421.775 1514.24 Q424.229 1513.66 426.266 1513.66 Q431.636 1513.66 434.831 1516.35 Q438.025 1519.03 438.025 1523.52 Q438.025 1525.65 437.215 1527.57 Q436.428 1529.47 434.322 1532.07 Q433.743 1532.74 430.641 1535.95 Q427.539 1539.15 421.891 1544.91 Z" fill="#000000" fill-rule="evenodd" fill-opacity="1" /><path clip-path="url(#clip170)" d="M855.165 1517.37 Q851.554 1517.37 849.725 1520.93 Q847.92 1524.47 847.92 1531.6 Q847.92 1538.71 849.725 1542.27 Q851.554 1545.82 855.165 1545.82 Q858.799 1545.82 860.605 1542.27 Q862.433 1538.71 862.433 1531.6 Q862.433 1524.47 860.605 1520.93 Q858.799 1517.37 855.165 1517.37 M855.165 1513.66 Q860.975 1513.66 864.031 1518.27 Q867.109 1522.85 867.109 1531.6 Q867.109 1540.33 864.031 1544.94 Q860.975 1549.52 855.165 1549.52 Q849.355 1549.52 846.276 1544.94 Q843.221 1540.33 843.221 1531.6 Q843.221 1522.85 846.276 1518.27 Q849.355 1513.66 855.165 1513.66 Z" fill="#000000" fill-rule="evenodd" fill-opacity="1" /><path clip-path="url(#clip170)" d="M875.327 1542.97 L880.211 1542.97 L880.211 1548.85 L875.327 1548.85 L875.327 1542.97 Z" fill="#000000" fill-rule="evenodd" fill-opacity="1" /><path clip-path="url(#clip170)" d="M903.243 1518.36 L891.438 1536.81 L903.243 1536.81 L903.243 1518.36 M902.017 1514.29 L907.896 1514.29 L907.896 1536.81 L912.827 1536.81 L912.827 1540.7 L907.896 1540.7 L907.896 1548.85 L903.243 1548.85 L903.243 1540.7 L887.642 1540.7 L887.642 1536.19 L902.017 1514.29 Z" fill="#000000" fill-rule="evenodd" fill-opacity="1" /><path clip-path="url(#clip170)" d="M1328.9 1517.37 Q1325.29 1517.37 1323.46 1520.93 Q1321.66 1524.47 1321.66 1531.6 Q1321.66 1538.71 1323.46 1542.27 Q1325.29 1545.82 1328.9 1545.82 Q1332.54 1545.82 1334.34 1542.27 Q1336.17 1538.71 1336.17 1531.6 Q1336.17 1524.47 1334.34 1520.93 Q1332.54 1517.37 1328.9 1517.37 M1328.9 1513.66 Q1334.71 1513.66 1337.77 1518.27 Q1340.85 1522.85 1340.85 1531.6 Q1340.85 1540.33 1337.77 1544.94 Q1334.71 1549.52 1328.9 1549.52 Q1323.09 1549.52 1320.01 1544.94 Q1316.96 1540.33 1316.96 1531.6 Q1316.96 1522.85 1320.01 1518.27 Q1323.09 1513.66 1328.9 1513.66 Z" fill="#000000" fill-rule="evenodd" fill-opacity="1" /><path clip-path="url(#clip170)" d="M1349.06 1542.97 L1353.95 1542.97 L1353.95 1548.85 L1349.06 1548.85 L1349.06 1542.97 Z" fill="#000000" fill-rule="evenodd" fill-opacity="1" /><path clip-path="url(#clip170)" d="M1374.71 1529.7 Q1371.56 1529.7 1369.71 1531.86 Q1367.88 1534.01 1367.88 1537.76 Q1367.88 1541.49 1369.71 1543.66 Q1371.56 1545.82 1374.71 1545.82 Q1377.86 1545.82 1379.69 1543.66 Q1381.54 1541.49 1381.54 1537.76 Q1381.54 1534.01 1379.69 1531.86 Q1377.86 1529.7 1374.71 1529.7 M1383.99 1515.05 L1383.99 1519.31 Q1382.23 1518.48 1380.43 1518.04 Q1378.65 1517.6 1376.89 1517.6 Q1372.26 1517.6 1369.8 1520.72 Q1367.37 1523.85 1367.03 1530.17 Q1368.39 1528.15 1370.45 1527.09 Q1372.51 1526 1374.99 1526 Q1380.2 1526 1383.21 1529.17 Q1386.24 1532.32 1386.24 1537.76 Q1386.24 1543.08 1383.09 1546.3 Q1379.94 1549.52 1374.71 1549.52 Q1368.72 1549.52 1365.54 1544.94 Q1362.37 1540.33 1362.37 1531.6 Q1362.37 1523.41 1366.26 1518.55 Q1370.15 1513.66 1376.7 1513.66 Q1378.46 1513.66 1380.24 1514.01 Q1382.05 1514.36 1383.99 1515.05 Z" fill="#000000" fill-rule="evenodd" fill-opacity="1" /><path clip-path="url(#clip170)" d="M1802.6 1517.37 Q1798.99 1517.37 1797.16 1520.93 Q1795.36 1524.47 1795.36 1531.6 Q1795.36 1538.71 1797.16 1542.27 Q1798.99 1545.82 1802.6 1545.82 Q1806.24 1545.82 1808.04 1542.27 Q1809.87 1538.71 1809.87 1531.6 Q1809.87 1524.47 1808.04 1520.93 Q1806.24 1517.37 1802.6 1517.37 M1802.6 1513.66 Q1808.41 1513.66 1811.47 1518.27 Q1814.55 1522.85 1814.55 1531.6 Q1814.55 1540.33 1811.47 1544.94 Q1808.41 1549.52 1802.6 1549.52 Q1796.79 1549.52 1793.71 1544.94 Q1790.66 1540.33 1790.66 1531.6 Q1790.66 1522.85 1793.71 1518.27 Q1796.79 1513.66 1802.6 1513.66 Z" fill="#000000" fill-rule="evenodd" fill-opacity="1" /><path clip-path="url(#clip170)" d="M1822.77 1542.97 L1827.65 1542.97 L1827.65 1548.85 L1822.77 1548.85 L1822.77 1542.97 Z" fill="#000000" fill-rule="evenodd" fill-opacity="1" /><path clip-path="url(#clip170)" d="M1847.83 1532.44 Q1844.5 1532.44 1842.58 1534.22 Q1840.68 1536 1840.68 1539.13 Q1840.68 1542.25 1842.58 1544.03 Q1844.5 1545.82 1847.83 1545.82 Q1851.17 1545.82 1853.09 1544.03 Q1855.01 1542.23 1855.01 1539.13 Q1855.01 1536 1853.09 1534.22 Q1851.19 1532.44 1847.83 1532.44 M1843.16 1530.45 Q1840.15 1529.7 1838.46 1527.64 Q1836.79 1525.58 1836.79 1522.62 Q1836.79 1518.48 1839.73 1516.07 Q1842.7 1513.66 1847.83 1513.66 Q1853 1513.66 1855.94 1516.07 Q1858.88 1518.48 1858.88 1522.62 Q1858.88 1525.58 1857.19 1527.64 Q1855.52 1529.7 1852.53 1530.45 Q1855.91 1531.23 1857.79 1533.52 Q1859.69 1535.82 1859.69 1539.13 Q1859.69 1544.15 1856.61 1546.83 Q1853.55 1549.52 1847.83 1549.52 Q1842.12 1549.52 1839.04 1546.83 Q1835.98 1544.15 1835.98 1539.13 Q1835.98 1535.82 1837.88 1533.52 Q1839.78 1531.23 1843.16 1530.45 M1841.45 1523.06 Q1841.45 1525.75 1843.11 1527.25 Q1844.8 1528.76 1847.83 1528.76 Q1850.84 1528.76 1852.53 1527.25 Q1854.25 1525.75 1854.25 1523.06 Q1854.25 1520.38 1852.53 1518.87 Q1850.84 1517.37 1847.83 1517.37 Q1844.8 1517.37 1843.11 1518.87 Q1841.45 1520.38 1841.45 1523.06 Z" fill="#000000" fill-rule="evenodd" fill-opacity="1" /><path clip-path="url(#clip170)" d="M2265.9 1544.91 L2273.54 1544.91 L2273.54 1518.55 L2265.23 1520.21 L2265.23 1515.95 L2273.49 1514.29 L2278.17 1514.29 L2278.17 1544.91 L2285.81 1544.91 L2285.81 1548.85 L2265.9 1548.85 L2265.9 1544.91 Z" fill="#000000" fill-rule="evenodd" fill-opacity="1" /><path clip-path="url(#clip170)" d="M2295.25 1542.97 L2300.14 1542.97 L2300.14 1548.85 L2295.25 1548.85 L2295.25 1542.97 Z" fill="#000000" fill-rule="evenodd" fill-opacity="1" /><path clip-path="url(#clip170)" d="M2320.32 1517.37 Q2316.71 1517.37 2314.88 1520.93 Q2313.08 1524.47 2313.08 1531.6 Q2313.08 1538.71 2314.88 1542.27 Q2316.71 1545.82 2320.32 1545.82 Q2323.96 1545.82 2325.76 1542.27 Q2327.59 1538.71 2327.59 1531.6 Q2327.59 1524.47 2325.76 1520.93 Q2323.96 1517.37 2320.32 1517.37 M2320.32 1513.66 Q2326.13 1513.66 2329.19 1518.27 Q2332.27 1522.85 2332.27 1531.6 Q2332.27 1540.33 2329.19 1544.94 Q2326.13 1549.52 2320.32 1549.52 Q2314.51 1549.52 2311.43 1544.94 Q2308.38 1540.33 2308.38 1531.6 Q2308.38 1522.85 2311.43 1518.27 Q2314.51 1513.66 2320.32 1513.66 Z" fill="#000000" fill-rule="evenodd" fill-opacity="1" /><polyline clip-path="url(#clip172)" style="stroke:#000000; stroke-linecap:butt; stroke-linejoin:round; stroke-width:2; stroke-opacity:0.1; fill:none" points="
  156.598,1282.77 2352.76,1282.77 
  "/>
<polyline clip-path="url(#clip172)" style="stroke:#000000; stroke-linecap:butt; stroke-linejoin:round; stroke-width:2; stroke-opacity:0.1; fill:none" points="
  156.598,931.315 2352.76,931.315 
  "/>
<polyline clip-path="url(#clip172)" style="stroke:#000000; stroke-linecap:butt; stroke-linejoin:round; stroke-width:2; stroke-opacity:0.1; fill:none" points="
  156.598,579.863 2352.76,579.863 
  "/>
<polyline clip-path="url(#clip172)" style="stroke:#000000; stroke-linecap:butt; stroke-linejoin:round; stroke-width:2; stroke-opacity:0.1; fill:none" points="
  156.598,228.41 2352.76,228.41 
  "/>
<polyline clip-path="url(#clip170)" style="stroke:#000000; stroke-linecap:butt; stroke-linejoin:round; stroke-width:4; stroke-opacity:1; fill:none" points="
  156.598,1486.45 156.598,47.2441 
  "/>
<polyline clip-path="url(#clip170)" style="stroke:#000000; stroke-linecap:butt; stroke-linejoin:round; stroke-width:4; stroke-opacity:1; fill:none" points="
  156.598,1282.77 175.496,1282.77 
  "/>
<polyline clip-path="url(#clip170)" style="stroke:#000000; stroke-linecap:butt; stroke-linejoin:round; stroke-width:4; stroke-opacity:1; fill:none" points="
  156.598,931.315 175.496,931.315 
  "/>
<polyline clip-path="url(#clip170)" style="stroke:#000000; stroke-linecap:butt; stroke-linejoin:round; stroke-width:4; stroke-opacity:1; fill:none" points="
  156.598,579.863 175.496,579.863 
  "/>
<polyline clip-path="url(#clip170)" style="stroke:#000000; stroke-linecap:butt; stroke-linejoin:round; stroke-width:4; stroke-opacity:1; fill:none" points="
  156.598,228.41 175.496,228.41 
  "/>
<path clip-path="url(#clip170)" d="M65.0198 1268.57 Q61.4087 1268.57 59.58 1272.13 Q57.7745 1275.67 57.7745 1282.8 Q57.7745 1289.91 59.58 1293.47 Q61.4087 1297.01 65.0198 1297.01 Q68.6541 1297.01 70.4596 1293.47 Q72.2883 1289.91 72.2883 1282.8 Q72.2883 1275.67 70.4596 1272.13 Q68.6541 1268.57 65.0198 1268.57 M65.0198 1264.86 Q70.83 1264.86 73.8855 1269.47 Q76.9642 1274.05 76.9642 1282.8 Q76.9642 1291.53 73.8855 1296.13 Q70.83 1300.72 65.0198 1300.72 Q59.2097 1300.72 56.131 1296.13 Q53.0754 1291.53 53.0754 1282.8 Q53.0754 1274.05 56.131 1269.47 Q59.2097 1264.86 65.0198 1264.86 Z" fill="#000000" fill-rule="evenodd" fill-opacity="1" /><path clip-path="url(#clip170)" d="M85.1818 1294.17 L90.066 1294.17 L90.066 1300.05 L85.1818 1300.05 L85.1818 1294.17 Z" fill="#000000" fill-rule="evenodd" fill-opacity="1" /><path clip-path="url(#clip170)" d="M104.279 1296.11 L120.598 1296.11 L120.598 1300.05 L98.6539 1300.05 L98.6539 1296.11 Q101.316 1293.36 105.899 1288.73 Q110.506 1284.07 111.686 1282.73 Q113.932 1280.21 114.811 1278.47 Q115.714 1276.71 115.714 1275.02 Q115.714 1272.27 113.77 1270.53 Q111.848 1268.8 108.746 1268.8 Q106.547 1268.8 104.094 1269.56 Q101.663 1270.32 98.8854 1271.88 L98.8854 1267.15 Q101.709 1266.02 104.163 1265.44 Q106.617 1264.86 108.654 1264.86 Q114.024 1264.86 117.219 1267.55 Q120.413 1270.23 120.413 1274.72 Q120.413 1276.85 119.603 1278.77 Q118.816 1280.67 116.709 1283.26 Q116.131 1283.94 113.029 1287.15 Q109.927 1290.35 104.279 1296.11 Z" fill="#000000" fill-rule="evenodd" fill-opacity="1" /><path clip-path="url(#clip170)" d="M62.9365 917.113 Q59.3254 917.113 57.4967 920.678 Q55.6912 924.22 55.6912 931.35 Q55.6912 938.456 57.4967 942.021 Q59.3254 945.562 62.9365 945.562 Q66.5707 945.562 68.3763 942.021 Q70.205 938.456 70.205 931.35 Q70.205 924.22 68.3763 920.678 Q66.5707 917.113 62.9365 917.113 M62.9365 913.41 Q68.7467 913.41 71.8022 918.016 Q74.8809 922.6 74.8809 931.35 Q74.8809 940.076 71.8022 944.683 Q68.7467 949.266 62.9365 949.266 Q57.1264 949.266 54.0477 944.683 Q50.9921 940.076 50.9921 931.35 Q50.9921 922.6 54.0477 918.016 Q57.1264 913.41 62.9365 913.41 Z" fill="#000000" fill-rule="evenodd" fill-opacity="1" /><path clip-path="url(#clip170)" d="M83.0984 942.715 L87.9827 942.715 L87.9827 948.595 L83.0984 948.595 L83.0984 942.715 Z" fill="#000000" fill-rule="evenodd" fill-opacity="1" /><path clip-path="url(#clip170)" d="M111.015 918.109 L99.2095 936.558 L111.015 936.558 L111.015 918.109 M109.788 914.035 L115.668 914.035 L115.668 936.558 L120.598 936.558 L120.598 940.447 L115.668 940.447 L115.668 948.595 L111.015 948.595 L111.015 940.447 L95.4132 940.447 L95.4132 935.933 L109.788 914.035 Z" fill="#000000" fill-rule="evenodd" fill-opacity="1" /><path clip-path="url(#clip170)" d="M63.2606 565.661 Q59.6495 565.661 57.8208 569.226 Q56.0152 572.768 56.0152 579.897 Q56.0152 587.004 57.8208 590.569 Q59.6495 594.11 63.2606 594.11 Q66.8948 594.11 68.7004 590.569 Q70.5291 587.004 70.5291 579.897 Q70.5291 572.768 68.7004 569.226 Q66.8948 565.661 63.2606 565.661 M63.2606 561.958 Q69.0707 561.958 72.1263 566.564 Q75.205 571.147 75.205 579.897 Q75.205 588.624 72.1263 593.231 Q69.0707 597.814 63.2606 597.814 Q57.4504 597.814 54.3717 593.231 Q51.3162 588.624 51.3162 579.897 Q51.3162 571.147 54.3717 566.564 Q57.4504 561.958 63.2606 561.958 Z" fill="#000000" fill-rule="evenodd" fill-opacity="1" /><path clip-path="url(#clip170)" d="M83.4225 591.263 L88.3067 591.263 L88.3067 597.143 L83.4225 597.143 L83.4225 591.263 Z" fill="#000000" fill-rule="evenodd" fill-opacity="1" /><path clip-path="url(#clip170)" d="M109.071 577.999 Q105.922 577.999 104.071 580.152 Q102.242 582.305 102.242 586.055 Q102.242 589.782 104.071 591.957 Q105.922 594.11 109.071 594.11 Q112.219 594.11 114.047 591.957 Q115.899 589.782 115.899 586.055 Q115.899 582.305 114.047 580.152 Q112.219 577.999 109.071 577.999 M118.353 563.346 L118.353 567.606 Q116.594 566.772 114.788 566.333 Q113.006 565.893 111.246 565.893 Q106.617 565.893 104.163 569.018 Q101.733 572.143 101.385 578.462 Q102.751 576.448 104.811 575.383 Q106.871 574.295 109.348 574.295 Q114.557 574.295 117.566 577.467 Q120.598 580.615 120.598 586.055 Q120.598 591.379 117.45 594.596 Q114.302 597.814 109.071 597.814 Q103.075 597.814 99.9039 593.231 Q96.7326 588.624 96.7326 579.897 Q96.7326 571.703 100.621 566.842 Q104.51 561.958 111.061 561.958 Q112.82 561.958 114.603 562.305 Q116.408 562.652 118.353 563.346 Z" fill="#000000" fill-rule="evenodd" fill-opacity="1" /><path clip-path="url(#clip170)" d="M63.5152 214.209 Q59.9041 214.209 58.0754 217.774 Q56.2699 221.316 56.2699 228.445 Q56.2699 235.552 58.0754 239.116 Q59.9041 242.658 63.5152 242.658 Q67.1494 242.658 68.955 239.116 Q70.7837 235.552 70.7837 228.445 Q70.7837 221.316 68.955 217.774 Q67.1494 214.209 63.5152 214.209 M63.5152 210.505 Q69.3254 210.505 72.3809 215.112 Q75.4596 219.695 75.4596 228.445 Q75.4596 237.172 72.3809 241.778 Q69.3254 246.362 63.5152 246.362 Q57.7051 246.362 54.6264 241.778 Q51.5708 237.172 51.5708 228.445 Q51.5708 219.695 54.6264 215.112 Q57.7051 210.505 63.5152 210.505 Z" fill="#000000" fill-rule="evenodd" fill-opacity="1" /><path clip-path="url(#clip170)" d="M83.6771 239.811 L88.5614 239.811 L88.5614 245.69 L83.6771 245.69 L83.6771 239.811 Z" fill="#000000" fill-rule="evenodd" fill-opacity="1" /><path clip-path="url(#clip170)" d="M108.746 229.278 Q105.413 229.278 103.492 231.061 Q101.594 232.843 101.594 235.968 Q101.594 239.093 103.492 240.876 Q105.413 242.658 108.746 242.658 Q112.08 242.658 114.001 240.876 Q115.922 239.07 115.922 235.968 Q115.922 232.843 114.001 231.061 Q112.103 229.278 108.746 229.278 M104.071 227.288 Q101.061 226.547 99.3715 224.487 Q97.7048 222.427 97.7048 219.464 Q97.7048 215.32 100.645 212.913 Q103.608 210.505 108.746 210.505 Q113.908 210.505 116.848 212.913 Q119.788 215.32 119.788 219.464 Q119.788 222.427 118.098 224.487 Q116.432 226.547 113.445 227.288 Q116.825 228.075 118.7 230.366 Q120.598 232.658 120.598 235.968 Q120.598 240.991 117.52 243.677 Q114.464 246.362 108.746 246.362 Q103.029 246.362 99.9502 243.677 Q96.8947 240.991 96.8947 235.968 Q96.8947 232.658 98.7928 230.366 Q100.691 228.075 104.071 227.288 M102.358 219.903 Q102.358 222.589 104.024 224.093 Q105.714 225.598 108.746 225.598 Q111.756 225.598 113.445 224.093 Q115.158 222.589 115.158 219.903 Q115.158 217.218 113.445 215.714 Q111.756 214.209 108.746 214.209 Q105.714 214.209 104.024 215.714 Q102.358 217.218 102.358 219.903 Z" fill="#000000" fill-rule="evenodd" fill-opacity="1" /><polyline clip-path="url(#clip172)" style="stroke:#009af9; stroke-linecap:butt; stroke-linejoin:round; stroke-width:4; stroke-opacity:1; fill:none" points="
  1441.1,600.191 218.754,677.019 2290.6,443.715 958.044,1205.51 1288.32,882.822 299.221,1064.66 916.505,1445.72 2138.63,570.515 1669.35,87.9763 1110.92,1210.3 
  
  "/>
<path clip-path="url(#clip170)" d="
M1987.12 198.898 L2279.55 198.898 L2279.55 95.2176 L1987.12 95.2176  Z
  " fill="#ffffff" fill-rule="evenodd" fill-opacity="1"/>
<polyline clip-path="url(#clip170)" style="stroke:#000000; stroke-linecap:butt; stroke-linejoin:round; stroke-width:4; stroke-opacity:1; fill:none" points="
  1987.12,198.898 2279.55,198.898 2279.55,95.2176 1987.12,95.2176 1987.12,198.898 
  "/>
<polyline clip-path="url(#clip170)" style="stroke:#009af9; stroke-linecap:butt; stroke-linejoin:round; stroke-width:4; stroke-opacity:1; fill:none" points="
  2011.12,147.058 2155.12,147.058 
  "/>
<path clip-path="url(#clip170)" d="M2192.96 166.745 Q2191.16 171.375 2189.44 172.787 Q2187.73 174.199 2184.86 174.199 L2181.46 174.199 L2181.46 170.634 L2183.96 170.634 Q2185.72 170.634 2186.69 169.8 Q2187.66 168.967 2188.84 165.865 L2189.61 163.921 L2179.12 138.412 L2183.63 138.412 L2191.74 158.689 L2199.84 138.412 L2204.35 138.412 L2192.96 166.745 Z" fill="#000000" fill-rule="evenodd" fill-opacity="1" /><path clip-path="url(#clip170)" d="M2211.64 160.402 L2219.28 160.402 L2219.28 134.037 L2210.97 135.703 L2210.97 131.444 L2219.24 129.778 L2223.91 129.778 L2223.91 160.402 L2231.55 160.402 L2231.55 164.338 L2211.64 164.338 L2211.64 160.402 Z" fill="#000000" fill-rule="evenodd" fill-opacity="1" /></svg>
