<?xml version="1.0" encoding="utf-8"?>
<svg xmlns="http://www.w3.org/2000/svg" xmlns:xlink="http://www.w3.org/1999/xlink" width="600" height="400" viewBox="0 0 2400 1600">
<defs>
  <clipPath id="clip220">
    <rect x="0" y="0" width="2400" height="1600"/>
  </clipPath>
</defs>
<path clip-path="url(#clip220)" d="
M0 1600 L2400 1600 L2400 0 L0 0  Z
  " fill="#ffffff" fill-rule="evenodd" fill-opacity="1"/>
<defs>
  <clipPath id="clip221">
    <rect x="480" y="0" width="1681" height="1600"/>
  </clipPath>
</defs>
<path clip-path="url(#clip220)" d="
M156.598 1486.45 L2352.76 1486.45 L2352.76 47.2441 L156.598 47.2441  Z
  " fill="#ffffff" fill-rule="evenodd" fill-opacity="1"/>
<defs>
  <clipPath id="clip222">
    <rect x="156" y="47" width="2197" height="1440"/>
  </clipPath>
</defs>
<polyline clip-path="url(#clip222)" style="stroke:#000000; stroke-linecap:butt; stroke-linejoin:round; stroke-width:2; stroke-opacity:0.1; fill:none" points="
  342.794,1486.45 342.794,47.2441 
  "/>
<polyline clip-path="url(#clip222)" style="stroke:#000000; stroke-linecap:butt; stroke-linejoin:round; stroke-width:2; stroke-opacity:0.1; fill:none" points="
  653.062,1486.45 653.062,47.2441 
  "/>
<polyline clip-path="url(#clip222)" style="stroke:#000000; stroke-linecap:butt; stroke-linejoin:round; stroke-width:2; stroke-opacity:0.1; fill:none" points="
  963.331,1486.45 963.331,47.2441 
  "/>
<polyline clip-path="url(#clip222)" style="stroke:#000000; stroke-linecap:butt; stroke-linejoin:round; stroke-width:2; stroke-opacity:0.1; fill:none" points="
  1273.6,1486.45 1273.6,47.2441 
  "/>
<polyline clip-path="url(#clip222)" style="stroke:#000000; stroke-linecap:butt; stroke-linejoin:round; stroke-width:2; stroke-opacity:0.1; fill:none" points="
  1583.87,1486.45 1583.87,47.2441 
  "/>
<polyline clip-path="url(#clip222)" style="stroke:#000000; stroke-linecap:butt; stroke-linejoin:round; stroke-width:2; stroke-opacity:0.1; fill:none" points="
  1894.14,1486.45 1894.14,47.2441 
  "/>
<polyline clip-path="url(#clip222)" style="stroke:#000000; stroke-linecap:butt; stroke-linejoin:round; stroke-width:2; stroke-opacity:0.1; fill:none" points="
  2204.4,1486.45 2204.4,47.2441 
  "/>
<polyline clip-path="url(#clip220)" style="stroke:#000000; stroke-linecap:butt; stroke-linejoin:round; stroke-width:4; stroke-opacity:1; fill:none" points="
  156.598,1486.45 2352.76,1486.45 
  "/>
<polyline clip-path="url(#clip220)" style="stroke:#000000; stroke-linecap:butt; stroke-linejoin:round; stroke-width:4; stroke-opacity:1; fill:none" points="
  342.794,1486.45 342.794,1467.55 
  "/>
<polyline clip-path="url(#clip220)" style="stroke:#000000; stroke-linecap:butt; stroke-linejoin:round; stroke-width:4; stroke-opacity:1; fill:none" points="
  653.062,1486.45 653.062,1467.55 
  "/>
<polyline clip-path="url(#clip220)" style="stroke:#000000; stroke-linecap:butt; stroke-linejoin:round; stroke-width:4; stroke-opacity:1; fill:none" points="
  963.331,1486.45 963.331,1467.55 
  "/>
<polyline clip-path="url(#clip220)" style="stroke:#000000; stroke-linecap:butt; stroke-linejoin:round; stroke-width:4; stroke-opacity:1; fill:none" points="
  1273.6,1486.45 1273.6,1467.55 
  "/>
<polyline clip-path="url(#clip220)" style="stroke:#000000; stroke-linecap:butt; stroke-linejoin:round; stroke-width:4; stroke-opacity:1; fill:none" points="
  1583.87,1486.45 1583.87,1467.55 
  "/>
<polyline clip-path="url(#clip220)" style="stroke:#000000; stroke-linecap:butt; stroke-linejoin:round; stroke-width:4; stroke-opacity:1; fill:none" points="
  1894.14,1486.45 1894.14,1467.55 
  "/>
<polyline clip-path="url(#clip220)" style="stroke:#000000; stroke-linecap:butt; stroke-linejoin:round; stroke-width:4; stroke-opacity:1; fill:none" points="
  2204.4,1486.45 2204.4,1467.55 
  "/>
<path clip-path="url(#clip220)" d="M320.792 1517.37 Q317.181 1517.37 315.352 1520.93 Q313.547 1524.47 313.547 1531.6 Q313.547 1538.71 315.352 1542.27 Q317.181 1545.82 320.792 1545.82 Q324.426 1545.82 326.232 1542.27 Q328.06 1538.71 328.06 1531.6 Q328.06 1524.47 326.232 1520.93 Q324.426 1517.37 320.792 1517.37 M320.792 1513.66 Q326.602 1513.66 329.658 1518.27 Q332.736 1522.85 332.736 1531.6 Q332.736 1540.33 329.658 1544.94 Q326.602 1549.52 320.792 1549.52 Q314.982 1549.52 311.903 1544.94 Q308.847 1540.33 308.847 1531.6 Q308.847 1522.85 311.903 1518.27 Q314.982 1513.66 320.792 1513.66 Z" fill="#000000" fill-rule="evenodd" fill-opacity="1" /><path clip-path="url(#clip220)" d="M340.954 1542.97 L345.838 1542.97 L345.838 1548.85 L340.954 1548.85 L340.954 1542.97 Z" fill="#000000" fill-rule="evenodd" fill-opacity="1" /><path clip-path="url(#clip220)" d="M356.833 1544.91 L364.472 1544.91 L364.472 1518.55 L356.162 1520.21 L356.162 1515.95 L364.426 1514.29 L369.102 1514.29 L369.102 1544.91 L376.741 1544.91 L376.741 1548.85 L356.833 1548.85 L356.833 1544.91 Z" fill="#000000" fill-rule="evenodd" fill-opacity="1" /><path clip-path="url(#clip220)" d="M631.245 1517.37 Q627.634 1517.37 625.806 1520.93 Q624 1524.47 624 1531.6 Q624 1538.71 625.806 1542.27 Q627.634 1545.82 631.245 1545.82 Q634.88 1545.82 636.685 1542.27 Q638.514 1538.71 638.514 1531.6 Q638.514 1524.47 636.685 1520.93 Q634.88 1517.37 631.245 1517.37 M631.245 1513.66 Q637.055 1513.66 640.111 1518.27 Q643.19 1522.85 643.19 1531.6 Q643.19 1540.33 640.111 1544.94 Q637.055 1549.52 631.245 1549.52 Q625.435 1549.52 622.356 1544.94 Q619.301 1540.33 619.301 1531.6 Q619.301 1522.85 622.356 1518.27 Q625.435 1513.66 631.245 1513.66 Z" fill="#000000" fill-rule="evenodd" fill-opacity="1" /><path clip-path="url(#clip220)" d="M651.407 1542.97 L656.291 1542.97 L656.291 1548.85 L651.407 1548.85 L651.407 1542.97 Z" fill="#000000" fill-rule="evenodd" fill-opacity="1" /><path clip-path="url(#clip220)" d="M670.504 1544.91 L686.824 1544.91 L686.824 1548.85 L664.879 1548.85 L664.879 1544.91 Q667.541 1542.16 672.125 1537.53 Q676.731 1532.88 677.912 1531.53 Q680.157 1529.01 681.037 1527.27 Q681.94 1525.51 681.94 1523.82 Q681.94 1521.07 679.995 1519.33 Q678.074 1517.6 674.972 1517.6 Q672.773 1517.6 670.319 1518.36 Q667.889 1519.13 665.111 1520.68 L665.111 1515.95 Q667.935 1514.82 670.389 1514.24 Q672.842 1513.66 674.879 1513.66 Q680.25 1513.66 683.444 1516.35 Q686.639 1519.03 686.639 1523.52 Q686.639 1525.65 685.828 1527.57 Q685.041 1529.47 682.935 1532.07 Q682.356 1532.74 679.254 1535.95 Q676.152 1539.15 670.504 1544.91 Z" fill="#000000" fill-rule="evenodd" fill-opacity="1" /><path clip-path="url(#clip220)" d="M941.039 1517.37 Q937.428 1517.37 935.599 1520.93 Q933.794 1524.47 933.794 1531.6 Q933.794 1538.71 935.599 1542.27 Q937.428 1545.82 941.039 1545.82 Q944.673 1545.82 946.479 1542.27 Q948.308 1538.71 948.308 1531.6 Q948.308 1524.47 946.479 1520.93 Q944.673 1517.37 941.039 1517.37 M941.039 1513.66 Q946.849 1513.66 949.905 1518.27 Q952.983 1522.85 952.983 1531.6 Q952.983 1540.33 949.905 1544.94 Q946.849 1549.52 941.039 1549.52 Q935.229 1549.52 932.15 1544.94 Q929.095 1540.33 929.095 1531.6 Q929.095 1522.85 932.15 1518.27 Q935.229 1513.66 941.039 1513.66 Z" fill="#000000" fill-rule="evenodd" fill-opacity="1" /><path clip-path="url(#clip220)" d="M961.201 1542.97 L966.085 1542.97 L966.085 1548.85 L961.201 1548.85 L961.201 1542.97 Z" fill="#000000" fill-rule="evenodd" fill-opacity="1" /><path clip-path="url(#clip220)" d="M990.437 1530.21 Q993.793 1530.93 995.668 1533.2 Q997.567 1535.47 997.567 1538.8 Q997.567 1543.92 994.048 1546.72 Q990.53 1549.52 984.048 1549.52 Q981.872 1549.52 979.557 1549.08 Q977.266 1548.66 974.812 1547.81 L974.812 1543.29 Q976.756 1544.43 979.071 1545.01 Q981.386 1545.58 983.909 1545.58 Q988.307 1545.58 990.599 1543.85 Q992.914 1542.11 992.914 1538.8 Q992.914 1535.75 990.761 1534.03 Q988.631 1532.3 984.812 1532.3 L980.784 1532.3 L980.784 1528.45 L984.997 1528.45 Q988.446 1528.45 990.275 1527.09 Q992.104 1525.7 992.104 1523.11 Q992.104 1520.45 990.205 1519.03 Q988.33 1517.6 984.812 1517.6 Q982.891 1517.6 980.692 1518.01 Q978.493 1518.43 975.854 1519.31 L975.854 1515.14 Q978.516 1514.4 980.831 1514.03 Q983.168 1513.66 985.229 1513.66 Q990.553 1513.66 993.655 1516.09 Q996.756 1518.5 996.756 1522.62 Q996.756 1525.49 995.113 1527.48 Q993.469 1529.45 990.437 1530.21 Z" fill="#000000" fill-rule="evenodd" fill-opacity="1" /><path clip-path="url(#clip220)" d="M1250.74 1517.37 Q1247.13 1517.37 1245.3 1520.93 Q1243.49 1524.47 1243.49 1531.6 Q1243.49 1538.71 1245.3 1542.27 Q1247.13 1545.82 1250.74 1545.82 Q1254.37 1545.82 1256.18 1542.27 Q1258.01 1538.71 1258.01 1531.6 Q1258.01 1524.47 1256.18 1520.93 Q1254.37 1517.37 1250.74 1517.37 M1250.74 1513.66 Q1256.55 1513.66 1259.61 1518.27 Q1262.68 1522.85 1262.68 1531.6 Q1262.68 1540.33 1259.61 1544.94 Q1256.55 1549.52 1250.74 1549.52 Q1244.93 1549.52 1241.85 1544.94 Q1238.8 1540.33 1238.8 1531.6 Q1238.8 1522.85 1241.85 1518.27 Q1244.93 1513.66 1250.74 1513.66 Z" fill="#000000" fill-rule="evenodd" fill-opacity="1" /><path clip-path="url(#clip220)" d="M1270.9 1542.97 L1275.79 1542.97 L1275.79 1548.85 L1270.9 1548.85 L1270.9 1542.97 Z" fill="#000000" fill-rule="evenodd" fill-opacity="1" /><path clip-path="url(#clip220)" d="M1298.82 1518.36 L1287.01 1536.81 L1298.82 1536.81 L1298.82 1518.36 M1297.59 1514.29 L1303.47 1514.29 L1303.47 1536.81 L1308.4 1536.81 L1308.4 1540.7 L1303.47 1540.7 L1303.47 1548.85 L1298.82 1548.85 L1298.82 1540.7 L1283.22 1540.7 L1283.22 1536.19 L1297.59 1514.29 Z" fill="#000000" fill-rule="evenodd" fill-opacity="1" /><path clip-path="url(#clip220)" d="M1561.75 1517.37 Q1558.14 1517.37 1556.31 1520.93 Q1554.5 1524.47 1554.5 1531.6 Q1554.5 1538.71 1556.31 1542.27 Q1558.14 1545.82 1561.75 1545.82 Q1565.38 1545.82 1567.19 1542.27 Q1569.02 1538.71 1569.02 1531.6 Q1569.02 1524.47 1567.19 1520.93 Q1565.38 1517.37 1561.75 1517.37 M1561.75 1513.66 Q1567.56 1513.66 1570.61 1518.27 Q1573.69 1522.85 1573.69 1531.6 Q1573.69 1540.33 1570.61 1544.94 Q1567.56 1549.52 1561.75 1549.52 Q1555.94 1549.52 1552.86 1544.94 Q1549.8 1540.33 1549.8 1531.6 Q1549.8 1522.85 1552.86 1518.27 Q1555.94 1513.66 1561.75 1513.66 Z" fill="#000000" fill-rule="evenodd" fill-opacity="1" /><path clip-path="url(#clip220)" d="M1581.91 1542.97 L1586.8 1542.97 L1586.8 1548.85 L1581.91 1548.85 L1581.91 1542.97 Z" fill="#000000" fill-rule="evenodd" fill-opacity="1" /><path clip-path="url(#clip220)" d="M1597.03 1514.29 L1615.38 1514.29 L1615.38 1518.22 L1601.31 1518.22 L1601.31 1526.7 Q1602.33 1526.35 1603.35 1526.19 Q1604.36 1526 1605.38 1526 Q1611.17 1526 1614.55 1529.17 Q1617.93 1532.34 1617.93 1537.76 Q1617.93 1543.34 1614.46 1546.44 Q1610.99 1549.52 1604.67 1549.52 Q1602.49 1549.52 1600.22 1549.15 Q1597.98 1548.78 1595.57 1548.04 L1595.57 1543.34 Q1597.65 1544.47 1599.87 1545.03 Q1602.1 1545.58 1604.57 1545.58 Q1608.58 1545.58 1610.92 1543.48 Q1613.25 1541.37 1613.25 1537.76 Q1613.25 1534.15 1610.92 1532.04 Q1608.58 1529.94 1604.57 1529.94 Q1602.7 1529.94 1600.82 1530.35 Q1598.97 1530.77 1597.03 1531.65 L1597.03 1514.29 Z" fill="#000000" fill-rule="evenodd" fill-opacity="1" /><path clip-path="url(#clip220)" d="M1871.44 1517.37 Q1867.83 1517.37 1866 1520.93 Q1864.19 1524.47 1864.19 1531.6 Q1864.19 1538.71 1866 1542.27 Q1867.83 1545.82 1871.44 1545.82 Q1875.07 1545.82 1876.88 1542.27 Q1878.71 1538.71 1878.71 1531.6 Q1878.71 1524.47 1876.88 1520.93 Q1875.07 1517.37 1871.44 1517.37 M1871.44 1513.66 Q1877.25 1513.66 1880.3 1518.27 Q1883.38 1522.85 1883.38 1531.6 Q1883.38 1540.33 1880.3 1544.94 Q1877.25 1549.52 1871.44 1549.52 Q1865.63 1549.52 1862.55 1544.94 Q1859.49 1540.33 1859.49 1531.6 Q1859.49 1522.85 1862.55 1518.27 Q1865.63 1513.66 1871.44 1513.66 Z" fill="#000000" fill-rule="evenodd" fill-opacity="1" /><path clip-path="url(#clip220)" d="M1891.6 1542.97 L1896.48 1542.97 L1896.48 1548.85 L1891.6 1548.85 L1891.6 1542.97 Z" fill="#000000" fill-rule="evenodd" fill-opacity="1" /><path clip-path="url(#clip220)" d="M1917.25 1529.7 Q1914.1 1529.7 1912.25 1531.86 Q1910.42 1534.01 1910.42 1537.76 Q1910.42 1541.49 1912.25 1543.66 Q1914.1 1545.82 1917.25 1545.82 Q1920.4 1545.82 1922.23 1543.66 Q1924.08 1541.49 1924.08 1537.76 Q1924.08 1534.01 1922.23 1531.86 Q1920.4 1529.7 1917.25 1529.7 M1926.53 1515.05 L1926.53 1519.31 Q1924.77 1518.48 1922.97 1518.04 Q1921.18 1517.6 1919.42 1517.6 Q1914.8 1517.6 1912.34 1520.72 Q1909.91 1523.85 1909.56 1530.17 Q1910.93 1528.15 1912.99 1527.09 Q1915.05 1526 1917.53 1526 Q1922.73 1526 1925.74 1529.17 Q1928.78 1532.32 1928.78 1537.76 Q1928.78 1543.08 1925.63 1546.3 Q1922.48 1549.52 1917.25 1549.52 Q1911.25 1549.52 1908.08 1544.94 Q1904.91 1540.33 1904.91 1531.6 Q1904.91 1523.41 1908.8 1518.55 Q1912.69 1513.66 1919.24 1513.66 Q1921 1513.66 1922.78 1514.01 Q1924.59 1514.36 1926.53 1515.05 Z" fill="#000000" fill-rule="evenodd" fill-opacity="1" /><path clip-path="url(#clip220)" d="M2182.24 1517.37 Q2178.63 1517.37 2176.8 1520.93 Q2174.99 1524.47 2174.99 1531.6 Q2174.99 1538.71 2176.8 1542.27 Q2178.63 1545.82 2182.24 1545.82 Q2185.87 1545.82 2187.68 1542.27 Q2189.51 1538.71 2189.51 1531.6 Q2189.51 1524.47 2187.68 1520.93 Q2185.87 1517.37 2182.24 1517.37 M2182.24 1513.66 Q2188.05 1513.66 2191.11 1518.27 Q2194.18 1522.85 2194.18 1531.6 Q2194.18 1540.33 2191.11 1544.94 Q2188.05 1549.52 2182.24 1549.52 Q2176.43 1549.52 2173.35 1544.94 Q2170.3 1540.33 2170.3 1531.6 Q2170.3 1522.85 2173.35 1518.27 Q2176.43 1513.66 2182.24 1513.66 Z" fill="#000000" fill-rule="evenodd" fill-opacity="1" /><path clip-path="url(#clip220)" d="M2202.4 1542.97 L2207.29 1542.97 L2207.29 1548.85 L2202.4 1548.85 L2202.4 1542.97 Z" fill="#000000" fill-rule="evenodd" fill-opacity="1" /><path clip-path="url(#clip220)" d="M2216.29 1514.29 L2238.51 1514.29 L2238.51 1516.28 L2225.97 1548.85 L2221.08 1548.85 L2232.89 1518.22 L2216.29 1518.22 L2216.29 1514.29 Z" fill="#000000" fill-rule="evenodd" fill-opacity="1" /><polyline clip-path="url(#clip222)" style="stroke:#000000; stroke-linecap:butt; stroke-linejoin:round; stroke-width:2; stroke-opacity:0.1; fill:none" points="
  156.598,1420.38 2352.76,1420.38 
  "/>
<polyline clip-path="url(#clip222)" style="stroke:#000000; stroke-linecap:butt; stroke-linejoin:round; stroke-width:2; stroke-opacity:0.1; fill:none" points="
  156.598,1087.17 2352.76,1087.17 
  "/>
<polyline clip-path="url(#clip222)" style="stroke:#000000; stroke-linecap:butt; stroke-linejoin:round; stroke-width:2; stroke-opacity:0.1; fill:none" points="
  156.598,753.961 2352.76,753.961 
  "/>
<polyline clip-path="url(#clip222)" style="stroke:#000000; stroke-linecap:butt; stroke-linejoin:round; stroke-width:2; stroke-opacity:0.1; fill:none" points="
  156.598,420.751 2352.76,420.751 
  "/>
<polyline clip-path="url(#clip222)" style="stroke:#000000; stroke-linecap:butt; stroke-linejoin:round; stroke-width:2; stroke-opacity:0.1; fill:none" points="
  156.598,87.5414 2352.76,87.5414 
  "/>
<polyline clip-path="url(#clip220)" style="stroke:#000000; stroke-linecap:butt; stroke-linejoin:round; stroke-width:4; stroke-opacity:1; fill:none" points="
  156.598,1486.45 156.598,47.2441 
  "/>
<polyline clip-path="url(#clip220)" style="stroke:#000000; stroke-linecap:butt; stroke-linejoin:round; stroke-width:4; stroke-opacity:1; fill:none" points="
  156.598,1420.38 175.496,1420.38 
  "/>
<polyline clip-path="url(#clip220)" style="stroke:#000000; stroke-linecap:butt; stroke-linejoin:round; stroke-width:4; stroke-opacity:1; fill:none" points="
  156.598,1087.17 175.496,1087.17 
  "/>
<polyline clip-path="url(#clip220)" style="stroke:#000000; stroke-linecap:butt; stroke-linejoin:round; stroke-width:4; stroke-opacity:1; fill:none" points="
  156.598,753.961 175.496,753.961 
  "/>
<polyline clip-path="url(#clip220)" style="stroke:#000000; stroke-linecap:butt; stroke-linejoin:round; stroke-width:4; stroke-opacity:1; fill:none" points="
  156.598,420.751 175.496,420.751 
  "/>
<polyline clip-path="url(#clip220)" style="stroke:#000000; stroke-linecap:butt; stroke-linejoin:round; stroke-width:4; stroke-opacity:1; fill:none" points="
  156.598,87.5414 175.496,87.5414 
  "/>
<path clip-path="url(#clip220)" d="M65.0198 1406.18 Q61.4087 1406.18 59.58 1409.74 Q57.7745 1413.29 57.7745 1420.42 Q57.7745 1427.52 59.58 1431.09 Q61.4087 1434.63 65.0198 1434.63 Q68.6541 1434.63 70.4596 1431.09 Q72.2883 1427.52 72.2883 1420.42 Q72.2883 1413.29 70.4596 1409.74 Q68.6541 1406.18 65.0198 1406.18 M65.0198 1402.48 Q70.83 1402.48 73.8855 1407.08 Q76.9642 1411.67 76.9642 1420.42 Q76.9642 1429.14 73.8855 1433.75 Q70.83 1438.33 65.0198 1438.33 Q59.2097 1438.33 56.131 1433.75 Q53.0754 1429.14 53.0754 1420.42 Q53.0754 1411.67 56.131 1407.08 Q59.2097 1402.48 65.0198 1402.48 Z" fill="#000000" fill-rule="evenodd" fill-opacity="1" /><path clip-path="url(#clip220)" d="M85.1818 1431.78 L90.066 1431.78 L90.066 1437.66 L85.1818 1437.66 L85.1818 1431.78 Z" fill="#000000" fill-rule="evenodd" fill-opacity="1" /><path clip-path="url(#clip220)" d="M104.279 1433.73 L120.598 1433.73 L120.598 1437.66 L98.6539 1437.66 L98.6539 1433.73 Q101.316 1430.97 105.899 1426.34 Q110.506 1421.69 111.686 1420.35 Q113.932 1417.82 114.811 1416.09 Q115.714 1414.33 115.714 1412.64 Q115.714 1409.88 113.77 1408.15 Q111.848 1406.41 108.746 1406.41 Q106.547 1406.41 104.094 1407.18 Q101.663 1407.94 98.8854 1409.49 L98.8854 1404.77 Q101.709 1403.63 104.163 1403.06 Q106.617 1402.48 108.654 1402.48 Q114.024 1402.48 117.219 1405.16 Q120.413 1407.85 120.413 1412.34 Q120.413 1414.47 119.603 1416.39 Q118.816 1418.29 116.709 1420.88 Q116.131 1421.55 113.029 1424.77 Q109.927 1427.96 104.279 1433.73 Z" fill="#000000" fill-rule="evenodd" fill-opacity="1" /><path clip-path="url(#clip220)" d="M62.9365 1072.97 Q59.3254 1072.97 57.4967 1076.53 Q55.6912 1080.08 55.6912 1087.21 Q55.6912 1094.31 57.4967 1097.88 Q59.3254 1101.42 62.9365 1101.42 Q66.5707 1101.42 68.3763 1097.88 Q70.205 1094.31 70.205 1087.21 Q70.205 1080.08 68.3763 1076.53 Q66.5707 1072.97 62.9365 1072.97 M62.9365 1069.27 Q68.7467 1069.27 71.8022 1073.87 Q74.8809 1078.46 74.8809 1087.21 Q74.8809 1095.93 71.8022 1100.54 Q68.7467 1105.12 62.9365 1105.12 Q57.1264 1105.12 54.0477 1100.54 Q50.9921 1095.93 50.9921 1087.21 Q50.9921 1078.46 54.0477 1073.87 Q57.1264 1069.27 62.9365 1069.27 Z" fill="#000000" fill-rule="evenodd" fill-opacity="1" /><path clip-path="url(#clip220)" d="M83.0984 1098.57 L87.9827 1098.57 L87.9827 1104.45 L83.0984 1104.45 L83.0984 1098.57 Z" fill="#000000" fill-rule="evenodd" fill-opacity="1" /><path clip-path="url(#clip220)" d="M111.015 1073.97 L99.2095 1092.41 L111.015 1092.41 L111.015 1073.97 M109.788 1069.89 L115.668 1069.89 L115.668 1092.41 L120.598 1092.41 L120.598 1096.3 L115.668 1096.3 L115.668 1104.45 L111.015 1104.45 L111.015 1096.3 L95.4132 1096.3 L95.4132 1091.79 L109.788 1069.89 Z" fill="#000000" fill-rule="evenodd" fill-opacity="1" /><path clip-path="url(#clip220)" d="M63.2606 739.76 Q59.6495 739.76 57.8208 743.325 Q56.0152 746.867 56.0152 753.996 Q56.0152 761.103 57.8208 764.667 Q59.6495 768.209 63.2606 768.209 Q66.8948 768.209 68.7004 764.667 Q70.5291 761.103 70.5291 753.996 Q70.5291 746.867 68.7004 743.325 Q66.8948 739.76 63.2606 739.76 M63.2606 736.056 Q69.0707 736.056 72.1263 740.663 Q75.205 745.246 75.205 753.996 Q75.205 762.723 72.1263 767.329 Q69.0707 771.913 63.2606 771.913 Q57.4504 771.913 54.3717 767.329 Q51.3162 762.723 51.3162 753.996 Q51.3162 745.246 54.3717 740.663 Q57.4504 736.056 63.2606 736.056 Z" fill="#000000" fill-rule="evenodd" fill-opacity="1" /><path clip-path="url(#clip220)" d="M83.4225 765.362 L88.3067 765.362 L88.3067 771.241 L83.4225 771.241 L83.4225 765.362 Z" fill="#000000" fill-rule="evenodd" fill-opacity="1" /><path clip-path="url(#clip220)" d="M109.071 752.098 Q105.922 752.098 104.071 754.251 Q102.242 756.404 102.242 760.154 Q102.242 763.88 104.071 766.056 Q105.922 768.209 109.071 768.209 Q112.219 768.209 114.047 766.056 Q115.899 763.88 115.899 760.154 Q115.899 756.404 114.047 754.251 Q112.219 752.098 109.071 752.098 M118.353 737.445 L118.353 741.705 Q116.594 740.871 114.788 740.431 Q113.006 739.992 111.246 739.992 Q106.617 739.992 104.163 743.117 Q101.733 746.242 101.385 752.561 Q102.751 750.547 104.811 749.482 Q106.871 748.394 109.348 748.394 Q114.557 748.394 117.566 751.566 Q120.598 754.714 120.598 760.154 Q120.598 765.478 117.45 768.695 Q114.302 771.913 109.071 771.913 Q103.075 771.913 99.9039 767.329 Q96.7326 762.723 96.7326 753.996 Q96.7326 745.802 100.621 740.941 Q104.51 736.056 111.061 736.056 Q112.82 736.056 114.603 736.404 Q116.408 736.751 118.353 737.445 Z" fill="#000000" fill-rule="evenodd" fill-opacity="1" /><path clip-path="url(#clip220)" d="M63.5152 406.55 Q59.9041 406.55 58.0754 410.115 Q56.2699 413.657 56.2699 420.786 Q56.2699 427.893 58.0754 431.457 Q59.9041 434.999 63.5152 434.999 Q67.1494 434.999 68.955 431.457 Q70.7837 427.893 70.7837 420.786 Q70.7837 413.657 68.955 410.115 Q67.1494 406.55 63.5152 406.55 M63.5152 402.846 Q69.3254 402.846 72.3809 407.453 Q75.4596 412.036 75.4596 420.786 Q75.4596 429.513 72.3809 434.119 Q69.3254 438.703 63.5152 438.703 Q57.7051 438.703 54.6264 434.119 Q51.5708 429.513 51.5708 420.786 Q51.5708 412.036 54.6264 407.453 Q57.7051 402.846 63.5152 402.846 Z" fill="#000000" fill-rule="evenodd" fill-opacity="1" /><path clip-path="url(#clip220)" d="M83.6771 432.152 L88.5614 432.152 L88.5614 438.031 L83.6771 438.031 L83.6771 432.152 Z" fill="#000000" fill-rule="evenodd" fill-opacity="1" /><path clip-path="url(#clip220)" d="M108.746 421.619 Q105.413 421.619 103.492 423.402 Q101.594 425.184 101.594 428.309 Q101.594 431.434 103.492 433.217 Q105.413 434.999 108.746 434.999 Q112.08 434.999 114.001 433.217 Q115.922 431.411 115.922 428.309 Q115.922 425.184 114.001 423.402 Q112.103 421.619 108.746 421.619 M104.071 419.629 Q101.061 418.888 99.3715 416.828 Q97.7048 414.768 97.7048 411.805 Q97.7048 407.661 100.645 405.254 Q103.608 402.846 108.746 402.846 Q113.908 402.846 116.848 405.254 Q119.788 407.661 119.788 411.805 Q119.788 414.768 118.098 416.828 Q116.432 418.888 113.445 419.629 Q116.825 420.416 118.7 422.707 Q120.598 424.999 120.598 428.309 Q120.598 433.332 117.52 436.018 Q114.464 438.703 108.746 438.703 Q103.029 438.703 99.9502 436.018 Q96.8947 433.332 96.8947 428.309 Q96.8947 424.999 98.7928 422.707 Q100.691 420.416 104.071 419.629 M102.358 412.245 Q102.358 414.93 104.024 416.434 Q105.714 417.939 108.746 417.939 Q111.756 417.939 113.445 416.434 Q115.158 414.93 115.158 412.245 Q115.158 409.559 113.445 408.055 Q111.756 406.55 108.746 406.55 Q105.714 406.55 104.024 408.055 Q102.358 409.559 102.358 412.245 Z" fill="#000000" fill-rule="evenodd" fill-opacity="1" /><path clip-path="url(#clip220)" d="M54.2328 100.886 L61.8717 100.886 L61.8717 74.5206 L53.5616 76.1873 L53.5616 71.9281 L61.8254 70.2614 L66.5013 70.2614 L66.5013 100.886 L74.1402 100.886 L74.1402 104.821 L54.2328 104.821 L54.2328 100.886 Z" fill="#000000" fill-rule="evenodd" fill-opacity="1" /><path clip-path="url(#clip220)" d="M83.5845 98.9418 L88.4688 98.9418 L88.4688 104.821 L83.5845 104.821 L83.5845 98.9418 Z" fill="#000000" fill-rule="evenodd" fill-opacity="1" /><path clip-path="url(#clip220)" d="M108.654 73.3401 Q105.043 73.3401 103.214 76.9049 Q101.409 80.4465 101.409 87.5761 Q101.409 94.6826 103.214 98.2474 Q105.043 101.789 108.654 101.789 Q112.288 101.789 114.094 98.2474 Q115.922 94.6826 115.922 87.5761 Q115.922 80.4465 114.094 76.9049 Q112.288 73.3401 108.654 73.3401 M108.654 69.6364 Q114.464 69.6364 117.52 74.2429 Q120.598 78.8262 120.598 87.5761 Q120.598 96.3029 117.52 100.909 Q114.464 105.493 108.654 105.493 Q102.844 105.493 99.765 100.909 Q96.7095 96.3029 96.7095 87.5761 Q96.7095 78.8262 99.765 74.2429 Q102.844 69.6364 108.654 69.6364 Z" fill="#000000" fill-rule="evenodd" fill-opacity="1" /><polyline clip-path="url(#clip222)" style="stroke:#009af9; stroke-linecap:butt; stroke-linejoin:round; stroke-width:4; stroke-opacity:1; fill:none" points="
  1423.99,564.169 958.414,1289.79 2132.17,464.233 1777.33,594.915 224.51,801.031 2177.57,87.9763 1434.91,322.962 1362.88,834.3 2290.6,1445.72 218.754,1270.12 
  
  "/>
<path clip-path="url(#clip220)" d="
M1987.12 198.898 L2279.55 198.898 L2279.55 95.2176 L1987.12 95.2176  Z
  " fill="#ffffff" fill-rule="evenodd" fill-opacity="1"/>
<polyline clip-path="url(#clip220)" style="stroke:#000000; stroke-linecap:butt; stroke-linejoin:round; stroke-width:4; stroke-opacity:1; fill:none" points="
  1987.12,198.898 2279.55,198.898 2279.55,95.2176 1987.12,95.2176 1987.12,198.898 
  "/>
<polyline clip-path="url(#clip220)" style="stroke:#009af9; stroke-linecap:butt; stroke-linejoin:round; stroke-width:4; stroke-opacity:1; fill:none" points="
  2011.12,147.058 2155.12,147.058 
  "/>
<path clip-path="url(#clip220)" d="M2192.96 166.745 Q2191.16 171.375 2189.44 172.787 Q2187.73 174.199 2184.86 174.199 L2181.46 174.199 L2181.46 170.634 L2183.96 170.634 Q2185.72 170.634 2186.69 169.8 Q2187.66 168.967 2188.84 165.865 L2189.61 163.921 L2179.12 138.412 L2183.63 138.412 L2191.74 158.689 L2199.84 138.412 L2204.35 138.412 L2192.96 166.745 Z" fill="#000000" fill-rule="evenodd" fill-opacity="1" /><path clip-path="url(#clip220)" d="M2211.64 160.402 L2219.28 160.402 L2219.28 134.037 L2210.97 135.703 L2210.97 131.444 L2219.24 129.778 L2223.91 129.778 L2223.91 160.402 L2231.55 160.402 L2231.55 164.338 L2211.64 164.338 L2211.64 160.402 Z" fill="#000000" fill-rule="evenodd" fill-opacity="1" /></svg>
