<?xml version="1.0" encoding="utf-8"?>
<svg xmlns="http://www.w3.org/2000/svg" xmlns:xlink="http://www.w3.org/1999/xlink" width="600" height="400" viewBox="0 0 2400 1600">
<defs>
  <clipPath id="clip770">
    <rect x="0" y="0" width="2400" height="1600"/>
  </clipPath>
</defs>
<path clip-path="url(#clip770)" d="
M0 1600 L2400 1600 L2400 0 L0 0  Z
  " fill="#ffffff" fill-rule="evenodd" fill-opacity="1"/>
<defs>
  <clipPath id="clip771">
    <rect x="480" y="0" width="1681" height="1600"/>
  </clipPath>
</defs>
<path clip-path="url(#clip770)" d="
M156.598 1486.45 L2352.76 1486.45 L2352.76 47.2441 L156.598 47.2441  Z
  " fill="#ffffff" fill-rule="evenodd" fill-opacity="1"/>
<defs>
  <clipPath id="clip772">
    <rect x="156" y="47" width="2197" height="1440"/>
  </clipPath>
</defs>
<polyline clip-path="url(#clip772)" style="stroke:#000000; stroke-linecap:butt; stroke-linejoin:round; stroke-width:2; stroke-opacity:0.1; fill:none" points="
  214.263,1486.45 214.263,47.2441 
  "/>
<polyline clip-path="url(#clip772)" style="stroke:#000000; stroke-linecap:butt; stroke-linejoin:round; stroke-width:2; stroke-opacity:0.1; fill:none" points="
  785.398,1486.45 785.398,47.2441 
  "/>
<polyline clip-path="url(#clip772)" style="stroke:#000000; stroke-linecap:butt; stroke-linejoin:round; stroke-width:2; stroke-opacity:0.1; fill:none" points="
  1356.53,1486.45 1356.53,47.2441 
  "/>
<polyline clip-path="url(#clip772)" style="stroke:#000000; stroke-linecap:butt; stroke-linejoin:round; stroke-width:2; stroke-opacity:0.1; fill:none" points="
  1927.67,1486.45 1927.67,47.2441 
  "/>
<polyline clip-path="url(#clip770)" style="stroke:#000000; stroke-linecap:butt; stroke-linejoin:round; stroke-width:4; stroke-opacity:1; fill:none" points="
  156.598,1486.45 2352.76,1486.45 
  "/>
<polyline clip-path="url(#clip770)" style="stroke:#000000; stroke-linecap:butt; stroke-linejoin:round; stroke-width:4; stroke-opacity:1; fill:none" points="
  214.263,1486.45 214.263,1467.55 
  "/>
<polyline clip-path="url(#clip770)" style="stroke:#000000; stroke-linecap:butt; stroke-linejoin:round; stroke-width:4; stroke-opacity:1; fill:none" points="
  785.398,1486.45 785.398,1467.55 
  "/>
<polyline clip-path="url(#clip770)" style="stroke:#000000; stroke-linecap:butt; stroke-linejoin:round; stroke-width:4; stroke-opacity:1; fill:none" points="
  1356.53,1486.45 1356.53,1467.55 
  "/>
<polyline clip-path="url(#clip770)" style="stroke:#000000; stroke-linecap:butt; stroke-linejoin:round; stroke-width:4; stroke-opacity:1; fill:none" points="
  1927.67,1486.45 1927.67,1467.55 
  "/>
<path clip-path="url(#clip770)" d="M192.446 1517.37 Q188.835 1517.37 187.006 1520.93 Q185.2 1524.47 185.2 1531.6 Q185.2 1538.71 187.006 1542.27 Q188.835 1545.82 192.446 1545.82 Q196.08 1545.82 197.886 1542.27 Q199.714 1538.71 199.714 1531.6 Q199.714 1524.47 197.886 1520.93 Q196.08 1517.37 192.446 1517.37 M192.446 1513.66 Q198.256 1513.66 201.312 1518.27 Q204.39 1522.85 204.39 1531.6 Q204.39 1540.33 201.312 1544.94 Q198.256 1549.52 192.446 1549.52 Q186.636 1549.52 183.557 1544.94 Q180.501 1540.33 180.501 1531.6 Q180.501 1522.85 183.557 1518.27 Q186.636 1513.66 192.446 1513.66 Z" fill="#000000" fill-rule="evenodd" fill-opacity="1" /><path clip-path="url(#clip770)" d="M212.608 1542.97 L217.492 1542.97 L217.492 1548.85 L212.608 1548.85 L212.608 1542.97 Z" fill="#000000" fill-rule="evenodd" fill-opacity="1" /><path clip-path="url(#clip770)" d="M231.705 1544.91 L248.024 1544.91 L248.024 1548.85 L226.08 1548.85 L226.08 1544.91 Q228.742 1542.16 233.325 1537.53 Q237.932 1532.88 239.112 1531.53 Q241.358 1529.01 242.237 1527.27 Q243.14 1525.51 243.14 1523.82 Q243.14 1521.07 241.196 1519.33 Q239.274 1517.6 236.172 1517.6 Q233.973 1517.6 231.52 1518.36 Q229.089 1519.13 226.311 1520.68 L226.311 1515.95 Q229.135 1514.82 231.589 1514.24 Q234.043 1513.66 236.08 1513.66 Q241.45 1513.66 244.645 1516.35 Q247.839 1519.03 247.839 1523.52 Q247.839 1525.65 247.029 1527.57 Q246.242 1529.47 244.135 1532.07 Q243.557 1532.74 240.455 1535.95 Q237.353 1539.15 231.705 1544.91 Z" fill="#000000" fill-rule="evenodd" fill-opacity="1" /><path clip-path="url(#clip770)" d="M762.54 1517.37 Q758.928 1517.37 757.1 1520.93 Q755.294 1524.47 755.294 1531.6 Q755.294 1538.71 757.1 1542.27 Q758.928 1545.82 762.54 1545.82 Q766.174 1545.82 767.979 1542.27 Q769.808 1538.71 769.808 1531.6 Q769.808 1524.47 767.979 1520.93 Q766.174 1517.37 762.54 1517.37 M762.54 1513.66 Q768.35 1513.66 771.405 1518.27 Q774.484 1522.85 774.484 1531.6 Q774.484 1540.33 771.405 1544.94 Q768.35 1549.52 762.54 1549.52 Q756.729 1549.52 753.651 1544.94 Q750.595 1540.33 750.595 1531.6 Q750.595 1522.85 753.651 1518.27 Q756.729 1513.66 762.54 1513.66 Z" fill="#000000" fill-rule="evenodd" fill-opacity="1" /><path clip-path="url(#clip770)" d="M782.701 1542.97 L787.586 1542.97 L787.586 1548.85 L782.701 1548.85 L782.701 1542.97 Z" fill="#000000" fill-rule="evenodd" fill-opacity="1" /><path clip-path="url(#clip770)" d="M810.618 1518.36 L798.812 1536.81 L810.618 1536.81 L810.618 1518.36 M809.391 1514.29 L815.271 1514.29 L815.271 1536.81 L820.201 1536.81 L820.201 1540.7 L815.271 1540.7 L815.271 1548.85 L810.618 1548.85 L810.618 1540.7 L795.016 1540.7 L795.016 1536.19 L809.391 1514.29 Z" fill="#000000" fill-rule="evenodd" fill-opacity="1" /><path clip-path="url(#clip770)" d="M1333.84 1517.37 Q1330.23 1517.37 1328.4 1520.93 Q1326.59 1524.47 1326.59 1531.6 Q1326.59 1538.71 1328.4 1542.27 Q1330.23 1545.82 1333.84 1545.82 Q1337.47 1545.82 1339.28 1542.27 Q1341.11 1538.71 1341.11 1531.6 Q1341.11 1524.47 1339.28 1520.93 Q1337.47 1517.37 1333.84 1517.37 M1333.84 1513.66 Q1339.65 1513.66 1342.7 1518.27 Q1345.78 1522.85 1345.78 1531.6 Q1345.78 1540.33 1342.7 1544.94 Q1339.65 1549.52 1333.84 1549.52 Q1328.03 1549.52 1324.95 1544.94 Q1321.89 1540.33 1321.89 1531.6 Q1321.89 1522.85 1324.95 1518.27 Q1328.03 1513.66 1333.84 1513.66 Z" fill="#000000" fill-rule="evenodd" fill-opacity="1" /><path clip-path="url(#clip770)" d="M1354 1542.97 L1358.88 1542.97 L1358.88 1548.85 L1354 1548.85 L1354 1542.97 Z" fill="#000000" fill-rule="evenodd" fill-opacity="1" /><path clip-path="url(#clip770)" d="M1379.65 1529.7 Q1376.5 1529.7 1374.65 1531.86 Q1372.82 1534.01 1372.82 1537.76 Q1372.82 1541.49 1374.65 1543.66 Q1376.5 1545.82 1379.65 1545.82 Q1382.79 1545.82 1384.62 1543.66 Q1386.48 1541.49 1386.48 1537.76 Q1386.48 1534.01 1384.62 1531.86 Q1382.79 1529.7 1379.65 1529.7 M1388.93 1515.05 L1388.93 1519.31 Q1387.17 1518.48 1385.36 1518.04 Q1383.58 1517.6 1381.82 1517.6 Q1377.19 1517.6 1374.74 1520.72 Q1372.31 1523.85 1371.96 1530.17 Q1373.33 1528.15 1375.39 1527.09 Q1377.45 1526 1379.92 1526 Q1385.13 1526 1388.14 1529.17 Q1391.17 1532.32 1391.17 1537.76 Q1391.17 1543.08 1388.03 1546.3 Q1384.88 1549.52 1379.65 1549.52 Q1373.65 1549.52 1370.48 1544.94 Q1367.31 1540.33 1367.31 1531.6 Q1367.31 1523.41 1371.2 1518.55 Q1375.09 1513.66 1381.64 1513.66 Q1383.4 1513.66 1385.18 1514.01 Q1386.98 1514.36 1388.93 1515.05 Z" fill="#000000" fill-rule="evenodd" fill-opacity="1" /><path clip-path="url(#clip770)" d="M1905.1 1517.37 Q1901.49 1517.37 1899.66 1520.93 Q1897.85 1524.47 1897.85 1531.6 Q1897.85 1538.71 1899.66 1542.27 Q1901.49 1545.82 1905.1 1545.82 Q1908.73 1545.82 1910.54 1542.27 Q1912.37 1538.71 1912.37 1531.6 Q1912.37 1524.47 1910.54 1520.93 Q1908.73 1517.37 1905.1 1517.37 M1905.1 1513.66 Q1910.91 1513.66 1913.97 1518.27 Q1917.04 1522.85 1917.04 1531.6 Q1917.04 1540.33 1913.97 1544.94 Q1910.91 1549.52 1905.1 1549.52 Q1899.29 1549.52 1896.21 1544.94 Q1893.16 1540.33 1893.16 1531.6 Q1893.16 1522.85 1896.21 1518.27 Q1899.29 1513.66 1905.1 1513.66 Z" fill="#000000" fill-rule="evenodd" fill-opacity="1" /><path clip-path="url(#clip770)" d="M1925.26 1542.97 L1930.15 1542.97 L1930.15 1548.85 L1925.26 1548.85 L1925.26 1542.97 Z" fill="#000000" fill-rule="evenodd" fill-opacity="1" /><path clip-path="url(#clip770)" d="M1950.33 1532.44 Q1947 1532.44 1945.08 1534.22 Q1943.18 1536 1943.18 1539.13 Q1943.18 1542.25 1945.08 1544.03 Q1947 1545.82 1950.33 1545.82 Q1953.66 1545.82 1955.59 1544.03 Q1957.51 1542.23 1957.51 1539.13 Q1957.51 1536 1955.59 1534.22 Q1953.69 1532.44 1950.33 1532.44 M1945.65 1530.45 Q1942.65 1529.7 1940.96 1527.64 Q1939.29 1525.58 1939.29 1522.62 Q1939.29 1518.48 1942.23 1516.07 Q1945.19 1513.66 1950.33 1513.66 Q1955.49 1513.66 1958.43 1516.07 Q1961.37 1518.48 1961.37 1522.62 Q1961.37 1525.58 1959.68 1527.64 Q1958.02 1529.7 1955.03 1530.45 Q1958.41 1531.23 1960.28 1533.52 Q1962.18 1535.82 1962.18 1539.13 Q1962.18 1544.15 1959.1 1546.83 Q1956.05 1549.52 1950.33 1549.52 Q1944.61 1549.52 1941.53 1546.83 Q1938.48 1544.15 1938.48 1539.13 Q1938.48 1535.82 1940.38 1533.52 Q1942.28 1531.23 1945.65 1530.45 M1943.94 1523.06 Q1943.94 1525.75 1945.61 1527.25 Q1947.3 1528.76 1950.33 1528.76 Q1953.34 1528.76 1955.03 1527.25 Q1956.74 1525.75 1956.74 1523.06 Q1956.74 1520.38 1955.03 1518.87 Q1953.34 1517.37 1950.33 1517.37 Q1947.3 1517.37 1945.61 1518.87 Q1943.94 1520.38 1943.94 1523.06 Z" fill="#000000" fill-rule="evenodd" fill-opacity="1" /><polyline clip-path="url(#clip772)" style="stroke:#000000; stroke-linecap:butt; stroke-linejoin:round; stroke-width:2; stroke-opacity:0.1; fill:none" points="
  156.598,1472.23 2352.76,1472.23 
  "/>
<polyline clip-path="url(#clip772)" style="stroke:#000000; stroke-linecap:butt; stroke-linejoin:round; stroke-width:2; stroke-opacity:0.1; fill:none" points="
  156.598,1182.83 2352.76,1182.83 
  "/>
<polyline clip-path="url(#clip772)" style="stroke:#000000; stroke-linecap:butt; stroke-linejoin:round; stroke-width:2; stroke-opacity:0.1; fill:none" points="
  156.598,893.429 2352.76,893.429 
  "/>
<polyline clip-path="url(#clip772)" style="stroke:#000000; stroke-linecap:butt; stroke-linejoin:round; stroke-width:2; stroke-opacity:0.1; fill:none" points="
  156.598,604.027 2352.76,604.027 
  "/>
<polyline clip-path="url(#clip772)" style="stroke:#000000; stroke-linecap:butt; stroke-linejoin:round; stroke-width:2; stroke-opacity:0.1; fill:none" points="
  156.598,314.626 2352.76,314.626 
  "/>
<polyline clip-path="url(#clip770)" style="stroke:#000000; stroke-linecap:butt; stroke-linejoin:round; stroke-width:4; stroke-opacity:1; fill:none" points="
  156.598,1486.45 156.598,47.2441 
  "/>
<polyline clip-path="url(#clip770)" style="stroke:#000000; stroke-linecap:butt; stroke-linejoin:round; stroke-width:4; stroke-opacity:1; fill:none" points="
  156.598,1472.23 175.496,1472.23 
  "/>
<polyline clip-path="url(#clip770)" style="stroke:#000000; stroke-linecap:butt; stroke-linejoin:round; stroke-width:4; stroke-opacity:1; fill:none" points="
  156.598,1182.83 175.496,1182.83 
  "/>
<polyline clip-path="url(#clip770)" style="stroke:#000000; stroke-linecap:butt; stroke-linejoin:round; stroke-width:4; stroke-opacity:1; fill:none" points="
  156.598,893.429 175.496,893.429 
  "/>
<polyline clip-path="url(#clip770)" style="stroke:#000000; stroke-linecap:butt; stroke-linejoin:round; stroke-width:4; stroke-opacity:1; fill:none" points="
  156.598,604.027 175.496,604.027 
  "/>
<polyline clip-path="url(#clip770)" style="stroke:#000000; stroke-linecap:butt; stroke-linejoin:round; stroke-width:4; stroke-opacity:1; fill:none" points="
  156.598,314.626 175.496,314.626 
  "/>
<path clip-path="url(#clip770)" d="M63.4226 1458.03 Q59.8115 1458.03 57.9828 1461.59 Q56.1773 1465.14 56.1773 1472.27 Q56.1773 1479.37 57.9828 1482.94 Q59.8115 1486.48 63.4226 1486.48 Q67.0569 1486.48 68.8624 1482.94 Q70.6911 1479.37 70.6911 1472.27 Q70.6911 1465.14 68.8624 1461.59 Q67.0569 1458.03 63.4226 1458.03 M63.4226 1454.33 Q69.2328 1454.33 72.2883 1458.93 Q75.367 1463.52 75.367 1472.27 Q75.367 1480.99 72.2883 1485.6 Q69.2328 1490.18 63.4226 1490.18 Q57.6125 1490.18 54.5338 1485.6 Q51.4782 1480.99 51.4782 1472.27 Q51.4782 1463.52 54.5338 1458.93 Q57.6125 1454.33 63.4226 1454.33 Z" fill="#000000" fill-rule="evenodd" fill-opacity="1" /><path clip-path="url(#clip770)" d="M83.5845 1483.63 L88.4688 1483.63 L88.4688 1489.51 L83.5845 1489.51 L83.5845 1483.63 Z" fill="#000000" fill-rule="evenodd" fill-opacity="1" /><path clip-path="url(#clip770)" d="M108.654 1458.03 Q105.043 1458.03 103.214 1461.59 Q101.409 1465.14 101.409 1472.27 Q101.409 1479.37 103.214 1482.94 Q105.043 1486.48 108.654 1486.48 Q112.288 1486.48 114.094 1482.94 Q115.922 1479.37 115.922 1472.27 Q115.922 1465.14 114.094 1461.59 Q112.288 1458.03 108.654 1458.03 M108.654 1454.33 Q114.464 1454.33 117.52 1458.93 Q120.598 1463.52 120.598 1472.27 Q120.598 1480.99 117.52 1485.6 Q114.464 1490.18 108.654 1490.18 Q102.844 1490.18 99.765 1485.6 Q96.7095 1480.99 96.7095 1472.27 Q96.7095 1463.52 99.765 1458.93 Q102.844 1454.33 108.654 1454.33 Z" fill="#000000" fill-rule="evenodd" fill-opacity="1" /><path clip-path="url(#clip770)" d="M65.0198 1168.63 Q61.4087 1168.63 59.58 1172.19 Q57.7745 1175.74 57.7745 1182.86 Q57.7745 1189.97 59.58 1193.54 Q61.4087 1197.08 65.0198 1197.08 Q68.6541 1197.08 70.4596 1193.54 Q72.2883 1189.97 72.2883 1182.86 Q72.2883 1175.74 70.4596 1172.19 Q68.6541 1168.63 65.0198 1168.63 M65.0198 1164.93 Q70.83 1164.93 73.8855 1169.53 Q76.9642 1174.11 76.9642 1182.86 Q76.9642 1191.59 73.8855 1196.2 Q70.83 1200.78 65.0198 1200.78 Q59.2097 1200.78 56.131 1196.2 Q53.0754 1191.59 53.0754 1182.86 Q53.0754 1174.11 56.131 1169.53 Q59.2097 1164.93 65.0198 1164.93 Z" fill="#000000" fill-rule="evenodd" fill-opacity="1" /><path clip-path="url(#clip770)" d="M85.1818 1194.23 L90.066 1194.23 L90.066 1200.11 L85.1818 1200.11 L85.1818 1194.23 Z" fill="#000000" fill-rule="evenodd" fill-opacity="1" /><path clip-path="url(#clip770)" d="M104.279 1196.17 L120.598 1196.17 L120.598 1200.11 L98.6539 1200.11 L98.6539 1196.17 Q101.316 1193.42 105.899 1188.79 Q110.506 1184.14 111.686 1182.8 Q113.932 1180.27 114.811 1178.54 Q115.714 1176.78 115.714 1175.09 Q115.714 1172.33 113.77 1170.6 Q111.848 1168.86 108.746 1168.86 Q106.547 1168.86 104.094 1169.62 Q101.663 1170.39 98.8854 1171.94 L98.8854 1167.22 Q101.709 1166.08 104.163 1165.5 Q106.617 1164.93 108.654 1164.93 Q114.024 1164.93 117.219 1167.61 Q120.413 1170.3 120.413 1174.79 Q120.413 1176.92 119.603 1178.84 Q118.816 1180.74 116.709 1183.33 Q116.131 1184 113.029 1187.22 Q109.927 1190.41 104.279 1196.17 Z" fill="#000000" fill-rule="evenodd" fill-opacity="1" /><path clip-path="url(#clip770)" d="M62.9365 879.227 Q59.3254 879.227 57.4967 882.792 Q55.6912 886.334 55.6912 893.464 Q55.6912 900.57 57.4967 904.135 Q59.3254 907.676 62.9365 907.676 Q66.5707 907.676 68.3763 904.135 Q70.205 900.57 70.205 893.464 Q70.205 886.334 68.3763 882.792 Q66.5707 879.227 62.9365 879.227 M62.9365 875.524 Q68.7467 875.524 71.8022 880.13 Q74.8809 884.714 74.8809 893.464 Q74.8809 902.19 71.8022 906.797 Q68.7467 911.38 62.9365 911.38 Q57.1264 911.38 54.0477 906.797 Q50.9921 902.19 50.9921 893.464 Q50.9921 884.714 54.0477 880.13 Q57.1264 875.524 62.9365 875.524 Z" fill="#000000" fill-rule="evenodd" fill-opacity="1" /><path clip-path="url(#clip770)" d="M83.0984 904.829 L87.9827 904.829 L87.9827 910.709 L83.0984 910.709 L83.0984 904.829 Z" fill="#000000" fill-rule="evenodd" fill-opacity="1" /><path clip-path="url(#clip770)" d="M111.015 880.223 L99.2095 898.672 L111.015 898.672 L111.015 880.223 M109.788 876.149 L115.668 876.149 L115.668 898.672 L120.598 898.672 L120.598 902.561 L115.668 902.561 L115.668 910.709 L111.015 910.709 L111.015 902.561 L95.4132 902.561 L95.4132 898.047 L109.788 876.149 Z" fill="#000000" fill-rule="evenodd" fill-opacity="1" /><path clip-path="url(#clip770)" d="M63.2606 589.826 Q59.6495 589.826 57.8208 593.391 Q56.0152 596.933 56.0152 604.062 Q56.0152 611.169 57.8208 614.733 Q59.6495 618.275 63.2606 618.275 Q66.8948 618.275 68.7004 614.733 Q70.5291 611.169 70.5291 604.062 Q70.5291 596.933 68.7004 593.391 Q66.8948 589.826 63.2606 589.826 M63.2606 586.122 Q69.0707 586.122 72.1263 590.729 Q75.205 595.312 75.205 604.062 Q75.205 612.789 72.1263 617.395 Q69.0707 621.979 63.2606 621.979 Q57.4504 621.979 54.3717 617.395 Q51.3162 612.789 51.3162 604.062 Q51.3162 595.312 54.3717 590.729 Q57.4504 586.122 63.2606 586.122 Z" fill="#000000" fill-rule="evenodd" fill-opacity="1" /><path clip-path="url(#clip770)" d="M83.4225 615.428 L88.3067 615.428 L88.3067 621.307 L83.4225 621.307 L83.4225 615.428 Z" fill="#000000" fill-rule="evenodd" fill-opacity="1" /><path clip-path="url(#clip770)" d="M109.071 602.164 Q105.922 602.164 104.071 604.317 Q102.242 606.47 102.242 610.22 Q102.242 613.946 104.071 616.122 Q105.922 618.275 109.071 618.275 Q112.219 618.275 114.047 616.122 Q115.899 613.946 115.899 610.22 Q115.899 606.47 114.047 604.317 Q112.219 602.164 109.071 602.164 M118.353 587.511 L118.353 591.771 Q116.594 590.937 114.788 590.497 Q113.006 590.058 111.246 590.058 Q106.617 590.058 104.163 593.183 Q101.733 596.308 101.385 602.627 Q102.751 600.613 104.811 599.548 Q106.871 598.46 109.348 598.46 Q114.557 598.46 117.566 601.632 Q120.598 604.78 120.598 610.22 Q120.598 615.544 117.45 618.761 Q114.302 621.979 109.071 621.979 Q103.075 621.979 99.9039 617.395 Q96.7326 612.789 96.7326 604.062 Q96.7326 595.868 100.621 591.007 Q104.51 586.122 111.061 586.122 Q112.82 586.122 114.603 586.47 Q116.408 586.817 118.353 587.511 Z" fill="#000000" fill-rule="evenodd" fill-opacity="1" /><path clip-path="url(#clip770)" d="M63.5152 300.425 Q59.9041 300.425 58.0754 303.99 Q56.2699 307.531 56.2699 314.661 Q56.2699 321.767 58.0754 325.332 Q59.9041 328.874 63.5152 328.874 Q67.1494 328.874 68.955 325.332 Q70.7837 321.767 70.7837 314.661 Q70.7837 307.531 68.955 303.99 Q67.1494 300.425 63.5152 300.425 M63.5152 296.721 Q69.3254 296.721 72.3809 301.328 Q75.4596 305.911 75.4596 314.661 Q75.4596 323.388 72.3809 327.994 Q69.3254 332.577 63.5152 332.577 Q57.7051 332.577 54.6264 327.994 Q51.5708 323.388 51.5708 314.661 Q51.5708 305.911 54.6264 301.328 Q57.7051 296.721 63.5152 296.721 Z" fill="#000000" fill-rule="evenodd" fill-opacity="1" /><path clip-path="url(#clip770)" d="M83.6771 326.027 L88.5614 326.027 L88.5614 331.906 L83.6771 331.906 L83.6771 326.027 Z" fill="#000000" fill-rule="evenodd" fill-opacity="1" /><path clip-path="url(#clip770)" d="M108.746 315.494 Q105.413 315.494 103.492 317.277 Q101.594 319.059 101.594 322.184 Q101.594 325.309 103.492 327.091 Q105.413 328.874 108.746 328.874 Q112.08 328.874 114.001 327.091 Q115.922 325.286 115.922 322.184 Q115.922 319.059 114.001 317.277 Q112.103 315.494 108.746 315.494 M104.071 313.503 Q101.061 312.763 99.3715 310.703 Q97.7048 308.642 97.7048 305.679 Q97.7048 301.536 100.645 299.129 Q103.608 296.721 108.746 296.721 Q113.908 296.721 116.848 299.129 Q119.788 301.536 119.788 305.679 Q119.788 308.642 118.098 310.703 Q116.432 312.763 113.445 313.503 Q116.825 314.291 118.7 316.582 Q120.598 318.874 120.598 322.184 Q120.598 327.207 117.52 329.892 Q114.464 332.577 108.746 332.577 Q103.029 332.577 99.9502 329.892 Q96.8947 327.207 96.8947 322.184 Q96.8947 318.874 98.7928 316.582 Q100.691 314.291 104.071 313.503 M102.358 306.119 Q102.358 308.804 104.024 310.309 Q105.714 311.814 108.746 311.814 Q111.756 311.814 113.445 310.309 Q115.158 308.804 115.158 306.119 Q115.158 303.434 113.445 301.929 Q111.756 300.425 108.746 300.425 Q105.714 300.425 104.024 301.929 Q102.358 303.434 102.358 306.119 Z" fill="#000000" fill-rule="evenodd" fill-opacity="1" /><polyline clip-path="url(#clip772)" style="stroke:#009af9; stroke-linecap:butt; stroke-linejoin:round; stroke-width:4; stroke-opacity:1; fill:none" points="
  253.08,525.887 2064.16,942.709 218.754,887.409 1750.62,87.9763 560.306,610.964 1255.61,1445.72 2090.21,1342.13 1725.4,1124.11 1121.32,657.44 2290.6,1411.65 
  
  "/>
<path clip-path="url(#clip770)" d="
M1987.12 198.898 L2279.55 198.898 L2279.55 95.2176 L1987.12 95.2176  Z
  " fill="#ffffff" fill-rule="evenodd" fill-opacity="1"/>
<polyline clip-path="url(#clip770)" style="stroke:#000000; stroke-linecap:butt; stroke-linejoin:round; stroke-width:4; stroke-opacity:1; fill:none" points="
  1987.12,198.898 2279.55,198.898 2279.55,95.2176 1987.12,95.2176 1987.12,198.898 
  "/>
<polyline clip-path="url(#clip770)" style="stroke:#009af9; stroke-linecap:butt; stroke-linejoin:round; stroke-width:4; stroke-opacity:1; fill:none" points="
  2011.12,147.058 2155.12,147.058 
  "/>
<path clip-path="url(#clip770)" d="M2192.96 166.745 Q2191.16 171.375 2189.44 172.787 Q2187.73 174.199 2184.86 174.199 L2181.46 174.199 L2181.46 170.634 L2183.96 170.634 Q2185.72 170.634 2186.69 169.8 Q2187.66 168.967 2188.84 165.865 L2189.61 163.921 L2179.12 138.412 L2183.63 138.412 L2191.74 158.689 L2199.84 138.412 L2204.35 138.412 L2192.96 166.745 Z" fill="#000000" fill-rule="evenodd" fill-opacity="1" /><path clip-path="url(#clip770)" d="M2211.64 160.402 L2219.28 160.402 L2219.28 134.037 L2210.97 135.703 L2210.97 131.444 L2219.24 129.778 L2223.91 129.778 L2223.91 160.402 L2231.55 160.402 L2231.55 164.338 L2211.64 164.338 L2211.64 160.402 Z" fill="#000000" fill-rule="evenodd" fill-opacity="1" /></svg>
