<?xml version="1.0" encoding="utf-8"?>
<svg xmlns="http://www.w3.org/2000/svg" xmlns:xlink="http://www.w3.org/1999/xlink" width="600" height="400" viewBox="0 0 2400 1600">
<defs>
  <clipPath id="clip620">
    <rect x="0" y="0" width="2400" height="1600"/>
  </clipPath>
</defs>
<path clip-path="url(#clip620)" d="
M0 1600 L2400 1600 L2400 0 L0 0  Z
  " fill="#ffffff" fill-rule="evenodd" fill-opacity="1"/>
<defs>
  <clipPath id="clip621">
    <rect x="480" y="0" width="1681" height="1600"/>
  </clipPath>
</defs>
<path clip-path="url(#clip620)" d="
M156.598 1486.45 L2352.76 1486.45 L2352.76 47.2441 L156.598 47.2441  Z
  " fill="#ffffff" fill-rule="evenodd" fill-opacity="1"/>
<defs>
  <clipPath id="clip622">
    <rect x="156" y="47" width="2197" height="1440"/>
  </clipPath>
</defs>
<polyline clip-path="url(#clip622)" style="stroke:#000000; stroke-linecap:butt; stroke-linejoin:round; stroke-width:2; stroke-opacity:0.1; fill:none" points="
  206.14,1486.45 206.14,47.2441 
  "/>
<polyline clip-path="url(#clip622)" style="stroke:#000000; stroke-linecap:butt; stroke-linejoin:round; stroke-width:2; stroke-opacity:0.1; fill:none" points="
  732.982,1486.45 732.982,47.2441 
  "/>
<polyline clip-path="url(#clip622)" style="stroke:#000000; stroke-linecap:butt; stroke-linejoin:round; stroke-width:2; stroke-opacity:0.1; fill:none" points="
  1259.82,1486.45 1259.82,47.2441 
  "/>
<polyline clip-path="url(#clip622)" style="stroke:#000000; stroke-linecap:butt; stroke-linejoin:round; stroke-width:2; stroke-opacity:0.1; fill:none" points="
  1786.67,1486.45 1786.67,47.2441 
  "/>
<polyline clip-path="url(#clip622)" style="stroke:#000000; stroke-linecap:butt; stroke-linejoin:round; stroke-width:2; stroke-opacity:0.1; fill:none" points="
  2313.51,1486.45 2313.51,47.2441 
  "/>
<polyline clip-path="url(#clip620)" style="stroke:#000000; stroke-linecap:butt; stroke-linejoin:round; stroke-width:4; stroke-opacity:1; fill:none" points="
  156.598,1486.45 2352.76,1486.45 
  "/>
<polyline clip-path="url(#clip620)" style="stroke:#000000; stroke-linecap:butt; stroke-linejoin:round; stroke-width:4; stroke-opacity:1; fill:none" points="
  206.14,1486.45 206.14,1467.55 
  "/>
<polyline clip-path="url(#clip620)" style="stroke:#000000; stroke-linecap:butt; stroke-linejoin:round; stroke-width:4; stroke-opacity:1; fill:none" points="
  732.982,1486.45 732.982,1467.55 
  "/>
<polyline clip-path="url(#clip620)" style="stroke:#000000; stroke-linecap:butt; stroke-linejoin:round; stroke-width:4; stroke-opacity:1; fill:none" points="
  1259.82,1486.45 1259.82,1467.55 
  "/>
<polyline clip-path="url(#clip620)" style="stroke:#000000; stroke-linecap:butt; stroke-linejoin:round; stroke-width:4; stroke-opacity:1; fill:none" points="
  1786.67,1486.45 1786.67,1467.55 
  "/>
<polyline clip-path="url(#clip620)" style="stroke:#000000; stroke-linecap:butt; stroke-linejoin:round; stroke-width:4; stroke-opacity:1; fill:none" points="
  2313.51,1486.45 2313.51,1467.55 
  "/>
<path clip-path="url(#clip620)" d="M168.443 1517.37 Q164.832 1517.37 163.004 1520.93 Q161.198 1524.47 161.198 1531.6 Q161.198 1538.71 163.004 1542.27 Q164.832 1545.82 168.443 1545.82 Q172.078 1545.82 173.883 1542.27 Q175.712 1538.71 175.712 1531.6 Q175.712 1524.47 173.883 1520.93 Q172.078 1517.37 168.443 1517.37 M168.443 1513.66 Q174.254 1513.66 177.309 1518.27 Q180.388 1522.85 180.388 1531.6 Q180.388 1540.33 177.309 1544.94 Q174.254 1549.52 168.443 1549.52 Q162.633 1549.52 159.555 1544.94 Q156.499 1540.33 156.499 1531.6 Q156.499 1522.85 159.555 1518.27 Q162.633 1513.66 168.443 1513.66 Z" fill="#000000" fill-rule="evenodd" fill-opacity="1" /><path clip-path="url(#clip620)" d="M188.605 1542.97 L193.49 1542.97 L193.49 1548.85 L188.605 1548.85 L188.605 1542.97 Z" fill="#000000" fill-rule="evenodd" fill-opacity="1" /><path clip-path="url(#clip620)" d="M213.675 1517.37 Q210.064 1517.37 208.235 1520.93 Q206.429 1524.47 206.429 1531.6 Q206.429 1538.71 208.235 1542.27 Q210.064 1545.82 213.675 1545.82 Q217.309 1545.82 219.114 1542.27 Q220.943 1538.71 220.943 1531.6 Q220.943 1524.47 219.114 1520.93 Q217.309 1517.37 213.675 1517.37 M213.675 1513.66 Q219.485 1513.66 222.54 1518.27 Q225.619 1522.85 225.619 1531.6 Q225.619 1540.33 222.54 1544.94 Q219.485 1549.52 213.675 1549.52 Q207.864 1549.52 204.786 1544.94 Q201.73 1540.33 201.73 1531.6 Q201.73 1522.85 204.786 1518.27 Q207.864 1513.66 213.675 1513.66 Z" fill="#000000" fill-rule="evenodd" fill-opacity="1" /><path clip-path="url(#clip620)" d="M243.836 1517.37 Q240.225 1517.37 238.397 1520.93 Q236.591 1524.47 236.591 1531.6 Q236.591 1538.71 238.397 1542.27 Q240.225 1545.82 243.836 1545.82 Q247.471 1545.82 249.276 1542.27 Q251.105 1538.71 251.105 1531.6 Q251.105 1524.47 249.276 1520.93 Q247.471 1517.37 243.836 1517.37 M243.836 1513.66 Q249.647 1513.66 252.702 1518.27 Q255.781 1522.85 255.781 1531.6 Q255.781 1540.33 252.702 1544.94 Q249.647 1549.52 243.836 1549.52 Q238.026 1549.52 234.948 1544.94 Q231.892 1540.33 231.892 1531.6 Q231.892 1522.85 234.948 1518.27 Q238.026 1513.66 243.836 1513.66 Z" fill="#000000" fill-rule="evenodd" fill-opacity="1" /><path clip-path="url(#clip620)" d="M695.784 1517.37 Q692.172 1517.37 690.344 1520.93 Q688.538 1524.47 688.538 1531.6 Q688.538 1538.71 690.344 1542.27 Q692.172 1545.82 695.784 1545.82 Q699.418 1545.82 701.223 1542.27 Q703.052 1538.71 703.052 1531.6 Q703.052 1524.47 701.223 1520.93 Q699.418 1517.37 695.784 1517.37 M695.784 1513.66 Q701.594 1513.66 704.649 1518.27 Q707.728 1522.85 707.728 1531.6 Q707.728 1540.33 704.649 1544.94 Q701.594 1549.52 695.784 1549.52 Q689.973 1549.52 686.895 1544.94 Q683.839 1540.33 683.839 1531.6 Q683.839 1522.85 686.895 1518.27 Q689.973 1513.66 695.784 1513.66 Z" fill="#000000" fill-rule="evenodd" fill-opacity="1" /><path clip-path="url(#clip620)" d="M715.946 1542.97 L720.83 1542.97 L720.83 1548.85 L715.946 1548.85 L715.946 1542.97 Z" fill="#000000" fill-rule="evenodd" fill-opacity="1" /><path clip-path="url(#clip620)" d="M735.043 1544.91 L751.362 1544.91 L751.362 1548.85 L729.418 1548.85 L729.418 1544.91 Q732.08 1542.16 736.663 1537.53 Q741.269 1532.88 742.45 1531.53 Q744.695 1529.01 745.575 1527.27 Q746.478 1525.51 746.478 1523.82 Q746.478 1521.07 744.533 1519.33 Q742.612 1517.6 739.51 1517.6 Q737.311 1517.6 734.857 1518.36 Q732.427 1519.13 729.649 1520.68 L729.649 1515.95 Q732.473 1514.82 734.927 1514.24 Q737.381 1513.66 739.418 1513.66 Q744.788 1513.66 747.982 1516.35 Q751.177 1519.03 751.177 1523.52 Q751.177 1525.65 750.367 1527.57 Q749.58 1529.47 747.473 1532.07 Q746.894 1532.74 743.793 1535.95 Q740.691 1539.15 735.043 1544.91 Z" fill="#000000" fill-rule="evenodd" fill-opacity="1" /><path clip-path="url(#clip620)" d="M761.223 1514.29 L779.579 1514.29 L779.579 1518.22 L765.505 1518.22 L765.505 1526.7 Q766.524 1526.35 767.542 1526.19 Q768.561 1526 769.579 1526 Q775.366 1526 778.746 1529.17 Q782.126 1532.34 782.126 1537.76 Q782.126 1543.34 778.654 1546.44 Q775.181 1549.52 768.862 1549.52 Q766.686 1549.52 764.417 1549.15 Q762.172 1548.78 759.765 1548.04 L759.765 1543.34 Q761.848 1544.47 764.07 1545.03 Q766.292 1545.58 768.769 1545.58 Q772.774 1545.58 775.112 1543.48 Q777.45 1541.37 777.45 1537.76 Q777.45 1534.15 775.112 1532.04 Q772.774 1529.94 768.769 1529.94 Q766.894 1529.94 765.019 1530.35 Q763.167 1530.77 761.223 1531.65 L761.223 1514.29 Z" fill="#000000" fill-rule="evenodd" fill-opacity="1" /><path clip-path="url(#clip620)" d="M1222.13 1517.37 Q1218.52 1517.37 1216.69 1520.93 Q1214.88 1524.47 1214.88 1531.6 Q1214.88 1538.71 1216.69 1542.27 Q1218.52 1545.82 1222.13 1545.82 Q1225.76 1545.82 1227.57 1542.27 Q1229.4 1538.71 1229.4 1531.6 Q1229.4 1524.47 1227.57 1520.93 Q1225.76 1517.37 1222.13 1517.37 M1222.13 1513.66 Q1227.94 1513.66 1230.99 1518.27 Q1234.07 1522.85 1234.07 1531.6 Q1234.07 1540.33 1230.99 1544.94 Q1227.94 1549.52 1222.13 1549.52 Q1216.32 1549.52 1213.24 1544.94 Q1210.18 1540.33 1210.18 1531.6 Q1210.18 1522.85 1213.24 1518.27 Q1216.32 1513.66 1222.13 1513.66 Z" fill="#000000" fill-rule="evenodd" fill-opacity="1" /><path clip-path="url(#clip620)" d="M1242.29 1542.97 L1247.17 1542.97 L1247.17 1548.85 L1242.29 1548.85 L1242.29 1542.97 Z" fill="#000000" fill-rule="evenodd" fill-opacity="1" /><path clip-path="url(#clip620)" d="M1257.41 1514.29 L1275.76 1514.29 L1275.76 1518.22 L1261.69 1518.22 L1261.69 1526.7 Q1262.71 1526.35 1263.73 1526.19 Q1264.74 1526 1265.76 1526 Q1271.55 1526 1274.93 1529.17 Q1278.31 1532.34 1278.31 1537.76 Q1278.31 1543.34 1274.84 1546.44 Q1271.36 1549.52 1265.04 1549.52 Q1262.87 1549.52 1260.6 1549.15 Q1258.36 1548.78 1255.95 1548.04 L1255.95 1543.34 Q1258.03 1544.47 1260.25 1545.03 Q1262.48 1545.58 1264.95 1545.58 Q1268.96 1545.58 1271.29 1543.48 Q1273.63 1541.37 1273.63 1537.76 Q1273.63 1534.15 1271.29 1532.04 Q1268.96 1529.94 1264.95 1529.94 Q1263.08 1529.94 1261.2 1530.35 Q1259.35 1530.77 1257.41 1531.65 L1257.41 1514.29 Z" fill="#000000" fill-rule="evenodd" fill-opacity="1" /><path clip-path="url(#clip620)" d="M1297.52 1517.37 Q1293.91 1517.37 1292.08 1520.93 Q1290.28 1524.47 1290.28 1531.6 Q1290.28 1538.71 1292.08 1542.27 Q1293.91 1545.82 1297.52 1545.82 Q1301.16 1545.82 1302.96 1542.27 Q1304.79 1538.71 1304.79 1531.6 Q1304.79 1524.47 1302.96 1520.93 Q1301.16 1517.37 1297.52 1517.37 M1297.52 1513.66 Q1303.33 1513.66 1306.39 1518.27 Q1309.47 1522.85 1309.47 1531.6 Q1309.47 1540.33 1306.39 1544.94 Q1303.33 1549.52 1297.52 1549.52 Q1291.71 1549.52 1288.63 1544.94 Q1285.58 1540.33 1285.58 1531.6 Q1285.58 1522.85 1288.63 1518.27 Q1291.71 1513.66 1297.52 1513.66 Z" fill="#000000" fill-rule="evenodd" fill-opacity="1" /><path clip-path="url(#clip620)" d="M1749.47 1517.37 Q1745.86 1517.37 1744.03 1520.93 Q1742.22 1524.47 1742.22 1531.6 Q1742.22 1538.71 1744.03 1542.27 Q1745.86 1545.82 1749.47 1545.82 Q1753.1 1545.82 1754.91 1542.27 Q1756.74 1538.71 1756.74 1531.6 Q1756.74 1524.47 1754.91 1520.93 Q1753.1 1517.37 1749.47 1517.37 M1749.47 1513.66 Q1755.28 1513.66 1758.33 1518.27 Q1761.41 1522.85 1761.41 1531.6 Q1761.41 1540.33 1758.33 1544.94 Q1755.28 1549.52 1749.47 1549.52 Q1743.66 1549.52 1740.58 1544.94 Q1737.52 1540.33 1737.52 1531.6 Q1737.52 1522.85 1740.58 1518.27 Q1743.66 1513.66 1749.47 1513.66 Z" fill="#000000" fill-rule="evenodd" fill-opacity="1" /><path clip-path="url(#clip620)" d="M1769.63 1542.97 L1774.51 1542.97 L1774.51 1548.85 L1769.63 1548.85 L1769.63 1542.97 Z" fill="#000000" fill-rule="evenodd" fill-opacity="1" /><path clip-path="url(#clip620)" d="M1783.52 1514.29 L1805.74 1514.29 L1805.74 1516.28 L1793.2 1548.85 L1788.31 1548.85 L1800.12 1518.22 L1783.52 1518.22 L1783.52 1514.29 Z" fill="#000000" fill-rule="evenodd" fill-opacity="1" /><path clip-path="url(#clip620)" d="M1814.91 1514.29 L1833.26 1514.29 L1833.26 1518.22 L1819.19 1518.22 L1819.19 1526.7 Q1820.21 1526.35 1821.23 1526.19 Q1822.25 1526 1823.26 1526 Q1829.05 1526 1832.43 1529.17 Q1835.81 1532.34 1835.81 1537.76 Q1835.81 1543.34 1832.34 1546.44 Q1828.87 1549.52 1822.55 1549.52 Q1820.37 1549.52 1818.1 1549.15 Q1815.86 1548.78 1813.45 1548.04 L1813.45 1543.34 Q1815.53 1544.47 1817.76 1545.03 Q1819.98 1545.58 1822.45 1545.58 Q1826.46 1545.58 1828.8 1543.48 Q1831.13 1541.37 1831.13 1537.76 Q1831.13 1534.15 1828.8 1532.04 Q1826.46 1529.94 1822.45 1529.94 Q1820.58 1529.94 1818.7 1530.35 Q1816.85 1530.77 1814.91 1531.65 L1814.91 1514.29 Z" fill="#000000" fill-rule="evenodd" fill-opacity="1" /><path clip-path="url(#clip620)" d="M2265.58 1544.91 L2273.22 1544.91 L2273.22 1518.55 L2264.91 1520.21 L2264.91 1515.95 L2273.17 1514.29 L2277.85 1514.29 L2277.85 1544.91 L2285.49 1544.91 L2285.49 1548.85 L2265.58 1548.85 L2265.58 1544.91 Z" fill="#000000" fill-rule="evenodd" fill-opacity="1" /><path clip-path="url(#clip620)" d="M2294.93 1542.97 L2299.82 1542.97 L2299.82 1548.85 L2294.93 1548.85 L2294.93 1542.97 Z" fill="#000000" fill-rule="evenodd" fill-opacity="1" /><path clip-path="url(#clip620)" d="M2320 1517.37 Q2316.39 1517.37 2314.56 1520.93 Q2312.76 1524.47 2312.76 1531.6 Q2312.76 1538.71 2314.56 1542.27 Q2316.39 1545.82 2320 1545.82 Q2323.64 1545.82 2325.44 1542.27 Q2327.27 1538.71 2327.27 1531.6 Q2327.27 1524.47 2325.44 1520.93 Q2323.64 1517.37 2320 1517.37 M2320 1513.66 Q2325.81 1513.66 2328.87 1518.27 Q2331.95 1522.85 2331.95 1531.6 Q2331.95 1540.33 2328.87 1544.94 Q2325.81 1549.52 2320 1549.52 Q2314.19 1549.52 2311.11 1544.94 Q2308.06 1540.33 2308.06 1531.6 Q2308.06 1522.85 2311.11 1518.27 Q2314.19 1513.66 2320 1513.66 Z" fill="#000000" fill-rule="evenodd" fill-opacity="1" /><path clip-path="url(#clip620)" d="M2350.16 1517.37 Q2346.55 1517.37 2344.73 1520.93 Q2342.92 1524.47 2342.92 1531.6 Q2342.92 1538.71 2344.73 1542.27 Q2346.55 1545.82 2350.16 1545.82 Q2353.8 1545.82 2355.6 1542.27 Q2357.43 1538.71 2357.43 1531.6 Q2357.43 1524.47 2355.6 1520.93 Q2353.8 1517.37 2350.16 1517.37 M2350.16 1513.66 Q2355.98 1513.66 2359.03 1518.27 Q2362.11 1522.85 2362.11 1531.6 Q2362.11 1540.33 2359.03 1544.94 Q2355.98 1549.52 2350.16 1549.52 Q2344.35 1549.52 2341.28 1544.94 Q2338.22 1540.33 2338.22 1531.6 Q2338.22 1522.85 2341.28 1518.27 Q2344.35 1513.66 2350.16 1513.66 Z" fill="#000000" fill-rule="evenodd" fill-opacity="1" /><polyline clip-path="url(#clip622)" style="stroke:#000000; stroke-linecap:butt; stroke-linejoin:round; stroke-width:2; stroke-opacity:0.1; fill:none" points="
  156.598,1211.16 2352.76,1211.16 
  "/>
<polyline clip-path="url(#clip622)" style="stroke:#000000; stroke-linecap:butt; stroke-linejoin:round; stroke-width:2; stroke-opacity:0.1; fill:none" points="
  156.598,895.78 2352.76,895.78 
  "/>
<polyline clip-path="url(#clip622)" style="stroke:#000000; stroke-linecap:butt; stroke-linejoin:round; stroke-width:2; stroke-opacity:0.1; fill:none" points="
  156.598,580.402 2352.76,580.402 
  "/>
<polyline clip-path="url(#clip622)" style="stroke:#000000; stroke-linecap:butt; stroke-linejoin:round; stroke-width:2; stroke-opacity:0.1; fill:none" points="
  156.598,265.025 2352.76,265.025 
  "/>
<polyline clip-path="url(#clip620)" style="stroke:#000000; stroke-linecap:butt; stroke-linejoin:round; stroke-width:4; stroke-opacity:1; fill:none" points="
  156.598,1486.45 156.598,47.2441 
  "/>
<polyline clip-path="url(#clip620)" style="stroke:#000000; stroke-linecap:butt; stroke-linejoin:round; stroke-width:4; stroke-opacity:1; fill:none" points="
  156.598,1211.16 175.496,1211.16 
  "/>
<polyline clip-path="url(#clip620)" style="stroke:#000000; stroke-linecap:butt; stroke-linejoin:round; stroke-width:4; stroke-opacity:1; fill:none" points="
  156.598,895.78 175.496,895.78 
  "/>
<polyline clip-path="url(#clip620)" style="stroke:#000000; stroke-linecap:butt; stroke-linejoin:round; stroke-width:4; stroke-opacity:1; fill:none" points="
  156.598,580.402 175.496,580.402 
  "/>
<polyline clip-path="url(#clip620)" style="stroke:#000000; stroke-linecap:butt; stroke-linejoin:round; stroke-width:4; stroke-opacity:1; fill:none" points="
  156.598,265.025 175.496,265.025 
  "/>
<path clip-path="url(#clip620)" d="M65.0198 1196.96 Q61.4087 1196.96 59.58 1200.52 Q57.7745 1204.06 57.7745 1211.19 Q57.7745 1218.3 59.58 1221.86 Q61.4087 1225.4 65.0198 1225.4 Q68.6541 1225.4 70.4596 1221.86 Q72.2883 1218.3 72.2883 1211.19 Q72.2883 1204.06 70.4596 1200.52 Q68.6541 1196.96 65.0198 1196.96 M65.0198 1193.25 Q70.83 1193.25 73.8855 1197.86 Q76.9642 1202.44 76.9642 1211.19 Q76.9642 1219.92 73.8855 1224.52 Q70.83 1229.11 65.0198 1229.11 Q59.2097 1229.11 56.131 1224.52 Q53.0754 1219.92 53.0754 1211.19 Q53.0754 1202.44 56.131 1197.86 Q59.2097 1193.25 65.0198 1193.25 Z" fill="#000000" fill-rule="evenodd" fill-opacity="1" /><path clip-path="url(#clip620)" d="M85.1818 1222.56 L90.066 1222.56 L90.066 1228.44 L85.1818 1228.44 L85.1818 1222.56 Z" fill="#000000" fill-rule="evenodd" fill-opacity="1" /><path clip-path="url(#clip620)" d="M104.279 1224.5 L120.598 1224.5 L120.598 1228.44 L98.6539 1228.44 L98.6539 1224.5 Q101.316 1221.75 105.899 1217.12 Q110.506 1212.46 111.686 1211.12 Q113.932 1208.6 114.811 1206.86 Q115.714 1205.1 115.714 1203.41 Q115.714 1200.66 113.77 1198.92 Q111.848 1197.19 108.746 1197.19 Q106.547 1197.19 104.094 1197.95 Q101.663 1198.71 98.8854 1200.27 L98.8854 1195.54 Q101.709 1194.41 104.163 1193.83 Q106.617 1193.25 108.654 1193.25 Q114.024 1193.25 117.219 1195.94 Q120.413 1198.62 120.413 1203.11 Q120.413 1205.24 119.603 1207.16 Q118.816 1209.06 116.709 1211.65 Q116.131 1212.33 113.029 1215.54 Q109.927 1218.74 104.279 1224.5 Z" fill="#000000" fill-rule="evenodd" fill-opacity="1" /><path clip-path="url(#clip620)" d="M62.9365 881.578 Q59.3254 881.578 57.4967 885.143 Q55.6912 888.685 55.6912 895.814 Q55.6912 902.921 57.4967 906.486 Q59.3254 910.027 62.9365 910.027 Q66.5707 910.027 68.3763 906.486 Q70.205 902.921 70.205 895.814 Q70.205 888.685 68.3763 885.143 Q66.5707 881.578 62.9365 881.578 M62.9365 877.875 Q68.7467 877.875 71.8022 882.481 Q74.8809 887.064 74.8809 895.814 Q74.8809 904.541 71.8022 909.148 Q68.7467 913.731 62.9365 913.731 Q57.1264 913.731 54.0477 909.148 Q50.9921 904.541 50.9921 895.814 Q50.9921 887.064 54.0477 882.481 Q57.1264 877.875 62.9365 877.875 Z" fill="#000000" fill-rule="evenodd" fill-opacity="1" /><path clip-path="url(#clip620)" d="M83.0984 907.18 L87.9827 907.18 L87.9827 913.06 L83.0984 913.06 L83.0984 907.18 Z" fill="#000000" fill-rule="evenodd" fill-opacity="1" /><path clip-path="url(#clip620)" d="M111.015 882.574 L99.2095 901.023 L111.015 901.023 L111.015 882.574 M109.788 878.5 L115.668 878.5 L115.668 901.023 L120.598 901.023 L120.598 904.912 L115.668 904.912 L115.668 913.06 L111.015 913.06 L111.015 904.912 L95.4132 904.912 L95.4132 900.398 L109.788 878.5 Z" fill="#000000" fill-rule="evenodd" fill-opacity="1" /><path clip-path="url(#clip620)" d="M63.2606 566.201 Q59.6495 566.201 57.8208 569.766 Q56.0152 573.307 56.0152 580.437 Q56.0152 587.543 57.8208 591.108 Q59.6495 594.65 63.2606 594.65 Q66.8948 594.65 68.7004 591.108 Q70.5291 587.543 70.5291 580.437 Q70.5291 573.307 68.7004 569.766 Q66.8948 566.201 63.2606 566.201 M63.2606 562.497 Q69.0707 562.497 72.1263 567.104 Q75.205 571.687 75.205 580.437 Q75.205 589.164 72.1263 593.77 Q69.0707 598.354 63.2606 598.354 Q57.4504 598.354 54.3717 593.77 Q51.3162 589.164 51.3162 580.437 Q51.3162 571.687 54.3717 567.104 Q57.4504 562.497 63.2606 562.497 Z" fill="#000000" fill-rule="evenodd" fill-opacity="1" /><path clip-path="url(#clip620)" d="M83.4225 591.803 L88.3067 591.803 L88.3067 597.682 L83.4225 597.682 L83.4225 591.803 Z" fill="#000000" fill-rule="evenodd" fill-opacity="1" /><path clip-path="url(#clip620)" d="M109.071 578.539 Q105.922 578.539 104.071 580.692 Q102.242 582.844 102.242 586.594 Q102.242 590.321 104.071 592.497 Q105.922 594.65 109.071 594.65 Q112.219 594.65 114.047 592.497 Q115.899 590.321 115.899 586.594 Q115.899 582.844 114.047 580.692 Q112.219 578.539 109.071 578.539 M118.353 563.886 L118.353 568.145 Q116.594 567.312 114.788 566.872 Q113.006 566.432 111.246 566.432 Q106.617 566.432 104.163 569.557 Q101.733 572.682 101.385 579.002 Q102.751 576.988 104.811 575.923 Q106.871 574.835 109.348 574.835 Q114.557 574.835 117.566 578.006 Q120.598 581.155 120.598 586.594 Q120.598 591.918 117.45 595.136 Q114.302 598.354 109.071 598.354 Q103.075 598.354 99.9039 593.77 Q96.7326 589.164 96.7326 580.437 Q96.7326 572.243 100.621 567.381 Q104.51 562.497 111.061 562.497 Q112.82 562.497 114.603 562.844 Q116.408 563.192 118.353 563.886 Z" fill="#000000" fill-rule="evenodd" fill-opacity="1" /><path clip-path="url(#clip620)" d="M63.5152 250.824 Q59.9041 250.824 58.0754 254.388 Q56.2699 257.93 56.2699 265.06 Q56.2699 272.166 58.0754 275.731 Q59.9041 279.273 63.5152 279.273 Q67.1494 279.273 68.955 275.731 Q70.7837 272.166 70.7837 265.06 Q70.7837 257.93 68.955 254.388 Q67.1494 250.824 63.5152 250.824 M63.5152 247.12 Q69.3254 247.12 72.3809 251.726 Q75.4596 256.31 75.4596 265.06 Q75.4596 273.786 72.3809 278.393 Q69.3254 282.976 63.5152 282.976 Q57.7051 282.976 54.6264 278.393 Q51.5708 273.786 51.5708 265.06 Q51.5708 256.31 54.6264 251.726 Q57.7051 247.12 63.5152 247.12 Z" fill="#000000" fill-rule="evenodd" fill-opacity="1" /><path clip-path="url(#clip620)" d="M83.6771 276.425 L88.5614 276.425 L88.5614 282.305 L83.6771 282.305 L83.6771 276.425 Z" fill="#000000" fill-rule="evenodd" fill-opacity="1" /><path clip-path="url(#clip620)" d="M108.746 265.893 Q105.413 265.893 103.492 267.675 Q101.594 269.458 101.594 272.583 Q101.594 275.708 103.492 277.49 Q105.413 279.273 108.746 279.273 Q112.08 279.273 114.001 277.49 Q115.922 275.685 115.922 272.583 Q115.922 269.458 114.001 267.675 Q112.103 265.893 108.746 265.893 M104.071 263.902 Q101.061 263.161 99.3715 261.101 Q97.7048 259.041 97.7048 256.078 Q97.7048 251.935 100.645 249.527 Q103.608 247.12 108.746 247.12 Q113.908 247.12 116.848 249.527 Q119.788 251.935 119.788 256.078 Q119.788 259.041 118.098 261.101 Q116.432 263.161 113.445 263.902 Q116.825 264.689 118.7 266.981 Q120.598 269.273 120.598 272.583 Q120.598 277.606 117.52 280.291 Q114.464 282.976 108.746 282.976 Q103.029 282.976 99.9502 280.291 Q96.8947 277.606 96.8947 272.583 Q96.8947 269.273 98.7928 266.981 Q100.691 264.689 104.071 263.902 M102.358 256.518 Q102.358 259.203 104.024 260.708 Q105.714 262.212 108.746 262.212 Q111.756 262.212 113.445 260.708 Q115.158 259.203 115.158 256.518 Q115.158 253.833 113.445 252.328 Q111.756 250.824 108.746 250.824 Q105.714 250.824 104.024 252.328 Q102.358 253.833 102.358 256.518 Z" fill="#000000" fill-rule="evenodd" fill-opacity="1" /><polyline clip-path="url(#clip622)" style="stroke:#009af9; stroke-linecap:butt; stroke-linejoin:round; stroke-width:4; stroke-opacity:1; fill:none" points="
  1505.17,1445.72 218.754,1434.72 1724.62,100.252 594.065,1410.55 323.791,1044.83 1608.49,714.77 483.082,1047.88 1474.58,1153.28 1844.29,87.9763 2290.6,1213.89 
  
  "/>
<path clip-path="url(#clip620)" d="
M1987.12 198.898 L2279.55 198.898 L2279.55 95.2176 L1987.12 95.2176  Z
  " fill="#ffffff" fill-rule="evenodd" fill-opacity="1"/>
<polyline clip-path="url(#clip620)" style="stroke:#000000; stroke-linecap:butt; stroke-linejoin:round; stroke-width:4; stroke-opacity:1; fill:none" points="
  1987.12,198.898 2279.55,198.898 2279.55,95.2176 1987.12,95.2176 1987.12,198.898 
  "/>
<polyline clip-path="url(#clip620)" style="stroke:#009af9; stroke-linecap:butt; stroke-linejoin:round; stroke-width:4; stroke-opacity:1; fill:none" points="
  2011.12,147.058 2155.12,147.058 
  "/>
<path clip-path="url(#clip620)" d="M2192.96 166.745 Q2191.16 171.375 2189.44 172.787 Q2187.73 174.199 2184.86 174.199 L2181.46 174.199 L2181.46 170.634 L2183.96 170.634 Q2185.72 170.634 2186.69 169.8 Q2187.66 168.967 2188.84 165.865 L2189.61 163.921 L2179.12 138.412 L2183.63 138.412 L2191.74 158.689 L2199.84 138.412 L2204.35 138.412 L2192.96 166.745 Z" fill="#000000" fill-rule="evenodd" fill-opacity="1" /><path clip-path="url(#clip620)" d="M2211.64 160.402 L2219.28 160.402 L2219.28 134.037 L2210.97 135.703 L2210.97 131.444 L2219.24 129.778 L2223.91 129.778 L2223.91 160.402 L2231.55 160.402 L2231.55 164.338 L2211.64 164.338 L2211.64 160.402 Z" fill="#000000" fill-rule="evenodd" fill-opacity="1" /></svg>
