<?xml version="1.0" encoding="utf-8"?>
<svg xmlns="http://www.w3.org/2000/svg" xmlns:xlink="http://www.w3.org/1999/xlink" width="600" height="400" viewBox="0 0 2400 1600">
<defs>
  <clipPath id="clip370">
    <rect x="0" y="0" width="2400" height="1600"/>
  </clipPath>
</defs>
<path clip-path="url(#clip370)" d="
M0 1600 L2400 1600 L2400 0 L0 0  Z
  " fill="#ffffff" fill-rule="evenodd" fill-opacity="1"/>
<defs>
  <clipPath id="clip371">
    <rect x="480" y="0" width="1681" height="1600"/>
  </clipPath>
</defs>
<path clip-path="url(#clip370)" d="
M156.598 1486.45 L2352.76 1486.45 L2352.76 47.2441 L156.598 47.2441  Z
  " fill="#ffffff" fill-rule="evenodd" fill-opacity="1"/>
<defs>
  <clipPath id="clip372">
    <rect x="156" y="47" width="2197" height="1440"/>
  </clipPath>
</defs>
<polyline clip-path="url(#clip372)" style="stroke:#000000; stroke-linecap:butt; stroke-linejoin:round; stroke-width:2; stroke-opacity:0.1; fill:none" points="
  187.301,1486.45 187.301,47.2441 
  "/>
<polyline clip-path="url(#clip372)" style="stroke:#000000; stroke-linecap:butt; stroke-linejoin:round; stroke-width:2; stroke-opacity:0.1; fill:none" points="
  630.965,1486.45 630.965,47.2441 
  "/>
<polyline clip-path="url(#clip372)" style="stroke:#000000; stroke-linecap:butt; stroke-linejoin:round; stroke-width:2; stroke-opacity:0.1; fill:none" points="
  1074.63,1486.45 1074.63,47.2441 
  "/>
<polyline clip-path="url(#clip372)" style="stroke:#000000; stroke-linecap:butt; stroke-linejoin:round; stroke-width:2; stroke-opacity:0.1; fill:none" points="
  1518.29,1486.45 1518.29,47.2441 
  "/>
<polyline clip-path="url(#clip372)" style="stroke:#000000; stroke-linecap:butt; stroke-linejoin:round; stroke-width:2; stroke-opacity:0.1; fill:none" points="
  1961.96,1486.45 1961.96,47.2441 
  "/>
<polyline clip-path="url(#clip370)" style="stroke:#000000; stroke-linecap:butt; stroke-linejoin:round; stroke-width:4; stroke-opacity:1; fill:none" points="
  156.598,1486.45 2352.76,1486.45 
  "/>
<polyline clip-path="url(#clip370)" style="stroke:#000000; stroke-linecap:butt; stroke-linejoin:round; stroke-width:4; stroke-opacity:1; fill:none" points="
  187.301,1486.45 187.301,1467.55 
  "/>
<polyline clip-path="url(#clip370)" style="stroke:#000000; stroke-linecap:butt; stroke-linejoin:round; stroke-width:4; stroke-opacity:1; fill:none" points="
  630.965,1486.45 630.965,1467.55 
  "/>
<polyline clip-path="url(#clip370)" style="stroke:#000000; stroke-linecap:butt; stroke-linejoin:round; stroke-width:4; stroke-opacity:1; fill:none" points="
  1074.63,1486.45 1074.63,1467.55 
  "/>
<polyline clip-path="url(#clip370)" style="stroke:#000000; stroke-linecap:butt; stroke-linejoin:round; stroke-width:4; stroke-opacity:1; fill:none" points="
  1518.29,1486.45 1518.29,1467.55 
  "/>
<polyline clip-path="url(#clip370)" style="stroke:#000000; stroke-linecap:butt; stroke-linejoin:round; stroke-width:4; stroke-opacity:1; fill:none" points="
  1961.96,1486.45 1961.96,1467.55 
  "/>
<path clip-path="url(#clip370)" d="M164.686 1517.37 Q161.074 1517.37 159.246 1520.93 Q157.44 1524.47 157.44 1531.6 Q157.44 1538.71 159.246 1542.27 Q161.074 1545.82 164.686 1545.82 Q168.32 1545.82 170.125 1542.27 Q171.954 1538.71 171.954 1531.6 Q171.954 1524.47 170.125 1520.93 Q168.32 1517.37 164.686 1517.37 M164.686 1513.66 Q170.496 1513.66 173.551 1518.27 Q176.63 1522.85 176.63 1531.6 Q176.63 1540.33 173.551 1544.94 Q170.496 1549.52 164.686 1549.52 Q158.875 1549.52 155.797 1544.94 Q152.741 1540.33 152.741 1531.6 Q152.741 1522.85 155.797 1518.27 Q158.875 1513.66 164.686 1513.66 Z" fill="#000000" fill-rule="evenodd" fill-opacity="1" /><path clip-path="url(#clip370)" d="M184.848 1542.97 L189.732 1542.97 L189.732 1548.85 L184.848 1548.85 L184.848 1542.97 Z" fill="#000000" fill-rule="evenodd" fill-opacity="1" /><path clip-path="url(#clip370)" d="M209.917 1517.37 Q206.306 1517.37 204.477 1520.93 Q202.671 1524.47 202.671 1531.6 Q202.671 1538.71 204.477 1542.27 Q206.306 1545.82 209.917 1545.82 Q213.551 1545.82 215.357 1542.27 Q217.185 1538.71 217.185 1531.6 Q217.185 1524.47 215.357 1520.93 Q213.551 1517.37 209.917 1517.37 M209.917 1513.66 Q215.727 1513.66 218.783 1518.27 Q221.861 1522.85 221.861 1531.6 Q221.861 1540.33 218.783 1544.94 Q215.727 1549.52 209.917 1549.52 Q204.107 1549.52 201.028 1544.94 Q197.972 1540.33 197.972 1531.6 Q197.972 1522.85 201.028 1518.27 Q204.107 1513.66 209.917 1513.66 Z" fill="#000000" fill-rule="evenodd" fill-opacity="1" /><path clip-path="url(#clip370)" d="M609.148 1517.37 Q605.537 1517.37 603.708 1520.93 Q601.903 1524.47 601.903 1531.6 Q601.903 1538.71 603.708 1542.27 Q605.537 1545.82 609.148 1545.82 Q612.782 1545.82 614.588 1542.27 Q616.417 1538.71 616.417 1531.6 Q616.417 1524.47 614.588 1520.93 Q612.782 1517.37 609.148 1517.37 M609.148 1513.66 Q614.958 1513.66 618.014 1518.27 Q621.093 1522.85 621.093 1531.6 Q621.093 1540.33 618.014 1544.94 Q614.958 1549.52 609.148 1549.52 Q603.338 1549.52 600.259 1544.94 Q597.204 1540.33 597.204 1531.6 Q597.204 1522.85 600.259 1518.27 Q603.338 1513.66 609.148 1513.66 Z" fill="#000000" fill-rule="evenodd" fill-opacity="1" /><path clip-path="url(#clip370)" d="M629.31 1542.97 L634.194 1542.97 L634.194 1548.85 L629.31 1548.85 L629.31 1542.97 Z" fill="#000000" fill-rule="evenodd" fill-opacity="1" /><path clip-path="url(#clip370)" d="M648.407 1544.91 L664.727 1544.91 L664.727 1548.85 L642.782 1548.85 L642.782 1544.91 Q645.444 1542.16 650.028 1537.53 Q654.634 1532.88 655.815 1531.53 Q658.06 1529.01 658.94 1527.27 Q659.842 1525.51 659.842 1523.82 Q659.842 1521.07 657.898 1519.33 Q655.977 1517.6 652.875 1517.6 Q650.676 1517.6 648.222 1518.36 Q645.791 1519.13 643.014 1520.68 L643.014 1515.95 Q645.838 1514.82 648.291 1514.24 Q650.745 1513.66 652.782 1513.66 Q658.153 1513.66 661.347 1516.35 Q664.541 1519.03 664.541 1523.52 Q664.541 1525.65 663.731 1527.57 Q662.944 1529.47 660.838 1532.07 Q660.259 1532.74 657.157 1535.95 Q654.055 1539.15 648.407 1544.91 Z" fill="#000000" fill-rule="evenodd" fill-opacity="1" /><path clip-path="url(#clip370)" d="M1051.77 1517.37 Q1048.16 1517.37 1046.33 1520.93 Q1044.53 1524.47 1044.53 1531.6 Q1044.53 1538.71 1046.33 1542.27 Q1048.16 1545.82 1051.77 1545.82 Q1055.4 1545.82 1057.21 1542.27 Q1059.04 1538.71 1059.04 1531.6 Q1059.04 1524.47 1057.21 1520.93 Q1055.4 1517.37 1051.77 1517.37 M1051.77 1513.66 Q1057.58 1513.66 1060.64 1518.27 Q1063.71 1522.85 1063.71 1531.6 Q1063.71 1540.33 1060.64 1544.94 Q1057.58 1549.52 1051.77 1549.52 Q1045.96 1549.52 1042.88 1544.94 Q1039.83 1540.33 1039.83 1531.6 Q1039.83 1522.85 1042.88 1518.27 Q1045.96 1513.66 1051.77 1513.66 Z" fill="#000000" fill-rule="evenodd" fill-opacity="1" /><path clip-path="url(#clip370)" d="M1071.93 1542.97 L1076.82 1542.97 L1076.82 1548.85 L1071.93 1548.85 L1071.93 1542.97 Z" fill="#000000" fill-rule="evenodd" fill-opacity="1" /><path clip-path="url(#clip370)" d="M1099.85 1518.36 L1088.04 1536.81 L1099.85 1536.81 L1099.85 1518.36 M1098.62 1514.29 L1104.5 1514.29 L1104.5 1536.81 L1109.43 1536.81 L1109.43 1540.7 L1104.5 1540.7 L1104.5 1548.85 L1099.85 1548.85 L1099.85 1540.7 L1084.25 1540.7 L1084.25 1536.19 L1098.62 1514.29 Z" fill="#000000" fill-rule="evenodd" fill-opacity="1" /><path clip-path="url(#clip370)" d="M1495.6 1517.37 Q1491.99 1517.37 1490.16 1520.93 Q1488.35 1524.47 1488.35 1531.6 Q1488.35 1538.71 1490.16 1542.27 Q1491.99 1545.82 1495.6 1545.82 Q1499.23 1545.82 1501.04 1542.27 Q1502.86 1538.71 1502.86 1531.6 Q1502.86 1524.47 1501.04 1520.93 Q1499.23 1517.37 1495.6 1517.37 M1495.6 1513.66 Q1501.41 1513.66 1504.46 1518.27 Q1507.54 1522.85 1507.54 1531.6 Q1507.54 1540.33 1504.46 1544.94 Q1501.41 1549.52 1495.6 1549.52 Q1489.79 1549.52 1486.71 1544.94 Q1483.65 1540.33 1483.65 1531.6 Q1483.65 1522.85 1486.71 1518.27 Q1489.79 1513.66 1495.6 1513.66 Z" fill="#000000" fill-rule="evenodd" fill-opacity="1" /><path clip-path="url(#clip370)" d="M1515.76 1542.97 L1520.64 1542.97 L1520.64 1548.85 L1515.76 1548.85 L1515.76 1542.97 Z" fill="#000000" fill-rule="evenodd" fill-opacity="1" /><path clip-path="url(#clip370)" d="M1541.41 1529.7 Q1538.26 1529.7 1536.41 1531.86 Q1534.58 1534.01 1534.58 1537.76 Q1534.58 1541.49 1536.41 1543.66 Q1538.26 1545.82 1541.41 1545.82 Q1544.55 1545.82 1546.38 1543.66 Q1548.24 1541.49 1548.24 1537.76 Q1548.24 1534.01 1546.38 1531.86 Q1544.55 1529.7 1541.41 1529.7 M1550.69 1515.05 L1550.69 1519.31 Q1548.93 1518.48 1547.12 1518.04 Q1545.34 1517.6 1543.58 1517.6 Q1538.95 1517.6 1536.5 1520.72 Q1534.07 1523.85 1533.72 1530.17 Q1535.09 1528.15 1537.15 1527.09 Q1539.21 1526 1541.68 1526 Q1546.89 1526 1549.9 1529.17 Q1552.93 1532.32 1552.93 1537.76 Q1552.93 1543.08 1549.79 1546.3 Q1546.64 1549.52 1541.41 1549.52 Q1535.41 1549.52 1532.24 1544.94 Q1529.07 1540.33 1529.07 1531.6 Q1529.07 1523.41 1532.96 1518.55 Q1536.85 1513.66 1543.4 1513.66 Q1545.16 1513.66 1546.94 1514.01 Q1548.74 1514.36 1550.69 1515.05 Z" fill="#000000" fill-rule="evenodd" fill-opacity="1" /><path clip-path="url(#clip370)" d="M1939.39 1517.37 Q1935.78 1517.37 1933.95 1520.93 Q1932.14 1524.47 1932.14 1531.6 Q1932.14 1538.71 1933.95 1542.27 Q1935.78 1545.82 1939.39 1545.82 Q1943.02 1545.82 1944.83 1542.27 Q1946.66 1538.71 1946.66 1531.6 Q1946.66 1524.47 1944.83 1520.93 Q1943.02 1517.37 1939.39 1517.37 M1939.39 1513.66 Q1945.2 1513.66 1948.25 1518.27 Q1951.33 1522.85 1951.33 1531.6 Q1951.33 1540.33 1948.25 1544.94 Q1945.2 1549.52 1939.39 1549.52 Q1933.58 1549.52 1930.5 1544.94 Q1927.44 1540.33 1927.44 1531.6 Q1927.44 1522.85 1930.5 1518.27 Q1933.58 1513.66 1939.39 1513.66 Z" fill="#000000" fill-rule="evenodd" fill-opacity="1" /><path clip-path="url(#clip370)" d="M1959.55 1542.97 L1964.43 1542.97 L1964.43 1548.85 L1959.55 1548.85 L1959.55 1542.97 Z" fill="#000000" fill-rule="evenodd" fill-opacity="1" /><path clip-path="url(#clip370)" d="M1984.62 1532.44 Q1981.29 1532.44 1979.36 1534.22 Q1977.47 1536 1977.47 1539.13 Q1977.47 1542.25 1979.36 1544.03 Q1981.29 1545.82 1984.62 1545.82 Q1987.95 1545.82 1989.87 1544.03 Q1991.79 1542.23 1991.79 1539.13 Q1991.79 1536 1989.87 1534.22 Q1987.98 1532.44 1984.62 1532.44 M1979.94 1530.45 Q1976.93 1529.7 1975.24 1527.64 Q1973.58 1525.58 1973.58 1522.62 Q1973.58 1518.48 1976.52 1516.07 Q1979.48 1513.66 1984.62 1513.66 Q1989.78 1513.66 1992.72 1516.07 Q1995.66 1518.48 1995.66 1522.62 Q1995.66 1525.58 1993.97 1527.64 Q1992.3 1529.7 1989.32 1530.45 Q1992.7 1531.23 1994.57 1533.52 Q1996.47 1535.82 1996.47 1539.13 Q1996.47 1544.15 1993.39 1546.83 Q1990.34 1549.52 1984.62 1549.52 Q1978.9 1549.52 1975.82 1546.83 Q1972.77 1544.15 1972.77 1539.13 Q1972.77 1535.82 1974.67 1533.52 Q1976.56 1531.23 1979.94 1530.45 M1978.23 1523.06 Q1978.23 1525.75 1979.9 1527.25 Q1981.59 1528.76 1984.62 1528.76 Q1987.63 1528.76 1989.32 1527.25 Q1991.03 1525.75 1991.03 1523.06 Q1991.03 1520.38 1989.32 1518.87 Q1987.63 1517.37 1984.62 1517.37 Q1981.59 1517.37 1979.9 1518.87 Q1978.23 1520.38 1978.23 1523.06 Z" fill="#000000" fill-rule="evenodd" fill-opacity="1" /><polyline clip-path="url(#clip372)" style="stroke:#000000; stroke-linecap:butt; stroke-linejoin:round; stroke-width:2; stroke-opacity:0.1; fill:none" points="
  156.598,1209.25 2352.76,1209.25 
  "/>
<polyline clip-path="url(#clip372)" style="stroke:#000000; stroke-linecap:butt; stroke-linejoin:round; stroke-width:2; stroke-opacity:0.1; fill:none" points="
  156.598,860.564 2352.76,860.564 
  "/>
<polyline clip-path="url(#clip372)" style="stroke:#000000; stroke-linecap:butt; stroke-linejoin:round; stroke-width:2; stroke-opacity:0.1; fill:none" points="
  156.598,511.882 2352.76,511.882 
  "/>
<polyline clip-path="url(#clip372)" style="stroke:#000000; stroke-linecap:butt; stroke-linejoin:round; stroke-width:2; stroke-opacity:0.1; fill:none" points="
  156.598,163.199 2352.76,163.199 
  "/>
<polyline clip-path="url(#clip370)" style="stroke:#000000; stroke-linecap:butt; stroke-linejoin:round; stroke-width:4; stroke-opacity:1; fill:none" points="
  156.598,1486.45 156.598,47.2441 
  "/>
<polyline clip-path="url(#clip370)" style="stroke:#000000; stroke-linecap:butt; stroke-linejoin:round; stroke-width:4; stroke-opacity:1; fill:none" points="
  156.598,1209.25 175.496,1209.25 
  "/>
<polyline clip-path="url(#clip370)" style="stroke:#000000; stroke-linecap:butt; stroke-linejoin:round; stroke-width:4; stroke-opacity:1; fill:none" points="
  156.598,860.564 175.496,860.564 
  "/>
<polyline clip-path="url(#clip370)" style="stroke:#000000; stroke-linecap:butt; stroke-linejoin:round; stroke-width:4; stroke-opacity:1; fill:none" points="
  156.598,511.882 175.496,511.882 
  "/>
<polyline clip-path="url(#clip370)" style="stroke:#000000; stroke-linecap:butt; stroke-linejoin:round; stroke-width:4; stroke-opacity:1; fill:none" points="
  156.598,163.199 175.496,163.199 
  "/>
<path clip-path="url(#clip370)" d="M65.0198 1195.05 Q61.4087 1195.05 59.58 1198.61 Q57.7745 1202.15 57.7745 1209.28 Q57.7745 1216.39 59.58 1219.95 Q61.4087 1223.49 65.0198 1223.49 Q68.6541 1223.49 70.4596 1219.95 Q72.2883 1216.39 72.2883 1209.28 Q72.2883 1202.15 70.4596 1198.61 Q68.6541 1195.05 65.0198 1195.05 M65.0198 1191.34 Q70.83 1191.34 73.8855 1195.95 Q76.9642 1200.53 76.9642 1209.28 Q76.9642 1218.01 73.8855 1222.61 Q70.83 1227.2 65.0198 1227.2 Q59.2097 1227.2 56.131 1222.61 Q53.0754 1218.01 53.0754 1209.28 Q53.0754 1200.53 56.131 1195.95 Q59.2097 1191.34 65.0198 1191.34 Z" fill="#000000" fill-rule="evenodd" fill-opacity="1" /><path clip-path="url(#clip370)" d="M85.1818 1220.65 L90.066 1220.65 L90.066 1226.53 L85.1818 1226.53 L85.1818 1220.65 Z" fill="#000000" fill-rule="evenodd" fill-opacity="1" /><path clip-path="url(#clip370)" d="M104.279 1222.59 L120.598 1222.59 L120.598 1226.53 L98.6539 1226.53 L98.6539 1222.59 Q101.316 1219.84 105.899 1215.21 Q110.506 1210.55 111.686 1209.21 Q113.932 1206.69 114.811 1204.95 Q115.714 1203.19 115.714 1201.5 Q115.714 1198.75 113.77 1197.01 Q111.848 1195.28 108.746 1195.28 Q106.547 1195.28 104.094 1196.04 Q101.663 1196.8 98.8854 1198.36 L98.8854 1193.63 Q101.709 1192.5 104.163 1191.92 Q106.617 1191.34 108.654 1191.34 Q114.024 1191.34 117.219 1194.03 Q120.413 1196.71 120.413 1201.2 Q120.413 1203.33 119.603 1205.25 Q118.816 1207.15 116.709 1209.74 Q116.131 1210.42 113.029 1213.63 Q109.927 1216.83 104.279 1222.59 Z" fill="#000000" fill-rule="evenodd" fill-opacity="1" /><path clip-path="url(#clip370)" d="M62.9365 846.363 Q59.3254 846.363 57.4967 849.928 Q55.6912 853.469 55.6912 860.599 Q55.6912 867.705 57.4967 871.27 Q59.3254 874.812 62.9365 874.812 Q66.5707 874.812 68.3763 871.27 Q70.205 867.705 70.205 860.599 Q70.205 853.469 68.3763 849.928 Q66.5707 846.363 62.9365 846.363 M62.9365 842.659 Q68.7467 842.659 71.8022 847.266 Q74.8809 851.849 74.8809 860.599 Q74.8809 869.326 71.8022 873.932 Q68.7467 878.515 62.9365 878.515 Q57.1264 878.515 54.0477 873.932 Q50.9921 869.326 50.9921 860.599 Q50.9921 851.849 54.0477 847.266 Q57.1264 842.659 62.9365 842.659 Z" fill="#000000" fill-rule="evenodd" fill-opacity="1" /><path clip-path="url(#clip370)" d="M83.0984 871.965 L87.9827 871.965 L87.9827 877.844 L83.0984 877.844 L83.0984 871.965 Z" fill="#000000" fill-rule="evenodd" fill-opacity="1" /><path clip-path="url(#clip370)" d="M111.015 847.358 L99.2095 865.807 L111.015 865.807 L111.015 847.358 M109.788 843.284 L115.668 843.284 L115.668 865.807 L120.598 865.807 L120.598 869.696 L115.668 869.696 L115.668 877.844 L111.015 877.844 L111.015 869.696 L95.4132 869.696 L95.4132 865.182 L109.788 843.284 Z" fill="#000000" fill-rule="evenodd" fill-opacity="1" /><path clip-path="url(#clip370)" d="M63.2606 497.68 Q59.6495 497.68 57.8208 501.245 Q56.0152 504.787 56.0152 511.916 Q56.0152 519.023 57.8208 522.588 Q59.6495 526.129 63.2606 526.129 Q66.8948 526.129 68.7004 522.588 Q70.5291 519.023 70.5291 511.916 Q70.5291 504.787 68.7004 501.245 Q66.8948 497.68 63.2606 497.68 M63.2606 493.977 Q69.0707 493.977 72.1263 498.583 Q75.205 503.167 75.205 511.916 Q75.205 520.643 72.1263 525.25 Q69.0707 529.833 63.2606 529.833 Q57.4504 529.833 54.3717 525.25 Q51.3162 520.643 51.3162 511.916 Q51.3162 503.167 54.3717 498.583 Q57.4504 493.977 63.2606 493.977 Z" fill="#000000" fill-rule="evenodd" fill-opacity="1" /><path clip-path="url(#clip370)" d="M83.4225 523.282 L88.3067 523.282 L88.3067 529.162 L83.4225 529.162 L83.4225 523.282 Z" fill="#000000" fill-rule="evenodd" fill-opacity="1" /><path clip-path="url(#clip370)" d="M109.071 510.018 Q105.922 510.018 104.071 512.171 Q102.242 514.324 102.242 518.074 Q102.242 521.801 104.071 523.977 Q105.922 526.129 109.071 526.129 Q112.219 526.129 114.047 523.977 Q115.899 521.801 115.899 518.074 Q115.899 514.324 114.047 512.171 Q112.219 510.018 109.071 510.018 M118.353 495.366 L118.353 499.625 Q116.594 498.792 114.788 498.352 Q113.006 497.912 111.246 497.912 Q106.617 497.912 104.163 501.037 Q101.733 504.162 101.385 510.481 Q102.751 508.467 104.811 507.403 Q106.871 506.315 109.348 506.315 Q114.557 506.315 117.566 509.486 Q120.598 512.634 120.598 518.074 Q120.598 523.398 117.45 526.615 Q114.302 529.833 109.071 529.833 Q103.075 529.833 99.9039 525.25 Q96.7326 520.643 96.7326 511.916 Q96.7326 503.722 100.621 498.861 Q104.51 493.977 111.061 493.977 Q112.82 493.977 114.603 494.324 Q116.408 494.671 118.353 495.366 Z" fill="#000000" fill-rule="evenodd" fill-opacity="1" /><path clip-path="url(#clip370)" d="M63.5152 148.998 Q59.9041 148.998 58.0754 152.563 Q56.2699 156.105 56.2699 163.234 Q56.2699 170.341 58.0754 173.905 Q59.9041 177.447 63.5152 177.447 Q67.1494 177.447 68.955 173.905 Q70.7837 170.341 70.7837 163.234 Q70.7837 156.105 68.955 152.563 Q67.1494 148.998 63.5152 148.998 M63.5152 145.294 Q69.3254 145.294 72.3809 149.901 Q75.4596 154.484 75.4596 163.234 Q75.4596 171.961 72.3809 176.567 Q69.3254 181.151 63.5152 181.151 Q57.7051 181.151 54.6264 176.567 Q51.5708 171.961 51.5708 163.234 Q51.5708 154.484 54.6264 149.901 Q57.7051 145.294 63.5152 145.294 Z" fill="#000000" fill-rule="evenodd" fill-opacity="1" /><path clip-path="url(#clip370)" d="M83.6771 174.6 L88.5614 174.6 L88.5614 180.479 L83.6771 180.479 L83.6771 174.6 Z" fill="#000000" fill-rule="evenodd" fill-opacity="1" /><path clip-path="url(#clip370)" d="M108.746 164.067 Q105.413 164.067 103.492 165.85 Q101.594 167.632 101.594 170.757 Q101.594 173.882 103.492 175.665 Q105.413 177.447 108.746 177.447 Q112.08 177.447 114.001 175.665 Q115.922 173.859 115.922 170.757 Q115.922 167.632 114.001 165.85 Q112.103 164.067 108.746 164.067 M104.071 162.077 Q101.061 161.336 99.3715 159.276 Q97.7048 157.216 97.7048 154.253 Q97.7048 150.109 100.645 147.702 Q103.608 145.294 108.746 145.294 Q113.908 145.294 116.848 147.702 Q119.788 150.109 119.788 154.253 Q119.788 157.216 118.098 159.276 Q116.432 161.336 113.445 162.077 Q116.825 162.864 118.7 165.155 Q120.598 167.447 120.598 170.757 Q120.598 175.78 117.52 178.466 Q114.464 181.151 108.746 181.151 Q103.029 181.151 99.9502 178.466 Q96.8947 175.78 96.8947 170.757 Q96.8947 167.447 98.7928 165.155 Q100.691 162.864 104.071 162.077 M102.358 154.692 Q102.358 157.378 104.024 158.882 Q105.714 160.387 108.746 160.387 Q111.756 160.387 113.445 158.882 Q115.158 157.378 115.158 154.692 Q115.158 152.007 113.445 150.503 Q111.756 148.998 108.746 148.998 Q105.714 148.998 104.024 150.503 Q102.358 152.007 102.358 154.692 Z" fill="#000000" fill-rule="evenodd" fill-opacity="1" /><polyline clip-path="url(#clip372)" style="stroke:#009af9; stroke-linecap:butt; stroke-linejoin:round; stroke-width:4; stroke-opacity:1; fill:none" points="
  959.24,719.04 752.26,159.624 622.584,87.9763 811.6,240.062 218.754,525.617 2027.06,1036.47 284.59,292.812 1274.29,1335.89 864.68,1046.53 2290.6,1445.72 
  
  "/>
<path clip-path="url(#clip370)" d="
M1987.12 198.898 L2279.55 198.898 L2279.55 95.2176 L1987.12 95.2176  Z
  " fill="#ffffff" fill-rule="evenodd" fill-opacity="1"/>
<polyline clip-path="url(#clip370)" style="stroke:#000000; stroke-linecap:butt; stroke-linejoin:round; stroke-width:4; stroke-opacity:1; fill:none" points="
  1987.12,198.898 2279.55,198.898 2279.55,95.2176 1987.12,95.2176 1987.12,198.898 
  "/>
<polyline clip-path="url(#clip370)" style="stroke:#009af9; stroke-linecap:butt; stroke-linejoin:round; stroke-width:4; stroke-opacity:1; fill:none" points="
  2011.12,147.058 2155.12,147.058 
  "/>
<path clip-path="url(#clip370)" d="M2192.96 166.745 Q2191.16 171.375 2189.44 172.787 Q2187.73 174.199 2184.86 174.199 L2181.46 174.199 L2181.46 170.634 L2183.96 170.634 Q2185.72 170.634 2186.69 169.8 Q2187.66 168.967 2188.84 165.865 L2189.61 163.921 L2179.12 138.412 L2183.63 138.412 L2191.74 158.689 L2199.84 138.412 L2204.35 138.412 L2192.96 166.745 Z" fill="#000000" fill-rule="evenodd" fill-opacity="1" /><path clip-path="url(#clip370)" d="M2211.64 160.402 L2219.28 160.402 L2219.28 134.037 L2210.97 135.703 L2210.97 131.444 L2219.24 129.778 L2223.91 129.778 L2223.91 160.402 L2231.55 160.402 L2231.55 164.338 L2211.64 164.338 L2211.64 160.402 Z" fill="#000000" fill-rule="evenodd" fill-opacity="1" /></svg>
