<?xml version="1.0" encoding="utf-8"?>
<svg xmlns="http://www.w3.org/2000/svg" xmlns:xlink="http://www.w3.org/1999/xlink" width="600" height="400" viewBox="0 0 2400 1600">
<defs>
  <clipPath id="clip410">
    <rect x="0" y="0" width="2400" height="1600"/>
  </clipPath>
</defs>
<path clip-path="url(#clip410)" d="
M0 1600 L2400 1600 L2400 0 L0 0  Z
  " fill="#ffffff" fill-rule="evenodd" fill-opacity="1"/>
<defs>
  <clipPath id="clip411">
    <rect x="480" y="0" width="1681" height="1600"/>
  </clipPath>
</defs>
<path clip-path="url(#clip410)" d="
M156.598 1486.45 L2352.76 1486.45 L2352.76 47.2441 L156.598 47.2441  Z
  " fill="#ffffff" fill-rule="evenodd" fill-opacity="1"/>
<defs>
  <clipPath id="clip412">
    <rect x="156" y="47" width="2197" height="1440"/>
  </clipPath>
</defs>
<polyline clip-path="url(#clip412)" style="stroke:#000000; stroke-linecap:butt; stroke-linejoin:round; stroke-width:2; stroke-opacity:0.1; fill:none" points="
  493.426,1486.45 493.426,47.2441 
  "/>
<polyline clip-path="url(#clip412)" style="stroke:#000000; stroke-linecap:butt; stroke-linejoin:round; stroke-width:2; stroke-opacity:0.1; fill:none" points="
  943.039,1486.45 943.039,47.2441 
  "/>
<polyline clip-path="url(#clip412)" style="stroke:#000000; stroke-linecap:butt; stroke-linejoin:round; stroke-width:2; stroke-opacity:0.1; fill:none" points="
  1392.65,1486.45 1392.65,47.2441 
  "/>
<polyline clip-path="url(#clip412)" style="stroke:#000000; stroke-linecap:butt; stroke-linejoin:round; stroke-width:2; stroke-opacity:0.1; fill:none" points="
  1842.26,1486.45 1842.26,47.2441 
  "/>
<polyline clip-path="url(#clip412)" style="stroke:#000000; stroke-linecap:butt; stroke-linejoin:round; stroke-width:2; stroke-opacity:0.1; fill:none" points="
  2291.88,1486.45 2291.88,47.2441 
  "/>
<polyline clip-path="url(#clip410)" style="stroke:#000000; stroke-linecap:butt; stroke-linejoin:round; stroke-width:4; stroke-opacity:1; fill:none" points="
  156.598,1486.45 2352.76,1486.45 
  "/>
<polyline clip-path="url(#clip410)" style="stroke:#000000; stroke-linecap:butt; stroke-linejoin:round; stroke-width:4; stroke-opacity:1; fill:none" points="
  493.426,1486.45 493.426,1467.55 
  "/>
<polyline clip-path="url(#clip410)" style="stroke:#000000; stroke-linecap:butt; stroke-linejoin:round; stroke-width:4; stroke-opacity:1; fill:none" points="
  943.039,1486.45 943.039,1467.55 
  "/>
<polyline clip-path="url(#clip410)" style="stroke:#000000; stroke-linecap:butt; stroke-linejoin:round; stroke-width:4; stroke-opacity:1; fill:none" points="
  1392.65,1486.45 1392.65,1467.55 
  "/>
<polyline clip-path="url(#clip410)" style="stroke:#000000; stroke-linecap:butt; stroke-linejoin:round; stroke-width:4; stroke-opacity:1; fill:none" points="
  1842.26,1486.45 1842.26,1467.55 
  "/>
<polyline clip-path="url(#clip410)" style="stroke:#000000; stroke-linecap:butt; stroke-linejoin:round; stroke-width:4; stroke-opacity:1; fill:none" points="
  2291.88,1486.45 2291.88,1467.55 
  "/>
<path clip-path="url(#clip410)" d="M471.609 1517.37 Q467.998 1517.37 466.17 1520.93 Q464.364 1524.47 464.364 1531.6 Q464.364 1538.71 466.17 1542.27 Q467.998 1545.82 471.609 1545.82 Q475.244 1545.82 477.049 1542.27 Q478.878 1538.71 478.878 1531.6 Q478.878 1524.47 477.049 1520.93 Q475.244 1517.37 471.609 1517.37 M471.609 1513.66 Q477.42 1513.66 480.475 1518.27 Q483.554 1522.85 483.554 1531.6 Q483.554 1540.33 480.475 1544.94 Q477.42 1549.52 471.609 1549.52 Q465.799 1549.52 462.721 1544.94 Q459.665 1540.33 459.665 1531.6 Q459.665 1522.85 462.721 1518.27 Q465.799 1513.66 471.609 1513.66 Z" fill="#000000" fill-rule="evenodd" fill-opacity="1" /><path clip-path="url(#clip410)" d="M491.771 1542.97 L496.656 1542.97 L496.656 1548.85 L491.771 1548.85 L491.771 1542.97 Z" fill="#000000" fill-rule="evenodd" fill-opacity="1" /><path clip-path="url(#clip410)" d="M510.869 1544.91 L527.188 1544.91 L527.188 1548.85 L505.244 1548.85 L505.244 1544.91 Q507.906 1542.16 512.489 1537.53 Q517.095 1532.88 518.276 1531.53 Q520.521 1529.01 521.401 1527.27 Q522.304 1525.51 522.304 1523.82 Q522.304 1521.07 520.359 1519.33 Q518.438 1517.6 515.336 1517.6 Q513.137 1517.6 510.683 1518.36 Q508.253 1519.13 505.475 1520.68 L505.475 1515.95 Q508.299 1514.82 510.753 1514.24 Q513.206 1513.66 515.243 1513.66 Q520.614 1513.66 523.808 1516.35 Q527.003 1519.03 527.003 1523.52 Q527.003 1525.65 526.193 1527.57 Q525.405 1529.47 523.299 1532.07 Q522.72 1532.74 519.618 1535.95 Q516.517 1539.15 510.869 1544.91 Z" fill="#000000" fill-rule="evenodd" fill-opacity="1" /><path clip-path="url(#clip410)" d="M920.181 1517.37 Q916.57 1517.37 914.741 1520.93 Q912.935 1524.47 912.935 1531.6 Q912.935 1538.71 914.741 1542.27 Q916.57 1545.82 920.181 1545.82 Q923.815 1545.82 925.62 1542.27 Q927.449 1538.71 927.449 1531.6 Q927.449 1524.47 925.62 1520.93 Q923.815 1517.37 920.181 1517.37 M920.181 1513.66 Q925.991 1513.66 929.046 1518.27 Q932.125 1522.85 932.125 1531.6 Q932.125 1540.33 929.046 1544.94 Q925.991 1549.52 920.181 1549.52 Q914.37 1549.52 911.292 1544.94 Q908.236 1540.33 908.236 1531.6 Q908.236 1522.85 911.292 1518.27 Q914.37 1513.66 920.181 1513.66 Z" fill="#000000" fill-rule="evenodd" fill-opacity="1" /><path clip-path="url(#clip410)" d="M940.343 1542.97 L945.227 1542.97 L945.227 1548.85 L940.343 1548.85 L940.343 1542.97 Z" fill="#000000" fill-rule="evenodd" fill-opacity="1" /><path clip-path="url(#clip410)" d="M968.259 1518.36 L956.454 1536.81 L968.259 1536.81 L968.259 1518.36 M967.032 1514.29 L972.912 1514.29 L972.912 1536.81 L977.842 1536.81 L977.842 1540.7 L972.912 1540.7 L972.912 1548.85 L968.259 1548.85 L968.259 1540.7 L952.657 1540.7 L952.657 1536.19 L967.032 1514.29 Z" fill="#000000" fill-rule="evenodd" fill-opacity="1" /><path clip-path="url(#clip410)" d="M1369.96 1517.37 Q1366.34 1517.37 1364.52 1520.93 Q1362.71 1524.47 1362.71 1531.6 Q1362.71 1538.71 1364.52 1542.27 Q1366.34 1545.82 1369.96 1545.82 Q1373.59 1545.82 1375.4 1542.27 Q1377.22 1538.71 1377.22 1531.6 Q1377.22 1524.47 1375.4 1520.93 Q1373.59 1517.37 1369.96 1517.37 M1369.96 1513.66 Q1375.77 1513.66 1378.82 1518.27 Q1381.9 1522.85 1381.9 1531.6 Q1381.9 1540.33 1378.82 1544.94 Q1375.77 1549.52 1369.96 1549.52 Q1364.15 1549.52 1361.07 1544.94 Q1358.01 1540.33 1358.01 1531.6 Q1358.01 1522.85 1361.07 1518.27 Q1364.15 1513.66 1369.96 1513.66 Z" fill="#000000" fill-rule="evenodd" fill-opacity="1" /><path clip-path="url(#clip410)" d="M1390.12 1542.97 L1395 1542.97 L1395 1548.85 L1390.12 1548.85 L1390.12 1542.97 Z" fill="#000000" fill-rule="evenodd" fill-opacity="1" /><path clip-path="url(#clip410)" d="M1415.77 1529.7 Q1412.62 1529.7 1410.77 1531.86 Q1408.94 1534.01 1408.94 1537.76 Q1408.94 1541.49 1410.77 1543.66 Q1412.62 1545.82 1415.77 1545.82 Q1418.91 1545.82 1420.74 1543.66 Q1422.59 1541.49 1422.59 1537.76 Q1422.59 1534.01 1420.74 1531.86 Q1418.91 1529.7 1415.77 1529.7 M1425.05 1515.05 L1425.05 1519.31 Q1423.29 1518.48 1421.48 1518.04 Q1419.7 1517.6 1417.94 1517.6 Q1413.31 1517.6 1410.86 1520.72 Q1408.43 1523.85 1408.08 1530.17 Q1409.45 1528.15 1411.51 1527.09 Q1413.57 1526 1416.04 1526 Q1421.25 1526 1424.26 1529.17 Q1427.29 1532.32 1427.29 1537.76 Q1427.29 1543.08 1424.14 1546.3 Q1421 1549.52 1415.77 1549.52 Q1409.77 1549.52 1406.6 1544.94 Q1403.43 1540.33 1403.43 1531.6 Q1403.43 1523.41 1407.32 1518.55 Q1411.21 1513.66 1417.76 1513.66 Q1419.52 1513.66 1421.3 1514.01 Q1423.1 1514.36 1425.05 1515.05 Z" fill="#000000" fill-rule="evenodd" fill-opacity="1" /><path clip-path="url(#clip410)" d="M1819.7 1517.37 Q1816.08 1517.37 1814.26 1520.93 Q1812.45 1524.47 1812.45 1531.6 Q1812.45 1538.71 1814.26 1542.27 Q1816.08 1545.82 1819.7 1545.82 Q1823.33 1545.82 1825.14 1542.27 Q1826.96 1538.71 1826.96 1531.6 Q1826.96 1524.47 1825.14 1520.93 Q1823.33 1517.37 1819.7 1517.37 M1819.7 1513.66 Q1825.51 1513.66 1828.56 1518.27 Q1831.64 1522.85 1831.64 1531.6 Q1831.64 1540.33 1828.56 1544.94 Q1825.51 1549.52 1819.7 1549.52 Q1813.89 1549.52 1810.81 1544.94 Q1807.75 1540.33 1807.75 1531.6 Q1807.75 1522.85 1810.81 1518.27 Q1813.89 1513.66 1819.7 1513.66 Z" fill="#000000" fill-rule="evenodd" fill-opacity="1" /><path clip-path="url(#clip410)" d="M1839.86 1542.97 L1844.74 1542.97 L1844.74 1548.85 L1839.86 1548.85 L1839.86 1542.97 Z" fill="#000000" fill-rule="evenodd" fill-opacity="1" /><path clip-path="url(#clip410)" d="M1864.93 1532.44 Q1861.59 1532.44 1859.67 1534.22 Q1857.77 1536 1857.77 1539.13 Q1857.77 1542.25 1859.67 1544.03 Q1861.59 1545.82 1864.93 1545.82 Q1868.26 1545.82 1870.18 1544.03 Q1872.1 1542.23 1872.1 1539.13 Q1872.1 1536 1870.18 1534.22 Q1868.28 1532.44 1864.93 1532.44 M1860.25 1530.45 Q1857.24 1529.7 1855.55 1527.64 Q1853.89 1525.58 1853.89 1522.62 Q1853.89 1518.48 1856.83 1516.07 Q1859.79 1513.66 1864.93 1513.66 Q1870.09 1513.66 1873.03 1516.07 Q1875.97 1518.48 1875.97 1522.62 Q1875.97 1525.58 1874.28 1527.64 Q1872.61 1529.7 1869.63 1530.45 Q1873.01 1531.23 1874.88 1533.52 Q1876.78 1535.82 1876.78 1539.13 Q1876.78 1544.15 1873.7 1546.83 Q1870.64 1549.52 1864.93 1549.52 Q1859.21 1549.52 1856.13 1546.83 Q1853.08 1544.15 1853.08 1539.13 Q1853.08 1535.82 1854.97 1533.52 Q1856.87 1531.23 1860.25 1530.45 M1858.54 1523.06 Q1858.54 1525.75 1860.2 1527.25 Q1861.89 1528.76 1864.93 1528.76 Q1867.94 1528.76 1869.63 1527.25 Q1871.34 1525.75 1871.34 1523.06 Q1871.34 1520.38 1869.63 1518.87 Q1867.94 1517.37 1864.93 1517.37 Q1861.89 1517.37 1860.2 1518.87 Q1858.54 1520.38 1858.54 1523.06 Z" fill="#000000" fill-rule="evenodd" fill-opacity="1" /><path clip-path="url(#clip410)" d="M2259.03 1544.91 L2266.67 1544.91 L2266.67 1518.55 L2258.36 1520.21 L2258.36 1515.95 L2266.62 1514.29 L2271.3 1514.29 L2271.3 1544.91 L2278.94 1544.91 L2278.94 1548.85 L2259.03 1548.85 L2259.03 1544.91 Z" fill="#000000" fill-rule="evenodd" fill-opacity="1" /><path clip-path="url(#clip410)" d="M2288.38 1542.97 L2293.27 1542.97 L2293.27 1548.85 L2288.38 1548.85 L2288.38 1542.97 Z" fill="#000000" fill-rule="evenodd" fill-opacity="1" /><path clip-path="url(#clip410)" d="M2313.45 1517.37 Q2309.84 1517.37 2308.01 1520.93 Q2306.21 1524.47 2306.21 1531.6 Q2306.21 1538.71 2308.01 1542.27 Q2309.84 1545.82 2313.45 1545.82 Q2317.09 1545.82 2318.89 1542.27 Q2320.72 1538.71 2320.72 1531.6 Q2320.72 1524.47 2318.89 1520.93 Q2317.09 1517.37 2313.45 1517.37 M2313.45 1513.66 Q2319.26 1513.66 2322.32 1518.27 Q2325.4 1522.85 2325.4 1531.6 Q2325.4 1540.33 2322.32 1544.94 Q2319.26 1549.52 2313.45 1549.52 Q2307.64 1549.52 2304.56 1544.94 Q2301.51 1540.33 2301.51 1531.6 Q2301.51 1522.85 2304.56 1518.27 Q2307.64 1513.66 2313.45 1513.66 Z" fill="#000000" fill-rule="evenodd" fill-opacity="1" /><polyline clip-path="url(#clip412)" style="stroke:#000000; stroke-linecap:butt; stroke-linejoin:round; stroke-width:2; stroke-opacity:0.1; fill:none" points="
  156.598,1300.98 2352.76,1300.98 
  "/>
<polyline clip-path="url(#clip412)" style="stroke:#000000; stroke-linecap:butt; stroke-linejoin:round; stroke-width:2; stroke-opacity:0.1; fill:none" points="
  156.598,1095.99 2352.76,1095.99 
  "/>
<polyline clip-path="url(#clip412)" style="stroke:#000000; stroke-linecap:butt; stroke-linejoin:round; stroke-width:2; stroke-opacity:0.1; fill:none" points="
  156.598,891.003 2352.76,891.003 
  "/>
<polyline clip-path="url(#clip412)" style="stroke:#000000; stroke-linecap:butt; stroke-linejoin:round; stroke-width:2; stroke-opacity:0.1; fill:none" points="
  156.598,686.015 2352.76,686.015 
  "/>
<polyline clip-path="url(#clip412)" style="stroke:#000000; stroke-linecap:butt; stroke-linejoin:round; stroke-width:2; stroke-opacity:0.1; fill:none" points="
  156.598,481.028 2352.76,481.028 
  "/>
<polyline clip-path="url(#clip412)" style="stroke:#000000; stroke-linecap:butt; stroke-linejoin:round; stroke-width:2; stroke-opacity:0.1; fill:none" points="
  156.598,276.04 2352.76,276.04 
  "/>
<polyline clip-path="url(#clip412)" style="stroke:#000000; stroke-linecap:butt; stroke-linejoin:round; stroke-width:2; stroke-opacity:0.1; fill:none" points="
  156.598,71.0522 2352.76,71.0522 
  "/>
<polyline clip-path="url(#clip410)" style="stroke:#000000; stroke-linecap:butt; stroke-linejoin:round; stroke-width:4; stroke-opacity:1; fill:none" points="
  156.598,1486.45 156.598,47.2441 
  "/>
<polyline clip-path="url(#clip410)" style="stroke:#000000; stroke-linecap:butt; stroke-linejoin:round; stroke-width:4; stroke-opacity:1; fill:none" points="
  156.598,1300.98 175.496,1300.98 
  "/>
<polyline clip-path="url(#clip410)" style="stroke:#000000; stroke-linecap:butt; stroke-linejoin:round; stroke-width:4; stroke-opacity:1; fill:none" points="
  156.598,1095.99 175.496,1095.99 
  "/>
<polyline clip-path="url(#clip410)" style="stroke:#000000; stroke-linecap:butt; stroke-linejoin:round; stroke-width:4; stroke-opacity:1; fill:none" points="
  156.598,891.003 175.496,891.003 
  "/>
<polyline clip-path="url(#clip410)" style="stroke:#000000; stroke-linecap:butt; stroke-linejoin:round; stroke-width:4; stroke-opacity:1; fill:none" points="
  156.598,686.015 175.496,686.015 
  "/>
<polyline clip-path="url(#clip410)" style="stroke:#000000; stroke-linecap:butt; stroke-linejoin:round; stroke-width:4; stroke-opacity:1; fill:none" points="
  156.598,481.028 175.496,481.028 
  "/>
<polyline clip-path="url(#clip410)" style="stroke:#000000; stroke-linecap:butt; stroke-linejoin:round; stroke-width:4; stroke-opacity:1; fill:none" points="
  156.598,276.04 175.496,276.04 
  "/>
<polyline clip-path="url(#clip410)" style="stroke:#000000; stroke-linecap:butt; stroke-linejoin:round; stroke-width:4; stroke-opacity:1; fill:none" points="
  156.598,71.0522 175.496,71.0522 
  "/>
<path clip-path="url(#clip410)" d="M65.0198 1286.78 Q61.4087 1286.78 59.58 1290.34 Q57.7745 1293.88 57.7745 1301.01 Q57.7745 1308.12 59.58 1311.68 Q61.4087 1315.23 65.0198 1315.23 Q68.6541 1315.23 70.4596 1311.68 Q72.2883 1308.12 72.2883 1301.01 Q72.2883 1293.88 70.4596 1290.34 Q68.6541 1286.78 65.0198 1286.78 M65.0198 1283.07 Q70.83 1283.07 73.8855 1287.68 Q76.9642 1292.26 76.9642 1301.01 Q76.9642 1309.74 73.8855 1314.35 Q70.83 1318.93 65.0198 1318.93 Q59.2097 1318.93 56.131 1314.35 Q53.0754 1309.74 53.0754 1301.01 Q53.0754 1292.26 56.131 1287.68 Q59.2097 1283.07 65.0198 1283.07 Z" fill="#000000" fill-rule="evenodd" fill-opacity="1" /><path clip-path="url(#clip410)" d="M85.1818 1312.38 L90.066 1312.38 L90.066 1318.26 L85.1818 1318.26 L85.1818 1312.38 Z" fill="#000000" fill-rule="evenodd" fill-opacity="1" /><path clip-path="url(#clip410)" d="M104.279 1314.32 L120.598 1314.32 L120.598 1318.26 L98.6539 1318.26 L98.6539 1314.32 Q101.316 1311.57 105.899 1306.94 Q110.506 1302.29 111.686 1300.94 Q113.932 1298.42 114.811 1296.68 Q115.714 1294.93 115.714 1293.24 Q115.714 1290.48 113.77 1288.74 Q111.848 1287.01 108.746 1287.01 Q106.547 1287.01 104.094 1287.77 Q101.663 1288.54 98.8854 1290.09 L98.8854 1285.37 Q101.709 1284.23 104.163 1283.65 Q106.617 1283.07 108.654 1283.07 Q114.024 1283.07 117.219 1285.76 Q120.413 1288.44 120.413 1292.93 Q120.413 1295.06 119.603 1296.99 Q118.816 1298.88 116.709 1301.48 Q116.131 1302.15 113.029 1305.36 Q109.927 1308.56 104.279 1314.32 Z" fill="#000000" fill-rule="evenodd" fill-opacity="1" /><path clip-path="url(#clip410)" d="M64.0708 1081.79 Q60.4597 1081.79 58.631 1085.35 Q56.8254 1088.9 56.8254 1096.03 Q56.8254 1103.13 58.631 1106.7 Q60.4597 1110.24 64.0708 1110.24 Q67.705 1110.24 69.5105 1106.7 Q71.3392 1103.13 71.3392 1096.03 Q71.3392 1088.9 69.5105 1085.35 Q67.705 1081.79 64.0708 1081.79 M64.0708 1078.09 Q69.8809 1078.09 72.9365 1082.69 Q76.0151 1087.28 76.0151 1096.03 Q76.0151 1104.75 72.9365 1109.36 Q69.8809 1113.94 64.0708 1113.94 Q58.2606 1113.94 55.1819 1109.36 Q52.1264 1104.75 52.1264 1096.03 Q52.1264 1087.28 55.1819 1082.69 Q58.2606 1078.09 64.0708 1078.09 Z" fill="#000000" fill-rule="evenodd" fill-opacity="1" /><path clip-path="url(#clip410)" d="M84.2327 1107.39 L89.1169 1107.39 L89.1169 1113.27 L84.2327 1113.27 L84.2327 1107.39 Z" fill="#000000" fill-rule="evenodd" fill-opacity="1" /><path clip-path="url(#clip410)" d="M113.469 1094.64 Q116.825 1095.35 118.7 1097.62 Q120.598 1099.89 120.598 1103.22 Q120.598 1108.34 117.08 1111.14 Q113.561 1113.94 107.08 1113.94 Q104.904 1113.94 102.589 1113.5 Q100.297 1113.09 97.8437 1112.23 L97.8437 1107.72 Q99.7882 1108.85 102.103 1109.43 Q104.418 1110.01 106.941 1110.01 Q111.339 1110.01 113.631 1108.27 Q115.945 1106.53 115.945 1103.22 Q115.945 1100.17 113.793 1098.46 Q111.663 1096.72 107.844 1096.72 L103.816 1096.72 L103.816 1092.88 L108.029 1092.88 Q111.478 1092.88 113.307 1091.51 Q115.135 1090.12 115.135 1087.53 Q115.135 1084.87 113.237 1083.46 Q111.362 1082.02 107.844 1082.02 Q105.922 1082.02 103.723 1082.44 Q101.524 1082.85 98.8854 1083.73 L98.8854 1079.57 Q101.547 1078.83 103.862 1078.46 Q106.2 1078.09 108.26 1078.09 Q113.584 1078.09 116.686 1080.52 Q119.788 1082.92 119.788 1087.04 Q119.788 1089.91 118.145 1091.91 Q116.501 1093.87 113.469 1094.64 Z" fill="#000000" fill-rule="evenodd" fill-opacity="1" /><path clip-path="url(#clip410)" d="M62.9365 876.802 Q59.3254 876.802 57.4967 880.366 Q55.6912 883.908 55.6912 891.038 Q55.6912 898.144 57.4967 901.709 Q59.3254 905.251 62.9365 905.251 Q66.5707 905.251 68.3763 901.709 Q70.205 898.144 70.205 891.038 Q70.205 883.908 68.3763 880.366 Q66.5707 876.802 62.9365 876.802 M62.9365 873.098 Q68.7467 873.098 71.8022 877.704 Q74.8809 882.288 74.8809 891.038 Q74.8809 899.764 71.8022 904.371 Q68.7467 908.954 62.9365 908.954 Q57.1264 908.954 54.0477 904.371 Q50.9921 899.764 50.9921 891.038 Q50.9921 882.288 54.0477 877.704 Q57.1264 873.098 62.9365 873.098 Z" fill="#000000" fill-rule="evenodd" fill-opacity="1" /><path clip-path="url(#clip410)" d="M83.0984 902.403 L87.9827 902.403 L87.9827 908.283 L83.0984 908.283 L83.0984 902.403 Z" fill="#000000" fill-rule="evenodd" fill-opacity="1" /><path clip-path="url(#clip410)" d="M111.015 877.797 L99.2095 896.246 L111.015 896.246 L111.015 877.797 M109.788 873.723 L115.668 873.723 L115.668 896.246 L120.598 896.246 L120.598 900.135 L115.668 900.135 L115.668 908.283 L111.015 908.283 L111.015 900.135 L95.4132 900.135 L95.4132 895.621 L109.788 873.723 Z" fill="#000000" fill-rule="evenodd" fill-opacity="1" /><path clip-path="url(#clip410)" d="M64.418 671.814 Q60.8069 671.814 58.9782 675.379 Q57.1726 678.92 57.1726 686.05 Q57.1726 693.156 58.9782 696.721 Q60.8069 700.263 64.418 700.263 Q68.0522 700.263 69.8578 696.721 Q71.6865 693.156 71.6865 686.05 Q71.6865 678.92 69.8578 675.379 Q68.0522 671.814 64.418 671.814 M64.418 668.11 Q70.2281 668.11 73.2837 672.717 Q76.3624 677.3 76.3624 686.05 Q76.3624 694.777 73.2837 699.383 Q70.2281 703.967 64.418 703.967 Q58.6078 703.967 55.5291 699.383 Q52.4736 694.777 52.4736 686.05 Q52.4736 677.3 55.5291 672.717 Q58.6078 668.11 64.418 668.11 Z" fill="#000000" fill-rule="evenodd" fill-opacity="1" /><path clip-path="url(#clip410)" d="M84.5799 697.416 L89.4641 697.416 L89.4641 703.295 L84.5799 703.295 L84.5799 697.416 Z" fill="#000000" fill-rule="evenodd" fill-opacity="1" /><path clip-path="url(#clip410)" d="M99.6956 668.735 L118.052 668.735 L118.052 672.67 L103.978 672.67 L103.978 681.143 Q104.996 680.795 106.015 680.633 Q107.033 680.448 108.052 680.448 Q113.839 680.448 117.219 683.619 Q120.598 686.791 120.598 692.207 Q120.598 697.786 117.126 700.888 Q113.654 703.967 107.334 703.967 Q105.159 703.967 102.89 703.596 Q100.645 703.226 98.2372 702.485 L98.2372 697.786 Q100.321 698.92 102.543 699.476 Q104.765 700.031 107.242 700.031 Q111.246 700.031 113.584 697.925 Q115.922 695.818 115.922 692.207 Q115.922 688.596 113.584 686.49 Q111.246 684.383 107.242 684.383 Q105.367 684.383 103.492 684.8 Q101.64 685.217 99.6956 686.096 L99.6956 668.735 Z" fill="#000000" fill-rule="evenodd" fill-opacity="1" /><path clip-path="url(#clip410)" d="M63.2606 466.826 Q59.6495 466.826 57.8208 470.391 Q56.0152 473.933 56.0152 481.062 Q56.0152 488.169 57.8208 491.734 Q59.6495 495.275 63.2606 495.275 Q66.8948 495.275 68.7004 491.734 Q70.5291 488.169 70.5291 481.062 Q70.5291 473.933 68.7004 470.391 Q66.8948 466.826 63.2606 466.826 M63.2606 463.123 Q69.0707 463.123 72.1263 467.729 Q75.205 472.312 75.205 481.062 Q75.205 489.789 72.1263 494.396 Q69.0707 498.979 63.2606 498.979 Q57.4504 498.979 54.3717 494.396 Q51.3162 489.789 51.3162 481.062 Q51.3162 472.312 54.3717 467.729 Q57.4504 463.123 63.2606 463.123 Z" fill="#000000" fill-rule="evenodd" fill-opacity="1" /><path clip-path="url(#clip410)" d="M83.4225 492.428 L88.3067 492.428 L88.3067 498.308 L83.4225 498.308 L83.4225 492.428 Z" fill="#000000" fill-rule="evenodd" fill-opacity="1" /><path clip-path="url(#clip410)" d="M109.071 479.164 Q105.922 479.164 104.071 481.317 Q102.242 483.47 102.242 487.22 Q102.242 490.946 104.071 493.122 Q105.922 495.275 109.071 495.275 Q112.219 495.275 114.047 493.122 Q115.899 490.946 115.899 487.22 Q115.899 483.47 114.047 481.317 Q112.219 479.164 109.071 479.164 M118.353 464.511 L118.353 468.771 Q116.594 467.937 114.788 467.498 Q113.006 467.058 111.246 467.058 Q106.617 467.058 104.163 470.183 Q101.733 473.308 101.385 479.627 Q102.751 477.613 104.811 476.548 Q106.871 475.46 109.348 475.46 Q114.557 475.46 117.566 478.632 Q120.598 481.78 120.598 487.22 Q120.598 492.544 117.45 495.761 Q114.302 498.979 109.071 498.979 Q103.075 498.979 99.9039 494.396 Q96.7326 489.789 96.7326 481.062 Q96.7326 472.868 100.621 468.007 Q104.51 463.123 111.061 463.123 Q112.82 463.123 114.603 463.47 Q116.408 463.817 118.353 464.511 Z" fill="#000000" fill-rule="evenodd" fill-opacity="1" /><path clip-path="url(#clip410)" d="M64.3254 261.839 Q60.7143 261.839 58.8856 265.403 Q57.0801 268.945 57.0801 276.075 Q57.0801 283.181 58.8856 286.746 Q60.7143 290.287 64.3254 290.287 Q67.9596 290.287 69.7652 286.746 Q71.5939 283.181 71.5939 276.075 Q71.5939 268.945 69.7652 265.403 Q67.9596 261.839 64.3254 261.839 M64.3254 258.135 Q70.1355 258.135 73.1911 262.741 Q76.2698 267.325 76.2698 276.075 Q76.2698 284.801 73.1911 289.408 Q70.1355 293.991 64.3254 293.991 Q58.5152 293.991 55.4365 289.408 Q52.381 284.801 52.381 276.075 Q52.381 267.325 55.4365 262.741 Q58.5152 258.135 64.3254 258.135 Z" fill="#000000" fill-rule="evenodd" fill-opacity="1" /><path clip-path="url(#clip410)" d="M84.4873 287.44 L89.3715 287.44 L89.3715 293.32 L84.4873 293.32 L84.4873 287.44 Z" fill="#000000" fill-rule="evenodd" fill-opacity="1" /><path clip-path="url(#clip410)" d="M98.3761 258.76 L120.598 258.76 L120.598 260.751 L108.052 293.32 L103.168 293.32 L114.973 262.695 L98.3761 262.695 L98.3761 258.76 Z" fill="#000000" fill-rule="evenodd" fill-opacity="1" /><path clip-path="url(#clip410)" d="M63.5152 56.8508 Q59.9041 56.8508 58.0754 60.4156 Q56.2699 63.9573 56.2699 71.0869 Q56.2699 78.1933 58.0754 81.7581 Q59.9041 85.2998 63.5152 85.2998 Q67.1494 85.2998 68.955 81.7581 Q70.7837 78.1933 70.7837 71.0869 Q70.7837 63.9573 68.955 60.4156 Q67.1494 56.8508 63.5152 56.8508 M63.5152 53.1472 Q69.3254 53.1472 72.3809 57.7536 Q75.4596 62.3369 75.4596 71.0869 Q75.4596 79.8137 72.3809 84.4201 Q69.3254 89.0034 63.5152 89.0034 Q57.7051 89.0034 54.6264 84.4201 Q51.5708 79.8137 51.5708 71.0869 Q51.5708 62.3369 54.6264 57.7536 Q57.7051 53.1472 63.5152 53.1472 Z" fill="#000000" fill-rule="evenodd" fill-opacity="1" /><path clip-path="url(#clip410)" d="M83.6771 82.4526 L88.5614 82.4526 L88.5614 88.3322 L83.6771 88.3322 L83.6771 82.4526 Z" fill="#000000" fill-rule="evenodd" fill-opacity="1" /><path clip-path="url(#clip410)" d="M108.746 71.9202 Q105.413 71.9202 103.492 73.7026 Q101.594 75.485 101.594 78.61 Q101.594 81.735 103.492 83.5174 Q105.413 85.2998 108.746 85.2998 Q112.08 85.2998 114.001 83.5174 Q115.922 81.7118 115.922 78.61 Q115.922 75.485 114.001 73.7026 Q112.103 71.9202 108.746 71.9202 M104.071 69.9295 Q101.061 69.1887 99.3715 67.1286 Q97.7048 65.0684 97.7048 62.1054 Q97.7048 57.9619 100.645 55.5545 Q103.608 53.1472 108.746 53.1472 Q113.908 53.1472 116.848 55.5545 Q119.788 57.9619 119.788 62.1054 Q119.788 65.0684 118.098 67.1286 Q116.432 69.1887 113.445 69.9295 Q116.825 70.7165 118.7 73.0082 Q120.598 75.2998 120.598 78.61 Q120.598 83.6331 117.52 86.3183 Q114.464 89.0034 108.746 89.0034 Q103.029 89.0034 99.9502 86.3183 Q96.8947 83.6331 96.8947 78.61 Q96.8947 75.2998 98.7928 73.0082 Q100.691 70.7165 104.071 69.9295 M102.358 62.5453 Q102.358 65.2304 104.024 66.735 Q105.714 68.2397 108.746 68.2397 Q111.756 68.2397 113.445 66.735 Q115.158 65.2304 115.158 62.5453 Q115.158 59.8601 113.445 58.3555 Q111.756 56.8508 108.746 56.8508 Q105.714 56.8508 104.024 58.3555 Q102.358 59.8601 102.358 62.5453 Z" fill="#000000" fill-rule="evenodd" fill-opacity="1" /><polyline clip-path="url(#clip412)" style="stroke:#009af9; stroke-linecap:butt; stroke-linejoin:round; stroke-width:4; stroke-opacity:1; fill:none" points="
  1167.47,87.9763 2065.96,1338.02 1170.89,560.078 1818.4,1367.53 852.742,624.188 218.754,1109.66 1851.86,1036.12 2123.38,114.184 2290.6,577.803 2269.04,1445.72 
  
  "/>
<path clip-path="url(#clip410)" d="
M1987.12 198.898 L2279.55 198.898 L2279.55 95.2176 L1987.12 95.2176  Z
  " fill="#ffffff" fill-rule="evenodd" fill-opacity="1"/>
<polyline clip-path="url(#clip410)" style="stroke:#000000; stroke-linecap:butt; stroke-linejoin:round; stroke-width:4; stroke-opacity:1; fill:none" points="
  1987.12,198.898 2279.55,198.898 2279.55,95.2176 1987.12,95.2176 1987.12,198.898 
  "/>
<polyline clip-path="url(#clip410)" style="stroke:#009af9; stroke-linecap:butt; stroke-linejoin:round; stroke-width:4; stroke-opacity:1; fill:none" points="
  2011.12,147.058 2155.12,147.058 
  "/>
<path clip-path="url(#clip410)" d="M2192.96 166.745 Q2191.16 171.375 2189.44 172.787 Q2187.73 174.199 2184.86 174.199 L2181.46 174.199 L2181.46 170.634 L2183.96 170.634 Q2185.72 170.634 2186.69 169.8 Q2187.66 168.967 2188.84 165.865 L2189.61 163.921 L2179.12 138.412 L2183.63 138.412 L2191.74 158.689 L2199.84 138.412 L2204.35 138.412 L2192.96 166.745 Z" fill="#000000" fill-rule="evenodd" fill-opacity="1" /><path clip-path="url(#clip410)" d="M2211.64 160.402 L2219.28 160.402 L2219.28 134.037 L2210.97 135.703 L2210.97 131.444 L2219.24 129.778 L2223.91 129.778 L2223.91 160.402 L2231.55 160.402 L2231.55 164.338 L2211.64 164.338 L2211.64 160.402 Z" fill="#000000" fill-rule="evenodd" fill-opacity="1" /></svg>
