<?xml version="1.0" encoding="utf-8"?>
<svg xmlns="http://www.w3.org/2000/svg" xmlns:xlink="http://www.w3.org/1999/xlink" width="600" height="400" viewBox="0 0 2400 1600">
<defs>
  <clipPath id="clip380">
    <rect x="0" y="0" width="2400" height="1600"/>
  </clipPath>
</defs>
<path clip-path="url(#clip380)" d="
M0 1600 L2400 1600 L2400 0 L0 0  Z
  " fill="#ffffff" fill-rule="evenodd" fill-opacity="1"/>
<defs>
  <clipPath id="clip381">
    <rect x="480" y="0" width="1681" height="1600"/>
  </clipPath>
</defs>
<path clip-path="url(#clip380)" d="
M156.598 1486.45 L2352.76 1486.45 L2352.76 47.2441 L156.598 47.2441  Z
  " fill="#ffffff" fill-rule="evenodd" fill-opacity="1"/>
<defs>
  <clipPath id="clip382">
    <rect x="156" y="47" width="2197" height="1440"/>
  </clipPath>
</defs>
<polyline clip-path="url(#clip382)" style="stroke:#000000; stroke-linecap:butt; stroke-linejoin:round; stroke-width:2; stroke-opacity:0.1; fill:none" points="
  540.047,1486.45 540.047,47.2441 
  "/>
<polyline clip-path="url(#clip382)" style="stroke:#000000; stroke-linecap:butt; stroke-linejoin:round; stroke-width:2; stroke-opacity:0.1; fill:none" points="
  1015.4,1486.45 1015.4,47.2441 
  "/>
<polyline clip-path="url(#clip382)" style="stroke:#000000; stroke-linecap:butt; stroke-linejoin:round; stroke-width:2; stroke-opacity:0.1; fill:none" points="
  1490.75,1486.45 1490.75,47.2441 
  "/>
<polyline clip-path="url(#clip382)" style="stroke:#000000; stroke-linecap:butt; stroke-linejoin:round; stroke-width:2; stroke-opacity:0.1; fill:none" points="
  1966.1,1486.45 1966.1,47.2441 
  "/>
<polyline clip-path="url(#clip380)" style="stroke:#000000; stroke-linecap:butt; stroke-linejoin:round; stroke-width:4; stroke-opacity:1; fill:none" points="
  156.598,1486.45 2352.76,1486.45 
  "/>
<polyline clip-path="url(#clip380)" style="stroke:#000000; stroke-linecap:butt; stroke-linejoin:round; stroke-width:4; stroke-opacity:1; fill:none" points="
  540.047,1486.45 540.047,1467.55 
  "/>
<polyline clip-path="url(#clip380)" style="stroke:#000000; stroke-linecap:butt; stroke-linejoin:round; stroke-width:4; stroke-opacity:1; fill:none" points="
  1015.4,1486.45 1015.4,1467.55 
  "/>
<polyline clip-path="url(#clip380)" style="stroke:#000000; stroke-linecap:butt; stroke-linejoin:round; stroke-width:4; stroke-opacity:1; fill:none" points="
  1490.75,1486.45 1490.75,1467.55 
  "/>
<polyline clip-path="url(#clip380)" style="stroke:#000000; stroke-linecap:butt; stroke-linejoin:round; stroke-width:4; stroke-opacity:1; fill:none" points="
  1966.1,1486.45 1966.1,1467.55 
  "/>
<path clip-path="url(#clip380)" d="M518.23 1517.37 Q514.619 1517.37 512.79 1520.93 Q510.985 1524.47 510.985 1531.6 Q510.985 1538.71 512.79 1542.27 Q514.619 1545.82 518.23 1545.82 Q521.864 1545.82 523.67 1542.27 Q525.499 1538.71 525.499 1531.6 Q525.499 1524.47 523.67 1520.93 Q521.864 1517.37 518.23 1517.37 M518.23 1513.66 Q524.04 1513.66 527.096 1518.27 Q530.175 1522.85 530.175 1531.6 Q530.175 1540.33 527.096 1544.94 Q524.04 1549.52 518.23 1549.52 Q512.42 1549.52 509.341 1544.94 Q506.286 1540.33 506.286 1531.6 Q506.286 1522.85 509.341 1518.27 Q512.42 1513.66 518.23 1513.66 Z" fill="#000000" fill-rule="evenodd" fill-opacity="1" /><path clip-path="url(#clip380)" d="M538.392 1542.97 L543.276 1542.97 L543.276 1548.85 L538.392 1548.85 L538.392 1542.97 Z" fill="#000000" fill-rule="evenodd" fill-opacity="1" /><path clip-path="url(#clip380)" d="M557.489 1544.91 L573.809 1544.91 L573.809 1548.85 L551.864 1548.85 L551.864 1544.91 Q554.526 1542.16 559.11 1537.53 Q563.716 1532.88 564.897 1531.53 Q567.142 1529.01 568.022 1527.27 Q568.924 1525.51 568.924 1523.82 Q568.924 1521.07 566.98 1519.33 Q565.059 1517.6 561.957 1517.6 Q559.758 1517.6 557.304 1518.36 Q554.874 1519.13 552.096 1520.68 L552.096 1515.95 Q554.92 1514.82 557.374 1514.24 Q559.827 1513.66 561.864 1513.66 Q567.235 1513.66 570.429 1516.35 Q573.623 1519.03 573.623 1523.52 Q573.623 1525.65 572.813 1527.57 Q572.026 1529.47 569.92 1532.07 Q569.341 1532.74 566.239 1535.95 Q563.137 1539.15 557.489 1544.91 Z" fill="#000000" fill-rule="evenodd" fill-opacity="1" /><path clip-path="url(#clip380)" d="M992.54 1517.37 Q988.929 1517.37 987.101 1520.93 Q985.295 1524.47 985.295 1531.6 Q985.295 1538.71 987.101 1542.27 Q988.929 1545.82 992.54 1545.82 Q996.175 1545.82 997.98 1542.27 Q999.809 1538.71 999.809 1531.6 Q999.809 1524.47 997.98 1520.93 Q996.175 1517.37 992.54 1517.37 M992.54 1513.66 Q998.35 1513.66 1001.41 1518.27 Q1004.48 1522.85 1004.48 1531.6 Q1004.48 1540.33 1001.41 1544.94 Q998.35 1549.52 992.54 1549.52 Q986.73 1549.52 983.651 1544.94 Q980.596 1540.33 980.596 1531.6 Q980.596 1522.85 983.651 1518.27 Q986.73 1513.66 992.54 1513.66 Z" fill="#000000" fill-rule="evenodd" fill-opacity="1" /><path clip-path="url(#clip380)" d="M1012.7 1542.97 L1017.59 1542.97 L1017.59 1548.85 L1012.7 1548.85 L1012.7 1542.97 Z" fill="#000000" fill-rule="evenodd" fill-opacity="1" /><path clip-path="url(#clip380)" d="M1040.62 1518.36 L1028.81 1536.81 L1040.62 1536.81 L1040.62 1518.36 M1039.39 1514.29 L1045.27 1514.29 L1045.27 1536.81 L1050.2 1536.81 L1050.2 1540.7 L1045.27 1540.7 L1045.27 1548.85 L1040.62 1548.85 L1040.62 1540.7 L1025.02 1540.7 L1025.02 1536.19 L1039.39 1514.29 Z" fill="#000000" fill-rule="evenodd" fill-opacity="1" /><path clip-path="url(#clip380)" d="M1468.05 1517.37 Q1464.44 1517.37 1462.61 1520.93 Q1460.81 1524.47 1460.81 1531.6 Q1460.81 1538.71 1462.61 1542.27 Q1464.44 1545.82 1468.05 1545.82 Q1471.69 1545.82 1473.49 1542.27 Q1475.32 1538.71 1475.32 1531.6 Q1475.32 1524.47 1473.49 1520.93 Q1471.69 1517.37 1468.05 1517.37 M1468.05 1513.66 Q1473.86 1513.66 1476.92 1518.27 Q1480 1522.85 1480 1531.6 Q1480 1540.33 1476.92 1544.94 Q1473.86 1549.52 1468.05 1549.52 Q1462.24 1549.52 1459.17 1544.94 Q1456.11 1540.33 1456.11 1531.6 Q1456.11 1522.85 1459.17 1518.27 Q1462.24 1513.66 1468.05 1513.66 Z" fill="#000000" fill-rule="evenodd" fill-opacity="1" /><path clip-path="url(#clip380)" d="M1488.22 1542.97 L1493.1 1542.97 L1493.1 1548.85 L1488.22 1548.85 L1488.22 1542.97 Z" fill="#000000" fill-rule="evenodd" fill-opacity="1" /><path clip-path="url(#clip380)" d="M1513.86 1529.7 Q1510.72 1529.7 1508.86 1531.86 Q1507.04 1534.01 1507.04 1537.76 Q1507.04 1541.49 1508.86 1543.66 Q1510.72 1545.82 1513.86 1545.82 Q1517.01 1545.82 1518.84 1543.66 Q1520.69 1541.49 1520.69 1537.76 Q1520.69 1534.01 1518.84 1531.86 Q1517.01 1529.7 1513.86 1529.7 M1523.15 1515.05 L1523.15 1519.31 Q1521.39 1518.48 1519.58 1518.04 Q1517.8 1517.6 1516.04 1517.6 Q1511.41 1517.6 1508.96 1520.72 Q1506.53 1523.85 1506.18 1530.17 Q1507.54 1528.15 1509.6 1527.09 Q1511.67 1526 1514.14 1526 Q1519.35 1526 1522.36 1529.17 Q1525.39 1532.32 1525.39 1537.76 Q1525.39 1543.08 1522.24 1546.3 Q1519.1 1549.52 1513.86 1549.52 Q1507.87 1549.52 1504.7 1544.94 Q1501.53 1540.33 1501.53 1531.6 Q1501.53 1523.41 1505.42 1518.55 Q1509.3 1513.66 1515.85 1513.66 Q1517.61 1513.66 1519.4 1514.01 Q1521.2 1514.36 1523.15 1515.05 Z" fill="#000000" fill-rule="evenodd" fill-opacity="1" /><path clip-path="url(#clip380)" d="M1943.53 1517.37 Q1939.92 1517.37 1938.09 1520.93 Q1936.29 1524.47 1936.29 1531.6 Q1936.29 1538.71 1938.09 1542.27 Q1939.92 1545.82 1943.53 1545.82 Q1947.17 1545.82 1948.97 1542.27 Q1950.8 1538.71 1950.8 1531.6 Q1950.8 1524.47 1948.97 1520.93 Q1947.17 1517.37 1943.53 1517.37 M1943.53 1513.66 Q1949.34 1513.66 1952.4 1518.27 Q1955.48 1522.85 1955.48 1531.6 Q1955.48 1540.33 1952.4 1544.94 Q1949.34 1549.52 1943.53 1549.52 Q1937.72 1549.52 1934.64 1544.94 Q1931.59 1540.33 1931.59 1531.6 Q1931.59 1522.85 1934.64 1518.27 Q1937.72 1513.66 1943.53 1513.66 Z" fill="#000000" fill-rule="evenodd" fill-opacity="1" /><path clip-path="url(#clip380)" d="M1963.7 1542.97 L1968.58 1542.97 L1968.58 1548.85 L1963.7 1548.85 L1963.7 1542.97 Z" fill="#000000" fill-rule="evenodd" fill-opacity="1" /><path clip-path="url(#clip380)" d="M1988.76 1532.44 Q1985.43 1532.44 1983.51 1534.22 Q1981.61 1536 1981.61 1539.13 Q1981.61 1542.25 1983.51 1544.03 Q1985.43 1545.82 1988.76 1545.82 Q1992.1 1545.82 1994.02 1544.03 Q1995.94 1542.23 1995.94 1539.13 Q1995.94 1536 1994.02 1534.22 Q1992.12 1532.44 1988.76 1532.44 M1984.09 1530.45 Q1981.08 1529.7 1979.39 1527.64 Q1977.72 1525.58 1977.72 1522.62 Q1977.72 1518.48 1980.66 1516.07 Q1983.63 1513.66 1988.76 1513.66 Q1993.93 1513.66 1996.87 1516.07 Q1999.81 1518.48 1999.81 1522.62 Q1999.81 1525.58 1998.12 1527.64 Q1996.45 1529.7 1993.46 1530.45 Q1996.84 1531.23 1998.72 1533.52 Q2000.62 1535.82 2000.62 1539.13 Q2000.62 1544.15 1997.54 1546.83 Q1994.48 1549.52 1988.76 1549.52 Q1983.05 1549.52 1979.97 1546.83 Q1976.91 1544.15 1976.91 1539.13 Q1976.91 1535.82 1978.81 1533.52 Q1980.71 1531.23 1984.09 1530.45 M1982.38 1523.06 Q1982.38 1525.75 1984.04 1527.25 Q1985.73 1528.76 1988.76 1528.76 Q1991.77 1528.76 1993.46 1527.25 Q1995.18 1525.75 1995.18 1523.06 Q1995.18 1520.38 1993.46 1518.87 Q1991.77 1517.37 1988.76 1517.37 Q1985.73 1517.37 1984.04 1518.87 Q1982.38 1520.38 1982.38 1523.06 Z" fill="#000000" fill-rule="evenodd" fill-opacity="1" /><polyline clip-path="url(#clip382)" style="stroke:#000000; stroke-linecap:butt; stroke-linejoin:round; stroke-width:2; stroke-opacity:0.1; fill:none" points="
  156.598,1322.73 2352.76,1322.73 
  "/>
<polyline clip-path="url(#clip382)" style="stroke:#000000; stroke-linecap:butt; stroke-linejoin:round; stroke-width:2; stroke-opacity:0.1; fill:none" points="
  156.598,961.283 2352.76,961.283 
  "/>
<polyline clip-path="url(#clip382)" style="stroke:#000000; stroke-linecap:butt; stroke-linejoin:round; stroke-width:2; stroke-opacity:0.1; fill:none" points="
  156.598,599.839 2352.76,599.839 
  "/>
<polyline clip-path="url(#clip382)" style="stroke:#000000; stroke-linecap:butt; stroke-linejoin:round; stroke-width:2; stroke-opacity:0.1; fill:none" points="
  156.598,238.394 2352.76,238.394 
  "/>
<polyline clip-path="url(#clip380)" style="stroke:#000000; stroke-linecap:butt; stroke-linejoin:round; stroke-width:4; stroke-opacity:1; fill:none" points="
  156.598,1486.45 156.598,47.2441 
  "/>
<polyline clip-path="url(#clip380)" style="stroke:#000000; stroke-linecap:butt; stroke-linejoin:round; stroke-width:4; stroke-opacity:1; fill:none" points="
  156.598,1322.73 175.496,1322.73 
  "/>
<polyline clip-path="url(#clip380)" style="stroke:#000000; stroke-linecap:butt; stroke-linejoin:round; stroke-width:4; stroke-opacity:1; fill:none" points="
  156.598,961.283 175.496,961.283 
  "/>
<polyline clip-path="url(#clip380)" style="stroke:#000000; stroke-linecap:butt; stroke-linejoin:round; stroke-width:4; stroke-opacity:1; fill:none" points="
  156.598,599.839 175.496,599.839 
  "/>
<polyline clip-path="url(#clip380)" style="stroke:#000000; stroke-linecap:butt; stroke-linejoin:round; stroke-width:4; stroke-opacity:1; fill:none" points="
  156.598,238.394 175.496,238.394 
  "/>
<path clip-path="url(#clip380)" d="M65.0198 1308.53 Q61.4087 1308.53 59.58 1312.09 Q57.7745 1315.63 57.7745 1322.76 Q57.7745 1329.87 59.58 1333.43 Q61.4087 1336.98 65.0198 1336.98 Q68.6541 1336.98 70.4596 1333.43 Q72.2883 1329.87 72.2883 1322.76 Q72.2883 1315.63 70.4596 1312.09 Q68.6541 1308.53 65.0198 1308.53 M65.0198 1304.82 Q70.83 1304.82 73.8855 1309.43 Q76.9642 1314.01 76.9642 1322.76 Q76.9642 1331.49 73.8855 1336.1 Q70.83 1340.68 65.0198 1340.68 Q59.2097 1340.68 56.131 1336.1 Q53.0754 1331.49 53.0754 1322.76 Q53.0754 1314.01 56.131 1309.43 Q59.2097 1304.82 65.0198 1304.82 Z" fill="#000000" fill-rule="evenodd" fill-opacity="1" /><path clip-path="url(#clip380)" d="M85.1818 1334.13 L90.066 1334.13 L90.066 1340.01 L85.1818 1340.01 L85.1818 1334.13 Z" fill="#000000" fill-rule="evenodd" fill-opacity="1" /><path clip-path="url(#clip380)" d="M104.279 1336.07 L120.598 1336.07 L120.598 1340.01 L98.6539 1340.01 L98.6539 1336.07 Q101.316 1333.32 105.899 1328.69 Q110.506 1324.04 111.686 1322.69 Q113.932 1320.17 114.811 1318.43 Q115.714 1316.67 115.714 1314.99 Q115.714 1312.23 113.77 1310.49 Q111.848 1308.76 108.746 1308.76 Q106.547 1308.76 104.094 1309.52 Q101.663 1310.29 98.8854 1311.84 L98.8854 1307.11 Q101.709 1305.98 104.163 1305.4 Q106.617 1304.82 108.654 1304.82 Q114.024 1304.82 117.219 1307.51 Q120.413 1310.19 120.413 1314.68 Q120.413 1316.81 119.603 1318.74 Q118.816 1320.63 116.709 1323.23 Q116.131 1323.9 113.029 1327.11 Q109.927 1330.31 104.279 1336.07 Z" fill="#000000" fill-rule="evenodd" fill-opacity="1" /><path clip-path="url(#clip380)" d="M62.9365 947.082 Q59.3254 947.082 57.4967 950.647 Q55.6912 954.189 55.6912 961.318 Q55.6912 968.425 57.4967 971.989 Q59.3254 975.531 62.9365 975.531 Q66.5707 975.531 68.3763 971.989 Q70.205 968.425 70.205 961.318 Q70.205 954.189 68.3763 950.647 Q66.5707 947.082 62.9365 947.082 M62.9365 943.378 Q68.7467 943.378 71.8022 947.985 Q74.8809 952.568 74.8809 961.318 Q74.8809 970.045 71.8022 974.651 Q68.7467 979.235 62.9365 979.235 Q57.1264 979.235 54.0477 974.651 Q50.9921 970.045 50.9921 961.318 Q50.9921 952.568 54.0477 947.985 Q57.1264 943.378 62.9365 943.378 Z" fill="#000000" fill-rule="evenodd" fill-opacity="1" /><path clip-path="url(#clip380)" d="M83.0984 972.684 L87.9827 972.684 L87.9827 978.563 L83.0984 978.563 L83.0984 972.684 Z" fill="#000000" fill-rule="evenodd" fill-opacity="1" /><path clip-path="url(#clip380)" d="M111.015 948.077 L99.2095 966.526 L111.015 966.526 L111.015 948.077 M109.788 944.003 L115.668 944.003 L115.668 966.526 L120.598 966.526 L120.598 970.415 L115.668 970.415 L115.668 978.563 L111.015 978.563 L111.015 970.415 L95.4132 970.415 L95.4132 965.901 L109.788 944.003 Z" fill="#000000" fill-rule="evenodd" fill-opacity="1" /><path clip-path="url(#clip380)" d="M63.2606 585.637 Q59.6495 585.637 57.8208 589.202 Q56.0152 592.744 56.0152 599.873 Q56.0152 606.98 57.8208 610.545 Q59.6495 614.086 63.2606 614.086 Q66.8948 614.086 68.7004 610.545 Q70.5291 606.98 70.5291 599.873 Q70.5291 592.744 68.7004 589.202 Q66.8948 585.637 63.2606 585.637 M63.2606 581.934 Q69.0707 581.934 72.1263 586.54 Q75.205 591.123 75.205 599.873 Q75.205 608.6 72.1263 613.207 Q69.0707 617.79 63.2606 617.79 Q57.4504 617.79 54.3717 613.207 Q51.3162 608.6 51.3162 599.873 Q51.3162 591.123 54.3717 586.54 Q57.4504 581.934 63.2606 581.934 Z" fill="#000000" fill-rule="evenodd" fill-opacity="1" /><path clip-path="url(#clip380)" d="M83.4225 611.239 L88.3067 611.239 L88.3067 617.119 L83.4225 617.119 L83.4225 611.239 Z" fill="#000000" fill-rule="evenodd" fill-opacity="1" /><path clip-path="url(#clip380)" d="M109.071 597.975 Q105.922 597.975 104.071 600.128 Q102.242 602.281 102.242 606.031 Q102.242 609.758 104.071 611.934 Q105.922 614.086 109.071 614.086 Q112.219 614.086 114.047 611.934 Q115.899 609.758 115.899 606.031 Q115.899 602.281 114.047 600.128 Q112.219 597.975 109.071 597.975 M118.353 583.323 L118.353 587.582 Q116.594 586.748 114.788 586.309 Q113.006 585.869 111.246 585.869 Q106.617 585.869 104.163 588.994 Q101.733 592.119 101.385 598.438 Q102.751 596.424 104.811 595.36 Q106.871 594.272 109.348 594.272 Q114.557 594.272 117.566 597.443 Q120.598 600.591 120.598 606.031 Q120.598 611.355 117.45 614.572 Q114.302 617.79 109.071 617.79 Q103.075 617.79 99.9039 613.207 Q96.7326 608.6 96.7326 599.873 Q96.7326 591.679 100.621 586.818 Q104.51 581.934 111.061 581.934 Q112.82 581.934 114.603 582.281 Q116.408 582.628 118.353 583.323 Z" fill="#000000" fill-rule="evenodd" fill-opacity="1" /><path clip-path="url(#clip380)" d="M63.5152 224.193 Q59.9041 224.193 58.0754 227.757 Q56.2699 231.299 56.2699 238.429 Q56.2699 245.535 58.0754 249.1 Q59.9041 252.642 63.5152 252.642 Q67.1494 252.642 68.955 249.1 Q70.7837 245.535 70.7837 238.429 Q70.7837 231.299 68.955 227.757 Q67.1494 224.193 63.5152 224.193 M63.5152 220.489 Q69.3254 220.489 72.3809 225.095 Q75.4596 229.679 75.4596 238.429 Q75.4596 247.155 72.3809 251.762 Q69.3254 256.345 63.5152 256.345 Q57.7051 256.345 54.6264 251.762 Q51.5708 247.155 51.5708 238.429 Q51.5708 229.679 54.6264 225.095 Q57.7051 220.489 63.5152 220.489 Z" fill="#000000" fill-rule="evenodd" fill-opacity="1" /><path clip-path="url(#clip380)" d="M83.6771 249.794 L88.5614 249.794 L88.5614 255.674 L83.6771 255.674 L83.6771 249.794 Z" fill="#000000" fill-rule="evenodd" fill-opacity="1" /><path clip-path="url(#clip380)" d="M108.746 239.262 Q105.413 239.262 103.492 241.044 Q101.594 242.827 101.594 245.952 Q101.594 249.077 103.492 250.859 Q105.413 252.642 108.746 252.642 Q112.08 252.642 114.001 250.859 Q115.922 249.054 115.922 245.952 Q115.922 242.827 114.001 241.044 Q112.103 239.262 108.746 239.262 M104.071 237.271 Q101.061 236.531 99.3715 234.47 Q97.7048 232.41 97.7048 229.447 Q97.7048 225.304 100.645 222.896 Q103.608 220.489 108.746 220.489 Q113.908 220.489 116.848 222.896 Q119.788 225.304 119.788 229.447 Q119.788 232.41 118.098 234.47 Q116.432 236.531 113.445 237.271 Q116.825 238.058 118.7 240.35 Q120.598 242.642 120.598 245.952 Q120.598 250.975 117.52 253.66 Q114.464 256.345 108.746 256.345 Q103.029 256.345 99.9502 253.66 Q96.8947 250.975 96.8947 245.952 Q96.8947 242.642 98.7928 240.35 Q100.691 238.058 104.071 237.271 M102.358 229.887 Q102.358 232.572 104.024 234.077 Q105.714 235.581 108.746 235.581 Q111.756 235.581 113.445 234.077 Q115.158 232.572 115.158 229.887 Q115.158 227.202 113.445 225.697 Q111.756 224.193 108.746 224.193 Q105.714 224.193 104.024 225.697 Q102.358 227.202 102.358 229.887 Z" fill="#000000" fill-rule="evenodd" fill-opacity="1" /><polyline clip-path="url(#clip382)" style="stroke:#009af9; stroke-linecap:butt; stroke-linejoin:round; stroke-width:4; stroke-opacity:1; fill:none" points="
  613.286,278.713 1283.47,853.162 1205.04,123.298 1719.57,701.042 2290.6,1379.85 840.987,169.079 218.754,87.9763 686.349,901.425 344.35,1398.33 1251.5,1445.72 
  
  "/>
<path clip-path="url(#clip380)" d="
M1987.12 198.898 L2279.55 198.898 L2279.55 95.2176 L1987.12 95.2176  Z
  " fill="#ffffff" fill-rule="evenodd" fill-opacity="1"/>
<polyline clip-path="url(#clip380)" style="stroke:#000000; stroke-linecap:butt; stroke-linejoin:round; stroke-width:4; stroke-opacity:1; fill:none" points="
  1987.12,198.898 2279.55,198.898 2279.55,95.2176 1987.12,95.2176 1987.12,198.898 
  "/>
<polyline clip-path="url(#clip380)" style="stroke:#009af9; stroke-linecap:butt; stroke-linejoin:round; stroke-width:4; stroke-opacity:1; fill:none" points="
  2011.12,147.058 2155.12,147.058 
  "/>
<path clip-path="url(#clip380)" d="M2192.96 166.745 Q2191.16 171.375 2189.44 172.787 Q2187.73 174.199 2184.86 174.199 L2181.46 174.199 L2181.46 170.634 L2183.96 170.634 Q2185.72 170.634 2186.69 169.8 Q2187.66 168.967 2188.84 165.865 L2189.61 163.921 L2179.12 138.412 L2183.63 138.412 L2191.74 158.689 L2199.84 138.412 L2204.35 138.412 L2192.96 166.745 Z" fill="#000000" fill-rule="evenodd" fill-opacity="1" /><path clip-path="url(#clip380)" d="M2211.64 160.402 L2219.28 160.402 L2219.28 134.037 L2210.97 135.703 L2210.97 131.444 L2219.24 129.778 L2223.91 129.778 L2223.91 160.402 L2231.55 160.402 L2231.55 164.338 L2211.64 164.338 L2211.64 160.402 Z" fill="#000000" fill-rule="evenodd" fill-opacity="1" /></svg>
