<?xml version="1.0" encoding="utf-8"?>
<svg xmlns="http://www.w3.org/2000/svg" xmlns:xlink="http://www.w3.org/1999/xlink" width="600" height="400" viewBox="0 0 2400 1600">
<defs>
  <clipPath id="clip470">
    <rect x="0" y="0" width="2400" height="1600"/>
  </clipPath>
</defs>
<path clip-path="url(#clip470)" d="
M0 1600 L2400 1600 L2400 0 L0 0  Z
  " fill="#ffffff" fill-rule="evenodd" fill-opacity="1"/>
<defs>
  <clipPath id="clip471">
    <rect x="480" y="0" width="1681" height="1600"/>
  </clipPath>
</defs>
<path clip-path="url(#clip470)" d="
M156.598 1486.45 L2352.76 1486.45 L2352.76 47.2441 L156.598 47.2441  Z
  " fill="#ffffff" fill-rule="evenodd" fill-opacity="1"/>
<defs>
  <clipPath id="clip472">
    <rect x="156" y="47" width="2197" height="1440"/>
  </clipPath>
</defs>
<polyline clip-path="url(#clip472)" style="stroke:#000000; stroke-linecap:butt; stroke-linejoin:round; stroke-width:2; stroke-opacity:0.1; fill:none" points="
  605.029,1486.45 605.029,47.2441 
  "/>
<polyline clip-path="url(#clip472)" style="stroke:#000000; stroke-linecap:butt; stroke-linejoin:round; stroke-width:2; stroke-opacity:0.1; fill:none" points="
  1097.77,1486.45 1097.77,47.2441 
  "/>
<polyline clip-path="url(#clip472)" style="stroke:#000000; stroke-linecap:butt; stroke-linejoin:round; stroke-width:2; stroke-opacity:0.1; fill:none" points="
  1590.52,1486.45 1590.52,47.2441 
  "/>
<polyline clip-path="url(#clip472)" style="stroke:#000000; stroke-linecap:butt; stroke-linejoin:round; stroke-width:2; stroke-opacity:0.1; fill:none" points="
  2083.26,1486.45 2083.26,47.2441 
  "/>
<polyline clip-path="url(#clip470)" style="stroke:#000000; stroke-linecap:butt; stroke-linejoin:round; stroke-width:4; stroke-opacity:1; fill:none" points="
  156.598,1486.45 2352.76,1486.45 
  "/>
<polyline clip-path="url(#clip470)" style="stroke:#000000; stroke-linecap:butt; stroke-linejoin:round; stroke-width:4; stroke-opacity:1; fill:none" points="
  605.029,1486.45 605.029,1467.55 
  "/>
<polyline clip-path="url(#clip470)" style="stroke:#000000; stroke-linecap:butt; stroke-linejoin:round; stroke-width:4; stroke-opacity:1; fill:none" points="
  1097.77,1486.45 1097.77,1467.55 
  "/>
<polyline clip-path="url(#clip470)" style="stroke:#000000; stroke-linecap:butt; stroke-linejoin:round; stroke-width:4; stroke-opacity:1; fill:none" points="
  1590.52,1486.45 1590.52,1467.55 
  "/>
<polyline clip-path="url(#clip470)" style="stroke:#000000; stroke-linecap:butt; stroke-linejoin:round; stroke-width:4; stroke-opacity:1; fill:none" points="
  2083.26,1486.45 2083.26,1467.55 
  "/>
<path clip-path="url(#clip470)" d="M583.212 1517.37 Q579.6 1517.37 577.772 1520.93 Q575.966 1524.47 575.966 1531.6 Q575.966 1538.71 577.772 1542.27 Q579.6 1545.82 583.212 1545.82 Q586.846 1545.82 588.651 1542.27 Q590.48 1538.71 590.48 1531.6 Q590.48 1524.47 588.651 1520.93 Q586.846 1517.37 583.212 1517.37 M583.212 1513.66 Q589.022 1513.66 592.077 1518.27 Q595.156 1522.85 595.156 1531.6 Q595.156 1540.33 592.077 1544.94 Q589.022 1549.52 583.212 1549.52 Q577.401 1549.52 574.323 1544.94 Q571.267 1540.33 571.267 1531.6 Q571.267 1522.85 574.323 1518.27 Q577.401 1513.66 583.212 1513.66 Z" fill="#000000" fill-rule="evenodd" fill-opacity="1" /><path clip-path="url(#clip470)" d="M603.373 1542.97 L608.258 1542.97 L608.258 1548.85 L603.373 1548.85 L603.373 1542.97 Z" fill="#000000" fill-rule="evenodd" fill-opacity="1" /><path clip-path="url(#clip470)" d="M622.471 1544.91 L638.79 1544.91 L638.79 1548.85 L616.846 1548.85 L616.846 1544.91 Q619.508 1542.16 624.091 1537.53 Q628.697 1532.88 629.878 1531.53 Q632.123 1529.01 633.003 1527.27 Q633.906 1525.51 633.906 1523.82 Q633.906 1521.07 631.961 1519.33 Q630.04 1517.6 626.938 1517.6 Q624.739 1517.6 622.285 1518.36 Q619.855 1519.13 617.077 1520.68 L617.077 1515.95 Q619.901 1514.82 622.355 1514.24 Q624.809 1513.66 626.846 1513.66 Q632.216 1513.66 635.41 1516.35 Q638.605 1519.03 638.605 1523.52 Q638.605 1525.65 637.795 1527.57 Q637.008 1529.47 634.901 1532.07 Q634.322 1532.74 631.221 1535.95 Q628.119 1539.15 622.471 1544.91 Z" fill="#000000" fill-rule="evenodd" fill-opacity="1" /><path clip-path="url(#clip470)" d="M1074.91 1517.37 Q1071.3 1517.37 1069.47 1520.93 Q1067.67 1524.47 1067.67 1531.6 Q1067.67 1538.71 1069.47 1542.27 Q1071.3 1545.82 1074.91 1545.82 Q1078.55 1545.82 1080.35 1542.27 Q1082.18 1538.71 1082.18 1531.6 Q1082.18 1524.47 1080.35 1520.93 Q1078.55 1517.37 1074.91 1517.37 M1074.91 1513.66 Q1080.72 1513.66 1083.78 1518.27 Q1086.86 1522.85 1086.86 1531.6 Q1086.86 1540.33 1083.78 1544.94 Q1080.72 1549.52 1074.91 1549.52 Q1069.1 1549.52 1066.02 1544.94 Q1062.97 1540.33 1062.97 1531.6 Q1062.97 1522.85 1066.02 1518.27 Q1069.1 1513.66 1074.91 1513.66 Z" fill="#000000" fill-rule="evenodd" fill-opacity="1" /><path clip-path="url(#clip470)" d="M1095.08 1542.97 L1099.96 1542.97 L1099.96 1548.85 L1095.08 1548.85 L1095.08 1542.97 Z" fill="#000000" fill-rule="evenodd" fill-opacity="1" /><path clip-path="url(#clip470)" d="M1122.99 1518.36 L1111.19 1536.81 L1122.99 1536.81 L1122.99 1518.36 M1121.76 1514.29 L1127.64 1514.29 L1127.64 1536.81 L1132.57 1536.81 L1132.57 1540.7 L1127.64 1540.7 L1127.64 1548.85 L1122.99 1548.85 L1122.99 1540.7 L1107.39 1540.7 L1107.39 1536.19 L1121.76 1514.29 Z" fill="#000000" fill-rule="evenodd" fill-opacity="1" /><path clip-path="url(#clip470)" d="M1567.82 1517.37 Q1564.21 1517.37 1562.38 1520.93 Q1560.57 1524.47 1560.57 1531.6 Q1560.57 1538.71 1562.38 1542.27 Q1564.21 1545.82 1567.82 1545.82 Q1571.45 1545.82 1573.26 1542.27 Q1575.09 1538.71 1575.09 1531.6 Q1575.09 1524.47 1573.26 1520.93 Q1571.45 1517.37 1567.82 1517.37 M1567.82 1513.66 Q1573.63 1513.66 1576.68 1518.27 Q1579.76 1522.85 1579.76 1531.6 Q1579.76 1540.33 1576.68 1544.94 Q1573.63 1549.52 1567.82 1549.52 Q1562.01 1549.52 1558.93 1544.94 Q1555.87 1540.33 1555.87 1531.6 Q1555.87 1522.85 1558.93 1518.27 Q1562.01 1513.66 1567.82 1513.66 Z" fill="#000000" fill-rule="evenodd" fill-opacity="1" /><path clip-path="url(#clip470)" d="M1587.98 1542.97 L1592.86 1542.97 L1592.86 1548.85 L1587.98 1548.85 L1587.98 1542.97 Z" fill="#000000" fill-rule="evenodd" fill-opacity="1" /><path clip-path="url(#clip470)" d="M1613.63 1529.7 Q1610.48 1529.7 1608.63 1531.86 Q1606.8 1534.01 1606.8 1537.76 Q1606.8 1541.49 1608.63 1543.66 Q1610.48 1545.82 1613.63 1545.82 Q1616.78 1545.82 1618.61 1543.66 Q1620.46 1541.49 1620.46 1537.76 Q1620.46 1534.01 1618.61 1531.86 Q1616.78 1529.7 1613.63 1529.7 M1622.91 1515.05 L1622.91 1519.31 Q1621.15 1518.48 1619.35 1518.04 Q1617.56 1517.6 1615.8 1517.6 Q1611.17 1517.6 1608.72 1520.72 Q1606.29 1523.85 1605.94 1530.17 Q1607.31 1528.15 1609.37 1527.09 Q1611.43 1526 1613.91 1526 Q1619.11 1526 1622.12 1529.17 Q1625.16 1532.32 1625.16 1537.76 Q1625.16 1543.08 1622.01 1546.3 Q1618.86 1549.52 1613.63 1549.52 Q1607.63 1549.52 1604.46 1544.94 Q1601.29 1540.33 1601.29 1531.6 Q1601.29 1523.41 1605.18 1518.55 Q1609.07 1513.66 1615.62 1513.66 Q1617.38 1513.66 1619.16 1514.01 Q1620.97 1514.36 1622.91 1515.05 Z" fill="#000000" fill-rule="evenodd" fill-opacity="1" /><path clip-path="url(#clip470)" d="M2060.69 1517.37 Q2057.08 1517.37 2055.25 1520.93 Q2053.44 1524.47 2053.44 1531.6 Q2053.44 1538.71 2055.25 1542.27 Q2057.08 1545.82 2060.69 1545.82 Q2064.32 1545.82 2066.13 1542.27 Q2067.96 1538.71 2067.96 1531.6 Q2067.96 1524.47 2066.13 1520.93 Q2064.32 1517.37 2060.69 1517.37 M2060.69 1513.66 Q2066.5 1513.66 2069.55 1518.27 Q2072.63 1522.85 2072.63 1531.6 Q2072.63 1540.33 2069.55 1544.94 Q2066.5 1549.52 2060.69 1549.52 Q2054.88 1549.52 2051.8 1544.94 Q2048.74 1540.33 2048.74 1531.6 Q2048.74 1522.85 2051.8 1518.27 Q2054.88 1513.66 2060.69 1513.66 Z" fill="#000000" fill-rule="evenodd" fill-opacity="1" /><path clip-path="url(#clip470)" d="M2080.85 1542.97 L2085.74 1542.97 L2085.74 1548.85 L2080.85 1548.85 L2080.85 1542.97 Z" fill="#000000" fill-rule="evenodd" fill-opacity="1" /><path clip-path="url(#clip470)" d="M2105.92 1532.44 Q2102.59 1532.44 2100.67 1534.22 Q2098.77 1536 2098.77 1539.13 Q2098.77 1542.25 2100.67 1544.03 Q2102.59 1545.82 2105.92 1545.82 Q2109.25 1545.82 2111.17 1544.03 Q2113.1 1542.23 2113.1 1539.13 Q2113.1 1536 2111.17 1534.22 Q2109.28 1532.44 2105.92 1532.44 M2101.24 1530.45 Q2098.24 1529.7 2096.55 1527.64 Q2094.88 1525.58 2094.88 1522.62 Q2094.88 1518.48 2097.82 1516.07 Q2100.78 1513.66 2105.92 1513.66 Q2111.08 1513.66 2114.02 1516.07 Q2116.96 1518.48 2116.96 1522.62 Q2116.96 1525.58 2115.27 1527.64 Q2113.61 1529.7 2110.62 1530.45 Q2114 1531.23 2115.87 1533.52 Q2117.77 1535.82 2117.77 1539.13 Q2117.77 1544.15 2114.69 1546.83 Q2111.64 1549.52 2105.92 1549.52 Q2100.2 1549.52 2097.12 1546.83 Q2094.07 1544.15 2094.07 1539.13 Q2094.07 1535.82 2095.97 1533.52 Q2097.86 1531.23 2101.24 1530.45 M2099.53 1523.06 Q2099.53 1525.75 2101.2 1527.25 Q2102.89 1528.76 2105.92 1528.76 Q2108.93 1528.76 2110.62 1527.25 Q2112.33 1525.75 2112.33 1523.06 Q2112.33 1520.38 2110.62 1518.87 Q2108.93 1517.37 2105.92 1517.37 Q2102.89 1517.37 2101.2 1518.87 Q2099.53 1520.38 2099.53 1523.06 Z" fill="#000000" fill-rule="evenodd" fill-opacity="1" /><polyline clip-path="url(#clip472)" style="stroke:#000000; stroke-linecap:butt; stroke-linejoin:round; stroke-width:2; stroke-opacity:0.1; fill:none" points="
  156.598,1476.95 2352.76,1476.95 
  "/>
<polyline clip-path="url(#clip472)" style="stroke:#000000; stroke-linecap:butt; stroke-linejoin:round; stroke-width:2; stroke-opacity:0.1; fill:none" points="
  156.598,1134.12 2352.76,1134.12 
  "/>
<polyline clip-path="url(#clip472)" style="stroke:#000000; stroke-linecap:butt; stroke-linejoin:round; stroke-width:2; stroke-opacity:0.1; fill:none" points="
  156.598,791.295 2352.76,791.295 
  "/>
<polyline clip-path="url(#clip472)" style="stroke:#000000; stroke-linecap:butt; stroke-linejoin:round; stroke-width:2; stroke-opacity:0.1; fill:none" points="
  156.598,448.467 2352.76,448.467 
  "/>
<polyline clip-path="url(#clip472)" style="stroke:#000000; stroke-linecap:butt; stroke-linejoin:round; stroke-width:2; stroke-opacity:0.1; fill:none" points="
  156.598,105.639 2352.76,105.639 
  "/>
<polyline clip-path="url(#clip470)" style="stroke:#000000; stroke-linecap:butt; stroke-linejoin:round; stroke-width:4; stroke-opacity:1; fill:none" points="
  156.598,1486.45 156.598,47.2441 
  "/>
<polyline clip-path="url(#clip470)" style="stroke:#000000; stroke-linecap:butt; stroke-linejoin:round; stroke-width:4; stroke-opacity:1; fill:none" points="
  156.598,1476.95 175.496,1476.95 
  "/>
<polyline clip-path="url(#clip470)" style="stroke:#000000; stroke-linecap:butt; stroke-linejoin:round; stroke-width:4; stroke-opacity:1; fill:none" points="
  156.598,1134.12 175.496,1134.12 
  "/>
<polyline clip-path="url(#clip470)" style="stroke:#000000; stroke-linecap:butt; stroke-linejoin:round; stroke-width:4; stroke-opacity:1; fill:none" points="
  156.598,791.295 175.496,791.295 
  "/>
<polyline clip-path="url(#clip470)" style="stroke:#000000; stroke-linecap:butt; stroke-linejoin:round; stroke-width:4; stroke-opacity:1; fill:none" points="
  156.598,448.467 175.496,448.467 
  "/>
<polyline clip-path="url(#clip470)" style="stroke:#000000; stroke-linecap:butt; stroke-linejoin:round; stroke-width:4; stroke-opacity:1; fill:none" points="
  156.598,105.639 175.496,105.639 
  "/>
<path clip-path="url(#clip470)" d="M63.4226 1462.75 Q59.8115 1462.75 57.9828 1466.32 Q56.1773 1469.86 56.1773 1476.99 Q56.1773 1484.09 57.9828 1487.66 Q59.8115 1491.2 63.4226 1491.2 Q67.0569 1491.2 68.8624 1487.66 Q70.6911 1484.09 70.6911 1476.99 Q70.6911 1469.86 68.8624 1466.32 Q67.0569 1462.75 63.4226 1462.75 M63.4226 1459.05 Q69.2328 1459.05 72.2883 1463.65 Q75.367 1468.24 75.367 1476.99 Q75.367 1485.71 72.2883 1490.32 Q69.2328 1494.9 63.4226 1494.9 Q57.6125 1494.9 54.5338 1490.32 Q51.4782 1485.71 51.4782 1476.99 Q51.4782 1468.24 54.5338 1463.65 Q57.6125 1459.05 63.4226 1459.05 Z" fill="#000000" fill-rule="evenodd" fill-opacity="1" /><path clip-path="url(#clip470)" d="M83.5845 1488.35 L88.4688 1488.35 L88.4688 1494.23 L83.5845 1494.23 L83.5845 1488.35 Z" fill="#000000" fill-rule="evenodd" fill-opacity="1" /><path clip-path="url(#clip470)" d="M108.654 1462.75 Q105.043 1462.75 103.214 1466.32 Q101.409 1469.86 101.409 1476.99 Q101.409 1484.09 103.214 1487.66 Q105.043 1491.2 108.654 1491.2 Q112.288 1491.2 114.094 1487.66 Q115.922 1484.09 115.922 1476.99 Q115.922 1469.86 114.094 1466.32 Q112.288 1462.75 108.654 1462.75 M108.654 1459.05 Q114.464 1459.05 117.52 1463.65 Q120.598 1468.24 120.598 1476.99 Q120.598 1485.71 117.52 1490.32 Q114.464 1494.9 108.654 1494.9 Q102.844 1494.9 99.765 1490.32 Q96.7095 1485.71 96.7095 1476.99 Q96.7095 1468.24 99.765 1463.65 Q102.844 1459.05 108.654 1459.05 Z" fill="#000000" fill-rule="evenodd" fill-opacity="1" /><path clip-path="url(#clip470)" d="M65.0198 1119.92 Q61.4087 1119.92 59.58 1123.49 Q57.7745 1127.03 57.7745 1134.16 Q57.7745 1141.26 59.58 1144.83 Q61.4087 1148.37 65.0198 1148.37 Q68.6541 1148.37 70.4596 1144.83 Q72.2883 1141.26 72.2883 1134.16 Q72.2883 1127.03 70.4596 1123.49 Q68.6541 1119.92 65.0198 1119.92 M65.0198 1116.22 Q70.83 1116.22 73.8855 1120.83 Q76.9642 1125.41 76.9642 1134.16 Q76.9642 1142.89 73.8855 1147.49 Q70.83 1152.07 65.0198 1152.07 Q59.2097 1152.07 56.131 1147.49 Q53.0754 1142.89 53.0754 1134.16 Q53.0754 1125.41 56.131 1120.83 Q59.2097 1116.22 65.0198 1116.22 Z" fill="#000000" fill-rule="evenodd" fill-opacity="1" /><path clip-path="url(#clip470)" d="M85.1818 1145.52 L90.066 1145.52 L90.066 1151.4 L85.1818 1151.4 L85.1818 1145.52 Z" fill="#000000" fill-rule="evenodd" fill-opacity="1" /><path clip-path="url(#clip470)" d="M104.279 1147.47 L120.598 1147.47 L120.598 1151.4 L98.6539 1151.4 L98.6539 1147.47 Q101.316 1144.71 105.899 1140.08 Q110.506 1135.43 111.686 1134.09 Q113.932 1131.57 114.811 1129.83 Q115.714 1128.07 115.714 1126.38 Q115.714 1123.63 113.77 1121.89 Q111.848 1120.15 108.746 1120.15 Q106.547 1120.15 104.094 1120.92 Q101.663 1121.68 98.8854 1123.23 L98.8854 1118.51 Q101.709 1117.38 104.163 1116.8 Q106.617 1116.22 108.654 1116.22 Q114.024 1116.22 117.219 1118.9 Q120.413 1121.59 120.413 1126.08 Q120.413 1128.21 119.603 1130.13 Q118.816 1132.03 116.709 1134.62 Q116.131 1135.29 113.029 1138.51 Q109.927 1141.7 104.279 1147.47 Z" fill="#000000" fill-rule="evenodd" fill-opacity="1" /><path clip-path="url(#clip470)" d="M62.9365 777.094 Q59.3254 777.094 57.4967 780.659 Q55.6912 784.201 55.6912 791.33 Q55.6912 798.437 57.4967 802.001 Q59.3254 805.543 62.9365 805.543 Q66.5707 805.543 68.3763 802.001 Q70.205 798.437 70.205 791.33 Q70.205 784.201 68.3763 780.659 Q66.5707 777.094 62.9365 777.094 M62.9365 773.39 Q68.7467 773.39 71.8022 777.997 Q74.8809 782.58 74.8809 791.33 Q74.8809 800.057 71.8022 804.663 Q68.7467 809.247 62.9365 809.247 Q57.1264 809.247 54.0477 804.663 Q50.9921 800.057 50.9921 791.33 Q50.9921 782.58 54.0477 777.997 Q57.1264 773.39 62.9365 773.39 Z" fill="#000000" fill-rule="evenodd" fill-opacity="1" /><path clip-path="url(#clip470)" d="M83.0984 802.696 L87.9827 802.696 L87.9827 808.575 L83.0984 808.575 L83.0984 802.696 Z" fill="#000000" fill-rule="evenodd" fill-opacity="1" /><path clip-path="url(#clip470)" d="M111.015 778.09 L99.2095 796.539 L111.015 796.539 L111.015 778.09 M109.788 774.015 L115.668 774.015 L115.668 796.539 L120.598 796.539 L120.598 800.427 L115.668 800.427 L115.668 808.575 L111.015 808.575 L111.015 800.427 L95.4132 800.427 L95.4132 795.914 L109.788 774.015 Z" fill="#000000" fill-rule="evenodd" fill-opacity="1" /><path clip-path="url(#clip470)" d="M63.2606 434.266 Q59.6495 434.266 57.8208 437.831 Q56.0152 441.372 56.0152 448.502 Q56.0152 455.608 57.8208 459.173 Q59.6495 462.715 63.2606 462.715 Q66.8948 462.715 68.7004 459.173 Q70.5291 455.608 70.5291 448.502 Q70.5291 441.372 68.7004 437.831 Q66.8948 434.266 63.2606 434.266 M63.2606 430.562 Q69.0707 430.562 72.1263 435.169 Q75.205 439.752 75.205 448.502 Q75.205 457.229 72.1263 461.835 Q69.0707 466.419 63.2606 466.419 Q57.4504 466.419 54.3717 461.835 Q51.3162 457.229 51.3162 448.502 Q51.3162 439.752 54.3717 435.169 Q57.4504 430.562 63.2606 430.562 Z" fill="#000000" fill-rule="evenodd" fill-opacity="1" /><path clip-path="url(#clip470)" d="M83.4225 459.868 L88.3067 459.868 L88.3067 465.747 L83.4225 465.747 L83.4225 459.868 Z" fill="#000000" fill-rule="evenodd" fill-opacity="1" /><path clip-path="url(#clip470)" d="M109.071 446.604 Q105.922 446.604 104.071 448.757 Q102.242 450.909 102.242 454.659 Q102.242 458.386 104.071 460.562 Q105.922 462.715 109.071 462.715 Q112.219 462.715 114.047 460.562 Q115.899 458.386 115.899 454.659 Q115.899 450.909 114.047 448.757 Q112.219 446.604 109.071 446.604 M118.353 431.951 L118.353 436.21 Q116.594 435.377 114.788 434.937 Q113.006 434.497 111.246 434.497 Q106.617 434.497 104.163 437.622 Q101.733 440.747 101.385 447.067 Q102.751 445.053 104.811 443.988 Q106.871 442.9 109.348 442.9 Q114.557 442.9 117.566 446.072 Q120.598 449.22 120.598 454.659 Q120.598 459.983 117.45 463.201 Q114.302 466.419 109.071 466.419 Q103.075 466.419 99.9039 461.835 Q96.7326 457.229 96.7326 448.502 Q96.7326 440.308 100.621 435.447 Q104.51 430.562 111.061 430.562 Q112.82 430.562 114.603 430.91 Q116.408 431.257 118.353 431.951 Z" fill="#000000" fill-rule="evenodd" fill-opacity="1" /><path clip-path="url(#clip470)" d="M63.5152 91.4378 Q59.9041 91.4378 58.0754 95.0026 Q56.2699 98.5443 56.2699 105.674 Q56.2699 112.78 58.0754 116.345 Q59.9041 119.887 63.5152 119.887 Q67.1494 119.887 68.955 116.345 Q70.7837 112.78 70.7837 105.674 Q70.7837 98.5443 68.955 95.0026 Q67.1494 91.4378 63.5152 91.4378 M63.5152 87.7342 Q69.3254 87.7342 72.3809 92.3406 Q75.4596 96.9239 75.4596 105.674 Q75.4596 114.401 72.3809 119.007 Q69.3254 123.59 63.5152 123.59 Q57.7051 123.59 54.6264 119.007 Q51.5708 114.401 51.5708 105.674 Q51.5708 96.9239 54.6264 92.3406 Q57.7051 87.7342 63.5152 87.7342 Z" fill="#000000" fill-rule="evenodd" fill-opacity="1" /><path clip-path="url(#clip470)" d="M83.6771 117.04 L88.5614 117.04 L88.5614 122.919 L83.6771 122.919 L83.6771 117.04 Z" fill="#000000" fill-rule="evenodd" fill-opacity="1" /><path clip-path="url(#clip470)" d="M108.746 106.507 Q105.413 106.507 103.492 108.29 Q101.594 110.072 101.594 113.197 Q101.594 116.322 103.492 118.104 Q105.413 119.887 108.746 119.887 Q112.08 119.887 114.001 118.104 Q115.922 116.299 115.922 113.197 Q115.922 110.072 114.001 108.29 Q112.103 106.507 108.746 106.507 M104.071 104.516 Q101.061 103.776 99.3715 101.716 Q97.7048 99.6554 97.7048 96.6924 Q97.7048 92.549 100.645 90.1416 Q103.608 87.7342 108.746 87.7342 Q113.908 87.7342 116.848 90.1416 Q119.788 92.549 119.788 96.6924 Q119.788 99.6554 118.098 101.716 Q116.432 103.776 113.445 104.516 Q116.825 105.304 118.7 107.595 Q120.598 109.887 120.598 113.197 Q120.598 118.22 117.52 120.905 Q114.464 123.59 108.746 123.59 Q103.029 123.59 99.9502 120.905 Q96.8947 118.22 96.8947 113.197 Q96.8947 109.887 98.7928 107.595 Q100.691 105.304 104.071 104.516 M102.358 97.1323 Q102.358 99.8174 104.024 101.322 Q105.714 102.827 108.746 102.827 Q111.756 102.827 113.445 101.322 Q115.158 99.8174 115.158 97.1323 Q115.158 94.4471 113.445 92.9425 Q111.756 91.4378 108.746 91.4378 Q105.714 91.4378 104.024 92.9425 Q102.358 94.4471 102.358 97.1323 Z" fill="#000000" fill-rule="evenodd" fill-opacity="1" /><polyline clip-path="url(#clip472)" style="stroke:#009af9; stroke-linecap:butt; stroke-linejoin:round; stroke-width:4; stroke-opacity:1; fill:none" points="
  1858.77,483.181 2290.6,349.605 1301.88,1296.65 218.754,1445.72 2188.07,1011.46 634.473,388.056 1972.82,1178.04 1857.3,87.9763 1152.57,1244.93 1549.4,168.692 
  
  "/>
<path clip-path="url(#clip470)" d="
M1987.12 198.898 L2279.55 198.898 L2279.55 95.2176 L1987.12 95.2176  Z
  " fill="#ffffff" fill-rule="evenodd" fill-opacity="1"/>
<polyline clip-path="url(#clip470)" style="stroke:#000000; stroke-linecap:butt; stroke-linejoin:round; stroke-width:4; stroke-opacity:1; fill:none" points="
  1987.12,198.898 2279.55,198.898 2279.55,95.2176 1987.12,95.2176 1987.12,198.898 
  "/>
<polyline clip-path="url(#clip470)" style="stroke:#009af9; stroke-linecap:butt; stroke-linejoin:round; stroke-width:4; stroke-opacity:1; fill:none" points="
  2011.12,147.058 2155.12,147.058 
  "/>
<path clip-path="url(#clip470)" d="M2192.96 166.745 Q2191.16 171.375 2189.44 172.787 Q2187.73 174.199 2184.86 174.199 L2181.46 174.199 L2181.46 170.634 L2183.96 170.634 Q2185.72 170.634 2186.69 169.8 Q2187.66 168.967 2188.84 165.865 L2189.61 163.921 L2179.12 138.412 L2183.63 138.412 L2191.74 158.689 L2199.84 138.412 L2204.35 138.412 L2192.96 166.745 Z" fill="#000000" fill-rule="evenodd" fill-opacity="1" /><path clip-path="url(#clip470)" d="M2211.64 160.402 L2219.28 160.402 L2219.28 134.037 L2210.97 135.703 L2210.97 131.444 L2219.24 129.778 L2223.91 129.778 L2223.91 160.402 L2231.55 160.402 L2231.55 164.338 L2211.64 164.338 L2211.64 160.402 Z" fill="#000000" fill-rule="evenodd" fill-opacity="1" /></svg>
