<?xml version="1.0" encoding="utf-8"?>
<svg xmlns="http://www.w3.org/2000/svg" xmlns:xlink="http://www.w3.org/1999/xlink" width="600" height="400" viewBox="0 0 2400 1600">
<defs>
  <clipPath id="clip800">
    <rect x="0" y="0" width="2400" height="1600"/>
  </clipPath>
</defs>
<path clip-path="url(#clip800)" d="
M0 1600 L2400 1600 L2400 0 L0 0  Z
  " fill="#ffffff" fill-rule="evenodd" fill-opacity="1"/>
<defs>
  <clipPath id="clip801">
    <rect x="480" y="0" width="1681" height="1600"/>
  </clipPath>
</defs>
<path clip-path="url(#clip800)" d="
M156.598 1486.45 L2352.76 1486.45 L2352.76 47.2441 L156.598 47.2441  Z
  " fill="#ffffff" fill-rule="evenodd" fill-opacity="1"/>
<defs>
  <clipPath id="clip802">
    <rect x="156" y="47" width="2197" height="1440"/>
  </clipPath>
</defs>
<polyline clip-path="url(#clip802)" style="stroke:#000000; stroke-linecap:butt; stroke-linejoin:round; stroke-width:2; stroke-opacity:0.1; fill:none" points="
  595.71,1486.45 595.71,47.2441 
  "/>
<polyline clip-path="url(#clip802)" style="stroke:#000000; stroke-linecap:butt; stroke-linejoin:round; stroke-width:2; stroke-opacity:0.1; fill:none" points="
  1041.42,1486.45 1041.42,47.2441 
  "/>
<polyline clip-path="url(#clip802)" style="stroke:#000000; stroke-linecap:butt; stroke-linejoin:round; stroke-width:2; stroke-opacity:0.1; fill:none" points="
  1487.12,1486.45 1487.12,47.2441 
  "/>
<polyline clip-path="url(#clip802)" style="stroke:#000000; stroke-linecap:butt; stroke-linejoin:round; stroke-width:2; stroke-opacity:0.1; fill:none" points="
  1932.83,1486.45 1932.83,47.2441 
  "/>
<polyline clip-path="url(#clip800)" style="stroke:#000000; stroke-linecap:butt; stroke-linejoin:round; stroke-width:4; stroke-opacity:1; fill:none" points="
  156.598,1486.45 2352.76,1486.45 
  "/>
<polyline clip-path="url(#clip800)" style="stroke:#000000; stroke-linecap:butt; stroke-linejoin:round; stroke-width:4; stroke-opacity:1; fill:none" points="
  595.71,1486.45 595.71,1467.55 
  "/>
<polyline clip-path="url(#clip800)" style="stroke:#000000; stroke-linecap:butt; stroke-linejoin:round; stroke-width:4; stroke-opacity:1; fill:none" points="
  1041.42,1486.45 1041.42,1467.55 
  "/>
<polyline clip-path="url(#clip800)" style="stroke:#000000; stroke-linecap:butt; stroke-linejoin:round; stroke-width:4; stroke-opacity:1; fill:none" points="
  1487.12,1486.45 1487.12,1467.55 
  "/>
<polyline clip-path="url(#clip800)" style="stroke:#000000; stroke-linecap:butt; stroke-linejoin:round; stroke-width:4; stroke-opacity:1; fill:none" points="
  1932.83,1486.45 1932.83,1467.55 
  "/>
<path clip-path="url(#clip800)" d="M573.893 1517.37 Q570.282 1517.37 568.454 1520.93 Q566.648 1524.47 566.648 1531.6 Q566.648 1538.71 568.454 1542.27 Q570.282 1545.82 573.893 1545.82 Q577.528 1545.82 579.333 1542.27 Q581.162 1538.71 581.162 1531.6 Q581.162 1524.47 579.333 1520.93 Q577.528 1517.37 573.893 1517.37 M573.893 1513.66 Q579.703 1513.66 582.759 1518.27 Q585.838 1522.85 585.838 1531.6 Q585.838 1540.33 582.759 1544.94 Q579.703 1549.52 573.893 1549.52 Q568.083 1549.52 565.004 1544.94 Q561.949 1540.33 561.949 1531.6 Q561.949 1522.85 565.004 1518.27 Q568.083 1513.66 573.893 1513.66 Z" fill="#000000" fill-rule="evenodd" fill-opacity="1" /><path clip-path="url(#clip800)" d="M594.055 1542.97 L598.939 1542.97 L598.939 1548.85 L594.055 1548.85 L594.055 1542.97 Z" fill="#000000" fill-rule="evenodd" fill-opacity="1" /><path clip-path="url(#clip800)" d="M613.152 1544.91 L629.472 1544.91 L629.472 1548.85 L607.527 1548.85 L607.527 1544.91 Q610.189 1542.16 614.773 1537.53 Q619.379 1532.88 620.56 1531.53 Q622.805 1529.01 623.685 1527.27 Q624.587 1525.51 624.587 1523.82 Q624.587 1521.07 622.643 1519.33 Q620.722 1517.6 617.62 1517.6 Q615.421 1517.6 612.967 1518.36 Q610.537 1519.13 607.759 1520.68 L607.759 1515.95 Q610.583 1514.82 613.037 1514.24 Q615.49 1513.66 617.527 1513.66 Q622.898 1513.66 626.092 1516.35 Q629.287 1519.03 629.287 1523.52 Q629.287 1525.65 628.476 1527.57 Q627.689 1529.47 625.583 1532.07 Q625.004 1532.74 621.902 1535.95 Q618.8 1539.15 613.152 1544.91 Z" fill="#000000" fill-rule="evenodd" fill-opacity="1" /><path clip-path="url(#clip800)" d="M1018.56 1517.37 Q1014.95 1517.37 1013.12 1520.93 Q1011.31 1524.47 1011.31 1531.6 Q1011.31 1538.71 1013.12 1542.27 Q1014.95 1545.82 1018.56 1545.82 Q1022.19 1545.82 1024 1542.27 Q1025.83 1538.71 1025.83 1531.6 Q1025.83 1524.47 1024 1520.93 Q1022.19 1517.37 1018.56 1517.37 M1018.56 1513.66 Q1024.37 1513.66 1027.42 1518.27 Q1030.5 1522.85 1030.5 1531.6 Q1030.5 1540.33 1027.42 1544.94 Q1024.37 1549.52 1018.56 1549.52 Q1012.75 1549.52 1009.67 1544.94 Q1006.61 1540.33 1006.61 1531.6 Q1006.61 1522.85 1009.67 1518.27 Q1012.75 1513.66 1018.56 1513.66 Z" fill="#000000" fill-rule="evenodd" fill-opacity="1" /><path clip-path="url(#clip800)" d="M1038.72 1542.97 L1043.6 1542.97 L1043.6 1548.85 L1038.72 1548.85 L1038.72 1542.97 Z" fill="#000000" fill-rule="evenodd" fill-opacity="1" /><path clip-path="url(#clip800)" d="M1066.64 1518.36 L1054.83 1536.81 L1066.64 1536.81 L1066.64 1518.36 M1065.41 1514.29 L1071.29 1514.29 L1071.29 1536.81 L1076.22 1536.81 L1076.22 1540.7 L1071.29 1540.7 L1071.29 1548.85 L1066.64 1548.85 L1066.64 1540.7 L1051.03 1540.7 L1051.03 1536.19 L1065.41 1514.29 Z" fill="#000000" fill-rule="evenodd" fill-opacity="1" /><path clip-path="url(#clip800)" d="M1464.43 1517.37 Q1460.81 1517.37 1458.99 1520.93 Q1457.18 1524.47 1457.18 1531.6 Q1457.18 1538.71 1458.99 1542.27 Q1460.81 1545.82 1464.43 1545.82 Q1468.06 1545.82 1469.87 1542.27 Q1471.69 1538.71 1471.69 1531.6 Q1471.69 1524.47 1469.87 1520.93 Q1468.06 1517.37 1464.43 1517.37 M1464.43 1513.66 Q1470.24 1513.66 1473.29 1518.27 Q1476.37 1522.85 1476.37 1531.6 Q1476.37 1540.33 1473.29 1544.94 Q1470.24 1549.52 1464.43 1549.52 Q1458.62 1549.52 1455.54 1544.94 Q1452.48 1540.33 1452.48 1531.6 Q1452.48 1522.85 1455.54 1518.27 Q1458.62 1513.66 1464.43 1513.66 Z" fill="#000000" fill-rule="evenodd" fill-opacity="1" /><path clip-path="url(#clip800)" d="M1484.59 1542.97 L1489.47 1542.97 L1489.47 1548.85 L1484.59 1548.85 L1484.59 1542.97 Z" fill="#000000" fill-rule="evenodd" fill-opacity="1" /><path clip-path="url(#clip800)" d="M1510.24 1529.7 Q1507.09 1529.7 1505.24 1531.86 Q1503.41 1534.01 1503.41 1537.76 Q1503.41 1541.49 1505.24 1543.66 Q1507.09 1545.82 1510.24 1545.82 Q1513.38 1545.82 1515.21 1543.66 Q1517.06 1541.49 1517.06 1537.76 Q1517.06 1534.01 1515.21 1531.86 Q1513.38 1529.7 1510.24 1529.7 M1519.52 1515.05 L1519.52 1519.31 Q1517.76 1518.48 1515.95 1518.04 Q1514.17 1517.6 1512.41 1517.6 Q1507.78 1517.6 1505.33 1520.72 Q1502.9 1523.85 1502.55 1530.17 Q1503.92 1528.15 1505.98 1527.09 Q1508.04 1526 1510.51 1526 Q1515.72 1526 1518.73 1529.17 Q1521.76 1532.32 1521.76 1537.76 Q1521.76 1543.08 1518.61 1546.3 Q1515.47 1549.52 1510.24 1549.52 Q1504.24 1549.52 1501.07 1544.94 Q1497.9 1540.33 1497.9 1531.6 Q1497.9 1523.41 1501.79 1518.55 Q1505.68 1513.66 1512.23 1513.66 Q1513.99 1513.66 1515.77 1514.01 Q1517.57 1514.36 1519.52 1515.05 Z" fill="#000000" fill-rule="evenodd" fill-opacity="1" /><path clip-path="url(#clip800)" d="M1910.26 1517.37 Q1906.65 1517.37 1904.82 1520.93 Q1903.01 1524.47 1903.01 1531.6 Q1903.01 1538.71 1904.82 1542.27 Q1906.65 1545.82 1910.26 1545.82 Q1913.89 1545.82 1915.7 1542.27 Q1917.53 1538.71 1917.53 1531.6 Q1917.53 1524.47 1915.7 1520.93 Q1913.89 1517.37 1910.26 1517.37 M1910.26 1513.66 Q1916.07 1513.66 1919.12 1518.27 Q1922.2 1522.85 1922.2 1531.6 Q1922.2 1540.33 1919.12 1544.94 Q1916.07 1549.52 1910.26 1549.52 Q1904.45 1549.52 1901.37 1544.94 Q1898.31 1540.33 1898.31 1531.6 Q1898.31 1522.85 1901.37 1518.27 Q1904.45 1513.66 1910.26 1513.66 Z" fill="#000000" fill-rule="evenodd" fill-opacity="1" /><path clip-path="url(#clip800)" d="M1930.42 1542.97 L1935.3 1542.97 L1935.3 1548.85 L1930.42 1548.85 L1930.42 1542.97 Z" fill="#000000" fill-rule="evenodd" fill-opacity="1" /><path clip-path="url(#clip800)" d="M1955.49 1532.44 Q1952.16 1532.44 1950.24 1534.22 Q1948.34 1536 1948.34 1539.13 Q1948.34 1542.25 1950.24 1544.03 Q1952.16 1545.82 1955.49 1545.82 Q1958.82 1545.82 1960.74 1544.03 Q1962.67 1542.23 1962.67 1539.13 Q1962.67 1536 1960.74 1534.22 Q1958.85 1532.44 1955.49 1532.44 M1950.81 1530.45 Q1947.8 1529.7 1946.11 1527.64 Q1944.45 1525.58 1944.45 1522.62 Q1944.45 1518.48 1947.39 1516.07 Q1950.35 1513.66 1955.49 1513.66 Q1960.65 1513.66 1963.59 1516.07 Q1966.53 1518.48 1966.53 1522.62 Q1966.53 1525.58 1964.84 1527.64 Q1963.17 1529.7 1960.19 1530.45 Q1963.57 1531.23 1965.44 1533.52 Q1967.34 1535.82 1967.34 1539.13 Q1967.34 1544.15 1964.26 1546.83 Q1961.21 1549.52 1955.49 1549.52 Q1949.77 1549.52 1946.69 1546.83 Q1943.64 1544.15 1943.64 1539.13 Q1943.64 1535.82 1945.54 1533.52 Q1947.43 1531.23 1950.81 1530.45 M1949.1 1523.06 Q1949.1 1525.75 1950.77 1527.25 Q1952.46 1528.76 1955.49 1528.76 Q1958.5 1528.76 1960.19 1527.25 Q1961.9 1525.75 1961.9 1523.06 Q1961.9 1520.38 1960.19 1518.87 Q1958.5 1517.37 1955.49 1517.37 Q1952.46 1517.37 1950.77 1518.87 Q1949.1 1520.38 1949.1 1523.06 Z" fill="#000000" fill-rule="evenodd" fill-opacity="1" /><polyline clip-path="url(#clip802)" style="stroke:#000000; stroke-linecap:butt; stroke-linejoin:round; stroke-width:2; stroke-opacity:0.1; fill:none" points="
  156.598,1245.18 2352.76,1245.18 
  "/>
<polyline clip-path="url(#clip802)" style="stroke:#000000; stroke-linecap:butt; stroke-linejoin:round; stroke-width:2; stroke-opacity:0.1; fill:none" points="
  156.598,950.104 2352.76,950.104 
  "/>
<polyline clip-path="url(#clip802)" style="stroke:#000000; stroke-linecap:butt; stroke-linejoin:round; stroke-width:2; stroke-opacity:0.1; fill:none" points="
  156.598,655.028 2352.76,655.028 
  "/>
<polyline clip-path="url(#clip802)" style="stroke:#000000; stroke-linecap:butt; stroke-linejoin:round; stroke-width:2; stroke-opacity:0.1; fill:none" points="
  156.598,359.951 2352.76,359.951 
  "/>
<polyline clip-path="url(#clip802)" style="stroke:#000000; stroke-linecap:butt; stroke-linejoin:round; stroke-width:2; stroke-opacity:0.1; fill:none" points="
  156.598,64.8754 2352.76,64.8754 
  "/>
<polyline clip-path="url(#clip800)" style="stroke:#000000; stroke-linecap:butt; stroke-linejoin:round; stroke-width:4; stroke-opacity:1; fill:none" points="
  156.598,1486.45 156.598,47.2441 
  "/>
<polyline clip-path="url(#clip800)" style="stroke:#000000; stroke-linecap:butt; stroke-linejoin:round; stroke-width:4; stroke-opacity:1; fill:none" points="
  156.598,1245.18 175.496,1245.18 
  "/>
<polyline clip-path="url(#clip800)" style="stroke:#000000; stroke-linecap:butt; stroke-linejoin:round; stroke-width:4; stroke-opacity:1; fill:none" points="
  156.598,950.104 175.496,950.104 
  "/>
<polyline clip-path="url(#clip800)" style="stroke:#000000; stroke-linecap:butt; stroke-linejoin:round; stroke-width:4; stroke-opacity:1; fill:none" points="
  156.598,655.028 175.496,655.028 
  "/>
<polyline clip-path="url(#clip800)" style="stroke:#000000; stroke-linecap:butt; stroke-linejoin:round; stroke-width:4; stroke-opacity:1; fill:none" points="
  156.598,359.951 175.496,359.951 
  "/>
<polyline clip-path="url(#clip800)" style="stroke:#000000; stroke-linecap:butt; stroke-linejoin:round; stroke-width:4; stroke-opacity:1; fill:none" points="
  156.598,64.8754 175.496,64.8754 
  "/>
<path clip-path="url(#clip800)" d="M65.0198 1230.98 Q61.4087 1230.98 59.58 1234.54 Q57.7745 1238.08 57.7745 1245.21 Q57.7745 1252.32 59.58 1255.89 Q61.4087 1259.43 65.0198 1259.43 Q68.6541 1259.43 70.4596 1255.89 Q72.2883 1252.32 72.2883 1245.21 Q72.2883 1238.08 70.4596 1234.54 Q68.6541 1230.98 65.0198 1230.98 M65.0198 1227.27 Q70.83 1227.27 73.8855 1231.88 Q76.9642 1236.46 76.9642 1245.21 Q76.9642 1253.94 73.8855 1258.55 Q70.83 1263.13 65.0198 1263.13 Q59.2097 1263.13 56.131 1258.55 Q53.0754 1253.94 53.0754 1245.21 Q53.0754 1236.46 56.131 1231.88 Q59.2097 1227.27 65.0198 1227.27 Z" fill="#000000" fill-rule="evenodd" fill-opacity="1" /><path clip-path="url(#clip800)" d="M85.1818 1256.58 L90.066 1256.58 L90.066 1262.46 L85.1818 1262.46 L85.1818 1256.58 Z" fill="#000000" fill-rule="evenodd" fill-opacity="1" /><path clip-path="url(#clip800)" d="M104.279 1258.52 L120.598 1258.52 L120.598 1262.46 L98.6539 1262.46 L98.6539 1258.52 Q101.316 1255.77 105.899 1251.14 Q110.506 1246.49 111.686 1245.14 Q113.932 1242.62 114.811 1240.89 Q115.714 1239.13 115.714 1237.44 Q115.714 1234.68 113.77 1232.95 Q111.848 1231.21 108.746 1231.21 Q106.547 1231.21 104.094 1231.97 Q101.663 1232.74 98.8854 1234.29 L98.8854 1229.57 Q101.709 1228.43 104.163 1227.85 Q106.617 1227.27 108.654 1227.27 Q114.024 1227.27 117.219 1229.96 Q120.413 1232.64 120.413 1237.14 Q120.413 1239.27 119.603 1241.19 Q118.816 1243.08 116.709 1245.68 Q116.131 1246.35 113.029 1249.57 Q109.927 1252.76 104.279 1258.52 Z" fill="#000000" fill-rule="evenodd" fill-opacity="1" /><path clip-path="url(#clip800)" d="M62.9365 935.902 Q59.3254 935.902 57.4967 939.467 Q55.6912 943.009 55.6912 950.138 Q55.6912 957.245 57.4967 960.81 Q59.3254 964.351 62.9365 964.351 Q66.5707 964.351 68.3763 960.81 Q70.205 957.245 70.205 950.138 Q70.205 943.009 68.3763 939.467 Q66.5707 935.902 62.9365 935.902 M62.9365 932.199 Q68.7467 932.199 71.8022 936.805 Q74.8809 941.388 74.8809 950.138 Q74.8809 958.865 71.8022 963.472 Q68.7467 968.055 62.9365 968.055 Q57.1264 968.055 54.0477 963.472 Q50.9921 958.865 50.9921 950.138 Q50.9921 941.388 54.0477 936.805 Q57.1264 932.199 62.9365 932.199 Z" fill="#000000" fill-rule="evenodd" fill-opacity="1" /><path clip-path="url(#clip800)" d="M83.0984 961.504 L87.9827 961.504 L87.9827 967.384 L83.0984 967.384 L83.0984 961.504 Z" fill="#000000" fill-rule="evenodd" fill-opacity="1" /><path clip-path="url(#clip800)" d="M111.015 936.898 L99.2095 955.347 L111.015 955.347 L111.015 936.898 M109.788 932.824 L115.668 932.824 L115.668 955.347 L120.598 955.347 L120.598 959.235 L115.668 959.235 L115.668 967.384 L111.015 967.384 L111.015 959.235 L95.4132 959.235 L95.4132 954.722 L109.788 932.824 Z" fill="#000000" fill-rule="evenodd" fill-opacity="1" /><path clip-path="url(#clip800)" d="M63.2606 640.826 Q59.6495 640.826 57.8208 644.391 Q56.0152 647.933 56.0152 655.062 Q56.0152 662.169 57.8208 665.733 Q59.6495 669.275 63.2606 669.275 Q66.8948 669.275 68.7004 665.733 Q70.5291 662.169 70.5291 655.062 Q70.5291 647.933 68.7004 644.391 Q66.8948 640.826 63.2606 640.826 M63.2606 637.123 Q69.0707 637.123 72.1263 641.729 Q75.205 646.312 75.205 655.062 Q75.205 663.789 72.1263 668.396 Q69.0707 672.979 63.2606 672.979 Q57.4504 672.979 54.3717 668.396 Q51.3162 663.789 51.3162 655.062 Q51.3162 646.312 54.3717 641.729 Q57.4504 637.123 63.2606 637.123 Z" fill="#000000" fill-rule="evenodd" fill-opacity="1" /><path clip-path="url(#clip800)" d="M83.4225 666.428 L88.3067 666.428 L88.3067 672.308 L83.4225 672.308 L83.4225 666.428 Z" fill="#000000" fill-rule="evenodd" fill-opacity="1" /><path clip-path="url(#clip800)" d="M109.071 653.164 Q105.922 653.164 104.071 655.317 Q102.242 657.47 102.242 661.22 Q102.242 664.946 104.071 667.122 Q105.922 669.275 109.071 669.275 Q112.219 669.275 114.047 667.122 Q115.899 664.946 115.899 661.22 Q115.899 657.47 114.047 655.317 Q112.219 653.164 109.071 653.164 M118.353 638.511 L118.353 642.771 Q116.594 641.937 114.788 641.497 Q113.006 641.058 111.246 641.058 Q106.617 641.058 104.163 644.183 Q101.733 647.308 101.385 653.627 Q102.751 651.613 104.811 650.548 Q106.871 649.46 109.348 649.46 Q114.557 649.46 117.566 652.632 Q120.598 655.78 120.598 661.22 Q120.598 666.544 117.45 669.761 Q114.302 672.979 109.071 672.979 Q103.075 672.979 99.9039 668.396 Q96.7326 663.789 96.7326 655.062 Q96.7326 646.868 100.621 642.007 Q104.51 637.123 111.061 637.123 Q112.82 637.123 114.603 637.47 Q116.408 637.817 118.353 638.511 Z" fill="#000000" fill-rule="evenodd" fill-opacity="1" /><path clip-path="url(#clip800)" d="M63.5152 345.75 Q59.9041 345.75 58.0754 349.315 Q56.2699 352.857 56.2699 359.986 Q56.2699 367.093 58.0754 370.657 Q59.9041 374.199 63.5152 374.199 Q67.1494 374.199 68.955 370.657 Q70.7837 367.093 70.7837 359.986 Q70.7837 352.857 68.955 349.315 Q67.1494 345.75 63.5152 345.75 M63.5152 342.046 Q69.3254 342.046 72.3809 346.653 Q75.4596 351.236 75.4596 359.986 Q75.4596 368.713 72.3809 373.319 Q69.3254 377.903 63.5152 377.903 Q57.7051 377.903 54.6264 373.319 Q51.5708 368.713 51.5708 359.986 Q51.5708 351.236 54.6264 346.653 Q57.7051 342.046 63.5152 342.046 Z" fill="#000000" fill-rule="evenodd" fill-opacity="1" /><path clip-path="url(#clip800)" d="M83.6771 371.352 L88.5614 371.352 L88.5614 377.231 L83.6771 377.231 L83.6771 371.352 Z" fill="#000000" fill-rule="evenodd" fill-opacity="1" /><path clip-path="url(#clip800)" d="M108.746 360.82 Q105.413 360.82 103.492 362.602 Q101.594 364.384 101.594 367.509 Q101.594 370.634 103.492 372.417 Q105.413 374.199 108.746 374.199 Q112.08 374.199 114.001 372.417 Q115.922 370.611 115.922 367.509 Q115.922 364.384 114.001 362.602 Q112.103 360.82 108.746 360.82 M104.071 358.829 Q101.061 358.088 99.3715 356.028 Q97.7048 353.968 97.7048 351.005 Q97.7048 346.861 100.645 344.454 Q103.608 342.046 108.746 342.046 Q113.908 342.046 116.848 344.454 Q119.788 346.861 119.788 351.005 Q119.788 353.968 118.098 356.028 Q116.432 358.088 113.445 358.829 Q116.825 359.616 118.7 361.907 Q120.598 364.199 120.598 367.509 Q120.598 372.532 117.52 375.218 Q114.464 377.903 108.746 377.903 Q103.029 377.903 99.9502 375.218 Q96.8947 372.532 96.8947 367.509 Q96.8947 364.199 98.7928 361.907 Q100.691 359.616 104.071 358.829 M102.358 351.445 Q102.358 354.13 104.024 355.634 Q105.714 357.139 108.746 357.139 Q111.756 357.139 113.445 355.634 Q115.158 354.13 115.158 351.445 Q115.158 348.759 113.445 347.255 Q111.756 345.75 108.746 345.75 Q105.714 345.75 104.024 347.255 Q102.358 348.759 102.358 351.445 Z" fill="#000000" fill-rule="evenodd" fill-opacity="1" /><path clip-path="url(#clip800)" d="M54.2328 78.2202 L61.8717 78.2202 L61.8717 51.8546 L53.5616 53.5213 L53.5616 49.2621 L61.8254 47.5954 L66.5013 47.5954 L66.5013 78.2202 L74.1402 78.2202 L74.1402 82.1554 L54.2328 82.1554 L54.2328 78.2202 Z" fill="#000000" fill-rule="evenodd" fill-opacity="1" /><path clip-path="url(#clip800)" d="M83.5845 76.2758 L88.4688 76.2758 L88.4688 82.1554 L83.5845 82.1554 L83.5845 76.2758 Z" fill="#000000" fill-rule="evenodd" fill-opacity="1" /><path clip-path="url(#clip800)" d="M108.654 50.6741 Q105.043 50.6741 103.214 54.2389 Q101.409 57.7805 101.409 64.9101 Q101.409 72.0166 103.214 75.5814 Q105.043 79.123 108.654 79.123 Q112.288 79.123 114.094 75.5814 Q115.922 72.0166 115.922 64.9101 Q115.922 57.7805 114.094 54.2389 Q112.288 50.6741 108.654 50.6741 M108.654 46.9704 Q114.464 46.9704 117.52 51.5769 Q120.598 56.1602 120.598 64.9101 Q120.598 73.6369 117.52 78.2434 Q114.464 82.8267 108.654 82.8267 Q102.844 82.8267 99.765 78.2434 Q96.7095 73.6369 96.7095 64.9101 Q96.7095 56.1602 99.765 51.5769 Q102.844 46.9704 108.654 46.9704 Z" fill="#000000" fill-rule="evenodd" fill-opacity="1" /><polyline clip-path="url(#clip802)" style="stroke:#009af9; stroke-linecap:butt; stroke-linejoin:round; stroke-width:4; stroke-opacity:1; fill:none" points="
  2290.6,1287.62 277.235,649.828 1389.73,1445.72 1221.7,287.834 1840.19,767.007 1549.01,87.9763 512.532,558.721 1471.92,438.4 218.754,393.119 1119.39,487.034 
  
  "/>
<path clip-path="url(#clip800)" d="
M1987.12 198.898 L2279.55 198.898 L2279.55 95.2176 L1987.12 95.2176  Z
  " fill="#ffffff" fill-rule="evenodd" fill-opacity="1"/>
<polyline clip-path="url(#clip800)" style="stroke:#000000; stroke-linecap:butt; stroke-linejoin:round; stroke-width:4; stroke-opacity:1; fill:none" points="
  1987.12,198.898 2279.55,198.898 2279.55,95.2176 1987.12,95.2176 1987.12,198.898 
  "/>
<polyline clip-path="url(#clip800)" style="stroke:#009af9; stroke-linecap:butt; stroke-linejoin:round; stroke-width:4; stroke-opacity:1; fill:none" points="
  2011.12,147.058 2155.12,147.058 
  "/>
<path clip-path="url(#clip800)" d="M2192.96 166.745 Q2191.16 171.375 2189.44 172.787 Q2187.73 174.199 2184.86 174.199 L2181.46 174.199 L2181.46 170.634 L2183.96 170.634 Q2185.72 170.634 2186.69 169.8 Q2187.66 168.967 2188.84 165.865 L2189.61 163.921 L2179.12 138.412 L2183.63 138.412 L2191.74 158.689 L2199.84 138.412 L2204.35 138.412 L2192.96 166.745 Z" fill="#000000" fill-rule="evenodd" fill-opacity="1" /><path clip-path="url(#clip800)" d="M2211.64 160.402 L2219.28 160.402 L2219.28 134.037 L2210.97 135.703 L2210.97 131.444 L2219.24 129.778 L2223.91 129.778 L2223.91 160.402 L2231.55 160.402 L2231.55 164.338 L2211.64 164.338 L2211.64 160.402 Z" fill="#000000" fill-rule="evenodd" fill-opacity="1" /></svg>
