<?xml version="1.0" encoding="utf-8"?>
<svg xmlns="http://www.w3.org/2000/svg" xmlns:xlink="http://www.w3.org/1999/xlink" width="600" height="400" viewBox="0 0 2400 1600">
<defs>
  <clipPath id="clip650">
    <rect x="0" y="0" width="2400" height="1600"/>
  </clipPath>
</defs>
<path clip-path="url(#clip650)" d="
M0 1600 L2400 1600 L2400 0 L0 0  Z
  " fill="#ffffff" fill-rule="evenodd" fill-opacity="1"/>
<defs>
  <clipPath id="clip651">
    <rect x="480" y="0" width="1681" height="1600"/>
  </clipPath>
</defs>
<path clip-path="url(#clip650)" d="
M156.598 1486.45 L2352.76 1486.45 L2352.76 47.2441 L156.598 47.2441  Z
  " fill="#ffffff" fill-rule="evenodd" fill-opacity="1"/>
<defs>
  <clipPath id="clip652">
    <rect x="156" y="47" width="2197" height="1440"/>
  </clipPath>
</defs>
<polyline clip-path="url(#clip652)" style="stroke:#000000; stroke-linecap:butt; stroke-linejoin:round; stroke-width:2; stroke-opacity:0.1; fill:none" points="
  418.922,1486.45 418.922,47.2441 
  "/>
<polyline clip-path="url(#clip652)" style="stroke:#000000; stroke-linecap:butt; stroke-linejoin:round; stroke-width:2; stroke-opacity:0.1; fill:none" points="
  718.003,1486.45 718.003,47.2441 
  "/>
<polyline clip-path="url(#clip652)" style="stroke:#000000; stroke-linecap:butt; stroke-linejoin:round; stroke-width:2; stroke-opacity:0.1; fill:none" points="
  1017.08,1486.45 1017.08,47.2441 
  "/>
<polyline clip-path="url(#clip652)" style="stroke:#000000; stroke-linecap:butt; stroke-linejoin:round; stroke-width:2; stroke-opacity:0.1; fill:none" points="
  1316.16,1486.45 1316.16,47.2441 
  "/>
<polyline clip-path="url(#clip652)" style="stroke:#000000; stroke-linecap:butt; stroke-linejoin:round; stroke-width:2; stroke-opacity:0.1; fill:none" points="
  1615.25,1486.45 1615.25,47.2441 
  "/>
<polyline clip-path="url(#clip652)" style="stroke:#000000; stroke-linecap:butt; stroke-linejoin:round; stroke-width:2; stroke-opacity:0.1; fill:none" points="
  1914.33,1486.45 1914.33,47.2441 
  "/>
<polyline clip-path="url(#clip652)" style="stroke:#000000; stroke-linecap:butt; stroke-linejoin:round; stroke-width:2; stroke-opacity:0.1; fill:none" points="
  2213.41,1486.45 2213.41,47.2441 
  "/>
<polyline clip-path="url(#clip650)" style="stroke:#000000; stroke-linecap:butt; stroke-linejoin:round; stroke-width:4; stroke-opacity:1; fill:none" points="
  156.598,1486.45 2352.76,1486.45 
  "/>
<polyline clip-path="url(#clip650)" style="stroke:#000000; stroke-linecap:butt; stroke-linejoin:round; stroke-width:4; stroke-opacity:1; fill:none" points="
  418.922,1486.45 418.922,1467.55 
  "/>
<polyline clip-path="url(#clip650)" style="stroke:#000000; stroke-linecap:butt; stroke-linejoin:round; stroke-width:4; stroke-opacity:1; fill:none" points="
  718.003,1486.45 718.003,1467.55 
  "/>
<polyline clip-path="url(#clip650)" style="stroke:#000000; stroke-linecap:butt; stroke-linejoin:round; stroke-width:4; stroke-opacity:1; fill:none" points="
  1017.08,1486.45 1017.08,1467.55 
  "/>
<polyline clip-path="url(#clip650)" style="stroke:#000000; stroke-linecap:butt; stroke-linejoin:round; stroke-width:4; stroke-opacity:1; fill:none" points="
  1316.16,1486.45 1316.16,1467.55 
  "/>
<polyline clip-path="url(#clip650)" style="stroke:#000000; stroke-linecap:butt; stroke-linejoin:round; stroke-width:4; stroke-opacity:1; fill:none" points="
  1615.25,1486.45 1615.25,1467.55 
  "/>
<polyline clip-path="url(#clip650)" style="stroke:#000000; stroke-linecap:butt; stroke-linejoin:round; stroke-width:4; stroke-opacity:1; fill:none" points="
  1914.33,1486.45 1914.33,1467.55 
  "/>
<polyline clip-path="url(#clip650)" style="stroke:#000000; stroke-linecap:butt; stroke-linejoin:round; stroke-width:4; stroke-opacity:1; fill:none" points="
  2213.41,1486.45 2213.41,1467.55 
  "/>
<path clip-path="url(#clip650)" d="M396.631 1517.37 Q393.019 1517.37 391.191 1520.93 Q389.385 1524.47 389.385 1531.6 Q389.385 1538.71 391.191 1542.27 Q393.019 1545.82 396.631 1545.82 Q400.265 1545.82 402.07 1542.27 Q403.899 1538.71 403.899 1531.6 Q403.899 1524.47 402.07 1520.93 Q400.265 1517.37 396.631 1517.37 M396.631 1513.66 Q402.441 1513.66 405.496 1518.27 Q408.575 1522.85 408.575 1531.6 Q408.575 1540.33 405.496 1544.94 Q402.441 1549.52 396.631 1549.52 Q390.82 1549.52 387.742 1544.94 Q384.686 1540.33 384.686 1531.6 Q384.686 1522.85 387.742 1518.27 Q390.82 1513.66 396.631 1513.66 Z" fill="#000000" fill-rule="evenodd" fill-opacity="1" /><path clip-path="url(#clip650)" d="M416.792 1542.97 L421.677 1542.97 L421.677 1548.85 L416.792 1548.85 L416.792 1542.97 Z" fill="#000000" fill-rule="evenodd" fill-opacity="1" /><path clip-path="url(#clip650)" d="M446.028 1530.21 Q449.385 1530.93 451.26 1533.2 Q453.158 1535.47 453.158 1538.8 Q453.158 1543.92 449.64 1546.72 Q446.121 1549.52 439.64 1549.52 Q437.464 1549.52 435.149 1549.08 Q432.857 1548.66 430.404 1547.81 L430.404 1543.29 Q432.348 1544.43 434.663 1545.01 Q436.978 1545.58 439.501 1545.58 Q443.899 1545.58 446.19 1543.85 Q448.505 1542.11 448.505 1538.8 Q448.505 1535.75 446.353 1534.03 Q444.223 1532.3 440.403 1532.3 L436.376 1532.3 L436.376 1528.45 L440.589 1528.45 Q444.038 1528.45 445.866 1527.09 Q447.695 1525.7 447.695 1523.11 Q447.695 1520.45 445.797 1519.03 Q443.922 1517.6 440.403 1517.6 Q438.482 1517.6 436.283 1518.01 Q434.084 1518.43 431.445 1519.31 L431.445 1515.14 Q434.107 1514.4 436.422 1514.03 Q438.76 1513.66 440.82 1513.66 Q446.144 1513.66 449.246 1516.09 Q452.348 1518.5 452.348 1522.62 Q452.348 1525.49 450.704 1527.48 Q449.061 1529.45 446.028 1530.21 Z" fill="#000000" fill-rule="evenodd" fill-opacity="1" /><path clip-path="url(#clip650)" d="M695.144 1517.37 Q691.533 1517.37 689.704 1520.93 Q687.899 1524.47 687.899 1531.6 Q687.899 1538.71 689.704 1542.27 Q691.533 1545.82 695.144 1545.82 Q698.778 1545.82 700.584 1542.27 Q702.413 1538.71 702.413 1531.6 Q702.413 1524.47 700.584 1520.93 Q698.778 1517.37 695.144 1517.37 M695.144 1513.66 Q700.954 1513.66 704.01 1518.27 Q707.089 1522.85 707.089 1531.6 Q707.089 1540.33 704.01 1544.94 Q700.954 1549.52 695.144 1549.52 Q689.334 1549.52 686.255 1544.94 Q683.2 1540.33 683.2 1531.6 Q683.2 1522.85 686.255 1518.27 Q689.334 1513.66 695.144 1513.66 Z" fill="#000000" fill-rule="evenodd" fill-opacity="1" /><path clip-path="url(#clip650)" d="M715.306 1542.97 L720.19 1542.97 L720.19 1548.85 L715.306 1548.85 L715.306 1542.97 Z" fill="#000000" fill-rule="evenodd" fill-opacity="1" /><path clip-path="url(#clip650)" d="M743.223 1518.36 L731.417 1536.81 L743.223 1536.81 L743.223 1518.36 M741.996 1514.29 L747.875 1514.29 L747.875 1536.81 L752.806 1536.81 L752.806 1540.7 L747.875 1540.7 L747.875 1548.85 L743.223 1548.85 L743.223 1540.7 L727.621 1540.7 L727.621 1536.19 L741.996 1514.29 Z" fill="#000000" fill-rule="evenodd" fill-opacity="1" /><path clip-path="url(#clip650)" d="M994.966 1517.37 Q991.355 1517.37 989.526 1520.93 Q987.72 1524.47 987.72 1531.6 Q987.72 1538.71 989.526 1542.27 Q991.355 1545.82 994.966 1545.82 Q998.6 1545.82 1000.41 1542.27 Q1002.23 1538.71 1002.23 1531.6 Q1002.23 1524.47 1000.41 1520.93 Q998.6 1517.37 994.966 1517.37 M994.966 1513.66 Q1000.78 1513.66 1003.83 1518.27 Q1006.91 1522.85 1006.91 1531.6 Q1006.91 1540.33 1003.83 1544.94 Q1000.78 1549.52 994.966 1549.52 Q989.156 1549.52 986.077 1544.94 Q983.021 1540.33 983.021 1531.6 Q983.021 1522.85 986.077 1518.27 Q989.156 1513.66 994.966 1513.66 Z" fill="#000000" fill-rule="evenodd" fill-opacity="1" /><path clip-path="url(#clip650)" d="M1015.13 1542.97 L1020.01 1542.97 L1020.01 1548.85 L1015.13 1548.85 L1015.13 1542.97 Z" fill="#000000" fill-rule="evenodd" fill-opacity="1" /><path clip-path="url(#clip650)" d="M1030.24 1514.29 L1048.6 1514.29 L1048.6 1518.22 L1034.53 1518.22 L1034.53 1526.7 Q1035.54 1526.35 1036.56 1526.19 Q1037.58 1526 1038.6 1526 Q1044.39 1526 1047.77 1529.17 Q1051.15 1532.34 1051.15 1537.76 Q1051.15 1543.34 1047.67 1546.44 Q1044.2 1549.52 1037.88 1549.52 Q1035.71 1549.52 1033.44 1549.15 Q1031.19 1548.78 1028.78 1548.04 L1028.78 1543.34 Q1030.87 1544.47 1033.09 1545.03 Q1035.31 1545.58 1037.79 1545.58 Q1041.79 1545.58 1044.13 1543.48 Q1046.47 1541.37 1046.47 1537.76 Q1046.47 1534.15 1044.13 1532.04 Q1041.79 1529.94 1037.79 1529.94 Q1035.91 1529.94 1034.04 1530.35 Q1032.19 1530.77 1030.24 1531.65 L1030.24 1514.29 Z" fill="#000000" fill-rule="evenodd" fill-opacity="1" /><path clip-path="url(#clip650)" d="M1293.47 1517.37 Q1289.86 1517.37 1288.03 1520.93 Q1286.22 1524.47 1286.22 1531.6 Q1286.22 1538.71 1288.03 1542.27 Q1289.86 1545.82 1293.47 1545.82 Q1297.1 1545.82 1298.91 1542.27 Q1300.74 1538.71 1300.74 1531.6 Q1300.74 1524.47 1298.91 1520.93 Q1297.1 1517.37 1293.47 1517.37 M1293.47 1513.66 Q1299.28 1513.66 1302.33 1518.27 Q1305.41 1522.85 1305.41 1531.6 Q1305.41 1540.33 1302.33 1544.94 Q1299.28 1549.52 1293.47 1549.52 Q1287.66 1549.52 1284.58 1544.94 Q1281.52 1540.33 1281.52 1531.6 Q1281.52 1522.85 1284.58 1518.27 Q1287.66 1513.66 1293.47 1513.66 Z" fill="#000000" fill-rule="evenodd" fill-opacity="1" /><path clip-path="url(#clip650)" d="M1313.63 1542.97 L1318.51 1542.97 L1318.51 1548.85 L1313.63 1548.85 L1313.63 1542.97 Z" fill="#000000" fill-rule="evenodd" fill-opacity="1" /><path clip-path="url(#clip650)" d="M1339.28 1529.7 Q1336.13 1529.7 1334.28 1531.86 Q1332.45 1534.01 1332.45 1537.76 Q1332.45 1541.49 1334.28 1543.66 Q1336.13 1545.82 1339.28 1545.82 Q1342.43 1545.82 1344.25 1543.66 Q1346.11 1541.49 1346.11 1537.76 Q1346.11 1534.01 1344.25 1531.86 Q1342.43 1529.7 1339.28 1529.7 M1348.56 1515.05 L1348.56 1519.31 Q1346.8 1518.48 1345 1518.04 Q1343.21 1517.6 1341.45 1517.6 Q1336.82 1517.6 1334.37 1520.72 Q1331.94 1523.85 1331.59 1530.17 Q1332.96 1528.15 1335.02 1527.09 Q1337.08 1526 1339.56 1526 Q1344.76 1526 1347.77 1529.17 Q1350.81 1532.32 1350.81 1537.76 Q1350.81 1543.08 1347.66 1546.3 Q1344.51 1549.52 1339.28 1549.52 Q1333.28 1549.52 1330.11 1544.94 Q1326.94 1540.33 1326.94 1531.6 Q1326.94 1523.41 1330.83 1518.55 Q1334.72 1513.66 1341.27 1513.66 Q1343.03 1513.66 1344.81 1514.01 Q1346.62 1514.36 1348.56 1515.05 Z" fill="#000000" fill-rule="evenodd" fill-opacity="1" /><path clip-path="url(#clip650)" d="M1593.08 1517.37 Q1589.47 1517.37 1587.64 1520.93 Q1585.84 1524.47 1585.84 1531.6 Q1585.84 1538.71 1587.64 1542.27 Q1589.47 1545.82 1593.08 1545.82 Q1596.72 1545.82 1598.52 1542.27 Q1600.35 1538.71 1600.35 1531.6 Q1600.35 1524.47 1598.52 1520.93 Q1596.72 1517.37 1593.08 1517.37 M1593.08 1513.66 Q1598.89 1513.66 1601.95 1518.27 Q1605.03 1522.85 1605.03 1531.6 Q1605.03 1540.33 1601.95 1544.94 Q1598.89 1549.52 1593.08 1549.52 Q1587.27 1549.52 1584.19 1544.94 Q1581.14 1540.33 1581.14 1531.6 Q1581.14 1522.85 1584.19 1518.27 Q1587.27 1513.66 1593.08 1513.66 Z" fill="#000000" fill-rule="evenodd" fill-opacity="1" /><path clip-path="url(#clip650)" d="M1613.24 1542.97 L1618.13 1542.97 L1618.13 1548.85 L1613.24 1548.85 L1613.24 1542.97 Z" fill="#000000" fill-rule="evenodd" fill-opacity="1" /><path clip-path="url(#clip650)" d="M1627.13 1514.29 L1649.35 1514.29 L1649.35 1516.28 L1636.81 1548.85 L1631.92 1548.85 L1643.73 1518.22 L1627.13 1518.22 L1627.13 1514.29 Z" fill="#000000" fill-rule="evenodd" fill-opacity="1" /><path clip-path="url(#clip650)" d="M1891.76 1517.37 Q1888.15 1517.37 1886.32 1520.93 Q1884.51 1524.47 1884.51 1531.6 Q1884.51 1538.71 1886.32 1542.27 Q1888.15 1545.82 1891.76 1545.82 Q1895.39 1545.82 1897.2 1542.27 Q1899.03 1538.71 1899.03 1531.6 Q1899.03 1524.47 1897.2 1520.93 Q1895.39 1517.37 1891.76 1517.37 M1891.76 1513.66 Q1897.57 1513.66 1900.62 1518.27 Q1903.7 1522.85 1903.7 1531.6 Q1903.7 1540.33 1900.62 1544.94 Q1897.57 1549.52 1891.76 1549.52 Q1885.95 1549.52 1882.87 1544.94 Q1879.81 1540.33 1879.81 1531.6 Q1879.81 1522.85 1882.87 1518.27 Q1885.95 1513.66 1891.76 1513.66 Z" fill="#000000" fill-rule="evenodd" fill-opacity="1" /><path clip-path="url(#clip650)" d="M1911.92 1542.97 L1916.8 1542.97 L1916.8 1548.85 L1911.92 1548.85 L1911.92 1542.97 Z" fill="#000000" fill-rule="evenodd" fill-opacity="1" /><path clip-path="url(#clip650)" d="M1936.99 1532.44 Q1933.65 1532.44 1931.73 1534.22 Q1929.84 1536 1929.84 1539.13 Q1929.84 1542.25 1931.73 1544.03 Q1933.65 1545.82 1936.99 1545.82 Q1940.32 1545.82 1942.24 1544.03 Q1944.16 1542.23 1944.16 1539.13 Q1944.16 1536 1942.24 1534.22 Q1940.34 1532.44 1936.99 1532.44 M1932.31 1530.45 Q1929.3 1529.7 1927.61 1527.64 Q1925.95 1525.58 1925.95 1522.62 Q1925.95 1518.48 1928.89 1516.07 Q1931.85 1513.66 1936.99 1513.66 Q1942.15 1513.66 1945.09 1516.07 Q1948.03 1518.48 1948.03 1522.62 Q1948.03 1525.58 1946.34 1527.64 Q1944.67 1529.7 1941.69 1530.45 Q1945.07 1531.23 1946.94 1533.52 Q1948.84 1535.82 1948.84 1539.13 Q1948.84 1544.15 1945.76 1546.83 Q1942.71 1549.52 1936.99 1549.52 Q1931.27 1549.52 1928.19 1546.83 Q1925.14 1544.15 1925.14 1539.13 Q1925.14 1535.82 1927.03 1533.52 Q1928.93 1531.23 1932.31 1530.45 M1930.6 1523.06 Q1930.6 1525.75 1932.27 1527.25 Q1933.96 1528.76 1936.99 1528.76 Q1940 1528.76 1941.69 1527.25 Q1943.4 1525.75 1943.4 1523.06 Q1943.4 1520.38 1941.69 1518.87 Q1940 1517.37 1936.99 1517.37 Q1933.96 1517.37 1932.27 1518.87 Q1930.6 1520.38 1930.6 1523.06 Z" fill="#000000" fill-rule="evenodd" fill-opacity="1" /><path clip-path="url(#clip650)" d="M2190.88 1517.37 Q2187.27 1517.37 2185.44 1520.93 Q2183.64 1524.47 2183.64 1531.6 Q2183.64 1538.71 2185.44 1542.27 Q2187.27 1545.82 2190.88 1545.82 Q2194.52 1545.82 2196.32 1542.27 Q2198.15 1538.71 2198.15 1531.6 Q2198.15 1524.47 2196.32 1520.93 Q2194.52 1517.37 2190.88 1517.37 M2190.88 1513.66 Q2196.69 1513.66 2199.75 1518.27 Q2202.83 1522.85 2202.83 1531.6 Q2202.83 1540.33 2199.75 1544.94 Q2196.69 1549.52 2190.88 1549.52 Q2185.07 1549.52 2181.99 1544.94 Q2178.94 1540.33 2178.94 1531.6 Q2178.94 1522.85 2181.99 1518.27 Q2185.07 1513.66 2190.88 1513.66 Z" fill="#000000" fill-rule="evenodd" fill-opacity="1" /><path clip-path="url(#clip650)" d="M2211.05 1542.97 L2215.93 1542.97 L2215.93 1548.85 L2211.05 1548.85 L2211.05 1542.97 Z" fill="#000000" fill-rule="evenodd" fill-opacity="1" /><path clip-path="url(#clip650)" d="M2226.25 1548.13 L2226.25 1543.87 Q2228.01 1544.7 2229.82 1545.14 Q2231.62 1545.58 2233.36 1545.58 Q2237.99 1545.58 2240.42 1542.48 Q2242.87 1539.36 2243.22 1533.01 Q2241.88 1535.01 2239.82 1536.07 Q2237.76 1537.13 2235.26 1537.13 Q2230.07 1537.13 2227.04 1534.01 Q2224.03 1530.86 2224.03 1525.42 Q2224.03 1520.1 2227.18 1516.88 Q2230.33 1513.66 2235.56 1513.66 Q2241.55 1513.66 2244.7 1518.27 Q2247.87 1522.85 2247.87 1531.6 Q2247.87 1539.77 2243.99 1544.66 Q2240.12 1549.52 2233.57 1549.52 Q2231.81 1549.52 2230 1549.17 Q2228.2 1548.82 2226.25 1548.13 M2235.56 1533.48 Q2238.71 1533.48 2240.54 1531.32 Q2242.39 1529.17 2242.39 1525.42 Q2242.39 1521.7 2240.54 1519.54 Q2238.71 1517.37 2235.56 1517.37 Q2232.41 1517.37 2230.56 1519.54 Q2228.73 1521.7 2228.73 1525.42 Q2228.73 1529.17 2230.56 1531.32 Q2232.41 1533.48 2235.56 1533.48 Z" fill="#000000" fill-rule="evenodd" fill-opacity="1" /><polyline clip-path="url(#clip652)" style="stroke:#000000; stroke-linecap:butt; stroke-linejoin:round; stroke-width:2; stroke-opacity:0.1; fill:none" points="
  156.598,1261.01 2352.76,1261.01 
  "/>
<polyline clip-path="url(#clip652)" style="stroke:#000000; stroke-linecap:butt; stroke-linejoin:round; stroke-width:2; stroke-opacity:0.1; fill:none" points="
  156.598,921.326 2352.76,921.326 
  "/>
<polyline clip-path="url(#clip652)" style="stroke:#000000; stroke-linecap:butt; stroke-linejoin:round; stroke-width:2; stroke-opacity:0.1; fill:none" points="
  156.598,581.64 2352.76,581.64 
  "/>
<polyline clip-path="url(#clip652)" style="stroke:#000000; stroke-linecap:butt; stroke-linejoin:round; stroke-width:2; stroke-opacity:0.1; fill:none" points="
  156.598,241.954 2352.76,241.954 
  "/>
<polyline clip-path="url(#clip650)" style="stroke:#000000; stroke-linecap:butt; stroke-linejoin:round; stroke-width:4; stroke-opacity:1; fill:none" points="
  156.598,1486.45 156.598,47.2441 
  "/>
<polyline clip-path="url(#clip650)" style="stroke:#000000; stroke-linecap:butt; stroke-linejoin:round; stroke-width:4; stroke-opacity:1; fill:none" points="
  156.598,1261.01 175.496,1261.01 
  "/>
<polyline clip-path="url(#clip650)" style="stroke:#000000; stroke-linecap:butt; stroke-linejoin:round; stroke-width:4; stroke-opacity:1; fill:none" points="
  156.598,921.326 175.496,921.326 
  "/>
<polyline clip-path="url(#clip650)" style="stroke:#000000; stroke-linecap:butt; stroke-linejoin:round; stroke-width:4; stroke-opacity:1; fill:none" points="
  156.598,581.64 175.496,581.64 
  "/>
<polyline clip-path="url(#clip650)" style="stroke:#000000; stroke-linecap:butt; stroke-linejoin:round; stroke-width:4; stroke-opacity:1; fill:none" points="
  156.598,241.954 175.496,241.954 
  "/>
<path clip-path="url(#clip650)" d="M65.0198 1246.81 Q61.4087 1246.81 59.58 1250.38 Q57.7745 1253.92 57.7745 1261.05 Q57.7745 1268.15 59.58 1271.72 Q61.4087 1275.26 65.0198 1275.26 Q68.6541 1275.26 70.4596 1271.72 Q72.2883 1268.15 72.2883 1261.05 Q72.2883 1253.92 70.4596 1250.38 Q68.6541 1246.81 65.0198 1246.81 M65.0198 1243.11 Q70.83 1243.11 73.8855 1247.71 Q76.9642 1252.3 76.9642 1261.05 Q76.9642 1269.77 73.8855 1274.38 Q70.83 1278.96 65.0198 1278.96 Q59.2097 1278.96 56.131 1274.38 Q53.0754 1269.77 53.0754 1261.05 Q53.0754 1252.3 56.131 1247.71 Q59.2097 1243.11 65.0198 1243.11 Z" fill="#000000" fill-rule="evenodd" fill-opacity="1" /><path clip-path="url(#clip650)" d="M85.1818 1272.41 L90.066 1272.41 L90.066 1278.29 L85.1818 1278.29 L85.1818 1272.41 Z" fill="#000000" fill-rule="evenodd" fill-opacity="1" /><path clip-path="url(#clip650)" d="M104.279 1274.36 L120.598 1274.36 L120.598 1278.29 L98.6539 1278.29 L98.6539 1274.36 Q101.316 1271.6 105.899 1266.97 Q110.506 1262.32 111.686 1260.98 Q113.932 1258.45 114.811 1256.72 Q115.714 1254.96 115.714 1253.27 Q115.714 1250.51 113.77 1248.78 Q111.848 1247.04 108.746 1247.04 Q106.547 1247.04 104.094 1247.81 Q101.663 1248.57 98.8854 1250.12 L98.8854 1245.4 Q101.709 1244.26 104.163 1243.69 Q106.617 1243.11 108.654 1243.11 Q114.024 1243.11 117.219 1245.79 Q120.413 1248.48 120.413 1252.97 Q120.413 1255.1 119.603 1257.02 Q118.816 1258.92 116.709 1261.51 Q116.131 1262.18 113.029 1265.4 Q109.927 1268.59 104.279 1274.36 Z" fill="#000000" fill-rule="evenodd" fill-opacity="1" /><path clip-path="url(#clip650)" d="M62.9365 907.125 Q59.3254 907.125 57.4967 910.69 Q55.6912 914.231 55.6912 921.361 Q55.6912 928.468 57.4967 932.032 Q59.3254 935.574 62.9365 935.574 Q66.5707 935.574 68.3763 932.032 Q70.205 928.468 70.205 921.361 Q70.205 914.231 68.3763 910.69 Q66.5707 907.125 62.9365 907.125 M62.9365 903.421 Q68.7467 903.421 71.8022 908.028 Q74.8809 912.611 74.8809 921.361 Q74.8809 930.088 71.8022 934.694 Q68.7467 939.278 62.9365 939.278 Q57.1264 939.278 54.0477 934.694 Q50.9921 930.088 50.9921 921.361 Q50.9921 912.611 54.0477 908.028 Q57.1264 903.421 62.9365 903.421 Z" fill="#000000" fill-rule="evenodd" fill-opacity="1" /><path clip-path="url(#clip650)" d="M83.0984 932.727 L87.9827 932.727 L87.9827 938.606 L83.0984 938.606 L83.0984 932.727 Z" fill="#000000" fill-rule="evenodd" fill-opacity="1" /><path clip-path="url(#clip650)" d="M111.015 908.12 L99.2095 926.569 L111.015 926.569 L111.015 908.12 M109.788 904.046 L115.668 904.046 L115.668 926.569 L120.598 926.569 L120.598 930.458 L115.668 930.458 L115.668 938.606 L111.015 938.606 L111.015 930.458 L95.4132 930.458 L95.4132 925.944 L109.788 904.046 Z" fill="#000000" fill-rule="evenodd" fill-opacity="1" /><path clip-path="url(#clip650)" d="M63.2606 567.439 Q59.6495 567.439 57.8208 571.004 Q56.0152 574.545 56.0152 581.675 Q56.0152 588.781 57.8208 592.346 Q59.6495 595.888 63.2606 595.888 Q66.8948 595.888 68.7004 592.346 Q70.5291 588.781 70.5291 581.675 Q70.5291 574.545 68.7004 571.004 Q66.8948 567.439 63.2606 567.439 M63.2606 563.735 Q69.0707 563.735 72.1263 568.342 Q75.205 572.925 75.205 581.675 Q75.205 590.402 72.1263 595.008 Q69.0707 599.591 63.2606 599.591 Q57.4504 599.591 54.3717 595.008 Q51.3162 590.402 51.3162 581.675 Q51.3162 572.925 54.3717 568.342 Q57.4504 563.735 63.2606 563.735 Z" fill="#000000" fill-rule="evenodd" fill-opacity="1" /><path clip-path="url(#clip650)" d="M83.4225 593.041 L88.3067 593.041 L88.3067 598.92 L83.4225 598.92 L83.4225 593.041 Z" fill="#000000" fill-rule="evenodd" fill-opacity="1" /><path clip-path="url(#clip650)" d="M109.071 579.777 Q105.922 579.777 104.071 581.93 Q102.242 584.082 102.242 587.832 Q102.242 591.559 104.071 593.735 Q105.922 595.888 109.071 595.888 Q112.219 595.888 114.047 593.735 Q115.899 591.559 115.899 587.832 Q115.899 584.082 114.047 581.93 Q112.219 579.777 109.071 579.777 M118.353 565.124 L118.353 569.383 Q116.594 568.55 114.788 568.11 Q113.006 567.67 111.246 567.67 Q106.617 567.67 104.163 570.795 Q101.733 573.92 101.385 580.24 Q102.751 578.226 104.811 577.161 Q106.871 576.073 109.348 576.073 Q114.557 576.073 117.566 579.244 Q120.598 582.392 120.598 587.832 Q120.598 593.156 117.45 596.374 Q114.302 599.591 109.071 599.591 Q103.075 599.591 99.9039 595.008 Q96.7326 590.402 96.7326 581.675 Q96.7326 573.481 100.621 568.619 Q104.51 563.735 111.061 563.735 Q112.82 563.735 114.603 564.082 Q116.408 564.43 118.353 565.124 Z" fill="#000000" fill-rule="evenodd" fill-opacity="1" /><path clip-path="url(#clip650)" d="M63.5152 227.753 Q59.9041 227.753 58.0754 231.318 Q56.2699 234.859 56.2699 241.989 Q56.2699 249.095 58.0754 252.66 Q59.9041 256.202 63.5152 256.202 Q67.1494 256.202 68.955 252.66 Q70.7837 249.095 70.7837 241.989 Q70.7837 234.859 68.955 231.318 Q67.1494 227.753 63.5152 227.753 M63.5152 224.049 Q69.3254 224.049 72.3809 228.655 Q75.4596 233.239 75.4596 241.989 Q75.4596 250.716 72.3809 255.322 Q69.3254 259.905 63.5152 259.905 Q57.7051 259.905 54.6264 255.322 Q51.5708 250.716 51.5708 241.989 Q51.5708 233.239 54.6264 228.655 Q57.7051 224.049 63.5152 224.049 Z" fill="#000000" fill-rule="evenodd" fill-opacity="1" /><path clip-path="url(#clip650)" d="M83.6771 253.354 L88.5614 253.354 L88.5614 259.234 L83.6771 259.234 L83.6771 253.354 Z" fill="#000000" fill-rule="evenodd" fill-opacity="1" /><path clip-path="url(#clip650)" d="M108.746 242.822 Q105.413 242.822 103.492 244.604 Q101.594 246.387 101.594 249.512 Q101.594 252.637 103.492 254.419 Q105.413 256.202 108.746 256.202 Q112.08 256.202 114.001 254.419 Q115.922 252.614 115.922 249.512 Q115.922 246.387 114.001 244.604 Q112.103 242.822 108.746 242.822 M104.071 240.831 Q101.061 240.091 99.3715 238.03 Q97.7048 235.97 97.7048 233.007 Q97.7048 228.864 100.645 226.456 Q103.608 224.049 108.746 224.049 Q113.908 224.049 116.848 226.456 Q119.788 228.864 119.788 233.007 Q119.788 235.97 118.098 238.03 Q116.432 240.091 113.445 240.831 Q116.825 241.618 118.7 243.91 Q120.598 246.202 120.598 249.512 Q120.598 254.535 117.52 257.22 Q114.464 259.905 108.746 259.905 Q103.029 259.905 99.9502 257.22 Q96.8947 254.535 96.8947 249.512 Q96.8947 246.202 98.7928 243.91 Q100.691 241.618 104.071 240.831 M102.358 233.447 Q102.358 236.132 104.024 237.637 Q105.714 239.142 108.746 239.142 Q111.756 239.142 113.445 237.637 Q115.158 236.132 115.158 233.447 Q115.158 230.762 113.445 229.257 Q111.756 227.753 108.746 227.753 Q105.714 227.753 104.024 229.257 Q102.358 230.762 102.358 233.447 Z" fill="#000000" fill-rule="evenodd" fill-opacity="1" /><polyline clip-path="url(#clip652)" style="stroke:#009af9; stroke-linecap:butt; stroke-linejoin:round; stroke-width:4; stroke-opacity:1; fill:none" points="
  618.78,786.69 1635.48,343.618 2290.6,170.935 1383.45,87.9763 1401.7,913.813 653.779,1445.72 218.754,113.492 2267.25,565.231 449.698,1084.94 415.555,1241.32 
  
  "/>
<path clip-path="url(#clip650)" d="
M1987.12 198.898 L2279.55 198.898 L2279.55 95.2176 L1987.12 95.2176  Z
  " fill="#ffffff" fill-rule="evenodd" fill-opacity="1"/>
<polyline clip-path="url(#clip650)" style="stroke:#000000; stroke-linecap:butt; stroke-linejoin:round; stroke-width:4; stroke-opacity:1; fill:none" points="
  1987.12,198.898 2279.55,198.898 2279.55,95.2176 1987.12,95.2176 1987.12,198.898 
  "/>
<polyline clip-path="url(#clip650)" style="stroke:#009af9; stroke-linecap:butt; stroke-linejoin:round; stroke-width:4; stroke-opacity:1; fill:none" points="
  2011.12,147.058 2155.12,147.058 
  "/>
<path clip-path="url(#clip650)" d="M2192.96 166.745 Q2191.16 171.375 2189.44 172.787 Q2187.73 174.199 2184.86 174.199 L2181.46 174.199 L2181.46 170.634 L2183.96 170.634 Q2185.72 170.634 2186.69 169.8 Q2187.66 168.967 2188.84 165.865 L2189.61 163.921 L2179.12 138.412 L2183.63 138.412 L2191.74 158.689 L2199.84 138.412 L2204.35 138.412 L2192.96 166.745 Z" fill="#000000" fill-rule="evenodd" fill-opacity="1" /><path clip-path="url(#clip650)" d="M2211.64 160.402 L2219.28 160.402 L2219.28 134.037 L2210.97 135.703 L2210.97 131.444 L2219.24 129.778 L2223.91 129.778 L2223.91 160.402 L2231.55 160.402 L2231.55 164.338 L2211.64 164.338 L2211.64 160.402 Z" fill="#000000" fill-rule="evenodd" fill-opacity="1" /></svg>
