<?xml version="1.0" encoding="utf-8"?>
<svg xmlns="http://www.w3.org/2000/svg" xmlns:xlink="http://www.w3.org/1999/xlink" width="600" height="400" viewBox="0 0 2400 1600">
<defs>
  <clipPath id="clip410">
    <rect x="0" y="0" width="2400" height="1600"/>
  </clipPath>
</defs>
<path clip-path="url(#clip410)" d="
M0 1600 L2400 1600 L2400 0 L0 0  Z
  " fill="#ffffff" fill-rule="evenodd" fill-opacity="1"/>
<defs>
  <clipPath id="clip411">
    <rect x="480" y="0" width="1681" height="1600"/>
  </clipPath>
</defs>
<path clip-path="url(#clip410)" d="
M156.598 1486.45 L2352.76 1486.45 L2352.76 47.2441 L156.598 47.2441  Z
  " fill="#ffffff" fill-rule="evenodd" fill-opacity="1"/>
<defs>
  <clipPath id="clip412">
    <rect x="156" y="47" width="2197" height="1440"/>
  </clipPath>
</defs>
<polyline clip-path="url(#clip412)" style="stroke:#000000; stroke-linecap:butt; stroke-linejoin:round; stroke-width:2; stroke-opacity:0.1; fill:none" points="
  418.634,1486.45 418.634,47.2441 
  "/>
<polyline clip-path="url(#clip412)" style="stroke:#000000; stroke-linecap:butt; stroke-linejoin:round; stroke-width:2; stroke-opacity:0.1; fill:none" points="
  890.96,1486.45 890.96,47.2441 
  "/>
<polyline clip-path="url(#clip412)" style="stroke:#000000; stroke-linecap:butt; stroke-linejoin:round; stroke-width:2; stroke-opacity:0.1; fill:none" points="
  1363.29,1486.45 1363.29,47.2441 
  "/>
<polyline clip-path="url(#clip412)" style="stroke:#000000; stroke-linecap:butt; stroke-linejoin:round; stroke-width:2; stroke-opacity:0.1; fill:none" points="
  1835.61,1486.45 1835.61,47.2441 
  "/>
<polyline clip-path="url(#clip412)" style="stroke:#000000; stroke-linecap:butt; stroke-linejoin:round; stroke-width:2; stroke-opacity:0.1; fill:none" points="
  2307.94,1486.45 2307.94,47.2441 
  "/>
<polyline clip-path="url(#clip410)" style="stroke:#000000; stroke-linecap:butt; stroke-linejoin:round; stroke-width:4; stroke-opacity:1; fill:none" points="
  156.598,1486.45 2352.76,1486.45 
  "/>
<polyline clip-path="url(#clip410)" style="stroke:#000000; stroke-linecap:butt; stroke-linejoin:round; stroke-width:4; stroke-opacity:1; fill:none" points="
  418.634,1486.45 418.634,1467.55 
  "/>
<polyline clip-path="url(#clip410)" style="stroke:#000000; stroke-linecap:butt; stroke-linejoin:round; stroke-width:4; stroke-opacity:1; fill:none" points="
  890.96,1486.45 890.96,1467.55 
  "/>
<polyline clip-path="url(#clip410)" style="stroke:#000000; stroke-linecap:butt; stroke-linejoin:round; stroke-width:4; stroke-opacity:1; fill:none" points="
  1363.29,1486.45 1363.29,1467.55 
  "/>
<polyline clip-path="url(#clip410)" style="stroke:#000000; stroke-linecap:butt; stroke-linejoin:round; stroke-width:4; stroke-opacity:1; fill:none" points="
  1835.61,1486.45 1835.61,1467.55 
  "/>
<polyline clip-path="url(#clip410)" style="stroke:#000000; stroke-linecap:butt; stroke-linejoin:round; stroke-width:4; stroke-opacity:1; fill:none" points="
  2307.94,1486.45 2307.94,1467.55 
  "/>
<path clip-path="url(#clip410)" d="M396.817 1517.37 Q393.206 1517.37 391.377 1520.93 Q389.572 1524.47 389.572 1531.6 Q389.572 1538.71 391.377 1542.27 Q393.206 1545.82 396.817 1545.82 Q400.451 1545.82 402.257 1542.27 Q404.085 1538.71 404.085 1531.6 Q404.085 1524.47 402.257 1520.93 Q400.451 1517.37 396.817 1517.37 M396.817 1513.66 Q402.627 1513.66 405.683 1518.27 Q408.761 1522.85 408.761 1531.6 Q408.761 1540.33 405.683 1544.94 Q402.627 1549.52 396.817 1549.52 Q391.007 1549.52 387.928 1544.94 Q384.872 1540.33 384.872 1531.6 Q384.872 1522.85 387.928 1518.27 Q391.007 1513.66 396.817 1513.66 Z" fill="#000000" fill-rule="evenodd" fill-opacity="1" /><path clip-path="url(#clip410)" d="M416.979 1542.97 L421.863 1542.97 L421.863 1548.85 L416.979 1548.85 L416.979 1542.97 Z" fill="#000000" fill-rule="evenodd" fill-opacity="1" /><path clip-path="url(#clip410)" d="M436.076 1544.91 L452.395 1544.91 L452.395 1548.85 L430.451 1548.85 L430.451 1544.91 Q433.113 1542.16 437.696 1537.53 Q442.303 1532.88 443.483 1531.53 Q445.729 1529.01 446.608 1527.27 Q447.511 1525.51 447.511 1523.82 Q447.511 1521.07 445.567 1519.33 Q443.645 1517.6 440.543 1517.6 Q438.344 1517.6 435.891 1518.36 Q433.46 1519.13 430.682 1520.68 L430.682 1515.95 Q433.506 1514.82 435.96 1514.24 Q438.414 1513.66 440.451 1513.66 Q445.821 1513.66 449.016 1516.35 Q452.21 1519.03 452.21 1523.52 Q452.21 1525.65 451.4 1527.57 Q450.613 1529.47 448.506 1532.07 Q447.928 1532.74 444.826 1535.95 Q441.724 1539.15 436.076 1544.91 Z" fill="#000000" fill-rule="evenodd" fill-opacity="1" /><path clip-path="url(#clip410)" d="M868.102 1517.37 Q864.49 1517.37 862.662 1520.93 Q860.856 1524.47 860.856 1531.6 Q860.856 1538.71 862.662 1542.27 Q864.49 1545.82 868.102 1545.82 Q871.736 1545.82 873.541 1542.27 Q875.37 1538.71 875.37 1531.6 Q875.37 1524.47 873.541 1520.93 Q871.736 1517.37 868.102 1517.37 M868.102 1513.66 Q873.912 1513.66 876.967 1518.27 Q880.046 1522.85 880.046 1531.6 Q880.046 1540.33 876.967 1544.94 Q873.912 1549.52 868.102 1549.52 Q862.291 1549.52 859.213 1544.94 Q856.157 1540.33 856.157 1531.6 Q856.157 1522.85 859.213 1518.27 Q862.291 1513.66 868.102 1513.66 Z" fill="#000000" fill-rule="evenodd" fill-opacity="1" /><path clip-path="url(#clip410)" d="M888.263 1542.97 L893.148 1542.97 L893.148 1548.85 L888.263 1548.85 L888.263 1542.97 Z" fill="#000000" fill-rule="evenodd" fill-opacity="1" /><path clip-path="url(#clip410)" d="M916.18 1518.36 L904.375 1536.81 L916.18 1536.81 L916.18 1518.36 M914.953 1514.29 L920.833 1514.29 L920.833 1536.81 L925.763 1536.81 L925.763 1540.7 L920.833 1540.7 L920.833 1548.85 L916.18 1548.85 L916.18 1540.7 L900.578 1540.7 L900.578 1536.19 L914.953 1514.29 Z" fill="#000000" fill-rule="evenodd" fill-opacity="1" /><path clip-path="url(#clip410)" d="M1340.59 1517.37 Q1336.98 1517.37 1335.15 1520.93 Q1333.34 1524.47 1333.34 1531.6 Q1333.34 1538.71 1335.15 1542.27 Q1336.98 1545.82 1340.59 1545.82 Q1344.22 1545.82 1346.03 1542.27 Q1347.86 1538.71 1347.86 1531.6 Q1347.86 1524.47 1346.03 1520.93 Q1344.22 1517.37 1340.59 1517.37 M1340.59 1513.66 Q1346.4 1513.66 1349.46 1518.27 Q1352.53 1522.85 1352.53 1531.6 Q1352.53 1540.33 1349.46 1544.94 Q1346.4 1549.52 1340.59 1549.52 Q1334.78 1549.52 1331.7 1544.94 Q1328.65 1540.33 1328.65 1531.6 Q1328.65 1522.85 1331.7 1518.27 Q1334.78 1513.66 1340.59 1513.66 Z" fill="#000000" fill-rule="evenodd" fill-opacity="1" /><path clip-path="url(#clip410)" d="M1360.75 1542.97 L1365.64 1542.97 L1365.64 1548.85 L1360.75 1548.85 L1360.75 1542.97 Z" fill="#000000" fill-rule="evenodd" fill-opacity="1" /><path clip-path="url(#clip410)" d="M1386.4 1529.7 Q1383.25 1529.7 1381.4 1531.86 Q1379.57 1534.01 1379.57 1537.76 Q1379.57 1541.49 1381.4 1543.66 Q1383.25 1545.82 1386.4 1545.82 Q1389.55 1545.82 1391.38 1543.66 Q1393.23 1541.49 1393.23 1537.76 Q1393.23 1534.01 1391.38 1531.86 Q1389.55 1529.7 1386.4 1529.7 M1395.68 1515.05 L1395.68 1519.31 Q1393.92 1518.48 1392.12 1518.04 Q1390.34 1517.6 1388.58 1517.6 Q1383.95 1517.6 1381.49 1520.72 Q1379.06 1523.85 1378.71 1530.17 Q1380.08 1528.15 1382.14 1527.09 Q1384.2 1526 1386.68 1526 Q1391.89 1526 1394.9 1529.17 Q1397.93 1532.32 1397.93 1537.76 Q1397.93 1543.08 1394.78 1546.3 Q1391.63 1549.52 1386.4 1549.52 Q1380.4 1549.52 1377.23 1544.94 Q1374.06 1540.33 1374.06 1531.6 Q1374.06 1523.41 1377.95 1518.55 Q1381.84 1513.66 1388.39 1513.66 Q1390.15 1513.66 1391.93 1514.01 Q1393.74 1514.36 1395.68 1515.05 Z" fill="#000000" fill-rule="evenodd" fill-opacity="1" /><path clip-path="url(#clip410)" d="M1813.04 1517.37 Q1809.43 1517.37 1807.6 1520.93 Q1805.8 1524.47 1805.8 1531.6 Q1805.8 1538.71 1807.6 1542.27 Q1809.43 1545.82 1813.04 1545.82 Q1816.68 1545.82 1818.48 1542.27 Q1820.31 1538.71 1820.31 1531.6 Q1820.31 1524.47 1818.48 1520.93 Q1816.68 1517.37 1813.04 1517.37 M1813.04 1513.66 Q1818.85 1513.66 1821.91 1518.27 Q1824.99 1522.85 1824.99 1531.6 Q1824.99 1540.33 1821.91 1544.94 Q1818.85 1549.52 1813.04 1549.52 Q1807.23 1549.52 1804.15 1544.94 Q1801.1 1540.33 1801.1 1531.6 Q1801.1 1522.85 1804.15 1518.27 Q1807.23 1513.66 1813.04 1513.66 Z" fill="#000000" fill-rule="evenodd" fill-opacity="1" /><path clip-path="url(#clip410)" d="M1833.21 1542.97 L1838.09 1542.97 L1838.09 1548.85 L1833.21 1548.85 L1833.21 1542.97 Z" fill="#000000" fill-rule="evenodd" fill-opacity="1" /><path clip-path="url(#clip410)" d="M1858.27 1532.44 Q1854.94 1532.44 1853.02 1534.22 Q1851.12 1536 1851.12 1539.13 Q1851.12 1542.25 1853.02 1544.03 Q1854.94 1545.82 1858.27 1545.82 Q1861.61 1545.82 1863.53 1544.03 Q1865.45 1542.23 1865.45 1539.13 Q1865.45 1536 1863.53 1534.22 Q1861.63 1532.44 1858.27 1532.44 M1853.6 1530.45 Q1850.59 1529.7 1848.9 1527.64 Q1847.23 1525.58 1847.23 1522.62 Q1847.23 1518.48 1850.17 1516.07 Q1853.14 1513.66 1858.27 1513.66 Q1863.44 1513.66 1866.38 1516.07 Q1869.32 1518.48 1869.32 1522.62 Q1869.32 1525.58 1867.63 1527.64 Q1865.96 1529.7 1862.97 1530.45 Q1866.35 1531.23 1868.23 1533.52 Q1870.13 1535.82 1870.13 1539.13 Q1870.13 1544.15 1867.05 1546.83 Q1863.99 1549.52 1858.27 1549.52 Q1852.56 1549.52 1849.48 1546.83 Q1846.42 1544.15 1846.42 1539.13 Q1846.42 1535.82 1848.32 1533.52 Q1850.22 1531.23 1853.6 1530.45 M1851.89 1523.06 Q1851.89 1525.75 1853.55 1527.25 Q1855.24 1528.76 1858.27 1528.76 Q1861.28 1528.76 1862.97 1527.25 Q1864.69 1525.75 1864.69 1523.06 Q1864.69 1520.38 1862.97 1518.87 Q1861.28 1517.37 1858.27 1517.37 Q1855.24 1517.37 1853.55 1518.87 Q1851.89 1520.38 1851.89 1523.06 Z" fill="#000000" fill-rule="evenodd" fill-opacity="1" /><path clip-path="url(#clip410)" d="M2275.09 1544.91 L2282.73 1544.91 L2282.73 1518.55 L2274.42 1520.21 L2274.42 1515.95 L2282.68 1514.29 L2287.36 1514.29 L2287.36 1544.91 L2295 1544.91 L2295 1548.85 L2275.09 1548.85 L2275.09 1544.91 Z" fill="#000000" fill-rule="evenodd" fill-opacity="1" /><path clip-path="url(#clip410)" d="M2304.44 1542.97 L2309.33 1542.97 L2309.33 1548.85 L2304.44 1548.85 L2304.44 1542.97 Z" fill="#000000" fill-rule="evenodd" fill-opacity="1" /><path clip-path="url(#clip410)" d="M2329.51 1517.37 Q2325.9 1517.37 2324.07 1520.93 Q2322.27 1524.47 2322.27 1531.6 Q2322.27 1538.71 2324.07 1542.27 Q2325.9 1545.82 2329.51 1545.82 Q2333.15 1545.82 2334.95 1542.27 Q2336.78 1538.71 2336.78 1531.6 Q2336.78 1524.47 2334.95 1520.93 Q2333.15 1517.37 2329.51 1517.37 M2329.51 1513.66 Q2335.32 1513.66 2338.38 1518.27 Q2341.46 1522.85 2341.46 1531.6 Q2341.46 1540.33 2338.38 1544.94 Q2335.32 1549.52 2329.51 1549.52 Q2323.7 1549.52 2320.62 1544.94 Q2317.57 1540.33 2317.57 1531.6 Q2317.57 1522.85 2320.62 1518.27 Q2323.7 1513.66 2329.51 1513.66 Z" fill="#000000" fill-rule="evenodd" fill-opacity="1" /><polyline clip-path="url(#clip412)" style="stroke:#000000; stroke-linecap:butt; stroke-linejoin:round; stroke-width:2; stroke-opacity:0.1; fill:none" points="
  156.598,1249.97 2352.76,1249.97 
  "/>
<polyline clip-path="url(#clip412)" style="stroke:#000000; stroke-linecap:butt; stroke-linejoin:round; stroke-width:2; stroke-opacity:0.1; fill:none" points="
  156.598,877.587 2352.76,877.587 
  "/>
<polyline clip-path="url(#clip412)" style="stroke:#000000; stroke-linecap:butt; stroke-linejoin:round; stroke-width:2; stroke-opacity:0.1; fill:none" points="
  156.598,505.203 2352.76,505.203 
  "/>
<polyline clip-path="url(#clip412)" style="stroke:#000000; stroke-linecap:butt; stroke-linejoin:round; stroke-width:2; stroke-opacity:0.1; fill:none" points="
  156.598,132.819 2352.76,132.819 
  "/>
<polyline clip-path="url(#clip410)" style="stroke:#000000; stroke-linecap:butt; stroke-linejoin:round; stroke-width:4; stroke-opacity:1; fill:none" points="
  156.598,1486.45 156.598,47.2441 
  "/>
<polyline clip-path="url(#clip410)" style="stroke:#000000; stroke-linecap:butt; stroke-linejoin:round; stroke-width:4; stroke-opacity:1; fill:none" points="
  156.598,1249.97 175.496,1249.97 
  "/>
<polyline clip-path="url(#clip410)" style="stroke:#000000; stroke-linecap:butt; stroke-linejoin:round; stroke-width:4; stroke-opacity:1; fill:none" points="
  156.598,877.587 175.496,877.587 
  "/>
<polyline clip-path="url(#clip410)" style="stroke:#000000; stroke-linecap:butt; stroke-linejoin:round; stroke-width:4; stroke-opacity:1; fill:none" points="
  156.598,505.203 175.496,505.203 
  "/>
<polyline clip-path="url(#clip410)" style="stroke:#000000; stroke-linecap:butt; stroke-linejoin:round; stroke-width:4; stroke-opacity:1; fill:none" points="
  156.598,132.819 175.496,132.819 
  "/>
<path clip-path="url(#clip410)" d="M65.0198 1235.77 Q61.4087 1235.77 59.58 1239.33 Q57.7745 1242.88 57.7745 1250.01 Q57.7745 1257.11 59.58 1260.68 Q61.4087 1264.22 65.0198 1264.22 Q68.6541 1264.22 70.4596 1260.68 Q72.2883 1257.11 72.2883 1250.01 Q72.2883 1242.88 70.4596 1239.33 Q68.6541 1235.77 65.0198 1235.77 M65.0198 1232.07 Q70.83 1232.07 73.8855 1236.67 Q76.9642 1241.26 76.9642 1250.01 Q76.9642 1258.73 73.8855 1263.34 Q70.83 1267.92 65.0198 1267.92 Q59.2097 1267.92 56.131 1263.34 Q53.0754 1258.73 53.0754 1250.01 Q53.0754 1241.26 56.131 1236.67 Q59.2097 1232.07 65.0198 1232.07 Z" fill="#000000" fill-rule="evenodd" fill-opacity="1" /><path clip-path="url(#clip410)" d="M85.1818 1261.37 L90.066 1261.37 L90.066 1267.25 L85.1818 1267.25 L85.1818 1261.37 Z" fill="#000000" fill-rule="evenodd" fill-opacity="1" /><path clip-path="url(#clip410)" d="M104.279 1263.32 L120.598 1263.32 L120.598 1267.25 L98.6539 1267.25 L98.6539 1263.32 Q101.316 1260.56 105.899 1255.93 Q110.506 1251.28 111.686 1249.94 Q113.932 1247.41 114.811 1245.68 Q115.714 1243.92 115.714 1242.23 Q115.714 1239.47 113.77 1237.74 Q111.848 1236 108.746 1236 Q106.547 1236 104.094 1236.76 Q101.663 1237.53 98.8854 1239.08 L98.8854 1234.36 Q101.709 1233.22 104.163 1232.64 Q106.617 1232.07 108.654 1232.07 Q114.024 1232.07 117.219 1234.75 Q120.413 1237.44 120.413 1241.93 Q120.413 1244.06 119.603 1245.98 Q118.816 1247.88 116.709 1250.47 Q116.131 1251.14 113.029 1254.36 Q109.927 1257.55 104.279 1263.32 Z" fill="#000000" fill-rule="evenodd" fill-opacity="1" /><path clip-path="url(#clip410)" d="M62.9365 863.385 Q59.3254 863.385 57.4967 866.95 Q55.6912 870.492 55.6912 877.621 Q55.6912 884.728 57.4967 888.293 Q59.3254 891.834 62.9365 891.834 Q66.5707 891.834 68.3763 888.293 Q70.205 884.728 70.205 877.621 Q70.205 870.492 68.3763 866.95 Q66.5707 863.385 62.9365 863.385 M62.9365 859.682 Q68.7467 859.682 71.8022 864.288 Q74.8809 868.871 74.8809 877.621 Q74.8809 886.348 71.8022 890.955 Q68.7467 895.538 62.9365 895.538 Q57.1264 895.538 54.0477 890.955 Q50.9921 886.348 50.9921 877.621 Q50.9921 868.871 54.0477 864.288 Q57.1264 859.682 62.9365 859.682 Z" fill="#000000" fill-rule="evenodd" fill-opacity="1" /><path clip-path="url(#clip410)" d="M83.0984 888.987 L87.9827 888.987 L87.9827 894.867 L83.0984 894.867 L83.0984 888.987 Z" fill="#000000" fill-rule="evenodd" fill-opacity="1" /><path clip-path="url(#clip410)" d="M111.015 864.381 L99.2095 882.83 L111.015 882.83 L111.015 864.381 M109.788 860.307 L115.668 860.307 L115.668 882.83 L120.598 882.83 L120.598 886.719 L115.668 886.719 L115.668 894.867 L111.015 894.867 L111.015 886.719 L95.4132 886.719 L95.4132 882.205 L109.788 860.307 Z" fill="#000000" fill-rule="evenodd" fill-opacity="1" /><path clip-path="url(#clip410)" d="M63.2606 491.001 Q59.6495 491.001 57.8208 494.566 Q56.0152 498.108 56.0152 505.237 Q56.0152 512.344 57.8208 515.909 Q59.6495 519.45 63.2606 519.45 Q66.8948 519.45 68.7004 515.909 Q70.5291 512.344 70.5291 505.237 Q70.5291 498.108 68.7004 494.566 Q66.8948 491.001 63.2606 491.001 M63.2606 487.298 Q69.0707 487.298 72.1263 491.904 Q75.205 496.487 75.205 505.237 Q75.205 513.964 72.1263 518.571 Q69.0707 523.154 63.2606 523.154 Q57.4504 523.154 54.3717 518.571 Q51.3162 513.964 51.3162 505.237 Q51.3162 496.487 54.3717 491.904 Q57.4504 487.298 63.2606 487.298 Z" fill="#000000" fill-rule="evenodd" fill-opacity="1" /><path clip-path="url(#clip410)" d="M83.4225 516.603 L88.3067 516.603 L88.3067 522.483 L83.4225 522.483 L83.4225 516.603 Z" fill="#000000" fill-rule="evenodd" fill-opacity="1" /><path clip-path="url(#clip410)" d="M109.071 503.339 Q105.922 503.339 104.071 505.492 Q102.242 507.645 102.242 511.395 Q102.242 515.122 104.071 517.298 Q105.922 519.45 109.071 519.45 Q112.219 519.45 114.047 517.298 Q115.899 515.122 115.899 511.395 Q115.899 507.645 114.047 505.492 Q112.219 503.339 109.071 503.339 M118.353 488.687 L118.353 492.946 Q116.594 492.112 114.788 491.673 Q113.006 491.233 111.246 491.233 Q106.617 491.233 104.163 494.358 Q101.733 497.483 101.385 503.802 Q102.751 501.788 104.811 500.724 Q106.871 499.636 109.348 499.636 Q114.557 499.636 117.566 502.807 Q120.598 505.955 120.598 511.395 Q120.598 516.719 117.45 519.936 Q114.302 523.154 109.071 523.154 Q103.075 523.154 99.9039 518.571 Q96.7326 513.964 96.7326 505.237 Q96.7326 497.043 100.621 492.182 Q104.51 487.298 111.061 487.298 Q112.82 487.298 114.603 487.645 Q116.408 487.992 118.353 488.687 Z" fill="#000000" fill-rule="evenodd" fill-opacity="1" /><path clip-path="url(#clip410)" d="M63.5152 118.617 Q59.9041 118.617 58.0754 122.182 Q56.2699 125.724 56.2699 132.853 Q56.2699 139.96 58.0754 143.525 Q59.9041 147.066 63.5152 147.066 Q67.1494 147.066 68.955 143.525 Q70.7837 139.96 70.7837 132.853 Q70.7837 125.724 68.955 122.182 Q67.1494 118.617 63.5152 118.617 M63.5152 114.914 Q69.3254 114.914 72.3809 119.52 Q75.4596 124.103 75.4596 132.853 Q75.4596 141.58 72.3809 146.187 Q69.3254 150.77 63.5152 150.77 Q57.7051 150.77 54.6264 146.187 Q51.5708 141.58 51.5708 132.853 Q51.5708 124.103 54.6264 119.52 Q57.7051 114.914 63.5152 114.914 Z" fill="#000000" fill-rule="evenodd" fill-opacity="1" /><path clip-path="url(#clip410)" d="M83.6771 144.219 L88.5614 144.219 L88.5614 150.099 L83.6771 150.099 L83.6771 144.219 Z" fill="#000000" fill-rule="evenodd" fill-opacity="1" /><path clip-path="url(#clip410)" d="M108.746 133.687 Q105.413 133.687 103.492 135.469 Q101.594 137.251 101.594 140.376 Q101.594 143.501 103.492 145.284 Q105.413 147.066 108.746 147.066 Q112.08 147.066 114.001 145.284 Q115.922 143.478 115.922 140.376 Q115.922 137.251 114.001 135.469 Q112.103 133.687 108.746 133.687 M104.071 131.696 Q101.061 130.955 99.3715 128.895 Q97.7048 126.835 97.7048 123.872 Q97.7048 119.728 100.645 117.321 Q103.608 114.914 108.746 114.914 Q113.908 114.914 116.848 117.321 Q119.788 119.728 119.788 123.872 Q119.788 126.835 118.098 128.895 Q116.432 130.955 113.445 131.696 Q116.825 132.483 118.7 134.775 Q120.598 137.066 120.598 140.376 Q120.598 145.4 117.52 148.085 Q114.464 150.77 108.746 150.77 Q103.029 150.77 99.9502 148.085 Q96.8947 145.4 96.8947 140.376 Q96.8947 137.066 98.7928 134.775 Q100.691 132.483 104.071 131.696 M102.358 124.312 Q102.358 126.997 104.024 128.502 Q105.714 130.006 108.746 130.006 Q111.756 130.006 113.445 128.502 Q115.158 126.997 115.158 124.312 Q115.158 121.627 113.445 120.122 Q111.756 118.617 108.746 118.617 Q105.714 118.617 104.024 120.122 Q102.358 121.627 102.358 124.312 Z" fill="#000000" fill-rule="evenodd" fill-opacity="1" /><polyline clip-path="url(#clip412)" style="stroke:#009af9; stroke-linecap:butt; stroke-linejoin:round; stroke-width:4; stroke-opacity:1; fill:none" points="
  218.754,492.643 985.068,1382.82 1697.82,866.746 603.425,445.796 1309.16,140.712 2290.6,319.275 683.662,1445.72 1616.22,87.9763 1851.01,517.519 1880.27,468.794 
  
  "/>
<path clip-path="url(#clip410)" d="
M1987.12 198.898 L2279.55 198.898 L2279.55 95.2176 L1987.12 95.2176  Z
  " fill="#ffffff" fill-rule="evenodd" fill-opacity="1"/>
<polyline clip-path="url(#clip410)" style="stroke:#000000; stroke-linecap:butt; stroke-linejoin:round; stroke-width:4; stroke-opacity:1; fill:none" points="
  1987.12,198.898 2279.55,198.898 2279.55,95.2176 1987.12,95.2176 1987.12,198.898 
  "/>
<polyline clip-path="url(#clip410)" style="stroke:#009af9; stroke-linecap:butt; stroke-linejoin:round; stroke-width:4; stroke-opacity:1; fill:none" points="
  2011.12,147.058 2155.12,147.058 
  "/>
<path clip-path="url(#clip410)" d="M2192.96 166.745 Q2191.16 171.375 2189.44 172.787 Q2187.73 174.199 2184.86 174.199 L2181.46 174.199 L2181.46 170.634 L2183.96 170.634 Q2185.72 170.634 2186.69 169.8 Q2187.66 168.967 2188.84 165.865 L2189.61 163.921 L2179.12 138.412 L2183.63 138.412 L2191.74 158.689 L2199.84 138.412 L2204.35 138.412 L2192.96 166.745 Z" fill="#000000" fill-rule="evenodd" fill-opacity="1" /><path clip-path="url(#clip410)" d="M2211.64 160.402 L2219.28 160.402 L2219.28 134.037 L2210.97 135.703 L2210.97 131.444 L2219.24 129.778 L2223.91 129.778 L2223.91 160.402 L2231.55 160.402 L2231.55 164.338 L2211.64 164.338 L2211.64 160.402 Z" fill="#000000" fill-rule="evenodd" fill-opacity="1" /></svg>
